<svg width="592" height="384" viewBox="0 0 592 384" fill="none" xmlns="http://www.w3.org/2000/svg">
<g filter="url(#filter0_d)">
<path d="M288 84.8C288 83.1198 288 82.2798 288.327 81.638C288.615 81.0735 289.074 80.6146 289.638 80.327C290.28 80 291.12 80 292.8 80H403.2C404.88 80 405.72 80 406.362 80.327C406.926 80.6146 407.385 81.0735 407.673 81.638C408 82.2798 408 83.1198 408 84.8V235.2C408 236.88 408 237.72 407.673 238.362C407.385 238.926 406.926 239.385 406.362 239.673C405.72 240 404.88 240 403.2 240H292.8C291.12 240 290.28 240 289.638 239.673C289.074 239.385 288.615 238.926 288.327 238.362C288 237.72 288 236.88 288 235.2V84.8Z" fill="#FAFAFA"/>
</g>
<path d="M338.472 113.466C334.33 114.608 328.408 118.606 324.751 123.963C321.533 128.813 319.536 134.881 320.093 140.733C320.533 144.256 321.854 147.631 321.282 151.177" stroke="#FF6164" stroke-width="1.3" stroke-miterlimit="10" stroke-linecap="round" stroke-linejoin="round"/>
<path d="M375.748 142.77C375.566 135.368 374.014 128.525 369.254 122.638C362.785 114.639 351.888 110.381 341.732 112.573" stroke="#FF6164" stroke-width="1.3" stroke-miterlimit="10" stroke-linecap="round" stroke-linejoin="round"/>
<path d="M365.574 124.046C360.746 118.424 353.554 115.488 346.363 115.929C337.263 116.369 328.75 122.533 325.614 131.188" stroke="#FF6164" stroke-width="1.3" stroke-miterlimit="10" stroke-linecap="round" stroke-linejoin="round"/>
<path d="M371.748 140.641C371.294 135.308 370.142 130.754 367.324 126.557" stroke="#FF6164" stroke-width="1.3" stroke-miterlimit="10" stroke-linecap="round" stroke-linejoin="round"/>
<path d="M371.812 154.06C372.197 151.153 372.197 147.191 371.976 143.668" stroke="#FF6164" stroke-width="1.3" stroke-miterlimit="10" stroke-linecap="round" stroke-linejoin="round"/>
<path d="M324.713 134.094C324.293 135.835 324.075 137.623 324.066 139.412C324.049 142.855 325.228 146.107 325.43 149.519C325.555 151.642 325.108 153.748 324.353 155.727" stroke="#FF6164" stroke-width="1.3" stroke-miterlimit="10" stroke-linecap="round" stroke-linejoin="round"/>
<path d="M340.14 121.405C333.872 123.922 329.153 129.606 328.189 136.33C327.567 140.664 328.941 144.791 329.202 149.099C329.397 152.328 329.025 155.803 326.976 158.95" stroke="#FF6164" stroke-width="1.3" stroke-miterlimit="10" stroke-linecap="round" stroke-linejoin="round"/>
<path d="M367.632 139.652C367.046 133.918 364.802 128.618 360.893 124.956C356.248 120.605 349.492 119.071 343.335 120.422" stroke="#FF6164" stroke-width="1.3" stroke-miterlimit="10" stroke-linecap="round" stroke-linejoin="round"/>
<path d="M368.154 142.973C368.706 148.344 368.469 154.158 367.633 159.791" stroke="#FF6164" stroke-width="1.3" stroke-miterlimit="10" stroke-linecap="round" stroke-linejoin="round"/>
<path d="M357.895 127.686C355.141 125.347 351.553 123.932 347.629 123.932C338.948 123.932 331.911 130.856 331.911 139.396C331.911 140.309 331.992 141.203 332.146 142.073" stroke="#FF6164" stroke-width="1.3" stroke-miterlimit="10" stroke-linecap="round" stroke-linejoin="round"/>
<path d="M364.515 149.702C364.515 146.1 364.139 134.17 359.997 129.851" stroke="#FF6164" stroke-width="1.3" stroke-miterlimit="10" stroke-linecap="round" stroke-linejoin="round"/>
<path d="M364.367 153.017C364.079 156.638 363.699 160.286 362.925 163.667" stroke="#FF6164" stroke-width="1.3" stroke-miterlimit="10" stroke-linecap="round" stroke-linejoin="round"/>
<path d="M332.626 144.911C333.843 151.089 332.998 156.654 329.808 161.522" stroke="#FF6164" stroke-width="1.3" stroke-miterlimit="10" stroke-linecap="round" stroke-linejoin="round"/>
<path d="M357.893 166.024C360.553 159.127 361.786 144.733 359.162 136.184C357.001 129.146 350.22 127.751 347.627 127.751C342.04 127.751 336.607 132.09 336.058 137.426C335.576 142.102 337.262 146.567 337.057 151.228C336.833 156.294 335.344 160.503 332.768 163.977" stroke="#FF6164" stroke-width="1.3" stroke-miterlimit="10" stroke-linecap="round" stroke-linejoin="round"/>
<path d="M336.264 165.789C336.982 164.687 337.554 163.438 338.273 162.336" stroke="#FF6164" stroke-width="1.3" stroke-miterlimit="10" stroke-linecap="round" stroke-linejoin="round"/>
<path d="M339.469 159.498C340.598 156.884 341.184 154.143 341.261 151.154C341.406 145.503 339.803 143.154 339.803 139.107C339.803 136.199 341.106 134.232 343.293 132.77" stroke="#FF6164" stroke-width="1.3" stroke-miterlimit="10" stroke-linecap="round" stroke-linejoin="round"/>
<path d="M355.444 160.621C356.542 155.476 357.083 150.376 356.61 145.137C356.266 141.33 355.754 135.941 352.529 133.33C350.74 131.882 348.298 131.308 346.029 131.771" stroke="#FF6164" stroke-width="1.3" stroke-miterlimit="10" stroke-linecap="round" stroke-linejoin="round"/>
<path d="M352.957 167.487C353.677 166.283 354.247 164.973 354.617 163.519" stroke="#FF6164" stroke-width="1.3" stroke-miterlimit="10" stroke-linecap="round" stroke-linejoin="round"/>
<path d="M348.5 168C350.466 164.453 351.699 160.351 352.246 155.727" stroke="#FF6164" stroke-width="1.3" stroke-miterlimit="10" stroke-linecap="round" stroke-linejoin="round"/>
<path d="M352.611 152.568C352.934 148.538 352.479 143.884 351.621 138.907C351.263 136.993 349.625 135.547 347.658 135.547C345.429 135.547 343.622 137.404 343.622 139.694C343.622 140.071 343.672 140.436 343.764 140.784C345.067 145.938 345.284 150.92 344.398 155.727C343.632 160.028 342.159 163.906 340.144 167.199" stroke="#FF6164" stroke-width="1.3" stroke-miterlimit="10" stroke-linecap="round" stroke-linejoin="round"/>
<path d="M344.082 167.776L345.638 164.748" stroke="#FF6164" stroke-width="1.3" stroke-miterlimit="10" stroke-linecap="round" stroke-linejoin="round"/>
<path d="M346.794 161.975C349.257 155.536 349.521 148.012 347.521 139.499" stroke="#FF6164" stroke-width="1.3" stroke-miterlimit="10" stroke-linecap="round" stroke-linejoin="round"/>
<path d="M324.565 208V199.619H327.607V198.136H319.766V199.619H322.802V208H324.565ZM330.856 208.15C333.091 208.15 334.451 206.688 334.451 204.261C334.451 201.848 333.084 200.385 330.856 200.385C328.634 200.385 327.26 201.854 327.26 204.261C327.26 206.688 328.613 208.15 330.856 208.15ZM330.856 206.763C329.673 206.763 328.996 205.847 328.996 204.268C328.996 202.688 329.673 201.772 330.856 201.772C332.031 201.772 332.708 202.688 332.708 204.268C332.708 205.847 332.038 206.763 330.856 206.763ZM342.348 200.528H340.653V204.883C340.653 206.011 340.051 206.694 338.951 206.694C337.939 206.694 337.467 206.134 337.467 204.972V200.528H335.772V205.382C335.772 207.132 336.729 208.15 338.363 208.15C339.504 208.15 340.236 207.665 340.598 206.811H340.714V208H342.348V200.528ZM350.566 203.023C350.389 201.479 349.226 200.385 347.306 200.385C345.056 200.385 343.737 201.827 343.737 204.247C343.737 206.694 345.063 208.15 347.312 208.15C349.206 208.15 350.382 207.098 350.566 205.553H348.953C348.775 206.339 348.187 206.756 347.306 206.756C346.15 206.756 345.453 205.833 345.453 204.247C345.453 202.688 346.143 201.772 347.306 201.772C348.235 201.772 348.796 202.299 348.953 203.023H350.566ZM351.935 208H353.63V203.659C353.63 202.565 354.252 201.834 355.366 201.834C356.351 201.834 356.87 202.422 356.87 203.577V208H358.566V203.181C358.566 201.403 357.595 200.392 355.995 200.392C354.881 200.392 354.081 200.897 353.726 201.738H353.603V197.637H351.935V208ZM365.609 208V198.136H363.846V208H365.609ZM367.723 198.136V208H371.421C374.374 208 376.063 206.188 376.063 203.023C376.063 199.927 374.354 198.136 371.421 198.136H367.723ZM369.486 199.619H371.189C373.123 199.619 374.265 200.877 374.265 203.051C374.265 205.272 373.151 206.517 371.189 206.517H369.486V199.619Z" fill="#353535"/>
<g filter="url(#filter1_d)">
<rect x="184" y="144" width="120" height="160" rx="3" fill="#FAFAFA"/>
</g>
<path d="M223.168 272V267.974H227.304V266.538H223.168V263.619H227.693V262.136H221.404V272H223.168ZM230.812 272.123C231.789 272.123 232.61 271.699 233.027 270.975H233.143V272H234.777V266.894C234.777 265.314 233.697 264.385 231.776 264.385C229.998 264.385 228.761 265.219 228.624 266.524H230.224C230.381 266.012 230.914 265.731 231.694 265.731C232.61 265.731 233.102 266.148 233.102 266.894V267.536L231.174 267.652C229.356 267.755 228.337 268.541 228.337 269.881C228.337 271.248 229.369 272.123 230.812 272.123ZM231.311 270.817C230.559 270.817 230.019 270.441 230.019 269.799C230.019 269.177 230.463 268.828 231.413 268.767L233.102 268.65V269.259C233.102 270.147 232.336 270.817 231.311 270.817ZM242.961 267.023C242.783 265.479 241.621 264.385 239.7 264.385C237.451 264.385 236.132 265.827 236.132 268.247C236.132 270.694 237.458 272.15 239.707 272.15C241.6 272.15 242.776 271.098 242.961 269.553H241.347C241.17 270.339 240.582 270.756 239.7 270.756C238.545 270.756 237.847 269.833 237.847 268.247C237.847 266.688 238.538 265.772 239.7 265.772C240.63 265.772 241.19 266.299 241.347 267.023H242.961ZM249.135 269.956C248.889 270.517 248.308 270.831 247.467 270.831C246.353 270.831 245.635 270.038 245.594 268.773V268.685H250.816V268.145C250.816 265.8 249.538 264.385 247.405 264.385C245.238 264.385 243.892 265.896 243.892 268.295C243.892 270.688 245.218 272.15 247.419 272.15C249.183 272.15 250.434 271.303 250.741 269.956H249.135ZM247.398 265.704C248.417 265.704 249.087 266.422 249.121 267.557H245.601C245.676 266.436 246.387 265.704 247.398 265.704ZM257.552 272V262.136H255.789V272H257.552ZM259.666 262.136V272H263.364C266.317 272 268.006 270.188 268.006 267.023C268.006 263.927 266.297 262.136 263.364 262.136H259.666ZM261.43 263.619H263.132C265.066 263.619 266.208 264.877 266.208 267.051C266.208 269.272 265.094 270.517 263.132 270.517H261.43V263.619Z" fill="#353535"/>
<path fill-rule="evenodd" clip-rule="evenodd" d="M218.844 191.367V185.078C218.844 181.64 221.641 178.844 225.078 178.844H231.367C232.152 178.844 232.789 178.207 232.789 177.422C232.789 176.637 232.152 176 231.367 176H225.078C220.072 176 216 180.072 216 185.078V191.367C216 192.152 216.637 192.789 217.422 192.789C218.207 192.789 218.844 192.152 218.844 191.367ZM231.367 229.156C232.152 229.156 232.789 229.793 232.789 230.578C232.789 231.363 232.152 232 231.367 232H225.078C220.072 232 216 227.928 216 222.922V216.633C216 215.848 216.637 215.211 217.422 215.211C218.207 215.211 218.844 215.848 218.844 216.633V222.922C218.844 226.359 221.641 229.156 225.078 229.156H231.367ZM272 216.633V222.922C272 227.928 267.928 232 262.922 232H256.633C255.848 232 255.211 231.363 255.211 230.578C255.211 229.793 255.848 229.156 256.633 229.156H262.922C266.359 229.156 269.156 226.359 269.156 222.922V216.633C269.156 215.848 269.793 215.211 270.578 215.211C271.363 215.211 272 215.848 272 216.633ZM272 185.078V191.367C272 192.152 271.363 192.789 270.578 192.789C269.793 192.789 269.156 192.152 269.156 191.367V185.078C269.156 181.64 266.359 178.844 262.922 178.844H256.633C255.848 178.844 255.211 178.207 255.211 177.422C255.211 176.637 255.848 176 256.633 176H262.922C267.928 176 272 180.072 272 185.078ZM253.812 217.39C254.411 216.836 254.448 215.902 253.894 215.303C253.341 214.704 252.407 214.667 251.808 215.22C249.676 217.189 246.903 218.274 243.999 218.274C241.095 218.274 238.322 217.189 236.19 215.22C235.591 214.667 234.657 214.704 234.104 215.303C233.551 215.902 233.588 216.836 234.187 217.39C236.865 219.864 240.35 221.227 243.999 221.227C247.648 221.227 251.133 219.864 253.812 217.39ZM246.953 197.109V207.609C246.953 209.69 245.26 211.383 243.18 211.383H241.977C241.161 211.383 240.5 210.722 240.5 209.906C240.5 209.091 241.161 208.43 241.977 208.43H243.18C243.632 208.43 244 208.062 244 207.609V197.109C244 196.294 244.661 195.633 245.477 195.633C246.292 195.633 246.953 196.294 246.953 197.109ZM257.125 201.238V197.027C257.125 196.257 256.501 195.633 255.73 195.633C254.96 195.633 254.336 196.257 254.336 197.027V201.238C254.336 202.008 254.96 202.633 255.73 202.633C256.501 202.633 257.125 202.008 257.125 201.238ZM231.203 201.238C231.203 202.008 231.827 202.633 232.598 202.633C233.368 202.633 233.992 202.008 233.992 201.238V197.027C233.992 196.257 233.368 195.633 232.598 195.633C231.827 195.633 231.203 196.257 231.203 197.027V201.238Z" fill="#353535"/>
<defs>
<filter id="filter0_d" x="268" y="60" width="160" height="200" filterUnits="userSpaceOnUse" color-interpolation-filters="sRGB">
<feFlood flood-opacity="0" result="BackgroundImageFix"/>
<feColorMatrix in="SourceAlpha" type="matrix" values="0 0 0 0 0 0 0 0 0 0 0 0 0 0 0 0 0 0 127 0"/>
<feOffset/>
<feGaussianBlur stdDeviation="10"/>
<feColorMatrix type="matrix" values="0 0 0 0 0.207843 0 0 0 0 0.207843 0 0 0 0 0.207843 0 0 0 0.02 0"/>
<feBlend mode="normal" in2="BackgroundImageFix" result="effect1_dropShadow"/>
<feBlend mode="normal" in="SourceGraphic" in2="effect1_dropShadow" result="shape"/>
</filter>
<filter id="filter1_d" x="164" y="124" width="160" height="200" filterUnits="userSpaceOnUse" color-interpolation-filters="sRGB">
<feFlood flood-opacity="0" result="BackgroundImageFix"/>
<feColorMatrix in="SourceAlpha" type="matrix" values="0 0 0 0 0 0 0 0 0 0 0 0 0 0 0 0 0 0 127 0"/>
<feOffset/>
<feGaussianBlur stdDeviation="10"/>
<feColorMatrix type="matrix" values="0 0 0 0 0.207843 0 0 0 0 0.207843 0 0 0 0 0.207843 0 0 0 0.02 0"/>
<feBlend mode="normal" in2="BackgroundImageFix" result="effect1_dropShadow"/>
<feBlend mode="normal" in="SourceGraphic" in2="effect1_dropShadow" result="shape"/>
</filter>
</defs>
</svg>
