<svg width="176" height="112" viewBox="0 0 176 112" fill="none" xmlns="http://www.w3.org/2000/svg">
<rect width="176" height="112" fill="#FAFAFA"/>
<path d="M102.992 60.7042C102.992 61.0732 102.846 61.4271 102.584 61.6878L96.3643 67.908C96.2055 68.0692 95.9649 68.1182 95.7557 68.032C95.5465 67.9458 95.4103 67.7416 95.4111 67.5153V53.5767L102.901 46.127H102.989L102.992 60.7042Z" fill="#FA395B"/>
<path d="M98.0272 41.1629C97.9231 41.0586 97.7819 41 97.6345 41C97.4872 41 97.3459 41.0586 97.2418 41.1629L87.9926 50.414H87.8706V60.8547L88.0002 61.1273L95.4232 53.7043L103.001 46.1268L98.0272 41.1629Z" fill="#EFD198"/>
<path d="M73.002 60.7042C72.9987 61.0716 73.1413 61.4254 73.3985 61.6878L79.6187 67.908C79.7775 68.0692 80.018 68.1182 80.2272 68.032C80.4364 67.9458 80.5726 67.7416 80.5718 67.5153V53.5767L73.0783 46.127H73.002V60.7042Z" fill="#007A8E"/>
<path d="M78.7417 41.1629C78.6376 41.0586 78.4963 41 78.349 41C78.2017 41 78.0604 41.0586 77.9563 41.1629L73 46.1192L80.5755 53.6966L88.0004 61.1197V50.4064L78.7417 41.1629Z" fill="#91BFA8"/>
</svg>
