<svg width="384" height="384" viewBox="0 0 384 384" fill="none" xmlns="http://www.w3.org/2000/svg">
<g filter="url(#filter0_d_2440_20988)">
<rect x="122" y="96" width="140" height="180" rx="4" fill="#111111"/>
</g>
<path d="M131.004 296.196H133.572C133.872 296.196 134.112 295.956 134.112 295.656C134.112 295.356 133.872 295.116 133.572 295.116H131.004V292.404H135.012C135.312 292.404 135.552 292.164 135.552 291.864C135.552 291.564 135.312 291.324 135.012 291.324H130.392C130.068 291.324 129.804 291.6 129.804 291.924V299.4C129.804 299.736 130.068 300 130.404 300C130.74 300 131.004 299.736 131.004 299.4V296.196ZM140.442 299.208V299.436C140.442 299.748 140.694 300 141.006 300C141.318 300 141.57 299.748 141.57 299.436V294.12C141.57 293.808 141.318 293.556 141.006 293.556C140.694 293.556 140.442 293.808 140.442 294.12V294.3C140.034 293.748 139.41 293.496 138.786 293.496C137.262 293.496 136.098 294.816 136.098 296.784C136.098 298.764 137.274 300.06 138.798 300.06C139.494 300.06 140.082 299.748 140.442 299.208ZM138.834 299.1C137.898 299.1 137.214 298.236 137.214 296.784C137.214 295.344 137.898 294.456 138.834 294.456C139.746 294.456 140.454 295.344 140.454 296.784C140.454 298.236 139.746 299.1 138.834 299.1ZM148.614 298.128C148.614 297.108 148.05 296.544 146.814 296.292L145.806 296.088C145.266 295.98 144.75 295.836 144.75 295.272C144.75 294.9 145.038 294.468 145.938 294.468C146.586 294.468 146.97 294.648 147.438 294.96C147.546 295.032 147.702 295.092 147.822 295.092C148.098 295.092 148.302 294.912 148.302 294.648C148.302 294.468 148.218 294.3 148.026 294.144C147.534 293.736 146.802 293.496 146.01 293.496C144.906 293.496 144.234 293.94 143.886 294.528C143.742 294.768 143.67 295.044 143.67 295.32C143.67 296.328 144.45 296.856 145.47 297.048L146.478 297.24C147.102 297.36 147.546 297.564 147.546 298.164C147.546 298.74 147.042 299.088 146.166 299.088C145.302 299.088 144.858 298.764 144.438 298.344C144.342 298.248 144.198 298.14 144.03 298.14C143.73 298.14 143.49 298.356 143.49 298.656C143.49 298.836 143.574 298.98 143.67 299.1C144.018 299.496 144.786 300.06 146.154 300.06C147.702 300.06 148.614 299.28 148.614 298.128ZM154.6 299.028C154.6 298.752 154.444 298.536 154.168 298.536C154.024 298.536 153.88 298.62 153.724 298.752C153.532 298.92 153.232 299.04 153.016 299.04C152.512 299.04 152.296 298.716 152.296 297.888V294.576H153.712C153.988 294.576 154.216 294.348 154.216 294.06C154.216 293.784 153.988 293.556 153.7 293.556H152.296V291.756C152.296 291.444 152.044 291.192 151.732 291.192C151.42 291.192 151.168 291.444 151.168 291.756V293.556H150.232C149.956 293.556 149.728 293.784 149.728 294.072C149.728 294.348 149.956 294.576 150.244 294.576H151.168V297.96C151.168 299.304 151.768 300.06 153.016 300.06C153.544 300.06 154.108 299.82 154.42 299.448C154.528 299.328 154.6 299.184 154.6 299.028ZM158.064 298.992C158.064 298.392 157.584 297.912 156.984 297.912C156.396 297.912 155.916 298.392 155.916 298.992C155.916 299.58 156.396 300.06 156.984 300.06C157.584 300.06 158.064 299.58 158.064 298.992ZM169.883 297.6C169.859 295.932 168.647 295.416 167.411 295.056L166.379 294.756C165.551 294.516 165.083 294.216 165.083 293.52C165.083 292.596 166.079 292.248 166.823 292.248C167.483 292.248 168.047 292.488 168.527 292.884C168.683 293.016 168.863 293.1 169.043 293.1C169.343 293.1 169.547 292.908 169.547 292.596C169.547 292.452 169.487 292.32 169.367 292.188C168.887 291.672 168.071 291.204 166.835 291.204C165.047 291.204 163.931 292.236 163.931 293.532C163.931 294.864 164.663 295.416 166.055 295.824L167.159 296.148C168.107 296.424 168.707 296.808 168.707 297.648C168.707 298.572 167.951 299.064 166.943 299.064C166.151 299.064 165.443 298.812 164.879 298.104C164.735 297.924 164.567 297.816 164.351 297.816C164.039 297.816 163.799 298.056 163.799 298.356C163.799 298.5 163.847 298.644 163.967 298.812C164.627 299.676 165.743 300.132 166.919 300.132C168.695 300.132 169.883 299.1 169.883 297.6ZM172.906 294.12C172.906 293.808 172.654 293.556 172.342 293.556C172.03 293.556 171.778 293.808 171.778 294.12V299.436C171.778 299.748 172.03 300 172.342 300C172.654 300 172.906 299.748 172.906 299.436V294.12ZM173.206 291.552C173.206 291.084 172.81 290.688 172.342 290.688C171.874 290.688 171.478 291.084 171.478 291.552C171.478 292.02 171.874 292.416 172.342 292.416C172.81 292.416 173.206 292.02 173.206 291.552ZM183.093 296.016C183.093 295.38 183.021 294.876 182.853 294.504C182.589 293.928 182.049 293.496 181.233 293.496C180.393 293.496 179.865 293.892 179.529 294.54C179.313 293.952 178.737 293.496 177.921 293.496C177.249 293.496 176.733 293.784 176.433 294.252V294.12C176.433 293.808 176.181 293.556 175.869 293.556C175.557 293.556 175.305 293.808 175.305 294.12V299.436C175.305 299.748 175.557 300 175.869 300C176.181 300 176.433 299.748 176.433 299.436V295.956C176.433 295.68 176.481 295.344 176.601 295.14C176.817 294.756 177.237 294.516 177.705 294.516C178.149 294.516 178.437 294.828 178.533 295.14C178.605 295.38 178.629 295.704 178.629 296.16V299.436C178.629 299.748 178.881 300 179.193 300C179.505 300 179.757 299.748 179.757 299.436V296.064C179.757 295.764 179.817 295.392 179.925 295.188C180.141 294.792 180.525 294.516 181.029 294.516C181.485 294.516 181.773 294.828 181.881 295.188C181.953 295.428 181.965 295.98 181.965 296.136V299.436C181.965 299.748 182.217 300 182.529 300C182.841 300 183.093 299.748 183.093 299.436V296.016ZM188.226 293.496C187.554 293.496 186.99 293.808 186.57 294.312V294.12C186.57 293.808 186.318 293.556 186.006 293.556C185.694 293.556 185.442 293.808 185.442 294.12V301.68C185.442 301.992 185.694 302.244 186.006 302.244C186.318 302.244 186.57 301.992 186.57 301.68V299.292C186.942 299.724 187.482 300.06 188.298 300.06C189.798 300.06 190.914 298.728 190.914 296.784C190.914 294.804 189.738 293.496 188.226 293.496ZM188.178 299.1C187.266 299.1 186.558 298.236 186.558 296.784C186.558 295.344 187.266 294.456 188.178 294.456C189.114 294.456 189.798 295.344 189.798 296.784C189.798 298.236 189.114 299.1 188.178 299.1ZM194.094 291.888C194.094 291.576 193.842 291.324 193.53 291.324C193.218 291.324 192.966 291.576 192.966 291.888V299.436C192.966 299.748 193.218 300 193.53 300C193.842 300 194.094 299.748 194.094 299.436V291.888ZM201.401 296.604C201.401 294.588 200.285 293.496 198.869 293.496C197.441 293.496 196.145 294.672 196.145 296.784C196.145 298.812 197.321 300.06 198.869 300.06C199.901 300.06 200.597 299.604 200.993 299.004C201.053 298.908 201.125 298.776 201.125 298.632C201.125 298.344 200.945 298.128 200.657 298.128C200.465 298.128 200.321 298.224 200.201 298.392C199.865 298.86 199.469 299.1 198.845 299.1C197.945 299.1 197.345 298.308 197.261 297.192H200.861C201.161 297.192 201.401 297.012 201.401 296.604ZM200.297 296.232H197.285C197.369 295.14 198.005 294.456 198.869 294.456C199.721 294.456 200.261 295.14 200.297 296.232ZM205.232 298.992C205.232 298.392 204.752 297.912 204.152 297.912C203.564 297.912 203.084 298.392 203.084 298.992C203.084 299.58 203.564 300.06 204.152 300.06C204.752 300.06 205.232 299.58 205.232 298.992ZM217.051 297.6C217.027 295.932 215.815 295.416 214.579 295.056L213.547 294.756C212.719 294.516 212.251 294.216 212.251 293.52C212.251 292.596 213.247 292.248 213.991 292.248C214.651 292.248 215.215 292.488 215.695 292.884C215.851 293.016 216.031 293.1 216.211 293.1C216.511 293.1 216.715 292.908 216.715 292.596C216.715 292.452 216.655 292.32 216.535 292.188C216.055 291.672 215.239 291.204 214.003 291.204C212.215 291.204 211.099 292.236 211.099 293.532C211.099 294.864 211.831 295.416 213.223 295.824L214.327 296.148C215.275 296.424 215.875 296.808 215.875 297.648C215.875 298.572 215.119 299.064 214.111 299.064C213.319 299.064 212.611 298.812 212.047 298.104C211.903 297.924 211.735 297.816 211.519 297.816C211.207 297.816 210.967 298.056 210.967 298.356C210.967 298.5 211.015 298.644 211.135 298.812C211.795 299.676 212.911 300.132 214.087 300.132C215.863 300.132 217.051 299.1 217.051 297.6ZM223.842 296.604C223.842 294.588 222.726 293.496 221.31 293.496C219.882 293.496 218.586 294.672 218.586 296.784C218.586 298.812 219.762 300.06 221.31 300.06C222.342 300.06 223.038 299.604 223.434 299.004C223.494 298.908 223.566 298.776 223.566 298.632C223.566 298.344 223.386 298.128 223.098 298.128C222.906 298.128 222.762 298.224 222.642 298.392C222.306 298.86 221.91 299.1 221.286 299.1C220.386 299.1 219.786 298.308 219.702 297.192H223.302C223.602 297.192 223.842 297.012 223.842 296.604ZM222.738 296.232H219.726C219.81 295.14 220.446 294.456 221.31 294.456C222.162 294.456 222.702 295.14 222.738 296.232ZM228.165 294.492C228.777 294.492 229.173 294.804 229.461 295.284C229.605 295.524 229.749 295.668 229.989 295.668C230.277 295.668 230.481 295.452 230.481 295.2C230.481 295.02 230.421 294.888 230.373 294.792C229.953 294 229.197 293.496 228.177 293.496C226.641 293.496 225.453 294.792 225.453 296.784C225.453 298.776 226.641 300.06 228.189 300.06C229.233 300.06 230.061 299.46 230.385 298.8C230.433 298.692 230.493 298.536 230.493 298.416C230.493 298.128 230.277 297.888 229.989 297.888C229.809 297.888 229.617 297.972 229.485 298.248C229.245 298.764 228.789 299.064 228.189 299.064C227.253 299.064 226.569 298.236 226.569 296.784C226.569 295.716 227.025 294.492 228.165 294.492ZM236.322 299.436C236.322 299.748 236.574 300 236.886 300C237.198 300 237.45 299.748 237.45 299.436V294.12C237.45 293.808 237.198 293.556 236.886 293.556C236.574 293.556 236.322 293.808 236.322 294.12V297.396C236.322 297.696 236.262 298.044 236.094 298.308C235.806 298.788 235.23 299.04 234.714 299.04C234.138 299.04 233.754 298.764 233.61 298.356C233.538 298.152 233.514 297.792 233.514 297.504V294.12C233.514 293.808 233.262 293.556 232.95 293.556C232.638 293.556 232.386 293.808 232.386 294.12V297.564C232.386 298.128 232.434 298.68 232.698 299.124C233.094 299.796 233.826 300.06 234.498 300.06C235.278 300.06 235.938 299.736 236.322 299.292V299.436ZM244.508 294.6C244.508 294.456 244.46 294.324 244.352 294.204C243.944 293.748 243.38 293.496 242.696 293.496C241.964 293.496 241.364 293.784 240.98 294.288V294.12C240.98 293.808 240.728 293.556 240.416 293.556C240.104 293.556 239.852 293.808 239.852 294.12V299.436C239.852 299.748 240.104 300 240.416 300C240.728 300 240.98 299.748 240.98 299.436V296.604C240.98 295.848 241.064 295.416 241.304 295.092C241.556 294.756 241.916 294.504 242.504 294.504C242.972 294.504 243.224 294.612 243.596 294.912C243.728 295.02 243.848 295.104 244.028 295.104C244.328 295.104 244.508 294.852 244.508 294.6ZM250.772 296.604C250.772 294.588 249.656 293.496 248.24 293.496C246.812 293.496 245.516 294.672 245.516 296.784C245.516 298.812 246.692 300.06 248.24 300.06C249.272 300.06 249.968 299.604 250.364 299.004C250.424 298.908 250.496 298.776 250.496 298.632C250.496 298.344 250.316 298.128 250.028 298.128C249.836 298.128 249.692 298.224 249.572 298.392C249.236 298.86 248.84 299.1 248.216 299.1C247.316 299.1 246.716 298.308 246.632 297.192H250.232C250.532 297.192 250.772 297.012 250.772 296.604ZM249.668 296.232H246.656C246.74 295.14 247.376 294.456 248.24 294.456C249.092 294.456 249.632 295.14 249.668 296.232ZM254.603 298.992C254.603 298.392 254.123 297.912 253.523 297.912C252.935 297.912 252.455 298.392 252.455 298.992C252.455 299.58 252.935 300.06 253.523 300.06C254.123 300.06 254.603 299.58 254.603 298.992Z" fill="#414141"/>
<rect x="132" y="106" width="4.79998" height="4.79998" rx="2.39999" fill="#FAFAFA"/>
<rect x="132" y="110.8" width="4.79998" height="4.79998" rx="2.39999" fill="#FAFAFA"/>
<rect x="132" y="115.6" width="4.79998" height="4.79998" rx="2.39999" fill="#FAFAFA"/>
<rect x="132" y="120.4" width="4.79998" height="4.79998" rx="2.39999" fill="#FAFAFA"/>
<rect x="132" y="125.201" width="4.79998" height="4.79998" rx="2.39999" fill="#FAFAFA"/>
<rect x="132" y="130" width="4.79998" height="4.79998" rx="2.39999" fill="#FAFAFA"/>
<rect x="132" y="134.801" width="4.79998" height="4.79998" rx="2.39999" fill="#FAFAFA"/>
<rect x="132" y="144.4" width="4.79998" height="4.79998" rx="2.39999" fill="#FAFAFA"/>
<rect x="132" y="149.2" width="4.79998" height="4.79998" rx="2.39999" fill="#FAFAFA"/>
<rect x="132" y="168.4" width="4.79998" height="4.79998" rx="2.39999" fill="#FAFAFA"/>
<rect x="132" y="178" width="4.79998" height="4.79998" rx="2.39999" fill="#FAFAFA"/>
<rect x="132" y="192.4" width="4.79998" height="4.79998" rx="2.39999" fill="#FAFAFA"/>
<rect x="132" y="197.199" width="4.79998" height="4.79998" rx="2.39999" fill="#FAFAFA"/>
<rect x="132" y="201.999" width="4.79998" height="4.79998" rx="2.39999" fill="#FAFAFA"/>
<rect x="132" y="206.799" width="4.79998" height="4.79998" rx="2.39999" fill="#FAFAFA"/>
<rect x="132" y="211.6" width="4.79998" height="4.79998" rx="2.39999" fill="#FAFAFA"/>
<rect x="132" y="216.399" width="4.79998" height="4.79998" rx="2.39999" fill="#FAFAFA"/>
<rect x="132" y="221.2" width="4.79998" height="4.79998" rx="2.39999" fill="#FAFAFA"/>
<rect x="136.8" y="106" width="4.79998" height="4.79998" rx="2.39999" fill="#FAFAFA"/>
<rect x="136.8" y="134.801" width="4.79998" height="4.79998" rx="2.39999" fill="#FAFAFA"/>
<rect x="136.8" y="144.4" width="4.79998" height="4.79998" rx="2.39999" fill="#FAFAFA"/>
<rect x="136.8" y="149.2" width="4.79998" height="4.79998" rx="2.39999" fill="#FAFAFA"/>
<rect x="136.8" y="154" width="4.79998" height="4.79998" rx="2.39999" fill="#FAFAFA"/>
<rect x="136.8" y="158.799" width="4.79998" height="4.79998" rx="2.39999" fill="#FAFAFA"/>
<rect x="136.8" y="168.4" width="4.79998" height="4.79998" rx="2.39999" fill="#FAFAFA"/>
<rect x="136.8" y="173.2" width="4.79998" height="4.79998" rx="2.39999" fill="#FAFAFA"/>
<rect x="136.8" y="182.8" width="4.79998" height="4.79998" rx="2.39999" fill="#FAFAFA"/>
<rect x="136.8" y="192.4" width="4.79998" height="4.79998" rx="2.39999" fill="#FAFAFA"/>
<rect x="136.8" y="221.2" width="4.79998" height="4.79998" rx="2.39999" fill="#FAFAFA"/>
<rect x="141.6" y="106" width="4.79998" height="4.79998" rx="2.39999" fill="#FAFAFA"/>
<rect x="141.6" y="115.6" width="4.79998" height="4.79998" rx="2.39999" fill="#FAFAFA"/>
<rect x="141.6" y="120.4" width="4.79998" height="4.79998" rx="2.39999" fill="#FAFAFA"/>
<rect x="141.6" y="125.201" width="4.79998" height="4.79998" rx="2.39999" fill="#FAFAFA"/>
<rect x="141.6" y="134.801" width="4.79998" height="4.79998" rx="2.39999" fill="#FAFAFA"/>
<rect x="141.6" y="144.4" width="4.79998" height="4.79998" rx="2.39999" fill="#FAFAFA"/>
<rect x="141.6" y="149.2" width="4.79998" height="4.79998" rx="2.39999" fill="#FAFAFA"/>
<rect x="141.6" y="154" width="4.79998" height="4.79998" rx="2.39999" fill="#FAFAFA"/>
<rect x="141.6" y="168.4" width="4.79998" height="4.79998" rx="2.39999" fill="#FAFAFA"/>
<rect x="141.6" y="182.8" width="4.79998" height="4.79998" rx="2.39999" fill="#FAFAFA"/>
<rect x="141.6" y="192.4" width="4.79998" height="4.79998" rx="2.39999" fill="#FAFAFA"/>
<rect x="141.6" y="201.999" width="4.79998" height="4.79998" rx="2.39999" fill="#FAFAFA"/>
<rect x="141.6" y="206.799" width="4.79998" height="4.79998" rx="2.39999" fill="#FAFAFA"/>
<rect x="141.6" y="211.6" width="4.79998" height="4.79998" rx="2.39999" fill="#FAFAFA"/>
<rect x="141.6" y="221.2" width="4.79998" height="4.79998" rx="2.39999" fill="#FAFAFA"/>
<rect x="146.399" y="106" width="4.79998" height="4.79998" rx="2.39999" fill="#FAFAFA"/>
<rect x="146.399" y="115.6" width="4.79998" height="4.79998" rx="2.39999" fill="#FAFAFA"/>
<rect x="146.399" y="120.4" width="4.79998" height="4.79998" rx="2.39999" fill="#FAFAFA"/>
<rect x="146.399" y="125.201" width="4.79998" height="4.79998" rx="2.39999" fill="#FAFAFA"/>
<rect x="146.399" y="134.801" width="4.79998" height="4.79998" rx="2.39999" fill="#FAFAFA"/>
<rect x="146.399" y="149.2" width="4.79998" height="4.79998" rx="2.39999" fill="#FAFAFA"/>
<rect x="146.399" y="163.6" width="4.79998" height="4.79998" rx="2.39999" fill="#FAFAFA"/>
<rect x="146.399" y="168.4" width="4.79998" height="4.79998" rx="2.39999" fill="#FAFAFA"/>
<rect x="146.399" y="178" width="4.79998" height="4.79998" rx="2.39999" fill="#FAFAFA"/>
<rect x="146.399" y="192.4" width="4.79998" height="4.79998" rx="2.39999" fill="#FAFAFA"/>
<rect x="146.399" y="201.999" width="4.79998" height="4.79998" rx="2.39999" fill="#FAFAFA"/>
<rect x="146.399" y="206.799" width="4.79998" height="4.79998" rx="2.39999" fill="#FAFAFA"/>
<rect x="146.399" y="211.6" width="4.79998" height="4.79998" rx="2.39999" fill="#FAFAFA"/>
<rect x="146.399" y="221.2" width="4.79998" height="4.79998" rx="2.39999" fill="#FAFAFA"/>
<rect x="151.201" y="106" width="4.79998" height="4.79998" rx="2.39999" fill="#FAFAFA"/>
<rect x="151.201" y="115.6" width="4.79998" height="4.79998" rx="2.39999" fill="#FAFAFA"/>
<rect x="151.201" y="120.4" width="4.79998" height="4.79998" rx="2.39999" fill="#FAFAFA"/>
<rect x="151.201" y="125.201" width="4.79998" height="4.79998" rx="2.39999" fill="#FAFAFA"/>
<rect x="151.201" y="134.801" width="4.79998" height="4.79998" rx="2.39999" fill="#FAFAFA"/>
<rect x="151.201" y="144.4" width="4.79998" height="4.79998" rx="2.39999" fill="#FAFAFA"/>
<rect x="151.201" y="154" width="4.79998" height="4.79998" rx="2.39999" fill="#FAFAFA"/>
<rect x="151.201" y="158.799" width="4.79998" height="4.79998" rx="2.39999" fill="#FAFAFA"/>
<rect x="151.201" y="168.4" width="4.79998" height="4.79998" rx="2.39999" fill="#FAFAFA"/>
<rect x="151.201" y="182.8" width="4.79998" height="4.79998" rx="2.39999" fill="#FAFAFA"/>
<rect x="151.201" y="192.4" width="4.79998" height="4.79998" rx="2.39999" fill="#FAFAFA"/>
<rect x="151.201" y="201.999" width="4.79998" height="4.79998" rx="2.39999" fill="#FAFAFA"/>
<rect x="151.201" y="206.799" width="4.79998" height="4.79998" rx="2.39999" fill="#FAFAFA"/>
<rect x="151.201" y="211.6" width="4.79998" height="4.79998" rx="2.39999" fill="#FAFAFA"/>
<rect x="151.201" y="221.2" width="4.79998" height="4.79998" rx="2.39999" fill="#FAFAFA"/>
<rect x="156" y="106" width="4.79998" height="4.79998" rx="2.39999" fill="#FAFAFA"/>
<rect x="156" y="134.801" width="4.79998" height="4.79998" rx="2.39999" fill="#FAFAFA"/>
<rect x="156" y="144.4" width="4.79998" height="4.79998" rx="2.39999" fill="#FAFAFA"/>
<rect x="156" y="149.2" width="4.79998" height="4.79998" rx="2.39999" fill="#FAFAFA"/>
<rect x="156" y="158.799" width="4.79998" height="4.79998" rx="2.39999" fill="#FAFAFA"/>
<rect x="156" y="168.4" width="4.79998" height="4.79998" rx="2.39999" fill="#FAFAFA"/>
<rect x="156" y="173.2" width="4.79998" height="4.79998" rx="2.39999" fill="#FAFAFA"/>
<rect x="156" y="182.8" width="4.79998" height="4.79998" rx="2.39999" fill="#FAFAFA"/>
<rect x="156" y="192.4" width="4.79998" height="4.79998" rx="2.39999" fill="#FAFAFA"/>
<rect x="156" y="221.2" width="4.79998" height="4.79998" rx="2.39999" fill="#FAFAFA"/>
<rect x="160.801" y="106" width="4.79998" height="4.79998" rx="2.39999" fill="#FAFAFA"/>
<rect x="160.801" y="110.8" width="4.79998" height="4.79998" rx="2.39999" fill="#FAFAFA"/>
<rect x="160.801" y="115.6" width="4.79998" height="4.79998" rx="2.39999" fill="#FAFAFA"/>
<rect x="160.801" y="120.4" width="4.79998" height="4.79998" rx="2.39999" fill="#FAFAFA"/>
<rect x="160.801" y="125.201" width="4.79998" height="4.79998" rx="2.39999" fill="#FAFAFA"/>
<rect x="160.801" y="130" width="4.79998" height="4.79998" rx="2.39999" fill="#FAFAFA"/>
<rect x="160.801" y="134.801" width="4.79998" height="4.79998" rx="2.39999" fill="#FAFAFA"/>
<rect x="160.801" y="144.4" width="4.79998" height="4.79998" rx="2.39999" fill="#FAFAFA"/>
<rect x="160.801" y="154" width="4.79998" height="4.79998" rx="2.39999" fill="#FAFAFA"/>
<rect x="160.801" y="163.6" width="4.79998" height="4.79998" rx="2.39999" fill="#FAFAFA"/>
<rect x="160.801" y="173.2" width="4.79998" height="4.79998" rx="2.39999" fill="#FAFAFA"/>
<rect x="160.801" y="182.8" width="4.79998" height="4.79998" rx="2.39999" fill="#FAFAFA"/>
<rect x="160.801" y="192.4" width="4.79998" height="4.79998" rx="2.39999" fill="#FAFAFA"/>
<rect x="160.801" y="197.199" width="4.79998" height="4.79998" rx="2.39999" fill="#FAFAFA"/>
<rect x="160.801" y="201.999" width="4.79998" height="4.79998" rx="2.39999" fill="#FAFAFA"/>
<rect x="160.801" y="206.799" width="4.79998" height="4.79998" rx="2.39999" fill="#FAFAFA"/>
<rect x="160.801" y="211.6" width="4.79998" height="4.79998" rx="2.39999" fill="#FAFAFA"/>
<rect x="160.801" y="216.399" width="4.79998" height="4.79998" rx="2.39999" fill="#FAFAFA"/>
<rect x="160.801" y="221.2" width="4.79998" height="4.79998" rx="2.39999" fill="#FAFAFA"/>
<rect x="165.6" y="144.4" width="4.79998" height="4.79998" rx="2.39999" fill="#FAFAFA"/>
<rect x="165.6" y="149.2" width="4.79998" height="4.79998" rx="2.39999" fill="#FAFAFA"/>
<rect x="165.6" y="158.799" width="4.79998" height="4.79998" rx="2.39999" fill="#FAFAFA"/>
<rect x="165.6" y="173.2" width="4.79998" height="4.79998" rx="2.39999" fill="#FAFAFA"/>
<rect x="165.6" y="182.8" width="4.79998" height="4.79998" rx="2.39999" fill="#FAFAFA"/>
<rect x="170.4" y="115.6" width="4.79998" height="4.79998" rx="2.39999" fill="#FAFAFA"/>
<rect x="170.4" y="134.801" width="4.79998" height="4.79998" rx="2.39999" fill="#FAFAFA"/>
<rect x="170.4" y="139.6" width="4.79998" height="4.79998" rx="2.39999" fill="#FAFAFA"/>
<rect x="170.4" y="187.6" width="4.79998" height="4.79998" rx="2.39999" fill="#FAFAFA"/>
<rect x="170.4" y="192.4" width="4.79998" height="4.79998" rx="2.39999" fill="#FAFAFA"/>
<rect x="170.4" y="197.199" width="4.79998" height="4.79998" rx="2.39999" fill="#FAFAFA"/>
<rect x="170.4" y="201.999" width="4.79998" height="4.79998" rx="2.39999" fill="#FAFAFA"/>
<rect x="170.4" y="211.6" width="4.79998" height="4.79998" rx="2.39999" fill="#FAFAFA"/>
<rect x="170.4" y="216.399" width="4.79998" height="4.79998" rx="2.39999" fill="#FAFAFA"/>
<rect x="170.4" y="221.2" width="4.79998" height="4.79998" rx="2.39999" fill="#FAFAFA"/>
<rect x="175.199" y="106" width="4.79998" height="4.79998" rx="2.39999" fill="#FAFAFA"/>
<rect x="175.199" y="115.6" width="4.79998" height="4.79998" rx="2.39999" fill="#FAFAFA"/>
<rect x="175.199" y="120.4" width="4.79998" height="4.79998" rx="2.39999" fill="#FAFAFA"/>
<rect x="175.199" y="130" width="4.79998" height="4.79998" rx="2.39999" fill="#FAFAFA"/>
<rect x="175.199" y="139.6" width="4.79998" height="4.79998" rx="2.39999" fill="#FAFAFA"/>
<rect x="175.199" y="187.6" width="4.79998" height="4.79998" rx="2.39999" fill="#FAFAFA"/>
<rect x="175.199" y="206.799" width="4.79998" height="4.79998" rx="2.39999" fill="#FAFAFA"/>
<rect x="175.199" y="211.6" width="4.79998" height="4.79998" rx="2.39999" fill="#FAFAFA"/>
<rect x="180" y="110.8" width="4.79998" height="4.79998" rx="2.39999" fill="#FAFAFA"/>
<rect x="180" y="115.6" width="4.79998" height="4.79998" rx="2.39999" fill="#FAFAFA"/>
<rect x="180" y="120.4" width="4.79998" height="4.79998" rx="2.39999" fill="#FAFAFA"/>
<rect x="180" y="125.201" width="4.79998" height="4.79998" rx="2.39999" fill="#FAFAFA"/>
<rect x="180" y="134.801" width="4.79998" height="4.79998" rx="2.39999" fill="#FAFAFA"/>
<rect x="180" y="139.6" width="4.79998" height="4.79998" rx="2.39999" fill="#FAFAFA"/>
<rect x="180" y="197.199" width="4.79998" height="4.79998" rx="2.39999" fill="#FAFAFA"/>
<rect x="180" y="201.999" width="4.79998" height="4.79998" rx="2.39999" fill="#FAFAFA"/>
<rect x="180" y="206.799" width="4.79998" height="4.79998" rx="2.39999" fill="#FAFAFA"/>
<rect x="180" y="211.6" width="4.79998" height="4.79998" rx="2.39999" fill="#FAFAFA"/>
<rect x="180" y="216.399" width="4.79998" height="4.79998" rx="2.39999" fill="#FAFAFA"/>
<rect x="180" y="221.2" width="4.79998" height="4.79998" rx="2.39999" fill="#FAFAFA"/>
<rect x="184.8" y="110.8" width="4.79998" height="4.79998" rx="2.39999" fill="#FAFAFA"/>
<rect x="184.8" y="120.4" width="4.79998" height="4.79998" rx="2.39999" fill="#FAFAFA"/>
<rect x="184.8" y="187.6" width="4.79998" height="4.79998" rx="2.39999" fill="#FAFAFA"/>
<rect x="184.8" y="197.199" width="4.79998" height="4.79998" rx="2.39999" fill="#FAFAFA"/>
<rect x="184.8" y="206.799" width="4.79998" height="4.79998" rx="2.39999" fill="#FAFAFA"/>
<rect x="184.8" y="211.6" width="4.79998" height="4.79998" rx="2.39999" fill="#FAFAFA"/>
<rect x="184.8" y="221.2" width="4.79998" height="4.79998" rx="2.39999" fill="#FAFAFA"/>
<rect x="189.599" y="106" width="4.79998" height="4.79998" rx="2.39999" fill="#FAFAFA"/>
<rect x="189.599" y="110.8" width="4.79998" height="4.79998" rx="2.39999" fill="#FAFAFA"/>
<rect x="189.599" y="115.6" width="4.79998" height="4.79998" rx="2.39999" fill="#FAFAFA"/>
<rect x="189.599" y="134.801" width="4.79998" height="4.79998" rx="2.39999" fill="#FAFAFA"/>
<rect x="189.599" y="139.6" width="4.79998" height="4.79998" rx="2.39999" fill="#FAFAFA"/>
<rect x="189.599" y="201.999" width="4.79998" height="4.79998" rx="2.39999" fill="#FAFAFA"/>
<rect x="189.599" y="206.799" width="4.79998" height="4.79998" rx="2.39999" fill="#FAFAFA"/>
<rect x="189.599" y="211.6" width="4.79998" height="4.79998" rx="2.39999" fill="#FAFAFA"/>
<rect x="189.599" y="216.399" width="4.79998" height="4.79998" rx="2.39999" fill="#FAFAFA"/>
<rect x="194.4" y="106" width="4.79998" height="4.79998" rx="2.39999" fill="#FAFAFA"/>
<rect x="194.4" y="110.8" width="4.79998" height="4.79998" rx="2.39999" fill="#FAFAFA"/>
<rect x="194.4" y="125.201" width="4.79998" height="4.79998" rx="2.39999" fill="#FAFAFA"/>
<rect x="194.4" y="139.6" width="4.79998" height="4.79998" rx="2.39999" fill="#FAFAFA"/>
<rect x="194.4" y="192.4" width="4.79998" height="4.79998" rx="2.39999" fill="#FAFAFA"/>
<rect x="194.4" y="206.799" width="4.79998" height="4.79998" rx="2.39999" fill="#FAFAFA"/>
<rect x="194.4" y="216.399" width="4.79998" height="4.79998" rx="2.39999" fill="#FAFAFA"/>
<rect x="199.2" y="106" width="4.79998" height="4.79998" rx="2.39999" fill="#FAFAFA"/>
<rect x="199.2" y="110.8" width="4.79998" height="4.79998" rx="2.39999" fill="#FAFAFA"/>
<rect x="199.2" y="125.201" width="4.79998" height="4.79998" rx="2.39999" fill="#FAFAFA"/>
<rect x="199.2" y="130" width="4.79998" height="4.79998" rx="2.39999" fill="#FAFAFA"/>
<rect x="199.2" y="134.801" width="4.79998" height="4.79998" rx="2.39999" fill="#FAFAFA"/>
<rect x="199.2" y="139.6" width="4.79998" height="4.79998" rx="2.39999" fill="#FAFAFA"/>
<rect x="199.2" y="187.6" width="4.79998" height="4.79998" rx="2.39999" fill="#FAFAFA"/>
<rect x="199.2" y="211.6" width="4.79998" height="4.79998" rx="2.39999" fill="#FAFAFA"/>
<rect x="199.2" y="216.399" width="4.79998" height="4.79998" rx="2.39999" fill="#FAFAFA"/>
<rect x="199.2" y="221.2" width="4.79998" height="4.79998" rx="2.39999" fill="#FAFAFA"/>
<rect x="204" y="106" width="4.79998" height="4.79998" rx="2.39999" fill="#FAFAFA"/>
<rect x="204" y="110.8" width="4.79998" height="4.79998" rx="2.39999" fill="#FAFAFA"/>
<rect x="204" y="115.6" width="4.79998" height="4.79998" rx="2.39999" fill="#FAFAFA"/>
<rect x="204" y="125.201" width="4.79998" height="4.79998" rx="2.39999" fill="#FAFAFA"/>
<rect x="204" y="130" width="4.79998" height="4.79998" rx="2.39999" fill="#FAFAFA"/>
<rect x="204" y="187.6" width="4.79998" height="4.79998" rx="2.39999" fill="#FAFAFA"/>
<rect x="204" y="192.4" width="4.79998" height="4.79998" rx="2.39999" fill="#FAFAFA"/>
<rect x="204" y="211.6" width="4.79998" height="4.79998" rx="2.39999" fill="#FAFAFA"/>
<rect x="204" y="216.399" width="4.79998" height="4.79998" rx="2.39999" fill="#FAFAFA"/>
<rect x="204" y="221.2" width="4.79998" height="4.79998" rx="2.39999" fill="#FAFAFA"/>
<rect x="208.8" y="110.8" width="4.79998" height="4.79998" rx="2.39999" fill="#FAFAFA"/>
<rect x="208.8" y="130" width="4.79998" height="4.79998" rx="2.39999" fill="#FAFAFA"/>
<rect x="208.8" y="134.801" width="4.79998" height="4.79998" rx="2.39999" fill="#FAFAFA"/>
<rect x="173.4" y="144.4" width="4.79998" height="4.79998" rx="2.39999" fill="#FAFAFA"/>
<rect x="170.4" y="149.2" width="4.79998" height="4.79998" rx="2.39999" fill="#FAFAFA"/>
<rect x="170.4" y="154" width="4.79998" height="4.79998" rx="2.39999" fill="#FAFAFA"/>
<rect x="170.4" y="163.6" width="4.79998" height="4.79998" rx="2.39999" fill="#FAFAFA"/>
<rect x="170.4" y="168.4" width="4.79998" height="4.79998" rx="2.39999" fill="#FAFAFA"/>
<rect x="170.4" y="173.2" width="4.79998" height="4.79998" rx="2.39999" fill="#FAFAFA"/>
<rect x="170.4" y="178" width="4.79998" height="4.79998" rx="2.39999" fill="#FAFAFA"/>
<rect x="170.4" y="182.8" width="4.79998" height="4.79998" rx="2.39999" fill="#FAFAFA"/>
<rect x="175.199" y="154" width="4.79998" height="4.79998" rx="2.39999" fill="#FAFAFA"/>
<rect x="175.199" y="173.2" width="4.79998" height="4.79998" rx="2.39999" fill="#FAFAFA"/>
<rect x="175.199" y="178" width="4.79998" height="4.79998" rx="2.39999" fill="#FAFAFA"/>
<rect x="180" y="144.4" width="4.79998" height="4.79998" rx="2.39999" fill="#FAFAFA"/>
<rect x="180" y="149.2" width="4.79998" height="4.79998" rx="2.39999" fill="#FAFAFA"/>
<rect x="180" y="173.2" width="4.79998" height="4.79998" rx="2.39999" fill="#FAFAFA"/>
<rect x="180" y="182.8" width="4.79998" height="4.79998" rx="2.39999" fill="#FAFAFA"/>
<rect x="184.8" y="144.4" width="4.79998" height="4.79998" rx="2.39999" fill="#FAFAFA"/>
<rect x="184.8" y="149.2" width="4.79998" height="4.79998" rx="2.39999" fill="#FAFAFA"/>
<rect x="184.8" y="158.799" width="4.79998" height="4.79998" rx="2.39999" fill="#FAFAFA"/>
<rect x="184.8" y="168.4" width="4.79998" height="4.79998" rx="2.39999" fill="#FAFAFA"/>
<rect x="184.8" y="173.2" width="4.79998" height="4.79998" rx="2.39999" fill="#FAFAFA"/>
<rect x="184.8" y="182.8" width="4.79998" height="4.79998" rx="2.39999" fill="#FAFAFA"/>
<rect x="189.599" y="163.6" width="4.79998" height="4.79998" rx="2.39999" fill="#FAFAFA"/>
<rect x="189.599" y="168.4" width="4.79998" height="4.79998" rx="2.39999" fill="#FAFAFA"/>
<rect x="189.599" y="173.2" width="4.79998" height="4.79998" rx="2.39999" fill="#FAFAFA"/>
<rect x="189.599" y="178" width="4.79998" height="4.79998" rx="2.39999" fill="#FAFAFA"/>
<rect x="194.4" y="154" width="4.79998" height="4.79998" rx="2.39999" fill="#FAFAFA"/>
<rect x="194.4" y="168.4" width="4.79998" height="4.79998" rx="2.39999" fill="#FAFAFA"/>
<rect x="194.4" y="178" width="4.79998" height="4.79998" rx="2.39999" fill="#FAFAFA"/>
<rect x="199.2" y="144.4" width="4.79998" height="4.79998" rx="2.39999" fill="#FAFAFA"/>
<rect x="199.2" y="173.2" width="4.79998" height="4.79998" rx="2.39999" fill="#FAFAFA"/>
<rect x="199.2" y="178" width="4.79998" height="4.79998" rx="2.39999" fill="#FAFAFA"/>
<rect x="199.2" y="182.8" width="4.79998" height="4.79998" rx="2.39999" fill="#FAFAFA"/>
<rect x="204" y="163.6" width="4.79998" height="4.79998" rx="2.39999" fill="#FAFAFA"/>
<rect x="204" y="178" width="4.79998" height="4.79998" rx="2.39999" fill="#FAFAFA"/>
<rect x="208.8" y="144.4" width="4.79998" height="4.79998" rx="2.39999" fill="#FAFAFA"/>
<rect x="208.8" y="149.2" width="4.79998" height="4.79998" rx="2.39999" fill="#FAFAFA"/>
<rect x="208.8" y="154" width="4.79998" height="4.79998" rx="2.39999" fill="#FAFAFA"/>
<rect x="208.8" y="158.799" width="4.79998" height="4.79998" rx="2.39999" fill="#FAFAFA"/>
<rect x="208.8" y="163.6" width="4.79998" height="4.79998" rx="2.39999" fill="#FAFAFA"/>
<rect x="208.8" y="173.2" width="4.79998" height="4.79998" rx="2.39999" fill="#FAFAFA"/>
<rect x="208.8" y="178" width="4.79998" height="4.79998" rx="2.39999" fill="#FAFAFA"/>
<rect x="208.8" y="182.8" width="4.79998" height="4.79998" rx="2.39999" fill="#FAFAFA"/>
<rect x="208.8" y="187.6" width="4.79998" height="4.79998" rx="2.39999" fill="#FAFAFA"/>
<rect x="208.8" y="192.4" width="4.79998" height="4.79998" rx="2.39999" fill="#FAFAFA"/>
<rect x="208.8" y="197.199" width="4.79998" height="4.79998" rx="2.39999" fill="#FAFAFA"/>
<rect x="208.8" y="201.999" width="4.79998" height="4.79998" rx="2.39999" fill="#FAFAFA"/>
<rect x="208.8" y="211.6" width="4.79998" height="4.79998" rx="2.39999" fill="#FAFAFA"/>
<rect x="208.8" y="216.399" width="4.79998" height="4.79998" rx="2.39999" fill="#FAFAFA"/>
<rect x="208.8" y="221.2" width="4.79998" height="4.79998" rx="2.39999" fill="#FAFAFA"/>
<rect x="213.601" y="144.4" width="4.79998" height="4.79998" rx="2.39999" fill="#FAFAFA"/>
<rect x="213.601" y="149.2" width="4.79998" height="4.79998" rx="2.39999" fill="#FAFAFA"/>
<rect x="213.601" y="163.6" width="4.79998" height="4.79998" rx="2.39999" fill="#FAFAFA"/>
<rect x="213.601" y="168.4" width="4.79998" height="4.79998" rx="2.39999" fill="#FAFAFA"/>
<rect x="213.601" y="173.2" width="4.79998" height="4.79998" rx="2.39999" fill="#FAFAFA"/>
<rect x="213.601" y="178" width="4.79998" height="4.79998" rx="2.39999" fill="#FAFAFA"/>
<rect x="213.601" y="182.8" width="4.79998" height="4.79998" rx="2.39999" fill="#FAFAFA"/>
<rect x="213.601" y="201.999" width="4.79998" height="4.79998" rx="2.39999" fill="#FAFAFA"/>
<rect x="213.601" y="216.399" width="4.79998" height="4.79998" rx="2.39999" fill="#FAFAFA"/>
<rect x="213.601" y="221.2" width="4.79998" height="4.79998" rx="2.39999" fill="#FAFAFA"/>
<rect x="218.4" y="106" width="4.79998" height="4.79998" rx="2.39999" fill="#FAFAFA"/>
<rect x="218.4" y="110.8" width="4.79998" height="4.79998" rx="2.39999" fill="#FAFAFA"/>
<rect x="218.4" y="115.6" width="4.79998" height="4.79998" rx="2.39999" fill="#FAFAFA"/>
<rect x="218.4" y="120.4" width="4.79998" height="4.79998" rx="2.39999" fill="#FAFAFA"/>
<rect x="218.4" y="125.201" width="4.79998" height="4.79998" rx="2.39999" fill="#FAFAFA"/>
<rect x="218.4" y="130" width="4.79998" height="4.79998" rx="2.39999" fill="#FAFAFA"/>
<rect x="218.4" y="134.801" width="4.79998" height="4.79998" rx="2.39999" fill="#FAFAFA"/>
<rect x="218.4" y="144.4" width="4.79998" height="4.79998" rx="2.39999" fill="#FAFAFA"/>
<rect x="218.4" y="149.2" width="4.79998" height="4.79998" rx="2.39999" fill="#FAFAFA"/>
<rect x="218.4" y="154" width="4.79998" height="4.79998" rx="2.39999" fill="#FAFAFA"/>
<rect x="218.4" y="163.6" width="4.79998" height="4.79998" rx="2.39999" fill="#FAFAFA"/>
<rect x="218.4" y="168.4" width="4.79998" height="4.79998" rx="2.39999" fill="#FAFAFA"/>
<rect x="218.4" y="178" width="4.79998" height="4.79998" rx="2.39999" fill="#FAFAFA"/>
<rect x="218.4" y="182.8" width="4.79998" height="4.79998" rx="2.39999" fill="#FAFAFA"/>
<rect x="218.4" y="192.4" width="4.79998" height="4.79998" rx="2.39999" fill="#FAFAFA"/>
<rect x="218.4" y="201.999" width="4.79998" height="4.79998" rx="2.39999" fill="#FAFAFA"/>
<rect x="218.4" y="216.399" width="4.79998" height="4.79998" rx="2.39999" fill="#FAFAFA"/>
<rect x="223.199" y="106" width="4.79998" height="4.79998" rx="2.39999" fill="#FAFAFA"/>
<rect x="223.199" y="134.801" width="4.79998" height="4.79998" rx="2.39999" fill="#FAFAFA"/>
<rect x="223.199" y="158.799" width="4.79998" height="4.79998" rx="2.39999" fill="#FAFAFA"/>
<rect x="223.199" y="173.2" width="4.79998" height="4.79998" rx="2.39999" fill="#FAFAFA"/>
<rect x="223.199" y="182.8" width="4.79998" height="4.79998" rx="2.39999" fill="#FAFAFA"/>
<rect x="223.199" y="201.999" width="4.79998" height="4.79998" rx="2.39999" fill="#FAFAFA"/>
<rect x="223.199" y="206.799" width="4.79998" height="4.79998" rx="2.39999" fill="#FAFAFA"/>
<rect x="223.199" y="221.2" width="4.79998" height="4.79998" rx="2.39999" fill="#FAFAFA"/>
<rect x="228" y="106" width="4.79998" height="4.79998" rx="2.39999" fill="#FAFAFA"/>
<rect x="228" y="115.6" width="4.79998" height="4.79998" rx="2.39999" fill="#FAFAFA"/>
<rect x="228" y="120.4" width="4.79998" height="4.79998" rx="2.39999" fill="#FAFAFA"/>
<rect x="228" y="125.201" width="4.79998" height="4.79998" rx="2.39999" fill="#FAFAFA"/>
<rect x="228" y="134.801" width="4.79998" height="4.79998" rx="2.39999" fill="#FAFAFA"/>
<rect x="228" y="178" width="4.79998" height="4.79998" rx="2.39999" fill="#FAFAFA"/>
<rect x="228" y="182.8" width="4.79998" height="4.79998" rx="2.39999" fill="#FAFAFA"/>
<rect x="228" y="187.6" width="4.79998" height="4.79998" rx="2.39999" fill="#FAFAFA"/>
<rect x="228" y="192.4" width="4.79998" height="4.79998" rx="2.39999" fill="#FAFAFA"/>
<rect x="228" y="197.199" width="4.79998" height="4.79998" rx="2.39999" fill="#FAFAFA"/>
<rect x="228" y="201.999" width="4.79998" height="4.79998" rx="2.39999" fill="#FAFAFA"/>
<rect x="228" y="206.799" width="4.79998" height="4.79998" rx="2.39999" fill="#FAFAFA"/>
<rect x="228" y="211.6" width="4.79998" height="4.79998" rx="2.39999" fill="#FAFAFA"/>
<rect x="228" y="216.399" width="4.79998" height="4.79998" rx="2.39999" fill="#FAFAFA"/>
<rect x="232.799" y="106" width="4.79998" height="4.79998" rx="2.39999" fill="#FAFAFA"/>
<rect x="232.799" y="115.6" width="4.79998" height="4.79998" rx="2.39999" fill="#FAFAFA"/>
<rect x="232.799" y="120.4" width="4.79998" height="4.79998" rx="2.39999" fill="#FAFAFA"/>
<rect x="232.799" y="125.201" width="4.79998" height="4.79998" rx="2.39999" fill="#FAFAFA"/>
<rect x="232.799" y="134.801" width="4.79998" height="4.79998" rx="2.39999" fill="#FAFAFA"/>
<rect x="232.799" y="163.6" width="4.79998" height="4.79998" rx="2.39999" fill="#FAFAFA"/>
<rect x="232.799" y="168.4" width="4.79998" height="4.79998" rx="2.39999" fill="#FAFAFA"/>
<rect x="232.799" y="182.8" width="4.79998" height="4.79998" rx="2.39999" fill="#FAFAFA"/>
<rect x="232.799" y="187.6" width="4.79998" height="4.79998" rx="2.39999" fill="#FAFAFA"/>
<rect x="232.799" y="192.4" width="4.79998" height="4.79998" rx="2.39999" fill="#FAFAFA"/>
<rect x="232.799" y="197.199" width="4.79998" height="4.79998" rx="2.39999" fill="#FAFAFA"/>
<rect x="232.799" y="201.999" width="4.79998" height="4.79998" rx="2.39999" fill="#FAFAFA"/>
<rect x="232.799" y="206.799" width="4.79998" height="4.79998" rx="2.39999" fill="#FAFAFA"/>
<rect x="232.799" y="216.399" width="4.79998" height="4.79998" rx="2.39999" fill="#FAFAFA"/>
<rect x="237.6" y="106" width="4.79998" height="4.79998" rx="2.39999" fill="#FAFAFA"/>
<rect x="237.6" y="115.6" width="4.79998" height="4.79998" rx="2.39999" fill="#FAFAFA"/>
<rect x="237.6" y="120.4" width="4.79998" height="4.79998" rx="2.39999" fill="#FAFAFA"/>
<rect x="237.6" y="125.201" width="4.79998" height="4.79998" rx="2.39999" fill="#FAFAFA"/>
<rect x="237.6" y="134.801" width="4.79998" height="4.79998" rx="2.39999" fill="#FAFAFA"/>
<rect x="237.6" y="144.4" width="4.79998" height="4.79998" rx="2.39999" fill="#FAFAFA"/>
<rect x="237.6" y="154" width="4.79998" height="4.79998" rx="2.39999" fill="#FAFAFA"/>
<rect x="237.6" y="173.2" width="4.79998" height="4.79998" rx="2.39999" fill="#FAFAFA"/>
<rect x="237.6" y="206.799" width="4.79998" height="4.79998" rx="2.39999" fill="#FAFAFA"/>
<rect x="242.4" y="106" width="4.79998" height="4.79998" rx="2.39999" fill="#FAFAFA"/>
<rect x="242.4" y="134.801" width="4.79998" height="4.79998" rx="2.39999" fill="#FAFAFA"/>
<rect x="242.4" y="154" width="4.79998" height="4.79998" rx="2.39999" fill="#FAFAFA"/>
<rect x="242.4" y="158.799" width="4.79998" height="4.79998" rx="2.39999" fill="#FAFAFA"/>
<rect x="242.4" y="163.6" width="4.79998" height="4.79998" rx="2.39999" fill="#FAFAFA"/>
<rect x="242.4" y="173.2" width="4.79998" height="4.79998" rx="2.39999" fill="#FAFAFA"/>
<rect x="242.4" y="178" width="4.79998" height="4.79998" rx="2.39999" fill="#FAFAFA"/>
<rect x="242.4" y="187.6" width="4.79998" height="4.79998" rx="2.39999" fill="#FAFAFA"/>
<rect x="242.4" y="192.4" width="4.79998" height="4.79998" rx="2.39999" fill="#FAFAFA"/>
<rect x="242.4" y="216.399" width="4.79998" height="4.79998" rx="2.39999" fill="#FAFAFA"/>
<rect x="242.4" y="221.2" width="4.79998" height="4.79998" rx="2.39999" fill="#FAFAFA"/>
<rect x="247.2" y="106" width="4.79998" height="4.79998" rx="2.39999" fill="#FAFAFA"/>
<rect x="247.2" y="110.8" width="4.79998" height="4.79998" rx="2.39999" fill="#FAFAFA"/>
<rect x="247.2" y="115.6" width="4.79998" height="4.79998" rx="2.39999" fill="#FAFAFA"/>
<rect x="247.2" y="120.4" width="4.79998" height="4.79998" rx="2.39999" fill="#FAFAFA"/>
<rect x="247.2" y="125.201" width="4.79998" height="4.79998" rx="2.39999" fill="#FAFAFA"/>
<rect x="247.2" y="130" width="4.79998" height="4.79998" rx="2.39999" fill="#FAFAFA"/>
<rect x="247.2" y="134.801" width="4.79998" height="4.79998" rx="2.39999" fill="#FAFAFA"/>
<rect x="247.2" y="149.2" width="4.79998" height="4.79998" rx="2.39999" fill="#FAFAFA"/>
<rect x="247.2" y="154" width="4.79998" height="4.79998" rx="2.39999" fill="#FAFAFA"/>
<rect x="247.2" y="163.6" width="4.79998" height="4.79998" rx="2.39999" fill="#FAFAFA"/>
<rect x="247.2" y="168.4" width="4.79998" height="4.79998" rx="2.39999" fill="#FAFAFA"/>
<rect x="247.2" y="173.2" width="4.79998" height="4.79998" rx="2.39999" fill="#FAFAFA"/>
<rect x="247.2" y="187.6" width="4.79998" height="4.79998" rx="2.39999" fill="#FAFAFA"/>
<rect x="247.2" y="192.4" width="4.79998" height="4.79998" rx="2.39999" fill="#FAFAFA"/>
<rect x="247.2" y="197.199" width="4.79998" height="4.79998" rx="2.39999" fill="#FAFAFA"/>
<rect x="247.2" y="201.999" width="4.79998" height="4.79998" rx="2.39999" fill="#FAFAFA"/>
<rect x="247.2" y="211.6" width="4.79998" height="4.79998" rx="2.39999" fill="#FAFAFA"/>
<rect x="247.2" y="221.2" width="4.79998" height="4.79998" rx="2.39999" fill="#FAFAFA"/>
<path d="M156.527 246.94C156.527 246.244 156.275 245.656 155.879 245.224C155.339 244.648 154.523 244.324 153.659 244.324H151.307C150.983 244.324 150.719 244.6 150.719 244.924V252.4C150.719 252.736 150.983 253 151.319 253C151.655 253 151.919 252.736 151.919 252.4V249.532H153.659C154.655 249.532 155.411 249.196 155.891 248.668C156.311 248.2 156.527 247.612 156.527 246.94ZM155.375 246.916C155.375 247.312 155.291 247.696 155.027 247.984C154.775 248.26 154.343 248.452 153.623 248.452H151.919V245.404H153.599C154.271 245.404 154.727 245.644 155.027 245.98C155.255 246.256 155.375 246.58 155.375 246.916ZM162.119 252.208V252.436C162.119 252.748 162.371 253 162.683 253C162.995 253 163.247 252.748 163.247 252.436V247.12C163.247 246.808 162.995 246.556 162.683 246.556C162.371 246.556 162.119 246.808 162.119 247.12V247.3C161.711 246.748 161.087 246.496 160.463 246.496C158.939 246.496 157.775 247.816 157.775 249.784C157.775 251.764 158.951 253.06 160.475 253.06C161.171 253.06 161.759 252.748 162.119 252.208ZM160.511 252.1C159.575 252.1 158.891 251.236 158.891 249.784C158.891 248.344 159.575 247.456 160.511 247.456C161.423 247.456 162.131 248.344 162.131 249.784C162.131 251.236 161.423 252.1 160.511 252.1ZM167.026 253.78C166.87 254.2 166.678 254.428 166.33 254.428C166.09 254.428 165.886 254.32 165.718 254.176C165.61 254.092 165.49 254.044 165.358 254.044C165.07 254.044 164.854 254.272 164.854 254.548C164.854 254.728 164.95 254.872 165.058 254.98C165.394 255.292 165.814 255.448 166.342 255.448C167.038 255.448 167.614 255.052 167.89 254.356L170.698 247.372C170.734 247.288 170.758 247.204 170.758 247.12C170.758 246.808 170.506 246.556 170.194 246.556C169.99 246.556 169.774 246.652 169.69 246.868L168.118 250.936C168.058 251.092 167.938 251.464 167.902 251.596H167.878C167.842 251.464 167.722 251.092 167.662 250.936L166.102 246.892C166.042 246.736 165.862 246.556 165.586 246.556C165.274 246.556 165.022 246.808 165.022 247.12C165.022 247.228 165.058 247.324 165.082 247.384L167.23 252.688C167.266 252.772 167.314 252.808 167.386 252.832L167.026 253.78ZM179.106 246.496C178.434 246.496 177.87 246.808 177.45 247.312V244.888C177.45 244.576 177.198 244.324 176.886 244.324C176.574 244.324 176.322 244.576 176.322 244.888V252.436C176.322 252.748 176.574 253 176.886 253C177.198 253 177.45 252.748 177.45 252.436V252.292C177.822 252.724 178.362 253.06 179.178 253.06C180.678 253.06 181.794 251.728 181.794 249.784C181.794 247.804 180.618 246.496 179.106 246.496ZM179.058 252.1C178.146 252.1 177.438 251.236 177.438 249.784C177.438 248.344 178.146 247.456 179.058 247.456C179.994 247.456 180.678 248.344 180.678 249.784C180.678 251.236 179.994 252.1 179.058 252.1ZM185.097 253.78C184.941 254.2 184.749 254.428 184.401 254.428C184.161 254.428 183.957 254.32 183.789 254.176C183.681 254.092 183.561 254.044 183.429 254.044C183.141 254.044 182.925 254.272 182.925 254.548C182.925 254.728 183.021 254.872 183.129 254.98C183.465 255.292 183.885 255.448 184.413 255.448C185.109 255.448 185.685 255.052 185.961 254.356L188.769 247.372C188.805 247.288 188.829 247.204 188.829 247.12C188.829 246.808 188.577 246.556 188.265 246.556C188.061 246.556 187.845 246.652 187.761 246.868L186.189 250.936C186.129 251.092 186.009 251.464 185.973 251.596H185.949C185.913 251.464 185.793 251.092 185.733 250.936L184.173 246.892C184.113 246.736 183.933 246.556 183.657 246.556C183.345 246.556 183.093 246.808 183.093 247.12C183.093 247.228 183.129 247.324 183.153 247.384L185.301 252.688C185.337 252.772 185.385 252.808 185.457 252.832L185.097 253.78ZM200.765 250.396C200.765 249.376 200.189 248.608 199.421 248.284C199.925 247.924 200.357 247.396 200.357 246.604C200.357 245.908 200.093 245.344 199.661 244.948C199.217 244.528 198.593 244.324 197.657 244.324H195.101C194.765 244.324 194.501 244.588 194.501 244.924V252.4C194.501 252.724 194.765 253 195.089 253H197.777C199.697 253 200.765 251.86 200.765 250.396ZM199.169 246.628C199.169 247.324 198.821 247.84 197.777 247.84H195.701V245.404H197.621C198.665 245.404 199.169 245.872 199.169 246.628ZM199.529 250.408C199.529 251.308 198.893 251.92 197.801 251.92H195.701V248.896H197.849C198.989 248.896 199.529 249.472 199.529 250.408ZM206.779 252.208V252.436C206.779 252.748 207.031 253 207.343 253C207.655 253 207.907 252.748 207.907 252.436V247.12C207.907 246.808 207.655 246.556 207.343 246.556C207.031 246.556 206.779 246.808 206.779 247.12V247.3C206.371 246.748 205.747 246.496 205.123 246.496C203.599 246.496 202.435 247.816 202.435 249.784C202.435 251.764 203.611 253.06 205.135 253.06C205.831 253.06 206.419 252.748 206.779 252.208ZM205.171 252.1C204.235 252.1 203.551 251.236 203.551 249.784C203.551 248.344 204.235 247.456 205.171 247.456C206.083 247.456 206.791 248.344 206.791 249.784C206.791 251.236 206.083 252.1 205.171 252.1ZM211.434 247.12C211.434 246.808 211.182 246.556 210.87 246.556C210.558 246.556 210.306 246.808 210.306 247.12V252.436C210.306 252.748 210.558 253 210.87 253C211.182 253 211.434 252.748 211.434 252.436V249.16C211.434 248.86 211.494 248.512 211.662 248.248C211.95 247.768 212.526 247.516 213.042 247.516C213.618 247.516 214.002 247.792 214.146 248.2C214.218 248.404 214.242 248.764 214.242 249.052V252.436C214.242 252.748 214.494 253 214.806 253C215.118 253 215.37 252.748 215.37 252.436V248.992C215.37 248.428 215.322 247.876 215.058 247.432C214.662 246.76 213.93 246.496 213.258 246.496C212.478 246.496 211.818 246.82 211.434 247.264V247.12ZM222.369 247.576C222.501 247.456 222.597 247.288 222.597 247.108C222.597 246.796 222.333 246.556 222.045 246.556C221.889 246.556 221.745 246.628 221.637 246.736L218.853 249.52V244.888C218.853 244.576 218.601 244.324 218.289 244.324C217.977 244.324 217.725 244.576 217.725 244.888V252.436C217.725 252.748 217.977 253 218.289 253C218.601 253 218.853 252.748 218.853 252.436V250.948L219.693 250.144L221.781 252.808C221.913 252.976 222.081 253.024 222.213 253.024C222.513 253.024 222.765 252.772 222.765 252.472C222.765 252.316 222.693 252.184 222.597 252.064L220.449 249.424L222.369 247.576ZM233.08 245.299C233.08 244.466 232.4 243.786 231.55 243.786C230.717 243.786 230.037 244.466 230.037 245.299C230.037 246.149 230.717 246.829 231.55 246.829C232.4 246.829 233.08 246.149 233.08 245.299ZM233.08 251.572C233.08 250.722 232.4 250.042 231.55 250.042C230.717 250.042 230.037 250.722 230.037 251.572C230.037 252.405 230.717 253.085 231.55 253.085C232.4 253.085 233.08 252.405 233.08 251.572Z" fill="#FAFAFA"/>
<defs>
<filter id="filter0_d_2440_20988" x="102" y="76" width="180" height="220" filterUnits="userSpaceOnUse" color-interpolation-filters="sRGB">
<feFlood flood-opacity="0" result="BackgroundImageFix"/>
<feColorMatrix in="SourceAlpha" type="matrix" values="0 0 0 0 0 0 0 0 0 0 0 0 0 0 0 0 0 0 127 0" result="hardAlpha"/>
<feOffset/>
<feGaussianBlur stdDeviation="10"/>
<feColorMatrix type="matrix" values="0 0 0 0 0.207843 0 0 0 0 0.207843 0 0 0 0 0.207843 0 0 0 0.02 0"/>
<feBlend mode="normal" in2="BackgroundImageFix" result="effect1_dropShadow_2440_20988"/>
<feBlend mode="normal" in="SourceGraphic" in2="effect1_dropShadow_2440_20988" result="shape"/>
</filter>
</defs>
</svg>
