<svg width="176" height="112" viewBox="0 0 176 112" fill="none" xmlns="http://www.w3.org/2000/svg">
<rect width="176" height="112" fill="#FAFAFA"/>
<path fill-rule="evenodd" clip-rule="evenodd" d="M88 70C96.2843 70 103 63.2843 103 55C103 46.7157 96.2843 40 88 40C79.7157 40 73 46.7157 73 55C73 63.2843 79.7157 70 88 70ZM83.4859 54.9712H85.3202C85.3202 50.9994 88.54 47.7797 92.5117 47.7797V45.9445C90.1178 45.9445 87.8219 46.8956 86.1292 48.5884C84.4365 50.2813 83.4857 52.5772 83.4859 54.9712ZM90.6814 54.9712H92.5165C92.5167 57.3659 91.5655 59.6627 89.8723 61.3561C88.179 63.0496 85.8823 64.001 83.4875 64.001V62.165C87.4606 62.165 90.6814 58.9442 90.6814 54.9712Z" fill="#7433FF"/>
</svg>
