<svg width="176" height="112" viewBox="0 0 176 112" fill="none" xmlns="http://www.w3.org/2000/svg">
<rect width="176" height="112" fill="#FAFAFA"/>
<path d="M145.773 47.0005C145.415 47.0005 144.352 47.0005 143.116 48.5011C143.132 48.5201 143.148 48.539 143.164 48.5586C143.481 48.1874 143.879 47.8077 144.307 47.5313C144.702 47.2769 145.16 47.1069 145.539 47.0653C145.815 47.0347 146.73 47.0463 147.77 47.0463C147.776 47.0463 147.779 47.0488 147.781 47.0518L147.755 47.0066C147.753 47.0023 147.749 47.0005 147.745 47.0005H145.773Z" fill="url(#paint0_radial)"/>
<path d="M138.526 47.0006C138.523 47.0006 138.518 47.0018 138.516 47.0061L134.645 53.7106L133.431 55.813L133.291 56.057L133.272 56.0882C133.271 56.0906 133.271 56.0949 133.274 56.0998L136.961 62.4863V62.46C136.881 62.3133 136.823 62.2001 136.793 62.1292C136.639 61.78 136.551 61.2969 136.574 60.8273C136.636 59.5909 137.294 58.3709 137.624 57.7985C138.4 56.4557 139.899 53.8586 139.899 53.8586C139.899 53.8586 141.398 51.2615 142.173 49.9181C142.504 49.3463 143.232 48.1667 144.272 47.4947C144.666 47.2397 145.13 47.0746 145.508 47.033C145.785 47.0018 146.705 47.0006 147.747 47.0006H138.526Z" fill="url(#paint1_radial)"/>
<path d="M133.302 56.1501C133.36 56.2516 133.418 56.3519 133.475 56.4497L133.302 56.1501ZM151.85 58.0213C151.625 58.3283 151.25 58.6468 150.832 58.8609C149.73 59.4253 148.345 59.4662 147.685 59.4662H143.135H138.585C137.925 59.4662 136.538 59.4253 135.438 58.8609C135.019 58.6468 134.644 58.3283 134.419 58.0213C134.276 57.8262 133.909 57.2012 133.475 56.4497L134.4 58.0531L137.882 64.0843C137.884 64.0874 137.888 64.0898 137.892 64.0898H148.378C148.381 64.0898 148.386 64.0868 148.387 64.0837L152.957 56.1703C152.453 57.0429 152.011 57.803 151.85 58.0213Z" fill="url(#paint2_radial)"/>
<path d="M145.507 47.032C145.129 47.0735 144.666 47.2386 144.271 47.4936C143.836 47.7749 143.456 48.1449 143.136 48.5222C143.58 49.0462 143.907 49.5837 144.099 49.917C144.874 51.2605 146.374 53.8576 146.374 53.8576C146.374 53.8576 147.873 56.4546 148.649 57.7975C148.979 58.3698 149.637 59.5898 149.698 60.8262C149.721 61.2959 149.632 61.779 149.48 62.1281C149.373 62.3721 148.948 63.1139 148.455 63.9688L153 56.0969C153 56.0963 153.001 56.0956 153.001 56.0944V56.0895C153.001 56.0883 153 56.0871 152.999 56.0865L147.756 47.0057C147.754 47.0014 147.75 46.9995 147.746 46.9995C146.704 46.9995 145.784 47.0008 145.507 47.032Z" fill="url(#paint3_radial)"/>
<path d="M27.6627 51.6543C25.0687 51.6543 23 53.7897 23 56.4699C23 59.2712 25.0332 61.209 27.5404 61.209C28.9756 61.209 30.0873 60.6948 30.9343 59.7261L29.6807 58.442C29.1621 58.9954 28.5096 59.2981 27.6627 59.2981C26.1933 59.2981 25.2014 58.0671 25.2014 56.424C25.2014 54.8335 26.2147 53.5652 27.6321 53.5652C28.3763 53.5652 29.0086 53.8435 29.5278 54.3449L30.8272 52.9996C30.0659 52.1698 28.9426 51.6543 27.6627 51.6543ZM36.4531 51.6543C33.7038 51.6543 31.6375 53.8068 31.6375 56.4699C31.6375 59.1678 33.5906 61.209 36.3919 61.209C39.1413 61.209 41.2075 59.0572 41.2075 56.3934C41.2075 53.6961 39.2538 51.6543 36.4531 51.6543ZM43.4395 51.8072L42.5375 61.0409H44.4485L44.8765 56.0571C44.9628 55.0885 44.9683 54.085 44.9683 54.085H45.0141C45.0141 54.085 45.2269 55.0946 45.5033 56.0113L47.0627 61.0409H48.8819L50.4412 55.9654C50.7176 55.0836 50.9304 54.085 50.9304 54.085H50.961C50.961 54.085 50.9818 55.0842 51.068 56.0877L51.4808 61.0409H53.514L52.6121 51.8072H49.9367L48.5303 56.3782C48.3059 57.123 48.0716 58.0751 48.0716 58.0751C48.0716 58.0751 47.8252 57.1242 47.5824 56.3629L46.1607 51.8072H43.4395ZM56.3116 51.8072L55.425 61.0409H57.3359L57.7487 56.0571C57.8349 55.0885 57.8557 54.085 57.8557 54.085H57.8863C57.8863 54.085 58.1144 55.0946 58.3908 56.0113L59.9501 61.0409H61.7693L63.3134 55.9654C63.5904 55.0836 63.8026 54.085 63.8026 54.085H63.8331C63.8331 54.085 63.8539 55.0842 63.9402 56.0877L64.3529 61.0409H66.4015L65.4995 51.8072H62.8242L61.4177 56.3782C61.1927 57.123 60.9591 58.0751 60.9591 58.0751C60.9591 58.0751 60.712 57.1242 60.4699 56.3629L59.0481 51.8072H56.3116ZM68.6029 51.8072V61.0409H74.6109V59.2675H70.6208V57.2496H73.9994V55.5221H70.6208V53.5652H74.5497V51.8072H68.6029ZM76.9805 51.8072V61.0409H78.9984V57.6776H79.6252L81.5973 61.0409H83.9975L81.7196 57.326C82.9127 56.8765 83.5847 55.9507 83.5847 54.7577C83.5847 52.8901 82.5317 51.8072 79.7475 51.8072H76.9805ZM85.2663 51.8072V53.5652H88.9965L85.1746 59.5121V61.0409H91.6107V59.2675H87.6971L91.519 53.3206V51.8072H85.2663ZM93.6898 51.8072V61.0409H97.2212C98.8643 61.0409 100.692 60.2997 100.692 58.3808C100.692 57.1878 99.9296 56.38 98.7194 56.2253V56.21C99.6703 55.9153 100.263 55.1967 100.263 54.1767C100.263 52.1704 98.4944 51.8072 96.8849 51.8072H93.6898ZM104.651 51.8072L101.364 61.0409H103.382L104.024 59.1605H107.617L108.259 61.0409H110.43L107.143 51.8072H104.651ZM111.683 51.8072V61.0409H113.548V56.6533C113.548 55.8229 113.487 54.9717 113.487 54.9717C113.487 54.9717 113.921 55.7135 114.404 56.4393L117.538 61.0409H119.327V51.8072H117.447V55.996C117.447 56.8264 117.508 57.6623 117.508 57.6623C117.508 57.6623 117.076 56.9212 116.591 56.1947L113.594 51.8072H111.683ZM121.544 51.8072V61.0409H123.546V56.7145L126.497 61.0409H128.974L125.58 56.0877L128.653 51.8072H126.329L123.546 55.9501V51.8072H121.544ZM36.4225 53.5347C38.013 53.5347 39.0367 54.7968 39.0367 56.4393C39.0367 57.9956 38.0473 59.3287 36.4225 59.3287C34.8314 59.3287 33.8083 58.0671 33.8083 56.424C33.8083 54.8677 34.7971 53.5347 36.4225 53.5347ZM78.9984 53.5347H79.824C80.8959 53.5347 81.5209 53.8588 81.5209 54.7577C81.5209 55.6223 80.9479 55.996 79.824 55.996H78.9984V53.5347ZM95.6925 53.5347H96.8543C97.4939 53.5347 98.1385 53.7365 98.1385 54.4978C98.1385 55.2408 97.5869 55.5373 96.9461 55.5373H95.6925V53.5347ZM105.828 53.6723C105.828 53.6723 106 54.2972 106.226 54.9717L107.036 57.4177H104.62L105.431 54.987C105.656 54.2954 105.828 53.6723 105.828 53.6723ZM95.6925 57.2343H97.1754C98.0737 57.2343 98.6583 57.5168 98.6583 58.2432C98.6583 58.9526 98.1954 59.3134 97.1754 59.3134H95.6925V57.2343Z" fill="black"/>
<defs>
<radialGradient id="paint0_radial" cx="0" cy="0" r="1" gradientUnits="userSpaceOnUse" gradientTransform="translate(149.479 62.1287) scale(15.2274 15.2277)">
<stop stop-color="#FEDF33"/>
<stop offset="0.440002" stop-color="#FBB809"/>
<stop offset="0.899994" stop-color="#EE960D"/>
<stop offset="1" stop-color="#E17A10"/>
</radialGradient>
<radialGradient id="paint1_radial" cx="0" cy="0" r="1" gradientUnits="userSpaceOnUse" gradientTransform="translate(145.504 47.0002) scale(15.2387)">
<stop stop-color="#FEDF33"/>
<stop offset="0.440002" stop-color="#FBB809"/>
<stop offset="0.899994" stop-color="#EE960D"/>
<stop offset="1" stop-color="#E17A10"/>
</radialGradient>
<radialGradient id="paint2_radial" cx="0" cy="0" r="1" gradientUnits="userSpaceOnUse" gradientTransform="translate(134.4 58.053) scale(15.2326)">
<stop stop-color="#FEDF33"/>
<stop offset="0.440002" stop-color="#FBB809"/>
<stop offset="0.899994" stop-color="#EE960D"/>
<stop offset="1" stop-color="#E17A10"/>
</radialGradient>
<radialGradient id="paint3_radial" cx="0" cy="0" r="1" gradientUnits="userSpaceOnUse" gradientTransform="translate(149.47 62.1769) scale(15.2753)">
<stop stop-color="#FEDF33"/>
<stop offset="0.440002" stop-color="#FBB809"/>
<stop offset="0.899994" stop-color="#EE960D"/>
<stop offset="1" stop-color="#D87301"/>
</radialGradient>
</defs>
</svg>
