<svg width="176" height="112" viewBox="0 0 176 112" fill="none" xmlns="http://www.w3.org/2000/svg">
<rect width="176" height="112" fill="#FAFAFA"/>
<path d="M68.7353 69.6719H71.0009V76H72.0946V69.6719H74.3638V68.7273H68.7353V69.6719ZM76.5842 72.7614C76.5842 71.8913 77.1346 71.3942 77.891 71.3942C78.6225 71.3942 79.0593 71.8594 79.0593 72.6584V76H80.1211V72.5305C80.1211 71.1705 79.3754 70.4744 78.2532 70.4744C77.4045 70.4744 76.8931 70.8438 76.6374 71.4332H76.57V68.7273H75.5224V76H76.5842V72.7614ZM83.8356 76.1101C85.3732 76.1101 86.3782 74.9844 86.3782 73.2976C86.3782 71.6001 85.3732 70.4744 83.8356 70.4744C82.2979 70.4744 81.293 71.6001 81.293 73.2976C81.293 74.9844 82.2979 76.1101 83.8356 76.1101ZM83.8391 75.2188C82.8342 75.2188 82.3654 74.3416 82.3654 73.294C82.3654 72.25 82.8342 71.3622 83.8391 71.3622C84.837 71.3622 85.3058 72.25 85.3058 73.294C85.3058 74.3416 84.837 75.2188 83.8391 75.2188ZM91.0186 73.7379C91.0222 74.6648 90.3333 75.1051 89.7367 75.1051C89.0797 75.1051 88.6252 74.6293 88.6252 73.8871V70.5455H87.5634V74.0149C87.5634 75.3679 88.3056 76.071 89.3532 76.071C90.1735 76.071 90.731 75.6378 90.9831 75.0554H91.04V76H92.084V70.5455H91.0186V73.7379ZM95.7976 78.1591C97.1861 78.1591 98.2585 77.5234 98.2585 76.1207V70.5455H97.218V71.4297H97.1399C96.9517 71.0923 96.5753 70.4744 95.5597 70.4744C94.2422 70.4744 93.2727 71.5149 93.2727 73.2514C93.2727 74.9915 94.2635 75.9183 95.5526 75.9183C96.554 75.9183 96.9411 75.3537 97.1328 75.0057H97.2003V76.0781C97.2003 76.9339 96.6143 77.3033 95.8082 77.3033C94.924 77.3033 94.5795 76.8594 94.3913 76.5469L93.4787 76.9233C93.7663 77.5909 94.4943 78.1591 95.7976 78.1591ZM95.7869 75.0376C94.8388 75.0376 94.3452 74.3097 94.3452 73.2372C94.3452 72.1896 94.8281 71.3764 95.7869 71.3764C96.7138 71.3764 97.2109 72.1328 97.2109 73.2372C97.2109 74.3629 96.7031 75.0376 95.7869 75.0376ZM100.744 72.7614C100.744 71.8913 101.295 71.3942 102.051 71.3942C102.783 71.3942 103.219 71.8594 103.219 72.6584V76H104.281V72.5305C104.281 71.1705 103.536 70.4744 102.413 70.4744C101.565 70.4744 101.053 70.8438 100.798 71.4332H100.73V68.7273H99.6825V76H100.744V72.7614ZM108.244 70.5455H107.126V69.2386H106.064V70.5455H105.265V71.3977H106.064V74.6186C106.06 75.6094 106.817 76.0888 107.655 76.071C107.992 76.0675 108.219 76.0036 108.344 75.9574L108.152 75.0803C108.081 75.0945 107.95 75.1264 107.779 75.1264C107.435 75.1264 107.126 75.0128 107.126 74.3984V71.3977H108.244V70.5455ZM68.9523 79.7273V87H69.9964V81.7337H70.0638L72.2087 86.9893H73.0752L75.2201 81.7372H75.2876V87H76.3316V79.7273H74.9999L72.6846 85.3807H72.5993L70.284 79.7273H68.9523ZM79.4291 87.1207C80.3311 87.1207 80.8389 86.6626 81.0413 86.2543H81.0839V87H82.1208V83.3778C82.1208 81.7905 80.8708 81.4744 80.0044 81.4744C79.0171 81.4744 78.108 81.8722 77.7529 82.8665L78.7508 83.0938C78.907 82.7067 79.3048 82.3338 80.0186 82.3338C80.7039 82.3338 81.0555 82.6925 81.0555 83.3104V83.3352C81.0555 83.7223 80.6578 83.7152 79.6776 83.8288C78.6443 83.9496 77.586 84.2195 77.586 85.4588C77.586 86.5312 78.3921 87.1207 79.4291 87.1207ZM79.6599 86.2685C79.0597 86.2685 78.6265 85.9986 78.6265 85.473C78.6265 84.9048 79.1308 84.7024 79.7451 84.6207C80.0896 84.5746 80.9063 84.4822 81.059 84.3295V85.0327C81.059 85.679 80.5441 86.2685 79.6599 86.2685ZM85.8327 87.1101C87.1217 87.1101 87.9562 86.3359 88.0734 85.2741H87.04C86.9051 85.8636 86.447 86.2116 85.8398 86.2116C84.9413 86.2116 84.3625 85.4624 84.3625 84.2727C84.3625 83.1044 84.952 82.3693 85.8398 82.3693C86.5145 82.3693 86.9264 82.7955 87.04 83.3068H88.0734C87.9598 82.206 87.0613 81.4744 85.822 81.4744C84.2844 81.4744 83.29 82.6321 83.29 84.2976C83.29 85.9418 84.2488 87.1101 85.8327 87.1101ZM90.2707 83.7614C90.2707 82.8913 90.8211 82.3942 91.5775 82.3942C92.309 82.3942 92.7458 82.8594 92.7458 83.6584V87H93.8076V83.5305C93.8076 82.1705 93.0619 81.4744 91.9397 81.4744C91.091 81.4744 90.5796 81.8438 90.324 82.4332H90.2565V79.7273H89.2089V87H90.2707V83.7614ZM95.2245 87H96.2863V81.5455H95.2245V87ZM95.7607 80.7038C96.1265 80.7038 96.4319 80.4197 96.4319 80.0717C96.4319 79.7237 96.1265 79.4361 95.7607 79.4361C95.3914 79.4361 95.0896 79.7237 95.0896 80.0717C95.0896 80.4197 95.3914 80.7038 95.7607 80.7038ZM98.7765 83.7614C98.7765 82.8913 99.3092 82.3942 100.048 82.3942C100.769 82.3942 101.206 82.8665 101.206 83.6584V87H102.267V83.5305C102.267 82.1811 101.525 81.4744 100.41 81.4744C99.5898 81.4744 99.0535 81.8544 98.8014 82.4332H98.7339V81.5455H97.7148V87H98.7765V83.7614ZM106.042 87.1101C107.232 87.1101 108.073 86.5241 108.315 85.6364L107.31 85.4553C107.118 85.9702 106.657 86.233 106.053 86.233C105.144 86.233 104.533 85.6435 104.505 84.5923H108.382V84.2159C108.382 82.245 107.203 81.4744 105.968 81.4744C104.448 81.4744 103.446 82.6321 103.446 84.3082C103.446 86.0021 104.434 87.1101 106.042 87.1101ZM104.508 83.7969C104.551 83.0227 105.112 82.3516 105.975 82.3516C106.799 82.3516 107.338 82.9624 107.342 83.7969H104.508Z" fill="#1D1D1D"/>
<path fill-rule="evenodd" clip-rule="evenodd" d="M82.7059 33.5116C82.7059 36.3804 80.3804 38.7059 77.5116 38.7059C74.6429 38.7059 72.3173 36.3804 72.3173 33.5116C72.3173 30.6429 74.6429 28.3173 77.5116 28.3173C80.3804 28.3173 82.7059 30.6429 82.7059 33.5116ZM87.0233 33.5116C87.0233 38.7648 82.7648 43.0233 77.5116 43.0233C72.2585 43.0233 68 38.7648 68 33.5116C68 28.2585 72.2585 24 77.5116 24C82.7648 24 87.0233 28.2585 87.0233 33.5116ZM77.5091 49.8918C77.4266 52.446 75.3301 54.4913 72.7558 54.4913C70.1293 54.4913 68 52.3621 68 49.7355C68 47.1089 70.1293 44.9797 72.7558 44.9797C75.3301 44.9797 77.4266 47.025 77.5091 49.5792C77.5916 47.025 79.6882 44.9797 82.2624 44.9797C84.889 44.9797 87.0182 47.1089 87.0182 49.7355C87.0182 52.3621 84.889 54.4913 82.2624 54.4913C79.6882 54.4913 77.5916 52.446 77.5091 49.8918ZM72.7558 64.0036C75.3301 64.0036 77.4266 61.9584 77.5091 59.4042C77.5916 61.9584 79.6882 64.0036 82.2624 64.0036C84.889 64.0036 87.0182 61.8744 87.0182 59.2478C87.0182 56.6213 84.889 54.492 82.2624 54.492C79.6882 54.492 77.5916 56.5373 77.5091 59.0915C77.4266 56.5373 75.3301 54.492 72.7558 54.492C70.1293 54.492 68 56.6213 68 59.2478C68 61.8744 70.1293 64.0036 72.7558 64.0036ZM101.724 51.3893V57.7979H95.3155V64.0041H107.93V51.3893H101.724ZM95.2504 51.3204V57.729H89.0442V45.1143H101.659V51.3204H95.2504ZM95.317 24H88.9759V30.3411H95.3155V36.6812H101.657V30.3401H95.317V24ZM88.9759 36.6836H95.317V43.0247H88.9759V36.6836ZM108 24H101.659V30.3411H108V24ZM108 36.6836H101.659V43.0247H108V36.6836Z" fill="#1D1D1D"/>
</svg>
