<svg width="176" height="112" viewBox="0 0 176 112" fill="none" xmlns="http://www.w3.org/2000/svg">
<rect width="176" height="112" fill="#FAFAFA"/>
<path fill-rule="evenodd" clip-rule="evenodd" d="M91.5559 46.0184C91.5559 44.3521 90.212 43 88.5388 43C86.8779 43.0027 85.5245 44.3521 85.5218 46.0184C85.5245 47.6821 86.8779 49.0341 88.5388 49.0355C90.212 49.0341 91.5559 47.6821 91.5559 46.0184ZM91.5559 63.9816C91.5559 62.3166 90.212 60.9645 88.5388 60.9645C86.8779 60.9672 85.5245 62.3166 85.5218 63.9816C85.5245 65.6466 86.8779 66.9973 88.5388 67C90.212 66.9973 91.5559 65.6466 91.5559 63.9816ZM74.0171 52.0103C75.6902 52.0103 77.0341 53.3624 77.0341 55.0287C77.0341 56.6937 75.6902 58.0444 74.0171 58.0471C72.3561 58.0444 71.0041 56.6937 71 55.0287C71.0041 53.3624 72.3561 52.013 74.0171 52.0103ZM106.297 55.0282C106.297 53.3618 104.953 52.0098 103.28 52.0098C101.619 52.0125 100.265 53.3618 100.263 55.0282C100.265 56.6932 101.619 58.0425 103.28 58.0466C104.953 58.0425 106.297 56.6932 106.297 55.0282ZM102.177 44.0073V49.6607L93.2098 55.031L102.177 60.3986V66.0548L88.5345 57.8069L74.9015 66.0548V60.3986L83.8619 55.031L74.9015 49.6539V44.0019L88.5331 52.2592L88.6063 52.2158L102.177 44.0073Z" fill="#1E357A"/>
</svg>
