<svg width="176" height="112" viewBox="0 0 176 112" fill="none" xmlns="http://www.w3.org/2000/svg">
<rect width="176" height="112" fill="#FAFAFA"/>
<path d="M34 64.5684C34 66.2252 35.3431 67.5684 37 67.5684H54.9665C56.6233 67.5684 57.9665 66.2252 57.9665 64.5684V47.0004C57.9665 45.3435 56.6233 44.0004 54.9665 44.0004H37C35.3431 44.0004 34 45.3435 34 47.0004V64.5684Z" fill="url(#paint0_linear)"/>
<path d="M35.8718 44.4223C35.4068 44.4223 35.1031 44.8146 35.0309 45.3647C35.0309 45.3647 34.4324 48.5107 34.4324 55.191C34.4324 61.8747 35.0309 66.2477 35.0309 66.2477C35.0861 66.7763 35.4068 67.1895 35.8718 67.1895H56.6162C57.0795 67.1895 57.4481 66.822 57.4559 66.2477C57.4559 66.2477 57.2254 61.1257 57.2254 56.1232C57.2254 51.1201 57.4559 45.3647 57.4559 45.3647C57.4672 44.8529 57.0795 44.4223 56.6162 44.4223H35.8718Z" fill="url(#paint1_linear)"/>
<path d="M47.5241 46.8264C48.1784 47.1009 50.8082 48.5228 51.1306 48.9771C49.8072 49.1518 47.2119 49.8275 45.8141 50.5078L45.7324 50.6724C47.2739 50.3331 49.4285 50.1556 50.9141 50.075C50.3596 50.8888 49.9921 51.2766 49.1484 52.1975L49.0701 52.3761C50.678 51.4101 51.1306 51.3408 52.6128 50.4729C53.1725 51.3008 53.3072 53.2086 53.3286 54.7207C53.811 53.7615 54.3966 50.1477 54.1532 49.4945C55.1361 48.8198 55.2691 48.2765 55.2691 48.2765C54.3679 48.3543 53.8708 48.3695 53.385 48.5228C52.2335 47.8166 49.5931 46.885 47.6002 46.6596L47.5241 46.8264Z" fill="url(#paint2_linear)"/>
<path d="M37.7044 58.0567C37.5742 59.2605 37.5218 60.1217 37.6943 61.0849C37.2068 61.2196 36.7796 61.2388 36.3867 61.4062L36.3118 61.5713C36.9368 61.9568 37.4457 62.2521 38.1525 62.5818C38.5307 63.394 38.9212 63.9418 39.5547 64.5674L39.6319 64.4C39.5181 63.9384 39.3704 63.5569 39.4262 63.0524C40.2119 63.2813 40.8859 63.4024 41.7815 63.4295L41.857 63.2621C41.0697 62.9566 40.2829 62.716 39.646 62.1152C39.8461 61.5583 40.0755 61.1215 40.4497 60.5692L40.5286 60.4001C39.8523 60.5021 39.2391 60.7496 38.6541 60.8634C38.1931 60.053 38.0138 58.9444 37.7816 57.8882L37.7044 58.0567Z" fill="url(#paint3_linear)"/>
<path d="M41.7173 52.5626C41.7173 52.5626 41.2112 52.5142 40.3737 52.5395C39.6658 52.5722 38.6102 52.6353 38.0968 52.7864L38.0218 52.951C38.8379 52.9859 39.9561 53.2051 40.3839 53.6346C40.3839 53.6346 39.1451 54.7522 37.917 57.1982C37.917 57.1982 40.1432 55.1095 41.1081 54.5916C41.1081 54.5916 41.6131 56.2734 41.9636 57.1154L42.0408 56.9474C42.1378 56.4064 42.3796 54.9388 42.7899 54.041C42.7899 54.041 42.9353 53.9525 43.6471 53.8832C44.3606 53.8195 45.3695 53.7817 47.2851 54.1182L47.3629 53.9536C46.9256 53.6955 45.1823 52.9481 43.3371 52.6996H43.3974C43.6505 51.9545 43.9672 51.3926 43.9672 51.3926C43.5761 51.4478 42.4624 51.9686 41.7173 52.5626Z" fill="url(#paint4_linear)"/>
<path d="M46.3806 62.8808C46.353 62.5544 46.3321 62.2766 46.3158 61.9091C45.9286 62.4344 45.5978 62.8475 45.1705 63.3271C44.7191 63.4528 44.2028 63.4478 43.7322 63.4427C43.5463 63.4404 43.3665 63.4387 43.2013 63.4438L43.1252 63.6112C43.5632 63.8366 43.9932 63.9753 44.452 64.0694C44.08 64.4081 43.5829 64.6657 43.2335 64.9018L43.1568 65.0664C43.9053 64.8894 44.891 64.5716 45.6254 64.1382C46.0075 64.1551 46.3642 64.1297 46.6263 64.0779C46.6263 64.0779 46.7047 63.9071 46.7047 63.911C46.6568 63.7419 46.5063 63.6388 46.4623 63.4021C47.1505 62.8678 47.6492 62.3809 48.2247 61.802L48.3047 61.6341C47.736 62.0264 47.0456 62.5657 46.3806 62.8808Z" fill="url(#paint5_linear)"/>
<path d="M52.6873 50.3034C51.2084 51.173 50.7553 51.2463 49.1467 52.2089C50.0834 51.1927 50.4092 50.7599 50.9886 49.9094C49.5058 49.9883 47.3511 50.1664 45.8125 50.5074C47.1516 49.7922 49.8067 48.9969 51.2084 48.8076C50.8832 48.3589 48.2529 46.9342 47.5985 46.6597C49.681 46.8214 52.2263 47.5998 53.4605 48.3544C53.9458 48.2028 54.4508 48.1955 55.3542 48.1149C55.1243 48.51 55.1141 48.7388 54.2276 49.3266C54.4733 49.9832 53.8866 53.5953 53.4019 54.5518C53.3844 53.0407 53.2526 51.1324 52.6873 50.3034Z" fill="white"/>
<path d="M41.858 63.2625C41.0081 62.9474 40.396 62.5805 39.7219 61.9504C39.9237 61.3936 40.1542 60.9585 40.5296 60.4005C39.8386 60.5037 39.3291 60.5814 38.734 60.6942C38.2493 59.8465 38.0295 59.0276 37.7826 57.8886C37.6507 59.0958 37.6006 59.9581 37.7708 60.919C37.2246 61.0706 36.8374 61.2037 36.3877 61.406C37.0178 61.7915 37.5267 62.0885 38.2301 62.4165C38.6083 63.2275 38.9988 63.7754 39.6335 64.4004C39.4847 63.8678 39.4452 63.4445 39.5061 62.886C40.2923 63.1148 40.9652 63.2349 41.858 63.2625Z" fill="white"/>
<path d="M44.0698 51.2482C43.8049 51.592 43.4977 52.2328 43.4149 52.5304C45.6056 52.8274 47.3635 53.9523 47.3635 53.9523C45.4478 53.6125 44.4384 53.6547 43.7237 53.719C43.0136 53.786 42.8676 53.8695 42.8676 53.8695C42.3508 55.0017 42.0408 56.9461 42.0408 56.9461C41.6925 56.1058 41.1887 54.4229 41.1887 54.4229C40.2221 54.9397 37.9993 57.0312 37.9993 57.0312C39.2211 54.583 40.4616 53.4693 40.4616 53.4693C40.035 53.037 38.9157 52.8212 38.0968 52.7851C38.5217 52.6115 39.6123 52.4086 40.4498 52.3703C41.2884 52.3461 41.7957 52.394 41.7957 52.394C42.5436 51.8033 43.6787 51.3062 44.0698 51.2482Z" fill="white"/>
<path d="M46.3934 61.7445C46.0068 62.2692 45.6742 62.6812 45.2453 63.1608C44.5082 63.3677 43.9198 63.4443 43.2012 63.4443C43.6425 63.672 44.0697 63.8084 44.5301 63.9048C44.0697 64.3213 43.6808 64.6177 43.2339 64.9023C43.9829 64.7248 44.9675 64.4069 45.7007 63.9735C46.084 63.9882 46.4419 63.9634 46.7045 63.9115C46.6357 63.6895 46.594 63.5238 46.5382 63.2347C47.2286 62.7004 47.7297 62.2162 48.3046 61.6346C47.6931 62.0612 47.1655 62.3797 46.4576 62.7139C46.4272 62.3881 46.4097 62.112 46.3934 61.7445Z" fill="white"/>
<path d="M66.7107 53.0335C68.1778 53.0459 68.7149 53.344 68.7149 54.1426C68.7149 54.363 68.6472 54.5586 68.5176 54.7079C68.2364 55.0455 67.6891 55.2208 66.9914 55.1768H66.9553L66.5456 56.2443H66.9553C67.7652 56.2212 68.4691 56.4765 68.831 56.9184C68.9978 57.1196 69.0818 57.3619 69.0818 57.6088C69.0818 58.444 68.3463 58.8752 66.8956 58.8752C66.6515 58.8752 66.2542 58.8752 66.0073 58.8673C65.9656 57.7525 65.947 56.2443 65.947 55.7895C65.947 55.2636 65.9814 54.0914 66.0073 53.0898C66.1747 53.0555 66.4526 53.0335 66.7107 53.0335ZM63.9936 52.2659C64.0387 53.0577 64.0849 55.0596 64.0849 55.7895C64.0849 56.4624 64.0843 58.7146 63.9666 59.6856L63.9592 59.7617H67.4778C69.2075 59.7617 71.0363 59.224 71.0363 57.6877C71.0363 56.7267 70.3403 56.016 69.0384 55.6272C70.0044 55.3679 70.6475 54.7079 70.6475 53.9533C70.6475 52.6993 69.2075 52.2275 67.8537 52.1948H63.9733L63.9936 52.2659Z" fill="black"/>
<path d="M79.1558 52.1953H77.4436L77.513 54.1036C77.5462 55.0465 77.5783 56.0165 77.6448 56.9582C77.5344 56.6629 77.4312 56.5113 76.9105 55.7538C76.9088 55.7273 75.1289 52.9899 74.5112 52.2127L74.4938 52.1953H72.5071V52.2663C72.5702 53.0581 72.5956 55.0606 72.5956 55.7905C72.5956 56.4634 72.5956 58.715 72.5009 59.686L72.4834 59.7627H74.2542V59.686C74.1533 57.8391 74.1533 55.9753 74.1533 54.1673C74.2148 54.3865 74.2931 54.5748 74.5721 54.9879C74.5952 55.0369 77.6448 59.4764 77.7931 59.7306L77.8083 59.7627H79.2269L79.2246 59.686C79.1164 58.715 79.1074 56.4634 79.1074 55.7905C79.1074 55.0606 79.1558 53.0581 79.2021 52.2663L79.2246 52.1953H79.1558Z" fill="black"/>
<path d="M83.7995 53.1083C84.7863 53.0903 85.475 53.2898 85.8025 53.704C85.9524 53.8821 86.0353 54.1171 86.0353 54.3865C86.0353 55.4816 84.8032 55.7194 83.7735 55.7194L83.3553 55.6958C83.3553 55.6958 83.2567 55.6862 83.1834 55.6783C83.1761 55.4252 83.1761 55.0916 83.1761 54.7174C83.1761 54.2411 83.1761 53.6758 83.1981 53.1522C83.3435 53.1331 83.5627 53.1083 83.7995 53.1083ZM81.203 52.2663C81.2723 53.0581 81.2988 55.06 81.2988 55.7905C81.2988 56.4628 81.2988 58.715 81.1951 59.686V59.7627H83.3012L83.2922 59.686C83.2201 58.9872 83.1834 57.6548 83.1761 56.6364C83.2747 56.6415 83.574 56.6567 83.574 56.6567L83.8716 56.6629C86.6422 56.6629 87.9898 55.9297 87.9898 54.3865C87.9898 52.6309 86.0995 52.2279 84.5237 52.1953H81.203V52.2663Z" fill="black"/>
<path d="M94.6031 53.1083C95.5922 53.0903 96.2804 53.2898 96.6118 53.704C96.7639 53.8821 96.84 54.1171 96.84 54.3865C96.84 55.4816 95.6097 55.7194 94.5929 55.7194L94.1759 55.6958C94.1759 55.6958 94.0654 55.6862 94.0006 55.6783C93.9893 55.4252 93.9893 55.0899 93.9893 54.7174C93.9893 54.2366 93.9893 53.6758 94.0091 53.1522C94.1409 53.1331 94.3686 53.1083 94.6031 53.1083ZM92.0105 52.2663C92.077 53.0581 92.1154 55.06 92.1154 55.7905C92.1154 56.4628 92.1086 58.715 91.9993 59.686V59.7627H94.1071L94.0947 59.686C94.0277 58.9872 93.9893 57.6548 93.9893 56.6364C94.0874 56.6415 94.3686 56.6567 94.3686 56.6567L94.6741 56.6629C97.4436 56.6629 98.803 55.9297 98.803 54.3865C98.803 52.6309 96.902 52.2279 95.32 52.1953H92.0105V52.2663Z" fill="black"/>
<path d="M102.133 54.4237C102.3 54.7844 102.735 55.7905 103.225 56.9909C103.149 56.9943 103.054 56.9943 103.054 56.9943L102.133 57.0067C102.133 57.0067 101.179 56.9943 101.02 56.9909C101.418 56.0311 101.812 55.1637 102.133 54.4237ZM101.621 52.1953H101.593L101.578 52.233C101.186 53.3101 98.6595 58.8237 98.2593 59.668L98.2261 59.7627H100.02L100.035 59.721C100.193 59.2019 100.406 58.6169 100.637 57.9924C100.708 57.9924 102.133 57.971 102.133 57.971L103.372 57.98C103.372 57.98 103.572 57.9924 103.632 57.9924C103.951 58.8057 104.196 59.4189 104.302 59.7306L104.323 59.7627H106.402L103.043 52.1953H103.001H101.621Z" fill="black"/>
<path d="M107.247 52.2663C107.307 53.0581 107.337 55.0606 107.337 55.7905C107.337 56.4634 107.337 58.715 107.222 59.686V59.7627H109.342L109.333 59.686C109.22 58.7082 109.212 56.4634 109.212 55.7905C109.212 55.2646 109.229 54.0923 109.281 53.1444C109.442 53.1331 109.687 53.1083 109.853 53.1083C110.833 53.0903 111.526 53.2926 111.85 53.704C112.006 53.8827 112.076 54.1228 112.076 54.3865C112.076 55.2607 111.26 55.7037 110.5 55.7431C110.245 55.7538 110.056 55.7211 110.056 55.7211L109.908 55.6958L109.989 55.8344C110.742 56.9317 111.866 58.8316 112.331 59.7306L112.344 59.7627H114.608L114.552 59.6607C114.46 59.5333 112.985 57.3629 112.358 56.4358C112.358 56.4358 112.331 56.4093 112.304 56.38C113.465 56.0311 114.026 55.3824 114.026 54.3865C114.026 52.6439 112.135 52.2291 110.539 52.1953H107.24L107.247 52.2663Z" fill="black"/>
<path d="M117.604 52.1953H115.586L115.597 52.2663C115.649 53.0581 115.69 55.0606 115.69 55.7905C115.69 56.46 115.681 58.7082 115.586 59.686L115.578 59.7627H117.67L117.659 59.686C117.578 58.7082 117.554 56.46 117.554 55.7905C117.554 55.0606 117.604 53.0581 117.659 52.2663V52.1953H117.604Z" fill="black"/>
<path d="M122.291 53.0335C123.769 53.0459 124.307 53.344 124.307 54.1426C124.307 54.363 124.239 54.5586 124.105 54.7079C123.838 55.0455 123.269 55.2208 122.576 55.1768H122.542L122.135 56.2443H122.542C123.354 56.2212 124.052 56.4765 124.413 56.9184C124.59 57.1196 124.674 57.3619 124.674 57.6088C124.674 58.444 123.935 58.8752 122.476 58.8752C122.242 58.8752 121.848 58.8752 121.601 58.8673C121.541 57.7525 121.541 56.2443 121.541 55.7895C121.541 55.2636 121.559 54.0914 121.601 53.0898C121.761 53.0555 122.037 53.0335 122.291 53.0335ZM119.575 52.2659C119.636 53.0577 119.672 55.0596 119.672 55.7895C119.672 56.4624 119.672 58.7146 119.566 59.6856L119.55 59.7617H123.074C124.797 59.7617 126.632 59.224 126.632 57.6877C126.632 56.7267 125.934 56.016 124.621 55.6272C125.589 55.3679 126.239 54.7079 126.239 53.9533C126.239 52.6993 124.797 52.2275 123.455 52.1948H119.566L119.575 52.2659Z" fill="black"/>
<path d="M130.944 54.4188C131.114 54.7711 131.545 55.7788 132.035 56.9821C131.961 56.9821 131.869 56.9899 131.869 56.9899L130.944 57.0023C130.944 57.0023 129.979 56.9821 129.836 56.9821C130.228 56.0155 130.612 55.1543 130.944 54.4188ZM131.815 52.1943H130.398L130.389 52.2281C129.966 53.3739 127.297 59.1784 127.073 59.6597L127.034 59.7617H128.837L128.848 59.7166C128.998 59.1981 129.208 58.6159 129.443 57.9791C129.5 57.9791 130.933 57.9565 130.933 57.9565L132.174 57.9762C132.174 57.9762 132.39 57.9791 132.438 57.9791C132.764 58.7923 133.006 59.4106 133.111 59.7166L133.13 59.7617H135.217L131.86 52.1943H131.815Z" fill="black"/>
<path d="M135.809 54.1507C135.809 55.4802 137.14 56.0151 138.319 56.5043C139.238 56.8701 140.198 57.255 140.198 57.8891C140.198 58.0807 140.16 58.2419 140.053 58.3552C139.832 58.6155 139.385 58.7249 138.676 58.6854C137.973 58.6572 137.18 58.4357 136.289 58.0249L135.94 57.8569V58.1511V59.5055L136.178 59.5663L136.316 59.59C136.757 59.6993 137.607 59.8994 138.451 59.8994C140.674 59.8994 142 59.0129 142 57.5475C142 56.1712 140.631 55.6364 139.421 55.1539C138.53 54.7926 137.607 54.4348 137.607 53.8447C137.607 53.6745 137.607 53.1779 138.758 53.1779C139.607 53.1779 140.431 53.5234 140.9 53.7026L141.327 53.8813L141.324 53.5973V52.2266L140.9 52.1499C140.468 52.0626 139.748 51.9194 139.006 51.9194C137.089 51.9194 135.809 52.8246 135.809 54.1507Z" fill="black"/>
<defs>
<linearGradient id="paint0_linear" x1="45.983" y1="43.4114" x2="45.983" y2="68.7112" gradientUnits="userSpaceOnUse">
<stop stop-color="#007348"/>
<stop offset="0.600006" stop-color="#8DC9AB"/>
<stop offset="1" stop-color="#00925B"/>
</linearGradient>
<linearGradient id="paint1_linear" x1="45.9449" y1="38.0472" x2="45.9449" y2="66.4772" gradientUnits="userSpaceOnUse">
<stop stop-color="#00925B"/>
<stop offset="0.300003" stop-color="#8DC9AB"/>
<stop offset="0.550003" stop-color="#00925B"/>
<stop offset="0.835159" stop-color="#007348"/>
<stop offset="1" stop-color="#009C6D"/>
</linearGradient>
<linearGradient id="paint2_linear" x1="50.5009" y1="64.9068" x2="50.5009" y2="46.5093" gradientUnits="userSpaceOnUse">
<stop stop-color="#00A678"/>
<stop offset="1" stop-color="#00925B"/>
</linearGradient>
<linearGradient id="paint3_linear" x1="39.0844" y1="64.9079" x2="39.0844" y2="46.5048" gradientUnits="userSpaceOnUse">
<stop stop-color="#00A678"/>
<stop offset="1" stop-color="#00925B"/>
</linearGradient>
<linearGradient id="paint4_linear" x1="42.6403" y1="64.9043" x2="42.6403" y2="46.5133" gradientUnits="userSpaceOnUse">
<stop stop-color="#00A678"/>
<stop offset="1" stop-color="#00925B"/>
</linearGradient>
<linearGradient id="paint5_linear" x1="45.7147" y1="64.906" x2="45.7147" y2="46.5087" gradientUnits="userSpaceOnUse">
<stop stop-color="#00A678"/>
<stop offset="1" stop-color="#00925B"/>
</linearGradient>
</defs>
</svg>
