<svg width="176" height="112" viewBox="0 0 176 112" fill="none" xmlns="http://www.w3.org/2000/svg">
<rect width="176" height="112" fill="#FAFAFA"/>
<path fill-rule="evenodd" clip-rule="evenodd" d="M95.2837 54.5182H99.7817C101.022 54.5182 102.048 53.4907 102.048 52.2499C102.048 51.0121 101.022 49.9846 99.7817 49.9846H96.2389L101.376 44.8846C102.261 43.9979 102.261 42.5459 101.376 41.665C100.49 40.7783 99.0735 40.7783 98.1878 41.665L92.9817 46.8673L93.0164 43.255C93.0164 41.9477 92.0246 41.0273 90.7848 41.0273C89.546 41.0273 88.5185 42.0191 88.5185 43.255V47.7539C88.5185 48.7457 89.1562 49.5591 90.0062 49.8775C90.0062 49.8775 92.3439 50.7284 93.1582 53.1019C93.4409 53.9509 94.3276 54.5182 95.2837 54.5182ZM96.1337 59.9327L99.746 59.9675C101.093 59.9675 102.013 58.9756 102.013 57.7387C102.013 56.5019 100.986 55.4734 99.746 55.4734H95.248C94.2919 55.4734 93.4409 56.1111 93.1226 56.9601C93.1226 56.9601 92.3083 59.294 89.9358 60.1093C89.0848 60.391 88.4828 61.2777 88.4828 62.2348V66.7317C88.4828 67.9725 89.5103 69 90.7491 69C91.9899 69 93.0164 68.0786 93.0164 66.7317V63.1909L98.1531 68.3275C99.0378 69.2123 100.455 69.2123 101.34 68.3275C102.226 67.4409 102.226 66.0245 101.34 65.1388L96.1337 59.9327ZM85.2632 68.9643C84.0234 68.9643 83.0316 68.149 83.0663 66.7317L83.102 63.1195L77.8959 68.3275C77.0112 69.2123 75.5582 69.2123 74.7091 68.3275C73.8225 67.4409 73.8225 65.9879 74.7091 65.1388L79.8082 60.0022H76.302C75.0266 60.0022 74.0357 58.9756 74.0357 57.7387C74.0357 56.5019 75.0266 55.4734 76.302 55.4734H80.801C81.7561 55.4734 82.6071 56.0407 82.9255 56.8897C83.7398 59.294 86.0418 60.1093 86.0418 60.1093C86.9265 60.4277 87.5305 61.2429 87.5305 62.2348V66.7317C87.5305 67.9725 86.5377 68.9643 85.2632 68.9643ZM82.8898 53.0652C82.8898 53.0652 83.7041 50.7641 86.0775 49.9141C86.9265 49.6295 87.4938 48.7457 87.4938 47.7877V43.2907C87.4938 42.0548 86.502 41.0273 85.2632 41.0273C83.9877 41.0273 82.9959 42.0548 82.9959 43.2907V46.8325L77.8602 41.6997C76.9745 40.814 75.5582 40.814 74.6725 41.6997C73.7868 42.5825 73.7868 43.9979 74.6725 44.8846L79.8805 50.0907L76.2663 50.056C74.85 50.056 74 51.0478 74 52.2866C74 53.5264 75.0266 54.5539 76.2663 54.5539H80.7643C81.7214 54.5539 82.5704 53.9152 82.8898 53.0652Z" fill="#002962"/>
</svg>
