<svg width="384" height="384" viewBox="0 0 384 384" fill="none" xmlns="http://www.w3.org/2000/svg">
<path d="M92.5596 228.4C92.5336 226.593 91.2206 226.034 89.8816 225.644L88.7636 225.319C87.8666 225.059 87.3596 224.734 87.3596 223.98C87.3596 222.979 88.4386 222.602 89.2446 222.602C89.9596 222.602 90.5706 222.862 91.0906 223.291C91.2596 223.434 91.4546 223.525 91.6496 223.525C91.9746 223.525 92.1956 223.317 92.1956 222.979C92.1956 222.823 92.1306 222.68 92.0006 222.537C91.4806 221.978 90.5966 221.471 89.2576 221.471C87.3206 221.471 86.1116 222.589 86.1116 223.993C86.1116 225.436 86.9046 226.034 88.4126 226.476L89.6086 226.827C90.6356 227.126 91.2856 227.542 91.2856 228.452C91.2856 229.453 90.4666 229.986 89.3746 229.986C88.5166 229.986 87.7496 229.713 87.1386 228.946C86.9826 228.751 86.8006 228.634 86.5666 228.634C86.2286 228.634 85.9686 228.894 85.9686 229.219C85.9686 229.375 86.0206 229.531 86.1506 229.713C86.8656 230.649 88.0746 231.143 89.3486 231.143C91.2726 231.143 92.5596 230.025 92.5596 228.4ZM99.917 227.321C99.917 225.137 98.708 223.954 97.174 223.954C95.627 223.954 94.223 225.228 94.223 227.516C94.223 229.713 95.497 231.065 97.174 231.065C98.292 231.065 99.046 230.571 99.475 229.921C99.54 229.817 99.618 229.674 99.618 229.518C99.618 229.206 99.423 228.972 99.111 228.972C98.903 228.972 98.747 229.076 98.617 229.258C98.253 229.765 97.824 230.025 97.148 230.025C96.173 230.025 95.523 229.167 95.432 227.958H99.332C99.657 227.958 99.917 227.763 99.917 227.321ZM98.721 226.918H95.458C95.549 225.735 96.238 224.994 97.174 224.994C98.097 224.994 98.682 225.735 98.721 226.918ZM104.6 225.033C105.263 225.033 105.692 225.371 106.004 225.891C106.16 226.151 106.316 226.307 106.576 226.307C106.888 226.307 107.109 226.073 107.109 225.8C107.109 225.605 107.044 225.462 106.992 225.358C106.537 224.5 105.718 223.954 104.613 223.954C102.949 223.954 101.662 225.358 101.662 227.516C101.662 229.674 102.949 231.065 104.626 231.065C105.757 231.065 106.654 230.415 107.005 229.7C107.057 229.583 107.122 229.414 107.122 229.284C107.122 228.972 106.888 228.712 106.576 228.712C106.381 228.712 106.173 228.803 106.03 229.102C105.77 229.661 105.276 229.986 104.626 229.986C103.612 229.986 102.871 229.089 102.871 227.516C102.871 226.359 103.365 225.033 104.6 225.033ZM113.437 230.389C113.437 230.727 113.71 231 114.048 231C114.386 231 114.659 230.727 114.659 230.389V224.63C114.659 224.292 114.386 224.019 114.048 224.019C113.71 224.019 113.437 224.292 113.437 224.63V228.179C113.437 228.504 113.372 228.881 113.19 229.167C112.878 229.687 112.254 229.96 111.695 229.96C111.071 229.96 110.655 229.661 110.499 229.219C110.421 228.998 110.395 228.608 110.395 228.296V224.63C110.395 224.292 110.122 224.019 109.784 224.019C109.446 224.019 109.173 224.292 109.173 224.63V228.361C109.173 228.972 109.225 229.57 109.511 230.051C109.94 230.779 110.733 231.065 111.461 231.065C112.306 231.065 113.021 230.714 113.437 230.233V230.389ZM122.305 225.15C122.305 224.994 122.253 224.851 122.136 224.721C121.694 224.227 121.083 223.954 120.342 223.954C119.549 223.954 118.899 224.266 118.483 224.812V224.63C118.483 224.292 118.21 224.019 117.872 224.019C117.534 224.019 117.261 224.292 117.261 224.63V230.389C117.261 230.727 117.534 231 117.872 231C118.21 231 118.483 230.727 118.483 230.389V227.321C118.483 226.502 118.574 226.034 118.834 225.683C119.107 225.319 119.497 225.046 120.134 225.046C120.641 225.046 120.914 225.163 121.317 225.488C121.46 225.605 121.59 225.696 121.785 225.696C122.11 225.696 122.305 225.423 122.305 225.15ZM129.091 227.321C129.091 225.137 127.882 223.954 126.348 223.954C124.801 223.954 123.397 225.228 123.397 227.516C123.397 229.713 124.671 231.065 126.348 231.065C127.466 231.065 128.22 230.571 128.649 229.921C128.714 229.817 128.792 229.674 128.792 229.518C128.792 229.206 128.597 228.972 128.285 228.972C128.077 228.972 127.921 229.076 127.791 229.258C127.427 229.765 126.998 230.025 126.322 230.025C125.347 230.025 124.697 229.167 124.606 227.958H128.506C128.831 227.958 129.091 227.763 129.091 227.321ZM127.895 226.918H124.632C124.723 225.735 125.412 224.994 126.348 224.994C127.271 224.994 127.856 225.735 127.895 226.918ZM132.461 222.212C132.461 221.874 132.188 221.601 131.85 221.601C131.512 221.601 131.239 221.874 131.239 222.212V230.389C131.239 230.727 131.512 231 131.85 231C132.188 231 132.461 230.727 132.461 230.389V222.212ZM136.568 231.845C136.399 232.3 136.191 232.547 135.814 232.547C135.554 232.547 135.333 232.43 135.151 232.274C135.034 232.183 134.904 232.131 134.761 232.131C134.449 232.131 134.215 232.378 134.215 232.677C134.215 232.872 134.319 233.028 134.436 233.145C134.8 233.483 135.255 233.652 135.827 233.652C136.581 233.652 137.205 233.223 137.504 232.469L140.546 224.903C140.585 224.812 140.611 224.721 140.611 224.63C140.611 224.292 140.338 224.019 140 224.019C139.779 224.019 139.545 224.123 139.454 224.357L137.751 228.764C137.686 228.933 137.556 229.336 137.517 229.479H137.491C137.452 229.336 137.322 228.933 137.257 228.764L135.567 224.383C135.502 224.214 135.307 224.019 135.008 224.019C134.67 224.019 134.397 224.292 134.397 224.63C134.397 224.747 134.436 224.851 134.462 224.916L136.789 230.662C136.828 230.753 136.88 230.792 136.958 230.818L136.568 231.845ZM150.845 222.459C150.845 222.212 150.78 222.108 150.624 221.9C150.325 221.523 149.779 221.237 149.129 221.237C147.933 221.237 147.088 222.225 147.088 223.551V224.019H146.035C145.736 224.019 145.489 224.266 145.489 224.578C145.489 224.877 145.736 225.124 146.048 225.124H147.088V230.389C147.088 230.727 147.361 231 147.699 231C148.037 231 148.31 230.727 148.31 230.389V225.124H149.74C150.039 225.124 150.286 224.877 150.286 224.565C150.286 224.266 150.039 224.019 149.727 224.019H148.31V223.577C148.31 223.096 148.388 222.836 148.544 222.628C148.687 222.433 148.882 222.342 149.129 222.342C149.415 222.342 149.584 222.446 149.818 222.706C149.935 222.836 150.091 222.966 150.364 222.966C150.624 222.966 150.845 222.719 150.845 222.459ZM157.052 225.15C157.052 224.994 157 224.851 156.883 224.721C156.441 224.227 155.83 223.954 155.089 223.954C154.296 223.954 153.646 224.266 153.23 224.812V224.63C153.23 224.292 152.957 224.019 152.619 224.019C152.281 224.019 152.008 224.292 152.008 224.63V230.389C152.008 230.727 152.281 231 152.619 231C152.957 231 153.23 230.727 153.23 230.389V227.321C153.23 226.502 153.321 226.034 153.581 225.683C153.854 225.319 154.244 225.046 154.881 225.046C155.388 225.046 155.661 225.163 156.064 225.488C156.207 225.605 156.337 225.696 156.532 225.696C156.857 225.696 157.052 225.423 157.052 225.15ZM161.095 223.954C159.431 223.954 158.131 225.358 158.131 227.516C158.131 229.674 159.418 231.065 161.095 231.065C162.772 231.065 164.059 229.674 164.059 227.516C164.059 225.358 162.759 223.954 161.095 223.954ZM161.095 230.025C160.081 230.025 159.34 229.089 159.34 227.516C159.34 225.956 160.081 224.994 161.095 224.994C162.109 224.994 162.85 225.956 162.85 227.516C162.85 229.089 162.109 230.025 161.095 230.025ZM174.702 226.684C174.702 225.995 174.624 225.449 174.442 225.046C174.156 224.422 173.571 223.954 172.687 223.954C171.777 223.954 171.205 224.383 170.841 225.085C170.607 224.448 169.983 223.954 169.099 223.954C168.371 223.954 167.812 224.266 167.487 224.773V224.63C167.487 224.292 167.214 224.019 166.876 224.019C166.538 224.019 166.265 224.292 166.265 224.63V230.389C166.265 230.727 166.538 231 166.876 231C167.214 231 167.487 230.727 167.487 230.389V226.619C167.487 226.32 167.539 225.956 167.669 225.735C167.903 225.319 168.358 225.059 168.865 225.059C169.346 225.059 169.658 225.397 169.762 225.735C169.84 225.995 169.866 226.346 169.866 226.84V230.389C169.866 230.727 170.139 231 170.477 231C170.815 231 171.088 230.727 171.088 230.389V226.736C171.088 226.411 171.153 226.008 171.27 225.787C171.504 225.358 171.92 225.059 172.466 225.059C172.96 225.059 173.272 225.397 173.389 225.787C173.467 226.047 173.48 226.645 173.48 226.814V230.389C173.48 230.727 173.753 231 174.091 231C174.429 231 174.702 230.727 174.702 230.389V226.684ZM182.868 231.845C182.699 232.3 182.491 232.547 182.114 232.547C181.854 232.547 181.633 232.43 181.451 232.274C181.334 232.183 181.204 232.131 181.061 232.131C180.749 232.131 180.515 232.378 180.515 232.677C180.515 232.872 180.619 233.028 180.736 233.145C181.1 233.483 181.555 233.652 182.127 233.652C182.881 233.652 183.505 233.223 183.804 232.469L186.846 224.903C186.885 224.812 186.911 224.721 186.911 224.63C186.911 224.292 186.638 224.019 186.3 224.019C186.079 224.019 185.845 224.123 185.754 224.357L184.051 228.764C183.986 228.933 183.856 229.336 183.817 229.479H183.791C183.752 229.336 183.622 228.933 183.557 228.764L181.867 224.383C181.802 224.214 181.607 224.019 181.308 224.019C180.97 224.019 180.697 224.292 180.697 224.63C180.697 224.747 180.736 224.851 180.762 224.916L183.089 230.662C183.128 230.753 183.18 230.792 183.258 230.818L182.868 231.845ZM191.247 223.954C189.583 223.954 188.283 225.358 188.283 227.516C188.283 229.674 189.57 231.065 191.247 231.065C192.924 231.065 194.211 229.674 194.211 227.516C194.211 225.358 192.911 223.954 191.247 223.954ZM191.247 230.025C190.233 230.025 189.492 229.089 189.492 227.516C189.492 225.956 190.233 224.994 191.247 224.994C192.261 224.994 193.002 225.956 193.002 227.516C193.002 229.089 192.261 230.025 191.247 230.025ZM200.616 230.389C200.616 230.727 200.889 231 201.227 231C201.565 231 201.838 230.727 201.838 230.389V224.63C201.838 224.292 201.565 224.019 201.227 224.019C200.889 224.019 200.616 224.292 200.616 224.63V228.179C200.616 228.504 200.551 228.881 200.369 229.167C200.057 229.687 199.433 229.96 198.874 229.96C198.25 229.96 197.834 229.661 197.678 229.219C197.6 228.998 197.574 228.608 197.574 228.296V224.63C197.574 224.292 197.301 224.019 196.963 224.019C196.625 224.019 196.352 224.292 196.352 224.63V228.361C196.352 228.972 196.404 229.57 196.69 230.051C197.119 230.779 197.912 231.065 198.64 231.065C199.485 231.065 200.2 230.714 200.616 230.233V230.389ZM209.484 225.15C209.484 224.994 209.432 224.851 209.315 224.721C208.873 224.227 208.262 223.954 207.521 223.954C206.728 223.954 206.078 224.266 205.662 224.812V224.63C205.662 224.292 205.389 224.019 205.051 224.019C204.713 224.019 204.44 224.292 204.44 224.63V230.389C204.44 230.727 204.713 231 205.051 231C205.389 231 205.662 230.727 205.662 230.389V227.321C205.662 226.502 205.753 226.034 206.013 225.683C206.286 225.319 206.676 225.046 207.313 225.046C207.82 225.046 208.093 225.163 208.496 225.488C208.639 225.605 208.769 225.696 208.964 225.696C209.289 225.696 209.484 225.423 209.484 225.15ZM218.209 223.954C217.481 223.954 216.87 224.292 216.415 224.838V222.212C216.415 221.874 216.142 221.601 215.804 221.601C215.466 221.601 215.193 221.874 215.193 222.212V230.389C215.193 230.727 215.466 231 215.804 231C216.142 231 216.415 230.727 216.415 230.389V230.233C216.818 230.701 217.403 231.065 218.287 231.065C219.912 231.065 221.121 229.622 221.121 227.516C221.121 225.371 219.847 223.954 218.209 223.954ZM218.157 230.025C217.169 230.025 216.402 229.089 216.402 227.516C216.402 225.956 217.169 224.994 218.157 224.994C219.171 224.994 219.912 225.956 219.912 227.516C219.912 229.089 219.171 230.025 218.157 230.025ZM227.647 230.142V230.389C227.647 230.727 227.92 231 228.258 231C228.596 231 228.869 230.727 228.869 230.389V224.63C228.869 224.292 228.596 224.019 228.258 224.019C227.92 224.019 227.647 224.292 227.647 224.63V224.825C227.205 224.227 226.529 223.954 225.853 223.954C224.202 223.954 222.941 225.384 222.941 227.516C222.941 229.661 224.215 231.065 225.866 231.065C226.62 231.065 227.257 230.727 227.647 230.142ZM225.905 230.025C224.891 230.025 224.15 229.089 224.15 227.516C224.15 225.956 224.891 224.994 225.905 224.994C226.893 224.994 227.66 225.956 227.66 227.516C227.66 229.089 226.893 230.025 225.905 230.025ZM232.69 224.63C232.69 224.292 232.417 224.019 232.079 224.019C231.741 224.019 231.468 224.292 231.468 224.63V230.389C231.468 230.727 231.741 231 232.079 231C232.417 231 232.69 230.727 232.69 230.389V226.84C232.69 226.515 232.755 226.138 232.937 225.852C233.249 225.332 233.873 225.059 234.432 225.059C235.056 225.059 235.472 225.358 235.628 225.8C235.706 226.021 235.732 226.411 235.732 226.723V230.389C235.732 230.727 236.005 231 236.343 231C236.681 231 236.954 230.727 236.954 230.389V226.658C236.954 226.047 236.902 225.449 236.616 224.968C236.187 224.24 235.394 223.954 234.666 223.954C233.821 223.954 233.106 224.305 232.69 224.786V224.63ZM244.536 225.124C244.679 224.994 244.783 224.812 244.783 224.617C244.783 224.279 244.497 224.019 244.185 224.019C244.016 224.019 243.86 224.097 243.743 224.214L240.727 227.23V222.212C240.727 221.874 240.454 221.601 240.116 221.601C239.778 221.601 239.505 221.874 239.505 222.212V230.389C239.505 230.727 239.778 231 240.116 231C240.454 231 240.727 230.727 240.727 230.389V228.777L241.637 227.906L243.899 230.792C244.042 230.974 244.224 231.026 244.367 231.026C244.692 231.026 244.965 230.753 244.965 230.428C244.965 230.259 244.887 230.116 244.783 229.986L242.456 227.126L244.536 225.124ZM248.204 224.63C248.204 224.292 247.931 224.019 247.593 224.019C247.255 224.019 246.982 224.292 246.982 224.63V230.389C246.982 230.727 247.255 231 247.593 231C247.931 231 248.204 230.727 248.204 230.389V224.63ZM248.529 221.848C248.529 221.341 248.1 220.912 247.593 220.912C247.086 220.912 246.657 221.341 246.657 221.848C246.657 222.355 247.086 222.784 247.593 222.784C248.1 222.784 248.529 222.355 248.529 221.848ZM252.025 224.63C252.025 224.292 251.752 224.019 251.414 224.019C251.076 224.019 250.803 224.292 250.803 224.63V230.389C250.803 230.727 251.076 231 251.414 231C251.752 231 252.025 230.727 252.025 230.389V226.84C252.025 226.515 252.09 226.138 252.272 225.852C252.584 225.332 253.208 225.059 253.767 225.059C254.391 225.059 254.807 225.358 254.963 225.8C255.041 226.021 255.067 226.411 255.067 226.723V230.389C255.067 230.727 255.34 231 255.678 231C256.016 231 256.289 230.727 256.289 230.389V226.658C256.289 226.047 256.237 225.449 255.951 224.968C255.522 224.24 254.729 223.954 254.001 223.954C253.156 223.954 252.441 224.305 252.025 224.786V224.63ZM263.143 230.662C263.143 231.273 263.026 231.819 262.714 232.131C262.389 232.456 261.908 232.586 261.349 232.586C260.764 232.586 260.348 232.365 259.88 232.027C259.776 231.949 259.633 231.897 259.503 231.897C259.178 231.897 258.944 232.131 258.944 232.456C258.944 232.742 259.126 232.898 259.269 233.002C259.802 233.405 260.556 233.652 261.349 233.652C262.35 233.652 262.948 233.431 263.442 233.002C264.092 232.443 264.365 231.715 264.365 230.662V224.63C264.365 224.292 264.092 224.019 263.754 224.019C263.416 224.019 263.143 224.292 263.143 224.63V224.838C262.701 224.227 262.025 223.954 261.349 223.954C259.698 223.954 258.437 225.384 258.437 227.516C258.437 229.661 259.711 231.065 261.362 231.065C262.09 231.065 262.727 230.753 263.143 230.207V230.662ZM261.401 230.025C260.387 230.025 259.646 229.089 259.646 227.516C259.646 225.956 260.387 224.994 261.401 224.994C262.389 224.994 263.156 225.956 263.156 227.516C263.156 229.089 262.389 230.025 261.401 230.025ZM275.711 230.142V230.389C275.711 230.727 275.984 231 276.322 231C276.66 231 276.933 230.727 276.933 230.389V224.63C276.933 224.292 276.66 224.019 276.322 224.019C275.984 224.019 275.711 224.292 275.711 224.63V224.825C275.269 224.227 274.593 223.954 273.917 223.954C272.266 223.954 271.005 225.384 271.005 227.516C271.005 229.661 272.279 231.065 273.93 231.065C274.684 231.065 275.321 230.727 275.711 230.142ZM273.969 230.025C272.955 230.025 272.214 229.089 272.214 227.516C272.214 225.956 272.955 224.994 273.969 224.994C274.957 224.994 275.724 225.956 275.724 227.516C275.724 229.089 274.957 230.025 273.969 230.025ZM282.562 223.954C281.834 223.954 281.223 224.292 280.768 224.838V224.63C280.768 224.292 280.495 224.019 280.157 224.019C279.819 224.019 279.546 224.292 279.546 224.63V232.82C279.546 233.158 279.819 233.431 280.157 233.431C280.495 233.431 280.768 233.158 280.768 232.82V230.233C281.171 230.701 281.756 231.065 282.64 231.065C284.265 231.065 285.474 229.622 285.474 227.516C285.474 225.371 284.2 223.954 282.562 223.954ZM282.51 230.025C281.522 230.025 280.755 229.089 280.755 227.516C280.755 225.956 281.522 224.994 282.51 224.994C283.524 224.994 284.265 225.956 284.265 227.516C284.265 229.089 283.524 230.025 282.51 230.025ZM290.712 223.954C289.984 223.954 289.373 224.292 288.918 224.838V224.63C288.918 224.292 288.645 224.019 288.307 224.019C287.969 224.019 287.696 224.292 287.696 224.63V232.82C287.696 233.158 287.969 233.431 288.307 233.431C288.645 233.431 288.918 233.158 288.918 232.82V230.233C289.321 230.701 289.906 231.065 290.79 231.065C292.415 231.065 293.624 229.622 293.624 227.516C293.624 225.371 292.35 223.954 290.712 223.954ZM290.66 230.025C289.672 230.025 288.905 229.089 288.905 227.516C288.905 225.956 289.672 224.994 290.66 224.994C291.674 224.994 292.415 225.956 292.415 227.516C292.415 229.089 291.674 230.025 290.66 230.025ZM297.849 229.908C297.849 229.258 297.329 228.738 296.679 228.738C296.042 228.738 295.522 229.258 295.522 229.908C295.522 230.545 296.042 231.065 296.679 231.065C297.329 231.065 297.849 230.545 297.849 229.908Z" fill="#414141"/>
<rect x="44" y="159" width="296" height="48" rx="6" fill="#1D1D1D"/>
<path fill-rule="evenodd" clip-rule="evenodd" d="M143.31 180.292C143.31 179.416 142.992 178.676 142.494 178.133C141.814 177.408 140.787 177 139.7 177H136.74C136.332 177 136 177.347 136 177.755V187.164C136 187.587 136.332 187.919 136.755 187.919C137.178 187.919 137.51 187.587 137.51 187.164V183.554H139.7C140.954 183.554 141.905 183.132 142.509 182.467C143.038 181.878 143.31 181.138 143.31 180.292ZM141.86 180.262C141.86 180.761 141.754 181.244 141.422 181.606C141.105 181.954 140.561 182.195 139.655 182.195H137.51V178.359H139.625C140.47 178.359 141.044 178.661 141.422 179.084C141.709 179.431 141.86 179.839 141.86 180.262ZM150.346 186.922V187.209C150.346 187.602 150.663 187.919 151.056 187.919C151.449 187.919 151.766 187.602 151.766 187.209V180.519C151.766 180.126 151.449 179.809 151.056 179.809C150.663 179.809 150.346 180.126 150.346 180.519V180.745C149.833 180.051 149.047 179.734 148.262 179.734C146.344 179.734 144.879 181.395 144.879 183.872C144.879 186.364 146.359 187.995 148.277 187.995C149.153 187.995 149.893 187.602 150.346 186.922ZM148.323 186.786C147.145 186.786 146.284 185.699 146.284 183.872C146.284 182.059 147.145 180.942 148.323 180.942C149.47 180.942 150.361 182.059 150.361 183.872C150.361 185.699 149.47 186.786 148.323 186.786ZM155.647 189.716C156.085 189.716 156.327 189.429 156.523 188.901L156.976 187.708C156.885 187.677 156.825 187.632 156.78 187.526L154.076 180.851C154.046 180.776 154.001 180.655 154.001 180.519C154.001 180.126 154.318 179.809 154.711 179.809C155.058 179.809 155.284 180.036 155.36 180.232L157.323 185.321C157.399 185.518 157.55 185.986 157.595 186.152H157.625C157.671 185.986 157.822 185.518 157.897 185.321L159.876 180.202C159.981 179.93 160.253 179.809 160.51 179.809C160.903 179.809 161.22 180.126 161.22 180.519C161.22 180.625 161.19 180.73 161.144 180.836L157.61 189.626C157.263 190.502 156.538 191 155.662 191C154.997 191 154.469 190.804 154.046 190.411C153.91 190.275 153.789 190.094 153.789 189.867C153.789 189.52 154.061 189.233 154.424 189.233C154.59 189.233 154.741 189.293 154.877 189.399C155.088 189.58 155.345 189.716 155.647 189.716ZM171.726 179.734C170.88 179.734 170.171 180.126 169.642 180.761V177.71C169.642 177.317 169.325 177 168.932 177C168.539 177 168.222 177.317 168.222 177.71V187.209C168.222 187.602 168.539 187.919 168.932 187.919C169.325 187.919 169.642 187.602 169.642 187.209V187.028C170.11 187.572 170.79 187.995 171.817 187.995C173.705 187.995 175.109 186.318 175.109 183.872C175.109 181.38 173.629 179.734 171.726 179.734ZM171.666 186.786C170.518 186.786 169.627 185.699 169.627 183.872C169.627 182.059 170.518 180.942 171.666 180.942C172.844 180.942 173.705 182.059 173.705 183.872C173.705 185.699 172.844 186.786 171.666 186.786ZM178.389 189.716C178.827 189.716 179.069 189.429 179.265 188.901L179.718 187.708C179.628 187.677 179.567 187.632 179.522 187.526L176.818 180.851C176.788 180.776 176.743 180.655 176.743 180.519C176.743 180.126 177.06 179.809 177.453 179.809C177.8 179.809 178.027 180.036 178.102 180.232L180.065 185.321C180.141 185.518 180.292 185.986 180.337 186.152H180.368C180.413 185.986 180.564 185.518 180.639 185.321L182.618 180.202C182.724 179.93 182.995 179.809 183.252 179.809C183.645 179.809 183.962 180.126 183.962 180.519C183.962 180.625 183.932 180.73 183.886 180.836L180.352 189.626C180.005 190.502 179.28 191 178.404 191C177.74 191 177.211 190.804 176.788 190.411C176.652 190.275 176.532 190.094 176.532 189.867C176.532 189.52 176.803 189.233 177.166 189.233C177.332 189.233 177.483 189.293 177.619 189.399C177.83 189.58 178.087 189.716 178.389 189.716ZM198.984 184.642C198.984 183.358 198.259 182.392 197.292 181.984C197.927 181.531 198.47 180.866 198.47 179.869C198.47 178.994 198.138 178.284 197.595 177.785C197.036 177.257 196.25 177 195.072 177H191.856C191.433 177 191.1 177.332 191.1 177.755V187.164C191.1 187.572 191.433 187.919 191.84 187.919H195.223C197.64 187.919 198.984 186.484 198.984 184.642ZM196.975 179.9C196.975 180.776 196.537 181.425 195.223 181.425H192.611V178.359H195.027C196.341 178.359 196.975 178.948 196.975 179.9ZM197.428 184.657C197.428 185.79 196.628 186.56 195.254 186.56H192.611V182.754H195.314C196.749 182.754 197.428 183.479 197.428 184.657ZM206.553 187.209V186.922C206.1 187.602 205.36 187.995 204.484 187.995C202.566 187.995 201.086 186.364 201.086 183.872C201.086 181.395 202.551 179.734 204.469 179.734C205.254 179.734 206.039 180.051 206.553 180.745V180.519C206.553 180.126 206.87 179.809 207.263 179.809C207.655 179.809 207.973 180.126 207.973 180.519V187.209C207.973 187.602 207.655 187.919 207.263 187.919C206.87 187.919 206.553 187.602 206.553 187.209ZM202.49 183.872C202.49 185.699 203.351 186.786 204.529 186.786C205.677 186.786 206.568 185.699 206.568 183.872C206.568 182.059 205.677 180.942 204.529 180.942C203.351 180.942 202.49 182.059 202.49 183.872ZM212.412 180.519C212.412 180.126 212.095 179.809 211.702 179.809C211.31 179.809 210.993 180.126 210.993 180.519V187.209C210.993 187.602 211.31 187.919 211.702 187.919C212.095 187.919 212.412 187.602 212.412 187.209V183.086C212.412 182.709 212.488 182.271 212.699 181.939C213.062 181.334 213.787 181.017 214.436 181.017C215.161 181.017 215.644 181.365 215.825 181.878C215.916 182.135 215.946 182.588 215.946 182.95V187.209C215.946 187.602 216.263 187.919 216.656 187.919C217.049 187.919 217.366 187.602 217.366 187.209V182.875C217.366 182.165 217.305 181.47 216.973 180.912C216.475 180.066 215.554 179.734 214.708 179.734C213.726 179.734 212.896 180.141 212.412 180.7V180.519ZM226.46 180.504C226.46 180.73 226.34 180.942 226.173 181.093L223.757 183.419L226.46 186.741C226.581 186.892 226.672 187.058 226.672 187.255C226.672 187.632 226.355 187.949 225.977 187.949C225.811 187.949 225.6 187.889 225.433 187.677L222.806 184.325L221.748 185.337V187.209C221.748 187.602 221.431 187.919 221.039 187.919C220.646 187.919 220.329 187.602 220.329 187.209V177.71C220.329 177.317 220.646 177 221.039 177C221.431 177 221.748 177.317 221.748 177.71V183.539L225.252 180.036C225.388 179.9 225.569 179.809 225.766 179.809C226.128 179.809 226.46 180.111 226.46 180.504ZM240 179C240 180.105 239.105 181 238 181C236.895 181 236 180.105 236 179C236 177.895 236.895 177 238 177C239.105 177 240 177.895 240 179ZM240 187C240 188.105 239.105 189 238 189C236.895 189 236 188.105 236 187C236 185.895 236.895 185 238 185C239.105 185 240 185.895 240 187Z" fill="#FAFAFA"/>
</svg>
