<svg width="176" height="112" viewBox="0 0 176 112" fill="none" xmlns="http://www.w3.org/2000/svg">
<rect width="176" height="112" fill="#FAFAFA"/>
<path d="M127.497 64.7694C127.497 65.0948 127.672 65.2706 127.998 65.2706H129.751C130.077 65.2706 130.253 65.0948 130.253 64.7694V56.1793C130.253 55.4783 130.703 55.0025 131.404 55.0025H134.209C134.534 55.0025 134.71 54.8267 134.71 54.5013V52.7476C134.71 52.4222 134.534 52.2464 134.209 52.2464H130.703C130.428 52.2464 130.252 52.4222 130.252 52.7476V53.599C130.252 54.3247 129.826 54.7511 129.101 54.7511H128.875C128.048 54.7511 127.497 55.3017 127.497 56.2032V64.7694ZM119.834 54.4018C121.588 54.4018 122.99 55.503 123.441 57.3314H116.229C116.653 55.5786 117.981 54.401 119.834 54.401V54.4018ZM119.834 51.9726C116.003 51.9726 113.398 54.7025 113.398 58.7334C113.398 62.6903 115.928 65.5452 120.084 65.5452C122.814 65.5452 124.942 64.2928 125.894 62.0394C126.044 61.714 125.869 61.5135 125.543 61.5135H123.64C123.414 61.5135 123.239 61.6137 123.089 61.8143C122.488 62.6656 121.436 63.1422 120.158 63.1422C118.005 63.1422 116.427 61.7641 116.102 59.5354H125.768C126.044 59.5354 126.219 59.3596 126.219 59.0851V58.8098C126.22 54.8521 123.74 51.9726 119.834 51.9726V51.9726ZM107.088 51.9472C105.11 51.9472 103.482 52.7977 102.755 54.3008C102.079 52.8486 100.702 51.9472 98.8993 51.9472C97.2961 51.9472 96.0437 52.6235 95.3427 53.7494L95.0173 52.6728C94.917 52.3474 94.7165 52.2471 94.4158 52.2471H93.1642C92.8387 52.2471 92.6629 52.4222 92.6629 52.7484V64.7686C92.6629 65.094 92.8387 65.2699 93.1642 65.2699H94.917C95.2425 65.2699 95.4183 65.094 95.4183 64.7686V57.4811C95.4183 55.6518 96.5704 54.4257 98.2732 54.4257C99.8756 54.4257 100.953 55.6272 100.953 57.4302V64.7671C100.953 65.0933 101.128 65.2683 101.454 65.2683H103.207C103.533 65.2683 103.708 65.0933 103.708 64.7671V57.4795C103.708 55.6518 104.86 54.4241 106.563 54.4241C108.166 54.4241 109.242 55.6272 109.242 57.4294V64.7663C109.242 65.0917 109.418 65.2675 109.744 65.2675H111.497C111.823 65.2675 111.998 65.0917 111.998 64.7663V56.9027C111.996 54.0517 110.168 51.9472 107.088 51.9472V51.9472ZM89.7834 52.2479C90.1088 52.2479 90.2846 52.423 90.2846 52.7492V64.7694C90.2846 65.0948 90.1088 65.2706 89.7834 65.2706H88.0297C87.7043 65.2706 87.5285 65.0948 87.5285 64.7694V52.7484C87.5285 52.423 87.7043 52.2471 88.0297 52.2471H89.7834V52.2479ZM88.9065 50.8212C89.8582 50.8212 90.5838 50.0948 90.5838 49.1432C90.5838 48.1916 89.8589 47.4659 88.9065 47.4659C87.9549 47.4659 87.2292 48.1908 87.2292 49.1432C87.2292 50.094 87.9549 50.8205 88.9065 50.8205V50.8212ZM78.8898 64.7686C78.8898 65.094 79.0657 65.2699 79.3911 65.2699H81.144C81.4702 65.2699 81.6452 65.094 81.6452 64.7686V56.1793C81.6452 55.4783 82.0963 55.0025 82.7973 55.0025H85.6021C85.9275 55.0025 86.1033 54.8267 86.1033 54.5013V52.7476C86.1033 52.4222 85.9275 52.2464 85.6021 52.2464H82.0963C81.821 52.2464 81.6452 52.4222 81.6452 52.7476V53.599C81.6452 54.3247 81.2195 54.7511 80.4931 54.7511H80.2679C79.4412 54.7511 78.8898 55.3017 78.8898 56.2032V64.7694V64.7686ZM67.9469 50.2683H71.2522C73.5811 50.2683 75.0078 51.5963 75.0078 53.7239C75.0078 55.8523 73.5811 57.1795 71.2522 57.1795H67.9462V50.2683H67.9469ZM67.4457 65.2691C67.7711 65.2691 67.9469 65.094 67.9469 64.7678V59.6851H71.4272C75.3841 59.6851 77.8634 57.3808 77.8634 53.7239C77.8634 50.0431 75.3841 47.7397 71.4272 47.7397H65.517C65.1916 47.7397 65.0157 47.9147 65.0157 48.2401V64.7686C65.0157 65.094 65.1916 65.2699 65.517 65.2699H67.4449L67.4457 65.2691ZM49.7404 64.393C49.7404 67.0721 47.9128 69 45.3833 69C42.8531 69 41 67.0721 41 64.393V61.7132C41 59.0334 42.9279 57.1055 45.3826 57.1055H47.0105C48.7379 57.1055 49.7404 56.1037 49.7404 54.3756V50.4449C49.7404 48.7175 48.7379 47.7397 47.0105 47.7397H45.8838C42.9287 47.7397 41 45.8117 41 43.3571C41 40.9279 42.9279 39 45.3826 39C47.8117 39 49.7404 40.9279 49.7404 43.607V45.0089C49.7404 46.7364 50.7429 47.7389 52.4704 47.7389H56.903C57.8793 47.7389 58.4554 48.3149 58.4554 49.2912V55.5516C58.4554 56.5279 57.8793 57.104 56.903 57.104H52.4704C50.7429 57.104 49.7404 58.0803 49.7404 59.8092V64.3938V64.393Z" fill="#1D1D1D"/>
</svg>
