<svg width="176" height="112" viewBox="0 0 176 112" fill="none" xmlns="http://www.w3.org/2000/svg">
<rect width="176" height="112" fill="#FAFAFA"/>
<path fill-rule="evenodd" clip-rule="evenodd" d="M53.1269 55.0329L55.7975 58.452H58.612V60.8533H55.0236C52.2395 60.8533 49.9754 58.5891 49.9754 55.8051C49.9754 53.0211 52.2395 50.757 55.0236 50.757H60.7186L58.0481 47.3379H54.8051C50.1363 47.3379 46.3379 51.1363 46.3379 55.8051C46.3379 60.4739 50.1363 64.2723 54.8051 64.2723H62.1767L62.1733 55.0329H53.1269ZM50.5986 59.1632L50.5969 59.1598C50.5986 59.1615 50.6003 59.1632 50.6003 59.1649L50.5986 59.1632ZM52.7188 60.8617L52.7137 60.8584L52.7161 60.8597C52.7181 60.8608 52.7197 60.8617 52.7222 60.8617H52.7188ZM126.025 47.3379L122.218 55.2954L118.202 47.3616L118.19 47.3379H114.473L120.195 58.4554V64.2723H123.793L123.865 58.4571L129.661 47.3379H126.025ZM100.051 47.3667L104.381 60.33L108.77 47.3379H112.474L112.454 47.3955L106.091 64.2723H102.403L102.393 64.2453L96.166 47.3379H100.042L100.051 47.3667ZM94.415 57.4037L94.4048 57.3766H86.6556L93.6445 47.3379H89.25L82.1595 57.7898L82.1426 57.8152L84.4406 60.7584H91.0112V64.2723H94.4658V57.5375C94.4658 57.5138 94.4573 57.4952 94.4455 57.4715C94.437 57.4562 94.4268 57.4342 94.415 57.4037ZM74.8317 47.3379C77.7021 47.3379 79.951 49.7527 79.951 52.8365C79.951 55.0363 78.6894 56.8686 76.5726 57.7509L80.9976 64.2723H76.7961L76.7843 64.2537L72.9893 58.3368H69.7836V64.2723H66.2578V47.3379H74.8317ZM74.4524 55.0973C75.5785 55.0973 76.4964 54.0863 76.4964 52.845C76.4964 51.1854 75.3533 50.5927 74.2847 50.5927H69.7853V55.0973H74.4524Z" fill="url(#paint0_linear)"/>
<defs>
<linearGradient id="paint0_linear" x1="7.73102" y1="70.8798" x2="19.8606" y2="16.0558" gradientUnits="userSpaceOnUse">
<stop stop-color="#8243C8"/>
<stop offset="0.0883" stop-color="#7F4ACA"/>
<stop offset="0.2173" stop-color="#775ED0"/>
<stop offset="0.3712" stop-color="#697EDA"/>
<stop offset="0.5331" stop-color="#57A7E7"/>
<stop offset="0.6254" stop-color="#67B6E2"/>
<stop offset="0.8504" stop-color="#88D7D8"/>
<stop offset="0.973" stop-color="#95E4D4"/>
</linearGradient>
</defs>
</svg>
