<svg width="176" height="112" viewBox="0 0 176 112" fill="none" xmlns="http://www.w3.org/2000/svg">
<rect width="176" height="112" fill="#FAFAFA"/>
<path fill-rule="evenodd" clip-rule="evenodd" d="M30 43.3374C30 40.3896 32.3896 38 35.3374 38H50.1177C53.0655 38 55.4551 40.3896 55.4551 43.3374V63.6946C55.4551 66.6424 53.0655 69.032 50.1177 69.032H35.3374C32.3896 69.032 30 66.6424 30 63.6946V43.3374ZM35.3374 40.4634C33.7501 40.4634 32.4634 41.7501 32.4634 43.3374V63.6946C32.4634 65.2819 33.7501 66.5685 35.3374 66.5685H50.1177C51.705 66.5685 52.9918 65.2819 52.9918 63.6946V43.3374C52.9918 41.7501 51.705 40.4634 50.1177 40.4634H35.3374Z" fill="#105157"/>
<path fill-rule="evenodd" clip-rule="evenodd" d="M43.96 61.1688V39.4375H41.4966V74.0002H43.96V67.0902C44.0322 63.5311 46.6004 61.6587 50.164 60.2197C53.2177 58.9867 55.4558 56.137 55.4558 52.7083H52.9924C52.9924 55.0007 51.4927 57.0265 49.2417 57.9356C47.3623 58.6945 45.4264 59.6947 43.96 61.1688Z" fill="#105157"/>
<path fill-rule="evenodd" clip-rule="evenodd" d="M35.3029 52.7581C32.2369 51.5394 30 48.6858 30 45.2578H32.4634C32.4634 47.5509 33.9623 49.5744 36.2128 50.4689C38.1077 51.2221 40.0438 52.2015 41.5071 53.6468C43.0106 55.1317 43.9853 57.0821 43.9591 59.6402L41.496 59.6151C41.5146 57.7816 40.8472 56.4573 39.7761 55.3994C38.6646 54.3017 37.0935 53.4698 35.3029 52.7581Z" fill="#105157"/>
<path d="M71.944 54.1816H69.4975V58.6849C69.4975 59.0602 69.5913 59.3344 69.7789 59.5076C69.9666 59.6808 70.2408 59.7819 70.6017 59.8107C70.9625 59.8252 71.41 59.818 71.944 59.7891V62.3222C70.0244 62.5388 68.6676 62.3584 67.8737 61.781C67.0943 61.2037 66.7046 60.1716 66.7046 58.6849V54.1816V51.4969V49.3102L69.4975 48.4658V51.4969H71.944V54.1816Z" fill="#105157"/>
<path d="M76.4419 53.3587C76.7016 52.6659 77.1275 52.1463 77.7192 51.7999C78.3254 51.4535 78.9966 51.2803 79.7328 51.2803V54.3979C78.8812 54.2969 78.1162 54.4701 77.4378 54.9176C76.7739 55.365 76.4419 56.1084 76.4419 57.1476V62.3221H73.6489V51.4968H76.4419V53.3587Z" fill="#105157"/>
<path d="M82.8926 58.0567C83.2679 59.4134 84.2855 60.0918 85.9454 60.0918C87.0135 60.0918 87.8218 59.731 88.3702 59.0092L90.6219 60.3083C89.5538 61.8528 87.9805 62.6249 85.902 62.6249C84.1123 62.6249 82.6761 62.0837 81.5935 61.0011C80.5111 59.9186 79.9697 58.5546 79.9697 56.9092C79.9697 55.2782 80.5038 53.9214 81.5719 52.8388C82.6401 51.7418 84.0112 51.1934 85.6856 51.1934C87.2733 51.1934 88.5796 51.7418 89.6044 52.8388C90.6436 53.9358 91.1632 55.2926 91.1632 56.9092C91.1632 57.27 91.1271 57.6525 91.0549 58.0567H82.8926ZM82.8493 55.8915H88.3702C88.2114 55.1554 87.8795 54.607 87.3743 54.2462C86.8835 53.8852 86.3207 53.7048 85.6856 53.7048C84.935 53.7048 84.3144 53.8997 83.8236 54.2894C83.3329 54.6647 83.0081 55.1987 82.8493 55.8915Z" fill="#105157"/>
<path d="M94.9543 58.0567C95.3296 59.4134 96.3472 60.0918 98.0071 60.0918C99.0751 60.0918 99.8834 59.731 100.432 59.0092L102.684 60.3083C101.616 61.8528 100.042 62.6249 97.9638 62.6249C96.174 62.6249 94.7378 62.0837 93.6553 61.0011C92.5727 59.9186 92.0315 58.5546 92.0315 56.9092C92.0315 55.2782 92.5655 53.9214 93.6336 52.8388C94.7017 51.7418 96.0729 51.1934 97.7472 51.1934C99.335 51.1934 100.641 51.7418 101.666 52.8388C102.705 53.9358 103.225 55.2926 103.225 56.9092C103.225 57.27 103.189 57.6525 103.117 58.0567H94.9543ZM94.911 55.8915H100.432C100.273 55.1554 99.9412 54.607 99.4361 54.2462C98.9453 53.8852 98.3823 53.7048 97.7472 53.7048C96.9967 53.7048 96.376 53.8997 95.8853 54.2894C95.3945 54.6647 95.0698 55.1987 94.911 55.8915Z" fill="#105157"/>
<path d="M109.809 62.6249C108.178 62.6249 106.814 62.0765 105.717 60.9795C104.635 59.8826 104.093 58.5257 104.093 56.9092C104.093 55.2926 104.635 53.9358 105.717 52.8388C106.814 51.7418 108.178 51.1934 109.809 51.1934C110.863 51.1934 111.823 51.446 112.689 51.9512C113.555 52.4564 114.211 53.1347 114.659 53.9863L112.256 55.3936C112.039 54.9462 111.707 54.5926 111.26 54.3327C110.827 54.073 110.336 53.943 109.787 53.943C108.95 53.943 108.257 54.2244 107.709 54.7874C107.16 55.3359 106.886 56.0431 106.886 56.9092C106.886 57.7608 107.16 58.468 107.709 59.0309C108.257 59.5794 108.95 59.8536 109.787 59.8536C110.35 59.8536 110.848 59.731 111.281 59.4856C111.729 59.2258 112.061 58.8722 112.277 58.4247L114.702 59.8103C114.226 60.6619 113.555 61.3475 112.689 61.8672C111.823 62.3724 110.863 62.6249 109.809 62.6249Z" fill="#105157"/>
<path d="M123.805 51.4965H126.597V62.3218H123.805V61.0445C122.967 62.0981 121.791 62.6249 120.276 62.6249C118.832 62.6249 117.591 62.0765 116.552 60.9795C115.527 59.8681 115.014 58.5113 115.014 56.9092C115.014 55.307 115.527 53.9575 116.552 52.8605C117.591 51.749 118.832 51.1934 120.276 51.1934C121.791 51.1934 122.967 51.7202 123.805 52.7739V51.4965ZM118.652 59.1175C119.215 59.6804 119.929 59.9619 120.795 59.9619C121.661 59.9619 122.376 59.6804 122.939 59.1175C123.516 58.5401 123.805 57.804 123.805 56.9092C123.805 56.0142 123.516 55.2854 122.939 54.7224C122.376 54.1451 121.661 53.8564 120.795 53.8564C119.929 53.8564 119.215 54.1451 118.652 54.7224C118.089 55.2854 117.807 56.0142 117.807 56.9092C117.807 57.804 118.089 58.5401 118.652 59.1175Z" fill="#105157"/>
<path d="M131.492 53.3587C131.752 52.6659 132.178 52.1463 132.769 51.7999C133.375 51.4535 134.046 51.2803 134.783 51.2803V54.3979C133.931 54.2969 133.166 54.4701 132.487 54.9176C131.824 55.365 131.492 56.1084 131.492 57.1476V62.3221H128.698V51.4968H131.492V53.3587Z" fill="#105157"/>
<path d="M143.787 47.167H146.58V62.3224H143.787V61.0451C142.964 62.0987 141.794 62.6256 140.28 62.6256C138.822 62.6256 137.572 62.0771 136.534 60.9801C135.509 59.8688 134.996 58.5119 134.996 56.9098C134.996 55.3076 135.509 53.9581 136.534 52.8611C137.572 51.7497 138.822 51.194 140.28 51.194C141.794 51.194 142.964 51.7208 143.787 52.7745V47.167ZM138.634 59.1182C139.211 59.681 139.932 59.9625 140.799 59.9625C141.664 59.9625 142.379 59.681 142.943 59.1182C143.505 58.5408 143.787 57.8047 143.787 56.9098C143.787 56.0149 143.505 55.286 142.943 54.723C142.379 54.1457 141.664 53.857 140.799 53.857C139.932 53.857 139.211 54.1457 138.634 54.723C138.071 55.286 137.789 56.0149 137.789 56.9098C137.789 57.8047 138.071 58.5408 138.634 59.1182Z" fill="#105157"/>
<path fill-rule="evenodd" clip-rule="evenodd" d="M45.9389 52.361C47.28 52.5214 48.6786 52.087 49.7077 51.0579C50.7368 50.0288 51.1712 48.6302 51.0109 47.2893C49.6698 47.1289 48.2712 47.5632 47.2421 48.5923C46.213 49.6215 45.7786 51.02 45.9389 52.361Z" fill="#33BC84"/>
<path fill-rule="evenodd" clip-rule="evenodd" d="M39.6942 48.2429C38.3532 48.4033 36.9545 47.9689 35.9254 46.9398C34.8963 45.9107 34.4619 44.5121 34.6223 43.1711C35.9633 43.0107 37.3619 43.4451 38.3911 44.4742C39.4201 45.5033 39.8545 46.9019 39.6942 48.2429Z" fill="#33BC84"/>
<path fill-rule="evenodd" clip-rule="evenodd" d="M39.6942 62.9206C38.3532 63.081 36.9545 62.6466 35.9254 61.6175C34.8963 60.5884 34.4619 59.1898 34.6223 57.8488C35.9633 57.6885 37.3619 58.1228 38.3911 59.1519C39.4201 60.181 39.8545 61.5796 39.6942 62.9206Z" fill="#33BC84"/>
</svg>
