<svg width="176" height="112" viewBox="0 0 176 112" fill="none" xmlns="http://www.w3.org/2000/svg">
<rect width="176" height="112" fill="#FAFAFA"/>
<path fill-rule="evenodd" clip-rule="evenodd" d="M96.8011 40V48.2208L102.979 54.4116V65.994H96.7997V70H79.9074V63.6266L85.3805 54.9979H95.1238L89.7695 63.3667V68.3185H95.1238V64.3111H101.305V54.9979H95.1238V41.6787H91.1689V45.6681H87.5529V46.5863C90.1692 47.882 92.0982 50.3531 92.6361 53.315H84.4609L78.584 62.5812C75.9484 60.9703 74 58.1964 74 55.0048C74 49.8193 78.1927 45.6128 83.3865 45.6128C84.2494 45.6128 85.0846 45.7304 85.8755 45.9461V43.9866H89.4957V40H96.8011ZM95.1611 62.7237H96.8246V59.4492H95.1611V62.7237ZM88.095 68.3185H81.5833V63.4317H88.095V68.3185Z" fill="#004890"/>
</svg>
