<svg width="176" height="112" viewBox="0 0 176 112" fill="none" xmlns="http://www.w3.org/2000/svg">
<rect width="176" height="112" fill="#FAFAFA"/>
<path d="M70.5718 48.2428C69.5211 47.786 68.3966 47.4883 67.3956 47.4883C65.9323 47.4883 65.2018 47.8093 65.2018 48.3885C65.2018 50.0454 71.7273 48.7145 71.7273 52.2504C71.7273 53.7142 70.3869 54.8443 67.7012 54.8443C66.1083 54.8443 64.863 54.507 63.4336 53.7142L64.0234 52.3953C65.277 53.1089 66.447 53.4257 67.7108 53.4257C69.3031 53.4257 70.1572 52.9547 70.1572 52.2504C70.1572 50.4379 63.6288 51.7907 63.6288 48.4776C63.6288 47.0484 64.9589 46.0654 67.3638 46.0654C68.8029 46.0654 70.013 46.3893 71.1699 46.9826L70.5718 48.2428Z" fill="black"/>
<path d="M77.8459 54.8882C75.2395 54.8882 73.0781 53.1083 73.0781 50.4493C73.0781 47.8207 75.2395 46.0068 77.8459 46.0068C80.4674 46.0068 82.5943 47.8207 82.5943 50.4493C82.5943 53.109 80.4674 54.8882 77.8459 54.8882ZM77.8459 47.4396C75.948 47.4396 74.651 48.757 74.651 50.4493C74.651 52.1812 75.8915 53.4696 77.8459 53.4696C79.7886 53.4696 81.0228 52.1692 81.0228 50.4493C81.0228 48.757 79.7886 47.4396 77.8459 47.4396Z" fill="black"/>
<path d="M88.8223 54.8783C86.0828 54.8783 84.02 53.1012 84.02 50.4387C84.02 47.8214 86.1152 46.0068 88.8223 46.0068C90.4366 46.0068 91.5935 46.4771 92.6304 47.2599L91.8233 48.4904C91.0685 47.8964 90.1241 47.4629 88.8664 47.4629C86.8678 47.4629 85.6261 48.757 85.6261 50.438C85.6261 52.1692 86.8796 53.4258 88.8864 53.4258C90.1413 53.4258 91.1368 53.0107 91.8867 52.416L92.6973 53.6479C91.6577 54.4314 90.4366 54.8783 88.8223 54.8783Z" fill="black"/>
<path d="M94.3511 46.2637H95.8723V54.6529H94.3511V46.2637Z" fill="black"/>
<path d="M98.1177 54.6529V46.2637H105.57V47.6511H99.6368V49.6892H104.248V51.0732H99.6368V53.2661H105.831V54.6529H98.1177Z" fill="black"/>
<path d="M111.494 47.642V54.6529H109.98V47.642H106.643V46.2637H114.828V47.642H111.494Z" fill="black"/>
<path d="M116.048 54.6529V46.2637H123.5V47.6511H117.567V49.6892H122.182V51.0732H117.567V53.2661H123.762V54.6529H116.048Z" fill="black"/>
<path d="M68.1132 64.5809C68.9452 64.5809 69.8034 64.3892 70.4491 64.0745V61.6362H71.9241V64.8927C70.8858 65.6084 69.4584 66.0447 68.0483 66.0447C65.3129 66.0447 63.2495 64.2683 63.2495 61.6044C63.2495 58.9871 65.344 57.1768 68.0483 57.1768C69.6323 57.1768 70.8209 57.635 71.8592 58.4178L71.0527 59.649C70.2959 59.0557 69.3474 58.6505 68.0904 58.6505C66.0939 58.6081 64.8535 59.9291 64.8535 61.6044C64.8535 63.3405 66.1084 64.5809 68.1132 64.5809Z" fill="black"/>
<path d="M73.9229 65.82V57.4336H81.3763V58.8189H75.4371V60.8563H80.0545V62.2417H75.4371V64.4346H81.6364V65.82H73.9229Z" fill="black"/>
<path d="M84.6135 65.82H83.1289V57.4336H84.6777L90.0139 63.7543L90.0505 63.743C89.9608 62.154 89.9491 60.8676 89.9491 59.6237V57.4336H91.4323V65.82H89.8959L84.579 59.5007L84.5549 59.5134C84.6135 60.7552 84.6135 62.9241 84.6135 63.6299V65.82" fill="black"/>
<path d="M93.5684 65.82V57.4336H101.019V58.8189H95.0826V60.8563H99.6986V62.2417H95.0826V64.4346H101.284V65.82H93.5684Z" fill="black"/>
<path d="M106.848 62.7346H104.403V65.82H102.885V57.4336H108.144C109.889 57.4336 110.971 58.5311 110.971 60.1074C110.971 61.6045 109.908 62.4984 108.624 62.6893L111.06 65.82H109.159L106.848 62.7346ZM107.982 61.3372C108.931 61.3372 109.467 60.8337 109.467 60.1081C109.467 59.3126 108.996 58.8197 108.144 58.8197H104.403V61.3379H107.982V61.3372Z" fill="black"/>
<path d="M114.169 63.784L113.231 65.82H111.589L115.576 57.4336H117.17L121.162 65.82H119.526L118.584 63.784H114.169ZM114.801 62.422H117.953L116.382 59.0233L114.801 62.422Z" fill="black"/>
<path d="M122.277 65.82V57.4336H123.793V64.4346H129.257V65.82H122.277Z" fill="black"/>
<path d="M130.283 65.82V57.4336H137.74V58.8189H131.802V60.8563H136.418V62.2417H131.802V64.4346H138V65.82H130.283Z" fill="black"/>
<path fill-rule="evenodd" clip-rule="evenodd" d="M38 46H57.556V56.2236H38V46Z" fill="#ED1A3A"/>
<path fill-rule="evenodd" clip-rule="evenodd" d="M38 56.0234H57.556V66.0462H38V56.0234Z" fill="black"/>
<path d="M41.4167 56.0225H54.1395" stroke="white" stroke-width="1.725" stroke-miterlimit="10"/>
</svg>
