<svg width="384" height="384" viewBox="0 0 384 384" fill="none" xmlns="http://www.w3.org/2000/svg">
<path fill-rule="evenodd" clip-rule="evenodd" d="M304.577 127.375C304.577 119.436 298.141 113 290.202 113H94.4485C86.5094 113 80.0735 119.436 80.0735 127.375V255.482C80.0735 263.421 86.5094 269.857 94.4485 269.857H290.202C298.141 269.857 304.577 263.421 304.577 255.482V127.375ZM75 269.856C77.8751 268.729 80.0524 265.939 80.0734 262.669L80.0734 254.636L80.0735 255.485C80.0735 260.196 82.3427 264.378 85.8466 266.999C82.6832 268.797 78.8931 269.832 75 269.856Z" fill="#E5E6EA"/>
<path fill-rule="evenodd" clip-rule="evenodd" d="M80.0737 127.375C80.0737 119.436 86.5096 113 94.4487 113H290.202C298.142 113 304.577 119.436 304.577 127.375V229.268H80.0737L80.0737 127.375Z" fill="white"/>
<path d="M107.597 144.668C107.597 144.365 107.504 144.108 107.317 143.898C107.13 143.665 106.827 143.548 106.454 143.548C106.267 143.548 106.057 143.618 105.847 143.782C105.03 144.412 104.656 144.575 103.98 144.575C103.023 144.575 102.229 143.852 100.806 143.852C100.339 143.852 99.8488 143.968 99.2653 144.225C100.082 143.642 100.386 142.148 100.386 140.958C100.386 140.351 100.362 139.767 100.316 139.184H102.369C102.906 139.184 103.35 138.787 103.35 138.227C103.35 137.69 102.906 137.294 102.369 137.294H99.8955C99.7321 136.593 99.5454 135.707 99.5454 134.633C99.5454 132.509 100.642 131.552 101.833 131.552C103.209 131.552 103.676 132.323 104.073 132.999C104.306 133.396 104.633 133.629 105.03 133.629C105.73 133.629 106.01 133.139 106.01 132.626C106.01 132.393 105.963 132.136 105.847 131.902C105.287 130.782 104.19 129.452 101.856 129.452C99.3354 129.452 97.3516 131.459 97.3516 134.633C97.3516 135.823 97.445 136.313 97.6783 137.294H97.0715C96.5348 137.294 96.0913 137.69 96.0913 138.227C96.0913 138.787 96.5348 139.184 97.0715 139.184H98.0984C98.2385 139.814 98.2851 140.374 98.2851 141.004C98.2851 141.728 98.1684 142.545 97.7484 143.268C97.3049 144.038 97.0249 144.272 96.6981 144.622C96.3714 144.948 96.2314 145.275 96.2314 145.579C96.2314 146.115 96.6048 146.559 97.2583 146.559C98.2618 146.559 98.7752 145.952 100.269 145.952C101.903 145.952 102.579 146.699 104.19 146.699C105.263 146.699 106.103 146.442 107.107 145.579C107.457 145.275 107.597 145.019 107.597 144.668ZM120.262 145.392V130.852C120.262 130.199 119.772 129.685 119.119 129.685H118.162C117.952 129.685 117.742 129.755 117.555 129.872L112.771 133.256C112.491 133.466 112.304 133.793 112.304 134.12C112.304 134.33 112.351 134.54 112.491 134.726C112.701 135.006 113.028 135.146 113.354 135.146C113.564 135.146 113.774 135.076 113.961 134.96L117.975 132.112V145.392C117.975 146.045 118.465 146.559 119.119 146.559C119.772 146.559 120.262 146.045 120.262 145.392ZM139.089 138.11C139.089 133.186 137.222 129.429 133.348 129.429C129.474 129.429 127.607 133.186 127.607 138.11C127.607 143.035 129.474 146.792 133.348 146.792C137.222 146.792 139.089 143.035 139.089 138.11ZM136.825 138.11C136.825 142.521 135.448 144.715 133.348 144.715C131.247 144.715 129.871 142.521 129.871 138.11C129.871 133.699 131.247 131.506 133.348 131.506C135.448 131.506 136.825 133.699 136.825 138.11ZM154.952 138.11C154.952 133.186 153.085 129.429 149.211 129.429C145.336 129.429 143.469 133.186 143.469 138.11C143.469 143.035 145.336 146.792 149.211 146.792C153.085 146.792 154.952 143.035 154.952 138.11ZM152.688 138.11C152.688 142.521 151.311 144.715 149.211 144.715C147.11 144.715 145.733 142.521 145.733 138.11C145.733 133.699 147.11 131.506 149.211 131.506C151.311 131.506 152.688 133.699 152.688 138.11Z" fill="#353535"/>
<path d="M101.088 211.07C101.065 209.448 99.8865 208.947 98.6846 208.597L97.6811 208.305C96.8759 208.072 96.4208 207.78 96.4208 207.103C96.4208 206.204 97.3893 205.866 98.1128 205.866C98.7546 205.866 99.3031 206.099 99.7698 206.485C99.9215 206.613 100.097 206.695 100.272 206.695C100.563 206.695 100.762 206.508 100.762 206.204C100.762 206.064 100.703 205.936 100.587 205.808C100.12 205.306 99.3264 204.851 98.1245 204.851C96.3858 204.851 95.3006 205.854 95.3006 207.115C95.3006 208.41 96.0124 208.947 97.366 209.343L98.4396 209.659C99.3614 209.927 99.9449 210.3 99.9449 211.117C99.9449 212.016 99.2097 212.494 98.2295 212.494C97.4594 212.494 96.7709 212.249 96.2224 211.561C96.0824 211.386 95.919 211.281 95.709 211.281C95.4056 211.281 95.1722 211.514 95.1722 211.806C95.1722 211.946 95.2189 212.086 95.3356 212.249C95.9774 213.089 97.0626 213.533 98.2062 213.533C99.9332 213.533 101.088 212.529 101.088 211.07ZM107.693 210.102C107.693 208.142 106.607 207.08 105.23 207.08C103.842 207.08 102.582 208.223 102.582 210.277C102.582 212.249 103.725 213.463 105.23 213.463C106.234 213.463 106.911 213.019 107.296 212.436C107.354 212.342 107.424 212.214 107.424 212.074C107.424 211.794 107.249 211.584 106.969 211.584C106.782 211.584 106.642 211.677 106.526 211.841C106.199 212.296 105.814 212.529 105.207 212.529C104.332 212.529 103.748 211.759 103.667 210.674H107.168C107.459 210.674 107.693 210.499 107.693 210.102ZM106.619 209.74H103.69C103.772 208.678 104.39 208.013 105.23 208.013C106.059 208.013 106.584 208.678 106.619 209.74ZM111.897 208.048C112.492 208.048 112.877 208.352 113.157 208.818C113.297 209.052 113.437 209.192 113.67 209.192C113.95 209.192 114.149 208.982 114.149 208.737C114.149 208.562 114.09 208.433 114.044 208.34C113.635 207.57 112.9 207.08 111.908 207.08C110.415 207.08 109.259 208.34 109.259 210.277C109.259 212.214 110.415 213.463 111.92 213.463C112.935 213.463 113.74 212.879 114.055 212.237C114.102 212.132 114.16 211.981 114.16 211.864C114.16 211.584 113.95 211.351 113.67 211.351C113.495 211.351 113.309 211.432 113.18 211.701C112.947 212.202 112.503 212.494 111.92 212.494C111.01 212.494 110.345 211.689 110.345 210.277C110.345 209.238 110.788 208.048 111.897 208.048ZM119.829 212.856C119.829 213.159 120.074 213.404 120.377 213.404C120.68 213.404 120.925 213.159 120.925 212.856V207.686C120.925 207.383 120.68 207.138 120.377 207.138C120.074 207.138 119.829 207.383 119.829 207.686V210.872C119.829 211.164 119.77 211.502 119.607 211.759C119.327 212.226 118.767 212.471 118.265 212.471C117.705 212.471 117.331 212.202 117.191 211.806C117.121 211.607 117.098 211.257 117.098 210.977V207.686C117.098 207.383 116.853 207.138 116.549 207.138C116.246 207.138 116.001 207.383 116.001 207.686V211.035C116.001 211.584 116.048 212.121 116.304 212.552C116.69 213.206 117.401 213.463 118.055 213.463C118.813 213.463 119.455 213.148 119.829 212.716V212.856ZM127.789 208.153C127.789 208.013 127.742 207.885 127.637 207.768C127.241 207.325 126.692 207.08 126.027 207.08C125.315 207.08 124.732 207.36 124.358 207.85V207.686C124.358 207.383 124.113 207.138 123.81 207.138C123.506 207.138 123.261 207.383 123.261 207.686V212.856C123.261 213.159 123.506 213.404 123.81 213.404C124.113 213.404 124.358 213.159 124.358 212.856V210.102C124.358 209.367 124.44 208.947 124.673 208.632C124.918 208.305 125.269 208.06 125.84 208.06C126.295 208.06 126.54 208.165 126.902 208.457C127.031 208.562 127.147 208.643 127.322 208.643C127.614 208.643 127.789 208.398 127.789 208.153ZM133.88 210.102C133.88 208.142 132.795 207.08 131.418 207.08C130.029 207.08 128.769 208.223 128.769 210.277C128.769 212.249 129.912 213.463 131.418 213.463C132.421 213.463 133.098 213.019 133.483 212.436C133.541 212.342 133.611 212.214 133.611 212.074C133.611 211.794 133.436 211.584 133.156 211.584C132.97 211.584 132.83 211.677 132.713 211.841C132.386 212.296 132.001 212.529 131.394 212.529C130.519 212.529 129.936 211.759 129.854 210.674H133.355C133.646 210.674 133.88 210.499 133.88 210.102ZM132.806 209.74H129.877C129.959 208.678 130.577 208.013 131.418 208.013C132.246 208.013 132.771 208.678 132.806 209.74ZM136.905 205.516C136.905 205.213 136.66 204.968 136.357 204.968C136.053 204.968 135.808 205.213 135.808 205.516V212.856C135.808 213.159 136.053 213.404 136.357 213.404C136.66 213.404 136.905 213.159 136.905 212.856V205.516ZM140.591 214.163C140.44 214.571 140.253 214.793 139.915 214.793C139.681 214.793 139.483 214.688 139.319 214.548C139.214 214.466 139.098 214.42 138.969 214.42C138.689 214.42 138.479 214.641 138.479 214.91C138.479 215.085 138.573 215.225 138.678 215.33C139.004 215.633 139.413 215.785 139.926 215.785C140.603 215.785 141.163 215.4 141.432 214.723L144.162 207.931C144.197 207.85 144.221 207.768 144.221 207.686C144.221 207.383 143.975 207.138 143.672 207.138C143.474 207.138 143.264 207.231 143.182 207.441L141.653 211.397C141.595 211.549 141.478 211.911 141.443 212.039H141.42C141.385 211.911 141.268 211.549 141.21 211.397L139.693 207.465C139.635 207.313 139.46 207.138 139.191 207.138C138.888 207.138 138.643 207.383 138.643 207.686C138.643 207.791 138.678 207.885 138.701 207.943L140.79 213.101C140.825 213.183 140.871 213.218 140.942 213.241L140.591 214.163ZM153.407 205.738C153.407 205.516 153.348 205.423 153.208 205.236C152.94 204.898 152.45 204.641 151.866 204.641C150.793 204.641 150.034 205.528 150.034 206.718V207.138H149.089C148.821 207.138 148.599 207.36 148.599 207.64C148.599 207.908 148.821 208.13 149.101 208.13H150.034V212.856C150.034 213.159 150.279 213.404 150.583 213.404C150.886 213.404 151.131 213.159 151.131 212.856V208.13H152.415C152.683 208.13 152.905 207.908 152.905 207.628C152.905 207.36 152.683 207.138 152.403 207.138H151.131V206.741C151.131 206.309 151.201 206.076 151.341 205.889C151.47 205.714 151.645 205.633 151.866 205.633C152.123 205.633 152.275 205.726 152.485 205.959C152.59 206.076 152.73 206.193 152.975 206.193C153.208 206.193 153.407 205.971 153.407 205.738ZM158.979 208.153C158.979 208.013 158.932 207.885 158.827 207.768C158.43 207.325 157.882 207.08 157.217 207.08C156.505 207.08 155.922 207.36 155.548 207.85V207.686C155.548 207.383 155.303 207.138 155 207.138C154.696 207.138 154.451 207.383 154.451 207.686V212.856C154.451 213.159 154.696 213.404 155 213.404C155.303 213.404 155.548 213.159 155.548 212.856V210.102C155.548 209.367 155.63 208.947 155.863 208.632C156.108 208.305 156.458 208.06 157.03 208.06C157.485 208.06 157.73 208.165 158.092 208.457C158.22 208.562 158.337 208.643 158.512 208.643C158.804 208.643 158.979 208.398 158.979 208.153ZM162.608 207.08C161.114 207.08 159.947 208.34 159.947 210.277C159.947 212.214 161.102 213.463 162.608 213.463C164.113 213.463 165.268 212.214 165.268 210.277C165.268 208.34 164.101 207.08 162.608 207.08ZM162.608 212.529C161.697 212.529 161.032 211.689 161.032 210.277C161.032 208.877 161.697 208.013 162.608 208.013C163.518 208.013 164.183 208.877 164.183 210.277C164.183 211.689 163.518 212.529 162.608 212.529ZM174.822 209.53C174.822 208.912 174.752 208.422 174.588 208.06C174.332 207.5 173.807 207.08 173.013 207.08C172.196 207.08 171.683 207.465 171.356 208.095C171.146 207.523 170.586 207.08 169.792 207.08C169.139 207.08 168.637 207.36 168.345 207.815V207.686C168.345 207.383 168.1 207.138 167.797 207.138C167.494 207.138 167.249 207.383 167.249 207.686V212.856C167.249 213.159 167.494 213.404 167.797 213.404C168.1 213.404 168.345 213.159 168.345 212.856V209.472C168.345 209.203 168.392 208.877 168.509 208.678C168.719 208.305 169.127 208.072 169.582 208.072C170.014 208.072 170.294 208.375 170.388 208.678C170.458 208.912 170.481 209.227 170.481 209.67V212.856C170.481 213.159 170.726 213.404 171.029 213.404C171.333 213.404 171.578 213.159 171.578 212.856V209.577C171.578 209.285 171.636 208.923 171.741 208.725C171.951 208.34 172.325 208.072 172.815 208.072C173.258 208.072 173.538 208.375 173.643 208.725C173.713 208.958 173.725 209.495 173.725 209.647V212.856C173.725 213.159 173.97 213.404 174.273 213.404C174.577 213.404 174.822 213.159 174.822 212.856V209.53ZM182.151 214.163C182 214.571 181.813 214.793 181.474 214.793C181.241 214.793 181.043 214.688 180.879 214.548C180.774 214.466 180.658 214.42 180.529 214.42C180.249 214.42 180.039 214.641 180.039 214.91C180.039 215.085 180.133 215.225 180.238 215.33C180.564 215.633 180.973 215.785 181.486 215.785C182.163 215.785 182.723 215.4 182.991 214.723L185.722 207.931C185.757 207.85 185.78 207.768 185.78 207.686C185.78 207.383 185.535 207.138 185.232 207.138C185.034 207.138 184.823 207.231 184.742 207.441L183.213 211.397C183.155 211.549 183.038 211.911 183.003 212.039H182.98C182.945 211.911 182.828 211.549 182.77 211.397L181.253 207.465C181.194 207.313 181.019 207.138 180.751 207.138C180.448 207.138 180.203 207.383 180.203 207.686C180.203 207.791 180.238 207.885 180.261 207.943L182.35 213.101C182.385 213.183 182.431 213.218 182.501 213.241L182.151 214.163ZM189.672 207.08C188.179 207.08 187.012 208.34 187.012 210.277C187.012 212.214 188.167 213.463 189.672 213.463C191.178 213.463 192.333 212.214 192.333 210.277C192.333 208.34 191.166 207.08 189.672 207.08ZM189.672 212.529C188.762 212.529 188.097 211.689 188.097 210.277C188.097 208.877 188.762 208.013 189.672 208.013C190.582 208.013 191.248 208.877 191.248 210.277C191.248 211.689 190.582 212.529 189.672 212.529ZM198.082 212.856C198.082 213.159 198.327 213.404 198.631 213.404C198.934 213.404 199.179 213.159 199.179 212.856V207.686C199.179 207.383 198.934 207.138 198.631 207.138C198.327 207.138 198.082 207.383 198.082 207.686V210.872C198.082 211.164 198.024 211.502 197.861 211.759C197.58 212.226 197.02 212.471 196.519 212.471C195.958 212.471 195.585 212.202 195.445 211.806C195.375 211.607 195.352 211.257 195.352 210.977V207.686C195.352 207.383 195.107 207.138 194.803 207.138C194.5 207.138 194.255 207.383 194.255 207.686V211.035C194.255 211.584 194.301 212.121 194.558 212.552C194.943 213.206 195.655 213.463 196.309 213.463C197.067 213.463 197.709 213.148 198.082 212.716V212.856ZM206.043 208.153C206.043 208.013 205.996 207.885 205.891 207.768C205.494 207.325 204.946 207.08 204.281 207.08C203.569 207.08 202.985 207.36 202.612 207.85V207.686C202.612 207.383 202.367 207.138 202.064 207.138C201.76 207.138 201.515 207.383 201.515 207.686V212.856C201.515 213.159 201.76 213.404 202.064 213.404C202.367 213.404 202.612 213.159 202.612 212.856V210.102C202.612 209.367 202.694 208.947 202.927 208.632C203.172 208.305 203.522 208.06 204.094 208.06C204.549 208.06 204.794 208.165 205.156 208.457C205.284 208.562 205.401 208.643 205.576 208.643C205.868 208.643 206.043 208.398 206.043 208.153ZM213.875 207.08C213.221 207.08 212.673 207.383 212.264 207.873V205.516C212.264 205.213 212.019 204.968 211.716 204.968C211.413 204.968 211.168 205.213 211.168 205.516V212.856C211.168 213.159 211.413 213.404 211.716 213.404C212.019 213.404 212.264 213.159 212.264 212.856V212.716C212.626 213.136 213.151 213.463 213.945 213.463C215.403 213.463 216.489 212.167 216.489 210.277C216.489 208.352 215.345 207.08 213.875 207.08ZM213.828 212.529C212.941 212.529 212.253 211.689 212.253 210.277C212.253 208.877 212.941 208.013 213.828 208.013C214.738 208.013 215.403 208.877 215.403 210.277C215.403 211.689 214.738 212.529 213.828 212.529ZM222.346 212.634V212.856C222.346 213.159 222.591 213.404 222.894 213.404C223.198 213.404 223.443 213.159 223.443 212.856V207.686C223.443 207.383 223.198 207.138 222.894 207.138C222.591 207.138 222.346 207.383 222.346 207.686V207.861C221.949 207.325 221.342 207.08 220.736 207.08C219.254 207.08 218.122 208.363 218.122 210.277C218.122 212.202 219.265 213.463 220.747 213.463C221.424 213.463 221.996 213.159 222.346 212.634ZM220.782 212.529C219.872 212.529 219.207 211.689 219.207 210.277C219.207 208.877 219.872 208.013 220.782 208.013C221.669 208.013 222.358 208.877 222.358 210.277C222.358 211.689 221.669 212.529 220.782 212.529ZM226.873 207.686C226.873 207.383 226.628 207.138 226.325 207.138C226.021 207.138 225.776 207.383 225.776 207.686V212.856C225.776 213.159 226.021 213.404 226.325 213.404C226.628 213.404 226.873 213.159 226.873 212.856V209.67C226.873 209.378 226.932 209.04 227.095 208.783C227.375 208.317 227.935 208.072 228.437 208.072C228.997 208.072 229.371 208.34 229.511 208.737C229.581 208.935 229.604 209.285 229.604 209.565V212.856C229.604 213.159 229.849 213.404 230.152 213.404C230.456 213.404 230.701 213.159 230.701 212.856V209.507C230.701 208.958 230.654 208.422 230.397 207.99C230.012 207.336 229.301 207.08 228.647 207.08C227.889 207.08 227.247 207.395 226.873 207.826V207.686ZM237.506 208.13C237.634 208.013 237.728 207.85 237.728 207.675C237.728 207.371 237.471 207.138 237.191 207.138C237.039 207.138 236.899 207.208 236.794 207.313L234.087 210.02V205.516C234.087 205.213 233.842 204.968 233.539 204.968C233.235 204.968 232.99 205.213 232.99 205.516V212.856C232.99 213.159 233.235 213.404 233.539 213.404C233.842 213.404 234.087 213.159 234.087 212.856V211.409L234.904 210.627L236.934 213.218C237.063 213.381 237.226 213.428 237.354 213.428C237.646 213.428 237.891 213.183 237.891 212.891C237.891 212.739 237.821 212.611 237.728 212.494L235.639 209.927L237.506 208.13ZM240.799 207.686C240.799 207.383 240.554 207.138 240.25 207.138C239.947 207.138 239.702 207.383 239.702 207.686V212.856C239.702 213.159 239.947 213.404 240.25 213.404C240.554 213.404 240.799 213.159 240.799 212.856V207.686ZM241.091 205.189C241.091 204.734 240.705 204.349 240.25 204.349C239.795 204.349 239.41 204.734 239.41 205.189C239.41 205.644 239.795 206.029 240.25 206.029C240.705 206.029 241.091 205.644 241.091 205.189ZM244.229 207.686C244.229 207.383 243.984 207.138 243.68 207.138C243.377 207.138 243.132 207.383 243.132 207.686V212.856C243.132 213.159 243.377 213.404 243.68 213.404C243.984 213.404 244.229 213.159 244.229 212.856V209.67C244.229 209.378 244.287 209.04 244.451 208.783C244.731 208.317 245.291 208.072 245.793 208.072C246.353 208.072 246.726 208.34 246.866 208.737C246.936 208.935 246.959 209.285 246.959 209.565V212.856C246.959 213.159 247.204 213.404 247.508 213.404C247.811 213.404 248.056 213.159 248.056 212.856V209.507C248.056 208.958 248.01 208.422 247.753 207.99C247.368 207.336 246.656 207.08 246.003 207.08C245.244 207.08 244.602 207.395 244.229 207.826V207.686ZM254.208 213.101C254.208 213.649 254.103 214.139 253.823 214.42C253.531 214.711 253.1 214.828 252.598 214.828C252.073 214.828 251.699 214.63 251.279 214.326C251.186 214.256 251.057 214.209 250.941 214.209C250.649 214.209 250.439 214.42 250.439 214.711C250.439 214.968 250.602 215.108 250.731 215.201C251.209 215.563 251.886 215.785 252.598 215.785C253.496 215.785 254.033 215.586 254.477 215.201C255.06 214.7 255.305 214.046 255.305 213.101V207.686C255.305 207.383 255.06 207.138 254.757 207.138C254.453 207.138 254.208 207.383 254.208 207.686V207.873C253.811 207.325 253.205 207.08 252.598 207.08C251.116 207.08 249.984 208.363 249.984 210.277C249.984 212.202 251.127 213.463 252.609 213.463C253.263 213.463 253.835 213.183 254.208 212.692V213.101ZM252.644 212.529C251.734 212.529 251.069 211.689 251.069 210.277C251.069 208.877 251.734 208.013 252.644 208.013C253.531 208.013 254.22 208.877 254.22 210.277C254.22 211.689 253.531 212.529 252.644 212.529ZM265.49 212.634V212.856C265.49 213.159 265.735 213.404 266.038 213.404C266.342 213.404 266.587 213.159 266.587 212.856V207.686C266.587 207.383 266.342 207.138 266.038 207.138C265.735 207.138 265.49 207.383 265.49 207.686V207.861C265.093 207.325 264.486 207.08 263.879 207.08C262.398 207.08 261.266 208.363 261.266 210.277C261.266 212.202 262.409 213.463 263.891 213.463C264.568 213.463 265.14 213.159 265.49 212.634ZM263.926 212.529C263.016 212.529 262.351 211.689 262.351 210.277C262.351 208.877 263.016 208.013 263.926 208.013C264.813 208.013 265.501 208.877 265.501 210.277C265.501 211.689 264.813 212.529 263.926 212.529ZM271.639 207.08C270.986 207.08 270.437 207.383 270.029 207.873V207.686C270.029 207.383 269.784 207.138 269.48 207.138C269.177 207.138 268.932 207.383 268.932 207.686V215.038C268.932 215.341 269.177 215.586 269.48 215.586C269.784 215.586 270.029 215.341 270.029 215.038V212.716C270.391 213.136 270.916 213.463 271.709 213.463C273.168 213.463 274.253 212.167 274.253 210.277C274.253 208.352 273.109 207.08 271.639 207.08ZM271.592 212.529C270.706 212.529 270.017 211.689 270.017 210.277C270.017 208.877 270.706 208.013 271.592 208.013C272.503 208.013 273.168 208.877 273.168 210.277C273.168 211.689 272.503 212.529 271.592 212.529ZM278.955 207.08C278.302 207.08 277.753 207.383 277.345 207.873V207.686C277.345 207.383 277.1 207.138 276.796 207.138C276.493 207.138 276.248 207.383 276.248 207.686V215.038C276.248 215.341 276.493 215.586 276.796 215.586C277.1 215.586 277.345 215.341 277.345 215.038V212.716C277.707 213.136 278.232 213.463 279.025 213.463C280.484 213.463 281.569 212.167 281.569 210.277C281.569 208.352 280.425 207.08 278.955 207.08ZM278.908 212.529C278.022 212.529 277.333 211.689 277.333 210.277C277.333 208.877 278.022 208.013 278.908 208.013C279.819 208.013 280.484 208.877 280.484 210.277C280.484 211.689 279.819 212.529 278.908 212.529ZM285.361 212.424C285.361 211.841 284.894 211.374 284.311 211.374C283.739 211.374 283.272 211.841 283.272 212.424C283.272 212.996 283.739 213.463 284.311 213.463C284.894 213.463 285.361 212.996 285.361 212.424Z" fill="#888888"/>
<path d="M101.592 189.232C101.592 188.555 101.347 187.983 100.961 187.563C100.436 187.003 99.6429 186.688 98.8027 186.688H96.5155C96.2005 186.688 95.9438 186.957 95.9438 187.272V194.542C95.9438 194.868 96.2005 195.125 96.5272 195.125C96.854 195.125 97.1107 194.868 97.1107 194.542V191.753H98.8027C99.7712 191.753 100.506 191.426 100.973 190.912C101.382 190.457 101.592 189.886 101.592 189.232ZM100.471 189.209C100.471 189.594 100.39 189.967 100.133 190.247C99.8879 190.516 99.4678 190.702 98.7677 190.702H97.1107V187.738H98.7443C99.3978 187.738 99.8412 187.972 100.133 188.299C100.355 188.567 100.471 188.882 100.471 189.209ZM107.029 194.355V194.577C107.029 194.88 107.274 195.125 107.577 195.125C107.88 195.125 108.125 194.88 108.125 194.577V189.407C108.125 189.104 107.88 188.859 107.577 188.859C107.274 188.859 107.029 189.104 107.029 189.407V189.582C106.632 189.045 106.025 188.8 105.418 188.8C103.936 188.8 102.804 190.084 102.804 191.998C102.804 193.923 103.948 195.183 105.43 195.183C106.107 195.183 106.679 194.88 107.029 194.355ZM105.465 194.25C104.555 194.25 103.89 193.41 103.89 191.998C103.89 190.597 104.555 189.734 105.465 189.734C106.352 189.734 107.04 190.597 107.04 191.998C107.04 193.41 106.352 194.25 105.465 194.25ZM111.801 195.883C111.649 196.292 111.463 196.514 111.124 196.514C110.891 196.514 110.692 196.409 110.529 196.269C110.424 196.187 110.307 196.14 110.179 196.14C109.899 196.14 109.689 196.362 109.689 196.63C109.689 196.805 109.782 196.945 109.887 197.05C110.214 197.354 110.622 197.505 111.136 197.505C111.813 197.505 112.373 197.12 112.641 196.444L115.372 189.652C115.407 189.571 115.43 189.489 115.43 189.407C115.43 189.104 115.185 188.859 114.882 188.859C114.683 188.859 114.473 188.952 114.392 189.162L112.863 193.118C112.805 193.27 112.688 193.631 112.653 193.76H112.63C112.594 193.631 112.478 193.27 112.419 193.118L110.902 189.185C110.844 189.034 110.669 188.859 110.401 188.859C110.097 188.859 109.852 189.104 109.852 189.407C109.852 189.512 109.887 189.606 109.911 189.664L111.999 194.822C112.034 194.903 112.081 194.938 112.151 194.962L111.801 195.883ZM123.548 188.8C122.894 188.8 122.346 189.104 121.938 189.594V187.237C121.938 186.933 121.693 186.688 121.389 186.688C121.086 186.688 120.841 186.933 120.841 187.237V194.577C120.841 194.88 121.086 195.125 121.389 195.125C121.693 195.125 121.938 194.88 121.938 194.577V194.437C122.299 194.857 122.824 195.183 123.618 195.183C125.077 195.183 126.162 193.888 126.162 191.998C126.162 190.072 125.018 188.8 123.548 188.8ZM123.501 194.25C122.614 194.25 121.926 193.41 121.926 191.998C121.926 190.597 122.614 189.734 123.501 189.734C124.411 189.734 125.077 190.597 125.077 191.998C125.077 193.41 124.411 194.25 123.501 194.25ZM129.373 195.883C129.221 196.292 129.035 196.514 128.696 196.514C128.463 196.514 128.264 196.409 128.101 196.269C127.996 196.187 127.879 196.14 127.751 196.14C127.471 196.14 127.261 196.362 127.261 196.63C127.261 196.805 127.354 196.945 127.459 197.05C127.786 197.354 128.194 197.505 128.708 197.505C129.385 197.505 129.945 197.12 130.213 196.444L132.944 189.652C132.979 189.571 133.002 189.489 133.002 189.407C133.002 189.104 132.757 188.859 132.454 188.859C132.255 188.859 132.045 188.952 131.964 189.162L130.435 193.118C130.377 193.27 130.26 193.631 130.225 193.76H130.202C130.167 193.631 130.05 193.27 129.992 193.118L128.475 189.185C128.416 189.034 128.241 188.859 127.973 188.859C127.669 188.859 127.424 189.104 127.424 189.407C127.424 189.512 127.459 189.606 127.483 189.664L129.571 194.822C129.606 194.903 129.653 194.938 129.723 194.962L129.373 195.883ZM144.609 192.593C144.609 191.601 144.049 190.854 143.302 190.539C143.792 190.189 144.212 189.676 144.212 188.905C144.212 188.229 143.956 187.68 143.536 187.295C143.104 186.887 142.497 186.688 141.587 186.688H139.101C138.775 186.688 138.518 186.945 138.518 187.272V194.542C138.518 194.857 138.775 195.125 139.09 195.125H141.703C143.571 195.125 144.609 194.016 144.609 192.593ZM143.057 188.929C143.057 189.606 142.719 190.107 141.703 190.107H139.685V187.738H141.552C142.567 187.738 143.057 188.194 143.057 188.929ZM143.407 192.604C143.407 193.48 142.789 194.075 141.727 194.075H139.685V191.134H141.773C142.882 191.134 143.407 191.694 143.407 192.604ZM150.457 194.355V194.577C150.457 194.88 150.702 195.125 151.006 195.125C151.309 195.125 151.554 194.88 151.554 194.577V189.407C151.554 189.104 151.309 188.859 151.006 188.859C150.702 188.859 150.457 189.104 150.457 189.407V189.582C150.061 189.045 149.454 188.8 148.847 188.8C147.365 188.8 146.233 190.084 146.233 191.998C146.233 193.923 147.377 195.183 148.859 195.183C149.535 195.183 150.107 194.88 150.457 194.355ZM148.894 194.25C147.983 194.25 147.318 193.41 147.318 191.998C147.318 190.597 147.983 189.734 148.894 189.734C149.781 189.734 150.469 190.597 150.469 191.998C150.469 193.41 149.781 194.25 148.894 194.25ZM154.985 189.407C154.985 189.104 154.74 188.859 154.436 188.859C154.133 188.859 153.888 189.104 153.888 189.407V194.577C153.888 194.88 154.133 195.125 154.436 195.125C154.74 195.125 154.985 194.88 154.985 194.577V191.391C154.985 191.099 155.043 190.761 155.206 190.504C155.486 190.037 156.047 189.792 156.548 189.792C157.108 189.792 157.482 190.061 157.622 190.457C157.692 190.656 157.715 191.006 157.715 191.286V194.577C157.715 194.88 157.96 195.125 158.264 195.125C158.567 195.125 158.812 194.88 158.812 194.577V191.228C158.812 190.679 158.765 190.142 158.509 189.711C158.124 189.057 157.412 188.8 156.758 188.8C156 188.8 155.358 189.115 154.985 189.547V189.407ZM165.617 189.851C165.746 189.734 165.839 189.571 165.839 189.395C165.839 189.092 165.582 188.859 165.302 188.859C165.151 188.859 165.011 188.929 164.906 189.034L162.198 191.741V187.237C162.198 186.933 161.953 186.688 161.65 186.688C161.347 186.688 161.101 186.933 161.101 187.237V194.577C161.101 194.88 161.347 195.125 161.65 195.125C161.953 195.125 162.198 194.88 162.198 194.577V193.13L163.015 192.348L165.046 194.938C165.174 195.102 165.337 195.148 165.466 195.148C165.757 195.148 166.002 194.903 166.002 194.612C166.002 194.46 165.932 194.332 165.839 194.215L163.75 191.648L165.617 189.851ZM176.034 187.636C176.034 186.826 175.373 186.165 174.546 186.165C173.736 186.165 173.075 186.826 173.075 187.636C173.075 188.463 173.736 189.124 174.546 189.124C175.373 189.124 176.034 188.463 176.034 187.636ZM176.034 193.736C176.034 192.91 175.373 192.249 174.546 192.249C173.736 192.249 173.075 192.91 173.075 193.736C173.075 194.546 173.736 195.208 174.546 195.208C175.373 195.208 176.034 194.546 176.034 193.736Z" fill="#353535"/>
<path d="M94.5217 239.049V246.496H95.8532V244.035H97.4687C98.9757 244.035 100.029 243.028 100.029 241.557C100.029 240.06 99.0118 239.049 97.5254 239.049H94.5217ZM95.8532 240.138H97.1745C98.1344 240.138 98.6764 240.633 98.6764 241.557C98.6764 242.455 98.119 242.961 97.1693 242.961H95.8532V240.138ZM102.457 246.589C103.195 246.589 103.815 246.269 104.13 245.722H104.217V246.496H105.451V242.641C105.451 241.449 104.635 240.747 103.185 240.747C101.843 240.747 100.909 241.377 100.806 242.362H102.014C102.132 241.975 102.535 241.764 103.123 241.764C103.815 241.764 104.186 242.078 104.186 242.641V243.126L102.731 243.214C101.358 243.291 100.589 243.885 100.589 244.896C100.589 245.929 101.368 246.589 102.457 246.589ZM102.834 245.603C102.266 245.603 101.859 245.32 101.859 244.834C101.859 244.365 102.194 244.102 102.912 244.055L104.186 243.967V244.427C104.186 245.098 103.608 245.603 102.834 245.603ZM107.183 248.54C108.447 248.54 109.051 248.081 109.531 246.692L111.57 240.855H110.218L108.902 245.283H108.814L107.493 240.855H106.089L108.107 246.517L108.04 246.78C107.874 247.312 107.57 247.518 107.028 247.518C106.94 247.518 106.749 247.513 106.677 247.503V248.519C106.76 248.535 107.105 248.54 107.183 248.54ZM122.807 246.496V239.049H121.248L119.008 244.576H118.915L116.675 239.049H115.117V246.496H116.355V241.217H116.427L118.487 246.264H119.436L121.496 241.217H121.568V246.496H122.807ZM127.935 244.953C127.749 245.376 127.31 245.614 126.675 245.614C125.834 245.614 125.292 245.015 125.261 244.06V243.993H129.204V243.585C129.204 241.815 128.239 240.747 126.629 240.747C124.993 240.747 123.976 241.888 123.976 243.699C123.976 245.505 124.977 246.61 126.639 246.61C127.971 246.61 128.915 245.97 129.147 244.953H127.935ZM126.624 241.743C127.393 241.743 127.898 242.285 127.924 243.142H125.266C125.323 242.295 125.86 241.743 126.624 241.743ZM130.234 246.496H131.514V243.219C131.514 242.424 132.092 241.908 132.923 241.908C133.14 241.908 133.481 241.944 133.579 241.98V240.814C133.46 240.783 133.233 240.762 133.047 240.762C132.319 240.762 131.71 241.175 131.556 241.733H131.468V240.855H130.234V246.496ZM139.109 242.739C138.975 241.573 138.098 240.747 136.648 240.747C134.95 240.747 133.953 241.836 133.953 243.663C133.953 245.511 134.955 246.61 136.653 246.61C138.082 246.61 138.97 245.815 139.109 244.649H137.891C137.757 245.242 137.313 245.557 136.648 245.557C135.775 245.557 135.249 244.86 135.249 243.663C135.249 242.486 135.77 241.795 136.648 241.795C137.349 241.795 137.773 242.192 137.891 242.739H139.109ZM140.129 246.496H141.409V243.219C141.409 242.393 141.879 241.841 142.72 241.841C143.463 241.841 143.856 242.285 143.856 243.157V246.496H145.135V242.858C145.135 241.516 144.403 240.752 143.195 240.752C142.354 240.752 141.75 241.134 141.481 241.769H141.389V238.672H140.129V246.496ZM147.951 246.589C148.689 246.589 149.309 246.269 149.624 245.722H149.711V246.496H150.945V242.641C150.945 241.449 150.129 240.747 148.679 240.747C147.337 240.747 146.403 241.377 146.3 242.362H147.508C147.626 241.975 148.029 241.764 148.617 241.764C149.309 241.764 149.68 242.078 149.68 242.641V243.126L148.225 243.214C146.852 243.291 146.083 243.885 146.083 244.896C146.083 245.929 146.862 246.589 147.951 246.589ZM148.328 245.603C147.76 245.603 147.353 245.32 147.353 244.834C147.353 244.365 147.688 244.102 148.406 244.055L149.68 243.967V244.427C149.68 245.098 149.102 245.603 148.328 245.603ZM152.233 246.496H153.513V243.209C153.513 242.362 153.993 241.831 154.757 241.831C155.536 241.831 155.897 242.269 155.897 243.147V246.496H157.177V242.847C157.177 241.506 156.491 240.747 155.232 240.747C154.39 240.747 153.823 241.129 153.554 241.758H153.467V240.855H152.233V246.496ZM158.847 239.472V240.891H157.955V241.888H158.847V245C158.847 246.089 159.364 246.522 160.659 246.522C160.907 246.522 161.144 246.501 161.33 246.465V245.485C161.175 245.5 161.077 245.511 160.896 245.511C160.36 245.511 160.122 245.258 160.122 244.695V241.888H161.33V240.891H160.122V239.472H158.847ZM168.159 246.682C169.878 246.682 171.137 245.665 171.313 244.158H170.002C169.821 244.994 169.104 245.526 168.159 245.526C166.89 245.526 166.1 244.468 166.1 242.77C166.1 241.077 166.89 240.019 168.154 240.019C169.093 240.019 169.811 240.602 169.996 241.5H171.307C171.153 239.957 169.847 238.863 168.154 238.863C166.043 238.863 164.737 240.355 164.737 242.775C164.737 245.185 166.048 246.682 168.159 246.682ZM174.841 246.61C176.528 246.61 177.555 245.505 177.555 243.673C177.555 241.851 176.523 240.747 174.841 240.747C173.163 240.747 172.126 241.857 172.126 243.673C172.126 245.505 173.148 246.61 174.841 246.61ZM174.841 245.562C173.948 245.562 173.437 244.871 173.437 243.678C173.437 242.486 173.948 241.795 174.841 241.795C175.728 241.795 176.239 242.486 176.239 243.678C176.239 244.871 175.734 245.562 174.841 245.562Z" fill="black"/>
<path d="M97.2054 259.278C98.6144 259.278 99.5382 258.138 99.5382 256.398C99.5382 254.649 98.6196 253.518 97.2054 253.518C96.4416 253.518 95.7655 253.895 95.461 254.494H95.3784V251.407H94.4907V259.18H95.3371V258.292H95.4197C95.7707 258.912 96.4313 259.278 97.2054 259.278ZM96.999 254.318C98.0157 254.318 98.6196 255.098 98.6196 256.398C98.6196 257.699 98.0157 258.478 96.999 258.478C95.9874 258.478 95.3578 257.683 95.3578 256.398C95.3578 255.113 95.9874 254.318 96.999 254.318ZM102.225 259.278C102.968 259.278 103.577 258.953 103.939 258.359H104.021V259.18H104.868V255.371C104.868 254.215 104.109 253.518 102.752 253.518C101.565 253.518 100.687 254.107 100.568 255H101.466C101.59 254.561 102.055 254.308 102.721 254.308C103.552 254.308 103.98 254.685 103.98 255.371V255.877L102.375 255.975C101.079 256.052 100.347 256.625 100.347 257.621C100.347 258.638 101.146 259.278 102.225 259.278ZM102.39 258.499C101.745 258.499 101.265 258.168 101.265 257.601C101.265 257.043 101.637 256.749 102.483 256.692L103.98 256.594V257.105C103.98 257.9 103.304 258.499 102.39 258.499ZM106.254 259.18H107.142V255.887C107.142 254.912 107.714 254.318 108.602 254.318C109.49 254.318 109.913 254.793 109.913 255.794V259.18H110.801V255.578C110.801 254.256 110.104 253.518 108.855 253.518C108.003 253.518 107.462 253.88 107.183 254.494H107.1V253.616H106.254V259.18ZM113.193 256.047H113.111V251.407H112.223V259.18H113.111V257.069L113.643 256.574L115.728 259.18H116.858L114.303 256.001L116.698 253.616H115.609L113.193 256.047ZM121.083 257.74C120.85 258.23 120.365 258.494 119.648 258.494C118.703 258.494 118.089 257.797 118.043 256.698V256.656H122.043V256.316C122.043 254.587 121.129 253.518 119.627 253.518C118.1 253.518 117.119 254.654 117.119 256.403C117.119 258.163 118.084 259.278 119.627 259.278C120.845 259.278 121.712 258.69 121.97 257.74H121.083ZM119.617 254.303C120.5 254.303 121.088 254.953 121.109 255.939H118.043C118.11 254.953 118.729 254.303 119.617 254.303ZM125.241 259.278C126.01 259.278 126.67 258.912 127.021 258.292H127.104V259.18H127.95V251.407H127.062V254.494H126.985C126.67 253.885 126.015 253.518 125.241 253.518C123.826 253.518 122.903 254.654 122.903 256.398C122.903 258.148 123.816 259.278 125.241 259.278ZM125.447 254.318C126.453 254.318 127.083 255.123 127.083 256.398C127.083 257.683 126.459 258.478 125.447 258.478C124.43 258.478 123.821 257.699 123.821 256.398C123.821 255.103 124.435 254.318 125.447 254.318ZM130.152 259.232C130.523 259.232 130.823 258.927 130.823 258.561C130.823 258.189 130.523 257.89 130.152 257.89C129.785 257.89 129.481 258.189 129.481 258.561C129.481 258.927 129.785 259.232 130.152 259.232ZM136.699 255.32C136.544 254.329 135.719 253.518 134.366 253.518C132.808 253.518 131.817 254.643 131.817 256.378C131.817 258.148 132.813 259.278 134.372 259.278C135.708 259.278 136.539 258.525 136.699 257.503H135.801C135.636 258.132 135.115 258.478 134.366 258.478C133.375 258.478 132.735 257.663 132.735 256.378C132.735 255.118 133.365 254.318 134.366 254.318C135.166 254.318 135.657 254.767 135.801 255.32H136.699ZM137.807 259.18H138.694V255.887C138.694 254.948 139.242 254.318 140.238 254.318C141.079 254.318 141.523 254.809 141.523 255.794V259.18H142.41V255.578C142.41 254.272 141.667 253.518 140.491 253.518C139.639 253.518 139.056 253.88 138.777 254.494H138.694V251.407H137.807V259.18ZM147.461 257.74C147.229 258.23 146.744 258.494 146.026 258.494C145.082 258.494 144.468 257.797 144.421 256.698V256.656H148.421V256.316C148.421 254.587 147.508 253.518 146.006 253.518C144.478 253.518 143.497 254.654 143.497 256.403C143.497 258.163 144.463 259.278 146.006 259.278C147.224 259.278 148.091 258.69 148.349 257.74H147.461ZM145.995 254.303C146.878 254.303 147.466 254.953 147.487 255.939H144.421C144.488 254.953 145.108 254.303 145.995 254.303ZM154.163 255.32C154.008 254.329 153.183 253.518 151.83 253.518C150.272 253.518 149.281 254.643 149.281 256.378C149.281 258.148 150.277 259.278 151.836 259.278C153.172 259.278 154.003 258.525 154.163 257.503H153.265C153.1 258.132 152.579 258.478 151.83 258.478C150.84 258.478 150.2 257.663 150.2 256.378C150.2 255.118 150.829 254.318 151.83 254.318C152.63 254.318 153.121 254.767 153.265 255.32H154.163ZM156.241 256.047H156.159V251.407H155.271V259.18H156.159V257.069L156.69 256.574L158.775 259.18H159.906L157.351 256.001L159.746 253.616H158.657L156.241 256.047ZM162.732 259.278C164.316 259.278 165.297 258.184 165.297 256.398C165.297 254.607 164.316 253.518 162.732 253.518C161.147 253.518 160.167 254.607 160.167 256.398C160.167 258.184 161.147 259.278 162.732 259.278ZM162.732 258.478C161.679 258.478 161.085 257.714 161.085 256.398C161.085 255.077 161.679 254.318 162.732 254.318C163.785 254.318 164.378 255.077 164.378 256.398C164.378 257.714 163.785 258.478 162.732 258.478ZM170.936 253.616H170.048V256.909C170.048 257.885 169.511 258.468 168.531 258.468C167.643 258.468 167.271 258.003 167.271 257.002V253.616H166.384V257.219C166.384 258.535 167.034 259.278 168.283 259.278C169.135 259.278 169.728 258.927 170.007 258.308H170.089V259.18H170.936V253.616ZM172.725 252.176V253.616H171.827V254.36H172.725V257.735C172.725 258.798 173.184 259.221 174.33 259.221C174.505 259.221 174.676 259.201 174.851 259.17V258.421C174.686 258.437 174.598 258.442 174.438 258.442C173.86 258.442 173.612 258.163 173.612 257.508V254.36H174.851V253.616H173.612V252.176H172.725ZM176.671 259.232C177.042 259.232 177.342 258.927 177.342 258.561C177.342 258.189 177.042 257.89 176.671 257.89C176.304 257.89 176 258.189 176 258.561C176 258.927 176.304 259.232 176.671 259.232ZM183.218 255.32C183.063 254.329 182.238 253.518 180.885 253.518C179.327 253.518 178.336 254.643 178.336 256.378C178.336 258.148 179.332 259.278 180.891 259.278C182.227 259.278 183.058 258.525 183.218 257.503H182.32C182.155 258.132 181.634 258.478 180.885 258.478C179.894 258.478 179.255 257.663 179.255 256.378C179.255 255.118 179.884 254.318 180.885 254.318C181.685 254.318 182.176 254.767 182.32 255.32H183.218ZM186.561 259.278C188.145 259.278 189.126 258.184 189.126 256.398C189.126 254.607 188.145 253.518 186.561 253.518C184.976 253.518 183.995 254.607 183.995 256.398C183.995 258.184 184.976 259.278 186.561 259.278ZM186.561 258.478C185.508 258.478 184.914 257.714 184.914 256.398C184.914 255.077 185.508 254.318 186.561 254.318C187.613 254.318 188.207 255.077 188.207 256.398C188.207 257.714 187.613 258.478 186.561 258.478ZM190.264 259.18H191.152V255.732C191.152 254.948 191.714 254.318 192.442 254.318C193.144 254.318 193.603 254.742 193.603 255.402V259.18H194.491V255.603C194.491 254.896 195.007 254.318 195.781 254.318C196.566 254.318 196.953 254.721 196.953 255.542V259.18H197.841V255.335C197.841 254.169 197.206 253.518 196.07 253.518C195.301 253.518 194.667 253.905 194.367 254.494H194.285C194.027 253.916 193.5 253.518 192.747 253.518C192.003 253.518 191.446 253.874 191.193 254.494H191.111V253.616H190.264V259.18ZM199.165 260.764L201.849 251.407H201.095L198.411 260.764H199.165ZM202.342 255.139C202.342 255.944 202.817 256.393 203.86 256.646L204.814 256.878C205.408 257.023 205.697 257.281 205.697 257.663C205.697 258.174 205.16 258.53 204.412 258.53C203.7 258.53 203.256 258.23 203.106 257.761H202.192C202.291 258.685 203.142 259.278 204.381 259.278C205.645 259.278 206.61 258.592 206.61 257.596C206.61 256.796 206.105 256.341 205.057 256.089L204.2 255.882C203.545 255.722 203.235 255.485 203.235 255.103C203.235 254.607 203.751 254.272 204.412 254.272C205.083 254.272 205.516 254.566 205.635 255.01H206.512C206.394 254.096 205.583 253.518 204.417 253.518C203.235 253.518 202.342 254.215 202.342 255.139ZM210.288 259.356C211.867 259.356 212.972 258.463 212.972 257.188C212.972 256.218 212.358 255.464 211.424 255.289V255.206C212.193 254.994 212.667 254.36 212.667 253.544C212.667 252.383 211.682 251.557 210.288 251.557C208.895 251.557 207.909 252.383 207.909 253.544C207.909 254.354 208.394 255 209.153 255.206V255.289C208.219 255.464 207.604 256.218 207.604 257.188C207.604 258.463 208.709 259.356 210.288 259.356ZM210.288 254.896C209.411 254.896 208.822 254.391 208.822 253.632C208.822 252.863 209.406 252.352 210.288 252.352C211.171 252.352 211.754 252.863 211.754 253.632C211.754 254.391 211.166 254.896 210.288 254.896ZM210.288 258.561C209.256 258.561 208.544 257.972 208.544 257.121C208.544 256.269 209.256 255.681 210.288 255.681C211.32 255.681 212.033 256.269 212.033 257.121C212.033 257.972 211.32 258.561 210.288 258.561ZM221.243 253.616H220.35L219.256 258.065H219.173L217.93 253.616H217.078L215.834 258.065H215.752L214.658 253.616H213.76L215.318 259.18H216.216L217.455 254.876H217.537L218.781 259.18H219.684L221.243 253.616ZM224.549 259.35C226.371 259.35 227.414 257.885 227.414 255.325C227.414 252.791 226.216 251.557 224.611 251.557C223.084 251.557 222 252.626 222 254.122C222 255.567 223.027 256.615 224.446 256.615C225.334 256.615 226.061 256.192 226.428 255.469H226.51C226.459 257.451 225.772 258.525 224.56 258.525C223.827 258.525 223.259 258.117 223.063 257.446H222.108C222.34 258.617 223.285 259.35 224.549 259.35ZM224.611 255.81C223.625 255.81 222.939 255.108 222.939 254.091C222.939 253.116 223.667 252.373 224.622 252.373C225.576 252.373 226.304 253.126 226.304 254.122C226.304 255.108 225.597 255.81 224.611 255.81ZM228.712 259.18H229.6V255.887C229.6 254.948 230.147 254.318 231.143 254.318C231.984 254.318 232.428 254.809 232.428 255.794V259.18H233.316V255.578C233.316 254.272 232.573 253.518 231.396 253.518C230.544 253.518 229.961 253.88 229.683 254.494H229.6V251.407H228.712V259.18ZM241.422 253.616H240.529L239.435 258.065H239.352L238.108 253.616H237.257L236.013 258.065H235.931L234.836 253.616H233.938L235.497 259.18H236.395L237.634 254.876H237.716L238.96 259.18H239.863L241.422 253.616ZM242.726 259.18H243.613V254.36H244.888V253.616H243.613V253.023C243.613 252.414 243.882 252.104 244.522 252.104C244.682 252.104 244.831 252.109 244.94 252.13V251.407C244.754 251.371 244.558 251.356 244.341 251.356C243.283 251.356 242.726 251.887 242.726 252.997V253.616H241.802V254.36H242.726V259.18ZM247.983 261.317C249.5 261.317 250.46 260.522 250.46 259.278V253.616H249.614V254.499H249.531C249.211 253.9 248.525 253.518 247.745 253.518C246.316 253.518 245.412 254.649 245.412 256.316C245.412 257.983 246.305 259.097 247.745 259.097C248.509 259.097 249.139 258.752 249.49 258.138H249.572V259.232C249.572 260.052 248.979 260.543 247.983 260.543C247.183 260.543 246.687 260.248 246.589 259.794H245.65C245.784 260.713 246.641 261.317 247.983 261.317ZM247.941 258.313C246.909 258.313 246.331 257.529 246.331 256.316C246.331 255.103 246.909 254.318 247.941 254.318C248.968 254.318 249.593 255.103 249.593 256.316C249.593 257.529 248.974 258.313 247.941 258.313ZM251.748 255.139C251.748 255.944 252.223 256.393 253.266 256.646L254.22 256.878C254.814 257.023 255.103 257.281 255.103 257.663C255.103 258.174 254.566 258.53 253.818 258.53C253.106 258.53 252.662 258.23 252.512 257.761H251.599C251.697 258.685 252.548 259.278 253.787 259.278C255.051 259.278 256.016 258.592 256.016 257.596C256.016 256.796 255.511 256.341 254.463 256.089L253.606 255.882C252.951 255.722 252.641 255.485 252.641 255.103C252.641 254.607 253.157 254.272 253.818 254.272C254.489 254.272 254.922 254.566 255.041 255.01H255.918C255.8 254.096 254.989 253.518 253.823 253.518C252.641 253.518 251.748 254.215 251.748 255.139ZM259.653 259.356C261.325 259.356 262.285 257.941 262.285 255.469C262.285 253.002 261.31 251.557 259.653 251.557C257.986 251.557 257.011 252.997 257.011 255.454C257.011 257.931 257.976 259.356 259.653 259.356ZM259.653 258.545C258.554 258.545 257.945 257.446 257.945 255.454C257.945 253.487 258.564 252.373 259.653 252.373C260.742 252.373 261.351 253.477 261.351 255.454C261.351 257.451 260.752 258.545 259.653 258.545Z" fill="#8F9095"/>
</svg>
