<svg width="384" height="384" viewBox="0 0 384 384" fill="none" xmlns="http://www.w3.org/2000/svg">
<g filter="url(#filter0_d)">
<rect x="122" y="88" width="140" height="180" rx="4" fill="white"/>
</g>
<path d="M141.459 289.6C141.435 287.932 140.223 287.416 138.987 287.056L137.955 286.756C137.127 286.516 136.659 286.216 136.659 285.52C136.659 284.596 137.655 284.248 138.399 284.248C139.059 284.248 139.623 284.488 140.103 284.884C140.259 285.016 140.439 285.1 140.619 285.1C140.919 285.1 141.123 284.908 141.123 284.596C141.123 284.452 141.063 284.32 140.943 284.188C140.463 283.672 139.647 283.204 138.411 283.204C136.623 283.204 135.507 284.236 135.507 285.532C135.507 286.864 136.239 287.416 137.631 287.824L138.735 288.148C139.683 288.424 140.283 288.808 140.283 289.648C140.283 290.572 139.527 291.064 138.519 291.064C137.727 291.064 137.019 290.812 136.455 290.104C136.311 289.924 136.143 289.816 135.927 289.816C135.615 289.816 135.375 290.056 135.375 290.356C135.375 290.5 135.423 290.644 135.543 290.812C136.203 291.676 137.319 292.132 138.495 292.132C140.271 292.132 141.459 291.1 141.459 289.6ZM148.25 288.604C148.25 286.588 147.134 285.496 145.718 285.496C144.29 285.496 142.994 286.672 142.994 288.784C142.994 290.812 144.17 292.06 145.718 292.06C146.75 292.06 147.446 291.604 147.842 291.004C147.902 290.908 147.974 290.776 147.974 290.632C147.974 290.344 147.794 290.128 147.506 290.128C147.314 290.128 147.17 290.224 147.05 290.392C146.714 290.86 146.318 291.1 145.694 291.1C144.794 291.1 144.194 290.308 144.11 289.192H147.71C148.01 289.192 148.25 289.012 148.25 288.604ZM147.146 288.232H144.134C144.218 287.14 144.854 286.456 145.718 286.456C146.57 286.456 147.11 287.14 147.146 288.232ZM152.573 286.492C153.185 286.492 153.581 286.804 153.869 287.284C154.013 287.524 154.157 287.668 154.397 287.668C154.685 287.668 154.889 287.452 154.889 287.2C154.889 287.02 154.829 286.888 154.781 286.792C154.361 286 153.605 285.496 152.585 285.496C151.049 285.496 149.861 286.792 149.861 288.784C149.861 290.776 151.049 292.06 152.597 292.06C153.641 292.06 154.469 291.46 154.793 290.8C154.841 290.692 154.901 290.536 154.901 290.416C154.901 290.128 154.685 289.888 154.397 289.888C154.217 289.888 154.025 289.972 153.893 290.248C153.653 290.764 153.197 291.064 152.597 291.064C151.661 291.064 150.977 290.236 150.977 288.784C150.977 287.716 151.433 286.492 152.573 286.492ZM160.73 291.436C160.73 291.748 160.982 292 161.294 292C161.606 292 161.858 291.748 161.858 291.436V286.12C161.858 285.808 161.606 285.556 161.294 285.556C160.982 285.556 160.73 285.808 160.73 286.12V289.396C160.73 289.696 160.67 290.044 160.502 290.308C160.214 290.788 159.638 291.04 159.122 291.04C158.546 291.04 158.162 290.764 158.018 290.356C157.946 290.152 157.922 289.792 157.922 289.504V286.12C157.922 285.808 157.67 285.556 157.358 285.556C157.046 285.556 156.794 285.808 156.794 286.12V289.564C156.794 290.128 156.842 290.68 157.106 291.124C157.502 291.796 158.234 292.06 158.906 292.06C159.686 292.06 160.346 291.736 160.73 291.292V291.436ZM168.917 286.6C168.917 286.456 168.869 286.324 168.761 286.204C168.353 285.748 167.789 285.496 167.105 285.496C166.373 285.496 165.773 285.784 165.389 286.288V286.12C165.389 285.808 165.137 285.556 164.825 285.556C164.513 285.556 164.261 285.808 164.261 286.12V291.436C164.261 291.748 164.513 292 164.825 292C165.137 292 165.389 291.748 165.389 291.436V288.604C165.389 287.848 165.473 287.416 165.713 287.092C165.965 286.756 166.325 286.504 166.913 286.504C167.381 286.504 167.633 286.612 168.005 286.912C168.137 287.02 168.257 287.104 168.437 287.104C168.737 287.104 168.917 286.852 168.917 286.6ZM175.18 288.604C175.18 286.588 174.064 285.496 172.648 285.496C171.22 285.496 169.924 286.672 169.924 288.784C169.924 290.812 171.1 292.06 172.648 292.06C173.68 292.06 174.376 291.604 174.772 291.004C174.832 290.908 174.904 290.776 174.904 290.632C174.904 290.344 174.724 290.128 174.436 290.128C174.244 290.128 174.1 290.224 173.98 290.392C173.644 290.86 173.248 291.1 172.624 291.1C171.724 291.1 171.124 290.308 171.04 289.192H174.64C174.94 289.192 175.18 289.012 175.18 288.604ZM174.076 288.232H171.064C171.148 287.14 171.784 286.456 172.648 286.456C173.5 286.456 174.04 287.14 174.076 288.232ZM178.291 283.888C178.291 283.576 178.039 283.324 177.727 283.324C177.415 283.324 177.163 283.576 177.163 283.888V291.436C177.163 291.748 177.415 292 177.727 292C178.039 292 178.291 291.748 178.291 291.436V283.888ZM182.082 292.78C181.926 293.2 181.734 293.428 181.386 293.428C181.146 293.428 180.942 293.32 180.774 293.176C180.666 293.092 180.546 293.044 180.414 293.044C180.126 293.044 179.91 293.272 179.91 293.548C179.91 293.728 180.006 293.872 180.114 293.98C180.45 294.292 180.87 294.448 181.398 294.448C182.094 294.448 182.67 294.052 182.946 293.356L185.754 286.372C185.79 286.288 185.814 286.204 185.814 286.12C185.814 285.808 185.562 285.556 185.25 285.556C185.046 285.556 184.83 285.652 184.746 285.868L183.174 289.936C183.114 290.092 182.994 290.464 182.958 290.596H182.934C182.898 290.464 182.778 290.092 182.718 289.936L181.158 285.892C181.098 285.736 180.918 285.556 180.642 285.556C180.33 285.556 180.078 285.808 180.078 286.12C180.078 286.228 180.114 286.324 180.138 286.384L182.286 291.688C182.322 291.772 182.37 291.808 182.442 291.832L182.082 292.78ZM195.26 284.116C195.26 283.888 195.2 283.792 195.056 283.6C194.78 283.252 194.276 282.988 193.676 282.988C192.572 282.988 191.792 283.9 191.792 285.124V285.556H190.82C190.544 285.556 190.316 285.784 190.316 286.072C190.316 286.348 190.544 286.576 190.832 286.576H191.792V291.436C191.792 291.748 192.044 292 192.356 292C192.668 292 192.92 291.748 192.92 291.436V286.576H194.24C194.516 286.576 194.744 286.348 194.744 286.06C194.744 285.784 194.516 285.556 194.228 285.556H192.92V285.148C192.92 284.704 192.992 284.464 193.136 284.272C193.268 284.092 193.448 284.008 193.676 284.008C193.94 284.008 194.096 284.104 194.312 284.344C194.42 284.464 194.564 284.584 194.816 284.584C195.056 284.584 195.26 284.356 195.26 284.116ZM200.991 286.6C200.991 286.456 200.943 286.324 200.835 286.204C200.427 285.748 199.863 285.496 199.179 285.496C198.447 285.496 197.847 285.784 197.463 286.288V286.12C197.463 285.808 197.211 285.556 196.899 285.556C196.587 285.556 196.335 285.808 196.335 286.12V291.436C196.335 291.748 196.587 292 196.899 292C197.211 292 197.463 291.748 197.463 291.436V288.604C197.463 287.848 197.547 287.416 197.787 287.092C198.039 286.756 198.399 286.504 198.987 286.504C199.455 286.504 199.707 286.612 200.079 286.912C200.211 287.02 200.331 287.104 200.511 287.104C200.811 287.104 200.991 286.852 200.991 286.6ZM204.722 285.496C203.186 285.496 201.986 286.792 201.986 288.784C201.986 290.776 203.174 292.06 204.722 292.06C206.27 292.06 207.458 290.776 207.458 288.784C207.458 286.792 206.258 285.496 204.722 285.496ZM204.722 291.1C203.786 291.1 203.102 290.236 203.102 288.784C203.102 287.344 203.786 286.456 204.722 286.456C205.658 286.456 206.342 287.344 206.342 288.784C206.342 290.236 205.658 291.1 204.722 291.1ZM217.283 288.016C217.283 287.38 217.211 286.876 217.043 286.504C216.779 285.928 216.239 285.496 215.423 285.496C214.583 285.496 214.055 285.892 213.719 286.54C213.503 285.952 212.927 285.496 212.111 285.496C211.439 285.496 210.923 285.784 210.623 286.252V286.12C210.623 285.808 210.371 285.556 210.059 285.556C209.747 285.556 209.495 285.808 209.495 286.12V291.436C209.495 291.748 209.747 292 210.059 292C210.371 292 210.623 291.748 210.623 291.436V287.956C210.623 287.68 210.671 287.344 210.791 287.14C211.007 286.756 211.427 286.516 211.895 286.516C212.339 286.516 212.627 286.828 212.723 287.14C212.795 287.38 212.819 287.704 212.819 288.16V291.436C212.819 291.748 213.071 292 213.383 292C213.695 292 213.947 291.748 213.947 291.436V288.064C213.947 287.764 214.007 287.392 214.115 287.188C214.331 286.792 214.715 286.516 215.219 286.516C215.675 286.516 215.963 286.828 216.071 287.188C216.143 287.428 216.155 287.98 216.155 288.136V291.436C216.155 291.748 216.407 292 216.719 292C217.031 292 217.283 291.748 217.283 291.436V288.016ZM224.82 292.78C224.664 293.2 224.472 293.428 224.124 293.428C223.884 293.428 223.68 293.32 223.512 293.176C223.404 293.092 223.284 293.044 223.152 293.044C222.864 293.044 222.648 293.272 222.648 293.548C222.648 293.728 222.744 293.872 222.852 293.98C223.188 294.292 223.608 294.448 224.136 294.448C224.832 294.448 225.408 294.052 225.684 293.356L228.492 286.372C228.528 286.288 228.552 286.204 228.552 286.12C228.552 285.808 228.3 285.556 227.988 285.556C227.784 285.556 227.568 285.652 227.484 285.868L225.912 289.936C225.852 290.092 225.732 290.464 225.696 290.596H225.672C225.636 290.464 225.516 290.092 225.456 289.936L223.896 285.892C223.836 285.736 223.656 285.556 223.38 285.556C223.068 285.556 222.816 285.808 222.816 286.12C222.816 286.228 222.852 286.324 222.876 286.384L225.024 291.688C225.06 291.772 225.108 291.808 225.18 291.832L224.82 292.78ZM232.555 285.496C231.019 285.496 229.819 286.792 229.819 288.784C229.819 290.776 231.007 292.06 232.555 292.06C234.103 292.06 235.291 290.776 235.291 288.784C235.291 286.792 234.091 285.496 232.555 285.496ZM232.555 291.1C231.619 291.1 230.935 290.236 230.935 288.784C230.935 287.344 231.619 286.456 232.555 286.456C233.491 286.456 234.175 287.344 234.175 288.784C234.175 290.236 233.491 291.1 232.555 291.1ZM241.203 291.436C241.203 291.748 241.455 292 241.767 292C242.079 292 242.331 291.748 242.331 291.436V286.12C242.331 285.808 242.079 285.556 241.767 285.556C241.455 285.556 241.203 285.808 241.203 286.12V289.396C241.203 289.696 241.143 290.044 240.975 290.308C240.687 290.788 240.111 291.04 239.595 291.04C239.019 291.04 238.635 290.764 238.491 290.356C238.419 290.152 238.395 289.792 238.395 289.504V286.12C238.395 285.808 238.143 285.556 237.831 285.556C237.519 285.556 237.267 285.808 237.267 286.12V289.564C237.267 290.128 237.315 290.68 237.579 291.124C237.975 291.796 238.707 292.06 239.379 292.06C240.159 292.06 240.819 291.736 241.203 291.292V291.436ZM249.389 286.6C249.389 286.456 249.341 286.324 249.233 286.204C248.825 285.748 248.261 285.496 247.577 285.496C246.845 285.496 246.245 285.784 245.861 286.288V286.12C245.861 285.808 245.609 285.556 245.297 285.556C244.985 285.556 244.733 285.808 244.733 286.12V291.436C244.733 291.748 244.985 292 245.297 292C245.609 292 245.861 291.748 245.861 291.436V288.604C245.861 287.848 245.945 287.416 246.185 287.092C246.437 286.756 246.797 286.504 247.385 286.504C247.853 286.504 248.105 286.612 248.477 286.912C248.609 287.02 248.729 287.104 248.909 287.104C249.209 287.104 249.389 286.852 249.389 286.6ZM156.785 305.496C156.113 305.496 155.549 305.808 155.129 306.312V303.888C155.129 303.576 154.877 303.324 154.565 303.324C154.253 303.324 154.001 303.576 154.001 303.888V311.436C154.001 311.748 154.253 312 154.565 312C154.877 312 155.129 311.748 155.129 311.436V311.292C155.501 311.724 156.041 312.06 156.857 312.06C158.357 312.06 159.473 310.728 159.473 308.784C159.473 306.804 158.297 305.496 156.785 305.496ZM156.737 311.1C155.825 311.1 155.117 310.236 155.117 308.784C155.117 307.344 155.825 306.456 156.737 306.456C157.673 306.456 158.357 307.344 158.357 308.784C158.357 310.236 157.673 311.1 156.737 311.1ZM165.497 311.208V311.436C165.497 311.748 165.749 312 166.061 312C166.372 312 166.625 311.748 166.625 311.436V306.12C166.625 305.808 166.372 305.556 166.061 305.556C165.749 305.556 165.497 305.808 165.497 306.12V306.3C165.089 305.748 164.465 305.496 163.84 305.496C162.317 305.496 161.153 306.816 161.153 308.784C161.153 310.764 162.329 312.06 163.853 312.06C164.549 312.06 165.137 311.748 165.497 311.208ZM163.889 311.1C162.953 311.1 162.269 310.236 162.269 308.784C162.269 307.344 162.953 306.456 163.889 306.456C164.801 306.456 165.509 307.344 165.509 308.784C165.509 310.236 164.801 311.1 163.889 311.1ZM170.152 306.12C170.152 305.808 169.9 305.556 169.588 305.556C169.276 305.556 169.024 305.808 169.024 306.12V311.436C169.024 311.748 169.276 312 169.588 312C169.9 312 170.152 311.748 170.152 311.436V308.16C170.152 307.86 170.212 307.512 170.38 307.248C170.668 306.768 171.244 306.516 171.76 306.516C172.336 306.516 172.72 306.792 172.864 307.2C172.936 307.404 172.96 307.764 172.96 308.052V311.436C172.96 311.748 173.212 312 173.524 312C173.836 312 174.088 311.748 174.088 311.436V307.992C174.088 307.428 174.04 306.876 173.776 306.432C173.38 305.76 172.648 305.496 171.976 305.496C171.196 305.496 170.536 305.82 170.152 306.264V306.12ZM181.086 306.576C181.218 306.456 181.314 306.288 181.314 306.108C181.314 305.796 181.05 305.556 180.762 305.556C180.606 305.556 180.462 305.628 180.354 305.736L177.57 308.52V303.888C177.57 303.576 177.318 303.324 177.006 303.324C176.694 303.324 176.442 303.576 176.442 303.888V311.436C176.442 311.748 176.694 312 177.006 312C177.318 312 177.57 311.748 177.57 311.436V309.948L178.41 309.144L180.498 311.808C180.63 311.976 180.798 312.024 180.93 312.024C181.23 312.024 181.482 311.772 181.482 311.472C181.482 311.316 181.41 311.184 181.314 311.064L179.166 308.424L181.086 306.576ZM184.473 306.12C184.473 305.808 184.221 305.556 183.909 305.556C183.597 305.556 183.345 305.808 183.345 306.12V311.436C183.345 311.748 183.597 312 183.909 312C184.221 312 184.473 311.748 184.473 311.436V306.12ZM184.773 303.552C184.773 303.084 184.377 302.688 183.909 302.688C183.441 302.688 183.045 303.084 183.045 303.552C183.045 304.02 183.441 304.416 183.909 304.416C184.377 304.416 184.773 304.02 184.773 303.552ZM188 306.12C188 305.808 187.748 305.556 187.436 305.556C187.124 305.556 186.872 305.808 186.872 306.12V311.436C186.872 311.748 187.124 312 187.436 312C187.748 312 188 311.748 188 311.436V308.16C188 307.86 188.06 307.512 188.228 307.248C188.516 306.768 189.092 306.516 189.608 306.516C190.184 306.516 190.568 306.792 190.712 307.2C190.784 307.404 190.808 307.764 190.808 308.052V311.436C190.808 311.748 191.06 312 191.372 312C191.684 312 191.936 311.748 191.936 311.436V307.992C191.936 307.428 191.888 306.876 191.624 306.432C191.228 305.76 190.496 305.496 189.824 305.496C189.044 305.496 188.384 305.82 188 306.264V306.12ZM198.262 311.688C198.262 312.252 198.154 312.756 197.866 313.044C197.566 313.344 197.122 313.464 196.606 313.464C196.066 313.464 195.682 313.26 195.25 312.948C195.154 312.876 195.022 312.828 194.902 312.828C194.602 312.828 194.386 313.044 194.386 313.344C194.386 313.608 194.554 313.752 194.686 313.848C195.178 314.22 195.874 314.448 196.606 314.448C197.53 314.448 198.082 314.244 198.538 313.848C199.138 313.332 199.39 312.66 199.39 311.688V306.12C199.39 305.808 199.138 305.556 198.826 305.556C198.514 305.556 198.262 305.808 198.262 306.12V306.312C197.854 305.748 197.23 305.496 196.606 305.496C195.082 305.496 193.918 306.816 193.918 308.784C193.918 310.764 195.094 312.06 196.618 312.06C197.29 312.06 197.878 311.772 198.262 311.268V311.688ZM196.654 311.1C195.718 311.1 195.034 310.236 195.034 308.784C195.034 307.344 195.718 306.456 196.654 306.456C197.566 306.456 198.274 307.344 198.274 308.784C198.274 310.236 197.566 311.1 196.654 311.1ZM209.864 311.208V311.436C209.864 311.748 210.116 312 210.428 312C210.74 312 210.992 311.748 210.992 311.436V306.12C210.992 305.808 210.74 305.556 210.428 305.556C210.116 305.556 209.864 305.808 209.864 306.12V306.3C209.456 305.748 208.832 305.496 208.208 305.496C206.684 305.496 205.52 306.816 205.52 308.784C205.52 310.764 206.696 312.06 208.22 312.06C208.916 312.06 209.504 311.748 209.864 311.208ZM208.256 311.1C207.32 311.1 206.636 310.236 206.636 308.784C206.636 307.344 207.32 306.456 208.256 306.456C209.168 306.456 209.876 307.344 209.876 308.784C209.876 310.236 209.168 311.1 208.256 311.1ZM216.187 305.496C215.515 305.496 214.951 305.808 214.531 306.312V306.12C214.531 305.808 214.279 305.556 213.967 305.556C213.655 305.556 213.403 305.808 213.403 306.12V313.68C213.403 313.992 213.655 314.244 213.967 314.244C214.279 314.244 214.531 313.992 214.531 313.68V311.292C214.903 311.724 215.443 312.06 216.259 312.06C217.759 312.06 218.875 310.728 218.875 308.784C218.875 306.804 217.699 305.496 216.187 305.496ZM216.139 311.1C215.227 311.1 214.519 310.236 214.519 308.784C214.519 307.344 215.227 306.456 216.139 306.456C217.075 306.456 217.759 307.344 217.759 308.784C217.759 310.236 217.075 311.1 216.139 311.1ZM223.711 305.496C223.039 305.496 222.475 305.808 222.055 306.312V306.12C222.055 305.808 221.803 305.556 221.491 305.556C221.179 305.556 220.927 305.808 220.927 306.12V313.68C220.927 313.992 221.179 314.244 221.491 314.244C221.803 314.244 222.055 313.992 222.055 313.68V311.292C222.427 311.724 222.967 312.06 223.783 312.06C225.283 312.06 226.399 310.728 226.399 308.784C226.399 306.804 225.223 305.496 223.711 305.496ZM223.663 311.1C222.751 311.1 222.043 310.236 222.043 308.784C222.043 307.344 222.751 306.456 223.663 306.456C224.599 306.456 225.283 307.344 225.283 308.784C225.283 310.236 224.599 311.1 223.663 311.1ZM230.298 310.992C230.298 310.392 229.818 309.912 229.218 309.912C228.63 309.912 228.15 310.392 228.15 310.992C228.15 311.58 228.63 312.06 229.218 312.06C229.818 312.06 230.298 311.58 230.298 310.992Z" fill="#888888"/>
<rect x="132" y="98" width="4.79998" height="4.79998" rx="2.39999" fill="#292929"/>
<rect x="132" y="102.8" width="4.79998" height="4.79998" rx="2.39999" fill="#292929"/>
<rect x="132" y="107.6" width="4.79998" height="4.79998" rx="2.39999" fill="#292929"/>
<rect x="132" y="112.4" width="4.79998" height="4.79998" rx="2.39999" fill="#292929"/>
<rect x="132" y="117.201" width="4.79998" height="4.79998" rx="2.39999" fill="#292929"/>
<rect x="132" y="122" width="4.79998" height="4.79998" rx="2.39999" fill="#292929"/>
<rect x="132" y="126.801" width="4.79998" height="4.79998" rx="2.39999" fill="#292929"/>
<rect x="132" y="136.4" width="4.79998" height="4.79998" rx="2.39999" fill="#292929"/>
<rect x="132" y="141.2" width="4.79998" height="4.79998" rx="2.39999" fill="#292929"/>
<rect x="132" y="160.4" width="4.79998" height="4.79998" rx="2.39999" fill="#292929"/>
<rect x="132" y="170" width="4.79998" height="4.79998" rx="2.39999" fill="#292929"/>
<rect x="132" y="184.4" width="4.79998" height="4.79998" rx="2.39999" fill="#292929"/>
<rect x="132" y="189.199" width="4.79998" height="4.79998" rx="2.39999" fill="#292929"/>
<rect x="132" y="193.999" width="4.79998" height="4.79998" rx="2.39999" fill="#292929"/>
<rect x="132" y="198.799" width="4.79998" height="4.79998" rx="2.39999" fill="#292929"/>
<rect x="132" y="203.6" width="4.79998" height="4.79998" rx="2.39999" fill="#292929"/>
<rect x="132" y="208.399" width="4.79998" height="4.79998" rx="2.39999" fill="#292929"/>
<rect x="132" y="213.2" width="4.79998" height="4.79998" rx="2.39999" fill="#292929"/>
<rect x="136.8" y="98" width="4.79998" height="4.79998" rx="2.39999" fill="#292929"/>
<rect x="136.8" y="126.801" width="4.79998" height="4.79998" rx="2.39999" fill="#292929"/>
<rect x="136.8" y="136.4" width="4.79998" height="4.79998" rx="2.39999" fill="#292929"/>
<rect x="136.8" y="141.2" width="4.79998" height="4.79998" rx="2.39999" fill="#292929"/>
<rect x="136.8" y="146" width="4.79998" height="4.79998" rx="2.39999" fill="#292929"/>
<rect x="136.8" y="150.799" width="4.79998" height="4.79998" rx="2.39999" fill="#292929"/>
<rect x="136.8" y="160.4" width="4.79998" height="4.79998" rx="2.39999" fill="#292929"/>
<rect x="136.8" y="165.2" width="4.79998" height="4.79998" rx="2.39999" fill="#292929"/>
<rect x="136.8" y="174.8" width="4.79998" height="4.79998" rx="2.39999" fill="#292929"/>
<rect x="136.8" y="184.4" width="4.79998" height="4.79998" rx="2.39999" fill="#292929"/>
<rect x="136.8" y="213.2" width="4.79998" height="4.79998" rx="2.39999" fill="#292929"/>
<rect x="141.6" y="98" width="4.79998" height="4.79998" rx="2.39999" fill="#292929"/>
<rect x="141.6" y="107.6" width="4.79998" height="4.79998" rx="2.39999" fill="#292929"/>
<rect x="141.6" y="112.4" width="4.79998" height="4.79998" rx="2.39999" fill="#292929"/>
<rect x="141.6" y="117.201" width="4.79998" height="4.79998" rx="2.39999" fill="#292929"/>
<rect x="141.6" y="126.801" width="4.79998" height="4.79998" rx="2.39999" fill="#292929"/>
<rect x="141.6" y="136.4" width="4.79998" height="4.79998" rx="2.39999" fill="#292929"/>
<rect x="141.6" y="141.2" width="4.79998" height="4.79998" rx="2.39999" fill="#292929"/>
<rect x="141.6" y="146" width="4.79998" height="4.79998" rx="2.39999" fill="#292929"/>
<rect x="141.6" y="160.4" width="4.79998" height="4.79998" rx="2.39999" fill="#292929"/>
<rect x="141.6" y="174.8" width="4.79998" height="4.79998" rx="2.39999" fill="#292929"/>
<rect x="141.6" y="184.4" width="4.79998" height="4.79998" rx="2.39999" fill="#292929"/>
<rect x="141.6" y="193.999" width="4.79998" height="4.79998" rx="2.39999" fill="#292929"/>
<rect x="141.6" y="198.799" width="4.79998" height="4.79998" rx="2.39999" fill="#292929"/>
<rect x="141.6" y="203.6" width="4.79998" height="4.79998" rx="2.39999" fill="#292929"/>
<rect x="141.6" y="213.2" width="4.79998" height="4.79998" rx="2.39999" fill="#292929"/>
<rect x="146.399" y="98" width="4.79998" height="4.79998" rx="2.39999" fill="#292929"/>
<rect x="146.399" y="107.6" width="4.79998" height="4.79998" rx="2.39999" fill="#292929"/>
<rect x="146.399" y="112.4" width="4.79998" height="4.79998" rx="2.39999" fill="#292929"/>
<rect x="146.399" y="117.201" width="4.79998" height="4.79998" rx="2.39999" fill="#292929"/>
<rect x="146.399" y="126.801" width="4.79998" height="4.79998" rx="2.39999" fill="#292929"/>
<rect x="146.399" y="141.2" width="4.79998" height="4.79998" rx="2.39999" fill="#292929"/>
<rect x="146.399" y="155.6" width="4.79998" height="4.79998" rx="2.39999" fill="#292929"/>
<rect x="146.399" y="160.4" width="4.79998" height="4.79998" rx="2.39999" fill="#292929"/>
<rect x="146.399" y="170" width="4.79998" height="4.79998" rx="2.39999" fill="#292929"/>
<rect x="146.399" y="184.4" width="4.79998" height="4.79998" rx="2.39999" fill="#292929"/>
<rect x="146.399" y="193.999" width="4.79998" height="4.79998" rx="2.39999" fill="#292929"/>
<rect x="146.399" y="198.799" width="4.79998" height="4.79998" rx="2.39999" fill="#292929"/>
<rect x="146.399" y="203.6" width="4.79998" height="4.79998" rx="2.39999" fill="#292929"/>
<rect x="146.399" y="213.2" width="4.79998" height="4.79998" rx="2.39999" fill="#292929"/>
<rect x="151.201" y="98" width="4.79998" height="4.79998" rx="2.39999" fill="#292929"/>
<rect x="151.201" y="107.6" width="4.79998" height="4.79998" rx="2.39999" fill="#292929"/>
<rect x="151.201" y="112.4" width="4.79998" height="4.79998" rx="2.39999" fill="#292929"/>
<rect x="151.201" y="117.201" width="4.79998" height="4.79998" rx="2.39999" fill="#292929"/>
<rect x="151.201" y="126.801" width="4.79998" height="4.79998" rx="2.39999" fill="#292929"/>
<rect x="151.201" y="136.4" width="4.79998" height="4.79998" rx="2.39999" fill="#292929"/>
<rect x="151.201" y="146" width="4.79998" height="4.79998" rx="2.39999" fill="#292929"/>
<rect x="151.201" y="150.799" width="4.79998" height="4.79998" rx="2.39999" fill="#292929"/>
<rect x="151.201" y="160.4" width="4.79998" height="4.79998" rx="2.39999" fill="#292929"/>
<rect x="151.201" y="174.8" width="4.79998" height="4.79998" rx="2.39999" fill="#292929"/>
<rect x="151.201" y="184.4" width="4.79998" height="4.79998" rx="2.39999" fill="#292929"/>
<rect x="151.201" y="193.999" width="4.79998" height="4.79998" rx="2.39999" fill="#292929"/>
<rect x="151.201" y="198.799" width="4.79998" height="4.79998" rx="2.39999" fill="#292929"/>
<rect x="151.201" y="203.6" width="4.79998" height="4.79998" rx="2.39999" fill="#292929"/>
<rect x="151.201" y="213.2" width="4.79998" height="4.79998" rx="2.39999" fill="#292929"/>
<rect x="156" y="98" width="4.79998" height="4.79998" rx="2.39999" fill="#292929"/>
<rect x="156" y="126.801" width="4.79998" height="4.79998" rx="2.39999" fill="#292929"/>
<rect x="156" y="136.4" width="4.79998" height="4.79998" rx="2.39999" fill="#292929"/>
<rect x="156" y="141.2" width="4.79998" height="4.79998" rx="2.39999" fill="#292929"/>
<rect x="156" y="150.799" width="4.79998" height="4.79998" rx="2.39999" fill="#292929"/>
<rect x="156" y="160.4" width="4.79998" height="4.79998" rx="2.39999" fill="#292929"/>
<rect x="156" y="165.2" width="4.79998" height="4.79998" rx="2.39999" fill="#292929"/>
<rect x="156" y="174.8" width="4.79998" height="4.79998" rx="2.39999" fill="#292929"/>
<rect x="156" y="184.4" width="4.79998" height="4.79998" rx="2.39999" fill="#292929"/>
<rect x="156" y="213.2" width="4.79998" height="4.79998" rx="2.39999" fill="#292929"/>
<rect x="160.801" y="98" width="4.79998" height="4.79998" rx="2.39999" fill="#292929"/>
<rect x="160.801" y="102.8" width="4.79998" height="4.79998" rx="2.39999" fill="#292929"/>
<rect x="160.801" y="107.6" width="4.79998" height="4.79998" rx="2.39999" fill="#292929"/>
<rect x="160.801" y="112.4" width="4.79998" height="4.79998" rx="2.39999" fill="#292929"/>
<rect x="160.801" y="117.201" width="4.79998" height="4.79998" rx="2.39999" fill="#292929"/>
<rect x="160.801" y="122" width="4.79998" height="4.79998" rx="2.39999" fill="#292929"/>
<rect x="160.801" y="126.801" width="4.79998" height="4.79998" rx="2.39999" fill="#292929"/>
<rect x="160.801" y="136.4" width="4.79998" height="4.79998" rx="2.39999" fill="#292929"/>
<rect x="160.801" y="146" width="4.79998" height="4.79998" rx="2.39999" fill="#292929"/>
<rect x="160.801" y="155.6" width="4.79998" height="4.79998" rx="2.39999" fill="#292929"/>
<rect x="160.801" y="165.2" width="4.79998" height="4.79998" rx="2.39999" fill="#292929"/>
<rect x="160.801" y="174.8" width="4.79998" height="4.79998" rx="2.39999" fill="#292929"/>
<rect x="160.801" y="184.4" width="4.79998" height="4.79998" rx="2.39999" fill="#292929"/>
<rect x="160.801" y="189.199" width="4.79998" height="4.79998" rx="2.39999" fill="#292929"/>
<rect x="160.801" y="193.999" width="4.79998" height="4.79998" rx="2.39999" fill="#292929"/>
<rect x="160.801" y="198.799" width="4.79998" height="4.79998" rx="2.39999" fill="#292929"/>
<rect x="160.801" y="203.6" width="4.79998" height="4.79998" rx="2.39999" fill="#292929"/>
<rect x="160.801" y="208.399" width="4.79998" height="4.79998" rx="2.39999" fill="#292929"/>
<rect x="160.801" y="213.2" width="4.79998" height="4.79998" rx="2.39999" fill="#292929"/>
<rect x="165.6" y="136.4" width="4.79998" height="4.79998" rx="2.39999" fill="#292929"/>
<rect x="165.6" y="141.2" width="4.79998" height="4.79998" rx="2.39999" fill="#292929"/>
<rect x="165.6" y="150.799" width="4.79998" height="4.79998" rx="2.39999" fill="#292929"/>
<rect x="165.6" y="165.2" width="4.79998" height="4.79998" rx="2.39999" fill="#292929"/>
<rect x="165.6" y="174.8" width="4.79998" height="4.79998" rx="2.39999" fill="#292929"/>
<rect x="170.399" y="107.6" width="4.79998" height="4.79998" rx="2.39999" fill="#292929"/>
<rect x="170.399" y="126.801" width="4.79998" height="4.79998" rx="2.39999" fill="#292929"/>
<rect x="170.399" y="131.6" width="4.79998" height="4.79998" rx="2.39999" fill="#292929"/>
<rect x="170.399" y="179.6" width="4.79998" height="4.79998" rx="2.39999" fill="#292929"/>
<rect x="170.399" y="184.4" width="4.79998" height="4.79998" rx="2.39999" fill="#292929"/>
<rect x="170.399" y="189.199" width="4.79998" height="4.79998" rx="2.39999" fill="#292929"/>
<rect x="170.399" y="193.999" width="4.79998" height="4.79998" rx="2.39999" fill="#292929"/>
<rect x="170.399" y="203.6" width="4.79998" height="4.79998" rx="2.39999" fill="#292929"/>
<rect x="170.399" y="208.399" width="4.79998" height="4.79998" rx="2.39999" fill="#292929"/>
<rect x="170.399" y="213.2" width="4.79998" height="4.79998" rx="2.39999" fill="#292929"/>
<rect x="175.199" y="98" width="4.79998" height="4.79998" rx="2.39999" fill="#292929"/>
<rect x="175.199" y="107.6" width="4.79998" height="4.79998" rx="2.39999" fill="#292929"/>
<rect x="175.199" y="112.4" width="4.79998" height="4.79998" rx="2.39999" fill="#292929"/>
<rect x="175.199" y="122" width="4.79998" height="4.79998" rx="2.39999" fill="#292929"/>
<rect x="175.199" y="131.6" width="4.79998" height="4.79998" rx="2.39999" fill="#292929"/>
<rect x="175.199" y="179.6" width="4.79998" height="4.79998" rx="2.39999" fill="#292929"/>
<rect x="175.199" y="198.799" width="4.79998" height="4.79998" rx="2.39999" fill="#292929"/>
<rect x="175.199" y="203.6" width="4.79998" height="4.79998" rx="2.39999" fill="#292929"/>
<rect x="180" y="102.8" width="4.79998" height="4.79998" rx="2.39999" fill="#292929"/>
<rect x="180" y="107.6" width="4.79998" height="4.79998" rx="2.39999" fill="#292929"/>
<rect x="180" y="112.4" width="4.79998" height="4.79998" rx="2.39999" fill="#292929"/>
<rect x="180" y="117.201" width="4.79998" height="4.79998" rx="2.39999" fill="#292929"/>
<rect x="180" y="126.801" width="4.79998" height="4.79998" rx="2.39999" fill="#292929"/>
<rect x="180" y="131.6" width="4.79998" height="4.79998" rx="2.39999" fill="#292929"/>
<rect x="180" y="189.199" width="4.79998" height="4.79998" rx="2.39999" fill="#292929"/>
<rect x="180" y="193.999" width="4.79998" height="4.79998" rx="2.39999" fill="#292929"/>
<rect x="180" y="198.799" width="4.79998" height="4.79998" rx="2.39999" fill="#292929"/>
<rect x="180" y="203.6" width="4.79998" height="4.79998" rx="2.39999" fill="#292929"/>
<rect x="180" y="208.399" width="4.79998" height="4.79998" rx="2.39999" fill="#292929"/>
<rect x="180" y="213.2" width="4.79998" height="4.79998" rx="2.39999" fill="#292929"/>
<rect x="184.8" y="102.8" width="4.79998" height="4.79998" rx="2.39999" fill="#292929"/>
<rect x="184.8" y="112.4" width="4.79998" height="4.79998" rx="2.39999" fill="#292929"/>
<rect x="184.8" y="179.6" width="4.79998" height="4.79998" rx="2.39999" fill="#292929"/>
<rect x="184.8" y="189.199" width="4.79998" height="4.79998" rx="2.39999" fill="#292929"/>
<rect x="184.8" y="198.799" width="4.79998" height="4.79998" rx="2.39999" fill="#292929"/>
<rect x="184.8" y="203.6" width="4.79998" height="4.79998" rx="2.39999" fill="#292929"/>
<rect x="184.8" y="213.2" width="4.79998" height="4.79998" rx="2.39999" fill="#292929"/>
<rect x="189.599" y="98" width="4.79998" height="4.79998" rx="2.39999" fill="#292929"/>
<rect x="189.599" y="102.8" width="4.79998" height="4.79998" rx="2.39999" fill="#292929"/>
<rect x="189.599" y="107.6" width="4.79998" height="4.79998" rx="2.39999" fill="#292929"/>
<rect x="189.599" y="126.801" width="4.79998" height="4.79998" rx="2.39999" fill="#292929"/>
<rect x="189.599" y="131.6" width="4.79998" height="4.79998" rx="2.39999" fill="#292929"/>
<rect x="189.599" y="193.999" width="4.79998" height="4.79998" rx="2.39999" fill="#292929"/>
<rect x="189.599" y="198.799" width="4.79998" height="4.79998" rx="2.39999" fill="#292929"/>
<rect x="189.599" y="203.6" width="4.79998" height="4.79998" rx="2.39999" fill="#292929"/>
<rect x="189.599" y="208.399" width="4.79998" height="4.79998" rx="2.39999" fill="#292929"/>
<rect x="194.4" y="98" width="4.79998" height="4.79998" rx="2.39999" fill="#292929"/>
<rect x="194.4" y="102.8" width="4.79998" height="4.79998" rx="2.39999" fill="#292929"/>
<rect x="194.4" y="117.201" width="4.79998" height="4.79998" rx="2.39999" fill="#292929"/>
<rect x="194.4" y="131.6" width="4.79998" height="4.79998" rx="2.39999" fill="#292929"/>
<rect x="194.4" y="184.4" width="4.79998" height="4.79998" rx="2.39999" fill="#292929"/>
<rect x="194.4" y="198.799" width="4.79998" height="4.79998" rx="2.39999" fill="#292929"/>
<rect x="194.4" y="208.399" width="4.79998" height="4.79998" rx="2.39999" fill="#292929"/>
<rect x="199.2" y="98" width="4.79998" height="4.79998" rx="2.39999" fill="#292929"/>
<rect x="199.2" y="102.8" width="4.79998" height="4.79998" rx="2.39999" fill="#292929"/>
<rect x="199.2" y="117.201" width="4.79998" height="4.79998" rx="2.39999" fill="#292929"/>
<rect x="199.2" y="122" width="4.79998" height="4.79998" rx="2.39999" fill="#292929"/>
<rect x="199.2" y="126.801" width="4.79998" height="4.79998" rx="2.39999" fill="#292929"/>
<rect x="199.2" y="131.6" width="4.79998" height="4.79998" rx="2.39999" fill="#292929"/>
<rect x="199.2" y="179.6" width="4.79998" height="4.79998" rx="2.39999" fill="#292929"/>
<rect x="199.2" y="203.6" width="4.79998" height="4.79998" rx="2.39999" fill="#292929"/>
<rect x="199.2" y="208.399" width="4.79998" height="4.79998" rx="2.39999" fill="#292929"/>
<rect x="199.2" y="213.2" width="4.79998" height="4.79998" rx="2.39999" fill="#292929"/>
<rect x="204" y="98" width="4.79998" height="4.79998" rx="2.39999" fill="#292929"/>
<rect x="204" y="102.8" width="4.79998" height="4.79998" rx="2.39999" fill="#292929"/>
<rect x="204" y="107.6" width="4.79998" height="4.79998" rx="2.39999" fill="#292929"/>
<rect x="204" y="117.201" width="4.79998" height="4.79998" rx="2.39999" fill="#292929"/>
<rect x="204" y="122" width="4.79998" height="4.79998" rx="2.39999" fill="#292929"/>
<rect x="204" y="179.6" width="4.79998" height="4.79998" rx="2.39999" fill="#292929"/>
<rect x="204" y="184.4" width="4.79998" height="4.79998" rx="2.39999" fill="#292929"/>
<rect x="204" y="203.6" width="4.79998" height="4.79998" rx="2.39999" fill="#292929"/>
<rect x="204" y="208.399" width="4.79998" height="4.79998" rx="2.39999" fill="#292929"/>
<rect x="204" y="213.2" width="4.79998" height="4.79998" rx="2.39999" fill="#292929"/>
<rect x="208.799" y="102.8" width="4.79998" height="4.79998" rx="2.39999" fill="#292929"/>
<rect x="208.799" y="122" width="4.79998" height="4.79998" rx="2.39999" fill="#292929"/>
<rect x="208.799" y="126.801" width="4.79998" height="4.79998" rx="2.39999" fill="#292929"/>
<rect x="173.399" y="136.4" width="4.79998" height="4.79998" rx="2.39999" fill="#292929"/>
<rect x="170.399" y="141.2" width="4.79998" height="4.79998" rx="2.39999" fill="#292929"/>
<rect x="170.399" y="146" width="4.79998" height="4.79998" rx="2.39999" fill="#292929"/>
<rect x="170.399" y="155.6" width="4.79998" height="4.79998" rx="2.39999" fill="#292929"/>
<rect x="170.399" y="160.4" width="4.79998" height="4.79998" rx="2.39999" fill="#292929"/>
<rect x="170.399" y="165.2" width="4.79998" height="4.79998" rx="2.39999" fill="#292929"/>
<rect x="170.399" y="170" width="4.79998" height="4.79998" rx="2.39999" fill="#292929"/>
<rect x="170.399" y="174.8" width="4.79998" height="4.79998" rx="2.39999" fill="#292929"/>
<rect x="175.199" y="146" width="4.79998" height="4.79998" rx="2.39999" fill="#292929"/>
<rect x="175.199" y="165.2" width="4.79998" height="4.79998" rx="2.39999" fill="#292929"/>
<rect x="175.199" y="170" width="4.79998" height="4.79998" rx="2.39999" fill="#292929"/>
<rect x="180" y="136.4" width="4.79998" height="4.79998" rx="2.39999" fill="#292929"/>
<rect x="180" y="141.2" width="4.79998" height="4.79998" rx="2.39999" fill="#292929"/>
<rect x="180" y="165.2" width="4.79998" height="4.79998" rx="2.39999" fill="#292929"/>
<rect x="180" y="174.8" width="4.79998" height="4.79998" rx="2.39999" fill="#292929"/>
<rect x="184.799" y="136.4" width="4.79998" height="4.79998" rx="2.39999" fill="#292929"/>
<rect x="184.799" y="141.2" width="4.79998" height="4.79998" rx="2.39999" fill="#292929"/>
<rect x="184.799" y="150.799" width="4.79998" height="4.79998" rx="2.39999" fill="#292929"/>
<rect x="184.799" y="160.4" width="4.79998" height="4.79998" rx="2.39999" fill="#292929"/>
<rect x="184.799" y="165.2" width="4.79998" height="4.79998" rx="2.39999" fill="#292929"/>
<rect x="184.799" y="174.8" width="4.79998" height="4.79998" rx="2.39999" fill="#292929"/>
<rect x="189.599" y="155.6" width="4.79998" height="4.79998" rx="2.39999" fill="#292929"/>
<rect x="189.599" y="160.4" width="4.79998" height="4.79998" rx="2.39999" fill="#292929"/>
<rect x="189.599" y="165.2" width="4.79998" height="4.79998" rx="2.39999" fill="#292929"/>
<rect x="189.599" y="170" width="4.79998" height="4.79998" rx="2.39999" fill="#292929"/>
<rect x="194.4" y="146" width="4.79998" height="4.79998" rx="2.39999" fill="#292929"/>
<rect x="194.4" y="160.4" width="4.79998" height="4.79998" rx="2.39999" fill="#292929"/>
<rect x="194.4" y="170" width="4.79998" height="4.79998" rx="2.39999" fill="#292929"/>
<rect x="199.2" y="136.4" width="4.79998" height="4.79998" rx="2.39999" fill="#292929"/>
<rect x="199.2" y="165.2" width="4.79998" height="4.79998" rx="2.39999" fill="#292929"/>
<rect x="199.2" y="170" width="4.79998" height="4.79998" rx="2.39999" fill="#292929"/>
<rect x="199.2" y="174.8" width="4.79998" height="4.79998" rx="2.39999" fill="#292929"/>
<rect x="204" y="155.6" width="4.79998" height="4.79998" rx="2.39999" fill="#292929"/>
<rect x="204" y="170" width="4.79998" height="4.79998" rx="2.39999" fill="#292929"/>
<rect x="208.799" y="136.4" width="4.79998" height="4.79998" rx="2.39999" fill="#292929"/>
<rect x="208.799" y="141.2" width="4.79998" height="4.79998" rx="2.39999" fill="#292929"/>
<rect x="208.799" y="146" width="4.79998" height="4.79998" rx="2.39999" fill="#292929"/>
<rect x="208.799" y="150.799" width="4.79998" height="4.79998" rx="2.39999" fill="#292929"/>
<rect x="208.799" y="155.6" width="4.79998" height="4.79998" rx="2.39999" fill="#292929"/>
<rect x="208.799" y="165.2" width="4.79998" height="4.79998" rx="2.39999" fill="#292929"/>
<rect x="208.799" y="170" width="4.79998" height="4.79998" rx="2.39999" fill="#292929"/>
<rect x="208.799" y="174.8" width="4.79998" height="4.79998" rx="2.39999" fill="#292929"/>
<rect x="208.799" y="179.6" width="4.79998" height="4.79998" rx="2.39999" fill="#292929"/>
<rect x="208.799" y="184.4" width="4.79998" height="4.79998" rx="2.39999" fill="#292929"/>
<rect x="208.799" y="189.199" width="4.79998" height="4.79998" rx="2.39999" fill="#292929"/>
<rect x="208.799" y="193.999" width="4.79998" height="4.79998" rx="2.39999" fill="#292929"/>
<rect x="208.799" y="203.6" width="4.79998" height="4.79998" rx="2.39999" fill="#292929"/>
<rect x="208.799" y="208.399" width="4.79998" height="4.79998" rx="2.39999" fill="#292929"/>
<rect x="208.799" y="213.2" width="4.79998" height="4.79998" rx="2.39999" fill="#292929"/>
<rect x="213.601" y="136.4" width="4.79998" height="4.79998" rx="2.39999" fill="#292929"/>
<rect x="213.601" y="141.2" width="4.79998" height="4.79998" rx="2.39999" fill="#292929"/>
<rect x="213.601" y="155.6" width="4.79998" height="4.79998" rx="2.39999" fill="#292929"/>
<rect x="213.601" y="160.4" width="4.79998" height="4.79998" rx="2.39999" fill="#292929"/>
<rect x="213.601" y="165.2" width="4.79998" height="4.79998" rx="2.39999" fill="#292929"/>
<rect x="213.601" y="170" width="4.79998" height="4.79998" rx="2.39999" fill="#292929"/>
<rect x="213.601" y="174.8" width="4.79998" height="4.79998" rx="2.39999" fill="#292929"/>
<rect x="213.601" y="193.999" width="4.79998" height="4.79998" rx="2.39999" fill="#292929"/>
<rect x="213.601" y="208.399" width="4.79998" height="4.79998" rx="2.39999" fill="#292929"/>
<rect x="213.601" y="213.2" width="4.79998" height="4.79998" rx="2.39999" fill="#292929"/>
<rect x="218.4" y="98" width="4.79998" height="4.79998" rx="2.39999" fill="#292929"/>
<rect x="218.4" y="102.8" width="4.79998" height="4.79998" rx="2.39999" fill="#292929"/>
<rect x="218.4" y="107.6" width="4.79998" height="4.79998" rx="2.39999" fill="#292929"/>
<rect x="218.4" y="112.4" width="4.79998" height="4.79998" rx="2.39999" fill="#292929"/>
<rect x="218.4" y="117.201" width="4.79998" height="4.79998" rx="2.39999" fill="#292929"/>
<rect x="218.4" y="122" width="4.79998" height="4.79998" rx="2.39999" fill="#292929"/>
<rect x="218.4" y="126.801" width="4.79998" height="4.79998" rx="2.39999" fill="#292929"/>
<rect x="218.4" y="136.4" width="4.79998" height="4.79998" rx="2.39999" fill="#292929"/>
<rect x="218.4" y="141.2" width="4.79998" height="4.79998" rx="2.39999" fill="#292929"/>
<rect x="218.4" y="146" width="4.79998" height="4.79998" rx="2.39999" fill="#292929"/>
<rect x="218.4" y="155.6" width="4.79998" height="4.79998" rx="2.39999" fill="#292929"/>
<rect x="218.4" y="160.4" width="4.79998" height="4.79998" rx="2.39999" fill="#292929"/>
<rect x="218.4" y="170" width="4.79998" height="4.79998" rx="2.39999" fill="#292929"/>
<rect x="218.4" y="174.8" width="4.79998" height="4.79998" rx="2.39999" fill="#292929"/>
<rect x="218.4" y="184.4" width="4.79998" height="4.79998" rx="2.39999" fill="#292929"/>
<rect x="218.4" y="193.999" width="4.79998" height="4.79998" rx="2.39999" fill="#292929"/>
<rect x="218.4" y="208.399" width="4.79998" height="4.79998" rx="2.39999" fill="#292929"/>
<rect x="223.199" y="98" width="4.79998" height="4.79998" rx="2.39999" fill="#292929"/>
<rect x="223.199" y="126.801" width="4.79998" height="4.79998" rx="2.39999" fill="#292929"/>
<rect x="223.199" y="150.799" width="4.79998" height="4.79998" rx="2.39999" fill="#292929"/>
<rect x="223.199" y="165.2" width="4.79998" height="4.79998" rx="2.39999" fill="#292929"/>
<rect x="223.199" y="174.8" width="4.79998" height="4.79998" rx="2.39999" fill="#292929"/>
<rect x="223.199" y="193.999" width="4.79998" height="4.79998" rx="2.39999" fill="#292929"/>
<rect x="223.199" y="198.799" width="4.79998" height="4.79998" rx="2.39999" fill="#292929"/>
<rect x="223.199" y="213.2" width="4.79998" height="4.79998" rx="2.39999" fill="#292929"/>
<rect x="228" y="98" width="4.79998" height="4.79998" rx="2.39999" fill="#292929"/>
<rect x="228" y="107.6" width="4.79998" height="4.79998" rx="2.39999" fill="#292929"/>
<rect x="228" y="112.4" width="4.79998" height="4.79998" rx="2.39999" fill="#292929"/>
<rect x="228" y="117.201" width="4.79998" height="4.79998" rx="2.39999" fill="#292929"/>
<rect x="228" y="126.801" width="4.79998" height="4.79998" rx="2.39999" fill="#292929"/>
<rect x="228" y="170" width="4.79998" height="4.79998" rx="2.39999" fill="#292929"/>
<rect x="228" y="174.8" width="4.79998" height="4.79998" rx="2.39999" fill="#292929"/>
<rect x="228" y="179.6" width="4.79998" height="4.79998" rx="2.39999" fill="#292929"/>
<rect x="228" y="184.4" width="4.79998" height="4.79998" rx="2.39999" fill="#292929"/>
<rect x="228" y="189.199" width="4.79998" height="4.79998" rx="2.39999" fill="#292929"/>
<rect x="228" y="193.999" width="4.79998" height="4.79998" rx="2.39999" fill="#292929"/>
<rect x="228" y="198.799" width="4.79998" height="4.79998" rx="2.39999" fill="#292929"/>
<rect x="228" y="203.6" width="4.79998" height="4.79998" rx="2.39999" fill="#292929"/>
<rect x="228" y="208.399" width="4.79998" height="4.79998" rx="2.39999" fill="#292929"/>
<rect x="232.799" y="98" width="4.79998" height="4.79998" rx="2.39999" fill="#292929"/>
<rect x="232.799" y="107.6" width="4.79998" height="4.79998" rx="2.39999" fill="#292929"/>
<rect x="232.799" y="112.4" width="4.79998" height="4.79998" rx="2.39999" fill="#292929"/>
<rect x="232.799" y="117.201" width="4.79998" height="4.79998" rx="2.39999" fill="#292929"/>
<rect x="232.799" y="126.801" width="4.79998" height="4.79998" rx="2.39999" fill="#292929"/>
<rect x="232.799" y="155.6" width="4.79998" height="4.79998" rx="2.39999" fill="#292929"/>
<rect x="232.799" y="160.4" width="4.79998" height="4.79998" rx="2.39999" fill="#292929"/>
<rect x="232.799" y="174.8" width="4.79998" height="4.79998" rx="2.39999" fill="#292929"/>
<rect x="232.799" y="179.6" width="4.79998" height="4.79998" rx="2.39999" fill="#292929"/>
<rect x="232.799" y="184.4" width="4.79998" height="4.79998" rx="2.39999" fill="#292929"/>
<rect x="232.799" y="189.199" width="4.79998" height="4.79998" rx="2.39999" fill="#292929"/>
<rect x="232.799" y="193.999" width="4.79998" height="4.79998" rx="2.39999" fill="#292929"/>
<rect x="232.799" y="198.799" width="4.79998" height="4.79998" rx="2.39999" fill="#292929"/>
<rect x="232.799" y="208.399" width="4.79998" height="4.79998" rx="2.39999" fill="#292929"/>
<rect x="237.6" y="98" width="4.79998" height="4.79998" rx="2.39999" fill="#292929"/>
<rect x="237.6" y="107.6" width="4.79998" height="4.79998" rx="2.39999" fill="#292929"/>
<rect x="237.6" y="112.4" width="4.79998" height="4.79998" rx="2.39999" fill="#292929"/>
<rect x="237.6" y="117.201" width="4.79998" height="4.79998" rx="2.39999" fill="#292929"/>
<rect x="237.6" y="126.801" width="4.79998" height="4.79998" rx="2.39999" fill="#292929"/>
<rect x="237.6" y="136.4" width="4.79998" height="4.79998" rx="2.39999" fill="#292929"/>
<rect x="237.6" y="146" width="4.79998" height="4.79998" rx="2.39999" fill="#292929"/>
<rect x="237.6" y="165.2" width="4.79998" height="4.79998" rx="2.39999" fill="#292929"/>
<rect x="237.6" y="198.799" width="4.79998" height="4.79998" rx="2.39999" fill="#292929"/>
<rect x="242.4" y="98" width="4.79998" height="4.79998" rx="2.39999" fill="#292929"/>
<rect x="242.4" y="126.801" width="4.79998" height="4.79998" rx="2.39999" fill="#292929"/>
<rect x="242.4" y="146" width="4.79998" height="4.79998" rx="2.39999" fill="#292929"/>
<rect x="242.4" y="150.799" width="4.79998" height="4.79998" rx="2.39999" fill="#292929"/>
<rect x="242.4" y="155.6" width="4.79998" height="4.79998" rx="2.39999" fill="#292929"/>
<rect x="242.4" y="165.2" width="4.79998" height="4.79998" rx="2.39999" fill="#292929"/>
<rect x="242.4" y="170" width="4.79998" height="4.79998" rx="2.39999" fill="#292929"/>
<rect x="242.4" y="179.6" width="4.79998" height="4.79998" rx="2.39999" fill="#292929"/>
<rect x="242.4" y="184.4" width="4.79998" height="4.79998" rx="2.39999" fill="#292929"/>
<rect x="242.4" y="208.399" width="4.79998" height="4.79998" rx="2.39999" fill="#292929"/>
<rect x="242.4" y="213.2" width="4.79998" height="4.79998" rx="2.39999" fill="#292929"/>
<rect x="247.2" y="98" width="4.79998" height="4.79998" rx="2.39999" fill="#292929"/>
<rect x="247.2" y="102.8" width="4.79998" height="4.79998" rx="2.39999" fill="#292929"/>
<rect x="247.2" y="107.6" width="4.79998" height="4.79998" rx="2.39999" fill="#292929"/>
<rect x="247.2" y="112.4" width="4.79998" height="4.79998" rx="2.39999" fill="#292929"/>
<rect x="247.2" y="117.201" width="4.79998" height="4.79998" rx="2.39999" fill="#292929"/>
<rect x="247.2" y="122" width="4.79998" height="4.79998" rx="2.39999" fill="#292929"/>
<rect x="247.2" y="126.801" width="4.79998" height="4.79998" rx="2.39999" fill="#292929"/>
<rect x="247.2" y="141.2" width="4.79998" height="4.79998" rx="2.39999" fill="#292929"/>
<rect x="247.2" y="146" width="4.79998" height="4.79998" rx="2.39999" fill="#292929"/>
<rect x="247.2" y="155.6" width="4.79998" height="4.79998" rx="2.39999" fill="#292929"/>
<rect x="247.2" y="160.4" width="4.79998" height="4.79998" rx="2.39999" fill="#292929"/>
<rect x="247.2" y="165.2" width="4.79998" height="4.79998" rx="2.39999" fill="#292929"/>
<rect x="247.2" y="179.6" width="4.79998" height="4.79998" rx="2.39999" fill="#292929"/>
<rect x="247.2" y="184.4" width="4.79998" height="4.79998" rx="2.39999" fill="#292929"/>
<rect x="247.2" y="189.199" width="4.79998" height="4.79998" rx="2.39999" fill="#292929"/>
<rect x="247.2" y="193.999" width="4.79998" height="4.79998" rx="2.39999" fill="#292929"/>
<rect x="247.2" y="203.6" width="4.79998" height="4.79998" rx="2.39999" fill="#292929"/>
<rect x="247.2" y="213.2" width="4.79998" height="4.79998" rx="2.39999" fill="#292929"/>
<path d="M156.527 238.94C156.527 238.244 156.275 237.656 155.879 237.224C155.339 236.648 154.523 236.324 153.659 236.324H151.307C150.983 236.324 150.719 236.6 150.719 236.924V244.4C150.719 244.736 150.983 245 151.319 245C151.655 245 151.919 244.736 151.919 244.4V241.532H153.659C154.655 241.532 155.411 241.196 155.891 240.668C156.311 240.2 156.527 239.612 156.527 238.94ZM155.375 238.916C155.375 239.312 155.291 239.696 155.027 239.984C154.775 240.26 154.343 240.452 153.623 240.452H151.919V237.404H153.599C154.271 237.404 154.727 237.644 155.027 237.98C155.255 238.256 155.375 238.58 155.375 238.916ZM162.119 244.208V244.436C162.119 244.748 162.371 245 162.683 245C162.995 245 163.247 244.748 163.247 244.436V239.12C163.247 238.808 162.995 238.556 162.683 238.556C162.371 238.556 162.119 238.808 162.119 239.12V239.3C161.711 238.748 161.087 238.496 160.463 238.496C158.939 238.496 157.775 239.816 157.775 241.784C157.775 243.764 158.951 245.06 160.475 245.06C161.171 245.06 161.759 244.748 162.119 244.208ZM160.511 244.1C159.575 244.1 158.891 243.236 158.891 241.784C158.891 240.344 159.575 239.456 160.511 239.456C161.423 239.456 162.131 240.344 162.131 241.784C162.131 243.236 161.423 244.1 160.511 244.1ZM167.026 245.78C166.87 246.2 166.678 246.428 166.33 246.428C166.09 246.428 165.886 246.32 165.718 246.176C165.61 246.092 165.49 246.044 165.358 246.044C165.07 246.044 164.854 246.272 164.854 246.548C164.854 246.728 164.95 246.872 165.058 246.98C165.394 247.292 165.814 247.448 166.342 247.448C167.038 247.448 167.614 247.052 167.89 246.356L170.698 239.372C170.734 239.288 170.758 239.204 170.758 239.12C170.758 238.808 170.506 238.556 170.194 238.556C169.99 238.556 169.774 238.652 169.69 238.868L168.118 242.936C168.058 243.092 167.938 243.464 167.902 243.596H167.878C167.842 243.464 167.722 243.092 167.662 242.936L166.102 238.892C166.042 238.736 165.862 238.556 165.586 238.556C165.274 238.556 165.022 238.808 165.022 239.12C165.022 239.228 165.058 239.324 165.082 239.384L167.23 244.688C167.266 244.772 167.314 244.808 167.386 244.832L167.026 245.78ZM179.106 238.496C178.434 238.496 177.87 238.808 177.45 239.312V236.888C177.45 236.576 177.198 236.324 176.886 236.324C176.574 236.324 176.322 236.576 176.322 236.888V244.436C176.322 244.748 176.574 245 176.886 245C177.198 245 177.45 244.748 177.45 244.436V244.292C177.822 244.724 178.362 245.06 179.178 245.06C180.678 245.06 181.794 243.728 181.794 241.784C181.794 239.804 180.618 238.496 179.106 238.496ZM179.058 244.1C178.146 244.1 177.438 243.236 177.438 241.784C177.438 240.344 178.146 239.456 179.058 239.456C179.994 239.456 180.678 240.344 180.678 241.784C180.678 243.236 179.994 244.1 179.058 244.1ZM185.097 245.78C184.941 246.2 184.749 246.428 184.401 246.428C184.161 246.428 183.957 246.32 183.789 246.176C183.681 246.092 183.561 246.044 183.429 246.044C183.141 246.044 182.925 246.272 182.925 246.548C182.925 246.728 183.021 246.872 183.129 246.98C183.465 247.292 183.885 247.448 184.413 247.448C185.109 247.448 185.685 247.052 185.961 246.356L188.769 239.372C188.805 239.288 188.829 239.204 188.829 239.12C188.829 238.808 188.577 238.556 188.265 238.556C188.061 238.556 187.845 238.652 187.761 238.868L186.189 242.936C186.129 243.092 186.009 243.464 185.973 243.596H185.949C185.913 243.464 185.793 243.092 185.733 242.936L184.173 238.892C184.113 238.736 183.933 238.556 183.657 238.556C183.345 238.556 183.093 238.808 183.093 239.12C183.093 239.228 183.129 239.324 183.153 239.384L185.301 244.688C185.337 244.772 185.385 244.808 185.457 244.832L185.097 245.78ZM200.765 242.396C200.765 241.376 200.189 240.608 199.421 240.284C199.925 239.924 200.357 239.396 200.357 238.604C200.357 237.908 200.093 237.344 199.661 236.948C199.217 236.528 198.593 236.324 197.657 236.324H195.101C194.765 236.324 194.501 236.588 194.501 236.924V244.4C194.501 244.724 194.765 245 195.089 245H197.777C199.697 245 200.765 243.86 200.765 242.396ZM199.169 238.628C199.169 239.324 198.821 239.84 197.777 239.84H195.701V237.404H197.621C198.665 237.404 199.169 237.872 199.169 238.628ZM199.529 242.408C199.529 243.308 198.893 243.92 197.801 243.92H195.701V240.896H197.849C198.989 240.896 199.529 241.472 199.529 242.408ZM206.779 244.208V244.436C206.779 244.748 207.031 245 207.343 245C207.655 245 207.907 244.748 207.907 244.436V239.12C207.907 238.808 207.655 238.556 207.343 238.556C207.031 238.556 206.779 238.808 206.779 239.12V239.3C206.371 238.748 205.747 238.496 205.123 238.496C203.599 238.496 202.435 239.816 202.435 241.784C202.435 243.764 203.611 245.06 205.135 245.06C205.831 245.06 206.419 244.748 206.779 244.208ZM205.171 244.1C204.235 244.1 203.551 243.236 203.551 241.784C203.551 240.344 204.235 239.456 205.171 239.456C206.083 239.456 206.791 240.344 206.791 241.784C206.791 243.236 206.083 244.1 205.171 244.1ZM211.434 239.12C211.434 238.808 211.182 238.556 210.87 238.556C210.558 238.556 210.306 238.808 210.306 239.12V244.436C210.306 244.748 210.558 245 210.87 245C211.182 245 211.434 244.748 211.434 244.436V241.16C211.434 240.86 211.494 240.512 211.662 240.248C211.95 239.768 212.526 239.516 213.042 239.516C213.618 239.516 214.002 239.792 214.146 240.2C214.218 240.404 214.242 240.764 214.242 241.052V244.436C214.242 244.748 214.494 245 214.806 245C215.118 245 215.37 244.748 215.37 244.436V240.992C215.37 240.428 215.322 239.876 215.058 239.432C214.662 238.76 213.93 238.496 213.258 238.496C212.478 238.496 211.818 238.82 211.434 239.264V239.12ZM222.369 239.576C222.501 239.456 222.597 239.288 222.597 239.108C222.597 238.796 222.333 238.556 222.045 238.556C221.889 238.556 221.745 238.628 221.637 238.736L218.853 241.52V236.888C218.853 236.576 218.601 236.324 218.289 236.324C217.977 236.324 217.725 236.576 217.725 236.888V244.436C217.725 244.748 217.977 245 218.289 245C218.601 245 218.853 244.748 218.853 244.436V242.948L219.693 242.144L221.781 244.808C221.913 244.976 222.081 245.024 222.213 245.024C222.513 245.024 222.765 244.772 222.765 244.472C222.765 244.316 222.693 244.184 222.597 244.064L220.449 241.424L222.369 239.576ZM233.08 237.299C233.08 236.466 232.4 235.786 231.55 235.786C230.717 235.786 230.037 236.466 230.037 237.299C230.037 238.149 230.717 238.829 231.55 238.829C232.4 238.829 233.08 238.149 233.08 237.299ZM233.08 243.572C233.08 242.722 232.4 242.042 231.55 242.042C230.717 242.042 230.037 242.722 230.037 243.572C230.037 244.405 230.717 245.085 231.55 245.085C232.4 245.085 233.08 244.405 233.08 243.572Z" fill="#1D1D1D"/>
<defs>
<filter id="filter0_d" x="102" y="68" width="180" height="220" filterUnits="userSpaceOnUse" color-interpolation-filters="sRGB">
<feFlood flood-opacity="0" result="BackgroundImageFix"/>
<feColorMatrix in="SourceAlpha" type="matrix" values="0 0 0 0 0 0 0 0 0 0 0 0 0 0 0 0 0 0 127 0"/>
<feOffset/>
<feGaussianBlur stdDeviation="10"/>
<feColorMatrix type="matrix" values="0 0 0 0 0.207843 0 0 0 0 0.207843 0 0 0 0 0.207843 0 0 0 0.02 0"/>
<feBlend mode="normal" in2="BackgroundImageFix" result="effect1_dropShadow"/>
<feBlend mode="normal" in="SourceGraphic" in2="effect1_dropShadow" result="shape"/>
</filter>
</defs>
</svg>
