<svg width="384" height="384" viewBox="0 0 384 384" fill="none" xmlns="http://www.w3.org/2000/svg">
<path d="M100.209 226.6C100.185 224.932 98.9729 224.416 97.7369 224.056L96.7049 223.756C95.8769 223.516 95.4089 223.216 95.4089 222.52C95.4089 221.596 96.4049 221.248 97.1489 221.248C97.8089 221.248 98.3729 221.488 98.8529 221.884C99.0089 222.016 99.1889 222.1 99.3689 222.1C99.6689 222.1 99.8729 221.908 99.8729 221.596C99.8729 221.452 99.8129 221.32 99.6929 221.188C99.2129 220.672 98.3969 220.204 97.1609 220.204C95.3729 220.204 94.2569 221.236 94.2569 222.532C94.2569 223.864 94.9889 224.416 96.3809 224.824L97.4849 225.148C98.4329 225.424 99.0329 225.808 99.0329 226.648C99.0329 227.572 98.2769 228.064 97.2689 228.064C96.4769 228.064 95.7689 227.812 95.2049 227.104C95.0609 226.924 94.8929 226.816 94.6769 226.816C94.3649 226.816 94.1249 227.056 94.1249 227.356C94.1249 227.5 94.1729 227.644 94.2929 227.812C94.9529 228.676 96.0689 229.132 97.2449 229.132C99.0209 229.132 100.209 228.1 100.209 226.6ZM107 225.604C107 223.588 105.884 222.496 104.468 222.496C103.04 222.496 101.744 223.672 101.744 225.784C101.744 227.812 102.92 229.06 104.468 229.06C105.5 229.06 106.196 228.604 106.592 228.004C106.652 227.908 106.724 227.776 106.724 227.632C106.724 227.344 106.544 227.128 106.256 227.128C106.064 227.128 105.92 227.224 105.8 227.392C105.464 227.86 105.068 228.1 104.444 228.1C103.544 228.1 102.944 227.308 102.86 226.192H106.46C106.76 226.192 107 226.012 107 225.604ZM105.896 225.232H102.884C102.968 224.14 103.604 223.456 104.468 223.456C105.32 223.456 105.86 224.14 105.896 225.232ZM111.323 223.492C111.935 223.492 112.331 223.804 112.619 224.284C112.763 224.524 112.907 224.668 113.147 224.668C113.435 224.668 113.639 224.452 113.639 224.2C113.639 224.02 113.579 223.888 113.531 223.792C113.111 223 112.355 222.496 111.335 222.496C109.799 222.496 108.611 223.792 108.611 225.784C108.611 227.776 109.799 229.06 111.347 229.06C112.391 229.06 113.219 228.46 113.543 227.8C113.591 227.692 113.651 227.536 113.651 227.416C113.651 227.128 113.435 226.888 113.147 226.888C112.967 226.888 112.775 226.972 112.643 227.248C112.403 227.764 111.947 228.064 111.347 228.064C110.411 228.064 109.727 227.236 109.727 225.784C109.727 224.716 110.183 223.492 111.323 223.492ZM119.48 228.436C119.48 228.748 119.732 229 120.044 229C120.356 229 120.608 228.748 120.608 228.436V223.12C120.608 222.808 120.356 222.556 120.044 222.556C119.732 222.556 119.48 222.808 119.48 223.12V226.396C119.48 226.696 119.42 227.044 119.252 227.308C118.964 227.788 118.388 228.04 117.872 228.04C117.296 228.04 116.912 227.764 116.768 227.356C116.696 227.152 116.672 226.792 116.672 226.504V223.12C116.672 222.808 116.42 222.556 116.108 222.556C115.796 222.556 115.544 222.808 115.544 223.12V226.564C115.544 227.128 115.592 227.68 115.856 228.124C116.252 228.796 116.984 229.06 117.656 229.06C118.436 229.06 119.096 228.736 119.48 228.292V228.436ZM127.667 223.6C127.667 223.456 127.619 223.324 127.511 223.204C127.103 222.748 126.539 222.496 125.855 222.496C125.123 222.496 124.523 222.784 124.139 223.288V223.12C124.139 222.808 123.887 222.556 123.575 222.556C123.263 222.556 123.011 222.808 123.011 223.12V228.436C123.011 228.748 123.263 229 123.575 229C123.887 229 124.139 228.748 124.139 228.436V225.604C124.139 224.848 124.223 224.416 124.463 224.092C124.715 223.756 125.075 223.504 125.663 223.504C126.131 223.504 126.383 223.612 126.755 223.912C126.887 224.02 127.007 224.104 127.187 224.104C127.487 224.104 127.667 223.852 127.667 223.6ZM133.93 225.604C133.93 223.588 132.814 222.496 131.398 222.496C129.97 222.496 128.674 223.672 128.674 225.784C128.674 227.812 129.85 229.06 131.398 229.06C132.43 229.06 133.126 228.604 133.522 228.004C133.582 227.908 133.654 227.776 133.654 227.632C133.654 227.344 133.474 227.128 133.186 227.128C132.994 227.128 132.85 227.224 132.73 227.392C132.394 227.86 131.998 228.1 131.374 228.1C130.474 228.1 129.874 227.308 129.79 226.192H133.39C133.69 226.192 133.93 226.012 133.93 225.604ZM132.826 225.232H129.814C129.898 224.14 130.534 223.456 131.398 223.456C132.25 223.456 132.79 224.14 132.826 225.232ZM137.041 220.888C137.041 220.576 136.789 220.324 136.477 220.324C136.165 220.324 135.913 220.576 135.913 220.888V228.436C135.913 228.748 136.165 229 136.477 229C136.789 229 137.041 228.748 137.041 228.436V220.888ZM140.832 229.78C140.676 230.2 140.484 230.428 140.136 230.428C139.896 230.428 139.692 230.32 139.524 230.176C139.416 230.092 139.296 230.044 139.164 230.044C138.876 230.044 138.66 230.272 138.66 230.548C138.66 230.728 138.756 230.872 138.864 230.98C139.2 231.292 139.62 231.448 140.148 231.448C140.844 231.448 141.42 231.052 141.696 230.356L144.504 223.372C144.54 223.288 144.564 223.204 144.564 223.12C144.564 222.808 144.312 222.556 144 222.556C143.796 222.556 143.58 222.652 143.496 222.868L141.924 226.936C141.864 227.092 141.744 227.464 141.708 227.596H141.684C141.648 227.464 141.528 227.092 141.468 226.936L139.908 222.892C139.848 222.736 139.668 222.556 139.392 222.556C139.08 222.556 138.828 222.808 138.828 223.12C138.828 223.228 138.864 223.324 138.888 223.384L141.036 228.688C141.072 228.772 141.12 228.808 141.192 228.832L140.832 229.78ZM154.01 221.116C154.01 220.888 153.95 220.792 153.806 220.6C153.53 220.252 153.026 219.988 152.426 219.988C151.322 219.988 150.542 220.9 150.542 222.124V222.556H149.57C149.294 222.556 149.066 222.784 149.066 223.072C149.066 223.348 149.294 223.576 149.582 223.576H150.542V228.436C150.542 228.748 150.794 229 151.106 229C151.418 229 151.67 228.748 151.67 228.436V223.576H152.99C153.266 223.576 153.494 223.348 153.494 223.06C153.494 222.784 153.266 222.556 152.978 222.556H151.67V222.148C151.67 221.704 151.742 221.464 151.886 221.272C152.018 221.092 152.198 221.008 152.426 221.008C152.69 221.008 152.846 221.104 153.062 221.344C153.17 221.464 153.314 221.584 153.566 221.584C153.806 221.584 154.01 221.356 154.01 221.116ZM159.741 223.6C159.741 223.456 159.693 223.324 159.585 223.204C159.177 222.748 158.613 222.496 157.929 222.496C157.197 222.496 156.597 222.784 156.213 223.288V223.12C156.213 222.808 155.961 222.556 155.649 222.556C155.337 222.556 155.085 222.808 155.085 223.12V228.436C155.085 228.748 155.337 229 155.649 229C155.961 229 156.213 228.748 156.213 228.436V225.604C156.213 224.848 156.297 224.416 156.537 224.092C156.789 223.756 157.149 223.504 157.737 223.504C158.205 223.504 158.457 223.612 158.829 223.912C158.961 224.02 159.081 224.104 159.261 224.104C159.561 224.104 159.741 223.852 159.741 223.6ZM163.472 222.496C161.936 222.496 160.736 223.792 160.736 225.784C160.736 227.776 161.924 229.06 163.472 229.06C165.02 229.06 166.208 227.776 166.208 225.784C166.208 223.792 165.008 222.496 163.472 222.496ZM163.472 228.1C162.536 228.1 161.852 227.236 161.852 225.784C161.852 224.344 162.536 223.456 163.472 223.456C164.408 223.456 165.092 224.344 165.092 225.784C165.092 227.236 164.408 228.1 163.472 228.1ZM176.033 225.016C176.033 224.38 175.961 223.876 175.793 223.504C175.529 222.928 174.989 222.496 174.173 222.496C173.333 222.496 172.805 222.892 172.469 223.54C172.253 222.952 171.677 222.496 170.861 222.496C170.189 222.496 169.673 222.784 169.373 223.252V223.12C169.373 222.808 169.121 222.556 168.809 222.556C168.497 222.556 168.245 222.808 168.245 223.12V228.436C168.245 228.748 168.497 229 168.809 229C169.121 229 169.373 228.748 169.373 228.436V224.956C169.373 224.68 169.421 224.344 169.541 224.14C169.757 223.756 170.177 223.516 170.645 223.516C171.089 223.516 171.377 223.828 171.473 224.14C171.545 224.38 171.569 224.704 171.569 225.16V228.436C171.569 228.748 171.821 229 172.133 229C172.445 229 172.697 228.748 172.697 228.436V225.064C172.697 224.764 172.757 224.392 172.865 224.188C173.081 223.792 173.465 223.516 173.969 223.516C174.425 223.516 174.713 223.828 174.821 224.188C174.893 224.428 174.905 224.98 174.905 225.136V228.436C174.905 228.748 175.157 229 175.469 229C175.781 229 176.033 228.748 176.033 228.436V225.016ZM183.57 229.78C183.414 230.2 183.222 230.428 182.874 230.428C182.634 230.428 182.43 230.32 182.262 230.176C182.154 230.092 182.034 230.044 181.902 230.044C181.614 230.044 181.398 230.272 181.398 230.548C181.398 230.728 181.494 230.872 181.602 230.98C181.938 231.292 182.358 231.448 182.886 231.448C183.582 231.448 184.158 231.052 184.434 230.356L187.242 223.372C187.278 223.288 187.302 223.204 187.302 223.12C187.302 222.808 187.05 222.556 186.738 222.556C186.534 222.556 186.318 222.652 186.234 222.868L184.662 226.936C184.602 227.092 184.482 227.464 184.446 227.596H184.422C184.386 227.464 184.266 227.092 184.206 226.936L182.646 222.892C182.586 222.736 182.406 222.556 182.13 222.556C181.818 222.556 181.566 222.808 181.566 223.12C181.566 223.228 181.602 223.324 181.626 223.384L183.774 228.688C183.81 228.772 183.858 228.808 183.93 228.832L183.57 229.78ZM191.305 222.496C189.769 222.496 188.569 223.792 188.569 225.784C188.569 227.776 189.757 229.06 191.305 229.06C192.853 229.06 194.041 227.776 194.041 225.784C194.041 223.792 192.841 222.496 191.305 222.496ZM191.305 228.1C190.369 228.1 189.685 227.236 189.685 225.784C189.685 224.344 190.369 223.456 191.305 223.456C192.241 223.456 192.925 224.344 192.925 225.784C192.925 227.236 192.241 228.1 191.305 228.1ZM199.953 228.436C199.953 228.748 200.205 229 200.517 229C200.829 229 201.081 228.748 201.081 228.436V223.12C201.081 222.808 200.829 222.556 200.517 222.556C200.205 222.556 199.953 222.808 199.953 223.12V226.396C199.953 226.696 199.893 227.044 199.725 227.308C199.437 227.788 198.861 228.04 198.345 228.04C197.769 228.04 197.385 227.764 197.241 227.356C197.169 227.152 197.145 226.792 197.145 226.504V223.12C197.145 222.808 196.893 222.556 196.581 222.556C196.269 222.556 196.017 222.808 196.017 223.12V226.564C196.017 227.128 196.065 227.68 196.329 228.124C196.725 228.796 197.457 229.06 198.129 229.06C198.909 229.06 199.569 228.736 199.953 228.292V228.436ZM208.139 223.6C208.139 223.456 208.091 223.324 207.983 223.204C207.575 222.748 207.011 222.496 206.327 222.496C205.595 222.496 204.995 222.784 204.611 223.288V223.12C204.611 222.808 204.359 222.556 204.047 222.556C203.735 222.556 203.483 222.808 203.483 223.12V228.436C203.483 228.748 203.735 229 204.047 229C204.359 229 204.611 228.748 204.611 228.436V225.604C204.611 224.848 204.695 224.416 204.935 224.092C205.187 223.756 205.547 223.504 206.135 223.504C206.603 223.504 206.855 223.612 207.227 223.912C207.359 224.02 207.479 224.104 207.659 224.104C207.959 224.104 208.139 223.852 208.139 223.6ZM216.193 222.496C215.521 222.496 214.957 222.808 214.537 223.312V220.888C214.537 220.576 214.285 220.324 213.973 220.324C213.661 220.324 213.409 220.576 213.409 220.888V228.436C213.409 228.748 213.661 229 213.973 229C214.285 229 214.537 228.748 214.537 228.436V228.292C214.909 228.724 215.449 229.06 216.265 229.06C217.765 229.06 218.881 227.728 218.881 225.784C218.881 223.804 217.705 222.496 216.193 222.496ZM216.145 228.1C215.233 228.1 214.525 227.236 214.525 225.784C214.525 224.344 215.233 223.456 216.145 223.456C217.081 223.456 217.765 224.344 217.765 225.784C217.765 227.236 217.081 228.1 216.145 228.1ZM224.905 228.208V228.436C224.905 228.748 225.157 229 225.469 229C225.781 229 226.033 228.748 226.033 228.436V223.12C226.033 222.808 225.781 222.556 225.469 222.556C225.157 222.556 224.905 222.808 224.905 223.12V223.3C224.497 222.748 223.873 222.496 223.249 222.496C221.725 222.496 220.561 223.816 220.561 225.784C220.561 227.764 221.737 229.06 223.261 229.06C223.957 229.06 224.545 228.748 224.905 228.208ZM223.297 228.1C222.361 228.1 221.677 227.236 221.677 225.784C221.677 224.344 222.361 223.456 223.297 223.456C224.209 223.456 224.917 224.344 224.917 225.784C224.917 227.236 224.209 228.1 223.297 228.1ZM229.56 223.12C229.56 222.808 229.308 222.556 228.996 222.556C228.684 222.556 228.432 222.808 228.432 223.12V228.436C228.432 228.748 228.684 229 228.996 229C229.308 229 229.56 228.748 229.56 228.436V225.16C229.56 224.86 229.62 224.512 229.788 224.248C230.076 223.768 230.652 223.516 231.168 223.516C231.744 223.516 232.128 223.792 232.272 224.2C232.344 224.404 232.368 224.764 232.368 225.052V228.436C232.368 228.748 232.62 229 232.932 229C233.244 229 233.496 228.748 233.496 228.436V224.992C233.496 224.428 233.448 223.876 233.184 223.432C232.788 222.76 232.056 222.496 231.384 222.496C230.604 222.496 229.944 222.82 229.56 223.264V223.12ZM240.495 223.576C240.627 223.456 240.723 223.288 240.723 223.108C240.723 222.796 240.459 222.556 240.171 222.556C240.015 222.556 239.871 222.628 239.763 222.736L236.979 225.52V220.888C236.979 220.576 236.727 220.324 236.415 220.324C236.103 220.324 235.851 220.576 235.851 220.888V228.436C235.851 228.748 236.103 229 236.415 229C236.727 229 236.979 228.748 236.979 228.436V226.948L237.819 226.144L239.907 228.808C240.039 228.976 240.207 229.024 240.339 229.024C240.639 229.024 240.891 228.772 240.891 228.472C240.891 228.316 240.819 228.184 240.723 228.064L238.575 225.424L240.495 223.576ZM243.881 223.12C243.881 222.808 243.629 222.556 243.317 222.556C243.005 222.556 242.753 222.808 242.753 223.12V228.436C242.753 228.748 243.005 229 243.317 229C243.629 229 243.881 228.748 243.881 228.436V223.12ZM244.181 220.552C244.181 220.084 243.785 219.688 243.317 219.688C242.849 219.688 242.453 220.084 242.453 220.552C242.453 221.02 242.849 221.416 243.317 221.416C243.785 221.416 244.181 221.02 244.181 220.552ZM247.408 223.12C247.408 222.808 247.156 222.556 246.844 222.556C246.532 222.556 246.28 222.808 246.28 223.12V228.436C246.28 228.748 246.532 229 246.844 229C247.156 229 247.408 228.748 247.408 228.436V225.16C247.408 224.86 247.468 224.512 247.636 224.248C247.924 223.768 248.5 223.516 249.016 223.516C249.592 223.516 249.976 223.792 250.12 224.2C250.192 224.404 250.216 224.764 250.216 225.052V228.436C250.216 228.748 250.468 229 250.78 229C251.092 229 251.344 228.748 251.344 228.436V224.992C251.344 224.428 251.296 223.876 251.032 223.432C250.636 222.76 249.904 222.496 249.232 222.496C248.452 222.496 247.792 222.82 247.408 223.264V223.12ZM257.67 228.688C257.67 229.252 257.562 229.756 257.274 230.044C256.974 230.344 256.53 230.464 256.014 230.464C255.474 230.464 255.09 230.26 254.658 229.948C254.562 229.876 254.43 229.828 254.31 229.828C254.01 229.828 253.794 230.044 253.794 230.344C253.794 230.608 253.962 230.752 254.094 230.848C254.586 231.22 255.282 231.448 256.014 231.448C256.938 231.448 257.49 231.244 257.946 230.848C258.546 230.332 258.798 229.66 258.798 228.688V223.12C258.798 222.808 258.546 222.556 258.234 222.556C257.922 222.556 257.67 222.808 257.67 223.12V223.312C257.262 222.748 256.638 222.496 256.014 222.496C254.49 222.496 253.326 223.816 253.326 225.784C253.326 227.764 254.502 229.06 256.026 229.06C256.698 229.06 257.286 228.772 257.67 228.268V228.688ZM256.062 228.1C255.126 228.1 254.442 227.236 254.442 225.784C254.442 224.344 255.126 223.456 256.062 223.456C256.974 223.456 257.682 224.344 257.682 225.784C257.682 227.236 256.974 228.1 256.062 228.1ZM269.272 228.208V228.436C269.272 228.748 269.524 229 269.836 229C270.148 229 270.4 228.748 270.4 228.436V223.12C270.4 222.808 270.148 222.556 269.836 222.556C269.524 222.556 269.272 222.808 269.272 223.12V223.3C268.864 222.748 268.24 222.496 267.616 222.496C266.092 222.496 264.928 223.816 264.928 225.784C264.928 227.764 266.104 229.06 267.628 229.06C268.324 229.06 268.912 228.748 269.272 228.208ZM267.664 228.1C266.728 228.1 266.044 227.236 266.044 225.784C266.044 224.344 266.728 223.456 267.664 223.456C268.576 223.456 269.284 224.344 269.284 225.784C269.284 227.236 268.576 228.1 267.664 228.1ZM275.596 222.496C274.924 222.496 274.36 222.808 273.94 223.312V223.12C273.94 222.808 273.688 222.556 273.376 222.556C273.064 222.556 272.812 222.808 272.812 223.12V230.68C272.812 230.992 273.064 231.244 273.376 231.244C273.688 231.244 273.94 230.992 273.94 230.68V228.292C274.312 228.724 274.852 229.06 275.668 229.06C277.168 229.06 278.284 227.728 278.284 225.784C278.284 223.804 277.108 222.496 275.596 222.496ZM275.548 228.1C274.636 228.1 273.928 227.236 273.928 225.784C273.928 224.344 274.636 223.456 275.548 223.456C276.484 223.456 277.168 224.344 277.168 225.784C277.168 227.236 276.484 228.1 275.548 228.1ZM283.119 222.496C282.447 222.496 281.883 222.808 281.463 223.312V223.12C281.463 222.808 281.211 222.556 280.899 222.556C280.587 222.556 280.335 222.808 280.335 223.12V230.68C280.335 230.992 280.587 231.244 280.899 231.244C281.211 231.244 281.463 230.992 281.463 230.68V228.292C281.835 228.724 282.375 229.06 283.191 229.06C284.691 229.06 285.807 227.728 285.807 225.784C285.807 223.804 284.631 222.496 283.119 222.496ZM283.071 228.1C282.159 228.1 281.451 227.236 281.451 225.784C281.451 224.344 282.159 223.456 283.071 223.456C284.007 223.456 284.691 224.344 284.691 225.784C284.691 227.236 284.007 228.1 283.071 228.1ZM289.706 227.992C289.706 227.392 289.226 226.912 288.626 226.912C288.038 226.912 287.558 227.392 287.558 227.992C287.558 228.58 288.038 229.06 288.626 229.06C289.226 229.06 289.706 228.58 289.706 227.992Z" fill="#888888"/>
<g filter="url(#filter0_d)">
<rect x="48" y="159" width="288" height="50" rx="6" fill="white"/>
</g>
<path d="M148.01 181.425C148.01 180.555 147.695 179.82 147.2 179.28C146.525 178.56 145.505 178.155 144.425 178.155H141.485C141.08 178.155 140.75 178.5 140.75 178.905V188.25C140.75 188.67 141.08 189 141.5 189C141.92 189 142.25 188.67 142.25 188.25V184.665H144.425C145.67 184.665 146.615 184.245 147.215 183.585C147.74 183 148.01 182.265 148.01 181.425ZM146.57 181.395C146.57 181.89 146.465 182.37 146.135 182.73C145.82 183.075 145.28 183.315 144.38 183.315H142.25V179.505H144.35C145.19 179.505 145.76 179.805 146.135 180.225C146.42 180.57 146.57 180.975 146.57 181.395ZM154.999 188.01V188.295C154.999 188.685 155.314 189 155.704 189C156.094 189 156.409 188.685 156.409 188.295V181.65C156.409 181.26 156.094 180.945 155.704 180.945C155.314 180.945 154.999 181.26 154.999 181.65V181.875C154.489 181.185 153.709 180.87 152.929 180.87C151.024 180.87 149.569 182.52 149.569 184.98C149.569 187.455 151.039 189.075 152.944 189.075C153.814 189.075 154.549 188.685 154.999 188.01ZM152.989 187.875C151.819 187.875 150.964 186.795 150.964 184.98C150.964 183.18 151.819 182.07 152.989 182.07C154.129 182.07 155.014 183.18 155.014 184.98C155.014 186.795 154.129 187.875 152.989 187.875ZM161.134 189.975C160.939 190.5 160.699 190.785 160.264 190.785C159.964 190.785 159.709 190.65 159.499 190.47C159.364 190.365 159.214 190.305 159.049 190.305C158.689 190.305 158.419 190.59 158.419 190.935C158.419 191.16 158.539 191.34 158.674 191.475C159.094 191.865 159.619 192.06 160.279 192.06C161.149 192.06 161.869 191.565 162.214 190.695L165.724 181.965C165.769 181.86 165.799 181.755 165.799 181.65C165.799 181.26 165.484 180.945 165.094 180.945C164.839 180.945 164.569 181.065 164.464 181.335L162.499 186.42C162.424 186.615 162.274 187.08 162.229 187.245H162.199C162.154 187.08 162.004 186.615 161.929 186.42L159.979 181.365C159.904 181.17 159.679 180.945 159.334 180.945C158.944 180.945 158.629 181.26 158.629 181.65C158.629 181.785 158.674 181.905 158.704 181.98L161.389 188.61C161.434 188.715 161.494 188.76 161.584 188.79L161.134 189.975ZM176.234 180.87C175.394 180.87 174.689 181.26 174.164 181.89V178.86C174.164 178.47 173.849 178.155 173.459 178.155C173.069 178.155 172.754 178.47 172.754 178.86V188.295C172.754 188.685 173.069 189 173.459 189C173.849 189 174.164 188.685 174.164 188.295V188.115C174.629 188.655 175.304 189.075 176.324 189.075C178.199 189.075 179.594 187.41 179.594 184.98C179.594 182.505 178.124 180.87 176.234 180.87ZM176.174 187.875C175.034 187.875 174.149 186.795 174.149 184.98C174.149 183.18 175.034 182.07 176.174 182.07C177.344 182.07 178.199 183.18 178.199 184.98C178.199 186.795 177.344 187.875 176.174 187.875ZM183.722 189.975C183.527 190.5 183.287 190.785 182.852 190.785C182.552 190.785 182.297 190.65 182.087 190.47C181.952 190.365 181.802 190.305 181.637 190.305C181.277 190.305 181.007 190.59 181.007 190.935C181.007 191.16 181.127 191.34 181.262 191.475C181.682 191.865 182.207 192.06 182.867 192.06C183.737 192.06 184.457 191.565 184.802 190.695L188.312 181.965C188.357 181.86 188.387 181.755 188.387 181.65C188.387 181.26 188.072 180.945 187.682 180.945C187.427 180.945 187.157 181.065 187.052 181.335L185.087 186.42C185.012 186.615 184.862 187.08 184.817 187.245H184.787C184.742 187.08 184.592 186.615 184.517 186.42L182.567 181.365C182.492 181.17 182.267 180.945 181.922 180.945C181.532 180.945 181.217 181.26 181.217 181.65C181.217 181.785 181.262 181.905 181.292 181.98L183.977 188.61C184.022 188.715 184.082 188.76 184.172 188.79L183.722 189.975ZM203.307 185.745C203.307 184.47 202.587 183.51 201.627 183.105C202.257 182.655 202.797 181.995 202.797 181.005C202.797 180.135 202.467 179.43 201.927 178.935C201.372 178.41 200.592 178.155 199.422 178.155H196.227C195.807 178.155 195.477 178.485 195.477 178.905V188.25C195.477 188.655 195.807 189 196.212 189H199.572C201.972 189 203.307 187.575 203.307 185.745ZM201.312 181.035C201.312 181.905 200.877 182.55 199.572 182.55H196.977V179.505H199.377C200.682 179.505 201.312 180.09 201.312 181.035ZM201.762 185.76C201.762 186.885 200.967 187.65 199.602 187.65H196.977V183.87H199.662C201.087 183.87 201.762 184.59 201.762 185.76ZM210.824 188.01V188.295C210.824 188.685 211.139 189 211.529 189C211.919 189 212.234 188.685 212.234 188.295V181.65C212.234 181.26 211.919 180.945 211.529 180.945C211.139 180.945 210.824 181.26 210.824 181.65V181.875C210.314 181.185 209.534 180.87 208.754 180.87C206.849 180.87 205.394 182.52 205.394 184.98C205.394 187.455 206.864 189.075 208.769 189.075C209.639 189.075 210.374 188.685 210.824 188.01ZM208.814 187.875C207.644 187.875 206.789 186.795 206.789 184.98C206.789 183.18 207.644 182.07 208.814 182.07C209.954 182.07 210.839 183.18 210.839 184.98C210.839 186.795 209.954 187.875 208.814 187.875ZM216.644 181.65C216.644 181.26 216.329 180.945 215.939 180.945C215.549 180.945 215.234 181.26 215.234 181.65V188.295C215.234 188.685 215.549 189 215.939 189C216.329 189 216.644 188.685 216.644 188.295V184.2C216.644 183.825 216.719 183.39 216.929 183.06C217.289 182.46 218.009 182.145 218.654 182.145C219.374 182.145 219.854 182.49 220.034 183C220.124 183.255 220.154 183.705 220.154 184.065V188.295C220.154 188.685 220.469 189 220.859 189C221.249 189 221.564 188.685 221.564 188.295V183.99C221.564 183.285 221.504 182.595 221.174 182.04C220.679 181.2 219.764 180.87 218.924 180.87C217.949 180.87 217.124 181.275 216.644 181.83V181.65ZM230.312 182.22C230.477 182.07 230.597 181.86 230.597 181.635C230.597 181.245 230.267 180.945 229.907 180.945C229.712 180.945 229.532 181.035 229.397 181.17L225.917 184.65V178.86C225.917 178.47 225.602 178.155 225.212 178.155C224.822 178.155 224.507 178.47 224.507 178.86V188.295C224.507 188.685 224.822 189 225.212 189C225.602 189 225.917 188.685 225.917 188.295V186.435L226.967 185.43L229.577 188.76C229.742 188.97 229.952 189.03 230.117 189.03C230.492 189.03 230.807 188.715 230.807 188.34C230.807 188.145 230.717 187.98 230.597 187.83L227.912 184.53L230.312 182.22ZM243.111 179.94C243.111 178.96 242.311 178.16 241.311 178.16C240.331 178.16 239.531 178.96 239.531 179.94C239.531 180.94 240.331 181.74 241.311 181.74C242.311 181.74 243.111 180.94 243.111 179.94ZM243.111 187.32C243.111 186.32 242.311 185.52 241.311 185.52C240.331 185.52 239.531 186.32 239.531 187.32C239.531 188.3 240.331 189.1 241.311 189.1C242.311 189.1 243.111 188.3 243.111 187.32Z" fill="#1D1D1D"/>
<defs>
<filter id="filter0_d" x="28" y="139" width="328" height="90" filterUnits="userSpaceOnUse" color-interpolation-filters="sRGB">
<feFlood flood-opacity="0" result="BackgroundImageFix"/>
<feColorMatrix in="SourceAlpha" type="matrix" values="0 0 0 0 0 0 0 0 0 0 0 0 0 0 0 0 0 0 127 0"/>
<feOffset/>
<feGaussianBlur stdDeviation="10"/>
<feColorMatrix type="matrix" values="0 0 0 0 0.207843 0 0 0 0 0.207843 0 0 0 0 0.207843 0 0 0 0.02 0"/>
<feBlend mode="normal" in2="BackgroundImageFix" result="effect1_dropShadow"/>
<feBlend mode="normal" in="SourceGraphic" in2="effect1_dropShadow" result="shape"/>
</filter>
</defs>
</svg>
