<svg width="592" height="384" viewBox="0 0 592 384" fill="none" xmlns="http://www.w3.org/2000/svg">
<circle cx="296" cy="188" r="76" fill="#1D1D1D"/>
<path d="M255 100.75C248.561 100.75 243.625 105.686 243.625 112.125V117.5H237.375V112.125C237.375 102.251 245.126 94.5 255 94.5C264.874 94.5 272.625 102.251 272.625 112.125V117.5H266.375V112.125C266.375 105.686 261.439 100.75 255 100.75Z" fill="white" stroke="#F3F3F3"/>
<path d="M236.875 117.098H273.125C279.011 117.098 283.5 121.587 283.5 127.473V152.848C283.5 158.735 279.011 163.223 273.125 163.223H236.875C230.989 163.223 226.5 158.735 226.5 152.848V127.473C226.5 121.587 230.989 117.098 236.875 117.098ZM259.125 145.598V140.726C260.203 139.585 260.938 138.079 260.938 136.536C260.938 133.36 258.176 130.598 255 130.598C251.824 130.598 249.062 133.36 249.062 136.536C249.062 138.079 249.797 139.585 250.875 140.726V145.598C250.875 146.799 251.278 147.839 252.018 148.58C252.759 149.321 253.799 149.723 255 149.723C256.201 149.723 257.241 149.321 257.982 148.58C258.722 147.839 259.125 146.799 259.125 145.598Z" fill="white" stroke="#F3F3F3"/>
</svg>
