<svg width="592" height="384" viewBox="0 0 592 384" fill="none" xmlns="http://www.w3.org/2000/svg">
<rect x="120" y="64" width="352" height="160" rx="4" fill="#FAFAFA"/>
<path d="M419.725 101.273H418.442L416.265 102.696V103.957L418.353 102.594H418.404V110H419.725V101.273ZM425.397 101.273H424.114L421.936 102.696V103.957L424.025 102.594H424.076V110H425.397V101.273ZM431.053 101.273V110H432.305V103.68H432.386L434.96 109.987H436L438.574 103.685H438.655V110H439.908V101.273H438.31L435.531 108.057H435.429L432.651 101.273H431.053ZM442.559 110L443.36 107.69H446.77L447.566 110H448.964L445.824 101.273H444.302L441.162 110H442.559ZM443.744 106.582L445.031 102.858H445.099L446.386 106.582H443.744ZM450.224 110H451.541V106.697H453.331C453.361 106.697 453.386 106.697 453.416 106.697L455.189 110H456.689L454.754 106.467C455.824 106.071 456.357 105.18 456.357 104.009C456.357 102.402 455.359 101.273 453.335 101.273H450.224V110ZM451.541 105.564V102.402H453.195C454.494 102.402 455.031 103.02 455.031 104.009C455.031 104.993 454.494 105.564 453.212 105.564H451.541Z" fill="#888888"/>
<path d="M399.534 82.5455V88.6484C399.534 89.9318 398.648 90.8551 397.207 90.8551C395.772 90.8551 394.881 89.9318 394.881 88.6484V82.5455H393.454V88.7638C393.454 90.7489 394.941 92.157 397.207 92.157C399.474 92.157 400.965 90.7489 400.965 88.7638V82.5455H399.534ZM403.239 92H404.666V89.0593L405.783 87.7759L408.839 92H410.556L406.729 86.8018L410.542 82.5455H408.747L404.781 87.0604H404.666V82.5455H403.239V92ZM412.871 92L413.738 89.4979H417.432L418.295 92H419.809L416.407 82.5455H414.759L411.356 92H412.871ZM414.154 88.2976L415.548 84.2628H415.622L417.016 88.2976H414.154ZM424.886 92H431.109V90.7766H426.852V90.7074L428.731 88.7408C430.462 86.9911 430.956 86.1555 430.956 85.0984C430.956 83.5795 429.719 82.4162 427.937 82.4162C426.169 82.4162 424.876 83.5611 424.876 85.2876H426.238C426.234 84.272 426.889 83.6072 427.909 83.6072C428.87 83.6072 429.599 84.1982 429.599 85.1399C429.599 85.9755 429.1 86.5756 428.085 87.6513L424.886 90.9659V92ZM433.058 92H439.281V90.7766H435.025V90.7074L436.904 88.7408C438.635 86.9911 439.129 86.1555 439.129 85.0984C439.129 83.5795 437.892 82.4162 436.11 82.4162C434.342 82.4162 433.049 83.5611 433.049 85.2876H434.411C434.406 84.272 435.062 83.6072 436.082 83.6072C437.042 83.6072 437.772 84.1982 437.772 85.1399C437.772 85.9755 437.273 86.5756 436.257 87.6513L433.058 90.9659V92ZM444.375 82.4162C442.39 82.3977 441.092 83.8242 441.092 85.6154C441.097 87.4205 442.404 88.7223 444.042 88.7223C445.044 88.7223 445.903 88.233 446.388 87.4389H446.461C446.457 89.6133 445.64 90.8828 444.255 90.8828C443.35 90.8828 442.768 90.3288 442.584 89.521H441.176C441.383 91.049 442.565 92.1293 444.255 92.1293C446.452 92.1293 447.828 90.2411 447.828 86.9311C447.823 83.478 446.06 82.43 444.375 82.4162ZM444.379 83.6165C445.473 83.6165 446.281 84.5444 446.281 85.5831C446.286 86.6357 445.432 87.5589 444.352 87.5589C443.267 87.5589 442.482 86.6911 442.477 85.5969C442.477 84.4982 443.294 83.6165 444.379 83.6165ZM452.89 92.1293C454.857 92.1293 456.246 91.0121 456.256 89.4794C456.246 88.2884 455.411 87.2866 454.354 87.0973V87.0419C455.272 86.8203 455.896 85.957 455.905 84.9368C455.896 83.4918 454.621 82.4162 452.89 82.4162C451.141 82.4162 449.866 83.4918 449.876 84.9368C449.866 85.9524 450.49 86.8203 451.427 87.0419V87.0973C450.351 87.2866 449.516 88.2884 449.525 89.4794C449.516 91.0121 450.905 92.1293 452.89 92.1293ZM452.89 90.9613C451.708 90.9613 450.96 90.3335 450.97 89.3871C450.96 88.4038 451.773 87.7021 452.89 87.7021C453.989 87.7021 454.801 88.4038 454.811 89.3871C454.801 90.3335 454.058 90.9613 452.89 90.9613ZM452.89 86.5618C451.935 86.5618 451.256 85.957 451.265 85.0568C451.256 84.1705 451.911 83.5842 452.89 83.5842C453.85 83.5842 454.506 84.1705 454.515 85.0568C454.506 85.957 453.832 86.5618 452.89 86.5618Z" fill="#353535"/>
<path d="M145.381 87.2727C145.381 84.2166 143.516 82.4162 141.037 82.4162C138.553 82.4162 136.692 84.2166 136.692 87.2727C136.692 90.3242 138.553 92.1293 141.037 92.1293C143.516 92.1293 145.381 90.3288 145.381 87.2727ZM143.659 87.2727C143.659 89.424 142.578 90.592 141.037 90.592C139.499 90.592 138.414 89.424 138.414 87.2727C138.414 85.1214 139.499 83.9535 141.037 83.9535C142.578 83.9535 143.659 85.1214 143.659 87.2727ZM151.646 89.0178C151.646 90.098 150.875 90.6335 150.136 90.6335C149.333 90.6335 148.797 90.0657 148.797 89.1655V84.9091H147.126V89.424C147.126 91.1275 148.096 92.0923 149.49 92.0923C150.551 92.0923 151.299 91.5337 151.622 90.7397H151.696V92H153.317V84.9091H151.646V89.0178ZM158.776 84.9091H157.377V83.2102H155.706V84.9091H154.7V86.2017H155.706V90.1442C155.697 91.4783 156.666 92.1339 157.922 92.0969C158.398 92.0831 158.725 91.9908 158.905 91.9308L158.624 90.6243C158.531 90.6474 158.342 90.6889 158.134 90.6889C157.714 90.6889 157.377 90.5412 157.377 89.8672V86.2017H158.776V84.9091ZM160.6 92H162.243V90.8828H162.34C162.603 91.3999 163.153 92.1246 164.372 92.1246C166.043 92.1246 167.294 90.7997 167.294 88.4638C167.294 86.1001 166.006 84.8168 164.367 84.8168C163.116 84.8168 162.594 85.5692 162.34 86.0817H162.271V82.5455H160.6V92ZM162.239 88.4545C162.239 87.0788 162.83 86.1879 163.905 86.1879C165.018 86.1879 165.59 87.1342 165.59 88.4545C165.59 89.7841 165.009 90.7536 163.905 90.7536C162.839 90.7536 162.239 89.8303 162.239 88.4545ZM172.008 92.1385C174.085 92.1385 175.405 90.6751 175.405 88.4822C175.405 86.2848 174.085 84.8168 172.008 84.8168C169.93 84.8168 168.61 86.2848 168.61 88.4822C168.61 90.6751 169.93 92.1385 172.008 92.1385ZM172.017 90.7997C170.867 90.7997 170.304 89.7749 170.304 88.4776C170.304 87.1804 170.867 86.1417 172.017 86.1417C173.148 86.1417 173.711 87.1804 173.711 88.4776C173.711 89.7749 173.148 90.7997 172.017 90.7997ZM181.543 89.0178C181.543 90.098 180.772 90.6335 180.034 90.6335C179.23 90.6335 178.695 90.0657 178.695 89.1655V84.9091H177.024V89.424C177.024 91.1275 177.993 92.0923 179.387 92.0923C180.449 92.0923 181.197 91.5337 181.52 90.7397H181.594V92H183.214V84.9091H181.543V89.0178ZM186.804 87.8452C186.804 86.8203 187.423 86.2294 188.304 86.2294C189.168 86.2294 189.685 86.7972 189.685 87.7436V92H191.356V87.4851C191.361 85.7862 190.391 84.8168 188.928 84.8168C187.866 84.8168 187.136 85.3246 186.813 86.114H186.73V84.9091H185.133V92H186.804V87.8452ZM195.886 92.1246C197.105 92.1246 197.654 91.3999 197.917 90.8828H198.019V92H199.662V82.5455H197.987V86.0817H197.917C197.663 85.5692 197.142 84.8168 195.891 84.8168C194.252 84.8168 192.964 86.1001 192.964 88.4638C192.964 90.7997 194.215 92.1246 195.886 92.1246ZM196.352 90.7536C195.249 90.7536 194.667 89.7841 194.667 88.4545C194.667 87.1342 195.24 86.1879 196.352 86.1879C197.428 86.1879 198.019 87.0788 198.019 88.4545C198.019 89.8303 197.419 90.7536 196.352 90.7536ZM208.663 84.9091H207.209V83.2102H205.828V84.9091H204.79V86.017H205.828V90.2042C205.824 91.4922 206.807 92.1154 207.897 92.0923C208.335 92.0877 208.631 92.0046 208.792 91.9446L208.543 90.8043C208.451 90.8228 208.28 90.8643 208.058 90.8643C207.61 90.8643 207.209 90.7166 207.209 89.918V86.017H208.663V84.9091ZM213.301 92.1431C215.299 92.1431 216.606 90.6797 216.606 88.4869C216.606 86.2802 215.299 84.8168 213.301 84.8168C211.302 84.8168 209.995 86.2802 209.995 88.4869C209.995 90.6797 211.302 92.1431 213.301 92.1431ZM213.305 90.9844C211.999 90.9844 211.389 89.8441 211.389 88.4822C211.389 87.125 211.999 85.9709 213.305 85.9709C214.602 85.9709 215.212 87.125 215.212 88.4822C215.212 89.8441 214.602 90.9844 213.305 90.9844ZM227.254 85.0291H228.63C228.589 83.5149 227.25 82.4162 225.329 82.4162C223.432 82.4162 221.978 83.5011 221.978 85.1307C221.978 86.4464 222.92 87.2173 224.438 87.6282L225.556 87.9329C226.567 88.2006 227.347 88.533 227.347 89.3732C227.347 90.2965 226.465 90.9059 225.251 90.9059C224.152 90.9059 223.238 90.4165 223.155 89.3871H221.724C221.816 91.0998 223.141 92.157 225.26 92.157C227.481 92.157 228.759 90.989 228.759 89.3871C228.759 87.6836 227.241 87.0234 226.04 86.728L225.117 86.4879C224.378 86.2987 223.395 85.9524 223.4 85.0476C223.4 84.2443 224.134 83.6488 225.297 83.6488C226.382 83.6488 227.153 84.1566 227.254 85.0291ZM230.664 92H232.091V87.8775H236.107V86.6541H232.091V83.7734H236.527V82.5455H230.664V92ZM246.694 87.2727C246.694 84.2489 244.884 82.4162 242.438 82.4162C239.982 82.4162 238.177 84.2489 238.177 87.2727C238.177 90.2919 239.982 92.1293 242.438 92.1293C244.884 92.1293 246.694 90.2965 246.694 87.2727ZM245.281 87.2727C245.281 89.5763 244.063 90.8274 242.438 90.8274C240.808 90.8274 239.594 89.5763 239.594 87.2727C239.594 84.9691 240.808 83.718 242.438 83.718C244.063 83.718 245.281 84.9691 245.281 87.2727Z" fill="#353535"/>
<path d="M143.562 110V108.564H139.255C139.55 108.218 139.661 107.779 139.638 107.239L139.601 106.265H141.678V104.866H139.55L139.49 103.283C139.485 102.286 140.09 101.824 140.773 101.824C141.443 101.824 142.057 102.198 141.997 103.038L143.599 103.172C143.765 101.644 142.602 100.416 140.732 100.416C139.102 100.416 137.75 101.409 137.819 103.283L137.874 104.866H136.863V106.265H137.92L137.957 107.313C137.971 107.821 137.874 108.504 137.417 108.564H136.896V110H143.562ZM149.059 110.129C151.1 110.143 152.471 108.74 152.466 106.87C152.471 105.083 151.197 103.791 149.539 103.791C148.524 103.791 147.628 104.285 147.176 105.097H147.111C147.116 103.108 147.845 101.898 149.156 101.898C149.969 101.898 150.518 102.369 150.693 103.094H152.378C152.175 101.566 150.943 100.416 149.156 100.416C146.885 100.416 145.449 102.309 145.449 105.54C145.444 109.007 147.245 110.12 149.059 110.129ZM149.05 108.744C148.039 108.744 147.3 107.909 147.296 106.921C147.305 105.928 148.071 105.097 149.073 105.097C150.075 105.097 150.809 105.891 150.804 106.907C150.809 107.941 150.052 108.744 149.05 108.744ZM157.513 110.129C159.512 110.129 160.907 108.772 160.907 106.893C160.907 105.074 159.642 103.763 157.924 103.763C157.158 103.763 156.479 104.068 156.129 104.483H156.073L156.345 101.977H160.413V100.545H154.928L154.434 105.42L155.981 105.674C156.299 105.324 156.899 105.088 157.467 105.093C158.506 105.097 159.254 105.864 159.249 106.935C159.254 107.992 158.524 108.744 157.513 108.744C156.659 108.744 155.972 108.204 155.912 107.429H154.25C154.296 108.998 155.667 110.129 157.513 110.129ZM165.935 100.416C163.886 100.402 162.524 101.81 162.524 103.657C162.528 105.439 163.798 106.727 165.455 106.727C166.476 106.727 167.362 106.233 167.819 105.42H167.884C167.879 107.442 167.145 108.647 165.838 108.647C165.021 108.647 164.472 108.176 164.301 107.424H162.616C162.81 108.989 164.047 110.129 165.838 110.129C168.105 110.129 169.55 108.237 169.545 104.982C169.541 101.538 167.75 100.425 165.935 100.416ZM165.94 101.801C166.951 101.801 167.694 102.641 167.694 103.606C167.699 104.585 166.919 105.425 165.922 105.425C164.915 105.425 164.19 104.631 164.186 103.62C164.186 102.604 164.938 101.801 165.94 101.801Z" fill="#353535"/>
<path d="M411.38 200H410.204L408.208 201.305V202.461L410.122 201.211H410.169V208H411.38V200ZM416.337 208.109C418.009 208.125 419.118 206.922 419.114 205.387C419.118 203.855 418.005 202.758 416.618 202.758C415.774 202.758 415.044 203.164 414.634 203.84H414.575C414.579 202.023 415.267 200.945 416.438 200.945C417.208 200.945 417.692 201.414 417.856 202.078H419.048C418.864 200.812 417.868 199.891 416.438 199.891C414.579 199.891 413.419 201.488 413.419 204.27C413.415 207.215 414.915 208.098 416.337 208.109ZM416.333 207.094C415.403 207.094 414.724 206.312 414.724 205.414C414.728 204.52 415.438 203.738 416.36 203.738C417.274 203.738 417.946 204.477 417.942 205.402C417.946 206.348 417.247 207.094 416.333 207.094ZM421.322 203C421.748 203 422.104 202.652 422.104 202.219C422.104 201.793 421.748 201.441 421.322 201.441C420.893 201.441 420.541 201.793 420.541 202.219C420.541 202.652 420.893 203 421.322 203ZM421.322 207.008C421.748 207.008 422.104 206.66 422.104 206.227C422.104 205.801 421.748 205.449 421.322 205.449C420.893 205.449 420.541 205.801 420.541 206.227C420.541 206.66 420.893 207.008 421.322 207.008ZM423.484 206.438H427.277V208H428.43V206.438H429.488V205.414H428.43V200H426.941L423.484 205.461V206.438ZM427.285 205.414H424.75V205.352L427.223 201.437H427.285V205.414ZM433.635 208.133C435.482 208.133 436.564 206.625 436.564 204.004C436.564 201.402 435.467 199.891 433.635 199.891C431.799 199.891 430.705 201.398 430.701 204.004C430.701 206.621 431.783 208.129 433.635 208.133ZM433.635 207.09C432.553 207.09 431.9 206.004 431.9 204.004C431.904 202.012 432.557 200.914 433.635 200.914C434.709 200.914 435.365 202.012 435.365 204.004C435.365 206.004 434.713 207.09 433.635 207.09ZM440.971 208H442.178V205.188H443.818C445.674 205.188 446.592 204.066 446.592 202.59C446.592 201.117 445.682 200 443.822 200H440.971V208ZM442.178 204.164V201.035H443.693C444.889 201.035 445.377 201.684 445.377 202.59C445.377 203.496 444.889 204.164 443.709 204.164H442.178ZM448.007 200V208H449.155V202.207H449.229L451.589 207.988H452.542L454.901 202.211H454.976V208H456.124V200H454.659L452.112 206.219H452.019L449.472 200H448.007Z" fill="#888888"/>
<path d="M138.805 200H137.629L135.633 201.305V202.461L137.547 201.211H137.594V208H138.805V200ZM143.754 208.109C145.387 208.109 146.586 207.133 146.582 205.805C146.586 204.793 145.973 204.066 144.91 203.902V203.84C145.746 203.625 146.289 202.969 146.285 202.07C146.289 200.895 145.324 199.891 143.785 199.891C142.316 199.891 141.137 200.777 141.098 202.078H142.266C142.293 201.344 142.984 200.898 143.77 200.898C144.586 200.898 145.121 201.395 145.117 202.133C145.121 202.906 144.5 203.414 143.613 203.414H142.938V204.398H143.613C144.723 204.398 145.363 204.961 145.363 205.766C145.363 206.543 144.688 207.07 143.746 207.07C142.879 207.07 142.203 206.625 142.156 205.914H140.93C140.98 207.219 142.137 208.109 143.754 208.109ZM148.844 203C149.27 203 149.625 202.652 149.625 202.219C149.625 201.793 149.27 201.441 148.844 201.441C148.414 201.441 148.062 201.793 148.062 202.219C148.062 202.652 148.414 203 148.844 203ZM148.844 207.008C149.27 207.008 149.625 206.66 149.625 206.227C149.625 205.801 149.27 205.449 148.844 205.449C148.414 205.449 148.062 205.801 148.062 206.227C148.062 206.66 148.414 207.008 148.844 207.008ZM153.959 208.109C155.592 208.109 156.791 207.133 156.787 205.805C156.791 204.793 156.178 204.066 155.115 203.902V203.84C155.951 203.625 156.494 202.969 156.49 202.07C156.494 200.895 155.529 199.891 153.99 199.891C152.521 199.891 151.342 200.777 151.303 202.078H152.471C152.498 201.344 153.189 200.898 153.975 200.898C154.791 200.898 155.326 201.395 155.322 202.133C155.326 202.906 154.705 203.414 153.818 203.414H153.143V204.398H153.818C154.928 204.398 155.568 204.961 155.568 205.766C155.568 206.543 154.893 207.07 153.951 207.07C153.084 207.07 152.408 206.625 152.361 205.914H151.135C151.186 207.219 152.342 208.109 153.959 208.109ZM160.904 208.109C162.514 208.109 163.662 206.973 163.658 205.414C163.662 203.867 162.584 202.742 161.127 202.742C160.533 202.742 159.982 202.969 159.67 203.273H159.623L159.877 201.035H163.271V200H158.873L158.424 204.031L159.529 204.195C159.83 203.926 160.369 203.742 160.854 203.742C161.803 203.75 162.49 204.461 162.49 205.437C162.49 206.398 161.822 207.094 160.904 207.094C160.131 207.094 159.518 206.602 159.455 205.914H158.283C158.33 207.187 159.436 208.109 160.904 208.109ZM168.105 208H169.313V205.188H170.953C172.809 205.188 173.727 204.066 173.727 202.59C173.727 201.117 172.816 200 170.957 200H168.105V208ZM169.313 204.164V201.035H170.828C172.023 201.035 172.512 201.684 172.512 202.59C172.512 203.496 172.023 204.164 170.844 204.164H169.313ZM175.142 200V208H176.29V202.207H176.364L178.724 207.988H179.677L182.036 202.211H182.11V208H183.259V200H181.794L179.247 206.219H179.153L176.606 200H175.142Z" fill="#888888"/>
<path d="M281.221 200H280.045L278.049 201.305V202.461L279.963 201.211H280.01V208H281.221V200ZM286.42 200H285.245L283.249 201.305V202.461L285.163 201.211H285.209V208H286.42V200ZM288.694 208H289.901V204.512H293.889V208H295.1V200H293.889V203.477H289.901V200H288.694V208ZM302.3 208.109C303.91 208.109 305.058 206.973 305.054 205.414C305.058 203.867 303.98 202.742 302.523 202.742C301.929 202.742 301.378 202.969 301.066 203.273H301.019L301.273 201.035H304.667V200H300.269L299.82 204.031L300.925 204.195C301.226 203.926 301.765 203.742 302.25 203.742C303.199 203.75 303.886 204.461 303.886 205.437C303.886 206.398 303.218 207.094 302.3 207.094C301.527 207.094 300.914 206.602 300.851 205.914H299.679C299.726 207.187 300.832 208.109 302.3 208.109ZM306.59 200V208H307.739V202.207H307.813L310.172 207.988H311.125L313.485 202.211H313.559V208H314.708V200H313.243L310.696 206.219H310.602L308.055 200H306.59Z" fill="#888888"/>
<path fill-rule="evenodd" clip-rule="evenodd" d="M307.001 157.555C307.002 156.477 305.865 155.626 304.409 155.623L299.883 155.613L295.047 146.207C295.016 146.147 294.97 146.097 294.913 146.062C294.856 146.027 294.79 146.009 294.723 146.008L293.285 146C293.23 146 293.175 146.012 293.125 146.036C293.075 146.06 293.031 146.095 292.997 146.138C292.962 146.182 292.938 146.232 292.926 146.286C292.914 146.34 292.915 146.396 292.927 146.45L295.094 155.603L288.851 155.587L285.614 151.45C285.575 151.401 285.524 151.362 285.466 151.338C285.407 151.314 285.344 151.305 285.281 151.313L284.321 151.434C284.265 151.441 284.211 151.461 284.164 151.492C284.117 151.523 284.078 151.565 284.05 151.614C284.021 151.663 284.005 151.718 284.002 151.774C283.998 151.831 284.008 151.887 284.03 151.939L286.401 157.544L284.029 163.151C284.007 163.203 283.997 163.259 284.001 163.316C284.004 163.372 284.02 163.427 284.049 163.476C284.077 163.525 284.116 163.567 284.163 163.598C284.21 163.63 284.264 163.65 284.32 163.657L285.28 163.777C285.343 163.785 285.406 163.777 285.465 163.753C285.523 163.728 285.574 163.69 285.613 163.64L288.85 159.503L295.093 159.487L292.926 168.64C292.914 168.694 292.913 168.75 292.925 168.804C292.937 168.858 292.961 168.909 292.996 168.952C293.03 168.995 293.074 169.03 293.124 169.054C293.174 169.078 293.229 169.09 293.284 169.09L294.723 169.082C294.789 169.082 294.855 169.063 294.912 169.028C294.969 168.993 295.015 168.943 295.046 168.883L299.882 159.478L304.408 159.467C305.855 159.464 306.987 158.624 307 157.555H307.001Z" fill="#2EAE9F"/>
<rect x="120" y="128" width="352" height="1" fill="#E7E7E7"/>
<path d="M136.152 168H149.714V164.687H140.104V146.182H136.152V168ZM153.144 168H157.097V158.732H167.207V168H171.17V146.182H167.207V155.418H157.097V146.182H153.144V168ZM175.468 168H179.421V160.01H183.448L187.73 168H192.141L187.422 159.349C189.989 158.316 191.342 156.121 191.342 153.16C191.342 148.994 188.657 146.182 183.65 146.182H175.468V168ZM179.421 156.729V149.484H183.043C185.994 149.484 187.315 150.837 187.315 153.16C187.315 155.482 185.994 156.729 183.064 156.729H179.421Z" fill="#353535"/>
<path d="M411.716 152.18H415.52C415.445 148.494 412.302 145.884 407.657 145.884C403.076 145.884 399.635 148.462 399.646 152.318C399.646 155.45 401.873 157.251 405.463 158.178L407.945 158.817C410.299 159.413 411.855 160.148 411.865 161.842C411.855 163.707 410.086 164.953 407.508 164.953C405.037 164.953 403.119 163.845 402.959 161.555H399.071C399.23 165.891 402.458 168.33 407.54 168.33C412.771 168.33 415.807 165.72 415.818 161.874C415.807 158.092 412.686 156.366 409.404 155.589L407.359 155.077C405.569 154.651 403.63 153.895 403.652 152.073C403.662 150.433 405.132 149.229 407.604 149.229C409.958 149.229 411.514 150.326 411.716 152.18ZM419.341 168H423.294V158.732H432.36V155.418H423.294V149.495H433.319V146.182H419.341V168ZM456.415 157.091C456.415 150.038 452.111 145.884 446.39 145.884C440.659 145.884 436.366 150.038 436.366 157.091C436.366 164.133 440.659 168.298 446.39 168.298C452.111 168.298 456.415 164.143 456.415 157.091ZM452.442 157.091C452.442 162.055 449.949 164.751 446.39 164.751C442.843 164.751 440.339 162.055 440.339 157.091C440.339 152.126 442.843 149.431 446.39 149.431C449.949 149.431 452.442 152.126 452.442 157.091Z" fill="#353535"/>
<path d="M196.48 312.46C196.48 312.16 196.24 311.92 195.94 311.92H191.932V309.196H194.5C194.8 309.196 195.04 308.956 195.04 308.656C195.04 308.356 194.8 308.116 194.5 308.116H191.932V305.404H195.94C196.24 305.404 196.48 305.164 196.48 304.864C196.48 304.564 196.24 304.324 195.94 304.324H191.32C190.996 304.324 190.732 304.6 190.732 304.924V312.4C190.732 312.724 190.996 313 191.32 313H195.94C196.24 313 196.48 312.76 196.48 312.46ZM202.19 312.208V312.436C202.19 312.748 202.442 313 202.754 313C203.066 313 203.318 312.748 203.318 312.436V307.12C203.318 306.808 203.066 306.556 202.754 306.556C202.442 306.556 202.19 306.808 202.19 307.12V307.3C201.782 306.748 201.158 306.496 200.534 306.496C199.01 306.496 197.846 307.816 197.846 309.784C197.846 311.764 199.022 313.06 200.546 313.06C201.242 313.06 201.83 312.748 202.19 312.208ZM200.582 312.1C199.646 312.1 198.962 311.236 198.962 309.784C198.962 308.344 199.646 307.456 200.582 307.456C201.494 307.456 202.202 308.344 202.202 309.784C202.202 311.236 201.494 312.1 200.582 312.1ZM210.374 307.6C210.374 307.456 210.326 307.324 210.218 307.204C209.81 306.748 209.246 306.496 208.562 306.496C207.83 306.496 207.23 306.784 206.846 307.288V307.12C206.846 306.808 206.594 306.556 206.282 306.556C205.97 306.556 205.718 306.808 205.718 307.12V312.436C205.718 312.748 205.97 313 206.282 313C206.594 313 206.846 312.748 206.846 312.436V309.604C206.846 308.848 206.93 308.416 207.17 308.092C207.422 307.756 207.782 307.504 208.37 307.504C208.838 307.504 209.09 307.612 209.462 307.912C209.594 308.02 209.714 308.104 209.894 308.104C210.194 308.104 210.374 307.852 210.374 307.6ZM212.939 307.12C212.939 306.808 212.687 306.556 212.375 306.556C212.063 306.556 211.811 306.808 211.811 307.12V312.436C211.811 312.748 212.063 313 212.375 313C212.687 313 212.939 312.748 212.939 312.436V309.16C212.939 308.86 212.999 308.512 213.167 308.248C213.455 307.768 214.031 307.516 214.547 307.516C215.123 307.516 215.507 307.792 215.651 308.2C215.723 308.404 215.747 308.764 215.747 309.052V312.436C215.747 312.748 215.999 313 216.311 313C216.623 313 216.875 312.748 216.875 312.436V308.992C216.875 308.428 216.827 307.876 216.563 307.432C216.167 306.76 215.435 306.496 214.763 306.496C213.983 306.496 213.323 306.82 212.939 307.264V307.12ZM294.376 307.12C294.376 306.808 294.112 306.556 293.8 306.556C293.5 306.556 293.332 306.748 293.26 307.012L292.228 311.092C292.156 311.368 292.12 311.62 292.108 311.836H292.084C292.06 311.62 291.988 311.332 291.904 311.092L290.908 308.044C290.836 307.84 290.668 307.732 290.476 307.732C290.284 307.732 290.104 307.852 290.044 308.044L289.048 311.08C288.976 311.308 288.892 311.608 288.88 311.836H288.856C288.844 311.608 288.796 311.356 288.724 311.092L287.632 306.976C287.572 306.736 287.392 306.556 287.104 306.556C286.792 306.556 286.528 306.808 286.528 307.12C286.528 307.18 286.54 307.264 286.552 307.3L288.1 312.616C288.172 312.844 288.4 313 288.628 313H289.024C289.216 313 289.396 312.88 289.456 312.688L290.296 310.084C290.392 309.772 290.452 309.508 290.464 309.304H290.488C290.5 309.496 290.548 309.724 290.656 310.06L291.496 312.688C291.556 312.88 291.736 313 291.928 313H292.324C292.564 313 292.804 312.844 292.864 312.616L294.352 307.3C294.364 307.264 294.376 307.192 294.376 307.12ZM297.338 307.12C297.338 306.808 297.086 306.556 296.774 306.556C296.462 306.556 296.21 306.808 296.21 307.12V312.436C296.21 312.748 296.462 313 296.774 313C297.086 313 297.338 312.748 297.338 312.436V307.12ZM297.638 304.552C297.638 304.084 297.242 303.688 296.774 303.688C296.306 303.688 295.91 304.084 295.91 304.552C295.91 305.02 296.306 305.416 296.774 305.416C297.242 305.416 297.638 305.02 297.638 304.552ZM303.817 312.028C303.817 311.752 303.661 311.536 303.385 311.536C303.241 311.536 303.097 311.62 302.941 311.752C302.749 311.92 302.449 312.04 302.233 312.04C301.729 312.04 301.513 311.716 301.513 310.888V307.576H302.929C303.205 307.576 303.433 307.348 303.433 307.06C303.433 306.784 303.205 306.556 302.917 306.556H301.513V304.756C301.513 304.444 301.261 304.192 300.949 304.192C300.637 304.192 300.385 304.444 300.385 304.756V306.556H299.449C299.173 306.556 298.945 306.784 298.945 307.072C298.945 307.348 299.173 307.576 299.461 307.576H300.385V310.96C300.385 312.304 300.985 313.06 302.233 313.06C302.761 313.06 303.325 312.82 303.637 312.448C303.745 312.328 303.817 312.184 303.817 312.028ZM306.561 304.888C306.561 304.576 306.309 304.324 305.997 304.324C305.685 304.324 305.433 304.576 305.433 304.888V312.436C305.433 312.748 305.685 313 305.997 313C306.309 313 306.561 312.748 306.561 312.436V309.16C306.561 308.86 306.621 308.512 306.789 308.248C307.077 307.768 307.653 307.516 308.169 307.516C308.745 307.516 309.129 307.792 309.273 308.2C309.345 308.404 309.369 308.764 309.369 309.052V312.436C309.369 312.748 309.621 313 309.933 313C310.245 313 310.497 312.748 310.497 312.436V308.992C310.497 308.428 310.449 307.876 310.185 307.432C309.789 306.76 309.057 306.496 308.385 306.496C307.605 306.496 306.945 306.82 306.561 307.264V304.888ZM320.716 312.028C320.716 311.752 320.56 311.536 320.284 311.536C320.14 311.536 319.996 311.62 319.84 311.752C319.648 311.92 319.348 312.04 319.132 312.04C318.628 312.04 318.412 311.716 318.412 310.888V307.576H319.828C320.104 307.576 320.332 307.348 320.332 307.06C320.332 306.784 320.104 306.556 319.816 306.556H318.412V304.756C318.412 304.444 318.16 304.192 317.848 304.192C317.536 304.192 317.284 304.444 317.284 304.756V306.556H316.348C316.072 306.556 315.844 306.784 315.844 307.072C315.844 307.348 316.072 307.576 316.36 307.576H317.284V310.96C317.284 312.304 317.884 313.06 319.132 313.06C319.66 313.06 320.224 312.82 320.536 312.448C320.644 312.328 320.716 312.184 320.716 312.028ZM323.459 304.888C323.459 304.576 323.207 304.324 322.895 304.324C322.583 304.324 322.331 304.576 322.331 304.888V312.436C322.331 312.748 322.583 313 322.895 313C323.207 313 323.459 312.748 323.459 312.436V309.16C323.459 308.86 323.519 308.512 323.687 308.248C323.975 307.768 324.551 307.516 325.067 307.516C325.643 307.516 326.027 307.792 326.171 308.2C326.243 308.404 326.267 308.764 326.267 309.052V312.436C326.267 312.748 326.519 313 326.831 313C327.143 313 327.395 312.748 327.395 312.436V308.992C327.395 308.428 327.347 307.876 327.083 307.432C326.687 306.76 325.955 306.496 325.283 306.496C324.503 306.496 323.843 306.82 323.459 307.264V304.888ZM330.865 307.12C330.865 306.808 330.613 306.556 330.301 306.556C329.989 306.556 329.737 306.808 329.737 307.12V312.436C329.737 312.748 329.989 313 330.301 313C330.613 313 330.865 312.748 330.865 312.436V307.12ZM331.165 304.552C331.165 304.084 330.769 303.688 330.301 303.688C329.833 303.688 329.437 304.084 329.437 304.552C329.437 305.02 329.833 305.416 330.301 305.416C330.769 305.416 331.165 305.02 331.165 304.552ZM337.908 311.128C337.908 310.108 337.344 309.544 336.108 309.292L335.1 309.088C334.56 308.98 334.044 308.836 334.044 308.272C334.044 307.9 334.332 307.468 335.232 307.468C335.88 307.468 336.264 307.648 336.732 307.96C336.84 308.032 336.996 308.092 337.116 308.092C337.392 308.092 337.596 307.912 337.596 307.648C337.596 307.468 337.512 307.3 337.32 307.144C336.828 306.736 336.096 306.496 335.304 306.496C334.2 306.496 333.528 306.94 333.18 307.528C333.036 307.768 332.964 308.044 332.964 308.32C332.964 309.328 333.744 309.856 334.764 310.048L335.772 310.24C336.396 310.36 336.84 310.564 336.84 311.164C336.84 311.74 336.336 312.088 335.46 312.088C334.596 312.088 334.152 311.764 333.732 311.344C333.636 311.248 333.492 311.14 333.324 311.14C333.024 311.14 332.784 311.356 332.784 311.656C332.784 311.836 332.868 311.98 332.964 312.1C333.312 312.496 334.08 313.06 335.448 313.06C336.996 313.06 337.908 312.28 337.908 311.128ZM346.689 306.496C346.017 306.496 345.453 306.808 345.033 307.312V307.12C345.033 306.808 344.781 306.556 344.469 306.556C344.157 306.556 343.905 306.808 343.905 307.12V314.68C343.905 314.992 344.157 315.244 344.469 315.244C344.781 315.244 345.033 314.992 345.033 314.68V312.292C345.405 312.724 345.945 313.06 346.761 313.06C348.261 313.06 349.377 311.728 349.377 309.784C349.377 307.804 348.201 306.496 346.689 306.496ZM346.641 312.1C345.729 312.1 345.021 311.236 345.021 309.784C345.021 308.344 345.729 307.456 346.641 307.456C347.577 307.456 348.261 308.344 348.261 309.784C348.261 311.236 347.577 312.1 346.641 312.1ZM355.293 312.436C355.293 312.748 355.545 313 355.857 313C356.169 313 356.421 312.748 356.421 312.436V307.12C356.421 306.808 356.169 306.556 355.857 306.556C355.545 306.556 355.293 306.808 355.293 307.12V310.396C355.293 310.696 355.233 311.044 355.065 311.308C354.777 311.788 354.201 312.04 353.685 312.04C353.109 312.04 352.725 311.764 352.581 311.356C352.509 311.152 352.485 310.792 352.485 310.504V307.12C352.485 306.808 352.233 306.556 351.921 306.556C351.609 306.556 351.357 306.808 351.357 307.12V310.564C351.357 311.128 351.405 311.68 351.669 312.124C352.065 312.796 352.797 313.06 353.469 313.06C354.249 313.06 354.909 312.736 355.293 312.292V312.436ZM363.479 307.6C363.479 307.456 363.431 307.324 363.323 307.204C362.915 306.748 362.351 306.496 361.667 306.496C360.935 306.496 360.335 306.784 359.951 307.288V307.12C359.951 306.808 359.699 306.556 359.387 306.556C359.075 306.556 358.823 306.808 358.823 307.12V312.436C358.823 312.748 359.075 313 359.387 313C359.699 313 359.951 312.748 359.951 312.436V309.604C359.951 308.848 360.035 308.416 360.275 308.092C360.527 307.756 360.887 307.504 361.475 307.504C361.943 307.504 362.195 307.612 362.567 307.912C362.699 308.02 362.819 308.104 362.999 308.104C363.299 308.104 363.479 307.852 363.479 307.6ZM367.187 307.492C367.799 307.492 368.195 307.804 368.483 308.284C368.627 308.524 368.771 308.668 369.011 308.668C369.299 308.668 369.503 308.452 369.503 308.2C369.503 308.02 369.443 307.888 369.395 307.792C368.975 307 368.219 306.496 367.199 306.496C365.663 306.496 364.475 307.792 364.475 309.784C364.475 311.776 365.663 313.06 367.211 313.06C368.255 313.06 369.083 312.46 369.407 311.8C369.455 311.692 369.515 311.536 369.515 311.416C369.515 311.128 369.299 310.888 369.011 310.888C368.831 310.888 368.639 310.972 368.507 311.248C368.267 311.764 367.811 312.064 367.211 312.064C366.275 312.064 365.591 311.236 365.591 309.784C365.591 308.716 366.047 307.492 367.187 307.492ZM372.608 304.888C372.608 304.576 372.356 304.324 372.044 304.324C371.732 304.324 371.48 304.576 371.48 304.888V312.436C371.48 312.748 371.732 313 372.044 313C372.356 313 372.608 312.748 372.608 312.436V309.16C372.608 308.86 372.668 308.512 372.836 308.248C373.124 307.768 373.7 307.516 374.216 307.516C374.792 307.516 375.176 307.792 375.32 308.2C375.392 308.404 375.416 308.764 375.416 309.052V312.436C375.416 312.748 375.668 313 375.98 313C376.292 313 376.544 312.748 376.544 312.436V308.992C376.544 308.428 376.496 307.876 376.232 307.432C375.836 306.76 375.104 306.496 374.432 306.496C373.652 306.496 372.992 306.82 372.608 307.264V304.888ZM382.87 312.208V312.436C382.87 312.748 383.122 313 383.434 313C383.746 313 383.998 312.748 383.998 312.436V307.12C383.998 306.808 383.746 306.556 383.434 306.556C383.122 306.556 382.87 306.808 382.87 307.12V307.3C382.462 306.748 381.838 306.496 381.214 306.496C379.69 306.496 378.526 307.816 378.526 309.784C378.526 311.764 379.702 313.06 381.226 313.06C381.922 313.06 382.51 312.748 382.87 312.208ZM381.262 312.1C380.326 312.1 379.642 311.236 379.642 309.784C379.642 308.344 380.326 307.456 381.262 307.456C382.174 307.456 382.882 308.344 382.882 309.784C382.882 311.236 382.174 312.1 381.262 312.1ZM391.041 311.128C391.041 310.108 390.477 309.544 389.241 309.292L388.233 309.088C387.693 308.98 387.177 308.836 387.177 308.272C387.177 307.9 387.465 307.468 388.365 307.468C389.013 307.468 389.397 307.648 389.865 307.96C389.973 308.032 390.129 308.092 390.249 308.092C390.525 308.092 390.729 307.912 390.729 307.648C390.729 307.468 390.645 307.3 390.453 307.144C389.961 306.736 389.229 306.496 388.437 306.496C387.333 306.496 386.661 306.94 386.313 307.528C386.169 307.768 386.097 308.044 386.097 308.32C386.097 309.328 386.877 309.856 387.897 310.048L388.905 310.24C389.529 310.36 389.973 310.564 389.973 311.164C389.973 311.74 389.469 312.088 388.593 312.088C387.729 312.088 387.285 311.764 386.865 311.344C386.769 311.248 386.625 311.14 386.457 311.14C386.157 311.14 385.917 311.356 385.917 311.656C385.917 311.836 386.001 311.98 386.097 312.1C386.445 312.496 387.213 313.06 388.581 313.06C390.129 313.06 391.041 312.28 391.041 311.128ZM397.844 309.604C397.844 307.588 396.728 306.496 395.312 306.496C393.884 306.496 392.588 307.672 392.588 309.784C392.588 311.812 393.764 313.06 395.312 313.06C396.344 313.06 397.04 312.604 397.436 312.004C397.496 311.908 397.568 311.776 397.568 311.632C397.568 311.344 397.388 311.128 397.1 311.128C396.908 311.128 396.764 311.224 396.644 311.392C396.308 311.86 395.912 312.1 395.288 312.1C394.388 312.1 393.788 311.308 393.704 310.192H397.304C397.604 310.192 397.844 310.012 397.844 309.604ZM396.74 309.232H393.728C393.812 308.14 394.448 307.456 395.312 307.456C396.164 307.456 396.704 308.14 396.74 309.232ZM401.675 311.992C401.675 311.392 401.195 310.912 400.595 310.912C400.007 310.912 399.527 311.392 399.527 311.992C399.527 312.58 400.007 313.06 400.595 313.06C401.195 313.06 401.675 312.58 401.675 311.992Z" fill="#888888"/>
<path d="M229.236 309.832C229.236 307.888 228.12 306.544 226.38 306.544C225.78 306.544 225.204 306.772 224.796 307.084C224.976 306.58 225.108 306.34 225.336 306.016C225.9 305.212 226.776 304.552 227.88 304.18C228.156 304.084 228.36 303.916 228.36 303.676C228.36 303.352 228.084 303.232 227.832 303.232C226.92 303.232 225.6 304.144 224.856 304.984C224.052 305.884 223.236 307.648 223.236 309.496C223.236 310.264 223.404 310.96 223.668 311.488C224.148 312.436 224.94 313.12 226.284 313.12C228.12 313.12 229.236 311.656 229.236 309.832ZM226.248 312.1C225.18 312.1 224.388 311.188 224.388 309.832C224.388 308.464 225.084 307.576 226.236 307.576C227.388 307.576 228.108 308.464 228.108 309.832C228.108 311.2 227.424 312.1 226.248 312.1ZM237.176 309.892C237.176 308.032 236.108 306.784 234.404 306.784C233.744 306.784 233.144 306.988 232.676 307.324L232.904 305.38H236.12C236.42 305.38 236.66 305.152 236.66 304.852C236.66 304.552 236.42 304.324 236.12 304.324H232.556C232.208 304.324 231.992 304.504 231.956 304.792L231.608 307.78C231.596 307.876 231.584 308.008 231.584 308.068C231.584 308.272 231.68 308.368 231.908 308.464L232.196 308.584C232.316 308.632 232.4 308.644 232.484 308.644C232.604 308.644 232.664 308.608 232.784 308.488C233.144 308.104 233.6 307.804 234.248 307.804C235.412 307.804 236.024 308.644 236.024 309.892C236.024 311.128 235.352 312.028 234.164 312.028C233.492 312.028 233 311.872 232.52 311.62C232.412 311.56 232.304 311.548 232.244 311.548C231.944 311.548 231.74 311.752 231.728 312.028C231.728 312.304 231.896 312.472 232.112 312.592C232.784 312.964 233.504 313.084 234.164 313.084C236.024 313.084 237.176 311.692 237.176 309.892ZM245.44 308.656C245.44 306.124 244.48 304.192 242.488 304.192C240.496 304.192 239.536 306.124 239.536 308.656C239.536 311.188 240.496 313.12 242.488 313.12C244.48 313.12 245.44 311.188 245.44 308.656ZM244.276 308.656C244.276 310.924 243.568 312.052 242.488 312.052C241.408 312.052 240.7 310.924 240.7 308.656C240.7 306.388 241.408 305.26 242.488 305.26C243.568 305.26 244.276 306.388 244.276 308.656ZM256.542 312.556C256.65 312.868 256.914 313 257.154 313C257.514 313 257.742 312.736 257.742 312.412C257.742 312.292 257.718 312.208 257.694 312.136L254.982 304.708C254.898 304.48 254.694 304.324 254.466 304.324H254.118C253.89 304.324 253.674 304.48 253.59 304.708L250.878 312.172C250.854 312.256 250.818 312.364 250.818 312.448C250.818 312.76 251.046 313 251.394 313C251.706 313 251.898 312.82 251.97 312.604L252.486 311.008H256.014L256.542 312.556ZM255.678 309.928H252.834L254.034 306.52C254.106 306.316 254.19 306.052 254.25 305.812H254.274C254.334 306.052 254.418 306.316 254.49 306.52L255.678 309.928ZM259.657 306.916C259.573 306.7 259.357 306.556 259.129 306.556C258.817 306.556 258.565 306.82 258.565 307.12C258.565 307.204 258.589 307.3 258.625 307.372L260.773 312.688C260.857 312.904 261.073 313 261.277 313H261.589C261.793 313 262.009 312.904 262.093 312.688L264.241 307.384C264.277 307.3 264.301 307.204 264.301 307.12C264.301 306.808 264.049 306.556 263.737 306.556C263.509 306.556 263.293 306.7 263.209 306.916L261.661 310.936C261.601 311.092 261.481 311.464 261.445 311.596H261.421C261.385 311.464 261.265 311.092 261.205 310.936L259.657 306.916ZM267.162 307.12C267.162 306.808 266.91 306.556 266.598 306.556C266.286 306.556 266.034 306.808 266.034 307.12V312.436C266.034 312.748 266.286 313 266.598 313C266.91 313 267.162 312.748 267.162 312.436V307.12ZM267.462 304.552C267.462 304.084 267.066 303.688 266.598 303.688C266.13 303.688 265.734 304.084 265.734 304.552C265.734 305.02 266.13 305.416 266.598 305.416C267.066 305.416 267.462 305.02 267.462 304.552ZM271.937 306.496C270.401 306.496 269.201 307.792 269.201 309.784C269.201 311.776 270.389 313.06 271.937 313.06C273.485 313.06 274.673 311.776 274.673 309.784C274.673 307.792 273.473 306.496 271.937 306.496ZM271.937 312.1C271.001 312.1 270.317 311.236 270.317 309.784C270.317 308.344 271.001 307.456 271.937 307.456C272.873 307.456 273.557 308.344 273.557 309.784C273.557 311.236 272.873 312.1 271.937 312.1ZM281.354 311.128C281.354 310.108 280.79 309.544 279.554 309.292L278.546 309.088C278.006 308.98 277.49 308.836 277.49 308.272C277.49 307.9 277.778 307.468 278.678 307.468C279.326 307.468 279.71 307.648 280.178 307.96C280.286 308.032 280.442 308.092 280.562 308.092C280.838 308.092 281.042 307.912 281.042 307.648C281.042 307.468 280.958 307.3 280.766 307.144C280.274 306.736 279.542 306.496 278.75 306.496C277.646 306.496 276.974 306.94 276.626 307.528C276.482 307.768 276.41 308.044 276.41 308.32C276.41 309.328 277.19 309.856 278.21 310.048L279.218 310.24C279.842 310.36 280.286 310.564 280.286 311.164C280.286 311.74 279.782 312.088 278.906 312.088C278.042 312.088 277.598 311.764 277.178 311.344C277.082 311.248 276.938 311.14 276.77 311.14C276.47 311.14 276.23 311.356 276.23 311.656C276.23 311.836 276.314 311.98 276.41 312.1C276.758 312.496 277.526 313.06 278.894 313.06C280.442 313.06 281.354 312.28 281.354 311.128Z" fill="#353535"/>
<g filter="url(#filter0_d)">
<rect x="120" y="240" width="352" height="50" rx="6" fill="#1D1D1D"/>
</g>
<path d="M252.01 262.425C252.01 261.555 251.695 260.82 251.2 260.28C250.525 259.56 249.505 259.155 248.425 259.155H245.485C245.08 259.155 244.75 259.5 244.75 259.905V269.25C244.75 269.67 245.08 270 245.5 270C245.92 270 246.25 269.67 246.25 269.25V265.665H248.425C249.67 265.665 250.615 265.245 251.215 264.585C251.74 264 252.01 263.265 252.01 262.425ZM250.57 262.395C250.57 262.89 250.465 263.37 250.135 263.73C249.82 264.075 249.28 264.315 248.38 264.315H246.25V260.505H248.35C249.19 260.505 249.76 260.805 250.135 261.225C250.42 261.57 250.57 261.975 250.57 262.395ZM258.999 269.01V269.295C258.999 269.685 259.314 270 259.704 270C260.094 270 260.409 269.685 260.409 269.295V262.65C260.409 262.26 260.094 261.945 259.704 261.945C259.314 261.945 258.999 262.26 258.999 262.65V262.875C258.489 262.185 257.709 261.87 256.929 261.87C255.024 261.87 253.569 263.52 253.569 265.98C253.569 268.455 255.039 270.075 256.944 270.075C257.814 270.075 258.549 269.685 258.999 269.01ZM256.989 268.875C255.819 268.875 254.964 267.795 254.964 265.98C254.964 264.18 255.819 263.07 256.989 263.07C258.129 263.07 259.014 264.18 259.014 265.98C259.014 267.795 258.129 268.875 256.989 268.875ZM265.134 270.975C264.939 271.5 264.699 271.785 264.264 271.785C263.964 271.785 263.709 271.65 263.499 271.47C263.364 271.365 263.214 271.305 263.049 271.305C262.689 271.305 262.419 271.59 262.419 271.935C262.419 272.16 262.539 272.34 262.674 272.475C263.094 272.865 263.619 273.06 264.279 273.06C265.149 273.06 265.869 272.565 266.214 271.695L269.724 262.965C269.769 262.86 269.799 262.755 269.799 262.65C269.799 262.26 269.484 261.945 269.094 261.945C268.839 261.945 268.569 262.065 268.464 262.335L266.499 267.42C266.424 267.615 266.274 268.08 266.229 268.245H266.199C266.154 268.08 266.004 267.615 265.929 267.42L263.979 262.365C263.904 262.17 263.679 261.945 263.334 261.945C262.944 261.945 262.629 262.26 262.629 262.65C262.629 262.785 262.674 262.905 262.704 262.98L265.389 269.61C265.434 269.715 265.494 269.76 265.584 269.79L265.134 270.975ZM280.234 261.87C279.394 261.87 278.689 262.26 278.164 262.89V259.86C278.164 259.47 277.849 259.155 277.459 259.155C277.069 259.155 276.754 259.47 276.754 259.86V269.295C276.754 269.685 277.069 270 277.459 270C277.849 270 278.164 269.685 278.164 269.295V269.115C278.629 269.655 279.304 270.075 280.324 270.075C282.199 270.075 283.594 268.41 283.594 265.98C283.594 263.505 282.124 261.87 280.234 261.87ZM280.174 268.875C279.034 268.875 278.149 267.795 278.149 265.98C278.149 264.18 279.034 263.07 280.174 263.07C281.344 263.07 282.199 264.18 282.199 265.98C282.199 267.795 281.344 268.875 280.174 268.875ZM287.722 270.975C287.527 271.5 287.287 271.785 286.852 271.785C286.552 271.785 286.297 271.65 286.087 271.47C285.952 271.365 285.802 271.305 285.637 271.305C285.277 271.305 285.007 271.59 285.007 271.935C285.007 272.16 285.127 272.34 285.262 272.475C285.682 272.865 286.207 273.06 286.867 273.06C287.737 273.06 288.457 272.565 288.802 271.695L292.312 262.965C292.357 262.86 292.387 262.755 292.387 262.65C292.387 262.26 292.072 261.945 291.682 261.945C291.427 261.945 291.157 262.065 291.052 262.335L289.087 267.42C289.012 267.615 288.862 268.08 288.817 268.245H288.787C288.742 268.08 288.592 267.615 288.517 267.42L286.567 262.365C286.492 262.17 286.267 261.945 285.922 261.945C285.532 261.945 285.217 262.26 285.217 262.65C285.217 262.785 285.262 262.905 285.292 262.98L287.977 269.61C288.022 269.715 288.082 269.76 288.172 269.79L287.722 270.975ZM307.307 266.745C307.307 265.47 306.587 264.51 305.627 264.105C306.257 263.655 306.797 262.995 306.797 262.005C306.797 261.135 306.467 260.43 305.927 259.935C305.372 259.41 304.592 259.155 303.422 259.155H300.227C299.807 259.155 299.477 259.485 299.477 259.905V269.25C299.477 269.655 299.807 270 300.212 270H303.572C305.972 270 307.307 268.575 307.307 266.745ZM305.312 262.035C305.312 262.905 304.877 263.55 303.572 263.55H300.977V260.505H303.377C304.682 260.505 305.312 261.09 305.312 262.035ZM305.762 266.76C305.762 267.885 304.967 268.65 303.602 268.65H300.977V264.87H303.662C305.087 264.87 305.762 265.59 305.762 266.76ZM314.824 269.01V269.295C314.824 269.685 315.139 270 315.529 270C315.919 270 316.234 269.685 316.234 269.295V262.65C316.234 262.26 315.919 261.945 315.529 261.945C315.139 261.945 314.824 262.26 314.824 262.65V262.875C314.314 262.185 313.534 261.87 312.754 261.87C310.849 261.87 309.394 263.52 309.394 265.98C309.394 268.455 310.864 270.075 312.769 270.075C313.639 270.075 314.374 269.685 314.824 269.01ZM312.814 268.875C311.644 268.875 310.789 267.795 310.789 265.98C310.789 264.18 311.644 263.07 312.814 263.07C313.954 263.07 314.839 264.18 314.839 265.98C314.839 267.795 313.954 268.875 312.814 268.875ZM320.644 262.65C320.644 262.26 320.329 261.945 319.939 261.945C319.549 261.945 319.234 262.26 319.234 262.65V269.295C319.234 269.685 319.549 270 319.939 270C320.329 270 320.644 269.685 320.644 269.295V265.2C320.644 264.825 320.719 264.39 320.929 264.06C321.289 263.46 322.009 263.145 322.654 263.145C323.374 263.145 323.854 263.49 324.034 264C324.124 264.255 324.154 264.705 324.154 265.065V269.295C324.154 269.685 324.469 270 324.859 270C325.249 270 325.564 269.685 325.564 269.295V264.99C325.564 264.285 325.504 263.595 325.174 263.04C324.679 262.2 323.764 261.87 322.924 261.87C321.949 261.87 321.124 262.275 320.644 262.83V262.65ZM334.312 263.22C334.477 263.07 334.597 262.86 334.597 262.635C334.597 262.245 334.267 261.945 333.907 261.945C333.712 261.945 333.532 262.035 333.397 262.17L329.917 265.65V259.86C329.917 259.47 329.602 259.155 329.212 259.155C328.822 259.155 328.507 259.47 328.507 259.86V269.295C328.507 269.685 328.822 270 329.212 270C329.602 270 329.917 269.685 329.917 269.295V267.435L330.967 266.43L333.577 269.76C333.742 269.97 333.952 270.03 334.117 270.03C334.492 270.03 334.807 269.715 334.807 269.34C334.807 269.145 334.717 268.98 334.597 268.83L331.912 265.53L334.312 263.22ZM347.111 260.94C347.111 259.96 346.311 259.16 345.311 259.16C344.331 259.16 343.531 259.96 343.531 260.94C343.531 261.94 344.331 262.74 345.311 262.74C346.311 262.74 347.111 261.94 347.111 260.94ZM347.111 268.32C347.111 267.32 346.311 266.52 345.311 266.52C344.331 266.52 343.531 267.32 343.531 268.32C343.531 269.3 344.331 270.1 345.311 270.1C346.311 270.1 347.111 269.3 347.111 268.32Z" fill="#FAFAFA"/>
<defs>
<filter id="filter0_d" x="100" y="220" width="392" height="90" filterUnits="userSpaceOnUse" color-interpolation-filters="sRGB">
<feFlood flood-opacity="0" result="BackgroundImageFix"/>
<feColorMatrix in="SourceAlpha" type="matrix" values="0 0 0 0 0 0 0 0 0 0 0 0 0 0 0 0 0 0 127 0"/>
<feOffset/>
<feGaussianBlur stdDeviation="10"/>
<feColorMatrix type="matrix" values="0 0 0 0 0.207843 0 0 0 0 0.207843 0 0 0 0 0.207843 0 0 0 0.02 0"/>
<feBlend mode="normal" in2="BackgroundImageFix" result="effect1_dropShadow"/>
<feBlend mode="normal" in="SourceGraphic" in2="effect1_dropShadow" result="shape"/>
</filter>
</defs>
</svg>
