<svg width="176" height="112" viewBox="0 0 176 112" fill="none" xmlns="http://www.w3.org/2000/svg">
<rect width="176" height="112" fill="#FAFAFA"/>
<path d="M86.8362 39.002C85.9879 39.002 85.8125 39.1499 85.5372 39.4568C85.4292 39.4496 85.316 39.4476 85.1977 39.4476C84.5452 39.4476 83.7071 39.5434 82.9924 40.0216C82.3022 40.4773 81.9739 41.2838 82.3419 41.8741C82.3419 41.8741 82.5887 41.5122 83.4002 41.5122C83.5144 41.5122 83.6408 41.5244 83.7754 41.5357C84.8969 41.6682 85.7269 42.2585 85.6259 43.8174C85.5362 45.3753 84.952 47.1127 82.5621 47.1331C82.5621 47.1331 82.2542 47.1331 81.9259 47.1025C80.8136 46.9811 80.4639 46.2827 80.4639 46.2827C80.4639 46.2827 81.4253 46.0217 81.4335 44.8013C81.4253 43.9714 80.7025 43.2118 79.6594 42.9049C79.3179 42.805 78.9427 42.7561 78.5522 42.7561C77.3226 42.7561 75.9421 43.2709 75.0113 44.4863C72.9008 47.2727 72.7295 51.3347 73.2444 55.1122C73.7623 58.8978 76.1634 62.4041 76.2337 62.4999C76.2847 62.5672 76.3306 62.6039 76.3826 62.6039C76.4091 62.6039 76.4366 62.5917 76.4652 62.5682C77.5021 61.5619 78.491 60.1865 78.9141 59.2669C79.3668 59.6278 79.1303 60.3955 78.8815 61.2153C78.645 62.0533 78.07 63.1657 77.862 63.5246C77.6611 63.8753 77.3919 64.2831 77.7539 64.4962C77.7906 64.5186 77.8375 64.5309 77.8936 64.5309C78.3585 64.5309 79.4525 63.7203 80.6729 62.0931C82.0391 60.262 82.7324 58.6368 82.7324 58.6368C82.8323 58.6592 82.9995 58.8285 82.972 59.2893C82.9537 59.7573 82.4724 61.4987 81.5354 63.1198C80.5883 64.7399 79.7135 65.7533 79.5371 65.9838C79.428 66.1173 79.5208 66.2009 79.5911 66.255C79.6605 66.3019 81.3356 67.8659 83.7693 69.1872C86.6526 70.7237 87.9312 71 87.9312 71C87.9312 71 89.2066 70.7308 92.09 69.1954C94.5226 67.872 96.2049 66.3008 96.2671 66.2478C96.3375 66.1999 96.4272 66.1245 96.3211 65.9776C96.155 65.7574 95.2771 64.7389 94.332 63.1188C93.3981 61.5089 92.8985 59.7563 92.8913 59.2944C92.872 58.8285 93.029 58.6745 93.1248 58.6358C93.1248 58.6358 93.8253 60.2711 95.1915 62.0921C96.418 63.7213 97.5018 64.5299 97.9688 64.5299C98.0279 64.5299 98.0748 64.5176 98.1135 64.4952C98.4643 64.2821 98.2033 63.8682 97.9973 63.5215C97.8056 63.1647 97.2224 62.0595 96.9747 61.2142C96.7371 60.3853 96.4904 59.6186 96.9512 59.2659C97.3754 60.1855 98.3572 61.568 99.3972 62.5601C99.4247 62.5886 99.4563 62.6029 99.4869 62.6029C99.5328 62.6029 99.5817 62.5672 99.6245 62.505C99.701 62.403 102.106 58.9029 102.62 55.1111C103.136 51.3255 102.966 47.2727 100.853 44.4852C99.9284 43.2669 98.5377 42.7489 97.2999 42.7489C96.9135 42.7489 96.5444 42.7989 96.207 42.8958C95.1558 43.2118 94.436 43.9785 94.4421 44.8003C94.4421 46.0207 95.4086 46.2817 95.4086 46.2817C95.4086 46.2817 95.0854 46.9628 93.9333 47.1014C93.7182 47.128 93.5092 47.1402 93.3094 47.1402C92.4427 47.1402 91.7127 46.8649 91.0398 45.9147C90.3873 45.0001 90.4087 43.117 90.371 42.4889C90.3414 41.8517 90.2048 40.4223 89.5349 39.8391C88.8671 39.2406 88.0535 39.0398 87.039 39C86.9646 39.002 86.8983 39.002 86.8362 39.002Z" fill="#00B0F0"/>
</svg>
