<svg width="176" height="112" viewBox="0 0 176 112" fill="none" xmlns="http://www.w3.org/2000/svg">
<rect width="176" height="112" fill="#FAFAFA"/>
<path fill-rule="evenodd" clip-rule="evenodd" d="M98.655 45.0963C99.5414 46.5345 100.007 48.1941 99.9999 49.8855V50.0889V50.2922C99.924 51.7882 99.783 54.6567 96.3845 57.4489C98.5068 62.3943 98.9478 63.302 99.3672 64.1045C100.015 65.3431 99.6909 66.8693 98.5971 67.7355C97.2848 68.7703 96.0013 69.1915 93.6983 69.3403C93.5067 69.3621 93.3115 69.3621 93.1234 69.3621C90.8975 69.4087 88.7886 68.3626 87.4726 66.559C87.278 67.0544 86.9516 67.4865 86.529 67.8081C85.184 68.832 83.9403 69.206 81.6265 69.2822C81.4204 69.304 81.218 69.304 81.0264 69.304C78.9149 69.304 77.7399 68.3927 77.1073 67.6301C75.5129 65.7021 75.9973 63.0842 76.3842 60.9818C76.5091 60.3734 76.6033 59.759 76.6662 59.1409V59.061C76.7168 58.56 76.8723 57.6195 77.1615 55.8585C77.5772 53.3277 78.6764 46.6503 78.557 45.1616C78.3772 44.4022 78.5092 43.602 78.9235 42.9415C79.3377 42.281 79.9992 41.8157 80.7588 41.6505C82.8078 41.1836 84.9054 40.9665 87.0062 41.0042C88.0077 41.0042 89.1538 41.0368 90.5059 41.1022C95.2059 41.193 97.5306 43.3244 98.655 45.0963Z" fill="#353535"/>
<path fill-rule="evenodd" clip-rule="evenodd" d="M81.3721 44.4862C83.6715 43.9924 85.4394 43.7455 90.4106 43.9924C96.9725 44.1158 97.1208 48.9995 97.1208 49.9073C97.1165 49.9811 97.1127 50.0578 97.1088 50.1372C97.0366 51.6036 96.9191 53.9919 92.7931 56.4031C95.982 65.0954 96.2823 65.2246 96.7808 65.439C96.7904 65.4431 96.8001 65.4472 96.8098 65.4515C96.5604 65.7383 95.6963 66.1668 93.3716 66.3048C90.0491 66.5408 89.2501 63.8066 89.2501 63.8066L87.3014 57.9208H85.4467C85.3476 58.5625 85.2485 59.1784 85.1546 59.7627C84.6729 62.7591 84.3246 64.9251 84.7814 65.4842C84.0202 65.8748 83.5066 65.9492 81.9029 66.1816C81.7624 66.202 81.6135 66.2236 81.4553 66.2467C78.2877 66.6923 78.7583 64.0973 79.228 61.5075C79.363 60.763 79.4979 60.019 79.5464 59.3478C79.5889 58.915 79.7765 57.7751 80.0187 56.3042C80.6826 52.2714 81.7563 45.7499 81.3721 44.4862ZM86.4592 54.7401C88.0275 54.771 90.7482 54.8245 91.1964 50.8584C91.6157 47.1693 89.2693 46.8716 87.1471 47.0169C87.0745 47.5084 87.0048 47.9843 86.9356 48.4572C86.6601 50.3388 86.3918 52.1712 85.9757 54.7363C86.1188 54.7334 86.2816 54.7366 86.4592 54.7401Z" fill="white"/>
</svg>
