<svg width="488" height="312" viewBox="0 0 488 312" fill="none" xmlns="http://www.w3.org/2000/svg">
<mask id="mask0" mask-type="alpha" maskUnits="userSpaceOnUse" x="0" y="0" width="488" height="312">
<rect x="488" y="312" width="488" height="312" transform="rotate(-180 488 312)" fill="#F3F3F3"/>
</mask>
<g mask="url(#mask0)">
<rect width="250" height="60" transform="matrix(1 0 0 -1 125 260)" fill="#F3F3F3" stroke="#CFCFCF" stroke-linejoin="round"/>
<path d="M198.252 233.482C198.378 233.846 198.686 234 198.966 234C199.386 234 199.652 233.692 199.652 233.314C199.652 233.174 199.624 233.076 199.596 232.992L196.432 224.326C196.334 224.06 196.096 223.878 195.83 223.878H195.424C195.158 223.878 194.906 224.06 194.808 224.326L191.644 233.034C191.616 233.132 191.574 233.258 191.574 233.356C191.574 233.72 191.84 234 192.246 234C192.61 234 192.834 233.79 192.918 233.538L193.52 231.676H197.636L198.252 233.482ZM197.244 230.416H193.926L195.326 226.44C195.41 226.202 195.508 225.894 195.578 225.614H195.606C195.676 225.894 195.774 226.202 195.858 226.44L197.244 230.416ZM206.164 233.342C206.164 233.706 206.458 234 206.822 234C207.186 234 207.48 233.706 207.48 233.342V227.14C207.48 226.776 207.186 226.482 206.822 226.482C206.458 226.482 206.164 226.776 206.164 227.14V230.962C206.164 231.312 206.094 231.718 205.898 232.026C205.562 232.586 204.89 232.88 204.288 232.88C203.616 232.88 203.168 232.558 203 232.082C202.916 231.844 202.888 231.424 202.888 231.088V227.14C202.888 226.776 202.594 226.482 202.23 226.482C201.866 226.482 201.572 226.776 201.572 227.14V231.158C201.572 231.816 201.628 232.46 201.936 232.978C202.398 233.762 203.252 234.07 204.036 234.07C204.946 234.07 205.716 233.692 206.164 233.174V233.342ZM215.043 232.866C215.043 232.544 214.861 232.292 214.539 232.292C214.371 232.292 214.203 232.39 214.021 232.544C213.797 232.74 213.447 232.88 213.195 232.88C212.607 232.88 212.355 232.502 212.355 231.536V227.672H214.007C214.329 227.672 214.595 227.406 214.595 227.07C214.595 226.748 214.329 226.482 213.993 226.482H212.355V224.382C212.355 224.018 212.061 223.724 211.697 223.724C211.333 223.724 211.039 224.018 211.039 224.382V226.482H209.947C209.625 226.482 209.359 226.748 209.359 227.084C209.359 227.406 209.625 227.672 209.961 227.672H211.039V231.62C211.039 233.188 211.739 234.07 213.195 234.07C213.811 234.07 214.469 233.79 214.833 233.356C214.959 233.216 215.043 233.048 215.043 232.866ZM218.244 224.536C218.244 224.172 217.95 223.878 217.586 223.878C217.222 223.878 216.928 224.172 216.928 224.536V233.342C216.928 233.706 217.222 234 217.586 234C217.95 234 218.244 233.706 218.244 233.342V229.52C218.244 229.17 218.314 228.764 218.51 228.456C218.846 227.896 219.518 227.602 220.12 227.602C220.792 227.602 221.24 227.924 221.408 228.4C221.492 228.638 221.52 229.058 221.52 229.394V233.342C221.52 233.706 221.814 234 222.178 234C222.542 234 222.836 233.706 222.836 233.342V229.324C222.836 228.666 222.78 228.022 222.472 227.504C222.01 226.72 221.156 226.412 220.372 226.412C219.462 226.412 218.692 226.79 218.244 227.308V224.536ZM228.34 226.412C226.548 226.412 225.148 227.924 225.148 230.248C225.148 232.572 226.534 234.07 228.34 234.07C230.146 234.07 231.532 232.572 231.532 230.248C231.532 227.924 230.132 226.412 228.34 226.412ZM228.34 232.95C227.248 232.95 226.45 231.942 226.45 230.248C226.45 228.568 227.248 227.532 228.34 227.532C229.432 227.532 230.23 228.568 230.23 230.248C230.23 231.942 229.432 232.95 228.34 232.95ZM239.34 227.7C239.34 227.532 239.284 227.378 239.158 227.238C238.682 226.706 238.024 226.412 237.226 226.412C236.372 226.412 235.672 226.748 235.224 227.336V227.14C235.224 226.776 234.93 226.482 234.566 226.482C234.202 226.482 233.908 226.776 233.908 227.14V233.342C233.908 233.706 234.202 234 234.566 234C234.93 234 235.224 233.706 235.224 233.342V230.038C235.224 229.156 235.322 228.652 235.602 228.274C235.896 227.882 236.316 227.588 237.002 227.588C237.548 227.588 237.842 227.714 238.276 228.064C238.43 228.19 238.57 228.288 238.78 228.288C239.13 228.288 239.34 227.994 239.34 227.7ZM242.333 227.14C242.333 226.776 242.039 226.482 241.675 226.482C241.311 226.482 241.017 226.776 241.017 227.14V233.342C241.017 233.706 241.311 234 241.675 234C242.039 234 242.333 233.706 242.333 233.342V227.14ZM242.683 224.144C242.683 223.598 242.221 223.136 241.675 223.136C241.129 223.136 240.667 223.598 240.667 224.144C240.667 224.69 241.129 225.152 241.675 225.152C242.221 225.152 242.683 224.69 242.683 224.144ZM250.55 231.816C250.55 230.626 249.892 229.968 248.45 229.674L247.274 229.436C246.644 229.31 246.042 229.142 246.042 228.484C246.042 228.05 246.378 227.546 247.428 227.546C248.184 227.546 248.632 227.756 249.178 228.12C249.304 228.204 249.486 228.274 249.626 228.274C249.948 228.274 250.186 228.064 250.186 227.756C250.186 227.546 250.088 227.35 249.864 227.168C249.29 226.692 248.436 226.412 247.512 226.412C246.224 226.412 245.44 226.93 245.034 227.616C244.866 227.896 244.782 228.218 244.782 228.54C244.782 229.716 245.692 230.332 246.882 230.556L248.058 230.78C248.786 230.92 249.304 231.158 249.304 231.858C249.304 232.53 248.716 232.936 247.694 232.936C246.686 232.936 246.168 232.558 245.678 232.068C245.566 231.956 245.398 231.83 245.202 231.83C244.852 231.83 244.572 232.082 244.572 232.432C244.572 232.642 244.67 232.81 244.782 232.95C245.188 233.412 246.084 234.07 247.68 234.07C249.486 234.07 250.55 233.16 250.55 231.816ZM258.487 230.038C258.487 227.686 257.185 226.412 255.533 226.412C253.867 226.412 252.355 227.784 252.355 230.248C252.355 232.614 253.727 234.07 255.533 234.07C256.737 234.07 257.549 233.538 258.011 232.838C258.081 232.726 258.165 232.572 258.165 232.404C258.165 232.068 257.955 231.816 257.619 231.816C257.395 231.816 257.227 231.928 257.087 232.124C256.695 232.67 256.233 232.95 255.505 232.95C254.455 232.95 253.755 232.026 253.657 230.724H257.857C258.207 230.724 258.487 230.514 258.487 230.038ZM257.199 229.604H253.685C253.783 228.33 254.525 227.532 255.533 227.532C256.527 227.532 257.157 228.33 257.199 229.604ZM272.461 226.93C272.461 226.118 272.167 225.432 271.705 224.928C271.075 224.256 270.123 223.878 269.115 223.878H266.371C265.993 223.878 265.685 224.2 265.685 224.578V233.3C265.685 233.692 265.993 234 266.385 234C266.777 234 267.085 233.692 267.085 233.3V229.954H269.115C270.277 229.954 271.159 229.562 271.719 228.946C272.209 228.4 272.461 227.714 272.461 226.93ZM271.117 226.902C271.117 227.364 271.019 227.812 270.711 228.148C270.417 228.47 269.913 228.694 269.073 228.694H267.085V225.138H269.045C269.829 225.138 270.361 225.418 270.711 225.81C270.977 226.132 271.117 226.51 271.117 226.902ZM278.984 233.076V233.342C278.984 233.706 279.278 234 279.642 234C280.006 234 280.3 233.706 280.3 233.342V227.14C280.3 226.776 280.006 226.482 279.642 226.482C279.278 226.482 278.984 226.776 278.984 227.14V227.35C278.508 226.706 277.78 226.412 277.052 226.412C275.274 226.412 273.916 227.952 273.916 230.248C273.916 232.558 275.288 234.07 277.066 234.07C277.878 234.07 278.564 233.706 278.984 233.076ZM277.108 232.95C276.016 232.95 275.218 231.942 275.218 230.248C275.218 228.568 276.016 227.532 277.108 227.532C278.172 227.532 278.998 228.568 278.998 230.248C278.998 231.942 278.172 232.95 277.108 232.95ZM284.709 234.91C284.527 235.4 284.303 235.666 283.897 235.666C283.617 235.666 283.379 235.54 283.183 235.372C283.057 235.274 282.917 235.218 282.763 235.218C282.427 235.218 282.175 235.484 282.175 235.806C282.175 236.016 282.287 236.184 282.413 236.31C282.805 236.674 283.295 236.856 283.911 236.856C284.723 236.856 285.395 236.394 285.717 235.582L288.993 227.434C289.035 227.336 289.063 227.238 289.063 227.14C289.063 226.776 288.769 226.482 288.405 226.482C288.167 226.482 287.915 226.594 287.817 226.846L285.983 231.592C285.913 231.774 285.773 232.208 285.731 232.362H285.703C285.661 232.208 285.521 231.774 285.451 231.592L283.631 226.874C283.561 226.692 283.351 226.482 283.029 226.482C282.665 226.482 282.371 226.776 282.371 227.14C282.371 227.266 282.413 227.378 282.441 227.448L284.947 233.636C284.989 233.734 285.045 233.776 285.129 233.804L284.709 234.91ZM300.183 229.352C300.183 228.61 300.099 228.022 299.903 227.588C299.595 226.916 298.965 226.412 298.013 226.412C297.033 226.412 296.417 226.874 296.025 227.63C295.773 226.944 295.101 226.412 294.149 226.412C293.365 226.412 292.763 226.748 292.413 227.294V227.14C292.413 226.776 292.119 226.482 291.755 226.482C291.391 226.482 291.097 226.776 291.097 227.14V233.342C291.097 233.706 291.391 234 291.755 234C292.119 234 292.413 233.706 292.413 233.342V229.282C292.413 228.96 292.469 228.568 292.609 228.33C292.861 227.882 293.351 227.602 293.897 227.602C294.415 227.602 294.751 227.966 294.863 228.33C294.947 228.61 294.975 228.988 294.975 229.52V233.342C294.975 233.706 295.269 234 295.633 234C295.997 234 296.291 233.706 296.291 233.342V229.408C296.291 229.058 296.361 228.624 296.487 228.386C296.739 227.924 297.187 227.602 297.775 227.602C298.307 227.602 298.643 227.966 298.769 228.386C298.853 228.666 298.867 229.31 298.867 229.492V233.342C298.867 233.706 299.161 234 299.525 234C299.889 234 300.183 233.706 300.183 233.342V229.352ZM308.622 230.038C308.622 227.686 307.32 226.412 305.668 226.412C304.002 226.412 302.49 227.784 302.49 230.248C302.49 232.614 303.862 234.07 305.668 234.07C306.872 234.07 307.684 233.538 308.146 232.838C308.216 232.726 308.3 232.572 308.3 232.404C308.3 232.068 308.09 231.816 307.754 231.816C307.53 231.816 307.362 231.928 307.222 232.124C306.83 232.67 306.368 232.95 305.64 232.95C304.59 232.95 303.89 232.026 303.792 230.724H307.992C308.342 230.724 308.622 230.514 308.622 230.038ZM307.334 229.604H303.82C303.918 228.33 304.66 227.532 305.668 227.532C306.662 227.532 307.292 228.33 307.334 229.604ZM312.237 227.14C312.237 226.776 311.943 226.482 311.579 226.482C311.215 226.482 310.921 226.776 310.921 227.14V233.342C310.921 233.706 311.215 234 311.579 234C311.943 234 312.237 233.706 312.237 233.342V229.52C312.237 229.17 312.307 228.764 312.503 228.456C312.839 227.896 313.511 227.602 314.113 227.602C314.785 227.602 315.233 227.924 315.401 228.4C315.485 228.638 315.513 229.058 315.513 229.394V233.342C315.513 233.706 315.807 234 316.171 234C316.535 234 316.829 233.706 316.829 233.342V229.324C316.829 228.666 316.773 228.022 316.465 227.504C316.003 226.72 315.149 226.412 314.365 226.412C313.455 226.412 312.685 226.79 312.237 227.308V227.14ZM324.267 232.866C324.267 232.544 324.085 232.292 323.763 232.292C323.595 232.292 323.427 232.39 323.245 232.544C323.021 232.74 322.671 232.88 322.419 232.88C321.831 232.88 321.579 232.502 321.579 231.536V227.672H323.231C323.553 227.672 323.819 227.406 323.819 227.07C323.819 226.748 323.553 226.482 323.217 226.482H321.579V224.382C321.579 224.018 321.285 223.724 320.921 223.724C320.557 223.724 320.263 224.018 320.263 224.382V226.482H319.171C318.849 226.482 318.583 226.748 318.583 227.084C318.583 227.406 318.849 227.672 319.185 227.672H320.263V231.62C320.263 233.188 320.963 234.07 322.419 234.07C323.035 234.07 323.693 233.79 324.057 233.356C324.183 233.216 324.267 233.048 324.267 232.866Z" fill="#353535"/>
<path d="M175.8 230.6L178.4 233.2L184 227.6" stroke="#353535" stroke-width="2" stroke-linecap="round" stroke-linejoin="round"/>
<path d="M-173 -56.5L77 -56.5L375 200H125L-173 -56.5Z" fill="#F3F3F3" stroke="#CFCFCF" stroke-linejoin="round"/>
<path d="M125 260L-173 3.85715V-55L125 200L125 260Z" fill="#F3F3F3" stroke="#CFCFCF" stroke-linejoin="round"/>
<rect width="250" height="60" transform="matrix(1 0 0 -1 125 184)" fill="#F3F3F3" stroke="#CFCFCF" stroke-linejoin="round"/>
<path d="M187.208 158.14C189.322 158.14 190.232 157.02 190.638 156.334C190.848 155.97 190.918 155.83 190.918 155.592C190.918 155.242 190.638 154.976 190.288 154.976C189.938 154.976 189.77 155.214 189.63 155.452C189.238 156.138 188.58 156.908 187.264 156.908C185.724 156.908 184.45 155.578 184.45 152.932C184.45 150.356 185.724 148.97 187.32 148.97C188.384 148.97 189.014 149.306 189.728 150.468C189.84 150.65 190.036 150.804 190.316 150.804C190.68 150.804 190.932 150.524 190.932 150.174C190.932 149.95 190.848 149.796 190.75 149.642C190.106 148.578 189.098 147.738 187.25 147.738C184.688 147.738 183.008 149.81 183.008 152.932C183.008 156.054 184.604 158.14 187.208 158.14ZM195.961 150.412C194.169 150.412 192.769 151.924 192.769 154.248C192.769 156.572 194.155 158.07 195.961 158.07C197.767 158.07 199.153 156.572 199.153 154.248C199.153 151.924 197.753 150.412 195.961 150.412ZM195.961 156.95C194.869 156.95 194.071 155.942 194.071 154.248C194.071 152.568 194.869 151.532 195.961 151.532C197.053 151.532 197.851 152.568 197.851 154.248C197.851 155.942 197.053 156.95 195.961 156.95ZM202.845 151.14C202.845 150.776 202.551 150.482 202.187 150.482C201.823 150.482 201.529 150.776 201.529 151.14V157.342C201.529 157.706 201.823 158 202.187 158C202.551 158 202.845 157.706 202.845 157.342V153.52C202.845 153.17 202.915 152.764 203.111 152.456C203.447 151.896 204.119 151.602 204.721 151.602C205.393 151.602 205.841 151.924 206.009 152.4C206.093 152.638 206.121 153.058 206.121 153.394V157.342C206.121 157.706 206.415 158 206.779 158C207.143 158 207.437 157.706 207.437 157.342V153.324C207.437 152.666 207.381 152.022 207.073 151.504C206.611 150.72 205.757 150.412 204.973 150.412C204.063 150.412 203.293 150.79 202.845 151.308V151.14ZM211.486 151.14C211.486 150.776 211.192 150.482 210.828 150.482C210.464 150.482 210.17 150.776 210.17 151.14V157.342C210.17 157.706 210.464 158 210.828 158C211.192 158 211.486 157.706 211.486 157.342V153.52C211.486 153.17 211.556 152.764 211.752 152.456C212.088 151.896 212.76 151.602 213.362 151.602C214.034 151.602 214.482 151.924 214.65 152.4C214.734 152.638 214.762 153.058 214.762 153.394V157.342C214.762 157.706 215.056 158 215.42 158C215.784 158 216.078 157.706 216.078 157.342V153.324C216.078 152.666 216.022 152.022 215.714 151.504C215.252 150.72 214.398 150.412 213.614 150.412C212.704 150.412 211.934 150.79 211.486 151.308V151.14ZM224.522 154.038C224.522 151.686 223.22 150.412 221.568 150.412C219.902 150.412 218.39 151.784 218.39 154.248C218.39 156.614 219.762 158.07 221.568 158.07C222.772 158.07 223.584 157.538 224.046 156.838C224.116 156.726 224.2 156.572 224.2 156.404C224.2 156.068 223.99 155.816 223.654 155.816C223.43 155.816 223.262 155.928 223.122 156.124C222.73 156.67 222.268 156.95 221.54 156.95C220.49 156.95 219.79 156.026 219.692 154.724H223.892C224.242 154.724 224.522 154.514 224.522 154.038ZM223.234 153.604H219.72C219.818 152.33 220.56 151.532 221.568 151.532C222.562 151.532 223.192 152.33 223.234 153.604ZM229.566 151.574C230.28 151.574 230.742 151.938 231.078 152.498C231.246 152.778 231.414 152.946 231.694 152.946C232.03 152.946 232.268 152.694 232.268 152.4C232.268 152.19 232.198 152.036 232.142 151.924C231.652 151 230.77 150.412 229.58 150.412C227.788 150.412 226.402 151.924 226.402 154.248C226.402 156.572 227.788 158.07 229.594 158.07C230.812 158.07 231.778 157.37 232.156 156.6C232.212 156.474 232.282 156.292 232.282 156.152C232.282 155.816 232.03 155.536 231.694 155.536C231.484 155.536 231.26 155.634 231.106 155.956C230.826 156.558 230.294 156.908 229.594 156.908C228.502 156.908 227.704 155.942 227.704 154.248C227.704 153.002 228.236 151.574 229.566 151.574ZM239.32 156.866C239.32 156.544 239.138 156.292 238.816 156.292C238.648 156.292 238.48 156.39 238.298 156.544C238.074 156.74 237.724 156.88 237.472 156.88C236.884 156.88 236.632 156.502 236.632 155.536V151.672H238.284C238.606 151.672 238.872 151.406 238.872 151.07C238.872 150.748 238.606 150.482 238.27 150.482H236.632V148.382C236.632 148.018 236.338 147.724 235.974 147.724C235.61 147.724 235.316 148.018 235.316 148.382V150.482H234.224C233.902 150.482 233.636 150.748 233.636 151.084C233.636 151.406 233.902 151.672 234.238 151.672H235.316V155.62C235.316 157.188 236.016 158.07 237.472 158.07C238.088 158.07 238.746 157.79 239.11 157.356C239.236 157.216 239.32 157.048 239.32 156.866ZM250.381 156.866C250.381 156.544 250.199 156.292 249.877 156.292C249.709 156.292 249.541 156.39 249.359 156.544C249.135 156.74 248.785 156.88 248.533 156.88C247.945 156.88 247.693 156.502 247.693 155.536V151.672H249.345C249.667 151.672 249.933 151.406 249.933 151.07C249.933 150.748 249.667 150.482 249.331 150.482H247.693V148.382C247.693 148.018 247.399 147.724 247.035 147.724C246.671 147.724 246.377 148.018 246.377 148.382V150.482H245.285C244.963 150.482 244.697 150.748 244.697 151.084C244.697 151.406 244.963 151.672 245.299 151.672H246.377V155.62C246.377 157.188 247.077 158.07 248.533 158.07C249.149 158.07 249.807 157.79 250.171 157.356C250.297 157.216 250.381 157.048 250.381 156.866ZM255.024 150.412C253.232 150.412 251.832 151.924 251.832 154.248C251.832 156.572 253.218 158.07 255.024 158.07C256.83 158.07 258.216 156.572 258.216 154.248C258.216 151.924 256.816 150.412 255.024 150.412ZM255.024 156.95C253.932 156.95 253.134 155.942 253.134 154.248C253.134 152.568 253.932 151.532 255.024 151.532C256.116 151.532 256.914 152.568 256.914 154.248C256.914 155.942 256.116 156.95 255.024 156.95ZM266.658 158.91C266.476 159.4 266.252 159.666 265.846 159.666C265.566 159.666 265.328 159.54 265.132 159.372C265.006 159.274 264.866 159.218 264.712 159.218C264.376 159.218 264.124 159.484 264.124 159.806C264.124 160.016 264.236 160.184 264.362 160.31C264.754 160.674 265.244 160.856 265.86 160.856C266.672 160.856 267.344 160.394 267.666 159.582L270.942 151.434C270.984 151.336 271.012 151.238 271.012 151.14C271.012 150.776 270.718 150.482 270.354 150.482C270.116 150.482 269.864 150.594 269.766 150.846L267.932 155.592C267.862 155.774 267.722 156.208 267.68 156.362H267.652C267.61 156.208 267.47 155.774 267.4 155.592L265.58 150.874C265.51 150.692 265.3 150.482 264.978 150.482C264.614 150.482 264.32 150.776 264.32 151.14C264.32 151.266 264.362 151.378 264.39 151.448L266.896 157.636C266.938 157.734 266.994 157.776 267.078 157.804L266.658 158.91ZM275.682 150.412C273.89 150.412 272.49 151.924 272.49 154.248C272.49 156.572 273.876 158.07 275.682 158.07C277.488 158.07 278.874 156.572 278.874 154.248C278.874 151.924 277.474 150.412 275.682 150.412ZM275.682 156.95C274.59 156.95 273.792 155.942 273.792 154.248C273.792 152.568 274.59 151.532 275.682 151.532C276.774 151.532 277.572 152.568 277.572 154.248C277.572 155.942 276.774 156.95 275.682 156.95ZM285.772 157.342C285.772 157.706 286.066 158 286.43 158C286.794 158 287.088 157.706 287.088 157.342V151.14C287.088 150.776 286.794 150.482 286.43 150.482C286.066 150.482 285.772 150.776 285.772 151.14V154.962C285.772 155.312 285.702 155.718 285.506 156.026C285.17 156.586 284.498 156.88 283.896 156.88C283.224 156.88 282.776 156.558 282.608 156.082C282.524 155.844 282.496 155.424 282.496 155.088V151.14C282.496 150.776 282.202 150.482 281.838 150.482C281.474 150.482 281.18 150.776 281.18 151.14V155.158C281.18 155.816 281.236 156.46 281.544 156.978C282.006 157.762 282.86 158.07 283.644 158.07C284.554 158.07 285.324 157.692 285.772 157.174V157.342ZM295.322 151.7C295.322 151.532 295.266 151.378 295.14 151.238C294.664 150.706 294.006 150.412 293.208 150.412C292.354 150.412 291.654 150.748 291.206 151.336V151.14C291.206 150.776 290.912 150.482 290.548 150.482C290.184 150.482 289.89 150.776 289.89 151.14V157.342C289.89 157.706 290.184 158 290.548 158C290.912 158 291.206 157.706 291.206 157.342V154.038C291.206 153.156 291.304 152.652 291.584 152.274C291.878 151.882 292.298 151.588 292.984 151.588C293.53 151.588 293.824 151.714 294.258 152.064C294.412 152.19 294.552 152.288 294.762 152.288C295.112 152.288 295.322 151.994 295.322 151.7ZM304.719 150.412C303.935 150.412 303.277 150.776 302.787 151.364V148.536C302.787 148.172 302.493 147.878 302.129 147.878C301.765 147.878 301.471 148.172 301.471 148.536V157.342C301.471 157.706 301.765 158 302.129 158C302.493 158 302.787 157.706 302.787 157.342V157.174C303.221 157.678 303.851 158.07 304.803 158.07C306.553 158.07 307.855 156.516 307.855 154.248C307.855 151.938 306.483 150.412 304.719 150.412ZM304.663 156.95C303.599 156.95 302.773 155.942 302.773 154.248C302.773 152.568 303.599 151.532 304.663 151.532C305.755 151.532 306.553 152.568 306.553 154.248C306.553 155.942 305.755 156.95 304.663 156.95ZM314.882 157.076V157.342C314.882 157.706 315.176 158 315.54 158C315.904 158 316.198 157.706 316.198 157.342V151.14C316.198 150.776 315.904 150.482 315.54 150.482C315.176 150.482 314.882 150.776 314.882 151.14V151.35C314.406 150.706 313.678 150.412 312.95 150.412C311.172 150.412 309.814 151.952 309.814 154.248C309.814 156.558 311.186 158.07 312.964 158.07C313.776 158.07 314.462 157.706 314.882 157.076ZM313.006 156.95C311.914 156.95 311.116 155.942 311.116 154.248C311.116 152.568 311.914 151.532 313.006 151.532C314.07 151.532 314.896 152.568 314.896 154.248C314.896 155.942 314.07 156.95 313.006 156.95ZM320.314 151.14C320.314 150.776 320.02 150.482 319.656 150.482C319.292 150.482 318.998 150.776 318.998 151.14V157.342C318.998 157.706 319.292 158 319.656 158C320.02 158 320.314 157.706 320.314 157.342V153.52C320.314 153.17 320.384 152.764 320.58 152.456C320.916 151.896 321.588 151.602 322.19 151.602C322.862 151.602 323.31 151.924 323.478 152.4C323.562 152.638 323.59 153.058 323.59 153.394V157.342C323.59 157.706 323.884 158 324.248 158C324.612 158 324.906 157.706 324.906 157.342V153.324C324.906 152.666 324.85 152.022 324.542 151.504C324.08 150.72 323.226 150.412 322.442 150.412C321.532 150.412 320.762 150.79 320.314 151.308V151.14ZM333.07 151.672C333.224 151.532 333.336 151.336 333.336 151.126C333.336 150.762 333.028 150.482 332.692 150.482C332.51 150.482 332.342 150.566 332.216 150.692L328.968 153.94V148.536C328.968 148.172 328.674 147.878 328.31 147.878C327.946 147.878 327.652 148.172 327.652 148.536V157.342C327.652 157.706 327.946 158 328.31 158C328.674 158 328.968 157.706 328.968 157.342V155.606L329.948 154.668L332.384 157.776C332.538 157.972 332.734 158.028 332.888 158.028C333.238 158.028 333.532 157.734 333.532 157.384C333.532 157.202 333.448 157.048 333.336 156.908L330.83 153.828L333.07 151.672Z" fill="#353535"/>
<path d="M166.8 153.6L169.4 156.2L175 150.6" stroke="#353535" stroke-width="2" stroke-linecap="round" stroke-linejoin="round"/>
<path d="M-173 -132.5L77 -132.5L375 124H125L-173 -132.5Z" fill="#F3F3F3" stroke="#CFCFCF" stroke-linejoin="round"/>
<path d="M125 184L-173 -72.1429V-131L125 124L125 184Z" fill="#F3F3F3" stroke="#CFCFCF" stroke-linejoin="round"/>
<rect width="250" height="60" transform="matrix(1 0 0 -1 125 108)" fill="#FAFAFA" stroke="#CFCFCF" stroke-linejoin="round"/>
<path d="M193.966 79.2C193.938 77.254 192.524 76.652 191.082 76.232L189.878 75.882C188.912 75.602 188.366 75.252 188.366 74.44C188.366 73.362 189.528 72.956 190.396 72.956C191.166 72.956 191.824 73.236 192.384 73.698C192.566 73.852 192.776 73.95 192.986 73.95C193.336 73.95 193.574 73.726 193.574 73.362C193.574 73.194 193.504 73.04 193.364 72.886C192.804 72.284 191.852 71.738 190.41 71.738C188.324 71.738 187.022 72.942 187.022 74.454C187.022 76.008 187.876 76.652 189.5 77.128L190.788 77.506C191.894 77.828 192.594 78.276 192.594 79.256C192.594 80.334 191.712 80.908 190.536 80.908C189.612 80.908 188.786 80.614 188.128 79.788C187.96 79.578 187.764 79.452 187.512 79.452C187.148 79.452 186.868 79.732 186.868 80.082C186.868 80.25 186.924 80.418 187.064 80.614C187.834 81.622 189.136 82.154 190.508 82.154C192.58 82.154 193.966 80.95 193.966 79.2ZM201.889 78.038C201.889 75.686 200.587 74.412 198.935 74.412C197.269 74.412 195.757 75.784 195.757 78.248C195.757 80.614 197.129 82.07 198.935 82.07C200.139 82.07 200.951 81.538 201.413 80.838C201.483 80.726 201.567 80.572 201.567 80.404C201.567 80.068 201.357 79.816 201.021 79.816C200.797 79.816 200.629 79.928 200.489 80.124C200.097 80.67 199.635 80.95 198.907 80.95C197.857 80.95 197.157 80.026 197.059 78.724H201.259C201.609 78.724 201.889 78.514 201.889 78.038ZM200.601 77.604H197.087C197.185 76.33 197.927 75.532 198.935 75.532C199.929 75.532 200.559 76.33 200.601 77.604ZM205.519 72.536C205.519 72.172 205.225 71.878 204.861 71.878C204.497 71.878 204.203 72.172 204.203 72.536V81.342C204.203 81.706 204.497 82 204.861 82C205.225 82 205.519 81.706 205.519 81.342V72.536ZM214.044 78.038C214.044 75.686 212.742 74.412 211.09 74.412C209.424 74.412 207.912 75.784 207.912 78.248C207.912 80.614 209.284 82.07 211.09 82.07C212.294 82.07 213.106 81.538 213.568 80.838C213.638 80.726 213.722 80.572 213.722 80.404C213.722 80.068 213.512 79.816 213.176 79.816C212.952 79.816 212.784 79.928 212.644 80.124C212.252 80.67 211.79 80.95 211.062 80.95C210.012 80.95 209.312 80.026 209.214 78.724H213.414C213.764 78.724 214.044 78.514 214.044 78.038ZM212.756 77.604H209.242C209.34 76.33 210.082 75.532 211.09 75.532C212.084 75.532 212.714 76.33 212.756 77.604ZM219.087 75.574C219.801 75.574 220.263 75.938 220.599 76.498C220.767 76.778 220.935 76.946 221.215 76.946C221.551 76.946 221.789 76.694 221.789 76.4C221.789 76.19 221.719 76.036 221.663 75.924C221.173 75 220.291 74.412 219.101 74.412C217.309 74.412 215.923 75.924 215.923 78.248C215.923 80.572 217.309 82.07 219.115 82.07C220.333 82.07 221.299 81.37 221.677 80.6C221.733 80.474 221.803 80.292 221.803 80.152C221.803 79.816 221.551 79.536 221.215 79.536C221.005 79.536 220.781 79.634 220.627 79.956C220.347 80.558 219.815 80.908 219.115 80.908C218.023 80.908 217.225 79.942 217.225 78.248C217.225 77.002 217.757 75.574 219.087 75.574ZM228.842 80.866C228.842 80.544 228.66 80.292 228.338 80.292C228.17 80.292 228.002 80.39 227.82 80.544C227.596 80.74 227.246 80.88 226.994 80.88C226.406 80.88 226.154 80.502 226.154 79.536V75.672H227.806C228.128 75.672 228.394 75.406 228.394 75.07C228.394 74.748 228.128 74.482 227.792 74.482H226.154V72.382C226.154 72.018 225.86 71.724 225.496 71.724C225.132 71.724 224.838 72.018 224.838 72.382V74.482H223.746C223.424 74.482 223.158 74.748 223.158 75.084C223.158 75.406 223.424 75.672 223.76 75.672H224.838V79.62C224.838 81.188 225.538 82.07 226.994 82.07C227.61 82.07 228.268 81.79 228.632 81.356C228.758 81.216 228.842 81.048 228.842 80.866ZM242.386 74.93C242.386 74.118 242.092 73.432 241.63 72.928C241 72.256 240.048 71.878 239.04 71.878H236.296C235.918 71.878 235.61 72.2 235.61 72.578V81.3C235.61 81.692 235.918 82 236.31 82C236.702 82 237.01 81.692 237.01 81.3V77.954H239.04C240.202 77.954 241.084 77.562 241.644 76.946C242.134 76.4 242.386 75.714 242.386 74.93ZM241.042 74.902C241.042 75.364 240.944 75.812 240.636 76.148C240.342 76.47 239.838 76.694 238.998 76.694H237.01V73.138H238.97C239.754 73.138 240.286 73.418 240.636 73.81C240.902 74.132 241.042 74.51 241.042 74.902ZM248.909 81.076V81.342C248.909 81.706 249.203 82 249.567 82C249.931 82 250.225 81.706 250.225 81.342V75.14C250.225 74.776 249.931 74.482 249.567 74.482C249.203 74.482 248.909 74.776 248.909 75.14V75.35C248.433 74.706 247.705 74.412 246.977 74.412C245.199 74.412 243.841 75.952 243.841 78.248C243.841 80.558 245.213 82.07 246.991 82.07C247.803 82.07 248.489 81.706 248.909 81.076ZM247.033 80.95C245.941 80.95 245.143 79.942 245.143 78.248C245.143 76.568 245.941 75.532 247.033 75.532C248.097 75.532 248.923 76.568 248.923 78.248C248.923 79.942 248.097 80.95 247.033 80.95ZM254.635 82.91C254.453 83.4 254.229 83.666 253.823 83.666C253.543 83.666 253.305 83.54 253.109 83.372C252.983 83.274 252.843 83.218 252.689 83.218C252.353 83.218 252.101 83.484 252.101 83.806C252.101 84.016 252.213 84.184 252.339 84.31C252.731 84.674 253.221 84.856 253.837 84.856C254.649 84.856 255.321 84.394 255.643 83.582L258.919 75.434C258.961 75.336 258.989 75.238 258.989 75.14C258.989 74.776 258.695 74.482 258.331 74.482C258.093 74.482 257.841 74.594 257.743 74.846L255.909 79.592C255.839 79.774 255.699 80.208 255.657 80.362H255.629C255.587 80.208 255.447 79.774 255.377 79.592L253.557 74.874C253.487 74.692 253.277 74.482 252.955 74.482C252.591 74.482 252.297 74.776 252.297 75.14C252.297 75.266 252.339 75.378 252.367 75.448L254.873 81.636C254.915 81.734 254.971 81.776 255.055 81.804L254.635 82.91ZM268.728 74.412C267.944 74.412 267.286 74.776 266.796 75.364V72.536C266.796 72.172 266.502 71.878 266.138 71.878C265.774 71.878 265.48 72.172 265.48 72.536V81.342C265.48 81.706 265.774 82 266.138 82C266.502 82 266.796 81.706 266.796 81.342V81.174C267.23 81.678 267.86 82.07 268.812 82.07C270.562 82.07 271.864 80.516 271.864 78.248C271.864 75.938 270.492 74.412 268.728 74.412ZM268.672 80.95C267.608 80.95 266.782 79.942 266.782 78.248C266.782 76.568 267.608 75.532 268.672 75.532C269.764 75.532 270.562 76.568 270.562 78.248C270.562 79.942 269.764 80.95 268.672 80.95ZM275.717 82.91C275.535 83.4 275.311 83.666 274.905 83.666C274.625 83.666 274.387 83.54 274.191 83.372C274.065 83.274 273.925 83.218 273.771 83.218C273.435 83.218 273.183 83.484 273.183 83.806C273.183 84.016 273.295 84.184 273.421 84.31C273.813 84.674 274.303 84.856 274.919 84.856C275.731 84.856 276.403 84.394 276.725 83.582L280.001 75.434C280.043 75.336 280.071 75.238 280.071 75.14C280.071 74.776 279.777 74.482 279.413 74.482C279.175 74.482 278.923 74.594 278.825 74.846L276.991 79.592C276.921 79.774 276.781 80.208 276.739 80.362H276.711C276.669 80.208 276.529 79.774 276.459 79.592L274.639 74.874C274.569 74.692 274.359 74.482 274.037 74.482C273.673 74.482 273.379 74.776 273.379 75.14C273.379 75.266 273.421 75.378 273.449 75.448L275.955 81.636C275.997 81.734 276.053 81.776 276.137 81.804L275.717 82.91ZM293.996 78.962C293.996 77.772 293.324 76.876 292.428 76.498C293.016 76.078 293.52 75.462 293.52 74.538C293.52 73.726 293.212 73.068 292.708 72.606C292.19 72.116 291.462 71.878 290.37 71.878H287.388C286.996 71.878 286.688 72.186 286.688 72.578V81.3C286.688 81.678 286.996 82 287.374 82H290.51C292.75 82 293.996 80.67 293.996 78.962ZM292.134 74.566C292.134 75.378 291.728 75.98 290.51 75.98H288.088V73.138H290.328C291.546 73.138 292.134 73.684 292.134 74.566ZM292.554 78.976C292.554 80.026 291.812 80.74 290.538 80.74H288.088V77.212H290.594C291.924 77.212 292.554 77.884 292.554 78.976ZM301.013 81.076V81.342C301.013 81.706 301.307 82 301.671 82C302.035 82 302.329 81.706 302.329 81.342V75.14C302.329 74.776 302.035 74.482 301.671 74.482C301.307 74.482 301.013 74.776 301.013 75.14V75.35C300.537 74.706 299.809 74.412 299.081 74.412C297.303 74.412 295.945 75.952 295.945 78.248C295.945 80.558 297.317 82.07 299.095 82.07C299.907 82.07 300.593 81.706 301.013 81.076ZM299.137 80.95C298.045 80.95 297.247 79.942 297.247 78.248C297.247 76.568 298.045 75.532 299.137 75.532C300.201 75.532 301.027 76.568 301.027 78.248C301.027 79.942 300.201 80.95 299.137 80.95ZM306.445 75.14C306.445 74.776 306.151 74.482 305.787 74.482C305.423 74.482 305.129 74.776 305.129 75.14V81.342C305.129 81.706 305.423 82 305.787 82C306.151 82 306.445 81.706 306.445 81.342V77.52C306.445 77.17 306.515 76.764 306.711 76.456C307.047 75.896 307.719 75.602 308.321 75.602C308.993 75.602 309.441 75.924 309.609 76.4C309.693 76.638 309.721 77.058 309.721 77.394V81.342C309.721 81.706 310.015 82 310.379 82C310.743 82 311.037 81.706 311.037 81.342V77.324C311.037 76.666 310.981 76.022 310.673 75.504C310.211 74.72 309.357 74.412 308.573 74.412C307.663 74.412 306.893 74.79 306.445 75.308V75.14ZM319.201 75.672C319.355 75.532 319.467 75.336 319.467 75.126C319.467 74.762 319.159 74.482 318.823 74.482C318.641 74.482 318.473 74.566 318.347 74.692L315.099 77.94V72.536C315.099 72.172 314.805 71.878 314.441 71.878C314.077 71.878 313.783 72.172 313.783 72.536V81.342C313.783 81.706 314.077 82 314.441 82C314.805 82 315.099 81.706 315.099 81.342V79.606L316.079 78.668L318.515 81.776C318.669 81.972 318.865 82.028 319.019 82.028C319.369 82.028 319.663 81.734 319.663 81.384C319.663 81.202 319.579 81.048 319.467 80.908L316.961 77.828L319.201 75.672ZM328.945 75.658C328.945 74.972 328.385 74.412 327.685 74.412C326.999 74.412 326.439 74.972 326.439 75.658C326.439 76.358 326.999 76.918 327.685 76.918C328.385 76.918 328.945 76.358 328.945 75.658ZM328.945 80.824C328.945 80.124 328.385 79.564 327.685 79.564C326.999 79.564 326.439 80.124 326.439 80.824C326.439 81.51 326.999 82.07 327.685 82.07C328.385 82.07 328.945 81.51 328.945 80.824Z" fill="#353535"/>
<path d="M170.8 77.6001L173.4 80.2001L179 74.6001" stroke="#353535" stroke-width="2" stroke-linecap="round" stroke-linejoin="round"/>
<path d="M-173 -208.5L77 -208.5L375 48H125L-173 -208.5Z" fill="#FAFAFA" stroke="#CFCFCF" stroke-linejoin="round"/>
<path d="M125 108L-173 -148.143V-207L125 48L125 108Z" fill="#FAFAFA" stroke="#CFCFCF" stroke-linejoin="round"/>
</g>
</svg>
