<svg width="176" height="112" viewBox="0 0 176 112" fill="none" xmlns="http://www.w3.org/2000/svg">
<rect width="176" height="112" fill="#FAFAFA"/>
<path fill-rule="evenodd" clip-rule="evenodd" d="M91.3222 45.5561L91.8783 45H107.549L106.918 45.5561H91.3222ZM68 45.0278L68.6213 45.583H84.3035L83.6831 45.0278H68ZM97.0477 56.2143L97.5781 54.8607L98.0113 56.2143H97.0477ZM108 52.1031H105.709L104.319 53.6752L103.021 52.1031H100.443L102.884 55.2202L100.927 57.6751L98.5807 52.1031H96.6722L93.8039 58.3229H96.0742L96.5164 57.3865H98.5248L98.9477 58.3229H102.85L104.079 56.7905L105.296 58.3229H107.971L105.535 55.2362L108 52.1031ZM72.4558 54.3356V52.1032H74.6556V58.323H72.4558V55.9936H70.2001V58.323H68V52.1032H70.2001V54.3356H72.4558ZM84.7178 52.1032H82.5529V58.3236H86.8462V56.9129H84.7178V52.1032ZM87.1932 58.3234H89.3851V52.1036H87.1932V58.3234ZM94.5801 52.1032H90.2304V58.3236H92.3937V55.8832H94.5667V54.5476H92.3937V53.4061H94.5801V52.1032ZM78.6066 54.8607L78.0768 56.2143H79.0401L78.6066 54.8607ZM77.6996 52.1031H79.6084L82.2282 58.3229H79.9768L79.5527 57.3865H77.5461L77.103 58.3229H74.833L77.6996 52.1031ZM91.3558 64.9003L91.9756 65.4561H107.658L107.037 64.9003H91.3558ZM90.6694 64.3455L90.049 63.7898H105.73L106.352 64.3455H90.6694ZM88.7189 62.7216L89.3399 63.2774H105.022L104.403 62.7216H88.7189ZM87.8818 62.101L87.2599 61.5464H102.943L103.563 62.101H87.8818ZM85.9083 60.3913L86.5302 60.9459H102.213L101.591 60.3913H85.9083ZM85.1807 59.8355L84.5594 59.2789H100.241L100.863 59.8355H85.1807ZM72.8803 61.5508L72.2476 62.1066H86.7207L86.1003 61.5508H72.8803ZM73.5751 60.9525L74.2075 60.3964H84.7499L85.371 60.9525H73.5751ZM75.5476 59.2851L74.9158 59.8412H84.0211L83.3992 59.2851H75.5476ZM70.7667 63.2825L71.3977 62.7279H86.9925L86.4382 63.2825H70.7667ZM70.0471 63.817L69.417 64.3728H85.0873L85.6433 63.817H70.0471ZM68.1085 65.4837L68.7406 64.9268H84.3369L83.7805 65.4837H68.1085ZM69.9279 46.6939L69.3071 46.1384H84.9891L85.6095 46.6939H69.9279ZM70.6365 47.206L71.2567 47.7618H86.9394L86.3178 47.206H70.6365ZM72.716 48.9385L72.0947 48.3819H87.7777L88.3982 48.9385H72.716ZM73.4456 49.5373L74.0669 50.0934H89.748L89.1281 49.5373H73.4456ZM75.4166 51.2041L74.7956 50.648H90.4787L91.0991 51.2041H75.4166ZM88.9382 48.3767L89.5586 48.9334H102.779L103.411 48.3767H88.9382ZM90.9087 50.0877L90.2874 49.5316H102.082L101.45 50.0877H90.9087ZM91.6384 50.6422L92.2594 51.1989H100.112L100.743 50.6422H91.6384ZM88.6652 47.7561L89.2204 47.2004H104.893L104.26 47.7561H88.6652ZM90.571 46.1106L90.0152 46.6672H105.61L106.242 46.1106H90.571Z" fill="#00287C"/>
</svg>
