<svg width="176" height="112" viewBox="0 0 176 112" fill="none" xmlns="http://www.w3.org/2000/svg">
<rect width="176" height="112" fill="#FAFAFA"/>
<path d="M88.1868 38C88.0821 38.9245 88.1259 39.9159 88.3918 40.7164C88.75 41.7944 89.2453 42.5716 91.0692 44.9445C92.9938 47.4484 93.6098 48.356 94.0678 49.6544C94.4422 50.7159 94.4499 51.3292 94.2893 52.2928C95.9756 52.6139 98.7394 53.5094 100.592 54.6202C102.31 55.677 103.559 57.0472 104.017 58.3766C104.288 59.163 104.277 60.3819 103.989 61.1443C103.714 61.8765 103.335 62.4878 102.777 63.099C100.56 65.5284 96.1683 67.2735 90.8785 67.829C89.7084 67.9519 86.8409 68.0393 85.8575 67.9821C78.7913 67.5708 73.109 65.1294 71.492 61.8118C70.8195 60.4321 70.8359 59.2443 71.5447 57.8798C72.1291 56.7547 73.731 55.3643 75.6147 54.3442C77.4269 53.4718 79.1282 52.8199 80.9519 52.3067C81.0404 53.4972 83.3606 56.3428 84.1286 57.3503C85.8032 59.5424 86.4657 60.5879 86.939 61.4254C87.2232 61.9283 87.3838 62.2495 87.3035 63.2069C87.3035 63.2069 87.948 62.6235 88.1911 62.1279C88.5057 61.4868 88.6179 60.8361 88.5575 60.0001C88.4846 58.9931 88.3136 58.3761 87.8323 57.3905C87.3643 56.4322 86.6937 55.4628 85.4184 53.8976C83.6176 51.6875 82.9508 50.4734 82.6757 48.8966C82.3704 47.1464 82.8623 45.2861 83.8702 44.3799C84.0895 44.1828 84.4423 43.991 84.4423 43.991C84.4423 43.991 84.4122 44.442 84.4122 44.9546C84.4122 46.0386 84.5358 46.6029 84.9516 47.4287C85.468 48.4541 86.1828 49.4127 88.3743 52.0206C90.3138 54.3287 90.9162 55.5013 90.9162 56.9664C90.9162 57.3104 90.9169 57.6726 90.9169 57.6726C90.9169 57.6726 91.4292 57.2818 91.6664 56.9237C92.4183 55.7887 92.5374 54.0181 91.965 52.4497C91.5727 51.3746 90.9368 50.3961 89.0568 48.0334C87.1429 45.6282 86.34 43.701 86.34 42.0951C86.34 40.4892 86.6886 38.9571 88.1868 38H88.1868Z" fill="#EC0000"/>
</svg>
