<svg width="176" height="112" viewBox="0 0 176 112" fill="none" xmlns="http://www.w3.org/2000/svg">
<rect width="176" height="112" fill="#FAFAFA"/>
<path d="M104.39 55.3635C105.028 55.8318 105.69 56.1732 105.69 56.9187C105.69 57.1342 105.413 57.3476 104.794 57.3476C104.326 57.3476 103.815 57.2191 103.58 56.8762C103.389 56.6203 103.666 56.2794 103.495 56.024C103.367 55.8106 103.069 55.9168 102.877 55.8106C102.644 55.6832 102.622 55.5759 102.472 55.2573C102.302 54.874 101.727 54.2342 101.045 53.5525C100.47 52.978 99.8524 52.6791 99.5757 52.7003C99.381 52.7216 99.3183 52.7216 99.1261 52.7216C98.636 52.7216 98.2087 53.1914 97.5067 53.4888C97.0172 53.7012 96.7395 53.8296 96.4204 53.8721L96.3142 54.0006L96.9524 53.9794C97.5487 53.9794 98.3371 53.8934 98.9334 53.8934C99.554 53.8934 99.8524 54.4477 100.087 55.0227C100.556 56.195 101.259 57.8796 102.09 59.285C102.494 59.946 102.835 60.3718 102.835 61.1851C102.835 61.441 102.813 61.7824 102.472 61.7824C102.004 61.7824 100.811 61.2924 100.811 60.7572C100.811 60.3506 101.13 60.1807 101.13 59.7761C101.13 59.5197 100.747 59.5632 100.662 59.3285C100.364 58.0723 100.002 56.8337 99.2965 56.0877C98.9334 55.7044 98.8914 55.5334 98.5293 55.5334C98.3371 55.5334 98.1455 55.5759 97.975 55.6407C96.996 56.0028 95.6962 57.0917 94.0769 57.5812C93.4594 57.7734 93.3521 57.4113 92.7139 57.5387H92.7569C92.2425 57.6449 91.8379 57.9433 91.135 58.136C90.1549 58.4132 88.4713 58.5396 87.1301 58.3707C86.1717 58.2422 84.9331 58.0511 84.4006 58.0723C83.9965 59.2425 83.1226 60.7785 81.8446 61.3773C81.1634 61.6752 80.95 62.101 81.1634 62.8667C81.4188 63.824 82.271 64.529 82.718 65.3387C83.1226 66.0396 83.7826 67.1497 84.4861 67.5118C85.1895 67.8729 85.6174 68.4054 85.6174 68.8515C85.6174 69.0649 85.5294 69.1934 85.317 69.1934H83.9116C83.6981 69.1934 83.5919 69.0649 83.5484 68.9789C83.3568 68.6178 83.4847 68.278 83.2293 67.9584C83.0371 67.7242 82.8879 67.7879 82.6543 67.5968C82.228 67.1922 82.5476 66.9575 82.228 66.4447C81.3333 65.0403 80.95 64.7 80.204 63.6965C79.7787 63.1656 79.2669 62.9081 79.2669 62.2062C79.2669 61.3561 80.1191 61.2064 80.0978 60.3506C79.5441 60.7572 78.9043 61.0769 77.9226 61.2064C77.7947 61.2276 77.4533 61.4835 77.3041 61.654C76.9638 61.9948 76.8363 62.3346 76.7928 62.8454C76.6871 63.997 76.4535 65.1688 76.6011 66.3162C76.7928 67.0648 76.9223 67.3196 77.5388 67.7242C77.9226 67.9796 78.3697 68.3417 78.4127 68.8737C78.4127 69.0224 78.3697 69.1934 78.1563 69.1934H76.6436C76.4949 69.1934 76.3675 69.0861 76.3245 69.0012C76.1541 68.7038 76.2608 68.4914 76.1971 68.1495C76.0479 67.4471 75.26 67.4896 75.26 66.7664C75.26 66.5519 75.3874 66.2748 75.4086 65.8272C75.4511 64.8492 75.7495 63.2707 75.4511 61.3561C75.3237 60.2444 76.4737 60.203 77.071 59.2223C77.4321 58.667 77.3259 58.9027 77.5388 58.4981C77.7522 58.0723 77.7097 57.7734 77.6885 57.5185C77.6885 57.1979 77.3689 56.5141 77.5818 55.1289C77.6672 54.5114 77.9646 53.8934 78.3697 53.3613C78.3697 53.3401 78.3697 53.2551 78.2412 53.2551C77.6455 53.2976 77.6455 53.149 77.2404 53.149C76.8576 53.149 76.5587 53.4686 76.4949 53.6375C76.3033 53.5525 76.2188 53.3401 76.2188 53.2127C76.2188 52.9992 76.2608 52.8076 76.4737 52.5941C76.5587 52.5092 76.4737 52.4667 76.3675 52.4667C75.8987 52.4667 75.4511 53.0417 75.3449 53.4463C75.0673 53.4038 75.046 53.0417 74.9186 53.0417C74.7911 53.0417 74.7057 53.2339 74.7057 53.4261C74.7057 54.789 76.9223 55.0874 76.9223 56.8762C76.9223 58.9452 74.4285 58.5183 74.4285 59.2638C74.4285 59.4135 74.5352 59.5409 74.7274 59.6269C74.642 59.8186 74.4285 59.9035 74.1949 59.9035C73.6411 59.9035 73.235 59.4995 73.235 58.9452C73.235 57.8159 74.7476 57.7936 74.7476 56.9399C74.7476 56.5353 74.4928 56.4079 74.2581 56.2157C72.8102 55.1926 72 54.1705 72 52.4879C72 50.6769 73.2573 49.2896 74.8973 49.2896C77.2834 49.2896 77.3476 52.0399 79.5228 52.2745C80.332 51.7213 81.2909 51.4016 82.228 51.4016C83.6344 51.4016 84.2509 51.7637 85.7449 51.7637C86.3422 51.7637 87.344 51.5938 88.5355 50.7841C88.9831 50.4858 89.1747 50.422 89.5793 50.0589C90.517 49.2472 91.3904 47.6708 91.3904 46.543V46.6057C91.3904 46.2441 91.3049 46.0307 91.135 46.0307C90.6232 46.0307 90.1761 46.5006 89.6648 46.9901C89.3452 47.3299 89.8342 47.4786 89.111 47.8842C88.8551 48.0122 88.5573 47.777 88.2801 47.777C87.7051 47.777 87.4497 47.0963 87.4497 46.5006C87.4497 46.2006 87.6839 46.1157 87.8113 45.8396C88.1107 45.263 88.089 45.0516 88.3651 44.4756C88.5355 44.0912 88.8344 43.8363 88.8137 43.5592C88.8137 43.454 88.7287 43.3893 88.7287 43.2831C88.7287 42.705 89.4949 42.3216 89.4949 41.7471C89.4949 41.4275 89.1323 41.2778 89.0473 41.0224C88.9618 40.7665 89.0261 40.7028 89.0261 40.7028C89.0473 40.6603 89.0903 40.638 89.1323 40.638C89.4312 40.638 89.5591 40.9587 89.8342 41.1286C89.857 40.7453 89.729 40.6603 89.729 40.3832C89.729 40.2345 89.7078 39.9998 89.857 39.9998C90.0487 39.9998 90.0264 40.2557 90.1979 40.3832C90.4113 40.5531 90.6024 40.5329 90.8366 40.6815C91.135 40.8737 91.3049 41.1928 91.4116 41.2141C91.71 41.2565 91.7949 40.8939 91.6463 40.6815C91.9866 40.6603 92.328 40.9374 92.7776 40.9374C93.4806 40.9374 93.7158 41.1286 93.8432 41.2353C94.2908 41.6197 94.3752 41.917 94.8648 41.917C95.1207 41.917 95.2486 41.7036 95.3134 41.6197C95.6537 41.8735 95.675 42.5128 95.3134 43.0463C95.4621 43.4965 96.1008 43.538 96.3992 43.7514C96.6971 43.9638 96.6546 44.071 96.8675 44.1984C97.0384 44.3057 97.1881 44.2844 97.3151 44.1984C97.4648 44.7947 96.9524 45.3277 96.3355 45.4127C96.3567 46.1794 97.1669 46.6492 97.528 46.8404C97.3151 47.3087 96.9312 47.4574 96.5909 47.5434C96.6971 48.0122 97.2094 48.6939 96.9524 49.3109C96.7183 49.2047 96.3779 49.3109 96.3779 49.6523C96.3779 50.0356 96.8675 50.2309 96.3567 50.507C96.122 50.6344 96.0796 50.9753 96.5054 51.2949C97.0597 51.1462 97.5917 51.1675 98.2087 51.1675C98.5936 51.1675 99.1049 51.0603 99.4452 51.0603C100.087 51.0603 100.47 51.3162 100.939 51.8275C102.111 53.1054 103.176 54.4477 104.39 55.3635Z" fill="#231F20"/>
<path d="M72.7678 51.9561C73.0237 51.9561 73.492 50.5496 74.4503 50.5496C74.7275 50.5496 74.7912 50.6558 74.7912 50.762C74.7912 50.9542 74.4721 51.1251 74.4721 51.3805C74.4721 51.423 74.4928 51.4867 74.5783 51.4867C74.8125 51.4867 74.9834 50.9754 75.9412 50.9754C76.1971 50.9754 76.4101 50.9967 76.6437 51.0604C76.7504 51.0816 76.9638 51.1894 76.8789 50.8905C76.6437 50.231 75.92 49.6099 74.8974 49.6099C73.8748 49.6099 72.8103 50.5294 72.6823 51.6364C72.6606 51.8276 72.6606 51.9561 72.7678 51.9561Z" fill="#231F20"/>
<path d="M90.4536 43.1765C90.1764 43.0672 90.1339 42.9185 90.2199 42.5777C90.2826 42.2156 90.3039 42.0653 90.1339 42.0229C89.9842 41.9804 89.7931 42.0653 89.6009 42.2793C89.431 42.5129 89.1533 42.7911 89.0684 43.0247C88.9829 43.3252 89.345 43.2827 89.0901 43.7722C88.6425 44.5819 88.5353 44.7518 88.3229 45.3274C88.1312 45.9247 87.9821 46.0096 87.8759 46.2008C87.7474 46.3717 88.0468 46.393 88.3866 46.2868C88.7498 46.1583 88.77 46.5841 88.6425 46.8825C88.5353 47.0959 88.6213 47.1809 88.9192 46.9462C89.1958 46.7338 88.77 46.5629 88.8767 45.8811C88.9829 45.2626 89.1108 44.9228 89.4947 44.3058C89.8148 43.7722 90.0915 43.3889 90.6447 43.5801C90.8576 43.6873 90.7514 43.304 90.4536 43.1765Z" fill="#231F20"/>
<path d="M102.302 61.2705C102.408 61.2705 102.43 61.1208 102.43 60.9913C102.43 60.6939 102.26 60.2448 102.025 60.0531C101.962 60.5018 101.748 60.8001 101.748 60.9913C101.748 61.1431 102.154 61.2705 102.302 61.2705Z" fill="#231F20"/>
<path d="M104.943 56.9834C105.114 56.9834 105.37 56.9186 105.37 56.7902C105.37 56.5353 104.986 56.0877 104.646 55.9815C104.88 56.4281 104.646 56.9834 104.943 56.9834Z" fill="#231F20"/>
<path d="M93.2467 51.1681C95.6534 52.2751 95.5042 54.2985 95.7177 53.7867C95.8031 53.5743 96.1222 52.5735 95.2696 51.6151C94.6096 50.8474 94.3542 51.0396 94.6096 50.4014C95.6534 47.8635 96.3144 44.0281 93.1829 42.6843C92.8203 42.5346 92.5199 42.5346 92.5199 42.5993C92.5199 42.663 92.8628 42.7703 93.2679 43.0464C95.3555 44.4326 94.7158 48.2034 92.7991 50.0356C92.1572 50.6562 92.4561 50.806 93.2467 51.1681Z" fill="#231F20"/>
<path d="M85.0184 68.8311C85.1893 68.8311 85.1034 68.5751 85.0396 68.469C84.891 68.2141 84.6143 68.0436 84.3792 67.9364C84.4429 68.1928 84.4646 68.8311 84.721 68.8311H85.0184Z" fill="#231F20"/>
<path d="M77.7523 68.8311C77.9227 68.8311 77.7948 68.5751 77.7311 68.469C77.5819 68.2141 77.2835 68.0649 77.0488 67.9577C77.1131 68.2141 77.1561 68.8311 77.4109 68.8311H77.7523Z" fill="#231F20"/>
<path d="M86.5547 54.406C87.8762 54.2563 88.0891 53.959 88.3228 52.9571C88.4289 52.4888 88.7698 51.9982 89.0687 51.6791C89.2604 51.4657 89.4521 51.2958 89.6437 50.9761C89.708 50.8477 89.7504 50.7415 89.6437 50.785C89.4951 50.8912 89.0475 51.1896 88.8548 51.3382C87.9182 51.9982 86.49 52.3178 85.916 52.3178C84.6991 52.3178 83.6553 51.9563 82.5478 51.9563C79.2251 51.9563 77.986 54.5557 78.1564 56.0673C78.1777 56.302 78.2201 56.3232 78.3061 56.3232C78.5408 56.3232 78.734 55.4281 79.5655 54.6407C80.7797 53.4891 82.1002 52.8297 83.9754 52.8297C85.3389 52.8297 85.8947 53.2767 85.8947 53.4466C85.8947 53.787 85.3166 53.8092 85.3591 54.1501C85.3591 54.2563 85.6813 54.5122 86.5547 54.406Z" fill="#231F20"/>
</svg>
