<svg width="488" height="312" viewBox="0 0 488 312" fill="none" xmlns="http://www.w3.org/2000/svg">
<mask id="mask0" mask-type="alpha" maskUnits="userSpaceOnUse" x="0" y="0" width="488" height="312">
<rect width="488" height="312" fill="#F3F3F3"/>
</mask>
<g mask="url(#mask0)">
<rect width="250" height="60" transform="matrix(-1 0 0 1 369 52)" fill="#F3F3F3" stroke="#CFCFCF" stroke-linejoin="round"/>
<path d="M180.268 86.14C182.382 86.14 183.292 85.02 183.698 84.334C183.908 83.97 183.978 83.83 183.978 83.592C183.978 83.242 183.698 82.976 183.348 82.976C182.998 82.976 182.83 83.214 182.69 83.452C182.298 84.138 181.64 84.908 180.324 84.908C178.784 84.908 177.51 83.578 177.51 80.932C177.51 78.356 178.784 76.97 180.38 76.97C181.444 76.97 182.074 77.306 182.788 78.468C182.9 78.65 183.096 78.804 183.376 78.804C183.74 78.804 183.992 78.524 183.992 78.174C183.992 77.95 183.908 77.796 183.81 77.642C183.166 76.578 182.158 75.738 180.31 75.738C177.748 75.738 176.068 77.81 176.068 80.932C176.068 84.054 177.664 86.14 180.268 86.14ZM190.771 85.342C190.771 85.706 191.065 86 191.429 86C191.793 86 192.087 85.706 192.087 85.342V79.14C192.087 78.776 191.793 78.482 191.429 78.482C191.065 78.482 190.771 78.776 190.771 79.14V82.962C190.771 83.312 190.701 83.718 190.505 84.026C190.169 84.586 189.497 84.88 188.895 84.88C188.223 84.88 187.775 84.558 187.607 84.082C187.523 83.844 187.495 83.424 187.495 83.088V79.14C187.495 78.776 187.201 78.482 186.837 78.482C186.473 78.482 186.179 78.776 186.179 79.14V83.158C186.179 83.816 186.235 84.46 186.543 84.978C187.005 85.762 187.859 86.07 188.643 86.07C189.553 86.07 190.323 85.692 190.771 85.174V85.342ZM200.307 83.816C200.307 82.626 199.649 81.968 198.207 81.674L197.031 81.436C196.401 81.31 195.799 81.142 195.799 80.484C195.799 80.05 196.135 79.546 197.185 79.546C197.941 79.546 198.389 79.756 198.935 80.12C199.061 80.204 199.243 80.274 199.383 80.274C199.705 80.274 199.943 80.064 199.943 79.756C199.943 79.546 199.845 79.35 199.621 79.168C199.047 78.692 198.193 78.412 197.269 78.412C195.981 78.412 195.197 78.93 194.791 79.616C194.623 79.896 194.539 80.218 194.539 80.54C194.539 81.716 195.449 82.332 196.639 82.556L197.815 82.78C198.543 82.92 199.061 83.158 199.061 83.858C199.061 84.53 198.473 84.936 197.451 84.936C196.443 84.936 195.925 84.558 195.435 84.068C195.323 83.956 195.155 83.83 194.959 83.83C194.609 83.83 194.329 84.082 194.329 84.432C194.329 84.642 194.427 84.81 194.539 84.95C194.945 85.412 195.841 86.07 197.437 86.07C199.243 86.07 200.307 85.16 200.307 83.816ZM207.292 84.866C207.292 84.544 207.11 84.292 206.788 84.292C206.62 84.292 206.452 84.39 206.27 84.544C206.046 84.74 205.696 84.88 205.444 84.88C204.856 84.88 204.604 84.502 204.604 83.536V79.672H206.256C206.578 79.672 206.844 79.406 206.844 79.07C206.844 78.748 206.578 78.482 206.242 78.482H204.604V76.382C204.604 76.018 204.31 75.724 203.946 75.724C203.582 75.724 203.288 76.018 203.288 76.382V78.482H202.196C201.874 78.482 201.608 78.748 201.608 79.084C201.608 79.406 201.874 79.672 202.21 79.672H203.288V83.62C203.288 85.188 203.988 86.07 205.444 86.07C206.06 86.07 206.718 85.79 207.082 85.356C207.208 85.216 207.292 85.048 207.292 84.866ZM211.935 78.412C210.143 78.412 208.743 79.924 208.743 82.248C208.743 84.572 210.129 86.07 211.935 86.07C213.741 86.07 215.127 84.572 215.127 82.248C215.127 79.924 213.727 78.412 211.935 78.412ZM211.935 84.95C210.843 84.95 210.045 83.942 210.045 82.248C210.045 80.568 210.843 79.532 211.935 79.532C213.027 79.532 213.825 80.568 213.825 82.248C213.825 83.942 213.027 84.95 211.935 84.95ZM226.589 81.352C226.589 80.61 226.505 80.022 226.309 79.588C226.001 78.916 225.371 78.412 224.419 78.412C223.439 78.412 222.823 78.874 222.431 79.63C222.179 78.944 221.507 78.412 220.555 78.412C219.771 78.412 219.169 78.748 218.819 79.294V79.14C218.819 78.776 218.525 78.482 218.161 78.482C217.797 78.482 217.503 78.776 217.503 79.14V85.342C217.503 85.706 217.797 86 218.161 86C218.525 86 218.819 85.706 218.819 85.342V81.282C218.819 80.96 218.875 80.568 219.015 80.33C219.267 79.882 219.757 79.602 220.303 79.602C220.821 79.602 221.157 79.966 221.269 80.33C221.353 80.61 221.381 80.988 221.381 81.52V85.342C221.381 85.706 221.675 86 222.039 86C222.403 86 222.697 85.706 222.697 85.342V81.408C222.697 81.058 222.767 80.624 222.893 80.386C223.145 79.924 223.593 79.602 224.181 79.602C224.713 79.602 225.049 79.966 225.175 80.386C225.259 80.666 225.273 81.31 225.273 81.492V85.342C225.273 85.706 225.567 86 225.931 86C226.295 86 226.589 85.706 226.589 85.342V81.352ZM235.027 82.038C235.027 79.686 233.725 78.412 232.073 78.412C230.407 78.412 228.895 79.784 228.895 82.248C228.895 84.614 230.267 86.07 232.073 86.07C233.277 86.07 234.089 85.538 234.551 84.838C234.621 84.726 234.705 84.572 234.705 84.404C234.705 84.068 234.495 83.816 234.159 83.816C233.935 83.816 233.767 83.928 233.627 84.124C233.235 84.67 232.773 84.95 232.045 84.95C230.995 84.95 230.295 84.026 230.197 82.724H234.397C234.747 82.724 235.027 82.514 235.027 82.038ZM233.739 81.604H230.225C230.323 80.33 231.065 79.532 232.073 79.532C233.067 79.532 233.697 80.33 233.739 81.604ZM242.759 79.7C242.759 79.532 242.703 79.378 242.577 79.238C242.101 78.706 241.443 78.412 240.645 78.412C239.791 78.412 239.091 78.748 238.643 79.336V79.14C238.643 78.776 238.349 78.482 237.985 78.482C237.621 78.482 237.327 78.776 237.327 79.14V85.342C237.327 85.706 237.621 86 237.985 86C238.349 86 238.643 85.706 238.643 85.342V82.038C238.643 81.156 238.741 80.652 239.021 80.274C239.315 79.882 239.735 79.588 240.421 79.588C240.967 79.588 241.261 79.714 241.695 80.064C241.849 80.19 241.989 80.288 242.199 80.288C242.549 80.288 242.759 79.994 242.759 79.7ZM255.809 78.93C255.809 78.118 255.515 77.432 255.053 76.928C254.423 76.256 253.471 75.878 252.463 75.878H249.719C249.341 75.878 249.033 76.2 249.033 76.578V85.3C249.033 85.692 249.341 86 249.733 86C250.125 86 250.433 85.692 250.433 85.3V81.954H252.463C253.625 81.954 254.507 81.562 255.067 80.946C255.557 80.4 255.809 79.714 255.809 78.93ZM254.465 78.902C254.465 79.364 254.367 79.812 254.059 80.148C253.765 80.47 253.261 80.694 252.421 80.694H250.433V77.138H252.393C253.177 77.138 253.709 77.418 254.059 77.81C254.325 78.132 254.465 78.51 254.465 78.902ZM262.398 85.342C262.398 85.706 262.692 86 263.056 86C263.42 86 263.714 85.706 263.714 85.342V79.14C263.714 78.776 263.42 78.482 263.056 78.482C262.692 78.482 262.398 78.776 262.398 79.14V82.962C262.398 83.312 262.328 83.718 262.132 84.026C261.796 84.586 261.124 84.88 260.522 84.88C259.85 84.88 259.402 84.558 259.234 84.082C259.15 83.844 259.122 83.424 259.122 83.088V79.14C259.122 78.776 258.828 78.482 258.464 78.482C258.1 78.482 257.806 78.776 257.806 79.14V83.158C257.806 83.816 257.862 84.46 258.17 84.978C258.632 85.762 259.486 86.07 260.27 86.07C261.18 86.07 261.95 85.692 262.398 85.174V85.342ZM271.948 79.7C271.948 79.532 271.892 79.378 271.766 79.238C271.29 78.706 270.632 78.412 269.834 78.412C268.98 78.412 268.28 78.748 267.832 79.336V79.14C267.832 78.776 267.538 78.482 267.174 78.482C266.81 78.482 266.516 78.776 266.516 79.14V85.342C266.516 85.706 266.81 86 267.174 86C267.538 86 267.832 85.706 267.832 85.342V82.038C267.832 81.156 267.93 80.652 268.21 80.274C268.504 79.882 268.924 79.588 269.61 79.588C270.156 79.588 270.45 79.714 270.884 80.064C271.038 80.19 271.178 80.288 271.388 80.288C271.738 80.288 271.948 79.994 271.948 79.7ZM276.274 79.574C276.988 79.574 277.45 79.938 277.786 80.498C277.954 80.778 278.122 80.946 278.402 80.946C278.738 80.946 278.976 80.694 278.976 80.4C278.976 80.19 278.906 80.036 278.85 79.924C278.36 79 277.478 78.412 276.288 78.412C274.496 78.412 273.11 79.924 273.11 82.248C273.11 84.572 274.496 86.07 276.302 86.07C277.52 86.07 278.486 85.37 278.864 84.6C278.92 84.474 278.99 84.292 278.99 84.152C278.99 83.816 278.738 83.536 278.402 83.536C278.192 83.536 277.968 83.634 277.814 83.956C277.534 84.558 277.002 84.908 276.302 84.908C275.21 84.908 274.412 83.942 274.412 82.248C274.412 81.002 274.944 79.574 276.274 79.574ZM282.598 76.536C282.598 76.172 282.304 75.878 281.94 75.878C281.576 75.878 281.282 76.172 281.282 76.536V85.342C281.282 85.706 281.576 86 281.94 86C282.304 86 282.598 85.706 282.598 85.342V81.52C282.598 81.17 282.668 80.764 282.864 80.456C283.2 79.896 283.872 79.602 284.474 79.602C285.146 79.602 285.594 79.924 285.762 80.4C285.846 80.638 285.874 81.058 285.874 81.394V85.342C285.874 85.706 286.168 86 286.532 86C286.896 86 287.19 85.706 287.19 85.342V81.324C287.19 80.666 287.134 80.022 286.826 79.504C286.364 78.72 285.51 78.412 284.726 78.412C283.816 78.412 283.046 78.79 282.598 79.308V76.536ZM294.57 85.076V85.342C294.57 85.706 294.864 86 295.228 86C295.592 86 295.886 85.706 295.886 85.342V79.14C295.886 78.776 295.592 78.482 295.228 78.482C294.864 78.482 294.57 78.776 294.57 79.14V79.35C294.094 78.706 293.366 78.412 292.638 78.412C290.86 78.412 289.502 79.952 289.502 82.248C289.502 84.558 290.874 86.07 292.652 86.07C293.464 86.07 294.15 85.706 294.57 85.076ZM292.694 84.95C291.602 84.95 290.804 83.942 290.804 82.248C290.804 80.568 291.602 79.532 292.694 79.532C293.758 79.532 294.584 80.568 294.584 82.248C294.584 83.942 293.758 84.95 292.694 84.95ZM304.104 83.816C304.104 82.626 303.446 81.968 302.004 81.674L300.828 81.436C300.198 81.31 299.596 81.142 299.596 80.484C299.596 80.05 299.932 79.546 300.982 79.546C301.738 79.546 302.186 79.756 302.732 80.12C302.858 80.204 303.04 80.274 303.18 80.274C303.502 80.274 303.74 80.064 303.74 79.756C303.74 79.546 303.642 79.35 303.418 79.168C302.844 78.692 301.99 78.412 301.066 78.412C299.778 78.412 298.994 78.93 298.588 79.616C298.42 79.896 298.336 80.218 298.336 80.54C298.336 81.716 299.246 82.332 300.436 82.556L301.612 82.78C302.34 82.92 302.858 83.158 302.858 83.858C302.858 84.53 302.27 84.936 301.248 84.936C300.24 84.936 299.722 84.558 299.232 84.068C299.12 83.956 298.952 83.83 298.756 83.83C298.406 83.83 298.126 84.082 298.126 84.432C298.126 84.642 298.224 84.81 298.336 84.95C298.742 85.412 299.638 86.07 301.234 86.07C303.04 86.07 304.104 85.16 304.104 83.816ZM312.041 82.038C312.041 79.686 310.739 78.412 309.087 78.412C307.421 78.412 305.909 79.784 305.909 82.248C305.909 84.614 307.281 86.07 309.087 86.07C310.291 86.07 311.103 85.538 311.565 84.838C311.635 84.726 311.719 84.572 311.719 84.404C311.719 84.068 311.509 83.816 311.173 83.816C310.949 83.816 310.781 83.928 310.641 84.124C310.249 84.67 309.787 84.95 309.059 84.95C308.009 84.95 307.309 84.026 307.211 82.724H311.411C311.761 82.724 312.041 82.514 312.041 82.038ZM310.753 81.604H307.239C307.337 80.33 308.079 79.532 309.087 79.532C310.081 79.532 310.711 80.33 310.753 81.604Z" fill="#353535"/>
<path d="M667 368.5H417L119 112H369L667 368.5Z" fill="#F3F3F3" stroke="#CFCFCF" stroke-linejoin="round"/>
<path d="M369 52L667 308.143V367L369 112V52Z" fill="#F3F3F3" stroke="#CFCFCF" stroke-linejoin="round"/>
<rect width="250" height="60" transform="matrix(-1 0 0 1 369 128)" fill="#FAFAFA" stroke="#CFCFCF" stroke-linejoin="round"/>
<path d="M221.059 158.962C221.059 157.772 220.387 156.876 219.491 156.498C220.079 156.078 220.583 155.462 220.583 154.538C220.583 153.726 220.275 153.068 219.771 152.606C219.253 152.116 218.525 151.878 217.433 151.878H214.451C214.059 151.878 213.751 152.186 213.751 152.578V161.3C213.751 161.678 214.059 162 214.437 162H217.573C219.813 162 221.059 160.67 221.059 158.962ZM219.197 154.566C219.197 155.378 218.791 155.98 217.573 155.98H215.151V153.138H217.391C218.609 153.138 219.197 153.684 219.197 154.566ZM219.617 158.976C219.617 160.026 218.875 160.74 217.601 160.74H215.151V157.212H217.657C218.987 157.212 219.617 157.884 219.617 158.976ZM228.075 161.076V161.342C228.075 161.706 228.369 162 228.733 162C229.097 162 229.391 161.706 229.391 161.342V155.14C229.391 154.776 229.097 154.482 228.733 154.482C228.369 154.482 228.075 154.776 228.075 155.14V155.35C227.599 154.706 226.871 154.412 226.143 154.412C224.365 154.412 223.007 155.952 223.007 158.248C223.007 160.558 224.379 162.07 226.157 162.07C226.969 162.07 227.655 161.706 228.075 161.076ZM226.199 160.95C225.107 160.95 224.309 159.942 224.309 158.248C224.309 156.568 225.107 155.532 226.199 155.532C227.263 155.532 228.089 156.568 228.089 158.248C228.089 159.942 227.263 160.95 226.199 160.95ZM233.507 155.14C233.507 154.776 233.213 154.482 232.849 154.482C232.485 154.482 232.191 154.776 232.191 155.14V161.342C232.191 161.706 232.485 162 232.849 162C233.213 162 233.507 161.706 233.507 161.342V157.52C233.507 157.17 233.577 156.764 233.773 156.456C234.109 155.896 234.781 155.602 235.383 155.602C236.055 155.602 236.503 155.924 236.671 156.4C236.755 156.638 236.783 157.058 236.783 157.394V161.342C236.783 161.706 237.077 162 237.441 162C237.805 162 238.099 161.706 238.099 161.342V157.324C238.099 156.666 238.043 156.022 237.735 155.504C237.273 154.72 236.419 154.412 235.635 154.412C234.725 154.412 233.955 154.79 233.507 155.308V155.14ZM246.264 155.672C246.418 155.532 246.53 155.336 246.53 155.126C246.53 154.762 246.222 154.482 245.886 154.482C245.704 154.482 245.536 154.566 245.41 154.692L242.162 157.94V152.536C242.162 152.172 241.868 151.878 241.504 151.878C241.14 151.878 240.846 152.172 240.846 152.536V161.342C240.846 161.706 241.14 162 241.504 162C241.868 162 242.162 161.706 242.162 161.342V159.606L243.142 158.668L245.578 161.776C245.732 161.972 245.928 162.028 246.082 162.028C246.432 162.028 246.726 161.734 246.726 161.384C246.726 161.202 246.642 161.048 246.53 160.908L244.024 157.828L246.264 155.672ZM254.35 158.038C254.35 155.686 253.048 154.412 251.396 154.412C249.73 154.412 248.218 155.784 248.218 158.248C248.218 160.614 249.59 162.07 251.396 162.07C252.6 162.07 253.412 161.538 253.874 160.838C253.944 160.726 254.028 160.572 254.028 160.404C254.028 160.068 253.818 159.816 253.482 159.816C253.258 159.816 253.09 159.928 252.95 160.124C252.558 160.67 252.096 160.95 251.368 160.95C250.318 160.95 249.618 160.026 249.52 158.724H253.72C254.07 158.724 254.35 158.514 254.35 158.038ZM253.062 157.604H249.548C249.646 156.33 250.388 155.532 251.396 155.532C252.39 155.532 253.02 156.33 253.062 157.604ZM259.366 162.07C260.15 162.07 260.808 161.706 261.298 161.118V161.342C261.298 161.706 261.592 162 261.956 162C262.32 162 262.614 161.706 262.614 161.342V152.536C262.614 152.172 262.32 151.878 261.956 151.878C261.592 151.878 261.298 152.172 261.298 152.536V155.308C260.864 154.804 260.234 154.412 259.282 154.412C257.532 154.412 256.23 155.966 256.23 158.234C256.23 160.544 257.602 162.07 259.366 162.07ZM259.422 155.532C260.486 155.532 261.312 156.54 261.312 158.234C261.312 159.914 260.486 160.95 259.422 160.95C258.33 160.95 257.532 159.914 257.532 158.234C257.532 156.54 258.33 155.532 259.422 155.532ZM272.537 155.658C272.537 154.972 271.977 154.412 271.277 154.412C270.591 154.412 270.031 154.972 270.031 155.658C270.031 156.358 270.591 156.918 271.277 156.918C271.977 156.918 272.537 156.358 272.537 155.658ZM272.537 160.824C272.537 160.124 271.977 159.564 271.277 159.564C270.591 159.564 270.031 160.124 270.031 160.824C270.031 161.51 270.591 162.07 271.277 162.07C271.977 162.07 272.537 161.51 272.537 160.824Z" fill="#353535"/>
<path d="M667 444.5H417L119 188H369L667 444.5Z" fill="#FAFAFA" stroke="#CFCFCF" stroke-linejoin="round"/>
<path d="M369 128L667 384.143V443L369 188V128Z" fill="#FAFAFA" stroke="#CFCFCF" stroke-linejoin="round"/>
<rect width="250" height="60" transform="matrix(-1 0 0 1 369 204)" fill="#F3F3F3" stroke="#CFCFCF" stroke-linejoin="round"/>
<path d="M200.06 228.578C200.06 228.186 199.752 227.878 199.36 227.878H198.646C198.408 227.878 198.17 228.004 198.072 228.228L195.79 233.618L193.522 228.228C193.424 228.004 193.186 227.878 192.948 227.878H192.276C191.884 227.878 191.576 228.186 191.576 228.578V237.3C191.576 237.692 191.87 238 192.262 238C192.654 238 192.948 237.692 192.948 237.3V230.482C192.948 230.23 192.934 229.796 192.92 229.6H192.948C192.948 229.6 193.088 230.076 193.214 230.37L195.216 235.004C195.356 235.326 195.58 235.382 195.818 235.382C196.056 235.382 196.252 235.256 196.364 235.004L198.394 230.37C198.52 230.09 198.66 229.6 198.66 229.6H198.688C198.674 229.81 198.66 230.258 198.66 230.482V237.3C198.66 237.692 198.968 238 199.36 238C199.752 238 200.06 237.692 200.06 237.3V228.578ZM208.633 234.038C208.633 231.686 207.331 230.412 205.679 230.412C204.013 230.412 202.501 231.784 202.501 234.248C202.501 236.614 203.873 238.07 205.679 238.07C206.883 238.07 207.695 237.538 208.157 236.838C208.227 236.726 208.311 236.572 208.311 236.404C208.311 236.068 208.101 235.816 207.765 235.816C207.541 235.816 207.373 235.928 207.233 236.124C206.841 236.67 206.379 236.95 205.651 236.95C204.601 236.95 203.901 236.026 203.803 234.724H208.003C208.353 234.724 208.633 234.514 208.633 234.038ZM207.345 233.604H203.831C203.929 232.33 204.671 231.532 205.679 231.532C206.673 231.532 207.303 232.33 207.345 233.604ZM216.364 231.7C216.364 231.532 216.308 231.378 216.182 231.238C215.706 230.706 215.048 230.412 214.25 230.412C213.396 230.412 212.696 230.748 212.248 231.336V231.14C212.248 230.776 211.954 230.482 211.59 230.482C211.226 230.482 210.932 230.776 210.932 231.14V237.342C210.932 237.706 211.226 238 211.59 238C211.954 238 212.248 237.706 212.248 237.342V234.038C212.248 233.156 212.346 232.652 212.626 232.274C212.92 231.882 213.34 231.588 214.026 231.588C214.572 231.588 214.866 231.714 215.3 232.064C215.454 232.19 215.594 232.288 215.804 232.288C216.154 232.288 216.364 231.994 216.364 231.7ZM220.69 231.574C221.404 231.574 221.866 231.938 222.202 232.498C222.37 232.778 222.538 232.946 222.818 232.946C223.154 232.946 223.392 232.694 223.392 232.4C223.392 232.19 223.322 232.036 223.266 231.924C222.776 231 221.894 230.412 220.704 230.412C218.912 230.412 217.526 231.924 217.526 234.248C217.526 236.572 218.912 238.07 220.718 238.07C221.936 238.07 222.902 237.37 223.28 236.6C223.336 236.474 223.406 236.292 223.406 236.152C223.406 235.816 223.154 235.536 222.818 235.536C222.608 235.536 222.384 235.634 222.23 235.956C221.95 236.558 221.418 236.908 220.718 236.908C219.626 236.908 218.828 235.942 218.828 234.248C218.828 233.002 219.36 231.574 220.69 231.574ZM227.014 228.536C227.014 228.172 226.72 227.878 226.356 227.878C225.992 227.878 225.698 228.172 225.698 228.536V237.342C225.698 237.706 225.992 238 226.356 238C226.72 238 227.014 237.706 227.014 237.342V233.52C227.014 233.17 227.084 232.764 227.28 232.456C227.616 231.896 228.288 231.602 228.89 231.602C229.562 231.602 230.01 231.924 230.178 232.4C230.262 232.638 230.29 233.058 230.29 233.394V237.342C230.29 237.706 230.584 238 230.948 238C231.312 238 231.606 237.706 231.606 237.342V233.324C231.606 232.666 231.55 232.022 231.242 231.504C230.78 230.72 229.926 230.412 229.142 230.412C228.232 230.412 227.462 230.79 227.014 231.308V228.536ZM238.986 237.076V237.342C238.986 237.706 239.28 238 239.644 238C240.008 238 240.302 237.706 240.302 237.342V231.14C240.302 230.776 240.008 230.482 239.644 230.482C239.28 230.482 238.986 230.776 238.986 231.14V231.35C238.51 230.706 237.782 230.412 237.054 230.412C235.276 230.412 233.918 231.952 233.918 234.248C233.918 236.558 235.29 238.07 237.068 238.07C237.88 238.07 238.566 237.706 238.986 237.076ZM237.11 236.95C236.018 236.95 235.22 235.942 235.22 234.248C235.22 232.568 236.018 231.532 237.11 231.532C238.174 231.532 239 232.568 239 234.248C239 235.942 238.174 236.95 237.11 236.95ZM244.418 231.14C244.418 230.776 244.124 230.482 243.76 230.482C243.396 230.482 243.102 230.776 243.102 231.14V237.342C243.102 237.706 243.396 238 243.76 238C244.124 238 244.418 237.706 244.418 237.342V233.52C244.418 233.17 244.488 232.764 244.684 232.456C245.02 231.896 245.692 231.602 246.294 231.602C246.966 231.602 247.414 231.924 247.582 232.4C247.666 232.638 247.694 233.058 247.694 233.394V237.342C247.694 237.706 247.988 238 248.352 238C248.716 238 249.01 237.706 249.01 237.342V233.324C249.01 232.666 248.954 232.022 248.646 231.504C248.184 230.72 247.33 230.412 246.546 230.412C245.636 230.412 244.866 230.79 244.418 231.308V231.14ZM256.448 236.866C256.448 236.544 256.266 236.292 255.944 236.292C255.776 236.292 255.608 236.39 255.426 236.544C255.202 236.74 254.852 236.88 254.6 236.88C254.012 236.88 253.76 236.502 253.76 235.536V231.672H255.412C255.734 231.672 256 231.406 256 231.07C256 230.748 255.734 230.482 255.398 230.482H253.76V228.382C253.76 228.018 253.466 227.724 253.102 227.724C252.738 227.724 252.444 228.018 252.444 228.382V230.482H251.352C251.03 230.482 250.764 230.748 250.764 231.084C250.764 231.406 251.03 231.672 251.366 231.672H252.444V235.62C252.444 237.188 253.144 238.07 254.6 238.07C255.216 238.07 255.874 237.79 256.238 237.356C256.364 237.216 256.448 237.048 256.448 236.866ZM270.525 234.962C270.525 233.772 269.853 232.876 268.957 232.498C269.545 232.078 270.049 231.462 270.049 230.538C270.049 229.726 269.741 229.068 269.237 228.606C268.719 228.116 267.991 227.878 266.899 227.878H263.917C263.525 227.878 263.217 228.186 263.217 228.578V237.3C263.217 237.678 263.525 238 263.903 238H267.039C269.279 238 270.525 236.67 270.525 234.962ZM268.663 230.566C268.663 231.378 268.257 231.98 267.039 231.98H264.617V229.138H266.857C268.075 229.138 268.663 229.684 268.663 230.566ZM269.083 234.976C269.083 236.026 268.341 236.74 267.067 236.74H264.617V233.212H267.123C268.453 233.212 269.083 233.884 269.083 234.976ZM277.541 237.076V237.342C277.541 237.706 277.835 238 278.199 238C278.563 238 278.857 237.706 278.857 237.342V231.14C278.857 230.776 278.563 230.482 278.199 230.482C277.835 230.482 277.541 230.776 277.541 231.14V231.35C277.065 230.706 276.337 230.412 275.609 230.412C273.831 230.412 272.473 231.952 272.473 234.248C272.473 236.558 273.845 238.07 275.623 238.07C276.435 238.07 277.121 237.706 277.541 237.076ZM275.665 236.95C274.573 236.95 273.775 235.942 273.775 234.248C273.775 232.568 274.573 231.532 275.665 231.532C276.729 231.532 277.555 232.568 277.555 234.248C277.555 235.942 276.729 236.95 275.665 236.95ZM282.973 231.14C282.973 230.776 282.679 230.482 282.315 230.482C281.951 230.482 281.657 230.776 281.657 231.14V237.342C281.657 237.706 281.951 238 282.315 238C282.679 238 282.973 237.706 282.973 237.342V233.52C282.973 233.17 283.043 232.764 283.239 232.456C283.575 231.896 284.247 231.602 284.849 231.602C285.521 231.602 285.969 231.924 286.137 232.4C286.221 232.638 286.249 233.058 286.249 233.394V237.342C286.249 237.706 286.543 238 286.907 238C287.271 238 287.565 237.706 287.565 237.342V233.324C287.565 232.666 287.509 232.022 287.201 231.504C286.739 230.72 285.885 230.412 285.101 230.412C284.191 230.412 283.421 230.79 282.973 231.308V231.14ZM295.729 231.672C295.883 231.532 295.995 231.336 295.995 231.126C295.995 230.762 295.687 230.482 295.351 230.482C295.169 230.482 295.001 230.566 294.875 230.692L291.627 233.94V228.536C291.627 228.172 291.333 227.878 290.969 227.878C290.605 227.878 290.311 228.172 290.311 228.536V237.342C290.311 237.706 290.605 238 290.969 238C291.333 238 291.627 237.706 291.627 237.342V235.606L292.607 234.668L295.043 237.776C295.197 237.972 295.393 238.028 295.547 238.028C295.897 238.028 296.191 237.734 296.191 237.384C296.191 237.202 296.107 237.048 295.995 236.908L293.489 233.828L295.729 231.672Z" fill="#353535"/>
<path d="M667 520.5H417L119 264H369L667 520.5Z" fill="#F3F3F3" stroke="#CFCFCF" stroke-linejoin="round"/>
<path d="M369 204L667 460.143V519L369 264V204Z" fill="#F3F3F3" stroke="#CFCFCF" stroke-linejoin="round"/>
</g>
</svg>
