<svg width="176" height="112" viewBox="0 0 176 112" fill="none" xmlns="http://www.w3.org/2000/svg">
<rect width="176" height="112" fill="#FAFAFA"/>
<path d="M85.2564 53.5671L85.1244 53.5231C86.2004 52.9831 86.8724 51.8191 86.8724 50.383C86.8724 47.939 84.9644 46.279 82.2723 46.279H74.5402C74.3762 46.279 74.2402 46.411 74.2402 46.579V61.6833C74.2402 61.8473 74.3722 61.9833 74.5402 61.9833H81.9363C85.6364 61.9833 87.5885 60.3912 87.5885 57.2712C87.5885 55.4951 86.6884 54.1271 85.2564 53.5671ZM77.1362 48.547H81.7243C83.3764 48.547 84.2764 49.019 84.2764 50.351C84.2764 51.8711 83.4204 52.6311 81.7243 52.6591H77.1362C76.9722 52.6591 76.8362 52.5271 76.8362 52.3591V48.843C76.8402 48.679 76.9722 48.547 77.1362 48.547ZM81.7843 59.7032H77.1322C76.9682 59.7032 76.8322 59.5712 76.8322 59.4032V55.2311C76.8322 55.0671 76.9642 54.9311 77.1322 54.9311H81.8283C84.0444 54.9591 84.9924 55.5831 84.9924 57.3392C84.9924 58.8632 84.0244 59.7032 81.7843 59.7032Z" fill="#004481"/>
<path d="M101.573 46.435L96.4124 56.2552C96.3004 56.4673 95.9964 56.4673 95.8844 56.2552L90.7203 46.435C90.6683 46.335 90.5683 46.275 90.4563 46.275H87.9602C87.7922 46.275 87.6842 46.455 87.7642 46.6071L95.8924 61.8194C96.0044 62.0314 96.3084 62.0314 96.4204 61.8194L104.549 46.6071C104.629 46.459 104.521 46.275 104.353 46.275H101.841C101.725 46.275 101.625 46.339 101.573 46.435Z" fill="#004481"/>
<path d="M69.0162 53.5671L68.8842 53.5231C69.9602 52.9831 70.6323 51.8191 70.6323 50.383C70.6323 47.939 68.7242 46.279 66.0322 46.279H58.3C58.136 46.279 58 46.411 58 46.579V61.6833C58 61.8473 58.132 61.9833 58.3 61.9833H65.6962C69.3962 61.9833 71.3483 60.3912 71.3483 57.2712C71.3483 55.4951 70.4523 54.1271 69.0162 53.5671ZM60.9001 48.547H65.4882C67.1402 48.547 68.0402 49.019 68.0402 50.351C68.0402 51.8711 67.1842 52.6311 65.4882 52.6591H60.9001C60.7361 52.6591 60.6001 52.5271 60.6001 52.3591V48.843C60.6001 48.679 60.7321 48.547 60.9001 48.547ZM65.5482 59.7032H60.8961C60.7321 59.7032 60.5961 59.5712 60.5961 59.4032V55.2311C60.5961 55.0671 60.7281 54.9311 60.8961 54.9311H65.5922C67.8082 54.9591 68.7562 55.5831 68.7562 57.3392C68.7562 58.8632 67.7842 59.7032 65.5482 59.7032Z" fill="#004481"/>
<path d="M104.165 59.5433L109.325 49.7231C109.437 49.5111 109.741 49.5111 109.853 49.7231L115.017 59.5433C115.069 59.6433 115.169 59.7033 115.281 59.7033H117.777C117.945 59.7033 118.053 59.5233 117.973 59.3713L109.845 44.159C109.733 43.947 109.429 43.947 109.317 44.159L101.189 59.3713C101.109 59.5193 101.217 59.7033 101.385 59.7033H103.897C104.013 59.7033 104.113 59.6393 104.165 59.5433Z" fill="#004481"/>
</svg>
