<svg width="696" height="448" viewBox="0 0 696 448" fill="none" xmlns="http://www.w3.org/2000/svg">
<g clip-path="url(#clip0_942_727)">
<rect width="696" height="448" fill="#F3F3F3"/>
<path d="M-19 21.7778C-19 20.7959 -18.2041 20 -17.2222 20H29L45 36V98.2242C45 99.206 44.2041 100.002 43.2222 100.002H-17.2222C-18.2041 100.002 -19 99.206 -19 98.2242V21.7778Z" stroke="#D5D5D5" stroke-width="2" stroke-linejoin="round"/>
<path d="M9 78L17 54" stroke="#D5D5D5" stroke-width="2" stroke-linecap="round" stroke-linejoin="round"/>
<path d="M5 58L-3 66L5 74" stroke="#D5D5D5" stroke-width="2" stroke-linecap="round" stroke-linejoin="round"/>
<path d="M21 58L29 66L21 74" stroke="#D5D5D5" stroke-width="2" stroke-linecap="round" stroke-linejoin="round"/>
<path d="M29 20V36H45" stroke="#D5D5D5" stroke-width="2" stroke-linecap="round" stroke-linejoin="round"/>
<path d="M72 67.7778C72 66.7959 72.7959 66 73.7778 66H120L136 82V144.224C136 145.206 135.204 146.002 134.222 146.002H73.7778C72.7959 146.002 72 145.206 72 144.224V67.7778Z" stroke="#D5D5D5" stroke-width="2" stroke-linejoin="round"/>
<path d="M88 102H112" stroke="#D5D5D5" stroke-width="2" stroke-linecap="round" stroke-linejoin="round"/>
<path d="M88 118H120" stroke="#D5D5D5" stroke-width="2" stroke-linecap="round" stroke-linejoin="round"/>
<path d="M88 110H120" stroke="#D5D5D5" stroke-width="2" stroke-linecap="round" stroke-linejoin="round"/>
<path d="M88 126H120" stroke="#D5D5D5" stroke-width="2" stroke-linecap="round" stroke-linejoin="round"/>
<path d="M120 66V82H136" stroke="#D5D5D5" stroke-width="2" stroke-linecap="round" stroke-linejoin="round"/>
<path d="M163 22C163 20.8954 163.895 20 165 20H225C226.105 20 227 20.8954 227 22V98C227 99.1046 226.105 100 225 100H165C163.895 100 163 99.1046 163 98V22Z" stroke="#D5D5D5" stroke-width="2" stroke-linecap="round"/>
<path d="M187 72L206.101 60L187 48V72Z" stroke="#D5D5D5" stroke-width="2" stroke-linecap="round" stroke-linejoin="round"/>
<path d="M254 68C254 66.8954 254.895 66 256 66H308C309.105 66 310 66.8954 310 68V136C310 137.105 309.105 138 308 138H256C254.895 138 254 137.105 254 136V68Z" stroke="#D5D5D5" stroke-width="2" stroke-linecap="round"/>
<path d="M272 78H260V72H272V78Z" stroke="#D5D5D5" stroke-width="2" stroke-linecap="round" stroke-linejoin="round"/>
<path d="M272 90H260V84H272V90Z" stroke="#D5D5D5" stroke-width="2" stroke-linecap="round" stroke-linejoin="round"/>
<path d="M272 102H260V96H272V102Z" stroke="#D5D5D5" stroke-width="2" stroke-linecap="round" stroke-linejoin="round"/>
<path d="M272 114H260V108H272V114Z" stroke="#D5D5D5" stroke-width="2" stroke-linecap="round" stroke-linejoin="round"/>
<path d="M310 74H316C317.105 74 318 74.8954 318 76V144C318 145.105 317.105 146 316 146H264C262.895 146 262 145.105 262 144V138" stroke="#D5D5D5" stroke-width="2" stroke-linecap="round"/>
<path d="M-19 128C-19 126.895 -18.1046 126 -17 126H35C36.1046 126 37 126.895 37 128V196C37 197.105 36.1046 198 35 198H-17C-18.1046 198 -19 197.105 -19 196V128Z" stroke="#D5D5D5" stroke-width="2" stroke-linecap="round"/>
<path d="M37 134H43C44.1046 134 45 134.895 45 136V204C45 205.105 44.1046 206 43 206H-9C-10.1046 206 -11 205.105 -11 204V198" stroke="#D5D5D5" stroke-width="2" stroke-linecap="round"/>
<path d="M344 128C344 126.895 344.895 126 346 126H398C399.105 126 400 126.895 400 128V196C400 197.105 399.105 198 398 198H346C344.895 198 344 197.105 344 196V128Z" stroke="#D5D5D5" stroke-width="2" stroke-linecap="round"/>
<path d="M362 138H350V132H362V138Z" stroke="#D5D5D5" stroke-width="2" stroke-linecap="round" stroke-linejoin="round"/>
<path d="M362 150H350V144H362V150Z" stroke="#D5D5D5" stroke-width="2" stroke-linecap="round" stroke-linejoin="round"/>
<path d="M362 162H350V156H362V162Z" stroke="#D5D5D5" stroke-width="2" stroke-linecap="round" stroke-linejoin="round"/>
<path d="M362 174H350V168H362V174Z" stroke="#D5D5D5" stroke-width="2" stroke-linecap="round" stroke-linejoin="round"/>
<path d="M400 134H406C407.105 134 408 134.895 408 136V204C408 205.105 407.105 206 406 206H354C352.895 206 352 205.105 352 204V198" stroke="#D5D5D5" stroke-width="2" stroke-linecap="round"/>
<path d="M72 167.778C72 166.796 72.7959 166 73.7778 166H120L136 182V244.224C136 245.206 135.204 246.002 134.222 246.002H73.7778C72.7959 246.002 72 245.206 72 244.224V167.778Z" stroke="#D5D5D5" stroke-width="2" stroke-linejoin="round"/>
<path d="M100 224L108 200" stroke="#D5D5D5" stroke-width="2" stroke-linecap="round" stroke-linejoin="round"/>
<path d="M96 204L88 212L96 220" stroke="#D5D5D5" stroke-width="2" stroke-linecap="round" stroke-linejoin="round"/>
<path d="M112 204L120 212L112 220" stroke="#D5D5D5" stroke-width="2" stroke-linecap="round" stroke-linejoin="round"/>
<path d="M120 166V182H136" stroke="#D5D5D5" stroke-width="2" stroke-linecap="round" stroke-linejoin="round"/>
<path d="M163 125.778C163 124.796 163.796 124 164.778 124H211L227 140V202.224C227 203.206 226.204 204.002 225.222 204.002H164.778C163.796 204.002 163 203.206 163 202.224V125.778Z" stroke="#D5D5D5" stroke-width="2" stroke-linejoin="round"/>
<path d="M179 160H203" stroke="#D5D5D5" stroke-width="2" stroke-linecap="round" stroke-linejoin="round"/>
<path d="M179 176H211" stroke="#D5D5D5" stroke-width="2" stroke-linecap="round" stroke-linejoin="round"/>
<path d="M179 168H211" stroke="#D5D5D5" stroke-width="2" stroke-linecap="round" stroke-linejoin="round"/>
<path d="M179 184H211" stroke="#D5D5D5" stroke-width="2" stroke-linecap="round" stroke-linejoin="round"/>
<path d="M211 124V140H227" stroke="#D5D5D5" stroke-width="2" stroke-linecap="round" stroke-linejoin="round"/>
<path d="M254 167.778C254 166.796 254.796 166 255.778 166H302L318 182V244.224C318 245.206 317.204 246.002 316.222 246.002H255.778C254.796 246.002 254 245.206 254 244.224V167.778Z" stroke="#D5D5D5" stroke-width="2" stroke-linejoin="round"/>
<path d="M282 224L290 200" stroke="#D5D5D5" stroke-width="2" stroke-linecap="round" stroke-linejoin="round"/>
<path d="M278 204L270 212L278 220" stroke="#D5D5D5" stroke-width="2" stroke-linecap="round" stroke-linejoin="round"/>
<path d="M294 204L302 212L294 220" stroke="#D5D5D5" stroke-width="2" stroke-linecap="round" stroke-linejoin="round"/>
<path d="M302 166V182H318" stroke="#D5D5D5" stroke-width="2" stroke-linecap="round" stroke-linejoin="round"/>
<path d="M165 230C165 228.895 165.895 228 167 228H227C228.105 228 229 228.895 229 230V306C229 307.105 228.105 308 227 308H167C165.895 308 165 307.105 165 306V230Z" stroke="#D5D5D5" stroke-width="2" stroke-linecap="round"/>
<path d="M189 280L208.101 268L189 256V280Z" stroke="#D5D5D5" stroke-width="2" stroke-linecap="round" stroke-linejoin="round"/>
<path d="M72 270C72 268.895 72.8954 268 74 268H134C135.105 268 136 268.895 136 270V346C136 347.105 135.105 348 134 348H74C72.8954 348 72 347.105 72 346V270Z" stroke="#D5D5D5" stroke-width="2" stroke-linecap="round"/>
<path d="M96 320L115.101 308L96 296V320Z" stroke="#D5D5D5" stroke-width="2" stroke-linecap="round" stroke-linejoin="round"/>
<path d="M-17 229.778C-17 228.796 -16.2041 228 -15.2222 228H31L47 244V306.224C47 307.206 46.2041 308.002 45.2222 308.002H-15.2222C-16.2041 308.002 -17 307.206 -17 306.224V229.778Z" stroke="#D5D5D5" stroke-width="2" stroke-linejoin="round"/>
<path d="M11 286L19 262" stroke="#D5D5D5" stroke-width="2" stroke-linecap="round" stroke-linejoin="round"/>
<path d="M7 266L-1 274L7 282" stroke="#D5D5D5" stroke-width="2" stroke-linecap="round" stroke-linejoin="round"/>
<path d="M23 266L31 274L23 282" stroke="#D5D5D5" stroke-width="2" stroke-linecap="round" stroke-linejoin="round"/>
<path d="M31 228V244H47" stroke="#D5D5D5" stroke-width="2" stroke-linecap="round" stroke-linejoin="round"/>
<path d="M165 334C165 332.895 165.895 332 167 332H219C220.105 332 221 332.895 221 334V402C221 403.105 220.105 404 219 404H167C165.895 404 165 403.105 165 402V334Z" stroke="#D5D5D5" stroke-width="2" stroke-linecap="round"/>
<path d="M183 344H171V338H183V344Z" stroke="#D5D5D5" stroke-width="2" stroke-linecap="round" stroke-linejoin="round"/>
<path d="M183 356H171V350H183V356Z" stroke="#D5D5D5" stroke-width="2" stroke-linecap="round" stroke-linejoin="round"/>
<path d="M183 368H171V362H183V368Z" stroke="#D5D5D5" stroke-width="2" stroke-linecap="round" stroke-linejoin="round"/>
<path d="M183 380H171V374H183V380Z" stroke="#D5D5D5" stroke-width="2" stroke-linecap="round" stroke-linejoin="round"/>
<path d="M221 340H227C228.105 340 229 340.895 229 342V410C229 411.105 228.105 412 227 412H175C173.895 412 173 411.105 173 410V404" stroke="#D5D5D5" stroke-width="2" stroke-linecap="round"/>
<path d="M254 271.778C254 270.796 254.796 270 255.778 270H302L318 286V348.224C318 349.206 317.204 350.002 316.222 350.002H255.778C254.796 350.002 254 349.206 254 348.224V271.778Z" stroke="#D5D5D5" stroke-width="2" stroke-linejoin="round"/>
<path d="M270 306H294" stroke="#D5D5D5" stroke-width="2" stroke-linecap="round" stroke-linejoin="round"/>
<path d="M270 322H302" stroke="#D5D5D5" stroke-width="2" stroke-linecap="round" stroke-linejoin="round"/>
<path d="M270 314H302" stroke="#D5D5D5" stroke-width="2" stroke-linecap="round" stroke-linejoin="round"/>
<path d="M270 330H302" stroke="#D5D5D5" stroke-width="2" stroke-linecap="round" stroke-linejoin="round"/>
<path d="M302 270V286H318" stroke="#D5D5D5" stroke-width="2" stroke-linecap="round" stroke-linejoin="round"/>
<path d="M72 372C72 370.895 72.8954 370 74 370H134C135.105 370 136 370.895 136 372V448C136 449.105 135.105 450 134 450H74C72.8954 450 72 449.105 72 448V372Z" stroke="#D5D5D5" stroke-width="2" stroke-linecap="round"/>
<path d="M96 422L115.101 410L96 398V422Z" stroke="#D5D5D5" stroke-width="2" stroke-linecap="round" stroke-linejoin="round"/>
<path d="M344 228C344 226.895 344.895 226 346 226H406C407.105 226 408 226.895 408 228V304C408 305.105 407.105 306 406 306H346C344.895 306 344 305.105 344 304V228Z" stroke="#D5D5D5" stroke-width="2" stroke-linecap="round"/>
<path d="M368 278L387.101 266L368 254V278Z" stroke="#D5D5D5" stroke-width="2" stroke-linecap="round" stroke-linejoin="round"/>
<path d="M-17 331.778C-17 330.796 -16.2041 330 -15.2222 330H31L47 346V408.224C47 409.206 46.2041 410.002 45.2222 410.002H-15.2222C-16.2041 410.002 -17 409.206 -17 408.224V331.778Z" stroke="#D5D5D5" stroke-width="2" stroke-linejoin="round"/>
<path d="M-1 366H23" stroke="#D5D5D5" stroke-width="2" stroke-linecap="round" stroke-linejoin="round"/>
<path d="M-1 382H31" stroke="#D5D5D5" stroke-width="2" stroke-linecap="round" stroke-linejoin="round"/>
<path d="M-1 374H31" stroke="#D5D5D5" stroke-width="2" stroke-linecap="round" stroke-linejoin="round"/>
<path d="M-1 390H31" stroke="#D5D5D5" stroke-width="2" stroke-linecap="round" stroke-linejoin="round"/>
<path d="M31 330V346H47" stroke="#D5D5D5" stroke-width="2" stroke-linecap="round" stroke-linejoin="round"/>
<path d="M606 217C606 180.549 576.451 151 540 151C503.549 151 474 180.549 474 217C474 253.451 503.549 283 540 283C576.451 283 606 253.451 606 217Z" fill="#181818"/>
<path d="M516.898 246.855V246.629C516.898 238.308 523.643 231.563 531.964 231.563H547.03C555.351 231.563 562.096 238.308 562.096 246.629V246.855" stroke="#FAFAFA" stroke-width="5.53" stroke-linecap="round" stroke-linejoin="round"/>
<path fill-rule="evenodd" clip-rule="evenodd" d="M539.497 220.263C547.818 220.263 554.563 213.518 554.563 205.198C554.563 196.877 547.818 190.132 539.497 190.132C531.177 190.132 524.431 196.877 524.431 205.198C524.431 213.518 531.177 220.263 539.497 220.263Z" stroke="#FAFAFA" stroke-width="5.53" stroke-linecap="round" stroke-linejoin="round"/>
</g>
<defs>
<clipPath id="clip0_942_727">
<rect width="696" height="448" fill="white"/>
</clipPath>
</defs>
</svg>
