<svg width="176" height="112" viewBox="0 0 176 112" fill="none" xmlns="http://www.w3.org/2000/svg">
<rect width="176" height="112" fill="#FAFAFA"/>
<path d="M87.986 38.7264C90.1175 38.7264 91.8493 36.9947 91.8493 34.8632C91.8493 32.7318 90.1175 31 87.986 31C85.8546 31 84.1228 32.7318 84.1228 34.8632C84.1228 36.9947 85.8546 38.7264 87.986 38.7264Z" fill="#E4202C"/>
<path d="M87.9867 49.7827C93.0932 49.7827 97.4893 48.4949 99.3543 46.7632C99.976 46.1859 100.287 45.5198 100.287 44.8537C100.287 44.1877 99.9316 43.566 99.3543 42.9443C98.7326 42.3671 97.8445 41.8342 96.7344 41.3902C94.5142 40.5021 91.4058 39.9248 87.9867 39.9248H87.9422C83.3685 39.9248 79.3721 40.9905 77.2407 42.4559C75.9973 43.2996 75.6421 44.3209 75.6421 45.5198V55.3333V58.5305V59.2409C75.6421 60.7951 76.0861 61.4612 76.3082 61.8164C76.9742 62.9265 77.8623 63.8146 78.9725 64.4807L79.0613 64.5251V48.2285L79.1501 48.2729C81.4147 49.2054 84.5231 49.7827 87.9867 49.7827ZM82.7913 44.6761C82.7025 44.5873 82.7025 44.4541 82.7025 44.4097C82.7025 44.1877 82.8801 43.9212 83.1465 43.788C83.2797 43.6992 83.4574 43.6992 83.5906 43.6992H92.6048C92.738 43.6992 92.9156 43.7436 93.0488 43.788C93.3596 43.9212 93.4929 44.1877 93.4929 44.4097C93.4929 44.4985 93.4485 44.5873 93.404 44.6761C93.2708 44.8093 93.0932 44.8982 92.9156 44.8982H83.2797C83.1021 44.8982 82.8801 44.8093 82.7913 44.6761Z" fill="url(#paint0_radial)"/>
<path d="M89.7557 64.5697V60.6621C89.7557 59.4631 88.7788 58.5306 87.5799 58.4862H87.5355V58.131C88.7788 57.9978 89.7113 57.0209 89.7113 55.7775V53.0244C89.7113 52.4027 89.7557 51.7811 89.9333 51.2038L89.9777 51.115H89.8889C89.5781 51.1594 89.0452 51.1594 88.468 51.1594C87.6243 51.1594 86.6918 51.115 86.2033 51.0706H86.1145V51.115C85.8925 51.7811 85.8037 52.3583 85.8037 53.0688V56.1772C85.8037 56.8432 85.3152 57.5537 84.4271 57.5981V50.893H84.3827C82.873 50.7154 81.7628 50.4489 80.5639 50.0493L80.4751 50.0049V65.3246H80.5195C81.7184 65.8574 82.873 66.2127 84.3827 66.4791H84.4271V58.7082C85.2708 58.7526 85.8037 59.4187 85.8037 60.1292V64.3921C85.8037 65.2802 85.9813 65.9906 86.2033 66.7455V66.7899H86.2477C86.5586 66.8343 87.047 66.8343 87.6243 66.8343C88.4236 66.8343 89.3561 66.7899 89.9777 66.7011H90.0221V66.6123C89.8445 65.9462 89.7557 65.3246 89.7557 64.5697Z" fill="url(#paint1_radial)"/>
<path d="M99.9287 49.3838C99.9287 49.0286 99.6178 48.7178 99.2626 48.7178C99.1738 48.7178 99.0406 48.7622 98.9518 48.8066C97.2644 49.7835 94.8665 50.5828 92.2022 50.938C91.625 51.0268 91.1809 51.5153 91.1809 52.137V65.2808C91.1809 65.8137 91.625 66.2577 92.1578 66.2577C92.2466 66.2577 92.291 66.2577 92.3798 66.2133C94.4669 65.6804 96.2431 64.8812 97.664 63.7266C98.9074 62.6609 99.9287 61.1955 99.9287 59.5082V49.3838ZM96.5095 52.6698V61.8172C96.5095 62.0392 96.3763 62.2613 96.1098 62.4389C95.7546 62.6609 95.355 62.6609 95.1773 62.3945C95.1329 62.3057 95.1329 62.2169 95.1329 62.1725V52.7142C95.1329 52.4922 95.355 52.2258 95.6658 52.137C95.7546 52.0925 95.799 52.0925 95.8878 52.0925C96.1987 52.0925 96.4207 52.2258 96.5095 52.4922V52.6254V52.6698Z" fill="url(#paint2_radial)"/>
<path d="M69.5542 80.9542C68.4885 80.9542 68 80.6878 68 79.9773V75.8033C68 74.6931 69.0213 74.7375 69.5098 74.7375C71.0195 74.7375 71.5968 75.4036 71.5968 76.2029C71.5968 76.9578 71.0639 77.4018 70.4867 77.6239C71.2416 77.7571 71.952 78.2455 71.952 79.2224C71.9076 80.1105 71.3304 80.9542 69.5542 80.9542ZM69.5098 75.1816C69.1101 75.1816 68.7549 75.226 68.7549 75.8921V77.4907H69.2877C70.1758 77.4907 70.7975 77.0466 70.7975 76.2917C70.7975 75.6256 70.3979 75.1816 69.5098 75.1816ZM69.3321 77.8903H68.7549V79.8885C68.7549 80.3326 68.9769 80.5102 69.5542 80.5102C70.6199 80.5102 71.1083 79.9329 71.1083 79.2224C71.1083 78.3343 70.5755 77.8903 69.3321 77.8903Z" fill="black"/>
<path d="M76.2568 80.8672C76.168 80.8672 76.0347 80.9116 75.9903 80.9116C75.8127 80.9116 75.6795 80.8228 75.6351 80.5564L75.5907 80.3343H75.5463C75.2355 80.734 74.8802 81.0004 74.3918 81.0004C73.4149 81.0004 72.7488 80.2899 72.7488 78.869C72.7488 77.3592 73.7257 76.3379 74.747 76.3379C75.2355 76.3379 76.2568 76.4711 76.2568 77.226V80.8672ZM75.5463 77.2704C75.5463 76.9152 75.3243 76.7375 74.747 76.7375C74.1253 76.7375 73.4593 77.3148 73.4593 78.6914C73.4593 79.9347 73.9921 80.4231 74.5694 80.4231C75.0134 80.4231 75.3243 80.1567 75.5463 79.8903V77.2704Z" fill="black"/>
<path d="M80.1235 80.8672V77.67C80.1235 77.1816 79.8571 76.6931 79.0578 76.6931C78.2141 76.6931 78.1697 77.004 78.1697 77.3148V80.8672H77.4592V77.0928C77.4592 76.8263 77.548 76.6931 77.7701 76.5599C78.0365 76.4267 78.4805 76.3379 79.0578 76.3379C79.8127 76.3379 80.7896 76.5599 80.7896 77.67V80.9116H80.1235V80.8672Z" fill="black"/>
<path d="M82.7002 80.8669H81.9897V74.3838H82.7002V78.469L84.1212 76.7817C84.432 76.4264 84.7873 76.382 85.0093 76.382C85.1425 76.382 85.2757 76.4264 85.2757 76.4264L83.9436 77.9362C83.6771 78.2026 83.4107 78.469 83.2331 78.469V78.6023C83.4107 78.6023 83.7215 78.7355 84.0324 79.1351L85.4977 80.8669C85.4977 80.8669 85.3645 80.9113 85.1869 80.9113C84.9205 80.9113 84.5652 80.8669 84.3432 80.5561C83.988 80.1564 82.7446 78.5578 82.7446 78.5578V80.8669H82.7002Z" fill="black"/>
<path d="M90.1117 78.6005C89.9341 78.6005 89.712 78.5561 89.5344 78.5561V80.9096H88.7795V75.8918C88.7795 75.6254 88.6019 74.7373 90.2893 74.7373C91.7991 74.7373 92.4651 75.581 92.4651 76.6023C92.4651 77.8012 91.7547 78.6005 90.1117 78.6005ZM90.3337 75.1814C89.49 75.1814 89.5788 75.6698 89.5788 75.8918V78.1121C89.712 78.1121 89.9341 78.1565 90.0673 78.1565C91.2218 78.1565 91.6659 77.5348 91.6659 76.6023C91.6659 75.8474 91.2662 75.1814 90.3337 75.1814Z" fill="black"/>
<path d="M94.7739 81.0004C93.4861 81.0004 92.8201 79.8903 92.8201 78.6469C92.8201 77.4036 93.4861 76.3379 94.7739 76.3379C96.0172 76.3379 96.7277 77.4036 96.7277 78.6469C96.7277 79.8903 96.0616 81.0004 94.7739 81.0004ZM94.7295 76.7375C93.8858 76.7375 93.575 77.6256 93.575 78.5581C93.575 79.4906 93.9302 80.5564 94.7739 80.5564C95.662 80.5564 95.9728 79.6239 95.9728 78.7358C95.9728 77.7588 95.6176 76.7375 94.7295 76.7375Z" fill="black"/>
<path d="M97.5767 80.8664V74.4277H98.2871V80.8664H97.5767Z" fill="black"/>
<path d="M102.455 79.6683C102.455 80.4676 101.789 80.9561 100.901 80.9561C100.146 80.9561 99.2136 80.5564 99.2136 79.5795H99.3912C99.7465 79.5795 99.9685 79.7571 100.057 80.0236C100.146 80.2456 100.413 80.6008 100.901 80.6008C101.301 80.6008 101.745 80.3344 101.745 79.8459C101.745 78.7358 99.3468 78.9578 99.3468 77.6257C99.3468 76.8708 100.013 76.4268 100.857 76.4268C101.567 76.4268 102.322 76.782 102.322 77.6257C102.011 77.7145 101.7 77.6257 101.523 77.226C101.434 77.0484 101.167 76.8264 100.857 76.8264H100.812C100.368 76.8264 100.013 77.0928 100.013 77.5369C100.013 78.4694 102.455 78.203 102.455 79.6683Z" fill="black"/>
<path d="M104.053 80.8669H103.342V74.3838H104.053V78.469L105.473 76.7817C105.784 76.4264 106.14 76.382 106.362 76.382C106.495 76.382 106.628 76.4264 106.628 76.4264L105.296 77.9362C105.029 78.2026 104.763 78.469 104.585 78.469V78.6023C104.763 78.6023 105.074 78.7355 105.385 79.1351L106.85 80.8669C106.85 80.8669 106.717 80.9113 106.539 80.9113C106.273 80.9113 105.918 80.8669 105.695 80.5561C105.34 80.1564 104.097 78.5578 104.097 78.5578V80.8669H104.053Z" fill="black"/>
<path d="M107.875 75.6272C107.564 75.6272 107.342 75.4052 107.342 75.0944C107.342 74.828 107.564 74.5615 107.875 74.5615C108.186 74.5615 108.408 74.7835 108.408 75.0944C108.408 75.4052 108.186 75.6272 107.875 75.6272ZM107.52 80.867V76.4265H108.23V80.867H107.52Z" fill="black"/>
<defs>
<radialGradient id="paint0_radial" cx="0" cy="0" r="1" gradientUnits="userSpaceOnUse" gradientTransform="translate(87.8542 39.914) scale(26.6694)">
<stop stop-color="#004C9A"/>
<stop offset="0.1431" stop-color="#004994"/>
<stop offset="0.3303" stop-color="#013F84"/>
<stop offset="0.5421" stop-color="#033069"/>
<stop offset="0.771" stop-color="#051A43"/>
<stop offset="1" stop-color="#070016"/>
</radialGradient>
<radialGradient id="paint1_radial" cx="0" cy="0" r="1" gradientUnits="userSpaceOnUse" gradientTransform="translate(87.8471 39.9141) scale(26.6736)">
<stop stop-color="#004C9A"/>
<stop offset="0.1431" stop-color="#004994"/>
<stop offset="0.3303" stop-color="#013F84"/>
<stop offset="0.5421" stop-color="#033069"/>
<stop offset="0.771" stop-color="#051A43"/>
<stop offset="1" stop-color="#070016"/>
</radialGradient>
<radialGradient id="paint2_radial" cx="0" cy="0" r="1" gradientUnits="userSpaceOnUse" gradientTransform="translate(87.8513 39.9148) scale(26.6672)">
<stop stop-color="#004C9A"/>
<stop offset="0.1431" stop-color="#004994"/>
<stop offset="0.3303" stop-color="#013F84"/>
<stop offset="0.5421" stop-color="#033069"/>
<stop offset="0.771" stop-color="#051A43"/>
<stop offset="1" stop-color="#070016"/>
</radialGradient>
</defs>
</svg>
