<svg width="176" height="112" viewBox="0 0 176 112" fill="none" xmlns="http://www.w3.org/2000/svg">
<rect width="176" height="112" fill="#FAFAFA"/>
<path fill-rule="evenodd" clip-rule="evenodd" d="M87.941 31L85.5682 34.6299L67.0002 63H71.8002L87.9165 38.2907L88.4221 39.0773L93.493 46.9808L95.3266 49.8208L103.796 63H108.6L98.2216 46.9253L95.8968 43.3077L90.8008 35.4304L90.2941 34.6453L87.941 31ZM64.972 76.4042H67.0376C68.1642 76.4042 68.7264 75.742 68.7264 74.4175C68.7264 73.786 68.5925 73.3228 68.3253 73.0274C68.0576 72.7308 67.628 72.5836 67.0376 72.5836H64.972V76.4042ZM67.0493 77.2092H64.972V79.9639H64.0626V71.7791H67.0493C67.9392 71.7791 68.5965 71.9956 69.021 72.4298C69.4469 72.8639 69.6594 73.5263 69.6594 74.4175C69.6594 76.2783 68.7885 77.2092 67.0493 77.2092ZM86.9405 79.9642V71.7788H91.9112V72.5836H87.8496V75.4108H91.2032V76.2031H87.8496V79.1602H91.9112V79.9642H86.9405ZM44.9309 72.7058L44.3325 71.7711L43.7277 72.7018L39.0002 79.973H40.2224L44.3253 73.641L48.3693 79.973H49.5925L44.9309 72.7058ZM114.065 71.77L111.991 74.9595L109.917 71.77H108.735L111.39 75.8846L108.732 79.9722H109.955L111.991 76.8168L114.027 79.9722H115.251L112.593 75.8847L115.248 71.77H114.065ZM133.955 75.888L131.299 79.9722H132.522L134.556 76.8202L136.59 79.9722H137.813L135.158 75.8879L137.815 71.77H136.632L134.556 74.9627L132.48 71.77H131.297L133.955 75.888ZM87.1133 63H82.4514L90.2962 50.7333L92.5848 54.3781L87.1133 63ZM98.4514 39.6469L104.017 31H108.585L100.75 43.2667L98.4514 39.6469Z" fill="#134056"/>
</svg>
