<svg width="384" height="384" viewBox="0 0 384 384" fill="none" xmlns="http://www.w3.org/2000/svg">
<path fill-rule="evenodd" clip-rule="evenodd" d="M304.577 127.375C304.577 119.436 298.141 113 290.202 113H94.4485C86.5094 113 80.0735 119.436 80.0735 127.375V255.482C80.0735 263.421 86.5094 269.857 94.4485 269.857H290.202C298.141 269.857 304.577 263.421 304.577 255.482L304.577 127.375ZM75 269.856C77.8751 268.729 80.0524 265.939 80.0734 262.669L80.0734 254.636L80.0735 255.485C80.0735 260.196 82.3427 264.378 85.8466 266.999C82.6832 268.797 78.8931 269.832 75 269.856Z" fill="#585858"/>
<path fill-rule="evenodd" clip-rule="evenodd" d="M80 127.375C80 119.436 86.4359 113 94.375 113H290.129C298.068 113 304.504 119.436 304.504 127.375V229.268H80L80 127.375Z" fill="#111111"/>
<path fill-rule="evenodd" clip-rule="evenodd" d="M142.223 169.954C142.223 168.968 141.866 168.136 141.306 167.524C140.541 166.709 139.386 166.25 138.163 166.25H134.833C134.374 166.25 134 166.641 134 167.1V177.684C134 178.16 134.374 178.534 134.85 178.534C135.325 178.534 135.699 178.16 135.699 177.684V173.624H138.163C139.573 173.624 140.643 173.148 141.323 172.4C141.917 171.738 142.223 170.905 142.223 169.954ZM140.592 169.92C140.592 170.481 140.473 171.024 140.1 171.432C139.743 171.823 139.131 172.095 138.112 172.095H135.699V167.779H138.078C139.029 167.779 139.675 168.119 140.1 168.595C140.422 168.985 140.592 169.444 140.592 169.92ZM150.14 177.413V177.735C150.14 178.177 150.496 178.534 150.938 178.534C151.38 178.534 151.737 178.177 151.737 177.735V170.209C151.737 169.767 151.38 169.41 150.938 169.41C150.496 169.41 150.14 169.767 150.14 170.209V170.464C149.562 169.682 148.678 169.325 147.795 169.325C145.637 169.325 143.989 171.194 143.989 173.981C143.989 176.784 145.654 178.619 147.812 178.619C148.797 178.619 149.63 178.177 150.14 177.413ZM147.863 177.26C146.538 177.26 145.569 176.036 145.569 173.981C145.569 171.942 146.538 170.684 147.863 170.684C149.154 170.684 150.157 171.942 150.157 173.981C150.157 176.036 149.154 177.26 147.863 177.26ZM156.103 180.556C156.595 180.556 156.867 180.233 157.088 179.638L157.598 178.296C157.496 178.262 157.428 178.211 157.377 178.092L154.336 170.583C154.302 170.498 154.251 170.362 154.251 170.209C154.251 169.767 154.608 169.41 155.049 169.41C155.44 169.41 155.695 169.665 155.78 169.886L157.989 175.612C158.074 175.833 158.244 176.359 158.295 176.546H158.329C158.379 176.359 158.549 175.833 158.634 175.612L160.86 169.852C160.979 169.546 161.285 169.41 161.574 169.41C162.015 169.41 162.372 169.767 162.372 170.209C162.372 170.328 162.338 170.447 162.287 170.566L158.312 180.454C157.921 181.439 157.105 182 156.12 182C155.372 182 154.778 181.779 154.302 181.337C154.149 181.184 154.013 180.981 154.013 180.726C154.013 180.335 154.319 180.012 154.727 180.012C154.913 180.012 155.083 180.08 155.236 180.199C155.474 180.403 155.763 180.556 156.103 180.556ZM174.192 169.325C173.24 169.325 172.442 169.767 171.847 170.481V167.049C171.847 166.607 171.49 166.25 171.049 166.25C170.607 166.25 170.25 166.607 170.25 167.049V177.735C170.25 178.177 170.607 178.534 171.049 178.534C171.49 178.534 171.847 178.177 171.847 177.735V177.532C172.374 178.143 173.138 178.619 174.294 178.619C176.418 178.619 177.998 176.733 177.998 173.981C177.998 171.177 176.333 169.325 174.192 169.325ZM174.124 177.26C172.833 177.26 171.83 176.036 171.83 173.981C171.83 171.942 172.833 170.684 174.124 170.684C175.449 170.684 176.418 171.942 176.418 173.981C176.418 176.036 175.449 177.26 174.124 177.26ZM181.688 180.556C182.18 180.556 182.452 180.233 182.673 179.638L183.183 178.296C183.081 178.262 183.013 178.211 182.962 178.092L179.921 170.583C179.887 170.498 179.836 170.362 179.836 170.209C179.836 169.767 180.193 169.41 180.634 169.41C181.025 169.41 181.28 169.665 181.365 169.886L183.574 175.612C183.659 175.833 183.829 176.359 183.879 176.546H183.913C183.964 176.359 184.134 175.833 184.219 175.612L186.445 169.852C186.564 169.546 186.87 169.41 187.159 169.41C187.6 169.41 187.957 169.767 187.957 170.209C187.957 170.328 187.923 170.447 187.872 170.566L183.896 180.454C183.506 181.439 182.69 182 181.705 182C180.957 182 180.363 181.779 179.887 181.337C179.734 181.184 179.598 180.981 179.598 180.726C179.598 180.335 179.904 180.012 180.312 180.012C180.498 180.012 180.668 180.08 180.821 180.199C181.059 180.403 181.348 180.556 181.688 180.556ZM204.857 174.847C204.857 173.403 204.041 172.316 202.954 171.857C203.668 171.347 204.279 170.6 204.279 169.478C204.279 168.493 203.905 167.694 203.294 167.133C202.665 166.539 201.782 166.25 200.456 166.25H196.838C196.362 166.25 195.988 166.624 195.988 167.1V177.684C195.988 178.143 196.362 178.534 196.821 178.534H200.626C203.345 178.534 204.857 176.92 204.857 174.847ZM202.597 169.512C202.597 170.498 202.104 171.228 200.626 171.228H197.687V167.779H200.405C201.884 167.779 202.597 168.442 202.597 169.512ZM203.107 174.864C203.107 176.138 202.206 177.005 200.66 177.005H197.687V172.723H200.728C202.342 172.723 203.107 173.539 203.107 174.864ZM213.372 177.735V177.413C212.862 178.177 212.03 178.619 211.044 178.619C208.887 178.619 207.222 176.784 207.222 173.981C207.222 171.194 208.87 169.325 211.027 169.325C211.911 169.325 212.794 169.682 213.372 170.464V170.209C213.372 169.767 213.729 169.41 214.171 169.41C214.612 169.41 214.969 169.767 214.969 170.209V177.735C214.969 178.177 214.612 178.534 214.171 178.534C213.729 178.534 213.372 178.177 213.372 177.735ZM208.802 173.981C208.802 176.036 209.77 177.26 211.095 177.26C212.387 177.26 213.389 176.036 213.389 173.981C213.389 171.942 212.387 170.684 211.095 170.684C209.77 170.684 208.802 171.942 208.802 173.981ZM219.964 170.209C219.964 169.767 219.607 169.41 219.165 169.41C218.724 169.41 218.367 169.767 218.367 170.209V177.735C218.367 178.177 218.724 178.534 219.165 178.534C219.607 178.534 219.964 178.177 219.964 177.735V173.097C219.964 172.672 220.049 172.18 220.287 171.806C220.694 171.126 221.51 170.769 222.241 170.769C223.056 170.769 223.6 171.16 223.804 171.738C223.906 172.027 223.94 172.536 223.94 172.944V177.735C223.94 178.177 224.296 178.534 224.738 178.534C225.18 178.534 225.537 178.177 225.537 177.735V172.859C225.537 172.061 225.469 171.279 225.095 170.65C224.534 169.699 223.498 169.325 222.546 169.325C221.442 169.325 220.508 169.784 219.964 170.413V170.209ZM235.768 170.192C235.768 170.447 235.632 170.684 235.445 170.854L232.727 173.471L235.768 177.209C235.904 177.379 236.006 177.566 236.006 177.786C236.006 178.211 235.649 178.568 235.224 178.568C235.037 178.568 234.8 178.5 234.613 178.262L231.656 174.49L230.467 175.629V177.735C230.467 178.177 230.11 178.534 229.668 178.534C229.227 178.534 228.87 178.177 228.87 177.735V167.049C228.87 166.607 229.227 166.25 229.668 166.25C230.11 166.25 230.467 166.607 230.467 167.049V173.607L234.409 169.665C234.562 169.512 234.766 169.41 234.986 169.41C235.394 169.41 235.768 169.75 235.768 170.192ZM251 168.5C251 169.743 249.993 170.75 248.75 170.75C247.507 170.75 246.5 169.743 246.5 168.5C246.5 167.257 247.507 166.25 248.75 166.25C249.993 166.25 251 167.257 251 168.5ZM251 177.5C251 178.743 249.993 179.75 248.75 179.75C247.507 179.75 246.5 178.743 246.5 177.5C246.5 176.257 247.507 175.25 248.75 175.25C249.993 175.25 251 176.257 251 177.5Z" fill="#FAFAFA"/>
<path d="M94.9187 238.553V246H96.2502V243.538H97.8656C99.3727 243.538 100.426 242.532 100.426 241.061C100.426 239.564 99.4088 238.553 97.9224 238.553H94.9187ZM96.2502 239.642H97.5715C98.5314 239.642 99.0733 240.137 99.0733 241.061C99.0733 241.959 98.5159 242.465 97.5663 242.465H96.2502V239.642ZM102.854 246.093C103.592 246.093 104.212 245.773 104.527 245.226H104.614V246H105.848V242.145C105.848 240.952 105.032 240.251 103.582 240.251C102.24 240.251 101.306 240.88 101.203 241.866H102.411C102.529 241.479 102.932 241.267 103.52 241.267C104.212 241.267 104.583 241.582 104.583 242.145V242.63L103.128 242.718C101.755 242.795 100.986 243.389 100.986 244.4C100.986 245.432 101.765 246.093 102.854 246.093ZM103.231 245.107C102.663 245.107 102.256 244.823 102.256 244.338C102.256 243.868 102.591 243.605 103.309 243.559L104.583 243.471V243.93C104.583 244.601 104.005 245.107 103.231 245.107ZM107.58 248.044C108.844 248.044 109.448 247.584 109.928 246.196L111.967 240.359H110.615L109.298 244.787H109.211L107.89 240.359H106.486L108.504 246.021L108.437 246.284C108.271 246.815 107.967 247.022 107.425 247.022C107.337 247.022 107.146 247.017 107.074 247.006V248.023C107.157 248.039 107.502 248.044 107.58 248.044ZM116.799 246V240.87H116.886L120.54 246H121.691V238.553H120.411V243.683H120.324L116.67 238.553H115.514V246H116.799ZM126.825 244.457C126.639 244.88 126.2 245.117 125.565 245.117C124.724 245.117 124.182 244.519 124.151 243.564V243.497H128.094V243.089C128.094 241.319 127.129 240.251 125.519 240.251C123.883 240.251 122.866 241.391 122.866 243.203C122.866 245.009 123.867 246.114 125.529 246.114C126.861 246.114 127.805 245.474 128.037 244.457H126.825ZM125.514 241.247C126.283 241.247 126.788 241.789 126.814 242.645H124.156C124.213 241.799 124.75 241.247 125.514 241.247ZM134.038 240.359H132.758V243.647C132.758 244.498 132.304 245.014 131.473 245.014C130.709 245.014 130.353 244.591 130.353 243.714V240.359H129.073V244.023C129.073 245.345 129.795 246.114 131.029 246.114C131.891 246.114 132.443 245.747 132.716 245.102H132.804V246H134.038V240.359ZM139.032 244.457C138.846 244.88 138.407 245.117 137.772 245.117C136.931 245.117 136.389 244.519 136.358 243.564V243.497H140.301V243.089C140.301 241.319 139.336 240.251 137.726 240.251C136.09 240.251 135.073 241.391 135.073 243.203C135.073 245.009 136.074 246.114 137.736 246.114C139.068 246.114 140.012 245.474 140.244 244.457H139.032ZM137.721 241.247C138.49 241.247 138.995 241.789 139.021 242.645H136.363C136.42 241.799 136.957 241.247 137.721 241.247ZM147.136 246.186C148.854 246.186 150.113 245.169 150.289 243.662H148.978C148.797 244.498 148.08 245.03 147.136 245.03C145.866 245.03 145.076 243.972 145.076 242.274C145.076 240.581 145.866 239.523 147.13 239.523C148.07 239.523 148.787 240.106 148.973 241.004H150.284C150.129 239.461 148.823 238.367 147.13 238.367C145.019 238.367 143.714 239.858 143.714 242.279C143.714 244.689 145.025 246.186 147.136 246.186ZM151.433 246H152.713V238.176H151.433V246ZM156.514 246.114C158.202 246.114 159.229 245.009 159.229 243.177C159.229 241.355 158.197 240.251 156.514 240.251C154.837 240.251 153.8 241.36 153.8 243.177C153.8 245.009 154.821 246.114 156.514 246.114ZM156.514 245.066C155.621 245.066 155.11 244.374 155.11 243.182C155.11 241.99 155.621 241.298 156.514 241.298C157.402 241.298 157.913 241.99 157.913 243.182C157.913 244.374 157.407 245.066 156.514 245.066ZM160.672 238.976V240.395H159.779V241.391H160.672V244.503C160.672 245.592 161.188 246.026 162.484 246.026C162.731 246.026 162.969 246.005 163.155 245.969V244.988C163 245.004 162.902 245.014 162.721 245.014C162.184 245.014 161.947 244.761 161.947 244.199V241.391H163.155V240.395H161.947V238.976H160.672ZM164.231 246H165.511V242.723C165.511 241.897 165.981 241.345 166.822 241.345C167.565 241.345 167.957 241.789 167.957 242.661V246H169.237V242.361C169.237 241.02 168.505 240.256 167.297 240.256C166.456 240.256 165.852 240.638 165.583 241.272H165.49V238.176H164.231V246ZM171.15 239.414C171.573 239.414 171.919 239.079 171.919 238.656C171.919 238.238 171.573 237.897 171.15 237.897C170.732 237.897 170.386 238.238 170.386 238.656C170.386 239.079 170.732 239.414 171.15 239.414ZM170.515 246H171.79V240.359H170.515V246ZM173.125 246H174.405V242.712C174.405 241.866 174.885 241.334 175.649 241.334C176.428 241.334 176.789 241.773 176.789 242.65V246H178.069V242.351C178.069 241.009 177.383 240.251 176.123 240.251C175.282 240.251 174.714 240.632 174.446 241.262H174.358V240.359H173.125V246ZM181.757 248.147C183.404 248.147 184.446 247.326 184.446 246.031V240.359H183.213V241.262H183.125C182.815 240.648 182.144 240.266 181.375 240.266C179.935 240.266 179.042 241.391 179.042 243.12C179.042 244.813 179.93 245.917 181.355 245.917C182.139 245.917 182.753 245.587 183.078 244.978H183.166V246.052C183.166 246.769 182.655 247.192 181.778 247.192C181.076 247.192 180.622 246.939 180.539 246.542H179.254C179.357 247.512 180.307 248.147 181.757 248.147ZM181.757 244.901C180.864 244.901 180.359 244.209 180.359 243.115C180.359 242.026 180.864 241.334 181.757 241.334C182.645 241.334 183.187 242.026 183.187 243.12C183.187 244.209 182.65 244.901 181.757 244.901ZM191.569 246.186C193.288 246.186 194.547 245.169 194.723 243.662H193.412C193.231 244.498 192.514 245.03 191.569 245.03C190.3 245.03 189.51 243.972 189.51 242.274C189.51 240.581 190.3 239.523 191.564 239.523C192.504 239.523 193.221 240.106 193.407 241.004H194.718C194.563 239.461 193.257 238.367 191.564 238.367C189.453 238.367 188.148 239.858 188.148 242.279C188.148 244.689 189.459 246.186 191.569 246.186ZM198.251 246.114C199.939 246.114 200.966 245.009 200.966 243.177C200.966 241.355 199.934 240.251 198.251 240.251C196.574 240.251 195.536 241.36 195.536 243.177C195.536 245.009 196.558 246.114 198.251 246.114ZM198.251 245.066C197.358 245.066 196.847 244.374 196.847 243.182C196.847 241.99 197.358 241.298 198.251 241.298C199.139 241.298 199.65 241.99 199.65 243.182C199.65 244.374 199.144 245.066 198.251 245.066Z" fill="white"/>
<path d="M99.4398 255.14C99.2849 254.149 98.4592 253.338 97.107 253.338C95.5483 253.338 94.5574 254.463 94.5574 256.198C94.5574 257.968 95.5535 259.098 97.1121 259.098C98.4488 259.098 99.2798 258.345 99.4398 257.323H98.5417C98.3766 257.952 97.8553 258.298 97.107 258.298C96.116 258.298 95.4761 257.483 95.4761 256.198C95.4761 254.938 96.1057 254.138 97.107 254.138C97.9069 254.138 98.3972 254.587 98.5417 255.14H99.4398ZM100.547 259H101.435V255.707C101.435 254.768 101.982 254.138 102.978 254.138C103.819 254.138 104.263 254.629 104.263 255.614V259H105.151V255.398C105.151 254.092 104.408 253.338 103.231 253.338C102.38 253.338 101.796 253.7 101.518 254.314H101.435V251.227H100.547V259ZM110.202 257.56C109.969 258.05 109.484 258.314 108.767 258.314C107.822 258.314 107.208 257.617 107.162 256.518V256.476H111.162V256.136C111.162 254.407 110.248 253.338 108.746 253.338C107.219 253.338 106.238 254.474 106.238 256.223C106.238 257.983 107.203 259.098 108.746 259.098C109.964 259.098 110.831 258.51 111.089 257.56H110.202ZM108.736 254.123C109.618 254.123 110.207 254.773 110.227 255.759H107.162C107.229 254.773 107.848 254.123 108.736 254.123ZM116.904 255.14C116.749 254.149 115.923 253.338 114.571 253.338C113.012 253.338 112.022 254.463 112.022 256.198C112.022 257.968 113.018 259.098 114.576 259.098C115.913 259.098 116.744 258.345 116.904 257.323H116.006C115.841 257.952 115.319 258.298 114.571 258.298C113.58 258.298 112.94 257.483 112.94 256.198C112.94 254.938 113.57 254.138 114.571 254.138C115.371 254.138 115.861 254.587 116.006 255.14H116.904ZM118.982 255.867H118.899V251.227H118.011V259H118.899V256.889L119.431 256.394L121.516 259H122.646L120.091 255.821L122.486 253.436H121.397L118.982 255.867ZM125.472 259.098C127.057 259.098 128.037 258.004 128.037 256.218C128.037 254.427 127.057 253.338 125.472 253.338C123.888 253.338 122.907 254.427 122.907 256.218C122.907 258.004 123.888 259.098 125.472 259.098ZM125.472 258.298C124.419 258.298 123.826 257.534 123.826 256.218C123.826 254.897 124.419 254.138 125.472 254.138C126.525 254.138 127.119 254.897 127.119 256.218C127.119 257.534 126.525 258.298 125.472 258.298ZM133.676 253.436H132.789V256.729C132.789 257.705 132.252 258.288 131.271 258.288C130.384 258.288 130.012 257.823 130.012 256.822V253.436H129.124V257.039C129.124 258.355 129.775 259.098 131.024 259.098C131.875 259.098 132.469 258.747 132.747 258.128H132.83V259H133.676V253.436ZM135.465 251.996V253.436H134.567V254.18H135.465V257.555C135.465 258.618 135.925 259.041 137.07 259.041C137.246 259.041 137.416 259.021 137.592 258.99V258.241C137.426 258.257 137.339 258.262 137.179 258.262C136.601 258.262 136.353 257.983 136.353 257.328V254.18H137.592V253.436H136.353V251.996H135.465ZM139.411 259.052C139.783 259.052 140.082 258.747 140.082 258.381C140.082 258.009 139.783 257.71 139.411 257.71C139.045 257.71 138.74 258.009 138.74 258.381C138.74 258.747 139.045 259.052 139.411 259.052ZM144.271 253.338C143.512 253.338 142.847 253.725 142.491 254.365H142.408V253.436H141.562V260.858H142.449V258.164H142.532C142.836 258.752 143.476 259.098 144.271 259.098C145.685 259.098 146.609 257.957 146.609 256.218C146.609 254.469 145.69 253.338 144.271 253.338ZM144.06 258.298C143.058 258.298 142.423 257.493 142.423 256.218C142.423 254.938 143.058 254.138 144.065 254.138C145.081 254.138 145.69 254.918 145.69 256.218C145.69 257.519 145.081 258.298 144.06 258.298ZM149.296 259.098C150.039 259.098 150.648 258.773 151.009 258.179H151.092V259H151.938V255.191C151.938 254.035 151.18 253.338 149.822 253.338C148.635 253.338 147.758 253.927 147.639 254.82H148.537C148.661 254.381 149.126 254.128 149.791 254.128C150.622 254.128 151.051 254.505 151.051 255.191V255.697L149.446 255.795C148.15 255.872 147.417 256.445 147.417 257.441C147.417 258.458 148.217 259.098 149.296 259.098ZM149.461 258.319C148.816 258.319 148.336 257.988 148.336 257.421C148.336 256.863 148.708 256.569 149.554 256.512L151.051 256.414V256.925C151.051 257.72 150.375 258.319 149.461 258.319ZM153.593 261.013C154.579 261.013 155.023 260.631 155.498 259.341L157.67 253.436H156.726L155.203 258.014H155.121L153.593 253.436H152.633L154.692 259.005L154.589 259.335C154.357 260.006 154.078 260.249 153.567 260.249C153.443 260.249 153.304 260.244 153.196 260.223V260.982C153.32 261.002 153.474 261.013 153.593 261.013ZM161.369 259.098C162.778 259.098 163.702 257.957 163.702 256.218C163.702 254.469 162.783 253.338 161.369 253.338C160.605 253.338 159.929 253.715 159.624 254.314H159.542V251.227H158.654V259H159.5V258.112H159.583C159.934 258.732 160.595 259.098 161.369 259.098ZM161.162 254.138C162.179 254.138 162.783 254.918 162.783 256.218C162.783 257.519 162.179 258.298 161.162 258.298C160.151 258.298 159.521 257.503 159.521 256.218C159.521 254.933 160.151 254.138 161.162 254.138ZM165.109 261.013C166.094 261.013 166.538 260.631 167.013 259.341L169.186 253.436H168.241L166.719 258.014H166.636L165.109 253.436H164.149L166.208 259.005L166.105 259.335C165.872 260.006 165.594 260.249 165.083 260.249C164.959 260.249 164.82 260.244 164.711 260.223V260.982C164.835 261.002 164.99 261.013 165.109 261.013ZM172.884 259.098C174.293 259.098 175.217 257.957 175.217 256.218C175.217 254.469 174.298 253.338 172.884 253.338C172.12 253.338 171.444 253.715 171.14 254.314H171.057V251.227H170.17V259H171.016V258.112H171.099C171.449 258.732 172.11 259.098 172.884 259.098ZM172.678 254.138C173.695 254.138 174.298 254.918 174.298 256.218C174.298 257.519 173.695 258.298 172.678 258.298C171.666 258.298 171.037 257.503 171.037 256.218C171.037 254.933 171.666 254.138 172.678 254.138ZM177.904 259.098C178.647 259.098 179.256 258.773 179.617 258.179H179.7V259H180.546V255.191C180.546 254.035 179.788 253.338 178.43 253.338C177.243 253.338 176.366 253.927 176.247 254.82H177.145C177.269 254.381 177.734 254.128 178.399 254.128C179.23 254.128 179.659 254.505 179.659 255.191V255.697L178.054 255.795C176.758 255.872 176.025 256.445 176.025 257.441C176.025 258.458 176.825 259.098 177.904 259.098ZM178.069 258.319C177.424 258.319 176.944 257.988 176.944 257.421C176.944 256.863 177.316 256.569 178.162 256.512L179.659 256.414V256.925C179.659 257.72 178.983 258.319 178.069 258.319ZM181.933 259H182.82V255.707C182.82 254.732 183.393 254.138 184.281 254.138C185.169 254.138 185.592 254.613 185.592 255.614V259H186.48V255.398C186.48 254.076 185.783 253.338 184.534 253.338C183.682 253.338 183.14 253.7 182.862 254.314H182.779V253.436H181.933V259ZM188.872 255.867H188.79V251.227H187.902V259H188.79V256.889L189.321 256.394L191.406 259H192.537L189.982 255.821L192.377 253.436H191.288L188.872 255.867ZM194.067 259.052C194.439 259.052 194.738 258.747 194.738 258.381C194.738 258.009 194.439 257.71 194.067 257.71C193.701 257.71 193.396 258.009 193.396 258.381C193.396 258.747 193.701 259.052 194.067 259.052ZM200.615 255.14C200.46 254.149 199.634 253.338 198.282 253.338C196.723 253.338 195.732 254.463 195.732 256.198C195.732 257.968 196.729 259.098 198.287 259.098C199.624 259.098 200.455 258.345 200.615 257.323H199.717C199.552 257.952 199.03 258.298 198.282 258.298C197.291 258.298 196.651 257.483 196.651 256.198C196.651 254.938 197.281 254.138 198.282 254.138C199.082 254.138 199.572 254.587 199.717 255.14H200.615ZM203.957 259.098C205.542 259.098 206.522 258.004 206.522 256.218C206.522 254.427 205.542 253.338 203.957 253.338C202.373 253.338 201.392 254.427 201.392 256.218C201.392 258.004 202.373 259.098 203.957 259.098ZM203.957 258.298C202.904 258.298 202.311 257.534 202.311 256.218C202.311 254.897 202.904 254.138 203.957 254.138C205.01 254.138 205.604 254.897 205.604 256.218C205.604 257.534 205.01 258.298 203.957 258.298ZM207.661 259H208.548V255.552C208.548 254.768 209.111 254.138 209.839 254.138C210.541 254.138 211 254.561 211 255.222V259H211.888V255.423C211.888 254.716 212.404 254.138 213.178 254.138C213.962 254.138 214.349 254.541 214.349 255.361V259H215.237V255.155C215.237 253.989 214.602 253.338 213.467 253.338C212.698 253.338 212.063 253.725 211.764 254.314H211.681C211.423 253.736 210.897 253.338 210.143 253.338C209.4 253.338 208.843 253.694 208.59 254.314H208.507V253.436H207.661V259ZM216.562 260.584L219.245 251.227H218.492L215.808 260.584H216.562ZM219.739 254.959C219.739 255.764 220.214 256.213 221.256 256.466L222.211 256.698C222.804 256.843 223.093 257.101 223.093 257.483C223.093 257.994 222.557 258.35 221.808 258.35C221.096 258.35 220.652 258.05 220.503 257.581H219.589C219.687 258.505 220.539 259.098 221.777 259.098C223.042 259.098 224.007 258.412 224.007 257.416C224.007 256.616 223.501 256.161 222.453 255.909L221.597 255.702C220.941 255.542 220.632 255.305 220.632 254.923C220.632 254.427 221.148 254.092 221.808 254.092C222.479 254.092 222.913 254.386 223.031 254.83H223.909C223.79 253.916 222.98 253.338 221.813 253.338C220.632 253.338 219.739 254.035 219.739 254.959ZM227.685 259.175C229.264 259.175 230.368 258.283 230.368 257.008C230.368 256.038 229.754 255.284 228.82 255.109V255.026C229.589 254.814 230.064 254.18 230.064 253.364C230.064 252.203 229.078 251.377 227.685 251.377C226.291 251.377 225.305 252.203 225.305 253.364C225.305 254.174 225.791 254.82 226.549 255.026V255.109C225.615 255.284 225.001 256.038 225.001 257.008C225.001 258.283 226.105 259.175 227.685 259.175ZM227.685 254.716C226.807 254.716 226.219 254.211 226.219 253.452C226.219 252.683 226.802 252.172 227.685 252.172C228.567 252.172 229.15 252.683 229.15 253.452C229.15 254.211 228.562 254.716 227.685 254.716ZM227.685 258.381C226.653 258.381 225.94 257.792 225.94 256.941C225.94 256.089 226.653 255.501 227.685 255.501C228.717 255.501 229.429 256.089 229.429 256.941C229.429 257.792 228.717 258.381 227.685 258.381ZM238.64 253.436H237.747L236.653 257.885H236.57L235.326 253.436H234.475L233.231 257.885H233.148L232.054 253.436H231.156L232.715 259H233.613L234.851 254.696H234.934L236.178 259H237.081L238.64 253.436ZM241.946 259.17C243.768 259.17 244.81 257.705 244.81 255.145C244.81 252.611 243.613 251.377 242.008 251.377C240.48 251.377 239.396 252.445 239.396 253.942C239.396 255.387 240.423 256.435 241.843 256.435C242.73 256.435 243.458 256.012 243.824 255.289H243.907C243.855 257.271 243.169 258.345 241.956 258.345C241.223 258.345 240.656 257.937 240.459 257.266H239.505C239.737 258.437 240.681 259.17 241.946 259.17ZM242.008 255.63C241.022 255.63 240.336 254.928 240.336 253.911C240.336 252.936 241.063 252.193 242.018 252.193C242.973 252.193 243.701 252.946 243.701 253.942C243.701 254.928 242.994 255.63 242.008 255.63ZM246.109 259H246.997V255.707C246.997 254.768 247.544 254.138 248.54 254.138C249.381 254.138 249.825 254.629 249.825 255.614V259H250.712V255.398C250.712 254.092 249.969 253.338 248.793 253.338C247.941 253.338 247.358 253.7 247.079 254.314H246.997V251.227H246.109V259ZM258.818 253.436H257.926L256.831 257.885H256.749L255.505 253.436H254.653L253.41 257.885H253.327L252.233 253.436H251.335L252.894 259H253.792L255.03 254.696H255.113L256.357 259H257.26L258.818 253.436ZM260.122 259H261.01V254.18H262.285V253.436H261.01V252.843C261.01 252.234 261.278 251.924 261.918 251.924C262.078 251.924 262.228 251.929 262.336 251.95V251.227C262.15 251.191 261.954 251.176 261.738 251.176C260.68 251.176 260.122 251.707 260.122 252.817V253.436H259.198V254.18H260.122V259ZM265.379 261.137C266.897 261.137 267.857 260.342 267.857 259.098V253.436H267.01V254.319H266.928C266.608 253.72 265.921 253.338 265.142 253.338C263.712 253.338 262.809 254.469 262.809 256.136C262.809 257.803 263.702 258.917 265.142 258.917C265.906 258.917 266.535 258.572 266.886 257.957H266.969V259.052C266.969 259.872 266.375 260.363 265.379 260.363C264.579 260.363 264.084 260.068 263.986 259.614H263.046C263.181 260.533 264.037 261.137 265.379 261.137ZM265.338 258.133C264.306 258.133 263.728 257.348 263.728 256.136C263.728 254.923 264.306 254.138 265.338 254.138C266.365 254.138 266.99 254.923 266.99 256.136C266.99 257.348 266.37 258.133 265.338 258.133ZM269.145 254.959C269.145 255.764 269.62 256.213 270.662 256.466L271.617 256.698C272.21 256.843 272.5 257.101 272.5 257.483C272.5 257.994 271.963 258.35 271.214 258.35C270.502 258.35 270.058 258.05 269.909 257.581H268.995C269.093 258.505 269.945 259.098 271.183 259.098C272.448 259.098 273.413 258.412 273.413 257.416C273.413 256.616 272.907 256.161 271.86 255.909L271.003 255.702C270.347 255.542 270.038 255.305 270.038 254.923C270.038 254.427 270.554 254.092 271.214 254.092C271.885 254.092 272.319 254.386 272.438 254.83H273.315C273.196 253.916 272.386 253.338 271.22 253.338C270.038 253.338 269.145 254.035 269.145 254.959ZM277.05 259.175C278.722 259.175 279.682 257.761 279.682 255.289C279.682 252.822 278.706 251.377 277.05 251.377C275.383 251.377 274.407 252.817 274.407 255.274C274.407 257.751 275.372 259.175 277.05 259.175ZM277.05 258.365C275.95 258.365 275.341 257.266 275.341 255.274C275.341 253.307 275.961 252.193 277.05 252.193C278.139 252.193 278.748 253.297 278.748 255.274C278.748 257.271 278.149 258.365 277.05 258.365Z" fill="#B8B8B8"/>
</svg>
