<svg width="176" height="112" viewBox="0 0 176 112" fill="none" xmlns="http://www.w3.org/2000/svg">
<rect width="176" height="112" fill="#FAFAFA"/>
<path d="M78.7303 55.5823C79.0645 55.817 79.0502 56.2881 79.3513 56.5252L79.5035 57.5685L78.748 58.6769C77.7874 59.1787 76.358 59.3993 75.4658 58.591C74.9607 58.1365 74.8294 57.4803 74.9607 56.8252L75.3158 55.869C75.5154 55.7324 75.7845 55.698 75.9213 55.4643C76.3911 55.1619 76.9944 55.2273 77.5337 55.1113C77.9374 55.2436 78.544 55.0263 78.7303 55.5823" fill="#FFCC00"/>
<path d="M76.2425 61.7179C76.5436 61.7179 76.7609 61.9386 77.0454 61.8867C77.4513 62.0377 77.3994 62.5275 77.8207 62.6466C78.1406 63.2818 78.3402 63.9756 78.5089 64.6615C78.392 65.0652 78.7306 65.3012 78.6104 65.6707L78.7306 65.7401C78.7494 66.125 78.6953 66.5629 78.5453 66.9334C78.6104 67.6404 78.2564 68.2282 77.9542 68.8337C77.7391 68.9681 77.6366 69.3554 77.3355 69.2881C76.7928 69.4569 76.7443 70.2608 76.0892 70.1638C75.6701 70.4814 75.0955 70.2938 74.5904 70.3126C74.3058 70.1638 73.9022 70.1978 73.7026 69.9431C73.1941 69.7424 72.7431 69.3718 72.3074 69.0012C72.1365 68.6296 71.7516 68.4619 71.7019 68.0439C71.8508 67.5377 71.531 67.0822 71.6644 66.5804L71.5674 65.74L71.8839 64.2919C72.4243 64.004 72.2688 63.3523 72.8103 63.1494C73.1467 62.3773 73.9496 62.2053 74.5738 61.8181C74.8132 61.7719 75.0955 61.9041 75.2819 61.6859C75.6194 61.634 75.9392 61.9904 76.2425 61.7178" fill="#E30613"/>
<path d="M103.672 39.3181C103.536 41.6903 101.586 43.2874 100.556 45.2891C100.124 46.4824 99.0781 47.1882 98.3381 48.2669C97.6643 48.9551 97.008 49.7128 96.4555 50.4859C96.5581 51.0384 97.1426 51.1928 97.4801 51.5954C98.2366 52.0498 98.3194 52.9045 98.9778 53.4273C99.3627 53.4273 99.3627 54.0007 99.7862 53.9335C100.677 54.893 101.401 55.8834 102.136 56.9267C102.256 57.2973 102.442 57.6645 102.761 57.9348C103.351 58.7928 103.838 59.7016 104.443 60.5761C104.53 61.5511 105.351 62.2051 105.602 63.1172C105.974 63.6036 106.124 64.176 106.463 64.6634C106.983 65.8071 107.338 66.9982 107.957 68.0956C108.075 68.346 107.924 68.5985 107.791 68.7838C107.555 68.9692 107.373 68.6306 107.098 68.68C105.725 68.1771 104.408 67.4547 103.132 66.6816C101.818 65.6206 100.372 64.8662 99.0781 63.7545C98.573 63.6201 98.3723 63.0322 97.9047 62.795C96.6573 62.0219 95.6625 60.9135 94.403 60.19C93.8328 59.7522 93.2593 59.3342 92.6869 58.8787C92.2491 58.8259 92.1013 58.3217 91.6789 58.1717C90.7359 57.6004 89.8812 56.8075 88.9228 56.2692C88.8368 56.4062 88.9228 56.6056 88.8368 56.7413C88.1971 57.3644 88.368 58.3217 87.9081 59.0121C87.8949 60.0036 87.2034 60.7304 86.9211 61.6006C86.1292 63.0145 85.4377 64.4626 84.6149 65.8566C83.5198 67.3047 82.9341 69.0528 81.3868 70.213C81.0504 70.6332 80.6644 70.8505 80.2442 71.1218C80.0578 71.0699 79.7887 71.0999 79.738 70.8692C79.5527 70.5174 79.7887 69.9759 79.5373 69.6549C79.7523 69.1696 79.6189 68.616 79.7214 68.0767L79.6387 67.8428C79.6553 67.1017 80.0236 66.4797 79.8725 65.722C80.0744 65.2522 80.1582 64.7294 80.2056 64.2088C80.4471 63.5691 80.649 62.8787 80.7151 62.1895C80.9313 61.7858 81.0151 61.2663 80.9655 60.7943C81.132 60.3598 81.1673 59.8348 81.6239 59.516C81.689 59.2281 81.6239 58.9448 81.6713 58.6426C82.1268 57.2618 82.6816 55.9328 83.0334 54.5233C83.0334 54.4217 82.9341 54.3889 82.868 54.3689C81.8754 54.3192 80.9501 54.5233 80.0236 54.2707C78.5083 54.252 76.9797 54.0503 75.5371 53.7479C74.946 53.6301 74.239 53.6973 73.7019 53.3608C73.3479 53.3765 72.9409 53.4446 72.6101 53.2605C71.9174 52.9219 71.077 52.9738 70.3866 52.6031C69.8661 52.6738 69.4977 52.334 69.0235 52.2844C68.5702 52.3197 68.3187 51.9304 68 51.6778V51.529C68.8404 50.3831 70.1859 50.0655 71.3969 49.6277C72.5913 49.2571 73.9214 49.2251 75.1654 48.9703C75.9551 48.8368 76.8109 49.0575 77.6017 48.9184C79.031 48.9547 80.4107 49.1885 81.8246 49.2251C82.2967 49.2914 82.7312 49.5108 83.2032 49.4908L83.1856 49.2911L81.8555 47.4757C81.357 46.2978 80.4306 45.3063 80.1075 44.0601C79.8064 43.6906 80.0909 43.1381 79.8538 42.7333C79.8395 42.547 79.9917 42.4146 80.0744 42.2613C80.3622 42.1444 80.6799 42.3463 80.9655 42.1609C81.8247 42.3629 82.6143 42.6649 83.4713 42.8315C84.3624 43.1866 85.2723 43.5407 86.0619 44.1296C87.0534 44.8332 88.2501 45.2887 89.0199 46.3806C89.225 46.5669 89.5415 46.6 89.8084 46.5294C90.0455 46.4981 90.0985 46.2129 90.318 46.129C91.358 45.4728 92.5359 45.1056 93.5649 44.381C93.9784 43.9586 94.6567 43.9089 94.9049 43.3376C95.228 43.1866 95.5159 42.9847 95.8511 42.8998C96.4412 42.4818 97.0279 42.0263 97.6643 41.6899C98.004 41.6546 98.2709 41.4683 98.5411 41.2874C99.5833 40.715 100.677 40.244 101.668 39.5889C101.887 39 102.541 39.1335 103.013 39C103.248 39.0506 103.569 39.0156 103.672 39.3176" fill="#00A0DF"/>
</svg>
