<svg width="696" height="448" viewBox="0 0 696 448" fill="none" xmlns="http://www.w3.org/2000/svg">
<rect x="204" y="158" width="132" height="132" rx="66" fill="#181818"/>
<path d="M291 218H249C245.686 218 243 220.686 243 224V245C243 248.314 245.686 251 249 251H291C294.314 251 297 248.314 297 245V224C297 220.686 294.314 218 291 218Z" stroke="#FAFAFA" stroke-width="6" stroke-linecap="round" stroke-linejoin="round"/>
<path d="M255 218V206C255 202.022 256.58 198.206 259.393 195.393C262.206 192.58 266.022 191 270 191C273.978 191 277.794 192.58 280.607 195.393C283.42 198.206 285 202.022 285 206V218" stroke="#FAFAFA" stroke-width="6" stroke-linecap="round" stroke-linejoin="round"/>
<rect x="360" y="158" width="132" height="132" rx="66" fill="#181818"/>
<path d="M431.596 229.597C430.871 230.375 429.997 230.999 429.025 231.432C428.054 231.865 427.005 232.098 425.941 232.116C424.878 232.135 423.822 231.939 422.836 231.541C421.849 231.143 420.954 230.55 420.201 229.798C419.449 229.046 418.857 228.15 418.458 227.164C418.06 226.178 417.864 225.121 417.883 224.058C417.902 222.994 418.135 221.946 418.567 220.974C419 220.003 419.624 219.128 420.403 218.403M441.681 239.682C437.168 243.121 431.673 245.027 425.999 245.12C407.519 245.12 396.959 224 396.959 224C400.243 217.88 404.798 212.533 410.318 208.318L441.681 239.682ZM420.455 203.514C422.273 203.088 424.133 202.876 425.999 202.88C444.479 202.88 455.039 224 455.039 224C453.437 226.998 451.526 229.82 449.337 232.422L420.455 203.514Z" stroke="#FAFAFA" stroke-width="6" stroke-linecap="round" stroke-linejoin="round"/>
<path d="M396.959 194.96L455.039 253.04" stroke="#FAFAFA" stroke-width="6" stroke-linecap="round" stroke-linejoin="round"/>
</svg>
