<svg width="696" height="448" viewBox="0 0 696 448" fill="none" xmlns="http://www.w3.org/2000/svg">
<rect width="696" height="448" fill="#F3F3F3"/>
<path d="M247.761 269.435C247.761 270.163 247.527 270.8 247.072 271.307C246.552 271.879 245.733 272.243 244.654 272.243H242.769V275.35C242.769 275.714 242.483 276 242.119 276C241.755 276 241.469 275.714 241.469 275.35V267.251C241.469 266.9 241.755 266.601 242.106 266.601H244.654C245.59 266.601 246.474 266.952 247.059 267.576C247.488 268.044 247.761 268.681 247.761 269.435ZM246.513 269.409C246.513 269.045 246.383 268.694 246.136 268.395C245.811 268.031 245.317 267.771 244.589 267.771H242.769V271.073H244.615C245.395 271.073 245.863 270.865 246.136 270.566C246.422 270.254 246.513 269.838 246.513 269.409ZM250.915 267.212V275.389C250.915 275.727 250.642 276 250.304 276C249.966 276 249.693 275.727 249.693 275.389V267.212C249.693 266.874 249.966 266.601 250.304 266.601C250.642 266.601 250.915 266.874 250.915 267.212ZM257.843 275.142C257.453 275.727 256.816 276.065 256.062 276.065C254.411 276.065 253.137 274.661 253.137 272.516C253.137 270.384 254.398 268.954 256.049 268.954C256.725 268.954 257.401 269.227 257.843 269.825V269.63C257.843 269.292 258.116 269.019 258.454 269.019C258.792 269.019 259.065 269.292 259.065 269.63V275.389C259.065 275.727 258.792 276 258.454 276C258.116 276 257.843 275.727 257.843 275.389V275.142ZM256.101 275.025C257.089 275.025 257.856 274.089 257.856 272.516C257.856 270.956 257.089 269.994 256.101 269.994C255.087 269.994 254.346 270.956 254.346 272.516C254.346 274.089 255.087 275.025 256.101 275.025ZM262.886 269.63V269.786C263.302 269.305 264.017 268.954 264.862 268.954C265.59 268.954 266.383 269.24 266.812 269.968C267.098 270.449 267.15 271.047 267.15 271.658V275.389C267.15 275.727 266.877 276 266.539 276C266.201 276 265.928 275.727 265.928 275.389V271.723C265.928 271.411 265.902 271.021 265.824 270.8C265.668 270.358 265.252 270.059 264.628 270.059C264.069 270.059 263.445 270.332 263.133 270.852C262.951 271.138 262.886 271.515 262.886 271.84V275.389C262.886 275.727 262.613 276 262.275 276C261.937 276 261.664 275.727 261.664 275.389V269.63C261.664 269.292 261.937 269.019 262.275 269.019C262.613 269.019 262.886 269.292 262.886 269.63ZM274.057 274.947C274.057 275.116 273.979 275.272 273.862 275.402C273.524 275.805 272.913 276.065 272.341 276.065C270.989 276.065 270.339 275.246 270.339 273.79V270.124H269.338C269.026 270.124 268.779 269.877 268.779 269.578C268.779 269.266 269.026 269.019 269.325 269.019H270.339V267.069C270.339 266.731 270.612 266.458 270.95 266.458C271.288 266.458 271.561 266.731 271.561 267.069V269.019H273.082C273.394 269.019 273.641 269.266 273.641 269.565C273.641 269.877 273.394 270.124 273.095 270.124H271.561V273.712C271.561 274.609 271.795 274.96 272.341 274.96C272.575 274.96 272.9 274.83 273.108 274.648C273.277 274.505 273.433 274.414 273.589 274.414C273.888 274.414 274.057 274.648 274.057 274.947ZM284.528 275.142C284.138 275.727 283.501 276.065 282.747 276.065C281.096 276.065 279.822 274.661 279.822 272.516C279.822 270.384 281.083 268.954 282.734 268.954C283.41 268.954 284.086 269.227 284.528 269.825V269.63C284.528 269.292 284.801 269.019 285.139 269.019C285.477 269.019 285.75 269.292 285.75 269.63V275.389C285.75 275.727 285.477 276 285.139 276C284.801 276 284.528 275.727 284.528 275.389V275.142ZM282.786 275.025C283.774 275.025 284.541 274.089 284.541 272.516C284.541 270.956 283.774 269.994 282.786 269.994C281.772 269.994 281.031 270.956 281.031 272.516C281.031 274.089 281.772 275.025 282.786 275.025ZM296.883 274.947C296.883 275.116 296.805 275.272 296.688 275.402C296.35 275.805 295.739 276.065 295.167 276.065C293.815 276.065 293.165 275.246 293.165 273.79V270.124H292.164C291.852 270.124 291.605 269.877 291.605 269.578C291.605 269.266 291.852 269.019 292.151 269.019H293.165V267.069C293.165 266.731 293.438 266.458 293.776 266.458C294.114 266.458 294.387 266.731 294.387 267.069V269.019H295.908C296.22 269.019 296.467 269.266 296.467 269.565C296.467 269.877 296.22 270.124 295.921 270.124H294.387V273.712C294.387 274.609 294.621 274.96 295.167 274.96C295.401 274.96 295.726 274.83 295.934 274.648C296.103 274.505 296.259 274.414 296.415 274.414C296.714 274.414 296.883 274.648 296.883 274.947ZM303.664 270.15C303.664 270.423 303.469 270.696 303.144 270.696C302.949 270.696 302.819 270.605 302.676 270.488C302.273 270.163 302 270.046 301.493 270.046C300.856 270.046 300.466 270.319 300.193 270.683C299.933 271.034 299.842 271.502 299.842 272.321V275.389C299.842 275.727 299.569 276 299.231 276C298.893 276 298.62 275.727 298.62 275.389V269.63C298.62 269.292 298.893 269.019 299.231 269.019C299.569 269.019 299.842 269.292 299.842 269.63V269.812C300.258 269.266 300.908 268.954 301.701 268.954C302.442 268.954 303.053 269.227 303.495 269.721C303.612 269.851 303.664 269.994 303.664 270.15ZM310.45 272.321C310.45 272.763 310.19 272.958 309.865 272.958H305.965C306.056 274.167 306.706 275.025 307.681 275.025C308.357 275.025 308.786 274.765 309.15 274.258C309.28 274.076 309.436 273.972 309.644 273.972C309.956 273.972 310.151 274.206 310.151 274.518C310.151 274.674 310.073 274.817 310.008 274.921C309.579 275.571 308.825 276.065 307.707 276.065C306.03 276.065 304.756 274.713 304.756 272.516C304.756 270.228 306.16 268.954 307.707 268.954C309.241 268.954 310.45 270.137 310.45 272.321ZM309.254 271.918C309.215 270.735 308.63 269.994 307.707 269.994C306.771 269.994 306.082 270.735 305.991 271.918H309.254ZM317.889 272.321C317.889 272.763 317.629 272.958 317.304 272.958H313.404C313.495 274.167 314.145 275.025 315.12 275.025C315.796 275.025 316.225 274.765 316.589 274.258C316.719 274.076 316.875 273.972 317.083 273.972C317.395 273.972 317.59 274.206 317.59 274.518C317.59 274.674 317.512 274.817 317.447 274.921C317.018 275.571 316.264 276.065 315.146 276.065C313.469 276.065 312.195 274.713 312.195 272.516C312.195 270.228 313.599 268.954 315.146 268.954C316.68 268.954 317.889 270.137 317.889 272.321ZM316.693 271.918C316.654 270.735 316.069 269.994 315.146 269.994C314.21 269.994 313.521 270.735 313.43 271.918H316.693ZM332.066 269.63C332.066 269.708 332.053 269.786 332.04 269.825L330.428 275.584C330.363 275.831 330.103 276 329.843 276H329.414C329.206 276 329.011 275.87 328.946 275.662L328.036 272.815C327.919 272.451 327.867 272.204 327.854 271.996H327.828C327.815 272.217 327.75 272.503 327.646 272.841L326.736 275.662C326.671 275.87 326.476 276 326.268 276H325.839C325.592 276 325.345 275.831 325.267 275.584L323.59 269.825C323.577 269.786 323.564 269.695 323.564 269.63C323.564 269.292 323.85 269.019 324.188 269.019C324.5 269.019 324.695 269.214 324.76 269.474L325.943 273.933C326.021 274.219 326.073 274.492 326.086 274.739H326.112C326.125 274.492 326.216 274.167 326.294 273.92L327.373 270.631C327.438 270.423 327.633 270.293 327.841 270.293C328.049 270.293 328.231 270.41 328.309 270.631L329.388 273.933C329.479 274.193 329.557 274.505 329.583 274.739H329.609C329.622 274.505 329.661 274.232 329.739 273.933L330.857 269.513C330.935 269.227 331.117 269.019 331.442 269.019C331.78 269.019 332.066 269.292 332.066 269.63ZM335.275 269.63V275.389C335.275 275.727 335.002 276 334.664 276C334.326 276 334.053 275.727 334.053 275.389V269.63C334.053 269.292 334.326 269.019 334.664 269.019C335.002 269.019 335.275 269.292 335.275 269.63ZM335.6 266.848C335.6 267.355 335.171 267.784 334.664 267.784C334.157 267.784 333.728 267.355 333.728 266.848C333.728 266.341 334.157 265.912 334.664 265.912C335.171 265.912 335.6 266.341 335.6 266.848ZM342.294 274.947C342.294 275.116 342.216 275.272 342.099 275.402C341.761 275.805 341.15 276.065 340.578 276.065C339.226 276.065 338.576 275.246 338.576 273.79V270.124H337.575C337.263 270.124 337.016 269.877 337.016 269.578C337.016 269.266 337.263 269.019 337.562 269.019H338.576V267.069C338.576 266.731 338.849 266.458 339.187 266.458C339.525 266.458 339.798 266.731 339.798 267.069V269.019H341.319C341.631 269.019 341.878 269.266 341.878 269.565C341.878 269.877 341.631 270.124 341.332 270.124H339.798V273.712C339.798 274.609 340.032 274.96 340.578 274.96C340.812 274.96 341.137 274.83 341.345 274.648C341.514 274.505 341.67 274.414 341.826 274.414C342.125 274.414 342.294 274.648 342.294 274.947ZM345.266 267.212V269.786C345.682 269.305 346.397 268.954 347.242 268.954C347.97 268.954 348.763 269.24 349.192 269.968C349.478 270.449 349.53 271.047 349.53 271.658V275.389C349.53 275.727 349.257 276 348.919 276C348.581 276 348.308 275.727 348.308 275.389V271.723C348.308 271.411 348.282 271.021 348.204 270.8C348.048 270.358 347.632 270.059 347.008 270.059C346.449 270.059 345.825 270.332 345.513 270.852C345.331 271.138 345.266 271.515 345.266 271.84V275.389C345.266 275.727 344.993 276 344.655 276C344.317 276 344.044 275.727 344.044 275.389V267.212C344.044 266.874 344.317 266.601 344.655 266.601C344.993 266.601 345.266 266.874 345.266 267.212ZM361.79 272.321C361.79 272.763 361.53 272.958 361.205 272.958H357.305C357.396 274.167 358.046 275.025 359.021 275.025C359.697 275.025 360.126 274.765 360.49 274.258C360.62 274.076 360.776 273.972 360.984 273.972C361.296 273.972 361.491 274.206 361.491 274.518C361.491 274.674 361.413 274.817 361.348 274.921C360.919 275.571 360.165 276.065 359.047 276.065C357.37 276.065 356.096 274.713 356.096 272.516C356.096 270.228 357.5 268.954 359.047 268.954C360.581 268.954 361.79 270.137 361.79 272.321ZM360.594 271.918C360.555 270.735 359.97 269.994 359.047 269.994C358.111 269.994 357.422 270.735 357.331 271.918H360.594ZM364.304 269.409L365.981 273.764C366.046 273.933 366.176 274.336 366.215 274.479H366.241C366.28 274.336 366.41 273.933 366.475 273.764L368.152 269.409C368.243 269.175 368.477 269.019 368.724 269.019C369.062 269.019 369.335 269.292 369.335 269.63C369.335 269.721 369.309 269.825 369.27 269.916L366.943 275.662C366.852 275.896 366.618 276 366.397 276H366.059C365.838 276 365.604 275.896 365.513 275.662L363.186 269.903C363.147 269.825 363.121 269.721 363.121 269.63C363.121 269.305 363.394 269.019 363.732 269.019C363.979 269.019 364.213 269.175 364.304 269.409ZM376.389 272.321C376.389 272.763 376.129 272.958 375.804 272.958H371.904C371.995 274.167 372.645 275.025 373.62 275.025C374.296 275.025 374.725 274.765 375.089 274.258C375.219 274.076 375.375 273.972 375.583 273.972C375.895 273.972 376.09 274.206 376.09 274.518C376.09 274.674 376.012 274.817 375.947 274.921C375.518 275.571 374.764 276.065 373.646 276.065C371.969 276.065 370.695 274.713 370.695 272.516C370.695 270.228 372.099 268.954 373.646 268.954C375.18 268.954 376.389 270.137 376.389 272.321ZM375.193 271.918C375.154 270.735 374.569 269.994 373.646 269.994C372.71 269.994 372.021 270.735 371.93 271.918H375.193ZM383.569 270.15C383.569 270.423 383.374 270.696 383.049 270.696C382.854 270.696 382.724 270.605 382.581 270.488C382.178 270.163 381.905 270.046 381.398 270.046C380.761 270.046 380.371 270.319 380.098 270.683C379.838 271.034 379.747 271.502 379.747 272.321V275.389C379.747 275.727 379.474 276 379.136 276C378.798 276 378.525 275.727 378.525 275.389V269.63C378.525 269.292 378.798 269.019 379.136 269.019C379.474 269.019 379.747 269.292 379.747 269.63V269.812C380.163 269.266 380.813 268.954 381.606 268.954C382.347 268.954 382.958 269.227 383.4 269.721C383.517 269.851 383.569 269.994 383.569 270.15ZM386.621 276.845L387.011 275.818C386.933 275.792 386.881 275.753 386.842 275.662L384.515 269.916C384.489 269.851 384.45 269.747 384.45 269.63C384.45 269.292 384.723 269.019 385.061 269.019C385.36 269.019 385.555 269.214 385.62 269.383L387.31 273.764C387.375 273.933 387.505 274.336 387.544 274.479H387.57C387.609 274.336 387.739 273.933 387.804 273.764L389.507 269.357C389.598 269.123 389.832 269.019 390.053 269.019C390.391 269.019 390.664 269.292 390.664 269.63C390.664 269.721 390.638 269.812 390.599 269.903L387.557 277.469C387.258 278.223 386.634 278.652 385.88 278.652C385.308 278.652 384.853 278.483 384.489 278.145C384.372 278.028 384.268 277.872 384.268 277.677C384.268 277.378 384.502 277.131 384.814 277.131C384.957 277.131 385.087 277.183 385.204 277.274C385.386 277.43 385.607 277.547 385.867 277.547C386.244 277.547 386.452 277.3 386.621 276.845ZM399.708 268.954C401.346 268.954 402.62 270.371 402.62 272.516C402.62 274.622 401.411 276.065 399.786 276.065C398.902 276.065 398.317 275.701 397.914 275.233V277.82C397.914 278.158 397.641 278.431 397.303 278.431C396.965 278.431 396.692 278.158 396.692 277.82V269.63C396.692 269.292 396.965 269.019 397.303 269.019C397.641 269.019 397.914 269.292 397.914 269.63V269.838C398.369 269.292 398.98 268.954 399.708 268.954ZM399.656 275.025C400.67 275.025 401.411 274.089 401.411 272.516C401.411 270.956 400.67 269.994 399.656 269.994C398.668 269.994 397.901 270.956 397.901 272.516C397.901 274.089 398.668 275.025 399.656 275.025ZM409.028 275.389V275.233C408.612 275.714 407.897 276.065 407.052 276.065C406.324 276.065 405.531 275.779 405.102 275.051C404.816 274.57 404.764 273.972 404.764 273.361V269.63C404.764 269.292 405.037 269.019 405.375 269.019C405.713 269.019 405.986 269.292 405.986 269.63V273.296C405.986 273.608 406.012 273.998 406.09 274.219C406.246 274.661 406.662 274.96 407.286 274.96C407.845 274.96 408.469 274.687 408.781 274.167C408.963 273.881 409.028 273.504 409.028 273.179V269.63C409.028 269.292 409.301 269.019 409.639 269.019C409.977 269.019 410.25 269.292 410.25 269.63V275.389C410.25 275.727 409.977 276 409.639 276C409.301 276 409.028 275.727 409.028 275.389ZM417.897 270.15C417.897 270.423 417.702 270.696 417.377 270.696C417.182 270.696 417.052 270.605 416.909 270.488C416.506 270.163 416.233 270.046 415.726 270.046C415.089 270.046 414.699 270.319 414.426 270.683C414.166 271.034 414.075 271.502 414.075 272.321V275.389C414.075 275.727 413.802 276 413.464 276C413.126 276 412.853 275.727 412.853 275.389V269.63C412.853 269.292 413.126 269.019 413.464 269.019C413.802 269.019 414.075 269.292 414.075 269.63V269.812C414.491 269.266 415.141 268.954 415.934 268.954C416.675 268.954 417.286 269.227 417.728 269.721C417.845 269.851 417.897 269.994 417.897 270.15ZM421.913 270.033C420.678 270.033 420.184 271.359 420.184 272.516C420.184 274.089 420.925 274.986 421.939 274.986C422.589 274.986 423.083 274.661 423.343 274.102C423.486 273.803 423.694 273.712 423.889 273.712C424.201 273.712 424.435 273.972 424.435 274.284C424.435 274.414 424.37 274.583 424.318 274.7C423.967 275.415 423.07 276.065 421.939 276.065C420.262 276.065 418.975 274.674 418.975 272.516C418.975 270.358 420.262 268.954 421.926 268.954C423.031 268.954 423.85 269.5 424.305 270.358C424.357 270.462 424.422 270.605 424.422 270.8C424.422 271.073 424.201 271.307 423.889 271.307C423.629 271.307 423.473 271.151 423.317 270.891C423.005 270.371 422.576 270.033 421.913 270.033ZM427.786 267.212V269.786C428.202 269.305 428.917 268.954 429.762 268.954C430.49 268.954 431.283 269.24 431.712 269.968C431.998 270.449 432.05 271.047 432.05 271.658V275.389C432.05 275.727 431.777 276 431.439 276C431.101 276 430.828 275.727 430.828 275.389V271.723C430.828 271.411 430.802 271.021 430.724 270.8C430.568 270.358 430.152 270.059 429.528 270.059C428.969 270.059 428.345 270.332 428.033 270.852C427.851 271.138 427.786 271.515 427.786 271.84V275.389C427.786 275.727 427.513 276 427.175 276C426.837 276 426.564 275.727 426.564 275.389V267.212C426.564 266.874 426.837 266.601 427.175 266.601C427.513 266.601 427.786 266.874 427.786 267.212ZM438.903 275.142C438.513 275.727 437.876 276.065 437.122 276.065C435.471 276.065 434.197 274.661 434.197 272.516C434.197 270.384 435.458 268.954 437.109 268.954C437.785 268.954 438.461 269.227 438.903 269.825V269.63C438.903 269.292 439.176 269.019 439.514 269.019C439.852 269.019 440.125 269.292 440.125 269.63V275.389C440.125 275.727 439.852 276 439.514 276C439.176 276 438.903 275.727 438.903 275.389V275.142ZM437.161 275.025C438.149 275.025 438.916 274.089 438.916 272.516C438.916 270.956 438.149 269.994 437.161 269.994C436.147 269.994 435.406 270.956 435.406 272.516C435.406 274.089 436.147 275.025 437.161 275.025ZM447.756 273.972C447.756 275.22 446.768 276.065 445.091 276.065C443.609 276.065 442.777 275.454 442.4 275.025C442.296 274.895 442.205 274.739 442.205 274.544C442.205 274.219 442.465 273.985 442.79 273.985C442.972 273.985 443.128 274.102 443.232 274.206C443.687 274.661 444.168 275.012 445.104 275.012C446.053 275.012 446.599 274.635 446.599 274.011C446.599 273.361 446.118 273.14 445.442 273.01L444.35 272.802C443.245 272.594 442.4 272.022 442.4 270.93C442.4 270.631 442.478 270.332 442.634 270.072C443.011 269.435 443.739 268.954 444.935 268.954C445.793 268.954 446.586 269.214 447.119 269.656C447.327 269.825 447.418 270.007 447.418 270.202C447.418 270.488 447.197 270.683 446.898 270.683C446.768 270.683 446.599 270.618 446.482 270.54C445.975 270.202 445.559 270.007 444.857 270.007C443.882 270.007 443.57 270.475 443.57 270.878C443.57 271.489 444.129 271.645 444.714 271.762L445.806 271.983C447.145 272.256 447.756 272.867 447.756 273.972ZM455.125 272.321C455.125 272.763 454.865 272.958 454.54 272.958H450.64C450.731 274.167 451.381 275.025 452.356 275.025C453.032 275.025 453.461 274.765 453.825 274.258C453.955 274.076 454.111 273.972 454.319 273.972C454.631 273.972 454.826 274.206 454.826 274.518C454.826 274.674 454.748 274.817 454.683 274.921C454.254 275.571 453.5 276.065 452.382 276.065C450.705 276.065 449.431 274.713 449.431 272.516C449.431 270.228 450.835 268.954 452.382 268.954C453.916 268.954 455.125 270.137 455.125 272.321ZM453.929 271.918C453.89 270.735 453.305 269.994 452.382 269.994C451.446 269.994 450.757 270.735 450.666 271.918H453.929Z" fill="#414141"/>
<rect x="204" y="204" width="288" height="48" rx="6" fill="#1D1D1D"/>
<path d="M304.01 225.425C304.01 224.555 303.695 223.82 303.2 223.28C302.525 222.56 301.505 222.155 300.425 222.155H297.485C297.08 222.155 296.75 222.5 296.75 222.905V232.25C296.75 232.67 297.08 233 297.5 233C297.92 233 298.25 232.67 298.25 232.25V228.665H300.425C301.67 228.665 302.615 228.245 303.215 227.585C303.74 227 304.01 226.265 304.01 225.425ZM302.57 225.395C302.57 225.89 302.465 226.37 302.135 226.73C301.82 227.075 301.28 227.315 300.38 227.315H298.25V223.505H300.35C301.19 223.505 301.76 223.805 302.135 224.225C302.42 224.57 302.57 224.975 302.57 225.395ZM310.999 232.01V232.295C310.999 232.685 311.314 233 311.704 233C312.094 233 312.409 232.685 312.409 232.295V225.65C312.409 225.26 312.094 224.945 311.704 224.945C311.314 224.945 310.999 225.26 310.999 225.65V225.875C310.489 225.185 309.709 224.87 308.929 224.87C307.024 224.87 305.569 226.52 305.569 228.98C305.569 231.455 307.039 233.075 308.944 233.075C309.814 233.075 310.549 232.685 310.999 232.01ZM308.989 231.875C307.819 231.875 306.964 230.795 306.964 228.98C306.964 227.18 307.819 226.07 308.989 226.07C310.129 226.07 311.014 227.18 311.014 228.98C311.014 230.795 310.129 231.875 308.989 231.875ZM317.134 233.975C316.939 234.5 316.699 234.785 316.264 234.785C315.964 234.785 315.709 234.65 315.499 234.47C315.364 234.365 315.214 234.305 315.049 234.305C314.689 234.305 314.419 234.59 314.419 234.935C314.419 235.16 314.539 235.34 314.674 235.475C315.094 235.865 315.619 236.06 316.279 236.06C317.149 236.06 317.869 235.565 318.214 234.695L321.724 225.965C321.769 225.86 321.799 225.755 321.799 225.65C321.799 225.26 321.484 224.945 321.094 224.945C320.839 224.945 320.569 225.065 320.464 225.335L318.499 230.42C318.424 230.615 318.274 231.08 318.229 231.245H318.199C318.154 231.08 318.004 230.615 317.929 230.42L315.979 225.365C315.904 225.17 315.679 224.945 315.334 224.945C314.944 224.945 314.629 225.26 314.629 225.65C314.629 225.785 314.674 225.905 314.704 225.98L317.389 232.61C317.434 232.715 317.494 232.76 317.584 232.79L317.134 233.975ZM332.234 224.87C331.394 224.87 330.689 225.26 330.164 225.89V222.86C330.164 222.47 329.849 222.155 329.459 222.155C329.069 222.155 328.754 222.47 328.754 222.86V232.295C328.754 232.685 329.069 233 329.459 233C329.849 233 330.164 232.685 330.164 232.295V232.115C330.629 232.655 331.304 233.075 332.324 233.075C334.199 233.075 335.594 231.41 335.594 228.98C335.594 226.505 334.124 224.87 332.234 224.87ZM332.174 231.875C331.034 231.875 330.149 230.795 330.149 228.98C330.149 227.18 331.034 226.07 332.174 226.07C333.344 226.07 334.199 227.18 334.199 228.98C334.199 230.795 333.344 231.875 332.174 231.875ZM339.722 233.975C339.527 234.5 339.287 234.785 338.852 234.785C338.552 234.785 338.297 234.65 338.087 234.47C337.952 234.365 337.802 234.305 337.637 234.305C337.277 234.305 337.007 234.59 337.007 234.935C337.007 235.16 337.127 235.34 337.262 235.475C337.682 235.865 338.207 236.06 338.867 236.06C339.737 236.06 340.457 235.565 340.802 234.695L344.312 225.965C344.357 225.86 344.387 225.755 344.387 225.65C344.387 225.26 344.072 224.945 343.682 224.945C343.427 224.945 343.157 225.065 343.052 225.335L341.087 230.42C341.012 230.615 340.862 231.08 340.817 231.245H340.787C340.742 231.08 340.592 230.615 340.517 230.42L338.567 225.365C338.492 225.17 338.267 224.945 337.922 224.945C337.532 224.945 337.217 225.26 337.217 225.65C337.217 225.785 337.262 225.905 337.292 225.98L339.977 232.61C340.022 232.715 340.082 232.76 340.172 232.79L339.722 233.975ZM359.307 229.745C359.307 228.47 358.587 227.51 357.627 227.105C358.257 226.655 358.797 225.995 358.797 225.005C358.797 224.135 358.467 223.43 357.927 222.935C357.372 222.41 356.592 222.155 355.422 222.155H352.227C351.807 222.155 351.477 222.485 351.477 222.905V232.25C351.477 232.655 351.807 233 352.212 233H355.572C357.972 233 359.307 231.575 359.307 229.745ZM357.312 225.035C357.312 225.905 356.877 226.55 355.572 226.55H352.977V223.505H355.377C356.682 223.505 357.312 224.09 357.312 225.035ZM357.762 229.76C357.762 230.885 356.967 231.65 355.602 231.65H352.977V227.87H355.662C357.087 227.87 357.762 228.59 357.762 229.76ZM366.824 232.01V232.295C366.824 232.685 367.139 233 367.529 233C367.919 233 368.234 232.685 368.234 232.295V225.65C368.234 225.26 367.919 224.945 367.529 224.945C367.139 224.945 366.824 225.26 366.824 225.65V225.875C366.314 225.185 365.534 224.87 364.754 224.87C362.849 224.87 361.394 226.52 361.394 228.98C361.394 231.455 362.864 233.075 364.769 233.075C365.639 233.075 366.374 232.685 366.824 232.01ZM364.814 231.875C363.644 231.875 362.789 230.795 362.789 228.98C362.789 227.18 363.644 226.07 364.814 226.07C365.954 226.07 366.839 227.18 366.839 228.98C366.839 230.795 365.954 231.875 364.814 231.875ZM372.644 225.65C372.644 225.26 372.329 224.945 371.939 224.945C371.549 224.945 371.234 225.26 371.234 225.65V232.295C371.234 232.685 371.549 233 371.939 233C372.329 233 372.644 232.685 372.644 232.295V228.2C372.644 227.825 372.719 227.39 372.929 227.06C373.289 226.46 374.009 226.145 374.654 226.145C375.374 226.145 375.854 226.49 376.034 227C376.124 227.255 376.154 227.705 376.154 228.065V232.295C376.154 232.685 376.469 233 376.859 233C377.249 233 377.564 232.685 377.564 232.295V227.99C377.564 227.285 377.504 226.595 377.174 226.04C376.679 225.2 375.764 224.87 374.924 224.87C373.949 224.87 373.124 225.275 372.644 225.83V225.65ZM386.312 226.22C386.477 226.07 386.597 225.86 386.597 225.635C386.597 225.245 386.267 224.945 385.907 224.945C385.712 224.945 385.532 225.035 385.397 225.17L381.917 228.65V222.86C381.917 222.47 381.602 222.155 381.212 222.155C380.822 222.155 380.507 222.47 380.507 222.86V232.295C380.507 232.685 380.822 233 381.212 233C381.602 233 381.917 232.685 381.917 232.295V230.435L382.967 229.43L385.577 232.76C385.742 232.97 385.952 233.03 386.117 233.03C386.492 233.03 386.807 232.715 386.807 232.34C386.807 232.145 386.717 231.98 386.597 231.83L383.912 228.53L386.312 226.22ZM399.111 223.94C399.111 222.96 398.311 222.16 397.311 222.16C396.331 222.16 395.531 222.96 395.531 223.94C395.531 224.94 396.331 225.74 397.311 225.74C398.311 225.74 399.111 224.94 399.111 223.94ZM399.111 231.32C399.111 230.32 398.311 229.52 397.311 229.52C396.331 229.52 395.531 230.32 395.531 231.32C395.531 232.3 396.331 233.1 397.311 233.1C398.311 233.1 399.111 232.3 399.111 231.32Z" fill="#FAFAFA"/>
<g filter="url(#filter0_d_943_939)">
<path d="M472.346 274.183C471.541 273.148 470.535 271.05 468.782 268.435C467.776 266.998 465.304 264.267 464.557 262.859C464.018 262.003 463.862 260.961 464.125 259.985C464.577 258.129 466.337 256.897 468.236 257.111C469.704 257.405 471.053 258.125 472.116 259.18C472.858 259.879 473.54 260.638 474.156 261.451C474.616 262.025 474.731 262.255 475.249 262.916C475.766 263.577 476.111 264.238 475.852 263.261C475.651 261.824 475.306 259.41 474.817 257.254C474.444 255.616 474.358 255.357 474.013 254.121C473.668 252.886 473.467 251.851 473.093 250.442C472.751 249.059 472.483 247.658 472.288 246.246C471.926 244.44 472.189 242.565 473.035 240.929C474.04 239.984 475.513 239.735 476.772 240.297C478.038 241.232 478.982 242.537 479.474 244.033C480.227 245.874 480.73 247.807 480.968 249.781C481.428 252.656 482.319 256.852 482.348 257.714C482.348 256.651 482.147 254.409 482.348 253.403C482.547 252.354 483.276 251.484 484.273 251.104C485.129 250.841 486.035 250.782 486.918 250.931C487.809 251.117 488.598 251.63 489.131 252.368C489.797 254.045 490.166 255.825 490.223 257.628C490.3 256.049 490.57 254.485 491.028 252.972C491.508 252.295 492.209 251.807 493.011 251.592C493.961 251.418 494.935 251.418 495.885 251.592C496.664 251.853 497.346 252.344 497.84 253C498.448 254.525 498.817 256.134 498.932 257.772C498.932 258.174 499.133 256.651 499.765 255.645C500.094 254.669 500.918 253.943 501.927 253.74C502.936 253.537 503.977 253.887 504.658 254.66C505.338 255.432 505.555 256.509 505.226 257.484C505.226 259.352 505.226 259.266 505.226 260.531C505.226 261.795 505.226 262.916 505.226 263.98C505.122 265.662 504.891 267.333 504.536 268.981C504.036 270.438 503.34 271.821 502.467 273.091C501.071 274.643 499.918 276.397 499.047 278.293C498.831 279.235 498.734 280.201 498.759 281.167C498.756 282.06 498.872 282.949 499.104 283.812C497.929 283.936 496.744 283.936 495.569 283.812C494.448 283.639 493.068 281.397 492.695 280.707C492.51 280.337 492.132 280.103 491.718 280.103C491.304 280.103 490.925 280.337 490.74 280.707C490.108 281.8 488.7 283.783 487.723 283.898C485.797 284.128 481.83 283.898 478.698 283.898C478.698 283.898 479.215 281.024 478.037 279.989C476.858 278.954 475.651 277.747 474.76 276.942L472.346 274.183Z" fill="white"/>
<path fill-rule="evenodd" clip-rule="evenodd" d="M472.346 274.183C471.541 273.148 470.535 271.05 468.782 268.435C467.776 266.998 465.304 264.267 464.557 262.859C464.018 262.003 463.862 260.961 464.125 259.985C464.577 258.129 466.337 256.897 468.236 257.111C469.704 257.405 471.053 258.125 472.116 259.18C472.858 259.879 473.54 260.638 474.156 261.451C474.616 262.025 474.731 262.255 475.249 262.916C475.766 263.577 476.111 264.238 475.852 263.261C475.651 261.824 475.306 259.41 474.817 257.254C474.444 255.616 474.358 255.357 474.013 254.121C473.668 252.886 473.467 251.851 473.093 250.442C472.751 249.059 472.483 247.658 472.288 246.246C471.926 244.44 472.189 242.565 473.035 240.929C474.04 239.984 475.513 239.735 476.772 240.297C478.038 241.232 478.982 242.537 479.474 244.033C480.227 245.874 480.73 247.807 480.968 249.781C481.428 252.656 482.319 256.852 482.348 257.714C482.348 256.651 482.147 254.409 482.348 253.403C482.547 252.354 483.276 251.484 484.273 251.104C485.129 250.841 486.035 250.782 486.918 250.931C487.809 251.117 488.598 251.63 489.131 252.368C489.797 254.045 490.166 255.825 490.223 257.628C490.3 256.049 490.57 254.485 491.028 252.972C491.508 252.295 492.209 251.807 493.011 251.592C493.961 251.418 494.935 251.418 495.885 251.592C496.664 251.853 497.346 252.344 497.84 253C498.448 254.525 498.817 256.134 498.932 257.772C498.932 258.174 499.133 256.651 499.765 255.645C500.094 254.669 500.918 253.943 501.927 253.74C502.936 253.537 503.977 253.887 504.658 254.66C505.338 255.432 505.555 256.509 505.226 257.484C505.226 259.352 505.226 259.266 505.226 260.531C505.226 261.795 505.226 262.916 505.226 263.98C505.122 265.662 504.891 267.333 504.536 268.981C504.036 270.438 503.34 271.821 502.467 273.091C501.071 274.643 499.918 276.397 499.047 278.293C498.831 279.235 498.734 280.201 498.759 281.167C498.756 282.06 498.872 282.949 499.104 283.812C497.929 283.936 496.744 283.936 495.569 283.812C494.448 283.639 493.068 281.397 492.695 280.707C492.51 280.337 492.132 280.103 491.718 280.103C491.304 280.103 490.925 280.337 490.74 280.707C490.108 281.8 488.7 283.783 487.723 283.898C485.797 284.128 481.83 283.898 478.698 283.898C478.698 283.898 479.215 281.024 478.037 279.989C476.858 278.954 475.651 277.747 474.76 276.942L472.346 274.183Z" stroke="black" stroke-width="2.15563" stroke-linecap="round" stroke-linejoin="round"/>
<path d="M496.719 275.752V265.831C496.719 265.237 496.237 264.756 495.641 264.756C495.046 264.756 494.563 265.237 494.563 265.831V275.752C494.563 276.346 495.046 276.827 495.641 276.827C496.237 276.827 496.719 276.346 496.719 275.752Z" fill="black"/>
<path d="M491.03 275.748L490.973 265.822C490.969 265.23 490.484 264.752 489.889 264.756C489.293 264.759 488.814 265.242 488.817 265.835L488.875 275.761C488.878 276.353 489.363 276.831 489.959 276.827C490.554 276.824 491.034 276.341 491.03 275.748Z" fill="black"/>
<path d="M483.066 265.845L483.124 275.751C483.127 276.349 483.613 276.831 484.208 276.827C484.803 276.824 485.283 276.336 485.28 275.738L485.222 265.833C485.219 265.234 484.733 264.752 484.138 264.756C483.543 264.759 483.063 265.247 483.066 265.845Z" fill="black"/>
</g>
<defs>
<filter id="filter0_d_943_939" x="460.623" y="238.922" width="48.1314" height="51.3293" filterUnits="userSpaceOnUse" color-interpolation-filters="sRGB">
<feFlood flood-opacity="0" result="BackgroundImageFix"/>
<feColorMatrix in="SourceAlpha" type="matrix" values="0 0 0 0 0 0 0 0 0 0 0 0 0 0 0 0 0 0 127 0" result="hardAlpha"/>
<feOffset dy="2.87418"/>
<feGaussianBlur stdDeviation="1.14967"/>
<feColorMatrix type="matrix" values="0 0 0 0 0 0 0 0 0 0 0 0 0 0 0 0 0 0 0.5 0"/>
<feBlend mode="normal" in2="BackgroundImageFix" result="effect1_dropShadow_943_939"/>
<feBlend mode="normal" in="SourceGraphic" in2="effect1_dropShadow_943_939" result="shape"/>
</filter>
</defs>
</svg>
