<svg width="696" height="448" viewBox="0 0 696 448" fill="none" xmlns="http://www.w3.org/2000/svg">
<path d="M503 82.5C503 72.835 495.165 65 485.5 65H258.5C248.835 65 241 72.835 241 82.5V174.5C241 184.165 248.835 192 258.5 192H485.5C495.165 192 503 184.165 503 174.5V82.5Z" fill="#007AFF"/>
<path d="M265.093 89V77.022H263.598V82.2017H257.024V77.022H255.53V89H257.024V83.5464H263.598V89H265.093ZM268.302 78.3252C268.85 78.3252 269.298 77.877 269.298 77.3291C269.298 76.7812 268.85 76.333 268.302 76.333C267.754 76.333 267.306 76.7812 267.306 77.3291C267.306 77.877 267.754 78.3252 268.302 78.3252ZM267.588 89H269.016V80.0518H267.588V89ZM280.929 76.7397C277.542 76.7397 275.434 79.1553 275.434 83.0068C275.434 86.8418 277.492 89.2822 280.929 89.2822C284.349 89.2822 286.424 86.8335 286.424 83.0068C286.424 79.1636 284.332 76.7397 280.929 76.7397ZM280.929 78.1177C283.378 78.1177 284.888 80.0103 284.888 83.0068C284.888 85.9785 283.386 87.9043 280.929 87.9043C278.439 87.9043 276.969 85.9785 276.969 83.0068C276.969 80.0103 278.489 78.1177 280.929 78.1177ZM288.214 82.5005C288.214 83.7954 288.977 84.5176 290.654 84.9243L292.19 85.2979C293.144 85.5303 293.609 85.9453 293.609 86.5596C293.609 87.3813 292.746 87.9541 291.542 87.9541C290.397 87.9541 289.683 87.4727 289.442 86.7173H287.973C288.131 88.2031 289.5 89.1577 291.493 89.1577C293.526 89.1577 295.079 88.0537 295.079 86.4517C295.079 85.165 294.265 84.4346 292.58 84.0278L291.202 83.6958C290.148 83.4385 289.65 83.0566 289.65 82.4424C289.65 81.6455 290.48 81.106 291.542 81.106C292.621 81.106 293.319 81.5791 293.51 82.293H294.921C294.73 80.8237 293.427 79.894 291.551 79.894C289.65 79.894 288.214 81.0146 288.214 82.5005ZM304.314 82.791C304.065 81.1973 302.737 79.894 300.562 79.894C298.055 79.894 296.461 81.7036 296.461 84.4927C296.461 87.3398 298.064 89.1577 300.57 89.1577C302.72 89.1577 304.057 87.9458 304.314 86.3022H302.87C302.604 87.3149 301.766 87.8711 300.562 87.8711C298.968 87.8711 297.939 86.5596 297.939 84.4927C297.939 82.4673 298.952 81.1807 300.562 81.1807C301.849 81.1807 302.637 81.9028 302.87 82.791H304.314ZM308.503 89.1577C309.698 89.1577 310.677 88.6348 311.259 87.6802H311.391V89H312.753V82.874C312.753 81.0146 311.532 79.894 309.349 79.894C307.44 79.894 306.029 80.8403 305.838 82.2764H307.282C307.482 81.5708 308.229 81.1641 309.3 81.1641C310.636 81.1641 311.325 81.77 311.325 82.874V83.6875L308.743 83.8452C306.66 83.9697 305.481 84.8911 305.481 86.4932C305.481 88.1284 306.768 89.1577 308.503 89.1577ZM308.768 87.9043C307.731 87.9043 306.959 87.373 306.959 86.46C306.959 85.5635 307.556 85.0903 308.918 84.999L311.325 84.8413V85.6631C311.325 86.9414 310.238 87.9043 308.768 87.9043ZM314.982 89H316.41V83.4551C316.41 82.1934 317.398 81.2803 318.759 81.2803C319.041 81.2803 319.556 81.3301 319.672 81.3633V79.9355C319.49 79.9106 319.191 79.894 318.958 79.894C317.771 79.894 316.742 80.5083 316.476 81.3799H316.344V80.0518H314.982V89ZM320.873 92.0464L322.176 87.3232H320.59L319.802 92.0464H320.873ZM340.248 80.0518H338.812L337.053 87.207H336.92L334.919 80.0518H333.55L331.549 87.207H331.416L329.657 80.0518H328.212L330.719 89H332.163L334.156 82.0771H334.288L336.289 89H337.742L340.248 80.0518ZM347.342 86.6841C346.969 87.4727 346.188 87.896 345.035 87.896C343.516 87.896 342.528 86.7754 342.453 85.0073V84.9409H348.886V84.3931C348.886 81.6123 347.417 79.894 345.001 79.894C342.544 79.894 340.967 81.7202 340.967 84.5342C340.967 87.3647 342.52 89.1577 345.001 89.1577C346.96 89.1577 348.355 88.2114 348.77 86.6841H347.342ZM344.985 81.1558C346.404 81.1558 347.351 82.2017 347.384 83.7871H342.453C342.561 82.2017 343.557 81.1558 344.985 81.1558ZM351.606 81.4961L353.108 77.022H351.489L350.568 81.4961H351.606ZM355.238 89H356.666V83.4551C356.666 82.1934 357.654 81.2803 359.015 81.2803C359.297 81.2803 359.812 81.3301 359.928 81.3633V79.9355C359.745 79.9106 359.447 79.894 359.214 79.894C358.027 79.894 356.998 80.5083 356.732 81.3799H356.599V80.0518H355.238V89ZM366.98 86.6841C366.607 87.4727 365.827 87.896 364.673 87.896C363.154 87.896 362.166 86.7754 362.091 85.0073V84.9409H368.524V84.3931C368.524 81.6123 367.055 79.894 364.64 79.894C362.183 79.894 360.605 81.7202 360.605 84.5342C360.605 87.3647 362.158 89.1577 364.64 89.1577C366.599 89.1577 367.993 88.2114 368.408 86.6841H366.98ZM364.623 81.1558C366.042 81.1558 366.989 82.2017 367.022 83.7871H362.091C362.199 82.2017 363.195 81.1558 364.623 81.1558ZM378.055 89.1577C379.292 89.1577 380.355 88.5684 380.919 87.5723H381.052V89H382.413V76.499H380.986V81.4629H380.861C380.355 80.4834 379.301 79.894 378.055 79.894C375.781 79.894 374.295 81.7202 374.295 84.5259C374.295 87.3398 375.764 89.1577 378.055 89.1577ZM378.388 81.1807C380.006 81.1807 381.019 82.4756 381.019 84.5259C381.019 86.5928 380.014 87.8711 378.388 87.8711C376.752 87.8711 375.773 86.6177 375.773 84.5259C375.773 82.4424 376.761 81.1807 378.388 81.1807ZM390.703 86.6841C390.329 87.4727 389.549 87.896 388.395 87.896C386.876 87.896 385.888 86.7754 385.813 85.0073V84.9409H392.247V84.3931C392.247 81.6123 390.777 79.894 388.362 79.894C385.905 79.894 384.328 81.7202 384.328 84.5342C384.328 87.3647 385.88 89.1577 388.362 89.1577C390.321 89.1577 391.715 88.2114 392.13 86.6841H390.703ZM388.345 81.1558C389.765 81.1558 390.711 82.2017 390.744 83.7871H385.813C385.921 82.2017 386.917 81.1558 388.345 81.1558ZM394.161 89H395.589V76.499H394.161V89ZM398.698 78.3252C399.246 78.3252 399.694 77.877 399.694 77.3291C399.694 76.7812 399.246 76.333 398.698 76.333C398.15 76.333 397.702 76.7812 397.702 77.3291C397.702 77.877 398.15 78.3252 398.698 78.3252ZM397.984 89H399.412V80.0518H397.984V89ZM405.41 92.4365C407.851 92.4365 409.394 91.1582 409.394 89.1577V80.0518H408.033V81.4712H407.9C407.386 80.5083 406.282 79.894 405.028 79.894C402.729 79.894 401.276 81.7119 401.276 84.3931C401.276 87.0742 402.712 88.8672 405.028 88.8672C406.257 88.8672 407.269 88.311 407.834 87.3232H407.967V89.083C407.967 90.4028 407.012 91.1914 405.41 91.1914C404.123 91.1914 403.327 90.7183 403.169 89.9878H401.658C401.874 91.4653 403.252 92.4365 405.41 92.4365ZM405.344 87.6055C403.684 87.6055 402.754 86.3438 402.754 84.3931C402.754 82.4424 403.684 81.1807 405.344 81.1807C406.996 81.1807 408 82.4424 408 84.3931C408 86.3438 407.004 87.6055 405.344 87.6055ZM411.757 89H413.185V83.7041C413.185 82.1934 414.065 81.1807 415.667 81.1807C417.02 81.1807 417.734 81.9692 417.734 83.5547V89H419.161V83.2061C419.161 81.106 417.966 79.894 416.073 79.894C414.704 79.894 413.766 80.4751 413.317 81.4629H413.185V76.499H411.757V89ZM421.955 77.7358V80.0518H420.511V81.2471H421.955V86.6758C421.955 88.3857 422.694 89.0664 424.537 89.0664C424.819 89.0664 425.093 89.0332 425.375 88.9834V87.7798C425.11 87.8047 424.969 87.813 424.711 87.813C423.782 87.813 423.383 87.3647 423.383 86.3105V81.2471H425.375V80.0518H423.383V77.7358H421.955ZM432.917 86.6841C432.544 87.4727 431.764 87.896 430.61 87.896C429.091 87.896 428.103 86.7754 428.028 85.0073V84.9409H434.461V84.3931C434.461 81.6123 432.992 79.894 430.577 79.894C428.12 79.894 426.542 81.7202 426.542 84.5342C426.542 87.3647 428.095 89.1577 430.577 89.1577C432.536 89.1577 433.93 88.2114 434.345 86.6841H432.917ZM430.56 81.1558C431.979 81.1558 432.926 82.2017 432.959 83.7871H428.028C428.136 82.2017 429.132 81.1558 430.56 81.1558ZM439.605 89.1577C440.841 89.1577 441.904 88.5684 442.468 87.5723H442.601V89H443.962V76.499H442.535V81.4629H442.41C441.904 80.4834 440.85 79.894 439.605 79.894C437.33 79.894 435.844 81.7202 435.844 84.5259C435.844 87.3398 437.314 89.1577 439.605 89.1577ZM439.937 81.1807C441.555 81.1807 442.568 82.4756 442.568 84.5259C442.568 86.5928 441.564 87.8711 439.937 87.8711C438.301 87.8711 437.322 86.6177 437.322 84.5259C437.322 82.4424 438.31 81.1807 439.937 81.1807ZM451.31 77.7358V80.0518H449.866V81.2471H451.31V86.6758C451.31 88.3857 452.049 89.0664 453.892 89.0664C454.174 89.0664 454.448 89.0332 454.73 88.9834V87.7798C454.465 87.8047 454.324 87.813 454.066 87.813C453.137 87.813 452.738 87.3647 452.738 86.3105V81.2471H454.73V80.0518H452.738V77.7358H451.31ZM460.023 89.1577C462.571 89.1577 464.148 87.3979 464.148 84.5259C464.148 81.6455 462.571 79.894 460.023 79.894C457.475 79.894 455.898 81.6455 455.898 84.5259C455.898 87.3979 457.475 89.1577 460.023 89.1577ZM460.023 87.8711C458.33 87.8711 457.375 86.6426 457.375 84.5259C457.375 82.4009 458.33 81.1807 460.023 81.1807C461.716 81.1807 462.671 82.4009 462.671 84.5259C462.671 86.6426 461.716 87.8711 460.023 87.8711ZM259.025 111.158C261.573 111.158 263.15 109.398 263.15 106.526C263.15 103.646 261.573 101.894 259.025 101.894C256.476 101.894 254.899 103.646 254.899 106.526C254.899 109.398 256.476 111.158 259.025 111.158ZM259.025 109.871C257.331 109.871 256.377 108.643 256.377 106.526C256.377 104.401 257.331 103.181 259.025 103.181C260.718 103.181 261.673 104.401 261.673 106.526C261.673 108.643 260.718 109.871 259.025 109.871ZM265.579 111H267.007V103.247H269.057V102.052H267.007V101.097C267.007 100.118 267.438 99.6196 268.468 99.6196C268.725 99.6196 268.966 99.6279 269.14 99.6611V98.499C268.841 98.4409 268.526 98.416 268.177 98.416C266.475 98.416 265.579 99.271 265.579 101.056V102.052H264.093V103.247H265.579V111ZM271.328 111H272.756V103.247H274.806V102.052H272.756V101.097C272.756 100.118 273.188 99.6196 274.217 99.6196C274.474 99.6196 274.715 99.6279 274.889 99.6611V98.499C274.59 98.4409 274.275 98.416 273.926 98.416C272.225 98.416 271.328 99.271 271.328 101.056V102.052H269.842V103.247H271.328V111ZM282.025 108.684C281.651 109.473 280.871 109.896 279.717 109.896C278.198 109.896 277.21 108.775 277.135 107.007V106.941H283.569V106.393C283.569 103.612 282.099 101.894 279.684 101.894C277.227 101.894 275.65 103.72 275.65 106.534C275.65 109.365 277.202 111.158 279.684 111.158C281.643 111.158 283.037 110.211 283.452 108.684H282.025ZM279.667 103.156C281.087 103.156 282.033 104.202 282.066 105.787H277.135C277.243 104.202 278.239 103.156 279.667 103.156ZM285.4 111H286.828V105.455C286.828 104.193 287.815 103.28 289.177 103.28C289.459 103.28 289.974 103.33 290.09 103.363V101.936C289.907 101.911 289.608 101.894 289.376 101.894C288.189 101.894 287.16 102.508 286.894 103.38H286.761V102.052H285.4V111ZM296.616 114.237C298.201 114.237 298.915 113.623 299.679 111.548L303.174 102.052H301.655L299.206 109.415H299.073L296.616 102.052H295.072L298.384 111.008L298.218 111.54C297.844 112.619 297.396 113.009 296.574 113.009C296.375 113.009 296.151 113 295.977 112.967V114.188C296.176 114.221 296.425 114.237 296.616 114.237ZM308.018 111.158C310.566 111.158 312.143 109.398 312.143 106.526C312.143 103.646 310.566 101.894 308.018 101.894C305.47 101.894 303.892 103.646 303.892 106.526C303.892 109.398 305.47 111.158 308.018 111.158ZM308.018 109.871C306.325 109.871 305.37 108.643 305.37 106.526C305.37 104.401 306.325 103.181 308.018 103.181C309.711 103.181 310.666 104.401 310.666 106.526C310.666 108.643 309.711 109.871 308.018 109.871ZM321.213 102.052H319.785V107.348C319.785 108.917 318.922 109.854 317.345 109.854C315.917 109.854 315.319 109.107 315.319 107.497V102.052H313.892V107.846C313.892 109.962 314.938 111.158 316.946 111.158C318.316 111.158 319.271 110.593 319.719 109.597H319.852V111H321.213V102.052ZM330.37 111.158C331.566 111.158 332.545 110.635 333.126 109.68H333.259V111H334.62V104.874C334.62 103.015 333.4 101.894 331.217 101.894C329.308 101.894 327.897 102.84 327.706 104.276H329.15C329.349 103.571 330.097 103.164 331.167 103.164C332.504 103.164 333.193 103.77 333.193 104.874V105.688L330.611 105.845C328.528 105.97 327.349 106.891 327.349 108.493C327.349 110.128 328.636 111.158 330.37 111.158ZM330.636 109.904C329.598 109.904 328.827 109.373 328.827 108.46C328.827 107.563 329.424 107.09 330.785 106.999L333.193 106.841V107.663C333.193 108.941 332.105 109.904 330.636 109.904ZM341.321 111H342.749V105.704C342.749 104.193 343.629 103.181 345.231 103.181C346.584 103.181 347.298 103.969 347.298 105.555V111H348.725V105.206C348.725 103.106 347.53 101.894 345.637 101.894C344.268 101.894 343.33 102.475 342.882 103.463H342.749V98.499H341.321V111ZM353.412 111.158C354.607 111.158 355.587 110.635 356.168 109.68H356.301V111H357.662V104.874C357.662 103.015 356.442 101.894 354.259 101.894C352.349 101.894 350.938 102.84 350.747 104.276H352.192C352.391 103.571 353.138 103.164 354.209 103.164C355.545 103.164 356.234 103.77 356.234 104.874V105.688L353.653 105.845C351.569 105.97 350.39 106.891 350.39 108.493C350.39 110.128 351.677 111.158 353.412 111.158ZM353.678 109.904C352.64 109.904 351.868 109.373 351.868 108.46C351.868 107.563 352.466 107.09 353.827 106.999L356.234 106.841V107.663C356.234 108.941 355.147 109.904 353.678 109.904ZM359.892 111H361.319V105.704C361.319 104.135 362.241 103.181 363.668 103.181C365.096 103.181 365.777 103.944 365.777 105.555V111H367.205V105.206C367.205 103.081 366.084 101.894 364.075 101.894C362.706 101.894 361.834 102.475 361.386 103.463H361.253V102.052H359.892V111ZM372.721 111.158C373.958 111.158 375.021 110.568 375.585 109.572H375.718V111H377.079V98.499H375.652V103.463H375.527C375.021 102.483 373.966 101.894 372.721 101.894C370.447 101.894 368.961 103.72 368.961 106.526C368.961 109.34 370.43 111.158 372.721 111.158ZM373.053 103.181C374.672 103.181 375.685 104.476 375.685 106.526C375.685 108.593 374.68 109.871 373.053 109.871C371.418 109.871 370.439 108.618 370.439 106.526C370.439 104.442 371.426 103.181 373.053 103.181ZM379.234 104.5C379.234 105.795 379.998 106.518 381.675 106.924L383.21 107.298C384.165 107.53 384.63 107.945 384.63 108.56C384.63 109.381 383.766 109.954 382.563 109.954C381.417 109.954 380.703 109.473 380.463 108.717H378.993C379.151 110.203 380.521 111.158 382.513 111.158C384.547 111.158 386.099 110.054 386.099 108.452C386.099 107.165 385.285 106.435 383.6 106.028L382.222 105.696C381.168 105.438 380.67 105.057 380.67 104.442C380.67 103.646 381.5 103.106 382.563 103.106C383.642 103.106 384.339 103.579 384.53 104.293H385.941C385.75 102.824 384.447 101.894 382.571 101.894C380.67 101.894 379.234 103.015 379.234 104.5ZM393.857 108.684C393.483 109.473 392.703 109.896 391.549 109.896C390.03 109.896 389.042 108.775 388.968 107.007V106.941H395.401V106.393C395.401 103.612 393.932 101.894 391.516 101.894C389.059 101.894 387.482 103.72 387.482 106.534C387.482 109.365 389.034 111.158 391.516 111.158C393.475 111.158 394.87 110.211 395.285 108.684H393.857ZM391.499 103.156C392.919 103.156 393.865 104.202 393.898 105.787H388.968C389.076 104.202 390.072 103.156 391.499 103.156ZM397.83 99.7358V102.052H396.385V103.247H397.83V108.676C397.83 110.386 398.568 111.066 400.411 111.066C400.693 111.066 400.967 111.033 401.25 110.983V109.78C400.984 109.805 400.843 109.813 400.586 109.813C399.656 109.813 399.257 109.365 399.257 108.311V103.247H401.25V102.052H399.257V99.7358H397.83ZM414.624 102.052H413.196V107.348C413.196 108.917 412.333 109.854 410.756 109.854C409.328 109.854 408.73 109.107 408.73 107.497V102.052H407.303V107.846C407.303 109.962 408.349 111.158 410.357 111.158C411.727 111.158 412.682 110.593 413.13 109.597H413.263V111H414.624V102.052ZM421.261 101.894C420.041 101.894 418.97 102.517 418.398 103.546H418.265V102.052H416.903V113.988H418.331V109.655H418.464C418.954 110.602 419.983 111.158 421.261 111.158C423.536 111.158 425.022 109.323 425.022 106.526C425.022 103.712 423.544 101.894 421.261 101.894ZM420.921 109.871C419.311 109.871 418.29 108.576 418.29 106.526C418.29 104.467 419.311 103.181 420.929 103.181C422.565 103.181 423.544 104.434 423.544 106.526C423.544 108.618 422.565 109.871 420.921 109.871ZM430.538 114.437C432.979 114.437 434.523 113.158 434.523 111.158V102.052H433.161V103.471H433.029C432.514 102.508 431.41 101.894 430.157 101.894C427.857 101.894 426.405 103.712 426.405 106.393C426.405 109.074 427.841 110.867 430.157 110.867C431.385 110.867 432.398 110.311 432.962 109.323H433.095V111.083C433.095 112.403 432.14 113.191 430.538 113.191C429.252 113.191 428.455 112.718 428.297 111.988H426.786C427.002 113.465 428.38 114.437 430.538 114.437ZM430.472 109.605C428.812 109.605 427.882 108.344 427.882 106.393C427.882 104.442 428.812 103.181 430.472 103.181C432.124 103.181 433.128 104.442 433.128 106.393C433.128 108.344 432.132 109.605 430.472 109.605ZM436.802 111H438.23V105.455C438.23 104.193 439.218 103.28 440.579 103.28C440.861 103.28 441.376 103.33 441.492 103.363V101.936C441.31 101.911 441.011 101.894 440.778 101.894C439.591 101.894 438.562 102.508 438.296 103.38H438.164V102.052H436.802V111ZM445.357 111.158C446.552 111.158 447.532 110.635 448.113 109.68H448.246V111H449.607V104.874C449.607 103.015 448.387 101.894 446.204 101.894C444.295 101.894 442.883 102.84 442.692 104.276H444.137C444.336 103.571 445.083 103.164 446.154 103.164C447.49 103.164 448.179 103.77 448.179 104.874V105.688L445.598 105.845C443.514 105.97 442.336 106.891 442.336 108.493C442.336 110.128 443.622 111.158 445.357 111.158ZM445.623 109.904C444.585 109.904 443.813 109.373 443.813 108.46C443.813 107.563 444.411 107.09 445.772 106.999L448.179 106.841V107.663C448.179 108.941 447.092 109.904 445.623 109.904ZM455.149 111.158C456.385 111.158 457.448 110.568 458.012 109.572H458.145V111H459.507V98.499H458.079V103.463H457.954C457.448 102.483 456.394 101.894 455.149 101.894C452.874 101.894 451.388 103.72 451.388 106.526C451.388 109.34 452.858 111.158 455.149 111.158ZM455.481 103.181C457.099 103.181 458.112 104.476 458.112 106.526C458.112 108.593 457.108 109.871 455.481 109.871C453.845 109.871 452.866 108.618 452.866 106.526C452.866 104.442 453.854 103.181 455.481 103.181ZM467.796 108.684C467.422 109.473 466.642 109.896 465.488 109.896C463.969 109.896 462.981 108.775 462.907 107.007V106.941H469.34V106.393C469.34 103.612 467.871 101.894 465.455 101.894C462.998 101.894 461.421 103.72 461.421 106.534C461.421 109.365 462.973 111.158 465.455 111.158C467.414 111.158 468.809 110.211 469.224 108.684H467.796ZM465.438 103.156C466.858 103.156 467.804 104.202 467.837 105.787H462.907C463.015 104.202 464.011 103.156 465.438 103.156ZM266.603 124.052H265.167L263.407 131.207H263.275L261.274 124.052H259.905L257.904 131.207H257.771L256.011 124.052H254.567L257.074 133H258.518L260.51 126.077H260.643L262.644 133H264.096L266.603 124.052ZM268.85 122.325C269.397 122.325 269.846 121.877 269.846 121.329C269.846 120.781 269.397 120.333 268.85 120.333C268.302 120.333 267.853 120.781 267.853 121.329C267.853 121.877 268.302 122.325 268.85 122.325ZM268.136 133H269.563V124.052H268.136V133ZM272.474 121.736V124.052H271.029V125.247H272.474V130.676C272.474 132.386 273.212 133.066 275.055 133.066C275.337 133.066 275.611 133.033 275.894 132.983V131.78C275.628 131.805 275.487 131.813 275.23 131.813C274.3 131.813 273.901 131.365 273.901 130.311V125.247H275.894V124.052H273.901V121.736H272.474ZM277.725 133H279.153V127.704C279.153 126.193 280.032 125.181 281.635 125.181C282.988 125.181 283.701 125.969 283.701 127.555V133H285.129V127.206C285.129 125.106 283.934 123.894 282.041 123.894C280.672 123.894 279.734 124.475 279.285 125.463H279.153V120.499H277.725V133ZM292.477 136.237C294.063 136.237 294.776 135.623 295.54 133.548L299.035 124.052H297.516L295.067 131.415H294.934L292.477 124.052H290.933L294.245 133.008L294.079 133.54C293.706 134.619 293.257 135.009 292.436 135.009C292.236 135.009 292.012 135 291.838 134.967V136.188C292.037 136.221 292.286 136.237 292.477 136.237ZM303.879 133.158C306.427 133.158 308.005 131.398 308.005 128.526C308.005 125.646 306.427 123.894 303.879 123.894C301.331 123.894 299.754 125.646 299.754 128.526C299.754 131.398 301.331 133.158 303.879 133.158ZM303.879 131.871C302.186 131.871 301.231 130.643 301.231 128.526C301.231 126.401 302.186 125.181 303.879 125.181C305.572 125.181 306.527 126.401 306.527 128.526C306.527 130.643 305.572 131.871 303.879 131.871ZM317.074 124.052H315.646V129.348C315.646 130.917 314.783 131.854 313.206 131.854C311.778 131.854 311.181 131.107 311.181 129.497V124.052H309.753V129.846C309.753 131.962 310.799 133.158 312.807 133.158C314.177 133.158 315.132 132.593 315.58 131.597H315.713V133H317.074V124.052ZM319.354 133H320.781V127.455C320.781 126.193 321.769 125.28 323.13 125.28C323.413 125.28 323.927 125.33 324.043 125.363V123.936C323.861 123.911 323.562 123.894 323.33 123.894C322.143 123.894 321.113 124.508 320.848 125.38H320.715V124.052H319.354V133ZM329.806 133H331.234V127.704C331.234 126.135 332.155 125.181 333.583 125.181C335.011 125.181 335.691 125.944 335.691 127.555V133H337.119V127.206C337.119 125.081 335.998 123.894 333.99 123.894C332.62 123.894 331.748 124.475 331.3 125.463H331.167V124.052H329.806V133ZM345.25 130.684C344.877 131.473 344.097 131.896 342.943 131.896C341.424 131.896 340.436 130.775 340.361 129.007V128.941H346.794V128.393C346.794 125.612 345.325 123.894 342.91 123.894C340.453 123.894 338.875 125.72 338.875 128.534C338.875 131.365 340.428 133.158 342.91 133.158C344.869 133.158 346.263 132.211 346.678 130.684H345.25ZM342.893 125.156C344.313 125.156 345.259 126.202 345.292 127.787H340.361C340.469 126.202 341.465 125.156 342.893 125.156ZM359.882 124.052H358.445L356.686 131.207H356.553L354.552 124.052H353.183L351.182 131.207H351.049L349.29 124.052H347.845L350.352 133H351.797L353.789 126.077H353.922L355.922 133H357.375L359.882 124.052ZM370.126 123.894C368.906 123.894 367.835 124.517 367.263 125.546H367.13V124.052H365.769V135.988H367.196V131.655H367.329C367.819 132.602 368.848 133.158 370.126 133.158C372.401 133.158 373.887 131.323 373.887 128.526C373.887 125.712 372.409 123.894 370.126 123.894ZM369.786 131.871C368.176 131.871 367.155 130.576 367.155 128.526C367.155 126.467 368.176 125.181 369.794 125.181C371.43 125.181 372.409 126.434 372.409 128.526C372.409 130.618 371.43 131.871 369.786 131.871ZM375.801 133H377.229V120.499H375.801V133ZM382.081 133.158C383.277 133.158 384.256 132.635 384.837 131.68H384.97V133H386.331V126.874C386.331 125.015 385.111 123.894 382.928 123.894C381.019 123.894 379.608 124.84 379.417 126.276H380.861C381.06 125.571 381.807 125.164 382.878 125.164C384.215 125.164 384.904 125.77 384.904 126.874V127.688L382.322 127.845C380.239 127.97 379.06 128.891 379.06 130.493C379.06 132.128 380.346 133.158 382.081 133.158ZM382.347 131.904C381.309 131.904 380.537 131.373 380.537 130.46C380.537 129.563 381.135 129.09 382.496 128.999L384.904 128.841V129.663C384.904 130.941 383.816 131.904 382.347 131.904ZM388.561 133H389.989V127.704C389.989 126.135 390.91 125.181 392.338 125.181C393.766 125.181 394.446 125.944 394.446 127.555V133H395.874V127.206C395.874 125.081 394.753 123.894 392.745 123.894C391.375 123.894 390.503 124.475 390.055 125.463H389.922V124.052H388.561V133ZM399.257 133.083C399.855 133.083 400.337 132.593 400.337 132.004C400.337 131.406 399.855 130.925 399.257 130.925C398.668 130.925 398.178 131.406 398.178 132.004C398.178 132.593 398.668 133.083 399.257 133.083ZM407.286 121.022V133H408.78V128.725H411.793C414.043 128.725 415.645 127.14 415.645 124.898C415.645 122.616 414.076 121.022 411.81 121.022H407.286ZM408.78 122.35H411.42C413.155 122.35 414.109 123.255 414.109 124.898C414.109 126.484 413.122 127.397 411.42 127.397H408.78V122.35ZM417.584 133H419.012V120.499H417.584V133ZM427.301 130.684C426.928 131.473 426.147 131.896 424.993 131.896C423.474 131.896 422.487 130.775 422.412 129.007V128.941H428.845V128.393C428.845 125.612 427.376 123.894 424.96 123.894C422.503 123.894 420.926 125.72 420.926 128.534C420.926 131.365 422.478 133.158 424.96 133.158C426.919 133.158 428.314 132.211 428.729 130.684H427.301ZM424.944 125.156C426.363 125.156 427.309 126.202 427.343 127.787H422.412C422.52 126.202 423.516 125.156 424.944 125.156ZM433.166 133.158C434.362 133.158 435.341 132.635 435.922 131.68H436.055V133H437.416V126.874C437.416 125.015 436.196 123.894 434.013 123.894C432.104 123.894 430.693 124.84 430.502 126.276H431.946C432.145 125.571 432.893 125.164 433.963 125.164C435.3 125.164 435.989 125.77 435.989 126.874V127.688L433.407 127.845C431.324 127.97 430.145 128.891 430.145 130.493C430.145 132.128 431.432 133.158 433.166 133.158ZM433.432 131.904C432.394 131.904 431.622 131.373 431.622 130.46C431.622 129.563 432.22 129.09 433.581 128.999L435.989 128.841V129.663C435.989 130.941 434.901 131.904 433.432 131.904ZM439.439 126.5C439.439 127.795 440.202 128.518 441.879 128.924L443.415 129.298C444.369 129.53 444.834 129.945 444.834 130.56C444.834 131.381 443.971 131.954 442.767 131.954C441.622 131.954 440.908 131.473 440.667 130.717H439.198C439.356 132.203 440.725 133.158 442.717 133.158C444.751 133.158 446.303 132.054 446.303 130.452C446.303 129.165 445.49 128.435 443.805 128.028L442.427 127.696C441.373 127.438 440.875 127.057 440.875 126.442C440.875 125.646 441.705 125.106 442.767 125.106C443.846 125.106 444.544 125.579 444.734 126.293H446.146C445.955 124.824 444.651 123.894 442.775 123.894C440.875 123.894 439.439 125.015 439.439 126.5ZM454.061 130.684C453.688 131.473 452.907 131.896 451.754 131.896C450.235 131.896 449.247 130.775 449.172 129.007V128.941H455.605V128.393C455.605 125.612 454.136 123.894 451.72 123.894C449.263 123.894 447.686 125.72 447.686 128.534C447.686 131.365 449.239 133.158 451.72 133.158C453.679 133.158 455.074 132.211 455.489 130.684H454.061ZM451.704 125.156C453.123 125.156 454.07 126.202 454.103 127.787H449.172C449.28 126.202 450.276 125.156 451.704 125.156ZM255.945 155H257.373V147.247H259.423V146.052H257.373V145.097C257.373 144.118 257.804 143.62 258.834 143.62C259.091 143.62 259.332 143.628 259.506 143.661V142.499C259.207 142.441 258.892 142.416 258.543 142.416C256.842 142.416 255.945 143.271 255.945 145.056V146.052H254.459V147.247H255.945V155ZM264.392 155.158C266.94 155.158 268.517 153.398 268.517 150.526C268.517 147.646 266.94 145.894 264.392 145.894C261.844 145.894 260.267 147.646 260.267 150.526C260.267 153.398 261.844 155.158 264.392 155.158ZM264.392 153.871C262.699 153.871 261.744 152.643 261.744 150.526C261.744 148.401 262.699 147.181 264.392 147.181C266.085 147.181 267.04 148.401 267.04 150.526C267.04 152.643 266.085 153.871 264.392 153.871ZM270.432 155H271.859V142.499H270.432V155ZM274.305 155H275.733V142.499H274.305V155ZM281.772 155.158C284.321 155.158 285.898 153.398 285.898 150.526C285.898 147.646 284.321 145.894 281.772 145.894C279.224 145.894 277.647 147.646 277.647 150.526C277.647 153.398 279.224 155.158 281.772 155.158ZM281.772 153.871C280.079 153.871 279.124 152.643 279.124 150.526C279.124 148.401 280.079 147.181 281.772 147.181C283.466 147.181 284.42 148.401 284.42 150.526C284.42 152.643 283.466 153.871 281.772 153.871ZM298.653 146.052H297.217L295.457 153.207H295.324L293.324 146.052H291.954L289.954 153.207H289.821L288.061 146.052H286.617L289.124 155H290.568L292.56 148.077H292.693L294.693 155H296.146L298.653 146.052ZM305.138 143.736V146.052H303.693V147.247H305.138V152.676C305.138 154.386 305.876 155.066 307.719 155.066C308.001 155.066 308.275 155.033 308.557 154.983V153.78C308.292 153.805 308.151 153.813 307.893 153.813C306.964 153.813 306.565 153.365 306.565 152.311V147.247H308.557V146.052H306.565V143.736H305.138ZM310.389 155H311.816V149.704C311.816 148.193 312.696 147.181 314.298 147.181C315.651 147.181 316.365 147.969 316.365 149.555V155H317.793V149.206C317.793 147.106 316.598 145.894 314.705 145.894C313.335 145.894 312.397 146.475 311.949 147.463H311.816V142.499H310.389V155ZM325.916 152.684C325.543 153.473 324.762 153.896 323.609 153.896C322.09 153.896 321.102 152.775 321.027 151.007V150.941H327.46V150.393C327.46 147.612 325.991 145.894 323.575 145.894C321.118 145.894 319.541 147.72 319.541 150.534C319.541 153.365 321.093 155.158 323.575 155.158C325.534 155.158 326.929 154.211 327.344 152.684H325.916ZM323.559 147.156C324.978 147.156 325.924 148.202 325.958 149.787H321.027C321.135 148.202 322.131 147.156 323.559 147.156ZM333.472 148.5C333.472 149.795 334.235 150.518 335.912 150.924L337.448 151.298C338.402 151.53 338.867 151.945 338.867 152.56C338.867 153.381 338.004 153.954 336.8 153.954C335.655 153.954 334.941 153.473 334.7 152.717H333.231C333.389 154.203 334.758 155.158 336.75 155.158C338.784 155.158 340.336 154.054 340.336 152.452C340.336 151.165 339.523 150.435 337.838 150.028L336.46 149.696C335.406 149.438 334.908 149.057 334.908 148.442C334.908 147.646 335.738 147.106 336.8 147.106C337.879 147.106 338.577 147.579 338.768 148.293H340.179C339.988 146.824 338.685 145.894 336.809 145.894C334.908 145.894 333.472 147.015 333.472 148.5ZM348.094 152.684C347.721 153.473 346.941 153.896 345.787 153.896C344.268 153.896 343.28 152.775 343.205 151.007V150.941H349.638V150.393C349.638 147.612 348.169 145.894 345.754 145.894C343.297 145.894 341.719 147.72 341.719 150.534C341.719 153.365 343.272 155.158 345.754 155.158C347.713 155.158 349.107 154.211 349.522 152.684H348.094ZM345.737 147.156C347.156 147.156 348.103 148.202 348.136 149.787H343.205C343.313 148.202 344.309 147.156 345.737 147.156ZM358.874 148.791C358.625 147.197 357.297 145.894 355.122 145.894C352.615 145.894 351.021 147.704 351.021 150.493C351.021 153.34 352.623 155.158 355.13 155.158C357.28 155.158 358.617 153.946 358.874 152.302H357.43C357.164 153.315 356.326 153.871 355.122 153.871C353.528 153.871 352.499 152.56 352.499 150.493C352.499 148.467 353.512 147.181 355.122 147.181C356.409 147.181 357.197 147.903 357.43 148.791H358.874ZM367.811 146.052H366.383V151.348C366.383 152.917 365.52 153.854 363.942 153.854C362.515 153.854 361.917 153.107 361.917 151.497V146.052H360.489V151.846C360.489 153.962 361.535 155.158 363.544 155.158C364.914 155.158 365.868 154.593 366.316 153.597H366.449V155H367.811V146.052ZM370.09 155H371.518V149.455C371.518 148.193 372.506 147.28 373.867 147.28C374.149 147.28 374.664 147.33 374.78 147.363V145.936C374.597 145.911 374.298 145.894 374.066 145.894C372.879 145.894 371.85 146.508 371.584 147.38H371.451V146.052H370.09V155ZM381.832 152.684C381.459 153.473 380.679 153.896 379.525 153.896C378.006 153.896 377.018 152.775 376.943 151.007V150.941H383.376V150.393C383.376 147.612 381.907 145.894 379.492 145.894C377.034 145.894 375.457 147.72 375.457 150.534C375.457 153.365 377.01 155.158 379.492 155.158C381.451 155.158 382.845 154.211 383.26 152.684H381.832ZM379.475 147.156C380.894 147.156 381.841 148.202 381.874 149.787H376.943C377.051 148.202 378.047 147.156 379.475 147.156ZM389.678 155H391.106V142.499H389.678V155ZM394.216 144.325C394.763 144.325 395.212 143.877 395.212 143.329C395.212 142.781 394.763 142.333 394.216 142.333C393.668 142.333 393.22 142.781 393.22 143.329C393.22 143.877 393.668 144.325 394.216 144.325ZM393.502 155H394.929V146.052H393.502V155ZM397.242 155H398.67V149.704C398.67 148.135 399.591 147.181 401.019 147.181C402.447 147.181 403.127 147.944 403.127 149.555V155H404.555V149.206C404.555 147.081 403.435 145.894 401.426 145.894C400.056 145.894 399.185 146.475 398.736 147.463H398.603V146.052H397.242V155ZM408.403 149.961H408.271V142.499H406.843V155H408.271V151.605L409.126 150.808L412.479 155H414.297L410.188 149.887L414.04 146.052H412.288L408.403 149.961ZM420.566 143.736V146.052H419.122V147.247H420.566V152.676C420.566 154.386 421.305 155.066 423.147 155.066C423.43 155.066 423.704 155.033 423.986 154.983V153.78C423.72 153.805 423.579 153.813 423.322 153.813C422.392 153.813 421.994 153.365 421.994 152.311V147.247H423.986V146.052H421.994V143.736H420.566ZM429.278 155.158C431.827 155.158 433.404 153.398 433.404 150.526C433.404 147.646 431.827 145.894 429.278 145.894C426.73 145.894 425.153 147.646 425.153 150.526C425.153 153.398 426.73 155.158 429.278 155.158ZM429.278 153.871C427.585 153.871 426.63 152.643 426.63 150.526C426.63 148.401 427.585 147.181 429.278 147.181C430.972 147.181 431.926 148.401 431.926 150.526C431.926 152.643 430.972 153.871 429.278 153.871ZM255.347 177H256.775V171.455C256.775 170.193 257.68 169.181 258.85 169.181C259.979 169.181 260.718 169.861 260.718 170.924V177H262.146V171.248C262.146 170.11 262.976 169.181 264.221 169.181C265.483 169.181 266.105 169.828 266.105 171.148V177H267.533V170.816C267.533 168.94 266.512 167.894 264.686 167.894C263.449 167.894 262.428 168.517 261.947 169.463H261.814C261.399 168.533 260.552 167.894 259.34 167.894C258.145 167.894 257.248 168.467 256.842 169.463H256.709V168.052H255.347V177ZM272.22 177.158C273.415 177.158 274.394 176.635 274.975 175.68H275.108V177H276.47V170.874C276.47 169.015 275.249 167.894 273.066 167.894C271.157 167.894 269.746 168.84 269.555 170.276H270.999C271.199 169.571 271.946 169.164 273.017 169.164C274.353 169.164 275.042 169.77 275.042 170.874V171.688L272.46 171.845C270.377 171.97 269.198 172.891 269.198 174.493C269.198 176.128 270.485 177.158 272.22 177.158ZM272.485 175.904C271.448 175.904 270.676 175.373 270.676 174.46C270.676 173.563 271.273 173.09 272.635 172.999L275.042 172.841V173.663C275.042 174.941 273.955 175.904 272.485 175.904ZM280.343 171.961H280.21V164.499H278.782V177H280.21V173.605L281.065 172.808L284.419 177H286.236L282.128 171.887L285.979 168.052H284.228L280.343 171.961ZM293.031 174.684C292.658 175.473 291.878 175.896 290.724 175.896C289.205 175.896 288.217 174.775 288.142 173.007V172.941H294.575V172.393C294.575 169.612 293.106 167.894 290.691 167.894C288.234 167.894 286.656 169.72 286.656 172.534C286.656 175.365 288.209 177.158 290.691 177.158C292.65 177.158 294.044 176.211 294.459 174.684H293.031ZM290.674 169.156C292.093 169.156 293.04 170.202 293.073 171.787H288.142C288.25 170.202 289.246 169.156 290.674 169.156ZM305.152 167.894C303.932 167.894 302.861 168.517 302.289 169.546H302.156V168.052H300.794V179.988H302.222V175.655H302.355C302.845 176.602 303.874 177.158 305.152 177.158C307.427 177.158 308.913 175.323 308.913 172.526C308.913 169.712 307.435 167.894 305.152 167.894ZM304.812 175.871C303.202 175.871 302.181 174.576 302.181 172.526C302.181 170.467 303.202 169.181 304.82 169.181C306.456 169.181 307.435 170.434 307.435 172.526C307.435 174.618 306.456 175.871 304.812 175.871ZM313.234 177.158C314.429 177.158 315.409 176.635 315.99 175.68H316.123V177H317.484V170.874C317.484 169.015 316.264 167.894 314.081 167.894C312.172 167.894 310.76 168.84 310.57 170.276H312.014C312.213 169.571 312.96 169.164 314.031 169.164C315.367 169.164 316.056 169.77 316.056 170.874V171.688L313.475 171.845C311.391 171.97 310.213 172.891 310.213 174.493C310.213 176.128 311.499 177.158 313.234 177.158ZM313.5 175.904C312.462 175.904 311.69 175.373 311.69 174.46C311.69 173.563 312.288 173.09 313.649 172.999L316.056 172.841V173.663C316.056 174.941 314.969 175.904 313.5 175.904ZM320.145 180.237C321.731 180.237 322.445 179.623 323.208 177.548L326.703 168.052H325.184L322.735 175.415H322.602L320.145 168.052H318.601L321.913 177.008L321.747 177.54C321.374 178.619 320.926 179.009 320.104 179.009C319.905 179.009 319.681 179 319.506 178.967V180.188C319.705 180.221 319.954 180.237 320.145 180.237ZM328.202 177H329.63V171.455C329.63 170.193 330.535 169.181 331.705 169.181C332.834 169.181 333.573 169.861 333.573 170.924V177H335.001V171.248C335.001 170.11 335.831 169.181 337.076 169.181C338.337 169.181 338.96 169.828 338.96 171.148V177H340.388V170.816C340.388 168.94 339.367 167.894 337.541 167.894C336.304 167.894 335.283 168.517 334.801 169.463H334.668C334.253 168.533 333.407 167.894 332.195 167.894C331 167.894 330.103 168.467 329.696 169.463H329.564V168.052H328.202V177ZM348.511 174.684C348.137 175.473 347.357 175.896 346.203 175.896C344.684 175.896 343.696 174.775 343.622 173.007V172.941H350.055V172.393C350.055 169.612 348.586 167.894 346.17 167.894C343.713 167.894 342.136 169.72 342.136 172.534C342.136 175.365 343.688 177.158 346.17 177.158C348.129 177.158 349.524 176.211 349.939 174.684H348.511ZM346.154 169.156C347.573 169.156 348.519 170.202 348.552 171.787H343.622C343.73 170.202 344.726 169.156 346.154 169.156ZM351.886 177H353.314V171.704C353.314 170.135 354.235 169.181 355.663 169.181C357.091 169.181 357.771 169.944 357.771 171.555V177H359.199V171.206C359.199 169.081 358.078 167.894 356.07 167.894C354.7 167.894 353.828 168.475 353.38 169.463H353.247V168.052H351.886V177ZM362.001 165.736V168.052H360.557V169.247H362.001V174.676C362.001 176.386 362.74 177.066 364.583 177.066C364.865 177.066 365.139 177.033 365.421 176.983V175.78C365.156 175.805 365.015 175.813 364.757 175.813C363.828 175.813 363.429 175.365 363.429 174.311V169.247H365.421V168.052H363.429V165.736H362.001ZM368.348 177.083C368.946 177.083 369.427 176.593 369.427 176.004C369.427 175.406 368.946 174.925 368.348 174.925C367.759 174.925 367.269 175.406 367.269 176.004C367.269 176.593 367.759 177.083 368.348 177.083ZM380.984 177V166.367H384.844V165.022H375.63V166.367H379.49V177H380.984ZM386.642 177H388.069V171.704C388.069 170.193 388.949 169.181 390.551 169.181C391.904 169.181 392.618 169.969 392.618 171.555V177H394.046V171.206C394.046 169.106 392.851 167.894 390.958 167.894C389.589 167.894 388.651 168.475 388.202 169.463H388.069V164.499H386.642V177ZM398.733 177.158C399.928 177.158 400.908 176.635 401.489 175.68H401.621V177H402.983V170.874C402.983 169.015 401.763 167.894 399.579 167.894C397.67 167.894 396.259 168.84 396.068 170.276H397.513C397.712 169.571 398.459 169.164 399.53 169.164C400.866 169.164 401.555 169.77 401.555 170.874V171.688L398.973 171.845C396.89 171.97 395.711 172.891 395.711 174.493C395.711 176.128 396.998 177.158 398.733 177.158ZM398.998 175.904C397.961 175.904 397.189 175.373 397.189 174.46C397.189 173.563 397.786 173.09 399.148 172.999L401.555 172.841V173.663C401.555 174.941 400.468 175.904 398.998 175.904ZM405.212 177H406.64V171.704C406.64 170.135 407.561 169.181 408.989 169.181C410.417 169.181 411.098 169.944 411.098 171.555V177H412.525V171.206C412.525 169.081 411.405 167.894 409.396 167.894C408.026 167.894 407.155 168.475 406.707 169.463H406.574V168.052H405.212V177ZM416.374 171.961H416.241V164.499H414.813V177H416.241V173.605L417.096 172.808L420.449 177H422.267L418.158 171.887L422.01 168.052H420.258L416.374 171.961ZM428.702 180.237C430.288 180.237 431.001 179.623 431.765 177.548L435.26 168.052H433.741L431.292 175.415H431.159L428.702 168.052H427.158L430.47 177.008L430.304 177.54C429.931 178.619 429.482 179.009 428.661 179.009C428.461 179.009 428.237 179 428.063 178.967V180.188C428.262 180.221 428.511 180.237 428.702 180.237ZM440.104 177.158C442.652 177.158 444.23 175.398 444.23 172.526C444.23 169.646 442.652 167.894 440.104 167.894C437.556 167.894 435.979 169.646 435.979 172.526C435.979 175.398 437.556 177.158 440.104 177.158ZM440.104 175.871C438.411 175.871 437.456 174.643 437.456 172.526C437.456 170.401 438.411 169.181 440.104 169.181C441.797 169.181 442.752 170.401 442.752 172.526C442.752 174.643 441.797 175.871 440.104 175.871ZM453.299 168.052H451.871V173.348C451.871 174.917 451.008 175.854 449.431 175.854C448.003 175.854 447.406 175.107 447.406 173.497V168.052H445.978V173.846C445.978 175.962 447.024 177.158 449.032 177.158C450.402 177.158 451.357 176.593 451.805 175.597H451.938V177H453.299V168.052ZM456.757 177.083C457.355 177.083 457.836 176.593 457.836 176.004C457.836 175.406 457.355 174.925 456.757 174.925C456.168 174.925 455.678 175.406 455.678 176.004C455.678 176.593 456.168 177.083 456.757 177.083Z" fill="white"/>
<path fill-rule="evenodd" clip-rule="evenodd" d="M468.5 217C468.5 207.611 460.889 200 451.5 200H220C210.611 200 203 207.611 203 217V368.5C203 377.889 210.611 385.5 220 385.5H451.5C460.889 385.5 468.5 377.889 468.5 368.5V217ZM197 385.5C200.4 384.167 202.975 380.867 203 377L203 367.5L203 368.504C203 374.076 205.684 379.021 209.827 382.121C206.086 384.247 201.604 385.471 197 385.5Z" fill="#E5E6EA"/>
<mask id="mask0_2432_20172" style="mask-type:alpha" maskUnits="userSpaceOnUse" x="203" y="200" width="266" height="138">
<path fill-rule="evenodd" clip-rule="evenodd" d="M203 217C203 207.611 210.611 200 220 200H451.5C460.889 200 468.5 207.611 468.5 217V337.5H203L203 217Z" fill="#24A768"/>
</mask>
<g mask="url(#mask0_2432_20172)">
<path fill-rule="evenodd" clip-rule="evenodd" d="M203 217C203 207.611 210.611 200 220 200H451.5C460.889 200 468.5 207.611 468.5 217V337.5H203L203 217Z" fill="#FAFAFA"/>
<path d="M274.961 265.409C274.961 264.215 274.528 263.207 273.849 262.466C272.923 261.478 271.524 260.923 270.042 260.923H266.008C265.453 260.923 265 261.396 265 261.952V274.773C265 275.349 265.453 275.802 266.029 275.802C266.605 275.802 267.058 275.349 267.058 274.773V269.854H270.042C271.75 269.854 273.047 269.278 273.87 268.372C274.59 267.57 274.961 266.561 274.961 265.409ZM272.985 265.368C272.985 266.047 272.841 266.706 272.388 267.199C271.956 267.673 271.215 268.002 269.98 268.002H267.058V262.775H269.939C271.092 262.775 271.874 263.186 272.388 263.763C272.779 264.236 272.985 264.792 272.985 265.368Z" fill="#1D1D1D"/>
<path d="M284.549 274.443V274.835C284.549 275.37 284.981 275.802 285.516 275.802C286.052 275.802 286.484 275.37 286.484 274.835V265.718C286.484 265.183 286.052 264.75 285.516 264.75C284.981 264.75 284.549 265.183 284.549 265.718V266.026C283.85 265.08 282.779 264.648 281.709 264.648C279.096 264.648 277.099 266.911 277.099 270.286C277.099 273.682 279.116 275.905 281.73 275.905C282.923 275.905 283.932 275.37 284.549 274.443ZM281.792 274.258C280.186 274.258 279.013 272.777 279.013 270.286C279.013 267.817 280.186 266.294 281.792 266.294C283.356 266.294 284.57 267.817 284.57 270.286C284.57 272.777 283.356 274.258 281.792 274.258Z" fill="#1D1D1D"/>
<path d="M292.966 277.139C292.698 277.86 292.369 278.251 291.772 278.251C291.361 278.251 291.011 278.066 290.723 277.819C290.537 277.674 290.332 277.592 290.105 277.592C289.611 277.592 289.241 277.983 289.241 278.457C289.241 278.765 289.406 279.012 289.591 279.197C290.167 279.732 290.887 280 291.793 280C292.986 280 293.974 279.321 294.448 278.127L299.263 266.15C299.325 266.006 299.366 265.862 299.366 265.718C299.366 265.183 298.934 264.75 298.399 264.75C298.049 264.75 297.679 264.915 297.535 265.286L294.839 272.262C294.736 272.53 294.53 273.168 294.468 273.394H294.427C294.365 273.168 294.159 272.53 294.057 272.262L291.381 265.327C291.278 265.059 290.97 264.75 290.496 264.75C289.961 264.75 289.529 265.183 289.529 265.718C289.529 265.903 289.591 266.068 289.632 266.17L293.316 275.267C293.377 275.411 293.46 275.472 293.583 275.514L292.966 277.139Z" fill="#1D1D1D"/>
<path d="M313.683 264.648C312.53 264.648 311.563 265.183 310.843 266.047V261.89C310.843 261.355 310.411 260.923 309.876 260.923C309.34 260.923 308.908 261.355 308.908 261.89V274.835C308.908 275.37 309.34 275.802 309.876 275.802C310.411 275.802 310.843 275.37 310.843 274.835V274.588C311.481 275.328 312.407 275.905 313.806 275.905C316.379 275.905 318.293 273.62 318.293 270.286C318.293 266.891 316.276 264.648 313.683 264.648ZM313.6 274.258C312.036 274.258 310.822 272.777 310.822 270.286C310.822 267.817 312.036 266.294 313.6 266.294C315.206 266.294 316.379 267.817 316.379 270.286C316.379 272.777 315.206 274.258 313.6 274.258Z" fill="#1D1D1D"/>
<path d="M323.956 277.139C323.688 277.86 323.359 278.251 322.762 278.251C322.351 278.251 322.001 278.066 321.713 277.819C321.527 277.674 321.322 277.592 321.095 277.592C320.601 277.592 320.231 277.983 320.231 278.457C320.231 278.765 320.396 279.012 320.581 279.197C321.157 279.732 321.877 280 322.783 280C323.976 280 324.964 279.321 325.438 278.127L330.253 266.15C330.315 266.006 330.356 265.862 330.356 265.718C330.356 265.183 329.924 264.75 329.389 264.75C329.039 264.75 328.669 264.915 328.525 265.286L325.829 272.262C325.726 272.53 325.52 273.168 325.458 273.394H325.417C325.355 273.168 325.15 272.53 325.047 272.262L322.371 265.327C322.268 265.059 321.96 264.75 321.486 264.75C320.951 264.75 320.519 265.183 320.519 265.718C320.519 265.903 320.581 266.068 320.622 266.17L324.306 275.267C324.367 275.411 324.45 275.472 324.573 275.514L323.956 277.139Z" fill="#1D1D1D"/>
<path d="M350.826 271.336C350.826 269.587 349.838 268.27 348.521 267.714C349.386 267.097 350.126 266.191 350.126 264.833C350.126 263.639 349.674 262.672 348.933 261.993C348.171 261.273 347.101 260.923 345.496 260.923H341.113C340.536 260.923 340.084 261.375 340.084 261.952V274.773C340.084 275.328 340.536 275.802 341.092 275.802H345.702C348.995 275.802 350.826 273.847 350.826 271.336ZM348.089 264.874C348.089 266.068 347.492 266.952 345.702 266.952H342.142V262.775H345.434C347.225 262.775 348.089 263.577 348.089 264.874ZM348.706 271.357C348.706 272.9 347.616 273.95 345.743 273.95H342.142V268.764H345.825C347.78 268.764 348.706 269.751 348.706 271.357Z" fill="#1D1D1D"/>
<path d="M361.14 274.443V274.835C361.14 275.37 361.572 275.802 362.107 275.802C362.642 275.802 363.075 275.37 363.075 274.835V265.718C363.075 265.183 362.642 264.75 362.107 264.75C361.572 264.75 361.14 265.183 361.14 265.718V266.026C360.44 265.08 359.37 264.648 358.3 264.648C355.687 264.648 353.69 266.911 353.69 270.286C353.69 273.682 355.707 275.905 358.321 275.905C359.514 275.905 360.523 275.37 361.14 274.443ZM358.382 274.258C356.777 274.258 355.604 272.777 355.604 270.286C355.604 267.817 356.777 266.294 358.382 266.294C359.947 266.294 361.161 267.817 361.161 270.286C361.161 272.777 359.947 274.258 358.382 274.258Z" fill="#1D1D1D"/>
<path d="M369.125 265.718C369.125 265.183 368.692 264.75 368.157 264.75C367.622 264.75 367.19 265.183 367.19 265.718V274.835C367.19 275.37 367.622 275.802 368.157 275.802C368.692 275.802 369.125 275.37 369.125 274.835V269.216C369.125 268.702 369.227 268.105 369.516 267.652C370.009 266.829 370.997 266.397 371.882 266.397C372.87 266.397 373.529 266.87 373.776 267.57C373.899 267.92 373.94 268.537 373.94 269.031V274.835C373.94 275.37 374.372 275.802 374.907 275.802C375.443 275.802 375.875 275.37 375.875 274.835V268.928C375.875 267.961 375.792 267.014 375.34 266.253C374.661 265.1 373.405 264.648 372.253 264.648C370.915 264.648 369.783 265.203 369.125 265.965V265.718Z" fill="#1D1D1D"/>
<path d="M387.876 266.5C388.103 266.294 388.268 266.006 388.268 265.697C388.268 265.162 387.815 264.75 387.321 264.75C387.053 264.75 386.806 264.874 386.621 265.059L381.847 269.834V261.89C381.847 261.355 381.414 260.923 380.879 260.923C380.344 260.923 379.912 261.355 379.912 261.89V274.835C379.912 275.37 380.344 275.802 380.879 275.802C381.414 275.802 381.847 275.37 381.847 274.835V272.283L383.287 270.904L386.868 275.472C387.094 275.761 387.383 275.843 387.609 275.843C388.123 275.843 388.556 275.411 388.556 274.896C388.556 274.629 388.432 274.402 388.268 274.197L384.584 269.669L387.876 266.5Z" fill="#1D1D1D"/>
<path d="M406.247 262.595C406.247 261.166 405.081 260 403.623 260C402.194 260 401.028 261.166 401.028 262.595C401.028 264.052 402.194 265.219 403.623 265.219C405.081 265.219 406.247 264.052 406.247 262.595ZM406.247 273.353C406.247 271.895 405.081 270.729 403.623 270.729C402.194 270.729 401.028 271.895 401.028 273.353C401.028 274.781 402.194 275.948 403.623 275.948C405.081 275.948 406.247 274.781 406.247 273.353Z" fill="#1D1D1D"/>
</g>
<path d="M220.086 348.693V357.5H221.661V354.589H223.572C225.354 354.589 226.599 353.398 226.599 351.659C226.599 349.889 225.396 348.693 223.639 348.693H220.086ZM221.661 349.98H223.224C224.359 349.98 225 350.566 225 351.659C225 352.721 224.341 353.319 223.218 353.319H221.661V349.98ZM227.939 357.5H229.453V348.247H227.939V357.5ZM235.42 355.675C235.2 356.176 234.681 356.456 233.931 356.456C232.936 356.456 232.295 355.748 232.258 354.619V354.54H236.921V354.058C236.921 351.964 235.78 350.701 233.876 350.701C231.941 350.701 230.738 352.05 230.738 354.192C230.738 356.328 231.922 357.634 233.888 357.634C235.462 357.634 236.579 356.877 236.854 355.675H235.42ZM233.869 351.879C234.779 351.879 235.377 352.52 235.408 353.533H232.264C232.331 352.532 232.966 351.879 233.869 351.879ZM239.977 357.61C240.849 357.61 241.582 357.231 241.954 356.584H242.058V357.5H243.517V352.941C243.517 351.531 242.552 350.701 240.837 350.701C239.25 350.701 238.146 351.445 238.024 352.611H239.452C239.592 352.153 240.068 351.903 240.764 351.903C241.582 351.903 242.021 352.275 242.021 352.941V353.514L240.3 353.618C238.677 353.71 237.767 354.412 237.767 355.608C237.767 356.829 238.689 357.61 239.977 357.61ZM240.422 356.444C239.751 356.444 239.269 356.108 239.269 355.535C239.269 354.979 239.665 354.668 240.514 354.613L242.021 354.509V355.052C242.021 355.846 241.338 356.444 240.422 356.444ZM244.888 352.733C244.888 353.734 245.492 354.32 246.774 354.613L247.958 354.888C248.592 355.034 248.879 355.278 248.879 355.657C248.879 356.163 248.348 356.511 247.585 356.511C246.829 356.511 246.359 356.206 246.212 355.712H244.717C244.833 356.914 245.882 357.634 247.549 357.634C249.215 357.634 250.393 356.786 250.393 355.51C250.393 354.528 249.801 353.984 248.525 353.691L247.347 353.429C246.676 353.27 246.359 353.032 246.359 352.654C246.359 352.159 246.877 351.824 247.567 351.824C248.275 351.824 248.721 352.129 248.83 352.599H250.253C250.143 351.396 249.148 350.701 247.561 350.701C245.986 350.701 244.888 351.537 244.888 352.733ZM255.975 355.675C255.756 356.176 255.237 356.456 254.486 356.456C253.491 356.456 252.85 355.748 252.814 354.619V354.54H257.477V354.058C257.477 351.964 256.335 350.701 254.431 350.701C252.496 350.701 251.294 352.05 251.294 354.192C251.294 356.328 252.478 357.634 254.443 357.634C256.018 357.634 257.135 356.877 257.41 355.675H255.975ZM254.425 351.879C255.334 351.879 255.933 352.52 255.963 353.533H252.82C252.887 352.532 253.522 351.879 254.425 351.879ZM261.885 348.693V357.5H263.46V354.589H265.37C267.152 354.589 268.397 353.398 268.397 351.659C268.397 349.889 267.195 348.693 265.437 348.693H261.885ZM263.46 349.98H265.022C266.157 349.98 266.798 350.566 266.798 351.659C266.798 352.721 266.139 353.319 265.016 353.319H263.46V349.98ZM271.27 357.61C272.142 357.61 272.875 357.231 273.247 356.584H273.351V357.5H274.81V352.941C274.81 351.531 273.845 350.701 272.13 350.701C270.543 350.701 269.439 351.445 269.317 352.611H270.745C270.885 352.153 271.361 351.903 272.057 351.903C272.875 351.903 273.314 352.275 273.314 352.941V353.514L271.593 353.618C269.97 353.71 269.06 354.412 269.06 355.608C269.06 356.829 269.982 357.61 271.27 357.61ZM271.715 356.444C271.044 356.444 270.562 356.108 270.562 355.535C270.562 354.979 270.958 354.668 271.807 354.613L273.314 354.509V355.052C273.314 355.846 272.631 356.444 271.715 356.444ZM276.858 359.917C278.353 359.917 279.068 359.374 279.635 357.732L282.046 350.829H280.447L278.891 356.066H278.787L277.224 350.829H275.564L277.951 357.524L277.871 357.836C277.676 358.464 277.316 358.708 276.675 358.708C276.571 358.708 276.345 358.702 276.26 358.69V359.893C276.358 359.911 276.767 359.917 276.858 359.917ZM285.838 355.114C285.917 356.707 287.254 357.72 289.274 357.72C291.41 357.72 292.735 356.658 292.735 354.949C292.735 353.612 291.984 352.867 290.196 352.458L289.182 352.227C288.09 351.97 287.644 351.622 287.644 351.018C287.644 350.255 288.316 349.755 289.329 349.755C290.293 349.755 290.977 350.249 291.087 351.036H292.594C292.521 349.529 291.184 348.473 289.335 348.473C287.364 348.473 286.057 349.535 286.057 351.122C286.057 352.428 286.808 353.215 288.407 353.582L289.549 353.844C290.678 354.106 291.16 354.497 291.16 355.138C291.16 355.889 290.409 356.432 289.372 356.432C288.255 356.432 287.473 355.919 287.376 355.114H285.838ZM294.044 357.5H295.558V353.441C295.558 352.611 296.114 351.982 296.864 351.982C297.609 351.982 298.073 352.434 298.073 353.173V357.5H299.544V353.331C299.544 352.568 300.063 351.982 300.85 351.982C301.662 351.982 302.071 352.416 302.071 353.282V357.5H303.578V352.91C303.578 351.525 302.772 350.701 301.436 350.701C300.508 350.701 299.739 351.177 299.409 351.903H299.306C299.025 351.165 298.384 350.701 297.462 350.701C296.577 350.701 295.894 351.152 295.607 351.903H295.503V350.829H294.044V357.5ZM306.908 357.61C307.781 357.61 308.513 357.231 308.886 356.584H308.99V357.5H310.448V352.941C310.448 351.531 309.484 350.701 307.769 350.701C306.182 350.701 305.077 351.445 304.955 352.611H306.383C306.524 352.153 307 351.903 307.696 351.903C308.513 351.903 308.953 352.275 308.953 352.941V353.514L307.232 353.618C305.608 353.71 304.699 354.412 304.699 355.608C304.699 356.829 305.62 357.61 306.908 357.61ZM307.354 356.444C306.682 356.444 306.2 356.108 306.2 355.535C306.2 354.979 306.597 354.668 307.445 354.613L308.953 354.509V355.052C308.953 355.846 308.269 356.444 307.354 356.444ZM311.972 357.5H313.485V353.624C313.485 352.684 314.169 352.074 315.152 352.074C315.408 352.074 315.811 352.117 315.927 352.159V350.78C315.786 350.743 315.518 350.719 315.298 350.719C314.438 350.719 313.717 351.207 313.534 351.866H313.431V350.829H311.972V357.5ZM317.658 349.193V350.872H316.602V352.05H317.658V355.73C317.658 357.018 318.268 357.531 319.8 357.531C320.093 357.531 320.374 357.506 320.594 357.463V356.304C320.411 356.322 320.295 356.334 320.081 356.334C319.446 356.334 319.165 356.035 319.165 355.37V352.05H320.594V350.872H319.165V349.193H317.658ZM321.965 348.693V357.5H323.539V354.589H325.45C327.232 354.589 328.477 353.398 328.477 351.659C328.477 349.889 327.275 348.693 325.517 348.693H321.965ZM323.539 349.98H325.102C326.237 349.98 326.878 350.566 326.878 351.659C326.878 352.721 326.219 353.319 325.096 353.319H323.539V349.98ZM329.817 357.5H331.331V353.624C331.331 352.648 331.886 351.995 332.881 351.995C333.76 351.995 334.224 352.52 334.224 353.551V357.5H335.738V353.197C335.738 351.61 334.871 350.707 333.443 350.707C332.448 350.707 331.734 351.158 331.417 351.909H331.307V348.247H329.817V357.5ZM340.112 357.634C342.107 357.634 343.322 356.328 343.322 354.161C343.322 352.007 342.101 350.701 340.112 350.701C338.128 350.701 336.901 352.013 336.901 354.161C336.901 356.328 338.11 357.634 340.112 357.634ZM340.112 356.395C339.056 356.395 338.451 355.577 338.451 354.167C338.451 352.758 339.056 351.94 340.112 351.94C341.161 351.94 341.766 352.758 341.766 354.167C341.766 355.577 341.168 356.395 340.112 356.395ZM344.546 357.5H346.06V353.612C346.06 352.611 346.628 351.982 347.531 351.982C348.453 351.982 348.88 352.501 348.88 353.539V357.5H350.394V353.185C350.394 351.598 349.582 350.701 348.093 350.701C347.098 350.701 346.426 351.152 346.109 351.897H346.005V350.829H344.546V357.5ZM356.238 355.675C356.019 356.176 355.5 356.456 354.749 356.456C353.754 356.456 353.113 355.748 353.077 354.619V354.54H357.74V354.058C357.74 351.964 356.599 350.701 354.694 350.701C352.759 350.701 351.557 352.05 351.557 354.192C351.557 356.328 352.741 357.634 354.706 357.634C356.281 357.634 357.398 356.877 357.673 355.675H356.238ZM354.688 351.879C355.598 351.879 356.196 352.52 356.226 353.533H353.083C353.15 352.532 353.785 351.879 354.688 351.879ZM365.822 357.72C367.855 357.72 369.344 356.517 369.551 354.735H368.001C367.788 355.724 366.939 356.353 365.822 356.353C364.321 356.353 363.387 355.101 363.387 353.093C363.387 351.091 364.321 349.84 365.816 349.84C366.927 349.84 367.775 350.53 367.995 351.592H369.545C369.362 349.767 367.818 348.473 365.816 348.473C363.32 348.473 361.776 350.237 361.776 353.099C361.776 355.95 363.326 357.72 365.822 357.72ZM373.724 357.634C375.72 357.634 376.934 356.328 376.934 354.161C376.934 352.007 375.714 350.701 373.724 350.701C371.74 350.701 370.513 352.013 370.513 354.161C370.513 356.328 371.722 357.634 373.724 357.634ZM373.724 356.395C372.668 356.395 372.064 355.577 372.064 354.167C372.064 352.758 372.668 351.94 373.724 351.94C374.774 351.94 375.378 352.758 375.378 354.167C375.378 355.577 374.78 356.395 373.724 356.395ZM379.129 357.622C379.709 357.622 380.106 357.213 380.106 356.67C380.106 356.133 379.709 355.724 379.129 355.724C378.555 355.724 378.153 356.133 378.153 356.67C378.153 357.213 378.555 357.622 379.129 357.622Z" fill="black"/>
<path d="M225.433 367.935C225.25 366.763 224.273 365.804 222.674 365.804C220.831 365.804 219.659 367.135 219.659 369.186C219.659 371.279 220.837 372.616 222.68 372.616C224.261 372.616 225.244 371.725 225.433 370.516H224.371C224.176 371.261 223.559 371.67 222.674 371.67C221.502 371.67 220.746 370.706 220.746 369.186C220.746 367.697 221.49 366.75 222.674 366.75C223.62 366.75 224.2 367.281 224.371 367.935H225.433ZM226.743 372.5H227.793V368.606C227.793 367.495 228.44 366.75 229.618 366.75C230.613 366.75 231.137 367.33 231.137 368.496V372.5H232.187V368.24C232.187 366.696 231.308 365.804 229.917 365.804C228.91 365.804 228.22 366.232 227.89 366.958H227.793V363.308H226.743V372.5ZM238.16 370.797C237.886 371.377 237.312 371.688 236.463 371.688C235.347 371.688 234.62 370.864 234.565 369.564V369.515H239.295V369.113C239.295 367.068 238.215 365.804 236.439 365.804C234.632 365.804 233.473 367.147 233.473 369.216C233.473 371.298 234.614 372.616 236.439 372.616C237.879 372.616 238.905 371.92 239.21 370.797H238.16ZM236.427 366.732C237.471 366.732 238.166 367.501 238.191 368.667H234.565C234.645 367.501 235.377 366.732 236.427 366.732ZM246.086 367.935C245.903 366.763 244.927 365.804 243.328 365.804C241.484 365.804 240.312 367.135 240.312 369.186C240.312 371.279 241.49 372.616 243.334 372.616C244.914 372.616 245.897 371.725 246.086 370.516H245.024C244.829 371.261 244.213 371.67 243.328 371.67C242.156 371.67 241.399 370.706 241.399 369.186C241.399 367.697 242.143 366.75 243.328 366.75C244.274 366.75 244.853 367.281 245.024 367.935H246.086ZM248.544 368.795H248.446V363.308H247.396V372.5H248.446V370.004L249.075 369.418L251.54 372.5H252.877L249.856 368.74L252.688 365.92H251.4L248.544 368.795ZM256.219 372.616C258.093 372.616 259.253 371.322 259.253 369.21C259.253 367.092 258.093 365.804 256.219 365.804C254.346 365.804 253.186 367.092 253.186 369.21C253.186 371.322 254.346 372.616 256.219 372.616ZM256.219 371.67C254.974 371.67 254.272 370.767 254.272 369.21C254.272 367.648 254.974 366.75 256.219 366.75C257.465 366.75 258.166 367.648 258.166 369.21C258.166 370.767 257.465 371.67 256.219 371.67ZM265.922 365.92H264.872V369.814C264.872 370.968 264.237 371.658 263.077 371.658C262.028 371.658 261.588 371.108 261.588 369.924V365.92H260.538V370.181C260.538 371.737 261.307 372.616 262.784 372.616C263.792 372.616 264.493 372.201 264.823 371.469H264.921V372.5H265.922V365.92ZM268.037 364.218V365.92H266.975V366.799H268.037V370.791C268.037 372.048 268.58 372.549 269.935 372.549C270.143 372.549 270.344 372.524 270.552 372.488V371.603C270.357 371.621 270.253 371.627 270.064 371.627C269.38 371.627 269.087 371.298 269.087 370.522V366.799H270.552V365.92H269.087V364.218H268.037ZM272.704 372.561C273.143 372.561 273.497 372.201 273.497 371.768C273.497 371.328 273.143 370.974 272.704 370.974C272.271 370.974 271.91 371.328 271.91 371.768C271.91 372.201 272.271 372.561 272.704 372.561ZM278.451 365.804C277.554 365.804 276.767 366.262 276.345 367.019H276.248V365.92H275.247V374.697H276.297V371.511H276.394C276.754 372.207 277.511 372.616 278.451 372.616C280.123 372.616 281.216 371.267 281.216 369.21C281.216 367.141 280.13 365.804 278.451 365.804ZM278.201 371.67C277.017 371.67 276.266 370.718 276.266 369.21C276.266 367.697 277.017 366.75 278.207 366.75C279.409 366.75 280.13 367.672 280.13 369.21C280.13 370.748 279.409 371.67 278.201 371.67ZM284.393 372.616C285.272 372.616 285.993 372.231 286.42 371.53H286.518V372.5H287.518V367.996C287.518 366.628 286.621 365.804 285.016 365.804C283.612 365.804 282.575 366.5 282.434 367.556H283.496C283.643 367.037 284.192 366.738 284.979 366.738C285.962 366.738 286.469 367.184 286.469 367.996V368.594L284.57 368.71C283.039 368.801 282.172 369.479 282.172 370.657C282.172 371.859 283.118 372.616 284.393 372.616ZM284.589 371.694C283.826 371.694 283.258 371.304 283.258 370.632C283.258 369.973 283.698 369.625 284.699 369.558L286.469 369.442V370.046C286.469 370.986 285.669 371.694 284.589 371.694ZM289.475 374.88C290.641 374.88 291.166 374.429 291.728 372.903L294.297 365.92H293.18L291.38 371.334H291.282L289.475 365.92H288.34L290.775 372.506L290.653 372.897C290.379 373.69 290.049 373.977 289.445 373.977C289.298 373.977 289.134 373.971 289.005 373.947V374.844C289.152 374.868 289.335 374.88 289.475 374.88ZM298.671 372.616C300.337 372.616 301.43 371.267 301.43 369.21C301.43 367.141 300.343 365.804 298.671 365.804C297.768 365.804 296.968 366.25 296.608 366.958H296.51V363.308H295.46V372.5H296.461V371.45H296.559C296.974 372.183 297.755 372.616 298.671 372.616ZM298.427 366.75C299.629 366.75 300.343 367.672 300.343 369.21C300.343 370.748 299.629 371.67 298.427 371.67C297.23 371.67 296.486 370.73 296.486 369.21C296.486 367.69 297.23 366.75 298.427 366.75ZM303.094 374.88C304.259 374.88 304.784 374.429 305.346 372.903L307.915 365.92H306.798L304.998 371.334H304.9L303.094 365.92H301.958L304.394 372.506L304.272 372.897C303.997 373.69 303.667 373.977 303.063 373.977C302.917 373.977 302.752 373.971 302.624 373.947V374.844C302.77 374.868 302.953 374.88 303.094 374.88ZM312.289 372.616C313.955 372.616 315.048 371.267 315.048 369.21C315.048 367.141 313.962 365.804 312.289 365.804C311.386 365.804 310.586 366.25 310.226 366.958H310.129V363.308H309.079V372.5H310.08V371.45H310.177C310.592 372.183 311.374 372.616 312.289 372.616ZM312.045 366.75C313.247 366.75 313.962 367.672 313.962 369.21C313.962 370.748 313.247 371.67 312.045 371.67C310.849 371.67 310.104 370.73 310.104 369.21C310.104 367.69 310.849 366.75 312.045 366.75ZM318.226 372.616C319.104 372.616 319.825 372.231 320.252 371.53H320.35V372.5H321.351V367.996C321.351 366.628 320.453 365.804 318.848 365.804C317.444 365.804 316.407 366.5 316.266 367.556H317.328C317.475 367.037 318.024 366.738 318.811 366.738C319.794 366.738 320.301 367.184 320.301 367.996V368.594L318.403 368.71C316.871 368.801 316.004 369.479 316.004 370.657C316.004 371.859 316.95 372.616 318.226 372.616ZM318.421 371.694C317.658 371.694 317.09 371.304 317.09 370.632C317.09 369.973 317.53 369.625 318.531 369.558L320.301 369.442V370.046C320.301 370.986 319.501 371.694 318.421 371.694ZM322.99 372.5H324.04V368.606C324.04 367.452 324.717 366.75 325.767 366.75C326.817 366.75 327.317 367.312 327.317 368.496V372.5H328.367V368.24C328.367 366.677 327.543 365.804 326.066 365.804C325.059 365.804 324.418 366.232 324.089 366.958H323.991V365.92H322.99V372.5ZM331.197 368.795H331.099V363.308H330.049V372.5H331.099V370.004L331.728 369.418L334.194 372.5H335.53L332.509 368.74L335.341 365.92H334.053L331.197 368.795ZM337.341 372.561C337.78 372.561 338.134 372.201 338.134 371.768C338.134 371.328 337.78 370.974 337.341 370.974C336.907 370.974 336.547 371.328 336.547 371.768C336.547 372.201 336.907 372.561 337.341 372.561ZM345.084 367.935C344.9 366.763 343.924 365.804 342.325 365.804C340.482 365.804 339.31 367.135 339.31 369.186C339.31 371.279 340.488 372.616 342.331 372.616C343.912 372.616 344.894 371.725 345.084 370.516H344.022C343.826 371.261 343.21 371.67 342.325 371.67C341.153 371.67 340.396 370.706 340.396 369.186C340.396 367.697 341.141 366.75 342.325 366.75C343.271 366.75 343.851 367.281 344.022 367.935H345.084ZM349.036 372.616C350.91 372.616 352.07 371.322 352.07 369.21C352.07 367.092 350.91 365.804 349.036 365.804C347.162 365.804 346.003 367.092 346.003 369.21C346.003 371.322 347.162 372.616 349.036 372.616ZM349.036 371.67C347.791 371.67 347.089 370.767 347.089 369.21C347.089 367.648 347.791 366.75 349.036 366.75C350.281 366.75 350.983 367.648 350.983 369.21C350.983 370.767 350.281 371.67 349.036 371.67ZM353.416 372.5H354.466V368.423C354.466 367.495 355.131 366.75 355.992 366.75C356.822 366.75 357.365 367.251 357.365 368.032V372.5H358.415V368.27C358.415 367.434 359.025 366.75 359.941 366.75C360.869 366.75 361.326 367.227 361.326 368.197V372.5H362.376V367.953C362.376 366.573 361.625 365.804 360.283 365.804C359.373 365.804 358.622 366.262 358.268 366.958H358.171C357.866 366.274 357.243 365.804 356.352 365.804C355.473 365.804 354.814 366.226 354.515 366.958H354.417V365.92H353.416V372.5ZM363.942 374.374L367.116 363.308H366.225L363.051 374.374H363.942ZM367.7 367.721C367.7 368.673 368.261 369.204 369.494 369.503L370.623 369.778C371.325 369.949 371.667 370.254 371.667 370.706C371.667 371.31 371.032 371.731 370.147 371.731C369.305 371.731 368.78 371.377 368.603 370.822H367.523C367.639 371.914 368.646 372.616 370.111 372.616C371.606 372.616 372.747 371.804 372.747 370.626C372.747 369.68 372.149 369.143 370.91 368.844L369.897 368.6C369.122 368.411 368.756 368.13 368.756 367.678C368.756 367.092 369.366 366.696 370.147 366.696C370.941 366.696 371.453 367.043 371.594 367.568H372.631C372.491 366.488 371.533 365.804 370.153 365.804C368.756 365.804 367.7 366.628 367.7 367.721ZM377.097 372.708C378.964 372.708 380.271 371.652 380.271 370.144C380.271 368.997 379.544 368.105 378.44 367.898V367.8C379.349 367.55 379.91 366.799 379.91 365.835C379.91 364.462 378.745 363.485 377.097 363.485C375.449 363.485 374.283 364.462 374.283 365.835C374.283 366.793 374.857 367.556 375.754 367.8V367.898C374.649 368.105 373.923 368.997 373.923 370.144C373.923 371.652 375.229 372.708 377.097 372.708ZM377.097 367.434C376.059 367.434 375.363 366.836 375.363 365.939C375.363 365.029 376.053 364.425 377.097 364.425C378.14 364.425 378.83 365.029 378.83 365.939C378.83 366.836 378.134 367.434 377.097 367.434ZM377.097 371.768C375.876 371.768 375.034 371.072 375.034 370.065C375.034 369.058 375.876 368.362 377.097 368.362C378.317 368.362 379.16 369.058 379.16 370.065C379.16 371.072 378.317 371.768 377.097 371.768ZM390.052 365.92H388.996L387.702 371.182H387.605L386.134 365.92H385.127L383.656 371.182H383.558L382.264 365.92H381.202L383.045 372.5H384.107L385.572 367.41H385.67L387.141 372.5H388.209L390.052 365.92ZM393.962 372.701C396.117 372.701 397.35 370.968 397.35 367.941C397.35 364.944 395.933 363.485 394.035 363.485C392.229 363.485 390.947 364.749 390.947 366.519C390.947 368.228 392.162 369.467 393.84 369.467C394.89 369.467 395.75 368.966 396.184 368.112H396.281C396.22 370.455 395.409 371.725 393.974 371.725C393.108 371.725 392.436 371.243 392.204 370.449H391.075C391.35 371.835 392.467 372.701 393.962 372.701ZM394.035 368.514C392.87 368.514 392.058 367.684 392.058 366.482C392.058 365.328 392.918 364.449 394.048 364.449C395.177 364.449 396.037 365.341 396.037 366.519C396.037 367.684 395.201 368.514 394.035 368.514ZM398.885 372.5H399.935V368.606C399.935 367.495 400.582 366.75 401.76 366.75C402.755 366.75 403.28 367.33 403.28 368.496V372.5H404.33V368.24C404.33 366.696 403.451 365.804 402.059 365.804C401.052 365.804 400.362 366.232 400.033 366.958H399.935V363.308H398.885V372.5ZM413.916 365.92H412.86L411.566 371.182H411.468L409.997 365.92H408.99L407.519 371.182H407.422L406.128 365.92H405.066L406.909 372.5H407.971L409.436 367.41H409.533L411.004 372.5H412.072L413.916 365.92ZM415.458 372.5H416.507V366.799H418.015V365.92H416.507V365.219C416.507 364.498 416.825 364.132 417.582 364.132C417.771 364.132 417.948 364.138 418.076 364.163V363.308C417.856 363.265 417.624 363.247 417.368 363.247C416.117 363.247 415.458 363.876 415.458 365.188V365.92H414.365V366.799H415.458V372.5ZM421.675 375.027C423.469 375.027 424.604 374.087 424.604 372.616V365.92H423.603V366.964H423.506C423.127 366.256 422.316 365.804 421.394 365.804C419.703 365.804 418.635 367.141 418.635 369.113C418.635 371.084 419.691 372.402 421.394 372.402C422.297 372.402 423.042 371.993 423.457 371.267H423.555V372.561C423.555 373.531 422.853 374.111 421.675 374.111C420.729 374.111 420.143 373.763 420.027 373.226H418.916C419.075 374.313 420.088 375.027 421.675 375.027ZM421.626 371.475C420.405 371.475 419.722 370.547 419.722 369.113C419.722 367.678 420.405 366.75 421.626 366.75C422.84 366.75 423.579 367.678 423.579 369.113C423.579 370.547 422.847 371.475 421.626 371.475ZM426.128 367.721C426.128 368.673 426.689 369.204 427.922 369.503L429.051 369.778C429.753 369.949 430.095 370.254 430.095 370.706C430.095 371.31 429.46 371.731 428.575 371.731C427.733 371.731 427.208 371.377 427.031 370.822H425.951C426.067 371.914 427.074 372.616 428.539 372.616C430.034 372.616 431.175 371.804 431.175 370.626C431.175 369.68 430.577 369.143 429.338 368.844L428.325 368.6C427.55 368.411 427.184 368.13 427.184 367.678C427.184 367.092 427.794 366.696 428.575 366.696C429.369 366.696 429.881 367.043 430.022 367.568H431.059C430.919 366.488 429.961 365.804 428.581 365.804C427.184 365.804 426.128 366.628 426.128 367.721ZM435.476 372.708C437.454 372.708 438.589 371.035 438.589 368.112C438.589 365.194 437.435 363.485 435.476 363.485C433.505 363.485 432.351 365.188 432.351 368.093C432.351 371.023 433.492 372.708 435.476 372.708ZM435.476 371.749C434.176 371.749 433.456 370.449 433.456 368.093C433.456 365.768 434.188 364.449 435.476 364.449C436.764 364.449 437.484 365.756 437.484 368.093C437.484 370.455 436.776 371.749 435.476 371.749Z" fill="#8F9095"/>
</svg>
