<svg width="176" height="112" viewBox="0 0 176 112" fill="none" xmlns="http://www.w3.org/2000/svg">
<rect width="176" height="112" fill="#FAFAFA"/>
<path d="M59.6013 47.1738V64.0875H60.2324L60.2451 47.1806L59.6013 47.1738L59.6013 47.1738Z" fill="#D71A20"/>
<path d="M38.9685 47.0002C37.5222 46.9895 35.8892 47.4335 34.092 48.6338C34.0918 48.6338 34.6309 50.0002 33.5053 51.4404C33.5051 51.4404 33.5347 51.4551 33.5358 51.4548C34.6269 50.8506 39.8248 46.2904 45.4603 51.7427C45.4603 51.7427 54.3577 50.966 51.9979 58.7161C51.9979 58.7161 55.1448 59.8454 54.7638 64.0919C54.7638 64.0919 54.8008 64.0938 54.8019 64.0919C54.9339 63.8203 56.7766 60.1179 53.8646 58.4067C53.8646 58.4067 55.0421 55.6758 52.8436 53.146C51.7256 51.8588 49.6771 50.6295 45.9251 51.1454C45.9249 51.1454 43.3074 47.0323 38.9685 47.0002V47.0002ZM30.0003 47.1585C30.0003 47.1585 29.9996 47.1938 30.0003 47.1945C30.4945 47.4544 33.4997 49.2578 30.1299 51.4117L32.2176 59.8963C32.2176 59.8963 35.1443 57.6545 37.5741 58.6801C39.1246 59.3348 39.5245 61.1427 39.2276 63.9552C39.2276 63.9552 39.2719 63.9578 39.2733 63.9552C39.4961 63.4614 42.3693 58.4216 37.9932 56.8954C37.1676 56.6071 36.0045 56.5171 33.9168 57.2408L31.9814 51.9946C31.9814 51.9946 35.0531 48.0617 30.0003 47.1585ZM48.2872 57.7446C46.6447 57.8226 45.6584 58.9536 45.6584 58.9536C43.0683 56.5645 40.7819 59.1839 40.7819 59.1839C42.4641 60.7785 41.6506 64.0919 41.6506 64.0919C41.6498 64.09 41.6873 64.0943 41.6887 64.0919C43.0853 61.9344 42.9154 59.81 42.9154 59.81C44.3131 59.4068 45.1403 60.8535 45.1403 60.8535C46.8883 59.0409 48.6369 58.9246 49.5901 59.4861C51.9551 60.8802 51.1445 63.9552 51.1445 63.9552C51.1445 63.9561 51.1899 63.9565 51.1902 63.9552C53.17 60.3297 51.3753 58.619 50.1387 58.0972C49.4569 57.8092 48.8346 57.7186 48.2872 57.7446Z" fill="#D71A20"/>
<path fill-rule="evenodd" clip-rule="evenodd" d="M123.724 57.5788C123.724 57.4914 123.8 57.5083 123.907 57.5083H124.159C124.182 57.5081 124.206 57.5059 124.271 57.5109C124.271 57.5109 124.506 57.5442 124.704 57.7447L127.614 61.3488L129.543 61.3505L126.581 57.5456L126.009 56.8765C125.986 56.8417 125.995 56.7983 126.097 56.6949L128.97 53.5956L129.236 53.326C129.264 53.2914 129.334 53.2422 129.178 53.2422H127.813H127.587C127.362 53.2422 127.37 53.2256 127.235 53.3621L124.6 56.2327C124.6 56.2327 124.448 56.44 124.254 56.44H123.925C123.907 56.4394 123.877 56.4396 123.829 56.4396C123.8 56.4349 123.743 56.4396 123.731 56.3683C123.726 56.3401 123.723 56.3213 123.723 56.2439V49.6332H121.932V61.3495H123.722V57.6602L123.724 57.5788ZM142.011 53.0601C141.902 53.0642 140.9 53.0796 140.208 53.3237C140.037 53.368 138.605 53.9207 138.004 55.5489C137.888 55.8148 137.533 57.0916 137.83 58.4205C138.305 60.2784 139.004 60.7953 140.277 61.2626C142.923 61.959 145.584 60.5276 145.921 58.3281C145.921 58.3281 146.403 55.3516 144.971 53.897C144.971 53.897 144.218 53.0601 142.011 53.0601ZM141.895 54.4821C143.794 54.4821 144.038 55.8939 144.038 55.8939C144.292 56.8568 144.153 57.9638 144.153 57.9638C144.031 59.4149 142.909 60.0204 142.607 60.0497C141.888 60.244 141.034 59.9869 141.036 59.9901C139.847 59.6665 139.719 58.0553 139.719 58.0553C139.607 57.2376 139.693 56.4374 139.841 55.9376C139.987 55.443 140.236 55.1858 140.181 55.2476C140.833 54.4613 141.895 54.4821 141.895 54.4821ZM116.956 53.0702C116.956 53.0702 114.595 53.105 113.59 54.8816C113.59 54.8816 111.714 57.9348 114.476 60.5089C114.889 60.8387 115.551 61.4273 117.661 61.3969C118.111 61.3742 118.952 61.4952 120.598 60.132L120.06 59.3656L120.003 59.2934C119.961 59.2236 119.724 59.1702 119.526 59.2867L119.035 59.62C118.76 59.8201 118.42 59.9084 117.616 59.9767C116.462 60.0324 115.636 59.716 115.107 58.6362C115.107 58.6362 114.927 58.3356 114.927 57.3746C114.928 57.3329 114.919 57.2764 115.015 57.2764H120.427H120.539C120.59 57.2764 120.629 57.2779 120.641 57.2571C120.656 57.2322 120.659 57.1411 120.659 57.0607C120.659 56.6964 120.662 56.2791 120.64 55.9678C120.615 55.5968 120.513 55.1738 120.284 54.7087C120.284 54.7087 119.585 53.0702 116.956 53.0702V53.0702ZM117.299 54.2865C119.067 54.4122 119.057 56.2908 119.019 56.2784H114.949C114.949 54.0759 117.299 54.2865 117.299 54.2865ZM104.474 49.9049V61.2803H106.375V57.1992V57.1438L106.418 57.1412H108.699C108.708 57.136 109.018 57.1731 109.96 56.9826C110.88 56.8013 112.079 55.8245 112.397 55.2635C112.608 54.8917 113.051 53.5381 112.782 52.6278C112.621 52.0052 112.46 51.6378 112.162 51.268C112.162 51.268 111.196 49.9049 108.733 49.9049H104.474L104.474 49.9049ZM106.394 51.4233H108.819C110.853 51.4233 110.869 53.2952 110.869 53.2952C110.869 54.842 109.842 55.3483 109.842 55.3483C109.303 55.6657 109.106 55.6967 109.009 55.7009C108.955 55.7031 108.901 55.702 108.847 55.7009H106.394V51.4233ZM93.9895 57.5264C93.9895 57.4391 94.0651 57.4559 94.1722 57.4559H94.4241C94.4472 57.4557 94.4708 57.4536 94.536 57.4585C94.536 57.4585 94.771 57.4918 94.969 57.6923L97.8787 61.2964L99.8079 61.2981L96.846 57.4933L96.2746 56.8242C96.2512 56.7893 96.26 56.7459 96.3622 56.6426L99.2354 53.5432L99.5016 53.2736C99.5294 53.239 99.5988 53.1898 99.4436 53.1898H98.0779H97.8523C97.6267 53.1898 97.6348 53.1732 97.5001 53.3097L94.865 56.1804C94.865 56.1804 94.7127 56.3877 94.5196 56.3877H94.19C94.1719 56.3871 94.1422 56.3875 94.0942 56.3875C94.0654 56.3828 94.0078 56.3875 93.9956 56.3162C93.9913 56.288 93.9883 56.2692 93.9879 56.1918V49.5811H92.1973V61.2973H93.987V57.6081L93.9895 57.5264ZM85.0381 55.5549C85.0381 55.5506 85.0381 55.5456 85.0383 55.54C85.0372 55.5216 85.0518 55.467 85.0713 55.4298C85.0713 55.4298 85.5582 54.4836 87.1014 54.4836C87.1014 54.4836 88.7333 54.4418 88.7333 55.7016V61.2297H90.4381V55.9005C90.4381 55.7454 90.4464 55.6069 90.4381 55.435C90.4381 55.435 90.3891 53.7445 88.6499 53.2772C88.2588 53.1462 87.5914 53.1258 87.1304 53.1697C87.1304 53.1697 86.0853 53.2115 85.0564 54.2432L85.0173 54.2928C84.9782 54.3425 84.8587 54.3634 84.8587 54.187V53.8509V53.681C84.8531 53.5695 84.8152 53.3131 84.5277 53.3131H83.2816V61.2297H85.0368V55.5771L85.0381 55.5549ZM133.322 53.0719C133.122 53.0797 132.905 53.0987 132.67 53.1323C132.67 53.1323 131.589 53.2498 130.158 54.3679C130.158 54.3679 129.951 54.4693 130.173 54.6902L130.779 55.2929C130.836 55.3446 130.991 55.4412 131.338 55.2367C131.547 55.1079 132.335 54.6524 132.93 54.4888C132.93 54.4888 134.261 54.1117 134.788 55.392C134.788 55.392 134.906 55.5648 134.906 56.505C134.911 56.7064 134.907 56.7098 134.747 56.7098C134.747 56.7098 130.996 56.5146 129.984 58.2602C129.984 58.2602 129.017 59.4755 130.366 60.8178C130.366 60.8178 131.281 61.7417 133.162 61.24C133.162 61.24 134.127 61.0743 134.822 60.3821C134.826 60.3761 134.849 60.3525 134.855 60.346C134.912 60.2783 135.061 60.1998 135.101 60.3519C135.108 60.3795 135.111 60.3932 135.114 60.4316C135.117 60.471 135.121 60.4753 135.122 60.5861C135.124 60.7865 135.094 61.1678 135.639 61.1678H136.465C136.516 61.1684 136.607 61.1605 136.607 61.0612V55.8679C136.611 55.6888 136.507 54.9952 136.448 54.8548C136.45 54.8605 136.141 54.0892 135.341 53.5394C135.303 53.5217 134.724 53.0175 133.322 53.0719L133.322 53.0719ZM134.711 57.7968C134.756 57.7979 134.882 57.7969 134.882 57.9118V59.2372C134.882 59.281 134.636 59.7026 134.014 59.9095C133.64 60.0465 132.419 60.4425 131.866 59.9977C131.866 59.9977 131.122 59.4632 131.563 58.7033C131.563 58.7033 131.738 58.305 132.787 58.0251C132.787 58.0251 133.545 57.7968 134.711 57.7968ZM78.3714 53.0711C78.1711 53.0788 77.954 53.0987 77.7192 53.1323C77.7192 53.1323 76.6383 53.2498 75.2078 54.3679C75.2078 54.3679 75.0009 54.4693 75.2229 54.6902L75.8289 55.2929C75.8859 55.3446 76.0397 55.4412 76.3871 55.2367C76.5961 55.1079 77.3841 54.6524 77.9794 54.4888C77.9794 54.4888 79.3107 54.1117 79.8378 55.392C79.8378 55.392 79.9554 55.5648 79.9554 56.505C79.961 56.7064 79.9553 56.709 79.7959 56.709C79.7959 56.709 76.0456 56.5146 75.0332 58.2602C75.0332 58.2602 74.0659 59.4755 75.4143 60.8178C75.4143 60.8178 76.3309 61.7409 78.2119 61.2391C78.2119 61.2391 79.1761 61.0734 79.8714 60.3813C79.8753 60.3752 79.8986 60.3517 79.9042 60.3452C79.9619 60.2774 80.1108 60.1998 80.1501 60.3519C80.1572 60.3795 80.1596 60.3932 80.1627 60.4317C80.1657 60.471 80.17 60.4744 80.1719 60.5853C80.1731 60.7856 80.1431 61.1678 80.6881 61.1678H81.5149C81.5658 61.1684 81.6568 61.1605 81.6568 61.0612V55.8679C81.6602 55.6888 81.5556 54.9952 81.4965 54.8548C81.499 54.8606 81.1908 54.0892 80.3902 53.5394C80.3524 53.5217 79.7738 53.0166 78.3714 53.0711L78.3714 53.0711ZM79.7598 57.796C79.8044 57.7971 79.931 57.7969 79.931 57.9118V59.2364C79.931 59.2802 79.6856 59.7026 79.0631 59.9095C78.689 60.0465 77.468 60.4425 76.9151 59.9977C76.9151 59.9977 76.1714 59.4632 76.6121 58.7033C76.6121 58.7033 76.7876 58.3041 77.8367 58.0243C77.8367 58.0243 78.5934 57.796 79.7598 57.796ZM65.1611 49.925V61.2291H69.3589C69.3589 61.2291 70.7137 61.3054 71.8855 60.827C71.8855 60.827 73.0183 60.3653 73.6146 59.3203C73.6146 59.3203 74.1179 58.3421 73.8043 57.158C73.7048 56.952 73.6615 56.5727 72.7828 55.9376C72.7625 55.9264 72.2838 55.5549 71.5371 55.5867C71.513 55.5858 71.3789 55.5926 71.3567 55.5103C71.3555 55.5103 71.3178 55.3999 71.5187 55.3408C71.9457 55.2259 72.4462 54.9655 73.0094 54.3956C73.0094 54.3956 73.5659 53.9182 73.5659 52.8444C73.5659 52.8444 73.5608 52.0562 73.0967 51.2429C73.0967 51.2429 72.7214 50.5057 71.3164 50.1248C71.2232 50.0991 70.4713 49.925 65.2686 49.925H65.1611ZM67.0993 51.4225H69.7249C70.9012 51.4225 71.2803 52.1477 71.2803 52.1477C71.5904 52.6913 71.6001 53.1743 71.6001 53.1743C71.6001 53.9731 71.0637 54.3646 71.0637 54.3646C70.5993 54.7507 69.9097 54.9375 69.6569 54.9421C69.3669 54.9582 67.9936 54.9421 67.1622 54.9421C67.116 54.942 67.0899 54.9452 67.09 54.9311L67.091 54.9001V51.4359C67.0912 51.429 67.0879 51.4234 67.0994 51.4225L67.0993 51.4225ZM67.0783 56.2943H69.876C71.1289 56.2943 71.5321 57.0305 71.5321 57.0305C71.8624 57.582 71.8729 58.0721 71.8729 58.0721C71.8729 58.8827 71.3012 59.28 71.3012 59.28C70.8066 59.6718 70.0723 59.8605 69.8029 59.8651C69.4941 59.8814 68.0318 59.8651 67.1463 59.8651C67.097 59.865 67.0689 59.8685 67.069 59.8542V59.8231V56.3086C67.0692 56.3015 67.066 56.2952 67.0783 56.2943L67.0783 56.2943Z" fill="black" stroke="black" stroke-width="0.452141" stroke-linejoin="round"/>
</svg>
