<svg width="70" height="23" viewBox="0 0 70 23" fill="none" xmlns="http://www.w3.org/2000/svg">
<path fill-rule="evenodd" clip-rule="evenodd" d="M36.2613 3.02713C36.2381 4.33797 37.2464 5.37605 38.5508 5.3851C39.8539 5.39415 40.9024 4.36253 40.8972 3.07237C40.892 1.8197 39.8565 0.780336 38.5961 0.764823C37.3343 0.74931 36.2833 1.76799 36.2613 3.02713ZM8.57891 21.357L8.57903 21.357L8.57955 21.3566L8.58037 21.356L8.58213 21.3549C8.65973 21.3024 8.7425 21.2464 8.83375 21.1854C8.83375 21.2601 8.83527 21.3182 8.83653 21.3665V21.3666C8.83834 21.4361 8.83962 21.4851 8.83504 21.5331C8.72645 22.407 8.76394 22.4523 9.64559 22.4549C9.87515 22.4557 10.1049 22.4531 10.3346 22.4506L10.3349 22.4506C10.7946 22.4454 11.2542 22.4402 11.7127 22.4626C12.2854 22.4898 12.5736 22.2881 12.6771 21.6986C13.454 17.2477 14.249 12.8007 15.0505 8.35501C15.1578 7.75519 14.9807 7.44881 14.3602 7.29885C12.1238 6.75978 9.86019 6.49994 7.56945 6.67446C5.04215 6.86708 2.95696 7.8961 1.68749 10.1985C1.32811 10.8513 1.01009 11.561 0.851086 12.2836C0.789128 12.566 0.724654 12.8482 0.660146 13.1305L0.660143 13.1305L0.660136 13.1306C0.250878 14.9219 -0.15971 16.7191 0.0625164 18.5896C0.367603 21.1557 2.17356 22.7276 4.75128 22.7018C6.02204 22.6889 7.15448 22.2829 8.20807 21.6043C8.32764 21.527 8.44567 21.4471 8.57891 21.357ZM9.60525 10.3362L9.60534 10.3362L9.60544 10.3362L9.60563 10.3362L9.60566 10.3362C9.80415 10.3522 10.0087 10.3686 10.2222 10.3833L10.0579 11.339L10.0577 11.3399C9.90043 12.2554 9.74952 13.1338 9.59647 14.0107C9.52451 14.4215 9.4503 14.8319 9.3761 15.2421L9.37604 15.2425C9.23967 15.9966 9.10335 16.7503 8.98112 17.5063C8.91261 17.9251 8.75748 18.2444 8.33993 18.3763C8.1384 18.4401 7.9377 18.5094 7.73696 18.5787C7.22557 18.7554 6.71387 18.9321 6.18751 19.0175C4.99949 19.2088 4.17472 18.3866 4.36217 17.2258C4.61037 15.6977 4.87538 14.1697 5.23089 12.6637C5.66525 10.8254 6.51846 10.2217 8.41749 10.2631C8.8051 10.2718 9.19213 10.303 9.60524 10.3362H9.60525ZM46.8956 22.6939L46.8957 22.694L46.8957 22.694L46.8958 22.694L46.8959 22.694C47.1037 22.7156 47.3115 22.7371 47.5178 22.7647C51.5202 22.6716 54.1755 20.7467 55.2148 17.0055C55.5923 15.6443 55.8444 14.2326 56.0008 12.8274C56.315 10.0015 55.0364 7.88265 52.6423 7.01393C51.4995 6.59896 50.3205 6.56922 49.1376 6.66747C46.0208 6.92602 43.7158 8.40492 42.7217 11.4286C42.1555 13.1493 41.7741 14.9721 41.6125 16.7754C41.3488 19.7177 42.8962 21.8313 45.5451 22.4894C45.9852 22.5994 46.4405 22.6467 46.8956 22.6939L46.8956 22.6939ZM47.2153 18.8904C46.3737 18.6551 46.0312 18.0527 45.9277 16.8207C46.0247 16.3612 46.1124 15.8989 46.2 15.4365C46.3962 14.4018 46.5923 13.3671 46.8934 12.3646C47.3394 10.8766 48.4137 10.2768 49.9081 10.4074C50.8415 10.4888 51.4685 11.0266 51.4982 11.96C51.5564 13.8448 51.2616 15.6973 50.5118 17.4308C49.9495 18.7313 48.5817 19.273 47.2153 18.8904ZM19.4841 6.83689C19.6293 6.83689 19.7746 6.83871 19.9198 6.84052C20.2489 6.84464 20.5778 6.84876 20.9061 6.83172C21.4581 6.80198 21.6804 7.04761 21.7024 7.58797C21.7713 9.27724 21.849 10.9659 21.9267 12.6543L21.9267 12.6548C21.9599 13.376 21.9931 14.0971 22.0256 14.8182C22.0396 15.1282 22.0518 15.4382 22.064 15.7483V15.7483C22.0925 16.4716 22.121 17.1949 22.1717 17.9169C22.1832 18.089 22.261 18.2567 22.3388 18.4244C22.3744 18.5012 22.41 18.578 22.4393 18.6551C22.5028 18.5948 22.5756 18.5382 22.6484 18.4816C22.8052 18.3596 22.9621 18.2374 23.0275 18.0785C23.9034 15.9309 24.761 13.776 25.6184 11.6215L25.6184 11.6214L25.6185 11.6212L25.6185 11.6211L25.6199 11.6177L25.6212 11.6144C25.8523 11.0336 26.0834 10.4528 26.3149 9.87223C26.3986 9.66193 26.4826 9.45172 26.5666 9.24151C26.7939 8.67253 27.0213 8.10349 27.2431 7.53238C27.4293 7.05536 27.7473 6.82138 28.2773 6.83172C28.8574 6.84238 29.438 6.84014 30.0187 6.8379C30.4939 6.83607 30.9692 6.83424 31.4445 6.83947C32.1232 6.84723 32.2602 7.05924 31.9758 7.67846C30.1065 11.7687 28.2346 15.8563 26.3537 19.9414C25.1799 22.4919 22.9344 23.0905 20.4058 22.5152C19.3031 22.2644 18.6942 21.4306 18.5572 20.3408C18.3635 18.8059 18.209 17.2665 18.0546 15.7272L18.0545 15.7258C18.007 15.2521 17.9595 14.7785 17.9108 14.305C17.7681 12.9201 17.6299 11.5345 17.4917 10.1487L17.4917 10.1486L17.4917 10.1484L17.4917 10.1483L17.491 10.1411C17.4328 9.55808 17.3746 8.97506 17.3162 8.39205L17.3065 8.29544L17.3065 8.29532L17.3065 8.29528C17.2861 8.09195 17.2656 7.88779 17.2567 7.68363C17.227 6.99331 17.3601 6.85628 18.0621 6.83689H18.1267H19.4841ZM66.366 6.75711C66.1004 6.71604 65.8675 6.68002 65.6785 6.65043C63.5726 6.67499 62.1855 6.80169 60.885 7.40927C59.2795 8.15906 58.4999 9.46343 58.3965 11.1918C58.2983 12.8246 58.9834 14.0578 60.3744 14.9175C61.1255 15.3815 61.8691 15.8588 62.6125 16.3361C62.7929 16.452 62.9733 16.5678 63.1538 16.6834C64.0703 17.2716 64.3327 17.6891 64.1414 18.2993C63.8687 19.1693 63.1098 19.1435 62.4337 19.1124C60.9729 19.0465 59.5121 18.9353 58.0591 18.7763C57.5356 18.7182 57.2473 18.8655 57.034 19.3141C56.8795 19.639 56.7122 19.9574 56.5449 20.2759C56.4419 20.4719 56.3389 20.6679 56.2389 20.8654C55.8615 21.6126 55.9558 21.8724 56.7961 22.0146L56.8549 22.0246C58.3195 22.2721 59.7892 22.5205 61.2664 22.6455C62.9573 22.7877 64.6275 22.5809 66.1633 21.7794C68.0894 20.7749 69.1016 18.5721 68.5975 16.558C68.3182 15.4411 67.5788 14.6809 66.6558 14.0772C65.9123 13.5907 65.1608 13.1165 64.4093 12.6422L64.4091 12.6421L64.4086 12.6418C64.068 12.4268 63.7275 12.2119 63.3878 11.9959C62.9883 11.7425 62.6768 11.3612 62.9185 10.9294C63.0595 10.6771 63.3929 10.5187 63.6988 10.3734C63.7519 10.3482 63.8042 10.3234 63.8544 10.2985C63.9853 10.2342 64.1625 10.2508 64.3291 10.2665C64.3632 10.2697 64.3969 10.2729 64.4297 10.2753C64.7306 10.2975 65.0315 10.3191 65.3326 10.3408L65.3327 10.3408C66.4479 10.4209 67.5637 10.501 68.6763 10.614C69.2477 10.6721 69.5334 10.4847 69.6174 9.92753C69.6339 9.81857 69.6497 9.70934 69.6655 9.60004C69.7329 9.1335 69.8006 8.66557 69.9199 8.21206C70.0828 7.59284 69.8282 7.30585 69.2632 7.21407C68.2049 7.04153 67.1451 6.87761 66.3662 6.75716L66.366 6.75711ZM35.2127 10.147C35.0459 10.147 34.885 10.1481 34.7282 10.1491C34.3879 10.1512 34.0667 10.1533 33.7454 10.1444C33.1417 10.1289 33.0176 9.93243 33.2878 9.37655C33.3322 9.2854 33.3764 9.19401 33.4207 9.10257C33.7045 8.51579 33.9894 7.92689 34.344 7.38444C34.5133 7.1246 34.9037 6.86864 35.2024 6.85701C36.1862 6.81903 37.1713 6.82269 38.1563 6.82634C38.6131 6.82804 39.0699 6.82973 39.5266 6.82727C40.1691 6.82339 40.2027 7.20734 40.1148 7.69211C39.5835 10.6538 39.0535 13.6154 38.526 16.5771C38.2505 18.12 37.9785 19.664 37.7066 21.207L37.7065 21.2074L37.6612 21.4649C37.4957 22.4048 37.4479 22.4487 36.5029 22.45C35.6212 22.4526 34.7383 22.4552 33.8566 22.4487C33.1559 22.4435 33.0525 22.3181 33.1831 21.5761C33.4769 19.9016 33.7765 18.2276 34.0761 16.5539L34.0765 16.5519C34.2236 15.7299 34.3708 14.9079 34.5172 14.086C34.6512 13.33 34.7847 12.5727 34.9213 11.7984C35.0166 11.2579 35.1133 10.7093 35.2127 10.147Z" fill="white"/>
</svg>
