<svg width="216" height="34" viewBox="0 0 216 34" fill="none" xmlns="http://www.w3.org/2000/svg">
<path fill-rule="evenodd" clip-rule="evenodd" d="M50.2833 0.539468H53.1669V13.1249H50.2833V8.12607H46.3198V13.1249H43.4362V0.539468H46.3198V5.35744H50.2833V0.539468ZM76.9864 13.1239H79.6891V0H76.9864V13.1239ZM87.0054 6.72367H85.1487V9.90621C85.1487 10.6255 85.6903 10.7511 87.0054 10.6798V13.1239C85.2934 13.3048 84.1038 13.142 83.4377 12.6387C82.7706 12.1173 82.4471 11.2192 82.4471 9.90621V6.72473H81.0053V4.13379H82.4471V2.42707L85.1498 1.6184V4.13592H87.0054V6.72473V6.72367ZM122.484 5.73517C122.825 4.58495 123.962 3.95503 125.186 3.95503V7.01202C124.547 6.89669 123.887 7.01811 123.331 7.35358C122.772 7.67705 122.484 8.25269 122.484 9.06136V13.1249H119.781V4.13486H122.484V5.73517V5.73517ZM128.646 9.7083C128.952 10.5531 129.673 10.9671 130.808 10.9671C131.547 10.9671 132.124 10.733 132.538 10.2839L134.7 11.5246C133.817 12.7653 132.502 13.376 130.773 13.376C129.258 13.376 128.052 12.927 127.132 12.0279C126.231 11.1288 125.781 9.99559 125.781 8.63042C125.781 7.28122 126.231 6.14908 127.114 5.24997C128.016 4.33277 129.168 3.88374 130.574 3.88374C131.889 3.88374 132.97 4.33277 133.835 5.24997C134.718 6.14908 135.15 7.28122 135.15 8.63042C135.15 9.00709 135.114 9.36674 135.043 9.7083H128.646V9.7083ZM132.465 7.69513C132.195 6.74175 131.565 6.27464 130.555 6.27464C129.511 6.27464 128.863 6.74282 128.591 7.69513H132.465ZM57.1293 20.4242L54.9491 29.2345L52.5178 20.4242H50.1748L47.7424 29.2345L45.5622 20.4242H42.535L46.0133 33.0097H49.2916L51.3452 25.5848L53.3999 33.0097H56.6792L60.1576 20.4242H57.1293ZM77.6547 20.4242V33.0097H80.3573V29.0366L83.2387 33.0097H86.3032L82.9334 28.5152L86.2127 24.0207H83.0589L80.3562 27.9576V20.4242H77.6547ZM89.2037 29.5941C89.5091 30.439 90.2305 30.8529 91.3659 30.8529C92.1043 30.8529 92.681 30.6188 93.0949 30.1698L95.2571 31.4094C94.3739 32.6501 93.0588 33.2608 91.3297 33.2608C89.8166 33.2608 88.6089 32.8118 87.6907 31.9127C86.7894 31.0136 86.3393 29.8814 86.3393 28.5152C86.3393 27.166 86.7894 26.0339 87.6715 25.1347C88.5728 24.2186 89.7251 23.7685 91.1307 23.7685C92.4459 23.7685 93.528 24.2186 94.3931 25.1347C95.2762 26.0339 95.7071 27.1671 95.7071 28.5152C95.7071 28.8929 95.671 29.2526 95.5997 29.5941H89.2037V29.5941ZM93.0236 27.5799C92.7534 26.6276 92.1224 26.1594 91.1137 26.1594C90.0677 26.1594 89.4197 26.6276 89.1495 27.5799H93.0226H93.0236ZM107.835 27.4363C109.078 27.7065 110.718 28.3535 110.699 30.3134C110.699 31.2838 110.339 32.0212 109.618 32.5245C108.898 33.0097 108.015 33.2619 106.951 33.2619C105.06 33.2619 103.763 32.5426 103.078 31.1221L105.42 29.792C105.654 30.4932 106.177 30.8529 106.952 30.8529C107.601 30.8529 107.924 30.672 107.924 30.2953C107.924 29.9357 107.222 29.7208 106.357 29.5037C105.114 29.1632 103.492 28.5514 103.492 26.717C103.492 25.7827 103.834 25.0635 104.501 24.5421C105.186 24.0207 106.034 23.7685 107.023 23.7685C108.519 23.7685 109.798 24.4516 110.537 25.6923L108.231 26.933C107.943 26.4116 107.547 26.1413 107.023 26.1413C106.519 26.1413 106.268 26.3041 106.268 26.6457C106.268 27.0043 106.97 27.2022 107.835 27.4363V27.4363ZM115.06 20.4242L113.618 25.7285H111.456L112.177 20.4242H115.06ZM121.529 20.4242V33.0097H124.412V28.3896H129.096V25.621H124.412V23.1929H129.186V20.4242H121.529ZM147.331 28.9291C147.331 30.1517 146.682 30.7805 145.655 30.7805C144.736 30.7805 144.088 30.206 144.088 29.144V24.0207H141.385V29.5399C141.385 30.7082 141.71 31.6073 142.34 32.2723C142.989 32.9384 143.8 33.2619 144.755 33.2619C145.926 33.2619 146.791 32.9022 147.33 32.1648V33.0097H150.034V24.0207H147.331V28.9291V28.9291ZM157.332 23.7685C156.161 23.7685 155.295 24.1282 154.755 24.8645V24.0207H152.052V33.0097H154.755V28.1013C154.755 26.8798 155.404 26.2499 156.431 26.2499C157.35 26.2499 157.998 26.8244 157.998 27.8863V33.0097H160.701V27.4905C160.701 26.3211 160.376 25.4231 159.728 24.7581C159.097 24.092 158.287 23.7685 157.332 23.7685V23.7685ZM190.396 26.6095V24.0207H188.539V21.5032L185.837 22.3118V24.0207H184.396V26.6095H185.838V29.791C185.838 31.104 186.161 32.0031 186.827 32.5245C187.495 33.0278 188.684 33.1895 190.396 33.0097V30.5645C189.081 30.6369 188.539 30.5113 188.539 29.792V26.6084H190.396V26.6095ZM191.963 33.0097H194.666V24.0207H191.963V33.0097ZM57.6528 7.69513C57.9231 6.74175 58.5711 6.27464 59.6171 6.27464C60.6258 6.27464 61.2557 6.74282 61.527 7.69513H57.6528ZM59.6341 3.88374C58.2296 3.88374 57.0761 4.33277 56.1749 5.24997C55.2917 6.14908 54.8427 7.28229 54.8427 8.63042C54.8427 9.99665 55.2928 11.1288 56.194 12.0279C57.1123 12.927 58.32 13.376 59.8331 13.376C61.5621 13.376 62.8783 12.7653 63.7604 11.5246L61.5983 10.2839C61.1833 10.733 60.6077 10.9671 59.8692 10.9671C58.7339 10.9671 58.0136 10.5542 57.7071 9.7083H64.102C64.1754 9.3678 64.2105 9.00709 64.2105 8.63042C64.2105 7.28122 63.7785 6.14908 62.8964 5.24997C62.0314 4.33277 60.9492 3.88374 59.6341 3.88374V3.88374ZM70.1032 10.7755C69.8215 10.7758 69.5425 10.7206 69.2821 10.6131C69.0217 10.5055 68.7851 10.3477 68.5857 10.1487C68.3863 9.94975 68.2281 9.71343 68.12 9.45329C68.012 9.19314 67.9562 8.91425 67.9559 8.63255C67.9559 7.44934 68.9168 6.48958 70.1032 6.48958C71.2896 6.48958 72.2504 7.44934 72.2504 8.63255C72.2501 8.91425 72.1944 9.19314 72.0863 9.45329C71.9782 9.71343 71.82 9.94975 71.6206 10.1487C71.4212 10.3477 71.1846 10.5055 70.9242 10.6131C70.6639 10.7206 70.3849 10.7758 70.1032 10.7755V10.7755ZM72.2472 4.13592V4.97971C71.6173 4.24339 70.715 3.88374 69.5626 3.88374C68.3741 3.88374 67.3654 4.35086 66.5174 5.267C65.6714 6.1842 65.2565 7.29931 65.2565 8.62936C65.2565 9.95941 65.6714 11.0937 66.5174 12.0098C67.3654 12.926 68.3741 13.376 69.5626 13.376C70.7161 13.376 71.6162 13.0164 72.2472 12.2801V13.1239H74.9499V4.13592H72.2483H72.2472ZM64.6117 30.6571C64.33 30.6574 64.051 30.6022 63.7906 30.4946C63.5302 30.3871 63.2936 30.2293 63.0942 30.0303C62.8948 29.8313 62.7366 29.595 62.6285 29.3349C62.5205 29.0747 62.4647 28.7958 62.4644 28.5141C62.4644 27.3309 63.4253 26.3712 64.6117 26.3712C65.7981 26.3712 66.7589 27.3309 66.7589 28.5141C66.7586 28.7958 66.7029 29.0747 66.5948 29.3349C66.4867 29.595 66.3285 29.8313 66.1291 30.0303C65.9297 30.2293 65.6931 30.3871 65.4327 30.4946C65.1724 30.6022 64.8934 30.6574 64.6117 30.6571V30.6571ZM67.9953 25.1528C67.076 24.2367 65.9417 23.7696 64.6074 23.7696C63.2742 23.7696 62.1388 24.2367 61.2206 25.1528C60.3012 26.07 59.8331 27.1851 59.8331 28.5152C59.8331 29.8452 60.3012 30.9784 61.2206 31.8946C62.1399 32.8118 63.2742 33.2619 64.6074 33.2619C65.9417 33.2619 67.076 32.8118 67.9953 31.8946C68.9146 30.9784 69.3828 29.8452 69.3828 28.5152C69.3828 27.1851 68.9146 26.07 67.9953 25.1528V25.1528ZM135.174 30.6571C134.893 30.6574 134.614 30.6022 134.353 30.4946C134.093 30.3871 133.856 30.2293 133.657 30.0303C133.458 29.8313 133.299 29.595 133.191 29.3349C133.083 29.0747 133.028 28.7958 133.027 28.5141C133.027 27.3309 133.989 26.3712 135.174 26.3712C136.361 26.3712 137.322 27.3309 137.322 28.5141C137.321 28.7958 137.266 29.0747 137.158 29.3349C137.05 29.595 136.891 29.8313 136.692 30.0303C136.493 30.2293 136.256 30.3871 135.996 30.4946C135.735 30.6022 135.456 30.6574 135.174 30.6571V30.6571ZM138.556 25.1528C137.637 24.2367 136.502 23.7696 135.168 23.7696C133.834 23.7696 132.7 24.2367 131.781 25.1528C130.862 26.07 130.394 27.1851 130.394 28.5152C130.394 29.8452 130.862 30.9784 131.781 31.8946C132.7 32.8118 133.835 33.2619 135.168 33.2619C136.501 33.2619 137.637 32.8118 138.556 31.8946C139.474 30.9784 139.944 29.8452 139.944 28.5152C139.944 27.1851 139.475 26.07 138.556 25.1528V25.1528ZM167.005 30.6571C166.724 30.6574 166.445 30.6022 166.184 30.4946C165.924 30.3871 165.687 30.2293 165.488 30.0303C165.288 29.8313 165.13 29.595 165.022 29.3349C164.914 29.0747 164.858 28.7958 164.858 28.5141C164.858 27.3309 165.82 26.3712 167.005 26.3712C168.192 26.3712 169.154 27.3309 169.154 28.5141C169.153 28.7959 169.097 29.0749 168.989 29.3351C168.881 29.5953 168.723 29.8317 168.523 30.0307C168.324 30.2297 168.087 30.3875 167.827 30.4949C167.566 30.6024 167.287 30.6575 167.005 30.6571V30.6571ZM169.133 20.4242V24.8655C168.503 24.1282 167.602 23.7696 166.449 23.7696C165.26 23.7696 164.251 24.2367 163.403 25.1528C162.558 26.07 162.143 27.1851 162.143 28.5152C162.143 29.8452 162.558 30.9784 163.403 31.8946C164.251 32.8118 165.26 33.2619 166.449 33.2619C167.602 33.2619 168.503 32.9022 169.133 32.1648V33.0097H171.836V20.4242H169.133V20.4242ZM201.024 30.6571C200.742 30.6574 200.463 30.6022 200.203 30.4946C199.942 30.3871 199.706 30.2293 199.506 30.0303C199.307 29.8313 199.149 29.595 199.04 29.3349C198.932 29.0747 198.877 28.7958 198.876 28.5141C198.876 27.3309 199.837 26.3712 201.024 26.3712C202.21 26.3712 203.171 27.3309 203.171 28.5141C203.171 28.7958 203.115 29.0747 203.007 29.3349C202.899 29.595 202.74 29.8313 202.541 30.0303C202.342 30.2293 202.105 30.3871 201.845 30.4946C201.584 30.6022 201.305 30.6574 201.024 30.6571V30.6571ZM201.009 23.7685C199.675 23.7685 198.54 24.2367 197.621 25.1528C196.703 26.07 196.234 27.1851 196.234 28.5152C196.234 29.8452 196.703 30.9784 197.621 31.8946C198.54 32.8118 199.674 33.2619 201.009 33.2619C202.342 33.2619 203.477 32.8118 204.396 31.8946C205.315 30.9784 205.783 29.8452 205.783 28.5152C205.783 27.1851 205.315 26.07 204.396 25.1528C203.477 24.2367 202.342 23.7696 201.009 23.7696V23.7685ZM215.026 24.7581C214.396 24.092 213.586 23.7685 212.63 23.7685C211.46 23.7685 210.595 24.1282 210.054 24.8645V24.0207H207.351V33.0097H210.054V28.1013C210.054 26.8787 210.703 26.2499 211.73 26.2499C212.649 26.2499 213.297 26.8244 213.297 27.8863V33.0097H216V27.4905C216 26.3211 215.675 25.4231 215.026 24.7581V24.7581ZM112.917 10.7766C112.635 10.7769 112.356 10.7216 112.096 10.614C111.835 10.5064 111.599 10.3485 111.399 10.1494C111.2 9.95033 111.041 9.71388 110.933 9.45361C110.825 9.19334 110.77 8.91434 110.77 8.63255C110.77 7.44934 111.732 6.48958 112.917 6.48958C114.103 6.48958 115.064 7.44934 115.064 8.63255C115.064 8.91425 115.008 9.19314 114.9 9.45329C114.792 9.71343 114.634 9.94975 114.434 10.1487C114.235 10.3477 113.998 10.5055 113.738 10.6131C113.478 10.7206 113.199 10.7758 112.917 10.7755V10.7766ZM115.042 4.13486V4.97971C114.411 4.24339 113.51 3.88374 112.357 3.88374C111.168 3.88374 110.159 4.35086 109.312 5.267C108.465 6.1842 108.051 7.29931 108.051 8.62936C108.051 9.95941 108.466 11.0937 109.312 12.0098C110.159 12.926 111.168 13.376 112.357 13.376C113.51 13.376 114.411 13.0164 115.042 12.2801V13.1239H117.744V4.13592H115.042V4.13486ZM103.497 10.7755C103.215 10.7761 102.936 10.7211 102.675 10.6137C102.415 10.5063 102.178 10.3485 101.978 10.1495C101.779 9.95048 101.62 9.71407 101.512 9.45378C101.404 9.19349 101.348 8.91443 101.348 8.63255C101.347 8.16729 101.497 7.71429 101.776 7.34187C102.054 6.96944 102.447 6.69777 102.894 6.56783C103.34 6.43789 103.817 6.45672 104.252 6.62148C104.687 6.78624 105.057 7.088 105.306 7.48126L107.546 6.1842C106.753 4.80095 105.204 3.88374 103.474 3.88374C102.105 3.88374 100.97 4.33277 100.051 5.24997C99.1493 6.16717 98.6992 7.28229 98.6992 8.63042C98.6992 9.97856 99.1493 11.0926 100.051 12.0098C100.97 12.927 102.104 13.376 103.474 13.376C105.222 13.376 106.753 12.4769 107.546 11.0564L105.308 9.77959C105.114 10.0848 104.847 10.3361 104.53 10.5102C104.213 10.6843 103.857 10.7756 103.496 10.7755H103.497ZM178.287 30.6731C178.006 30.6733 177.727 30.6181 177.466 30.5106C177.206 30.4031 176.969 30.2453 176.77 30.0463C176.57 29.8473 176.412 29.611 176.304 29.3508C176.196 29.0907 176.14 28.8118 176.14 28.5301C176.14 27.3469 177.101 26.3871 178.287 26.3871C179.473 26.3871 180.434 27.3469 180.434 28.5301C180.434 28.8118 180.378 29.0907 180.27 29.3508C180.162 29.611 180.004 29.8473 179.805 30.0463C179.605 30.2453 179.369 30.4031 179.108 30.5106C178.848 30.6181 178.569 30.6733 178.287 30.6731V30.6731ZM180.411 24.0335V24.8783C179.781 24.1409 178.879 23.7813 177.726 23.7813C176.537 23.7813 175.528 24.2495 174.681 25.1645C173.835 26.0817 173.42 27.1968 173.42 28.5269C173.42 29.8569 173.835 30.9912 174.681 31.9074C175.528 32.8246 176.537 33.2736 177.726 33.2736C178.88 33.2736 179.78 32.9139 180.411 32.1776V33.0214H183.114V24.0335H180.411V24.0335ZM192.161 22.7619C191.859 22.4591 191.689 22.0484 191.689 21.6202C191.689 21.192 191.859 20.7814 192.161 20.4785C192.81 19.8316 193.819 19.8316 194.449 20.4785C195.098 21.1074 195.098 22.115 194.449 22.7619C194.145 23.0638 193.734 23.2332 193.305 23.2332C192.877 23.2332 192.465 23.0638 192.161 22.7619V22.7619ZM0 13.1749C0 12.1747 0.811862 11.3661 1.81312 11.3661C2.81438 11.3661 3.62731 12.1747 3.62731 13.1749C3.62731 14.1751 2.81545 14.9838 1.81312 14.9838C0.810798 14.9838 0 14.1751 0 13.1749Z" fill="#00A6FF"/>
<path fill-rule="evenodd" clip-rule="evenodd" d="M0 16.7829C0 15.7837 0.811862 14.974 1.81312 14.974C2.81438 14.974 3.62731 15.7837 3.62731 16.7829C3.62731 17.782 2.81545 18.5928 1.81312 18.5928C0.810798 18.5928 0 17.7831 0 16.7839" fill="#00A6FF"/>
<path fill-rule="evenodd" clip-rule="evenodd" d="M0 20.3924C0 19.3922 0.811862 18.5835 1.81312 18.5835C2.81438 18.5835 3.62731 19.3922 3.62731 20.3924C3.62731 21.3926 2.81545 22.2012 1.81312 22.2012C0.810798 22.2012 0 21.3936 0 20.3934V20.3924ZM3.61667 13.1761C3.61667 12.1759 4.42853 11.3672 5.42979 11.3672C6.43106 11.3672 7.24398 12.1759 7.24398 13.1761C7.24398 14.1763 6.43212 14.9849 5.42979 14.9849C4.42747 14.9849 3.61667 14.1763 3.61667 13.1761Z" fill="#00A6FF"/>
<path fill-rule="evenodd" clip-rule="evenodd" d="M3.61719 16.7829C3.61719 15.7837 4.42905 14.974 5.43031 14.974C6.43157 14.974 7.2445 15.7837 7.2445 16.7829C7.2445 17.782 6.43263 18.5928 5.43031 18.5928C4.42799 18.5928 3.61719 17.7831 3.61719 16.7839" fill="#00A6FF"/>
<path fill-rule="evenodd" clip-rule="evenodd" d="M3.61719 20.3926C3.61719 19.3924 4.42905 18.5838 5.43031 18.5838C6.43157 18.5838 7.2445 19.3924 7.2445 20.3926C7.2445 21.3928 6.43264 22.2015 5.43031 22.2015C4.42799 22.2015 3.61719 21.3928 3.61719 20.3926ZM7.23386 13.1753C7.23386 12.1751 8.04572 11.3664 9.04698 11.3664C10.0482 11.3664 10.8612 12.1751 10.8612 13.1753C10.8612 14.1755 10.0493 14.9841 9.04698 14.9841C8.04465 14.9841 7.23386 14.1755 7.23386 13.1753" fill="#00A6FF"/>
<path fill-rule="evenodd" clip-rule="evenodd" d="M7.23291 16.7829C7.23291 15.7837 8.04477 14.974 9.04603 14.974C10.0473 14.974 10.8602 15.7837 10.8602 16.7829C10.8602 17.782 10.0484 18.5928 9.04603 18.5928C8.04371 18.5928 7.23291 17.7831 7.23291 16.7839" fill="#00A6FF"/>
<path fill-rule="evenodd" clip-rule="evenodd" d="M7.23291 20.3926C7.23291 19.3924 8.04477 18.5838 9.04603 18.5838C10.0473 18.5838 10.8602 19.3924 10.8602 20.3926C10.8602 21.3928 10.0484 22.2015 9.04603 22.2015C8.04371 22.2015 7.23291 21.3928 7.23291 20.3926V20.3926ZM10.8432 13.1753C10.8432 12.1751 11.6551 11.3664 12.6563 11.3664C13.6576 11.3664 14.4694 12.1751 14.4694 13.1753C14.4694 14.1755 13.6576 14.9841 12.6563 14.9841C12.1761 14.9844 11.7154 14.7941 11.3754 14.4549C11.0355 14.1157 10.844 13.6555 10.8432 13.1753" fill="#00A6FF"/>
<path fill-rule="evenodd" clip-rule="evenodd" d="M10.8428 16.7829C10.8428 15.7837 11.6557 14.974 12.657 14.974C13.6582 14.974 14.4701 15.7837 14.4701 16.7829C14.4701 17.782 13.6582 18.5928 12.657 18.5928C12.1767 18.5931 11.716 18.4027 11.3761 18.0636C11.0361 17.7244 10.8447 17.2641 10.8438 16.7839" fill="#00A6FF"/>
<path fill-rule="evenodd" clip-rule="evenodd" d="M10.8428 20.3926C10.8428 19.3924 11.6557 18.5838 12.657 18.5838C13.6582 18.5838 14.4701 19.3924 14.4701 20.3926C14.4701 21.3928 13.6582 22.2015 12.657 22.2015C12.1767 22.2018 11.716 22.0114 11.3761 21.6723C11.0361 21.3331 10.8447 20.8729 10.8438 20.3926H10.8428ZM14.4605 13.1753C14.4605 12.1751 15.2724 11.3664 16.2736 11.3664C17.2749 11.3664 18.0868 12.1751 18.0868 13.1753C18.0868 14.1755 17.2749 14.9841 16.2736 14.9841C15.2724 14.9841 14.4605 14.1755 14.4605 13.1753Z" fill="#00A6FF"/>
<path fill-rule="evenodd" clip-rule="evenodd" d="M14.4607 16.7829C14.4607 15.7837 15.2726 14.974 16.2738 14.974C17.2751 14.974 18.0869 15.7837 18.0869 16.7829C18.0869 17.782 17.2751 18.5928 16.2738 18.5928C15.2726 18.5928 14.4607 17.7831 14.4607 16.7839" fill="#00A6FF"/>
<path fill-rule="evenodd" clip-rule="evenodd" d="M14.4607 20.3926C14.4607 19.3924 15.2726 18.5838 16.2738 18.5838C17.2751 18.5838 18.0869 19.3924 18.0869 20.3926C18.0869 21.3928 17.2751 22.2015 16.2738 22.2015C15.2726 22.2015 14.4607 21.3928 14.4607 20.3926ZM18.0774 13.1753C18.0774 12.1751 18.8892 11.3664 19.8905 11.3664C20.8917 11.3664 21.7036 12.1751 21.7036 13.1753C21.7036 14.1755 20.8917 14.9841 19.8905 14.9841C18.8892 14.9841 18.0774 14.1755 18.0774 13.1753Z" fill="#00A6FF"/>
<path fill-rule="evenodd" clip-rule="evenodd" d="M18.0764 16.7829C18.0764 15.7837 18.8883 14.974 19.8895 14.974C20.8908 14.974 21.7027 15.7837 21.7027 16.7829C21.7027 17.782 20.8908 18.5928 19.8895 18.5928C18.8883 18.5928 18.0764 17.7831 18.0764 16.7839" fill="#00A6FF"/>
<path fill-rule="evenodd" clip-rule="evenodd" d="M18.0772 20.3921C18.0772 19.392 18.889 18.5833 19.8903 18.5833C20.8916 18.5833 21.7034 19.392 21.7034 20.3921C21.7034 21.3923 20.8916 22.201 19.8903 22.201C18.889 22.201 18.0772 21.3923 18.0772 20.3921ZM10.8428 24.0014C10.8428 23.0012 11.6546 22.1914 12.6559 22.1914C13.6572 22.1914 14.469 23.0012 14.469 24.0003C14.469 24.9994 13.6572 25.8102 12.6559 25.8102C12.1757 25.8105 11.715 25.6202 11.375 25.281C11.0351 24.9418 10.8436 24.4816 10.8428 24.0014Z" fill="#00A6FF"/>
<path fill-rule="evenodd" clip-rule="evenodd" d="M10.8428 27.6095C10.8428 26.6093 11.6557 25.8007 12.657 25.8007C13.6582 25.8007 14.4701 26.6093 14.4701 27.6095C14.4701 28.6097 13.6582 29.4184 12.657 29.4184C12.1767 29.4187 11.716 29.2283 11.3761 28.8892C11.0361 28.55 10.8447 28.0897 10.8438 27.6095" fill="#00A6FF"/>
<path fill-rule="evenodd" clip-rule="evenodd" d="M10.8428 31.2188C10.8428 30.2186 11.6557 29.4089 12.657 29.4089C13.6582 29.4089 14.4701 30.2186 14.4701 31.2178C14.4701 32.2169 13.6582 33.0277 12.657 33.0277C12.1767 33.028 11.716 32.8376 11.3761 32.4985C11.0361 32.1593 10.8447 31.6991 10.8438 31.2188H10.8428ZM14.4605 24.0015C14.4605 23.0013 15.2724 22.1915 16.2736 22.1915C17.2749 22.1915 18.0868 23.0013 18.0868 24.0004C18.0868 24.9995 17.2749 25.8103 16.2736 25.8103C15.2724 25.8103 14.4605 25.0006 14.4605 24.0015Z" fill="#00A6FF"/>
<path fill-rule="evenodd" clip-rule="evenodd" d="M14.4607 27.6095C14.4607 26.6093 15.2726 25.8007 16.2738 25.8007C17.2751 25.8007 18.0869 26.6093 18.0869 27.6095C18.0869 28.6097 17.2751 29.4184 16.2738 29.4184C15.2726 29.4184 14.4607 28.6097 14.4607 27.6095Z" fill="#00A6FF"/>
<path fill-rule="evenodd" clip-rule="evenodd" d="M14.4607 31.2188C14.4607 30.2186 15.2726 29.4089 16.2738 29.4089C17.2751 29.4089 18.0869 30.2186 18.0869 31.2178C18.0869 32.2169 17.2751 33.0277 16.2738 33.0277C15.2726 33.0277 14.4607 32.218 14.4607 31.2188ZM18.0774 24.0015C18.0774 23.0013 18.8892 22.1915 19.8905 22.1915C20.8917 22.1915 21.7036 23.0013 21.7036 24.0004C21.7036 24.9995 20.8917 25.8103 19.8905 25.8103C18.8892 25.8103 18.0774 25.0006 18.0774 24.0015Z" fill="#00A6FF"/>
<path fill-rule="evenodd" clip-rule="evenodd" d="M18.0764 27.6095C18.0764 26.6093 18.8883 25.8007 19.8895 25.8007C20.8908 25.8007 21.7027 26.6093 21.7027 27.6095C21.7027 28.6097 20.8908 29.4184 19.8895 29.4184C18.8883 29.4184 18.0764 28.6097 18.0764 27.6095Z" fill="#00A6FF"/>
<path fill-rule="evenodd" clip-rule="evenodd" d="M18.0772 31.2191C18.0772 30.2189 18.889 29.4091 19.8903 29.4091C20.8916 29.4091 21.7034 30.2189 21.7034 31.218C21.7034 32.2171 20.8916 33.0279 19.8903 33.0279C18.889 33.0279 18.0772 32.2182 18.0772 31.2191ZM10.8428 2.34848C10.8428 1.34828 11.6546 0.539612 12.6559 0.539612C13.6572 0.539612 14.469 1.34828 14.469 2.34848C14.469 3.34868 13.6572 4.15735 12.6559 4.15735C12.1757 4.15763 11.715 3.96728 11.375 3.62811C11.0351 3.28894 10.8436 2.8287 10.8428 2.34848" fill="#00A6FF"/>
<path fill-rule="evenodd" clip-rule="evenodd" d="M10.8428 5.95733C10.8428 4.95713 11.6557 4.1474 12.657 4.1474C13.6582 4.1474 14.4701 4.95713 14.4701 5.95627C14.4701 6.95646 13.6582 7.7662 12.657 7.7662C12.1767 7.76648 11.716 7.57613 11.3761 7.23696C11.0361 6.8978 10.8447 6.43755 10.8438 5.95733" fill="#00A6FF"/>
<path fill-rule="evenodd" clip-rule="evenodd" d="M10.8428 9.56586C10.8428 8.56672 11.6557 7.75699 12.657 7.75699C13.6582 7.75699 14.4701 8.56672 14.4701 9.56586C14.4701 10.5661 13.6582 11.3758 12.657 11.3758C12.1767 11.3761 11.716 11.1857 11.3761 10.8466C11.0361 10.5074 10.8447 10.0471 10.8438 9.56692L10.8428 9.56586ZM14.4605 2.34848C14.4605 1.34828 15.2724 0.539612 16.2736 0.539612C17.2749 0.539612 18.0868 1.34828 18.0868 2.34848C18.0868 3.34868 17.2749 4.15735 16.2736 4.15735C15.2724 4.15735 14.4605 3.34868 14.4605 2.34848" fill="#00A6FF"/>
<path fill-rule="evenodd" clip-rule="evenodd" d="M14.4607 5.95733C14.4607 4.95713 15.2726 4.1474 16.2738 4.1474C17.2751 4.1474 18.0869 4.95713 18.0869 5.95627C18.0869 6.95646 17.2751 7.7662 16.2738 7.7662C15.2726 7.7662 14.4607 6.95753 14.4607 5.95733Z" fill="#00A6FF"/>
<path fill-rule="evenodd" clip-rule="evenodd" d="M14.4607 9.56586C14.4607 8.56672 15.2726 7.75699 16.2738 7.75699C17.2751 7.75699 18.0869 8.56672 18.0869 9.56586C18.0869 10.5661 17.2751 11.3758 16.2738 11.3758C15.2726 11.3758 14.4607 10.5661 14.4607 9.56692V9.56586ZM18.0774 2.34848C18.0774 1.34828 18.8892 0.539612 19.8905 0.539612C20.8917 0.539612 21.7036 1.34828 21.7036 2.34848C21.7036 3.34868 20.8917 4.15735 19.8905 4.15735C18.8892 4.15735 18.0774 3.34868 18.0774 2.34848Z" fill="#00A6FF"/>
<path fill-rule="evenodd" clip-rule="evenodd" d="M18.0764 5.95733C18.0764 4.95713 18.8883 4.1474 19.8895 4.1474C20.8908 4.1474 21.7027 4.95713 21.7027 5.95627C21.7027 6.95646 20.8908 7.7662 19.8895 7.7662C18.8883 7.7662 18.0764 6.95753 18.0764 5.95733Z" fill="#00A6FF"/>
<path fill-rule="evenodd" clip-rule="evenodd" d="M18.0764 9.5654C18.0764 8.56626 18.8883 7.75653 19.8895 7.75653C20.8908 7.75653 21.7027 8.56626 21.7027 9.5654C21.7027 10.5656 20.8908 11.3753 19.8895 11.3753C18.8883 11.3753 18.0764 10.5656 18.0764 9.56646V9.5654ZM21.6856 13.1736C21.6856 12.1755 22.4975 11.3647 23.4998 11.3647C24.5021 11.3647 25.3129 12.1755 25.3129 13.1736C25.3129 14.1716 24.5011 14.9835 23.4998 14.9835C22.4986 14.9835 21.6856 14.1748 21.6856 13.1746" fill="#00A6FF"/>
<path fill-rule="evenodd" clip-rule="evenodd" d="M21.6863 16.7829C21.6863 15.7837 22.4981 14.974 23.5005 14.974C24.5028 14.974 25.3136 15.7837 25.3136 16.7829C25.3136 17.782 24.5017 18.5928 23.5005 18.5928C22.4992 18.5928 21.6863 17.7831 21.6863 16.7839" fill="#00A6FF"/>
<path fill-rule="evenodd" clip-rule="evenodd" d="M21.6863 20.3926C21.6863 19.3924 22.4981 18.5838 23.5005 18.5838C24.5028 18.5838 25.3136 19.3924 25.3136 20.3926C25.3136 21.3928 24.5017 22.2015 23.5005 22.2015C22.4992 22.2015 21.6863 21.3928 21.6863 20.3926ZM25.304 13.1753C25.304 12.1751 26.1148 11.3664 27.1171 11.3664C28.1195 11.3664 28.9303 12.1751 28.9303 13.1753C28.9303 14.1755 28.1184 14.9841 27.1171 14.9841C26.1159 14.9841 25.303 14.1755 25.303 13.1753" fill="#00A6FF"/>
<path fill-rule="evenodd" clip-rule="evenodd" d="M25.3035 16.7829C25.3035 15.7837 26.1153 14.974 27.1177 14.974C28.12 14.974 28.9308 15.7837 28.9308 16.7829C28.9308 17.782 28.1189 18.5928 27.1177 18.5928C26.1164 18.5928 25.3035 17.7831 25.3035 16.7839" fill="#00A6FF"/>
<path fill-rule="evenodd" clip-rule="evenodd" d="M25.3035 20.3926C25.3035 19.3924 26.1153 18.5838 27.1177 18.5838C28.12 18.5838 28.9308 19.3924 28.9308 20.3926C28.9308 21.3928 28.1189 22.2015 27.1177 22.2015C26.1164 22.2015 25.3035 21.3928 25.3035 20.3926ZM28.9212 13.1753C28.9212 12.1751 29.732 11.3664 30.7333 11.3664C31.7345 11.3664 32.5474 12.1751 32.5474 13.1753C32.5474 14.1755 31.7356 14.9841 30.7333 14.9841C29.7309 14.9841 28.9201 14.1755 28.9201 13.1753" fill="#00A6FF"/>
<path fill-rule="evenodd" clip-rule="evenodd" d="M28.9203 16.7829C28.9203 15.7837 29.731 14.974 30.7323 14.974C31.7336 14.974 32.5465 15.7837 32.5465 16.7829C32.5465 17.782 31.7346 18.5928 30.7323 18.5928C29.73 18.5928 28.9192 17.7831 28.9192 16.7839" fill="#00A6FF"/>
<path fill-rule="evenodd" clip-rule="evenodd" d="M28.9203 20.3925C28.9203 19.3923 29.731 18.5836 30.7323 18.5836C31.7336 18.5836 32.5465 19.3923 32.5465 20.3925C32.5465 21.3927 31.7346 22.2013 30.7323 22.2013C29.73 22.2013 28.9192 21.3927 28.9192 20.3925H28.9203ZM96.2654 4.87238C95.6355 4.20736 94.8247 3.88282 93.8692 3.88282C92.6988 3.88282 91.8337 4.24247 91.2932 4.97985V0.539612H88.5905V13.124H91.2921V7.99108H91.2953V7.98257C91.2953 7.08877 92.021 6.36523 92.9158 6.36523C93.8118 6.36523 94.5374 7.08877 94.5374 7.98257V13.124H97.239V7.6059C97.239 6.43652 96.9145 5.53741 96.2654 4.87238V4.87238ZM73.6652 25.6052C74.0068 24.4539 75.1421 23.8251 76.3679 23.8251V26.881C75.7279 26.7656 75.0678 26.8874 74.5111 27.2236C73.9525 27.5471 73.6642 28.1216 73.6642 28.9314V32.9939H70.9615V24.0049H73.6642V25.6052H73.6652ZM100.004 25.6052C100.346 24.4539 101.481 23.8251 102.707 23.8251V26.881C102.067 26.766 101.408 26.8878 100.851 27.2236C100.293 27.5471 100.004 28.1216 100.004 28.9314V32.9939H97.3018V24.0049H100.004V25.6052Z" fill="#00A6FF"/>
</svg>
