<svg width="696" height="448" viewBox="0 0 696 448" fill="none" xmlns="http://www.w3.org/2000/svg">
<path d="M503 90.5C503 80.835 495.165 73 485.5 73H258.5C248.835 73 241 80.835 241 90.5V182.5C241 192.165 248.835 200 258.5 200H485.5C495.165 200 503 192.165 503 182.5V90.5Z" fill="#007AFF"/>
<path d="M265.093 97V85.022H263.598V90.2017H257.024V85.022H255.53V97H257.024V91.5464H263.598V97H265.093ZM268.302 86.3252C268.85 86.3252 269.298 85.877 269.298 85.3291C269.298 84.7812 268.85 84.333 268.302 84.333C267.754 84.333 267.306 84.7812 267.306 85.3291C267.306 85.877 267.754 86.3252 268.302 86.3252ZM267.588 97H269.016V88.0518H267.588V97ZM280.929 84.7397C277.542 84.7397 275.434 87.1553 275.434 91.0068C275.434 94.8418 277.492 97.2822 280.929 97.2822C284.349 97.2822 286.424 94.8335 286.424 91.0068C286.424 87.1636 284.332 84.7397 280.929 84.7397ZM280.929 86.1177C283.378 86.1177 284.888 88.0103 284.888 91.0068C284.888 93.9785 283.386 95.9043 280.929 95.9043C278.439 95.9043 276.969 93.9785 276.969 91.0068C276.969 88.0103 278.489 86.1177 280.929 86.1177ZM288.214 90.5005C288.214 91.7954 288.977 92.5176 290.654 92.9243L292.19 93.2979C293.144 93.5303 293.609 93.9453 293.609 94.5596C293.609 95.3813 292.746 95.9541 291.542 95.9541C290.397 95.9541 289.683 95.4727 289.442 94.7173H287.973C288.131 96.2031 289.5 97.1577 291.493 97.1577C293.526 97.1577 295.079 96.0537 295.079 94.4517C295.079 93.165 294.265 92.4346 292.58 92.0278L291.202 91.6958C290.148 91.4385 289.65 91.0566 289.65 90.4424C289.65 89.6455 290.48 89.106 291.542 89.106C292.621 89.106 293.319 89.5791 293.51 90.293H294.921C294.73 88.8237 293.427 87.894 291.551 87.894C289.65 87.894 288.214 89.0146 288.214 90.5005ZM304.314 90.791C304.065 89.1973 302.737 87.894 300.562 87.894C298.055 87.894 296.461 89.7036 296.461 92.4927C296.461 95.3398 298.064 97.1577 300.57 97.1577C302.72 97.1577 304.057 95.9458 304.314 94.3022H302.87C302.604 95.3149 301.766 95.8711 300.562 95.8711C298.968 95.8711 297.939 94.5596 297.939 92.4927C297.939 90.4673 298.952 89.1807 300.562 89.1807C301.849 89.1807 302.637 89.9028 302.87 90.791H304.314ZM308.503 97.1577C309.698 97.1577 310.677 96.6348 311.259 95.6802H311.391V97H312.753V90.874C312.753 89.0146 311.532 87.894 309.349 87.894C307.44 87.894 306.029 88.8403 305.838 90.2764H307.282C307.482 89.5708 308.229 89.1641 309.3 89.1641C310.636 89.1641 311.325 89.77 311.325 90.874V91.6875L308.743 91.8452C306.66 91.9697 305.481 92.8911 305.481 94.4932C305.481 96.1284 306.768 97.1577 308.503 97.1577ZM308.768 95.9043C307.731 95.9043 306.959 95.373 306.959 94.46C306.959 93.5635 307.556 93.0903 308.918 92.999L311.325 92.8413V93.6631C311.325 94.9414 310.238 95.9043 308.768 95.9043ZM314.982 97H316.41V91.4551C316.41 90.1934 317.398 89.2803 318.759 89.2803C319.041 89.2803 319.556 89.3301 319.672 89.3633V87.9355C319.49 87.9106 319.191 87.894 318.958 87.894C317.771 87.894 316.742 88.5083 316.476 89.3799H316.344V88.0518H314.982V97ZM320.873 100.046L322.176 95.3232H320.59L319.802 100.046H320.873ZM340.248 88.0518H338.812L337.053 95.207H336.92L334.919 88.0518H333.55L331.549 95.207H331.416L329.657 88.0518H328.212L330.719 97H332.163L334.156 90.0771H334.288L336.289 97H337.742L340.248 88.0518ZM347.342 94.6841C346.969 95.4727 346.188 95.896 345.035 95.896C343.516 95.896 342.528 94.7754 342.453 93.0073V92.9409H348.886V92.3931C348.886 89.6123 347.417 87.894 345.001 87.894C342.544 87.894 340.967 89.7202 340.967 92.5342C340.967 95.3647 342.52 97.1577 345.001 97.1577C346.96 97.1577 348.355 96.2114 348.77 94.6841H347.342ZM344.985 89.1558C346.404 89.1558 347.351 90.2017 347.384 91.7871H342.453C342.561 90.2017 343.557 89.1558 344.985 89.1558ZM351.606 89.4961L353.108 85.022H351.489L350.568 89.4961H351.606ZM355.238 97H356.666V91.4551C356.666 90.1934 357.654 89.2803 359.015 89.2803C359.297 89.2803 359.812 89.3301 359.928 89.3633V87.9355C359.745 87.9106 359.447 87.894 359.214 87.894C358.027 87.894 356.998 88.5083 356.732 89.3799H356.599V88.0518H355.238V97ZM366.98 94.6841C366.607 95.4727 365.827 95.896 364.673 95.896C363.154 95.896 362.166 94.7754 362.091 93.0073V92.9409H368.524V92.3931C368.524 89.6123 367.055 87.894 364.64 87.894C362.183 87.894 360.605 89.7202 360.605 92.5342C360.605 95.3647 362.158 97.1577 364.64 97.1577C366.599 97.1577 367.993 96.2114 368.408 94.6841H366.98ZM364.623 89.1558C366.042 89.1558 366.989 90.2017 367.022 91.7871H362.091C362.199 90.2017 363.195 89.1558 364.623 89.1558ZM378.055 97.1577C379.292 97.1577 380.355 96.5684 380.919 95.5723H381.052V97H382.413V84.499H380.986V89.4629H380.861C380.355 88.4834 379.301 87.894 378.055 87.894C375.781 87.894 374.295 89.7202 374.295 92.5259C374.295 95.3398 375.764 97.1577 378.055 97.1577ZM378.388 89.1807C380.006 89.1807 381.019 90.4756 381.019 92.5259C381.019 94.5928 380.014 95.8711 378.388 95.8711C376.752 95.8711 375.773 94.6177 375.773 92.5259C375.773 90.4424 376.761 89.1807 378.388 89.1807ZM390.703 94.6841C390.329 95.4727 389.549 95.896 388.395 95.896C386.876 95.896 385.888 94.7754 385.813 93.0073V92.9409H392.247V92.3931C392.247 89.6123 390.777 87.894 388.362 87.894C385.905 87.894 384.328 89.7202 384.328 92.5342C384.328 95.3647 385.88 97.1577 388.362 97.1577C390.321 97.1577 391.715 96.2114 392.13 94.6841H390.703ZM388.345 89.1558C389.765 89.1558 390.711 90.2017 390.744 91.7871H385.813C385.921 90.2017 386.917 89.1558 388.345 89.1558ZM394.161 97H395.589V84.499H394.161V97ZM398.698 86.3252C399.246 86.3252 399.694 85.877 399.694 85.3291C399.694 84.7812 399.246 84.333 398.698 84.333C398.15 84.333 397.702 84.7812 397.702 85.3291C397.702 85.877 398.15 86.3252 398.698 86.3252ZM397.984 97H399.412V88.0518H397.984V97ZM405.41 100.437C407.851 100.437 409.394 99.1582 409.394 97.1577V88.0518H408.033V89.4712H407.9C407.386 88.5083 406.282 87.894 405.028 87.894C402.729 87.894 401.276 89.7119 401.276 92.3931C401.276 95.0742 402.712 96.8672 405.028 96.8672C406.257 96.8672 407.269 96.311 407.834 95.3232H407.967V97.083C407.967 98.4028 407.012 99.1914 405.41 99.1914C404.123 99.1914 403.327 98.7183 403.169 97.9878H401.658C401.874 99.4653 403.252 100.437 405.41 100.437ZM405.344 95.6055C403.684 95.6055 402.754 94.3438 402.754 92.3931C402.754 90.4424 403.684 89.1807 405.344 89.1807C406.996 89.1807 408 90.4424 408 92.3931C408 94.3438 407.004 95.6055 405.344 95.6055ZM411.757 97H413.185V91.7041C413.185 90.1934 414.065 89.1807 415.667 89.1807C417.02 89.1807 417.734 89.9692 417.734 91.5547V97H419.161V91.2061C419.161 89.106 417.966 87.894 416.073 87.894C414.704 87.894 413.766 88.4751 413.317 89.4629H413.185V84.499H411.757V97ZM421.955 85.7358V88.0518H420.511V89.2471H421.955V94.6758C421.955 96.3857 422.694 97.0664 424.537 97.0664C424.819 97.0664 425.093 97.0332 425.375 96.9834V95.7798C425.11 95.8047 424.969 95.813 424.711 95.813C423.782 95.813 423.383 95.3647 423.383 94.3105V89.2471H425.375V88.0518H423.383V85.7358H421.955ZM432.917 94.6841C432.544 95.4727 431.764 95.896 430.61 95.896C429.091 95.896 428.103 94.7754 428.028 93.0073V92.9409H434.461V92.3931C434.461 89.6123 432.992 87.894 430.577 87.894C428.12 87.894 426.542 89.7202 426.542 92.5342C426.542 95.3647 428.095 97.1577 430.577 97.1577C432.536 97.1577 433.93 96.2114 434.345 94.6841H432.917ZM430.56 89.1558C431.979 89.1558 432.926 90.2017 432.959 91.7871H428.028C428.136 90.2017 429.132 89.1558 430.56 89.1558ZM439.605 97.1577C440.841 97.1577 441.904 96.5684 442.468 95.5723H442.601V97H443.962V84.499H442.535V89.4629H442.41C441.904 88.4834 440.85 87.894 439.605 87.894C437.33 87.894 435.844 89.7202 435.844 92.5259C435.844 95.3398 437.314 97.1577 439.605 97.1577ZM439.937 89.1807C441.555 89.1807 442.568 90.4756 442.568 92.5259C442.568 94.5928 441.564 95.8711 439.937 95.8711C438.301 95.8711 437.322 94.6177 437.322 92.5259C437.322 90.4424 438.31 89.1807 439.937 89.1807ZM451.31 85.7358V88.0518H449.866V89.2471H451.31V94.6758C451.31 96.3857 452.049 97.0664 453.892 97.0664C454.174 97.0664 454.448 97.0332 454.73 96.9834V95.7798C454.465 95.8047 454.324 95.813 454.066 95.813C453.137 95.813 452.738 95.3647 452.738 94.3105V89.2471H454.73V88.0518H452.738V85.7358H451.31ZM460.023 97.1577C462.571 97.1577 464.148 95.3979 464.148 92.5259C464.148 89.6455 462.571 87.894 460.023 87.894C457.475 87.894 455.898 89.6455 455.898 92.5259C455.898 95.3979 457.475 97.1577 460.023 97.1577ZM460.023 95.8711C458.33 95.8711 457.375 94.6426 457.375 92.5259C457.375 90.4009 458.33 89.1807 460.023 89.1807C461.716 89.1807 462.671 90.4009 462.671 92.5259C462.671 94.6426 461.716 95.8711 460.023 95.8711ZM259.025 119.158C261.573 119.158 263.15 117.398 263.15 114.526C263.15 111.646 261.573 109.894 259.025 109.894C256.476 109.894 254.899 111.646 254.899 114.526C254.899 117.398 256.476 119.158 259.025 119.158ZM259.025 117.871C257.331 117.871 256.377 116.643 256.377 114.526C256.377 112.401 257.331 111.181 259.025 111.181C260.718 111.181 261.673 112.401 261.673 114.526C261.673 116.643 260.718 117.871 259.025 117.871ZM265.579 119H267.007V111.247H269.057V110.052H267.007V109.097C267.007 108.118 267.438 107.62 268.468 107.62C268.725 107.62 268.966 107.628 269.14 107.661V106.499C268.841 106.441 268.526 106.416 268.177 106.416C266.475 106.416 265.579 107.271 265.579 109.056V110.052H264.093V111.247H265.579V119ZM271.328 119H272.756V111.247H274.806V110.052H272.756V109.097C272.756 108.118 273.188 107.62 274.217 107.62C274.474 107.62 274.715 107.628 274.889 107.661V106.499C274.59 106.441 274.275 106.416 273.926 106.416C272.225 106.416 271.328 107.271 271.328 109.056V110.052H269.842V111.247H271.328V119ZM282.025 116.684C281.651 117.473 280.871 117.896 279.717 117.896C278.198 117.896 277.21 116.775 277.135 115.007V114.941H283.569V114.393C283.569 111.612 282.099 109.894 279.684 109.894C277.227 109.894 275.65 111.72 275.65 114.534C275.65 117.365 277.202 119.158 279.684 119.158C281.643 119.158 283.037 118.211 283.452 116.684H282.025ZM279.667 111.156C281.087 111.156 282.033 112.202 282.066 113.787H277.135C277.243 112.202 278.239 111.156 279.667 111.156ZM285.4 119H286.828V113.455C286.828 112.193 287.815 111.28 289.177 111.28C289.459 111.28 289.974 111.33 290.09 111.363V109.936C289.907 109.911 289.608 109.894 289.376 109.894C288.189 109.894 287.16 110.508 286.894 111.38H286.761V110.052H285.4V119ZM296.616 122.237C298.201 122.237 298.915 121.623 299.679 119.548L303.174 110.052H301.655L299.206 117.415H299.073L296.616 110.052H295.072L298.384 119.008L298.218 119.54C297.844 120.619 297.396 121.009 296.574 121.009C296.375 121.009 296.151 121 295.977 120.967V122.188C296.176 122.221 296.425 122.237 296.616 122.237ZM308.018 119.158C310.566 119.158 312.143 117.398 312.143 114.526C312.143 111.646 310.566 109.894 308.018 109.894C305.47 109.894 303.892 111.646 303.892 114.526C303.892 117.398 305.47 119.158 308.018 119.158ZM308.018 117.871C306.325 117.871 305.37 116.643 305.37 114.526C305.37 112.401 306.325 111.181 308.018 111.181C309.711 111.181 310.666 112.401 310.666 114.526C310.666 116.643 309.711 117.871 308.018 117.871ZM321.213 110.052H319.785V115.348C319.785 116.917 318.922 117.854 317.345 117.854C315.917 117.854 315.319 117.107 315.319 115.497V110.052H313.892V115.846C313.892 117.962 314.938 119.158 316.946 119.158C318.316 119.158 319.271 118.593 319.719 117.597H319.852V119H321.213V110.052ZM330.37 119.158C331.566 119.158 332.545 118.635 333.126 117.68H333.259V119H334.62V112.874C334.62 111.015 333.4 109.894 331.217 109.894C329.308 109.894 327.897 110.84 327.706 112.276H329.15C329.349 111.571 330.097 111.164 331.167 111.164C332.504 111.164 333.193 111.77 333.193 112.874V113.688L330.611 113.845C328.528 113.97 327.349 114.891 327.349 116.493C327.349 118.128 328.636 119.158 330.37 119.158ZM330.636 117.904C329.598 117.904 328.827 117.373 328.827 116.46C328.827 115.563 329.424 115.09 330.785 114.999L333.193 114.841V115.663C333.193 116.941 332.105 117.904 330.636 117.904ZM341.321 119H342.749V113.704C342.749 112.193 343.629 111.181 345.231 111.181C346.584 111.181 347.298 111.969 347.298 113.555V119H348.725V113.206C348.725 111.106 347.53 109.894 345.637 109.894C344.268 109.894 343.33 110.475 342.882 111.463H342.749V106.499H341.321V119ZM353.412 119.158C354.607 119.158 355.587 118.635 356.168 117.68H356.301V119H357.662V112.874C357.662 111.015 356.442 109.894 354.259 109.894C352.349 109.894 350.938 110.84 350.747 112.276H352.192C352.391 111.571 353.138 111.164 354.209 111.164C355.545 111.164 356.234 111.77 356.234 112.874V113.688L353.653 113.845C351.569 113.97 350.39 114.891 350.39 116.493C350.39 118.128 351.677 119.158 353.412 119.158ZM353.678 117.904C352.64 117.904 351.868 117.373 351.868 116.46C351.868 115.563 352.466 115.09 353.827 114.999L356.234 114.841V115.663C356.234 116.941 355.147 117.904 353.678 117.904ZM359.892 119H361.319V113.704C361.319 112.135 362.241 111.181 363.668 111.181C365.096 111.181 365.777 111.944 365.777 113.555V119H367.205V113.206C367.205 111.081 366.084 109.894 364.075 109.894C362.706 109.894 361.834 110.475 361.386 111.463H361.253V110.052H359.892V119ZM372.721 119.158C373.958 119.158 375.021 118.568 375.585 117.572H375.718V119H377.079V106.499H375.652V111.463H375.527C375.021 110.483 373.966 109.894 372.721 109.894C370.447 109.894 368.961 111.72 368.961 114.526C368.961 117.34 370.43 119.158 372.721 119.158ZM373.053 111.181C374.672 111.181 375.685 112.476 375.685 114.526C375.685 116.593 374.68 117.871 373.053 117.871C371.418 117.871 370.439 116.618 370.439 114.526C370.439 112.442 371.426 111.181 373.053 111.181ZM379.234 112.5C379.234 113.795 379.998 114.518 381.675 114.924L383.21 115.298C384.165 115.53 384.63 115.945 384.63 116.56C384.63 117.381 383.766 117.954 382.563 117.954C381.417 117.954 380.703 117.473 380.463 116.717H378.993C379.151 118.203 380.521 119.158 382.513 119.158C384.547 119.158 386.099 118.054 386.099 116.452C386.099 115.165 385.285 114.435 383.6 114.028L382.222 113.696C381.168 113.438 380.67 113.057 380.67 112.442C380.67 111.646 381.5 111.106 382.563 111.106C383.642 111.106 384.339 111.579 384.53 112.293H385.941C385.75 110.824 384.447 109.894 382.571 109.894C380.67 109.894 379.234 111.015 379.234 112.5ZM393.857 116.684C393.483 117.473 392.703 117.896 391.549 117.896C390.03 117.896 389.042 116.775 388.968 115.007V114.941H395.401V114.393C395.401 111.612 393.932 109.894 391.516 109.894C389.059 109.894 387.482 111.72 387.482 114.534C387.482 117.365 389.034 119.158 391.516 119.158C393.475 119.158 394.87 118.211 395.285 116.684H393.857ZM391.499 111.156C392.919 111.156 393.865 112.202 393.898 113.787H388.968C389.076 112.202 390.072 111.156 391.499 111.156ZM397.83 107.736V110.052H396.385V111.247H397.83V116.676C397.83 118.386 398.568 119.066 400.411 119.066C400.693 119.066 400.967 119.033 401.25 118.983V117.78C400.984 117.805 400.843 117.813 400.586 117.813C399.656 117.813 399.257 117.365 399.257 116.311V111.247H401.25V110.052H399.257V107.736H397.83ZM414.624 110.052H413.196V115.348C413.196 116.917 412.333 117.854 410.756 117.854C409.328 117.854 408.73 117.107 408.73 115.497V110.052H407.303V115.846C407.303 117.962 408.349 119.158 410.357 119.158C411.727 119.158 412.682 118.593 413.13 117.597H413.263V119H414.624V110.052ZM421.261 109.894C420.041 109.894 418.97 110.517 418.398 111.546H418.265V110.052H416.903V121.988H418.331V117.655H418.464C418.954 118.602 419.983 119.158 421.261 119.158C423.536 119.158 425.022 117.323 425.022 114.526C425.022 111.712 423.544 109.894 421.261 109.894ZM420.921 117.871C419.311 117.871 418.29 116.576 418.29 114.526C418.29 112.467 419.311 111.181 420.929 111.181C422.565 111.181 423.544 112.434 423.544 114.526C423.544 116.618 422.565 117.871 420.921 117.871ZM430.538 122.437C432.979 122.437 434.523 121.158 434.523 119.158V110.052H433.161V111.471H433.029C432.514 110.508 431.41 109.894 430.157 109.894C427.857 109.894 426.405 111.712 426.405 114.393C426.405 117.074 427.841 118.867 430.157 118.867C431.385 118.867 432.398 118.311 432.962 117.323H433.095V119.083C433.095 120.403 432.14 121.191 430.538 121.191C429.252 121.191 428.455 120.718 428.297 119.988H426.786C427.002 121.465 428.38 122.437 430.538 122.437ZM430.472 117.605C428.812 117.605 427.882 116.344 427.882 114.393C427.882 112.442 428.812 111.181 430.472 111.181C432.124 111.181 433.128 112.442 433.128 114.393C433.128 116.344 432.132 117.605 430.472 117.605ZM436.802 119H438.23V113.455C438.23 112.193 439.218 111.28 440.579 111.28C440.861 111.28 441.376 111.33 441.492 111.363V109.936C441.31 109.911 441.011 109.894 440.778 109.894C439.591 109.894 438.562 110.508 438.296 111.38H438.164V110.052H436.802V119ZM445.357 119.158C446.552 119.158 447.532 118.635 448.113 117.68H448.246V119H449.607V112.874C449.607 111.015 448.387 109.894 446.204 109.894C444.295 109.894 442.883 110.84 442.692 112.276H444.137C444.336 111.571 445.083 111.164 446.154 111.164C447.49 111.164 448.179 111.77 448.179 112.874V113.688L445.598 113.845C443.514 113.97 442.336 114.891 442.336 116.493C442.336 118.128 443.622 119.158 445.357 119.158ZM445.623 117.904C444.585 117.904 443.813 117.373 443.813 116.46C443.813 115.563 444.411 115.09 445.772 114.999L448.179 114.841V115.663C448.179 116.941 447.092 117.904 445.623 117.904ZM455.149 119.158C456.385 119.158 457.448 118.568 458.012 117.572H458.145V119H459.507V106.499H458.079V111.463H457.954C457.448 110.483 456.394 109.894 455.149 109.894C452.874 109.894 451.388 111.72 451.388 114.526C451.388 117.34 452.858 119.158 455.149 119.158ZM455.481 111.181C457.099 111.181 458.112 112.476 458.112 114.526C458.112 116.593 457.108 117.871 455.481 117.871C453.845 117.871 452.866 116.618 452.866 114.526C452.866 112.442 453.854 111.181 455.481 111.181ZM467.796 116.684C467.422 117.473 466.642 117.896 465.488 117.896C463.969 117.896 462.981 116.775 462.907 115.007V114.941H469.34V114.393C469.34 111.612 467.871 109.894 465.455 109.894C462.998 109.894 461.421 111.72 461.421 114.534C461.421 117.365 462.973 119.158 465.455 119.158C467.414 119.158 468.809 118.211 469.224 116.684H467.796ZM465.438 111.156C466.858 111.156 467.804 112.202 467.837 113.787H462.907C463.015 112.202 464.011 111.156 465.438 111.156ZM266.603 132.052H265.167L263.407 139.207H263.275L261.274 132.052H259.905L257.904 139.207H257.771L256.011 132.052H254.567L257.074 141H258.518L260.51 134.077H260.643L262.644 141H264.096L266.603 132.052ZM268.85 130.325C269.397 130.325 269.846 129.877 269.846 129.329C269.846 128.781 269.397 128.333 268.85 128.333C268.302 128.333 267.853 128.781 267.853 129.329C267.853 129.877 268.302 130.325 268.85 130.325ZM268.136 141H269.563V132.052H268.136V141ZM272.474 129.736V132.052H271.029V133.247H272.474V138.676C272.474 140.386 273.212 141.066 275.055 141.066C275.337 141.066 275.611 141.033 275.894 140.983V139.78C275.628 139.805 275.487 139.813 275.23 139.813C274.3 139.813 273.901 139.365 273.901 138.311V133.247H275.894V132.052H273.901V129.736H272.474ZM277.725 141H279.153V135.704C279.153 134.193 280.032 133.181 281.635 133.181C282.988 133.181 283.701 133.969 283.701 135.555V141H285.129V135.206C285.129 133.106 283.934 131.894 282.041 131.894C280.672 131.894 279.734 132.475 279.285 133.463H279.153V128.499H277.725V141ZM292.477 144.237C294.063 144.237 294.776 143.623 295.54 141.548L299.035 132.052H297.516L295.067 139.415H294.934L292.477 132.052H290.933L294.245 141.008L294.079 141.54C293.706 142.619 293.257 143.009 292.436 143.009C292.236 143.009 292.012 143 291.838 142.967V144.188C292.037 144.221 292.286 144.237 292.477 144.237ZM303.879 141.158C306.427 141.158 308.005 139.398 308.005 136.526C308.005 133.646 306.427 131.894 303.879 131.894C301.331 131.894 299.754 133.646 299.754 136.526C299.754 139.398 301.331 141.158 303.879 141.158ZM303.879 139.871C302.186 139.871 301.231 138.643 301.231 136.526C301.231 134.401 302.186 133.181 303.879 133.181C305.572 133.181 306.527 134.401 306.527 136.526C306.527 138.643 305.572 139.871 303.879 139.871ZM317.074 132.052H315.646V137.348C315.646 138.917 314.783 139.854 313.206 139.854C311.778 139.854 311.181 139.107 311.181 137.497V132.052H309.753V137.846C309.753 139.962 310.799 141.158 312.807 141.158C314.177 141.158 315.132 140.593 315.58 139.597H315.713V141H317.074V132.052ZM319.354 141H320.781V135.455C320.781 134.193 321.769 133.28 323.13 133.28C323.413 133.28 323.927 133.33 324.043 133.363V131.936C323.861 131.911 323.562 131.894 323.33 131.894C322.143 131.894 321.113 132.508 320.848 133.38H320.715V132.052H319.354V141ZM329.806 141H331.234V135.704C331.234 134.135 332.155 133.181 333.583 133.181C335.011 133.181 335.691 133.944 335.691 135.555V141H337.119V135.206C337.119 133.081 335.998 131.894 333.99 131.894C332.62 131.894 331.748 132.475 331.3 133.463H331.167V132.052H329.806V141ZM345.25 138.684C344.877 139.473 344.097 139.896 342.943 139.896C341.424 139.896 340.436 138.775 340.361 137.007V136.941H346.794V136.393C346.794 133.612 345.325 131.894 342.91 131.894C340.453 131.894 338.875 133.72 338.875 136.534C338.875 139.365 340.428 141.158 342.91 141.158C344.869 141.158 346.263 140.211 346.678 138.684H345.25ZM342.893 133.156C344.313 133.156 345.259 134.202 345.292 135.787H340.361C340.469 134.202 341.465 133.156 342.893 133.156ZM359.882 132.052H358.445L356.686 139.207H356.553L354.552 132.052H353.183L351.182 139.207H351.049L349.29 132.052H347.845L350.352 141H351.797L353.789 134.077H353.922L355.922 141H357.375L359.882 132.052ZM370.126 131.894C368.906 131.894 367.835 132.517 367.263 133.546H367.13V132.052H365.769V143.988H367.196V139.655H367.329C367.819 140.602 368.848 141.158 370.126 141.158C372.401 141.158 373.887 139.323 373.887 136.526C373.887 133.712 372.409 131.894 370.126 131.894ZM369.786 139.871C368.176 139.871 367.155 138.576 367.155 136.526C367.155 134.467 368.176 133.181 369.794 133.181C371.43 133.181 372.409 134.434 372.409 136.526C372.409 138.618 371.43 139.871 369.786 139.871ZM375.801 141H377.229V128.499H375.801V141ZM382.081 141.158C383.277 141.158 384.256 140.635 384.837 139.68H384.97V141H386.331V134.874C386.331 133.015 385.111 131.894 382.928 131.894C381.019 131.894 379.608 132.84 379.417 134.276H380.861C381.06 133.571 381.807 133.164 382.878 133.164C384.215 133.164 384.904 133.77 384.904 134.874V135.688L382.322 135.845C380.239 135.97 379.06 136.891 379.06 138.493C379.06 140.128 380.346 141.158 382.081 141.158ZM382.347 139.904C381.309 139.904 380.537 139.373 380.537 138.46C380.537 137.563 381.135 137.09 382.496 136.999L384.904 136.841V137.663C384.904 138.941 383.816 139.904 382.347 139.904ZM388.561 141H389.989V135.704C389.989 134.135 390.91 133.181 392.338 133.181C393.766 133.181 394.446 133.944 394.446 135.555V141H395.874V135.206C395.874 133.081 394.753 131.894 392.745 131.894C391.375 131.894 390.503 132.475 390.055 133.463H389.922V132.052H388.561V141ZM399.257 141.083C399.855 141.083 400.337 140.593 400.337 140.004C400.337 139.406 399.855 138.925 399.257 138.925C398.668 138.925 398.178 139.406 398.178 140.004C398.178 140.593 398.668 141.083 399.257 141.083ZM407.286 129.022V141H408.78V136.725H411.793C414.043 136.725 415.645 135.14 415.645 132.898C415.645 130.616 414.076 129.022 411.81 129.022H407.286ZM408.78 130.35H411.42C413.155 130.35 414.109 131.255 414.109 132.898C414.109 134.484 413.122 135.397 411.42 135.397H408.78V130.35ZM417.584 141H419.012V128.499H417.584V141ZM427.301 138.684C426.928 139.473 426.147 139.896 424.993 139.896C423.474 139.896 422.487 138.775 422.412 137.007V136.941H428.845V136.393C428.845 133.612 427.376 131.894 424.96 131.894C422.503 131.894 420.926 133.72 420.926 136.534C420.926 139.365 422.478 141.158 424.96 141.158C426.919 141.158 428.314 140.211 428.729 138.684H427.301ZM424.944 133.156C426.363 133.156 427.309 134.202 427.343 135.787H422.412C422.52 134.202 423.516 133.156 424.944 133.156ZM433.166 141.158C434.362 141.158 435.341 140.635 435.922 139.68H436.055V141H437.416V134.874C437.416 133.015 436.196 131.894 434.013 131.894C432.104 131.894 430.693 132.84 430.502 134.276H431.946C432.145 133.571 432.893 133.164 433.963 133.164C435.3 133.164 435.989 133.77 435.989 134.874V135.688L433.407 135.845C431.324 135.97 430.145 136.891 430.145 138.493C430.145 140.128 431.432 141.158 433.166 141.158ZM433.432 139.904C432.394 139.904 431.622 139.373 431.622 138.46C431.622 137.563 432.22 137.09 433.581 136.999L435.989 136.841V137.663C435.989 138.941 434.901 139.904 433.432 139.904ZM439.439 134.5C439.439 135.795 440.202 136.518 441.879 136.924L443.415 137.298C444.369 137.53 444.834 137.945 444.834 138.56C444.834 139.381 443.971 139.954 442.767 139.954C441.622 139.954 440.908 139.473 440.667 138.717H439.198C439.356 140.203 440.725 141.158 442.717 141.158C444.751 141.158 446.303 140.054 446.303 138.452C446.303 137.165 445.49 136.435 443.805 136.028L442.427 135.696C441.373 135.438 440.875 135.057 440.875 134.442C440.875 133.646 441.705 133.106 442.767 133.106C443.846 133.106 444.544 133.579 444.734 134.293H446.146C445.955 132.824 444.651 131.894 442.775 131.894C440.875 131.894 439.439 133.015 439.439 134.5ZM454.061 138.684C453.688 139.473 452.907 139.896 451.754 139.896C450.235 139.896 449.247 138.775 449.172 137.007V136.941H455.605V136.393C455.605 133.612 454.136 131.894 451.72 131.894C449.263 131.894 447.686 133.72 447.686 136.534C447.686 139.365 449.239 141.158 451.72 141.158C453.679 141.158 455.074 140.211 455.489 138.684H454.061ZM451.704 133.156C453.123 133.156 454.07 134.202 454.103 135.787H449.172C449.28 134.202 450.276 133.156 451.704 133.156ZM255.945 163H257.373V155.247H259.423V154.052H257.373V153.097C257.373 152.118 257.804 151.62 258.834 151.62C259.091 151.62 259.332 151.628 259.506 151.661V150.499C259.207 150.441 258.892 150.416 258.543 150.416C256.842 150.416 255.945 151.271 255.945 153.056V154.052H254.459V155.247H255.945V163ZM264.392 163.158C266.94 163.158 268.517 161.398 268.517 158.526C268.517 155.646 266.94 153.894 264.392 153.894C261.844 153.894 260.267 155.646 260.267 158.526C260.267 161.398 261.844 163.158 264.392 163.158ZM264.392 161.871C262.699 161.871 261.744 160.643 261.744 158.526C261.744 156.401 262.699 155.181 264.392 155.181C266.085 155.181 267.04 156.401 267.04 158.526C267.04 160.643 266.085 161.871 264.392 161.871ZM270.432 163H271.859V150.499H270.432V163ZM274.305 163H275.733V150.499H274.305V163ZM281.772 163.158C284.321 163.158 285.898 161.398 285.898 158.526C285.898 155.646 284.321 153.894 281.772 153.894C279.224 153.894 277.647 155.646 277.647 158.526C277.647 161.398 279.224 163.158 281.772 163.158ZM281.772 161.871C280.079 161.871 279.124 160.643 279.124 158.526C279.124 156.401 280.079 155.181 281.772 155.181C283.466 155.181 284.42 156.401 284.42 158.526C284.42 160.643 283.466 161.871 281.772 161.871ZM298.653 154.052H297.217L295.457 161.207H295.324L293.324 154.052H291.954L289.954 161.207H289.821L288.061 154.052H286.617L289.124 163H290.568L292.56 156.077H292.693L294.693 163H296.146L298.653 154.052ZM305.138 151.736V154.052H303.693V155.247H305.138V160.676C305.138 162.386 305.876 163.066 307.719 163.066C308.001 163.066 308.275 163.033 308.557 162.983V161.78C308.292 161.805 308.151 161.813 307.893 161.813C306.964 161.813 306.565 161.365 306.565 160.311V155.247H308.557V154.052H306.565V151.736H305.138ZM310.389 163H311.816V157.704C311.816 156.193 312.696 155.181 314.298 155.181C315.651 155.181 316.365 155.969 316.365 157.555V163H317.793V157.206C317.793 155.106 316.598 153.894 314.705 153.894C313.335 153.894 312.397 154.475 311.949 155.463H311.816V150.499H310.389V163ZM325.916 160.684C325.543 161.473 324.762 161.896 323.609 161.896C322.09 161.896 321.102 160.775 321.027 159.007V158.941H327.46V158.393C327.46 155.612 325.991 153.894 323.575 153.894C321.118 153.894 319.541 155.72 319.541 158.534C319.541 161.365 321.093 163.158 323.575 163.158C325.534 163.158 326.929 162.211 327.344 160.684H325.916ZM323.559 155.156C324.978 155.156 325.924 156.202 325.958 157.787H321.027C321.135 156.202 322.131 155.156 323.559 155.156ZM333.472 156.5C333.472 157.795 334.235 158.518 335.912 158.924L337.448 159.298C338.402 159.53 338.867 159.945 338.867 160.56C338.867 161.381 338.004 161.954 336.8 161.954C335.655 161.954 334.941 161.473 334.7 160.717H333.231C333.389 162.203 334.758 163.158 336.75 163.158C338.784 163.158 340.336 162.054 340.336 160.452C340.336 159.165 339.523 158.435 337.838 158.028L336.46 157.696C335.406 157.438 334.908 157.057 334.908 156.442C334.908 155.646 335.738 155.106 336.8 155.106C337.879 155.106 338.577 155.579 338.768 156.293H340.179C339.988 154.824 338.685 153.894 336.809 153.894C334.908 153.894 333.472 155.015 333.472 156.5ZM348.094 160.684C347.721 161.473 346.941 161.896 345.787 161.896C344.268 161.896 343.28 160.775 343.205 159.007V158.941H349.638V158.393C349.638 155.612 348.169 153.894 345.754 153.894C343.297 153.894 341.719 155.72 341.719 158.534C341.719 161.365 343.272 163.158 345.754 163.158C347.713 163.158 349.107 162.211 349.522 160.684H348.094ZM345.737 155.156C347.156 155.156 348.103 156.202 348.136 157.787H343.205C343.313 156.202 344.309 155.156 345.737 155.156ZM358.874 156.791C358.625 155.197 357.297 153.894 355.122 153.894C352.615 153.894 351.021 155.704 351.021 158.493C351.021 161.34 352.623 163.158 355.13 163.158C357.28 163.158 358.617 161.946 358.874 160.302H357.43C357.164 161.315 356.326 161.871 355.122 161.871C353.528 161.871 352.499 160.56 352.499 158.493C352.499 156.467 353.512 155.181 355.122 155.181C356.409 155.181 357.197 155.903 357.43 156.791H358.874ZM367.811 154.052H366.383V159.348C366.383 160.917 365.52 161.854 363.942 161.854C362.515 161.854 361.917 161.107 361.917 159.497V154.052H360.489V159.846C360.489 161.962 361.535 163.158 363.544 163.158C364.914 163.158 365.868 162.593 366.316 161.597H366.449V163H367.811V154.052ZM370.09 163H371.518V157.455C371.518 156.193 372.506 155.28 373.867 155.28C374.149 155.28 374.664 155.33 374.78 155.363V153.936C374.597 153.911 374.298 153.894 374.066 153.894C372.879 153.894 371.85 154.508 371.584 155.38H371.451V154.052H370.09V163ZM381.832 160.684C381.459 161.473 380.679 161.896 379.525 161.896C378.006 161.896 377.018 160.775 376.943 159.007V158.941H383.376V158.393C383.376 155.612 381.907 153.894 379.492 153.894C377.034 153.894 375.457 155.72 375.457 158.534C375.457 161.365 377.01 163.158 379.492 163.158C381.451 163.158 382.845 162.211 383.26 160.684H381.832ZM379.475 155.156C380.894 155.156 381.841 156.202 381.874 157.787H376.943C377.051 156.202 378.047 155.156 379.475 155.156ZM389.678 163H391.106V150.499H389.678V163ZM394.216 152.325C394.763 152.325 395.212 151.877 395.212 151.329C395.212 150.781 394.763 150.333 394.216 150.333C393.668 150.333 393.22 150.781 393.22 151.329C393.22 151.877 393.668 152.325 394.216 152.325ZM393.502 163H394.929V154.052H393.502V163ZM397.242 163H398.67V157.704C398.67 156.135 399.591 155.181 401.019 155.181C402.447 155.181 403.127 155.944 403.127 157.555V163H404.555V157.206C404.555 155.081 403.435 153.894 401.426 153.894C400.056 153.894 399.185 154.475 398.736 155.463H398.603V154.052H397.242V163ZM408.403 157.961H408.271V150.499H406.843V163H408.271V159.605L409.126 158.808L412.479 163H414.297L410.188 157.887L414.04 154.052H412.288L408.403 157.961ZM420.566 151.736V154.052H419.122V155.247H420.566V160.676C420.566 162.386 421.305 163.066 423.147 163.066C423.43 163.066 423.704 163.033 423.986 162.983V161.78C423.72 161.805 423.579 161.813 423.322 161.813C422.392 161.813 421.994 161.365 421.994 160.311V155.247H423.986V154.052H421.994V151.736H420.566ZM429.278 163.158C431.827 163.158 433.404 161.398 433.404 158.526C433.404 155.646 431.827 153.894 429.278 153.894C426.73 153.894 425.153 155.646 425.153 158.526C425.153 161.398 426.73 163.158 429.278 163.158ZM429.278 161.871C427.585 161.871 426.63 160.643 426.63 158.526C426.63 156.401 427.585 155.181 429.278 155.181C430.972 155.181 431.926 156.401 431.926 158.526C431.926 160.643 430.972 161.871 429.278 161.871ZM255.347 185H256.775V179.455C256.775 178.193 257.68 177.181 258.85 177.181C259.979 177.181 260.718 177.861 260.718 178.924V185H262.146V179.248C262.146 178.11 262.976 177.181 264.221 177.181C265.483 177.181 266.105 177.828 266.105 179.148V185H267.533V178.816C267.533 176.94 266.512 175.894 264.686 175.894C263.449 175.894 262.428 176.517 261.947 177.463H261.814C261.399 176.533 260.552 175.894 259.34 175.894C258.145 175.894 257.248 176.467 256.842 177.463H256.709V176.052H255.347V185ZM272.22 185.158C273.415 185.158 274.394 184.635 274.975 183.68H275.108V185H276.47V178.874C276.47 177.015 275.249 175.894 273.066 175.894C271.157 175.894 269.746 176.84 269.555 178.276H270.999C271.199 177.571 271.946 177.164 273.017 177.164C274.353 177.164 275.042 177.77 275.042 178.874V179.688L272.46 179.845C270.377 179.97 269.198 180.891 269.198 182.493C269.198 184.128 270.485 185.158 272.22 185.158ZM272.485 183.904C271.448 183.904 270.676 183.373 270.676 182.46C270.676 181.563 271.273 181.09 272.635 180.999L275.042 180.841V181.663C275.042 182.941 273.955 183.904 272.485 183.904ZM280.343 179.961H280.21V172.499H278.782V185H280.21V181.605L281.065 180.808L284.419 185H286.236L282.128 179.887L285.979 176.052H284.228L280.343 179.961ZM293.031 182.684C292.658 183.473 291.878 183.896 290.724 183.896C289.205 183.896 288.217 182.775 288.142 181.007V180.941H294.575V180.393C294.575 177.612 293.106 175.894 290.691 175.894C288.234 175.894 286.656 177.72 286.656 180.534C286.656 183.365 288.209 185.158 290.691 185.158C292.65 185.158 294.044 184.211 294.459 182.684H293.031ZM290.674 177.156C292.093 177.156 293.04 178.202 293.073 179.787H288.142C288.25 178.202 289.246 177.156 290.674 177.156ZM305.152 175.894C303.932 175.894 302.861 176.517 302.289 177.546H302.156V176.052H300.794V187.988H302.222V183.655H302.355C302.845 184.602 303.874 185.158 305.152 185.158C307.427 185.158 308.913 183.323 308.913 180.526C308.913 177.712 307.435 175.894 305.152 175.894ZM304.812 183.871C303.202 183.871 302.181 182.576 302.181 180.526C302.181 178.467 303.202 177.181 304.82 177.181C306.456 177.181 307.435 178.434 307.435 180.526C307.435 182.618 306.456 183.871 304.812 183.871ZM313.234 185.158C314.429 185.158 315.409 184.635 315.99 183.68H316.123V185H317.484V178.874C317.484 177.015 316.264 175.894 314.081 175.894C312.172 175.894 310.76 176.84 310.57 178.276H312.014C312.213 177.571 312.96 177.164 314.031 177.164C315.367 177.164 316.056 177.77 316.056 178.874V179.688L313.475 179.845C311.391 179.97 310.213 180.891 310.213 182.493C310.213 184.128 311.499 185.158 313.234 185.158ZM313.5 183.904C312.462 183.904 311.69 183.373 311.69 182.46C311.69 181.563 312.288 181.09 313.649 180.999L316.056 180.841V181.663C316.056 182.941 314.969 183.904 313.5 183.904ZM320.145 188.237C321.731 188.237 322.445 187.623 323.208 185.548L326.703 176.052H325.184L322.735 183.415H322.602L320.145 176.052H318.601L321.913 185.008L321.747 185.54C321.374 186.619 320.926 187.009 320.104 187.009C319.905 187.009 319.681 187 319.506 186.967V188.188C319.705 188.221 319.954 188.237 320.145 188.237ZM328.202 185H329.63V179.455C329.63 178.193 330.535 177.181 331.705 177.181C332.834 177.181 333.573 177.861 333.573 178.924V185H335.001V179.248C335.001 178.11 335.831 177.181 337.076 177.181C338.337 177.181 338.96 177.828 338.96 179.148V185H340.388V178.816C340.388 176.94 339.367 175.894 337.541 175.894C336.304 175.894 335.283 176.517 334.801 177.463H334.668C334.253 176.533 333.407 175.894 332.195 175.894C331 175.894 330.103 176.467 329.696 177.463H329.564V176.052H328.202V185ZM348.511 182.684C348.137 183.473 347.357 183.896 346.203 183.896C344.684 183.896 343.696 182.775 343.622 181.007V180.941H350.055V180.393C350.055 177.612 348.586 175.894 346.17 175.894C343.713 175.894 342.136 177.72 342.136 180.534C342.136 183.365 343.688 185.158 346.17 185.158C348.129 185.158 349.524 184.211 349.939 182.684H348.511ZM346.154 177.156C347.573 177.156 348.519 178.202 348.552 179.787H343.622C343.73 178.202 344.726 177.156 346.154 177.156ZM351.886 185H353.314V179.704C353.314 178.135 354.235 177.181 355.663 177.181C357.091 177.181 357.771 177.944 357.771 179.555V185H359.199V179.206C359.199 177.081 358.078 175.894 356.07 175.894C354.7 175.894 353.828 176.475 353.38 177.463H353.247V176.052H351.886V185ZM362.001 173.736V176.052H360.557V177.247H362.001V182.676C362.001 184.386 362.74 185.066 364.583 185.066C364.865 185.066 365.139 185.033 365.421 184.983V183.78C365.156 183.805 365.015 183.813 364.757 183.813C363.828 183.813 363.429 183.365 363.429 182.311V177.247H365.421V176.052H363.429V173.736H362.001ZM368.348 185.083C368.946 185.083 369.427 184.593 369.427 184.004C369.427 183.406 368.946 182.925 368.348 182.925C367.759 182.925 367.269 183.406 367.269 184.004C367.269 184.593 367.759 185.083 368.348 185.083ZM380.984 185V174.367H384.844V173.022H375.63V174.367H379.49V185H380.984ZM386.642 185H388.069V179.704C388.069 178.193 388.949 177.181 390.551 177.181C391.904 177.181 392.618 177.969 392.618 179.555V185H394.046V179.206C394.046 177.106 392.851 175.894 390.958 175.894C389.589 175.894 388.651 176.475 388.202 177.463H388.069V172.499H386.642V185ZM398.733 185.158C399.928 185.158 400.908 184.635 401.489 183.68H401.621V185H402.983V178.874C402.983 177.015 401.763 175.894 399.579 175.894C397.67 175.894 396.259 176.84 396.068 178.276H397.513C397.712 177.571 398.459 177.164 399.53 177.164C400.866 177.164 401.555 177.77 401.555 178.874V179.688L398.973 179.845C396.89 179.97 395.711 180.891 395.711 182.493C395.711 184.128 396.998 185.158 398.733 185.158ZM398.998 183.904C397.961 183.904 397.189 183.373 397.189 182.46C397.189 181.563 397.786 181.09 399.148 180.999L401.555 180.841V181.663C401.555 182.941 400.468 183.904 398.998 183.904ZM405.212 185H406.64V179.704C406.64 178.135 407.561 177.181 408.989 177.181C410.417 177.181 411.098 177.944 411.098 179.555V185H412.525V179.206C412.525 177.081 411.405 175.894 409.396 175.894C408.026 175.894 407.155 176.475 406.707 177.463H406.574V176.052H405.212V185ZM416.374 179.961H416.241V172.499H414.813V185H416.241V181.605L417.096 180.808L420.449 185H422.267L418.158 179.887L422.01 176.052H420.258L416.374 179.961ZM428.702 188.237C430.288 188.237 431.001 187.623 431.765 185.548L435.26 176.052H433.741L431.292 183.415H431.159L428.702 176.052H427.158L430.47 185.008L430.304 185.54C429.931 186.619 429.482 187.009 428.661 187.009C428.461 187.009 428.237 187 428.063 186.967V188.188C428.262 188.221 428.511 188.237 428.702 188.237ZM440.104 185.158C442.652 185.158 444.23 183.398 444.23 180.526C444.23 177.646 442.652 175.894 440.104 175.894C437.556 175.894 435.979 177.646 435.979 180.526C435.979 183.398 437.556 185.158 440.104 185.158ZM440.104 183.871C438.411 183.871 437.456 182.643 437.456 180.526C437.456 178.401 438.411 177.181 440.104 177.181C441.797 177.181 442.752 178.401 442.752 180.526C442.752 182.643 441.797 183.871 440.104 183.871ZM453.299 176.052H451.871V181.348C451.871 182.917 451.008 183.854 449.431 183.854C448.003 183.854 447.406 183.107 447.406 181.497V176.052H445.978V181.846C445.978 183.962 447.024 185.158 449.032 185.158C450.402 185.158 451.357 184.593 451.805 183.597H451.938V185H453.299V176.052ZM456.757 185.083C457.355 185.083 457.836 184.593 457.836 184.004C457.836 183.406 457.355 182.925 456.757 182.925C456.168 182.925 455.678 183.406 455.678 184.004C455.678 184.593 456.168 185.083 456.757 185.083Z" fill="white"/>
<path fill-rule="evenodd" clip-rule="evenodd" d="M469.5 225C469.5 215.611 461.889 208 452.5 208H221C211.611 208 204 215.611 204 225V360.5C204 369.889 211.611 377.5 221 377.5H452.5C461.889 377.5 469.5 369.889 469.5 360.5V225ZM198 377.5C201.4 376.167 203.975 372.867 204 369L204 359.5L204 360.504C204 366.076 206.684 371.021 210.827 374.121C207.086 376.247 202.604 377.471 198 377.5Z" fill="#E5E6EA"/>
<path fill-rule="evenodd" clip-rule="evenodd" d="M204 225C204 215.611 211.611 208 221 208H452.5C461.889 208 469.5 215.611 469.5 225V329.5H204L204 225Z" fill="#24A768"/>
<path d="M234.06 243.4V240.75H226.109C226.654 240.111 226.859 239.301 226.816 238.304L226.748 236.506H230.583V233.923H226.654L226.543 231C226.535 229.159 227.651 228.307 228.913 228.307C230.148 228.307 231.282 228.997 231.171 230.548L234.129 230.795C234.435 227.974 232.288 225.707 228.836 225.707C225.827 225.707 223.33 227.54 223.458 231L223.56 233.923H221.694V236.506H223.646L223.714 238.44C223.739 239.378 223.56 240.639 222.717 240.75H221.754V243.4H234.06ZM237.448 243.4H249.414V240.758H241.812V240.639L244.82 237.579C248.212 234.324 249.15 232.738 249.15 230.77C249.15 227.846 246.772 225.707 243.261 225.707C239.8 225.707 237.346 227.855 237.346 231.17H240.354C240.354 229.389 241.479 228.273 243.218 228.273C244.88 228.273 246.116 229.287 246.116 230.932C246.116 232.389 245.229 233.429 243.508 235.176L237.448 241.116V243.4ZM258.559 243.639C262.334 243.639 265.036 241.559 265.045 238.721C265.036 236.54 263.425 234.716 261.397 234.375V234.256C263.161 233.863 264.388 232.278 264.397 230.386C264.388 227.702 261.917 225.707 258.559 225.707C255.175 225.707 252.704 227.693 252.712 230.386C252.704 232.278 253.914 233.863 255.712 234.256V234.375C253.65 234.716 252.056 236.54 252.065 238.721C252.056 241.559 254.749 243.639 258.559 243.639ZM258.559 241.202C256.582 241.202 255.303 240.111 255.32 238.5C255.303 236.829 256.675 235.645 258.559 235.645C260.417 235.645 261.78 236.838 261.798 238.5C261.78 240.111 260.511 241.202 258.559 241.202ZM258.559 233.25C256.94 233.25 255.78 232.202 255.798 230.684C255.78 229.184 256.905 228.179 258.559 228.179C260.187 228.179 261.303 229.184 261.32 230.684C261.303 232.21 260.153 233.25 258.559 233.25Z" fill="#FAFAFA"/>
<path opacity="0.6" d="M227.444 303.723H229.194C229.159 302.028 227.714 300.827 225.577 300.827C223.47 300.827 221.887 302.013 221.892 303.787C221.892 305.228 222.916 306.056 224.568 306.482L225.709 306.776C226.792 307.051 227.508 307.389 227.513 308.168C227.508 309.026 226.694 309.599 225.509 309.599C224.372 309.599 223.489 309.089 223.416 308.036H221.627C221.701 310.03 223.186 311.152 225.523 311.152C227.929 311.152 229.326 309.952 229.331 308.183C229.326 306.443 227.89 305.649 226.381 305.291L225.44 305.056C224.617 304.86 223.725 304.512 223.735 303.674C223.739 302.919 224.416 302.366 225.553 302.366C226.636 302.366 227.351 302.87 227.444 303.723ZM234.206 311.148C235.96 311.148 237.166 310.29 237.479 308.981L235.823 308.795C235.583 309.432 234.995 309.766 234.23 309.766C233.084 309.766 232.324 309.011 232.309 307.722H237.553V307.178C237.553 304.537 235.965 303.375 234.113 303.375C231.956 303.375 230.55 304.958 230.55 307.281C230.55 309.643 231.937 311.148 234.206 311.148ZM232.314 306.526C232.368 305.566 233.079 304.757 234.137 304.757C235.157 304.757 235.843 305.502 235.852 306.526H232.314ZM242.337 311.148C244.229 311.148 245.434 310.025 245.562 308.428H243.866C243.714 309.236 243.131 309.702 242.352 309.702C241.244 309.702 240.529 308.776 240.529 307.237C240.529 305.718 241.259 304.806 242.352 304.806C243.204 304.806 243.729 305.355 243.866 306.08H245.562C245.439 304.448 244.165 303.375 242.327 303.375C240.122 303.375 238.73 304.968 238.73 307.266C238.73 309.545 240.088 311.148 242.337 311.148ZM251.816 307.835C251.816 308.981 250.998 309.55 250.214 309.55C249.361 309.55 248.792 308.947 248.792 307.992V303.473H247.018V308.266C247.018 310.074 248.047 311.098 249.527 311.098C250.655 311.098 251.448 310.506 251.791 309.663H251.87V311H253.59V303.473H251.816V307.835ZM255.414 311H257.188V306.575C257.188 305.62 257.909 304.943 258.884 304.943C259.183 304.943 259.555 304.997 259.707 305.046V303.414C259.545 303.385 259.266 303.365 259.07 303.365C258.208 303.365 257.487 303.855 257.213 304.728H257.134V303.473H255.414V311ZM263.908 311.148C265.663 311.148 266.868 310.29 267.182 308.981L265.525 308.795C265.285 309.432 264.697 309.766 263.933 309.766C262.786 309.766 262.026 309.011 262.012 307.722H267.255V307.178C267.255 304.537 265.667 303.375 263.815 303.375C261.659 303.375 260.252 304.958 260.252 307.281C260.252 309.643 261.639 311.148 263.908 311.148ZM262.017 306.526C262.07 305.566 262.781 304.757 263.84 304.757C264.859 304.757 265.545 305.502 265.555 306.526H262.017ZM270.53 300.964H268.756V311H270.53V300.964ZM273.457 313.823C274.839 313.823 275.638 313.113 276.064 311.912L279.088 303.483L277.191 303.473L275.451 309.158H275.373L273.638 303.473H271.756L274.486 311.157L274.334 311.564C274.006 312.422 273.486 312.48 272.712 312.255L272.3 313.637C272.54 313.735 272.972 313.823 273.457 313.823ZM287.555 303.473H285.991V302.88C285.991 302.292 286.236 301.964 286.898 301.964C287.177 301.964 287.412 302.028 287.56 302.072L287.917 300.699C287.687 300.621 287.182 300.494 286.57 300.494C285.261 300.494 284.217 301.243 284.217 302.763V303.473H283.105V304.845H284.217V311H285.991V304.845H287.555V303.473ZM288.944 311H290.718V306.575C290.718 305.62 291.438 304.943 292.414 304.943C292.712 304.943 293.085 304.997 293.237 305.046V303.414C293.075 303.385 292.796 303.365 292.6 303.365C291.737 303.365 291.017 303.855 290.742 304.728H290.664V303.473H288.944V311ZM297.389 311.148C299.594 311.148 300.996 309.594 300.996 307.266C300.996 304.934 299.594 303.375 297.389 303.375C295.184 303.375 293.782 304.934 293.782 307.266C293.782 309.594 295.184 311.148 297.389 311.148ZM297.399 309.726C296.178 309.726 295.581 308.638 295.581 307.261C295.581 305.884 296.178 304.782 297.399 304.782C298.599 304.782 299.197 305.884 299.197 307.261C299.197 308.638 298.599 309.726 297.399 309.726ZM302.501 311H304.275V306.423C304.275 305.497 304.893 304.87 305.657 304.87C306.407 304.87 306.922 305.375 306.922 306.149V311H308.661V306.306C308.661 305.458 309.166 304.87 310.024 304.87C310.739 304.87 311.308 305.291 311.308 306.222V311H313.087V305.948C313.087 304.267 312.116 303.375 310.734 303.375C309.641 303.375 308.808 303.914 308.475 304.752H308.397C308.108 303.9 307.377 303.375 306.363 303.375C305.353 303.375 304.599 303.895 304.285 304.752H304.197V303.473H302.501V311ZM319.412 313.823C320.794 313.823 321.593 313.113 322.019 311.912L325.043 303.483L323.146 303.473L321.407 309.158H321.328L319.593 303.473H317.711L320.441 311.157L320.289 311.564C319.961 312.422 319.441 312.48 318.667 312.255L318.255 313.637C318.496 313.735 318.927 313.823 319.412 313.823ZM329.301 311.148C331.507 311.148 332.908 309.594 332.908 307.266C332.908 304.934 331.507 303.375 329.301 303.375C327.096 303.375 325.695 304.934 325.695 307.266C325.695 309.594 327.096 311.148 329.301 311.148ZM329.311 309.726C328.091 309.726 327.493 308.638 327.493 307.261C327.493 305.884 328.091 304.782 329.311 304.782C330.512 304.782 331.11 305.884 331.11 307.261C331.11 308.638 330.512 309.726 329.311 309.726ZM339.211 307.835C339.211 308.981 338.393 309.55 337.609 309.55C336.756 309.55 336.188 308.947 336.188 307.992V303.473H334.414V308.266C334.414 310.074 335.443 311.098 336.923 311.098C338.05 311.098 338.844 310.506 339.187 309.663H339.265V311H340.986V303.473H339.211V307.835ZM342.81 311H344.584V306.575C344.584 305.62 345.304 304.943 346.279 304.943C346.578 304.943 346.951 304.997 347.103 305.046V303.414C346.941 303.385 346.662 303.365 346.466 303.365C345.603 303.365 344.883 303.855 344.608 304.728H344.53V303.473H342.81V311ZM351.783 311H353.527V309.815H353.63C353.91 310.363 354.493 311.133 355.786 311.133C357.56 311.133 358.889 309.726 358.889 307.247C358.889 304.738 357.521 303.375 355.782 303.375C354.453 303.375 353.9 304.174 353.63 304.718H353.557V300.964H351.783V311ZM353.522 307.237C353.522 305.776 354.15 304.831 355.291 304.831C356.473 304.831 357.08 305.835 357.08 307.237C357.08 308.648 356.463 309.677 355.291 309.677C354.159 309.677 353.522 308.697 353.522 307.237ZM362.563 311.152C363.744 311.152 364.449 310.599 364.773 309.966H364.832V311H366.537V305.963C366.537 303.973 364.915 303.375 363.479 303.375C361.896 303.375 360.681 304.081 360.289 305.453L361.945 305.688C362.122 305.174 362.622 304.733 363.489 304.733C364.312 304.733 364.763 305.154 364.763 305.894V305.923C364.763 306.433 364.229 306.458 362.901 306.6C361.44 306.757 360.044 307.193 360.044 308.888C360.044 310.368 361.127 311.152 362.563 311.152ZM363.023 309.849C362.283 309.849 361.754 309.511 361.754 308.859C361.754 308.178 362.347 307.894 363.141 307.781C363.607 307.717 364.538 307.599 364.768 307.413V308.3C364.768 309.138 364.092 309.849 363.023 309.849ZM370.095 306.59C370.095 305.502 370.752 304.875 371.688 304.875C372.604 304.875 373.153 305.478 373.153 306.482V311H374.927V306.208C374.932 304.404 373.903 303.375 372.349 303.375C371.222 303.375 370.448 303.914 370.105 304.752H370.016V303.473H368.321V311H370.095V306.59ZM376.73 311H378.504V308.472L379.151 307.781L381.454 311H383.576L380.489 306.722L383.405 303.473H381.332L378.627 306.497H378.504V300.964H376.73V311ZM384.587 311H386.361V303.473H384.587V311ZM385.479 302.405C386.043 302.405 386.503 301.974 386.503 301.444C386.503 300.91 386.043 300.479 385.479 300.479C384.911 300.479 384.45 300.91 384.45 301.444C384.45 301.974 384.911 302.405 385.479 302.405ZM389.959 306.59C389.959 305.502 390.616 304.875 391.552 304.875C392.468 304.875 393.017 305.478 393.017 306.482V311H394.791V306.208C394.796 304.404 393.767 303.375 392.214 303.375C391.086 303.375 390.312 303.914 389.969 304.752H389.881V303.473H388.185V311H389.959V306.59ZM399.868 313.98C401.902 313.98 403.402 313.049 403.402 311.123V303.473H401.652V304.718H401.554C401.285 304.174 400.721 303.375 399.393 303.375C397.653 303.375 396.286 304.738 396.286 307.212C396.286 309.668 397.653 310.893 399.388 310.893C400.677 310.893 401.28 310.202 401.554 309.648H401.642V311.074C401.642 312.182 400.907 312.637 399.898 312.637C398.829 312.637 398.359 312.133 398.143 311.691L396.546 312.079C396.869 313.132 397.952 313.98 399.868 313.98ZM399.883 309.501C398.712 309.501 398.094 308.589 398.094 307.203C398.094 305.835 398.702 304.831 399.883 304.831C401.025 304.831 401.652 305.776 401.652 307.203C401.652 308.638 401.015 309.501 399.883 309.501ZM410.809 311.152C411.99 311.152 412.696 310.599 413.019 309.966H413.078V311H414.783V305.963C414.783 303.973 413.161 303.375 411.725 303.375C410.142 303.375 408.927 304.081 408.535 305.453L410.191 305.688C410.368 305.174 410.868 304.733 411.735 304.733C412.558 304.733 413.009 305.154 413.009 305.894V305.923C413.009 306.433 412.475 306.458 411.147 306.6C409.687 306.757 408.29 307.193 408.29 308.888C408.29 310.368 409.373 311.152 410.809 311.152ZM411.269 309.849C410.529 309.849 410 309.511 410 308.859C410 308.178 410.593 307.894 411.387 307.781C411.853 307.717 412.784 307.599 413.014 307.413V308.3C413.014 309.138 412.338 309.849 411.269 309.849ZM416.567 313.823H418.341V309.815H418.414C418.694 310.363 419.277 311.133 420.571 311.133C422.345 311.133 423.673 309.726 423.673 307.247C423.673 304.738 422.306 303.375 420.566 303.375C419.238 303.375 418.684 304.174 418.414 304.718H418.312V303.473H416.567V313.823ZM418.307 307.237C418.307 305.776 418.934 304.831 420.076 304.831C421.257 304.831 421.864 305.835 421.864 307.237C421.864 308.648 421.247 309.677 420.076 309.677C418.944 309.677 418.307 308.697 418.307 307.237ZM425.192 313.823H426.966V309.815H427.039C427.319 310.363 427.902 311.133 429.196 311.133C430.97 311.133 432.298 309.726 432.298 307.247C432.298 304.738 430.931 303.375 429.191 303.375C427.863 303.375 427.309 304.174 427.039 304.718H426.937V303.473H425.192V313.823ZM426.932 307.237C426.932 305.776 427.559 304.831 428.701 304.831C429.882 304.831 430.489 305.835 430.489 307.237C430.489 308.648 429.872 309.677 428.701 309.677C427.569 309.677 426.932 308.697 426.932 307.237ZM434.91 311.108C435.488 311.108 435.983 310.628 435.988 310.03C435.983 309.442 435.488 308.962 434.91 308.962C434.312 308.962 433.827 309.442 433.832 310.03C433.827 310.628 434.312 311.108 434.91 311.108Z" fill="#FAFAFA"/>
<path d="M222.24 291.2H224.058V287.809H225.979C228.297 287.809 229.542 286.417 229.542 284.487C229.542 282.571 228.312 281.164 226.004 281.164H222.24V291.2ZM224.058 286.315V282.683H225.724C227.087 282.683 227.689 283.418 227.689 284.487C227.689 285.555 227.087 286.315 225.734 286.315H224.058ZM233.074 291.352C234.255 291.352 234.961 290.799 235.284 290.166H235.343V291.2H237.048V286.163C237.048 284.173 235.426 283.575 233.99 283.575C232.407 283.575 231.192 284.281 230.8 285.653L232.456 285.888C232.633 285.374 233.133 284.933 234 284.933C234.823 284.933 235.274 285.354 235.274 286.094V286.123C235.274 286.633 234.74 286.658 233.412 286.8C231.952 286.957 230.555 287.393 230.555 289.088C230.555 290.568 231.638 291.352 233.074 291.352ZM233.534 290.049C232.795 290.049 232.265 289.711 232.265 289.059C232.265 288.378 232.858 288.093 233.652 287.981C234.118 287.917 235.049 287.799 235.279 287.613V288.5C235.279 289.338 234.603 290.049 233.534 290.049ZM239.665 294.023C241.047 294.023 241.846 293.313 242.272 292.112L245.296 283.683L243.399 283.673L241.66 289.358H241.581L239.846 283.673H237.965L240.694 291.357L240.542 291.764C240.214 292.622 239.695 292.68 238.92 292.455L238.509 293.837C238.749 293.935 239.18 294.023 239.665 294.023ZM250.029 291.2H251.773V290.015H251.876C252.155 290.563 252.739 291.333 254.032 291.333C255.806 291.333 257.134 289.926 257.134 287.447C257.134 284.938 255.767 283.575 254.027 283.575C252.699 283.575 252.146 284.374 251.876 284.918H251.803V281.164H250.029V291.2ZM251.768 287.437C251.768 285.976 252.396 285.031 253.537 285.031C254.718 285.031 255.326 286.035 255.326 287.437C255.326 288.848 254.709 289.877 253.537 289.877C252.405 289.877 251.768 288.897 251.768 287.437ZM259.489 294.023C260.871 294.023 261.67 293.313 262.096 292.112L265.12 283.683L263.223 283.673L261.484 289.358H261.405L259.67 283.673H257.789L260.518 291.357L260.366 291.764C260.038 292.622 259.519 292.68 258.744 292.455L258.333 293.837C258.573 293.935 259.004 294.023 259.489 294.023ZM269.853 291.2H273.915C276.214 291.2 277.341 290.029 277.341 288.466C277.341 286.947 276.263 286.055 275.194 286.001V285.903C276.174 285.673 276.949 284.987 276.949 283.766C276.949 282.272 275.871 281.164 273.695 281.164H269.853V291.2ZM271.671 289.681V286.741H273.675C274.797 286.741 275.493 287.427 275.493 288.324C275.493 289.123 274.944 289.681 273.626 289.681H271.671ZM271.671 285.432V282.664H273.508C274.577 282.664 275.131 283.227 275.131 284.002C275.131 284.884 274.415 285.432 273.469 285.432H271.671ZM281.01 291.352C282.191 291.352 282.897 290.799 283.22 290.166H283.279V291.2H284.984V286.163C284.984 284.173 283.362 283.575 281.926 283.575C280.343 283.575 279.128 284.281 278.736 285.653L280.393 285.888C280.569 285.374 281.069 284.933 281.936 284.933C282.759 284.933 283.21 285.354 283.21 286.094V286.123C283.21 286.633 282.676 286.658 281.348 286.8C279.888 286.957 278.491 287.393 278.491 289.088C278.491 290.568 279.574 291.352 281.01 291.352ZM281.471 290.049C280.731 290.049 280.201 289.711 280.201 289.059C280.201 288.378 280.794 288.093 281.588 287.981C282.054 287.917 282.985 287.799 283.215 287.613V288.5C283.215 289.338 282.539 290.049 281.471 290.049ZM288.542 286.79C288.542 285.702 289.199 285.075 290.135 285.075C291.051 285.075 291.6 285.677 291.6 286.682V291.2H293.374V286.408C293.379 284.604 292.35 283.575 290.796 283.575C289.669 283.575 288.895 284.114 288.552 284.952H288.464V283.673H286.768V291.2H288.542V286.79ZM295.178 291.2H296.952V288.672L297.598 287.981L299.902 291.2H302.024L298.936 286.922L301.852 283.673H299.779L297.074 286.697H296.952V281.164H295.178V291.2ZM309.241 291.353C310.06 291.353 310.762 290.673 310.768 289.826C310.762 288.993 310.06 288.312 309.241 288.312C308.394 288.312 307.707 288.993 307.714 289.826C307.707 290.673 308.394 291.353 309.241 291.353ZM309.241 283.737C310.06 283.737 310.762 283.057 310.768 282.21C310.762 281.377 310.06 280.696 309.241 280.696C308.394 280.696 307.707 281.377 307.714 282.21C307.707 283.057 308.394 283.737 309.241 283.737Z" fill="#FAFAFA"/>
<path d="M221.086 340.693V349.5H222.661V346.589H224.572C226.354 346.589 227.599 345.398 227.599 343.659C227.599 341.889 226.396 340.693 224.639 340.693H221.086ZM222.661 341.98H224.224C225.359 341.98 226 342.566 226 343.659C226 344.721 225.341 345.319 224.218 345.319H222.661V341.98ZM228.939 349.5H230.453V340.247H228.939V349.5ZM236.42 347.675C236.2 348.176 235.681 348.456 234.931 348.456C233.936 348.456 233.295 347.748 233.258 346.619V346.54H237.921V346.058C237.921 343.964 236.78 342.701 234.876 342.701C232.941 342.701 231.738 344.05 231.738 346.192C231.738 348.328 232.922 349.634 234.888 349.634C236.462 349.634 237.579 348.877 237.854 347.675H236.42ZM234.869 343.879C235.779 343.879 236.377 344.52 236.408 345.533H233.264C233.331 344.532 233.966 343.879 234.869 343.879ZM240.977 349.61C241.849 349.61 242.582 349.231 242.954 348.584H243.058V349.5H244.517V344.941C244.517 343.531 243.552 342.701 241.837 342.701C240.25 342.701 239.146 343.445 239.024 344.611H240.452C240.592 344.153 241.068 343.903 241.764 343.903C242.582 343.903 243.021 344.275 243.021 344.941V345.514L241.3 345.618C239.677 345.71 238.767 346.412 238.767 347.608C238.767 348.829 239.689 349.61 240.977 349.61ZM241.422 348.444C240.751 348.444 240.269 348.108 240.269 347.535C240.269 346.979 240.665 346.668 241.514 346.613L243.021 346.509V347.052C243.021 347.846 242.338 348.444 241.422 348.444ZM245.888 344.733C245.888 345.734 246.492 346.32 247.774 346.613L248.958 346.888C249.592 347.034 249.879 347.278 249.879 347.657C249.879 348.163 249.348 348.511 248.585 348.511C247.829 348.511 247.359 348.206 247.212 347.712H245.717C245.833 348.914 246.882 349.634 248.549 349.634C250.215 349.634 251.393 348.786 251.393 347.51C251.393 346.528 250.801 345.984 249.525 345.691L248.347 345.429C247.676 345.27 247.359 345.032 247.359 344.654C247.359 344.159 247.877 343.824 248.567 343.824C249.275 343.824 249.721 344.129 249.83 344.599H251.253C251.143 343.396 250.148 342.701 248.561 342.701C246.986 342.701 245.888 343.537 245.888 344.733ZM256.975 347.675C256.756 348.176 256.237 348.456 255.486 348.456C254.491 348.456 253.85 347.748 253.814 346.619V346.54H258.477V346.058C258.477 343.964 257.335 342.701 255.431 342.701C253.496 342.701 252.294 344.05 252.294 346.192C252.294 348.328 253.478 349.634 255.443 349.634C257.018 349.634 258.135 348.877 258.41 347.675H256.975ZM255.425 343.879C256.334 343.879 256.933 344.52 256.963 345.533H253.82C253.887 344.532 254.522 343.879 255.425 343.879ZM262.885 340.693V349.5H264.46V346.589H266.37C268.152 346.589 269.397 345.398 269.397 343.659C269.397 341.889 268.195 340.693 266.437 340.693H262.885ZM264.46 341.98H266.022C267.157 341.98 267.798 342.566 267.798 343.659C267.798 344.721 267.139 345.319 266.016 345.319H264.46V341.98ZM272.27 349.61C273.142 349.61 273.875 349.231 274.247 348.584H274.351V349.5H275.81V344.941C275.81 343.531 274.845 342.701 273.13 342.701C271.543 342.701 270.439 343.445 270.317 344.611H271.745C271.885 344.153 272.361 343.903 273.057 343.903C273.875 343.903 274.314 344.275 274.314 344.941V345.514L272.593 345.618C270.97 345.71 270.06 346.412 270.06 347.608C270.06 348.829 270.982 349.61 272.27 349.61ZM272.715 348.444C272.044 348.444 271.562 348.108 271.562 347.535C271.562 346.979 271.958 346.668 272.807 346.613L274.314 346.509V347.052C274.314 347.846 273.631 348.444 272.715 348.444ZM277.858 351.917C279.353 351.917 280.068 351.374 280.635 349.732L283.046 342.829H281.447L279.891 348.066H279.787L278.224 342.829H276.564L278.951 349.524L278.871 349.836C278.676 350.464 278.316 350.708 277.675 350.708C277.571 350.708 277.345 350.702 277.26 350.69V351.893C277.358 351.911 277.767 351.917 277.858 351.917ZM286.838 347.114C286.917 348.707 288.254 349.72 290.274 349.72C292.41 349.72 293.735 348.658 293.735 346.949C293.735 345.612 292.984 344.867 291.196 344.458L290.182 344.227C289.09 343.97 288.644 343.622 288.644 343.018C288.644 342.255 289.316 341.755 290.329 341.755C291.293 341.755 291.977 342.249 292.087 343.036H293.594C293.521 341.529 292.184 340.473 290.335 340.473C288.364 340.473 287.057 341.535 287.057 343.122C287.057 344.428 287.808 345.215 289.407 345.582L290.549 345.844C291.678 346.106 292.16 346.497 292.16 347.138C292.16 347.889 291.409 348.432 290.372 348.432C289.255 348.432 288.473 347.919 288.376 347.114H286.838ZM295.044 349.5H296.558V345.441C296.558 344.611 297.114 343.982 297.864 343.982C298.609 343.982 299.073 344.434 299.073 345.173V349.5H300.544V345.331C300.544 344.568 301.063 343.982 301.85 343.982C302.662 343.982 303.071 344.416 303.071 345.282V349.5H304.578V344.91C304.578 343.525 303.772 342.701 302.436 342.701C301.508 342.701 300.739 343.177 300.409 343.903H300.306C300.025 343.165 299.384 342.701 298.462 342.701C297.577 342.701 296.894 343.152 296.607 343.903H296.503V342.829H295.044V349.5ZM307.908 349.61C308.781 349.61 309.513 349.231 309.886 348.584H309.99V349.5H311.448V344.941C311.448 343.531 310.484 342.701 308.769 342.701C307.182 342.701 306.077 343.445 305.955 344.611H307.383C307.524 344.153 308 343.903 308.696 343.903C309.513 343.903 309.953 344.275 309.953 344.941V345.514L308.232 345.618C306.608 345.71 305.699 346.412 305.699 347.608C305.699 348.829 306.62 349.61 307.908 349.61ZM308.354 348.444C307.682 348.444 307.2 348.108 307.2 347.535C307.2 346.979 307.597 346.668 308.445 346.613L309.953 346.509V347.052C309.953 347.846 309.269 348.444 308.354 348.444ZM312.972 349.5H314.485V345.624C314.485 344.684 315.169 344.074 316.152 344.074C316.408 344.074 316.811 344.117 316.927 344.159V342.78C316.786 342.743 316.518 342.719 316.298 342.719C315.438 342.719 314.717 343.207 314.534 343.866H314.431V342.829H312.972V349.5ZM318.658 341.193V342.872H317.602V344.05H318.658V347.73C318.658 349.018 319.268 349.531 320.8 349.531C321.093 349.531 321.374 349.506 321.594 349.463V348.304C321.411 348.322 321.295 348.334 321.081 348.334C320.446 348.334 320.165 348.035 320.165 347.37V344.05H321.594V342.872H320.165V341.193H318.658ZM322.965 340.693V349.5H324.539V346.589H326.45C328.232 346.589 329.477 345.398 329.477 343.659C329.477 341.889 328.275 340.693 326.517 340.693H322.965ZM324.539 341.98H326.102C327.237 341.98 327.878 342.566 327.878 343.659C327.878 344.721 327.219 345.319 326.096 345.319H324.539V341.98ZM330.817 349.5H332.331V345.624C332.331 344.648 332.886 343.995 333.881 343.995C334.76 343.995 335.224 344.52 335.224 345.551V349.5H336.738V345.197C336.738 343.61 335.871 342.707 334.443 342.707C333.448 342.707 332.734 343.158 332.417 343.909H332.307V340.247H330.817V349.5ZM341.112 349.634C343.107 349.634 344.322 348.328 344.322 346.161C344.322 344.007 343.101 342.701 341.112 342.701C339.128 342.701 337.901 344.013 337.901 346.161C337.901 348.328 339.11 349.634 341.112 349.634ZM341.112 348.395C340.056 348.395 339.451 347.577 339.451 346.167C339.451 344.758 340.056 343.94 341.112 343.94C342.161 343.94 342.766 344.758 342.766 346.167C342.766 347.577 342.168 348.395 341.112 348.395ZM345.546 349.5H347.06V345.612C347.06 344.611 347.628 343.982 348.531 343.982C349.453 343.982 349.88 344.501 349.88 345.539V349.5H351.394V345.185C351.394 343.598 350.582 342.701 349.093 342.701C348.098 342.701 347.426 343.152 347.109 343.897H347.005V342.829H345.546V349.5ZM357.238 347.675C357.019 348.176 356.5 348.456 355.749 348.456C354.754 348.456 354.113 347.748 354.077 346.619V346.54H358.74V346.058C358.74 343.964 357.599 342.701 355.694 342.701C353.759 342.701 352.557 344.05 352.557 346.192C352.557 348.328 353.741 349.634 355.706 349.634C357.281 349.634 358.398 348.877 358.673 347.675H357.238ZM355.688 343.879C356.598 343.879 357.196 344.52 357.226 345.533H354.083C354.15 344.532 354.785 343.879 355.688 343.879ZM366.822 349.72C368.855 349.72 370.344 348.517 370.551 346.735H369.001C368.788 347.724 367.939 348.353 366.822 348.353C365.321 348.353 364.387 347.101 364.387 345.093C364.387 343.091 365.321 341.84 366.816 341.84C367.927 341.84 368.775 342.53 368.995 343.592H370.545C370.362 341.767 368.818 340.473 366.816 340.473C364.32 340.473 362.776 342.237 362.776 345.099C362.776 347.95 364.326 349.72 366.822 349.72ZM374.724 349.634C376.72 349.634 377.934 348.328 377.934 346.161C377.934 344.007 376.714 342.701 374.724 342.701C372.74 342.701 371.513 344.013 371.513 346.161C371.513 348.328 372.722 349.634 374.724 349.634ZM374.724 348.395C373.668 348.395 373.064 347.577 373.064 346.167C373.064 344.758 373.668 343.94 374.724 343.94C375.774 343.94 376.378 344.758 376.378 346.167C376.378 347.577 375.78 348.395 374.724 348.395ZM380.129 349.622C380.709 349.622 381.106 349.213 381.106 348.67C381.106 348.133 380.709 347.724 380.129 347.724C379.555 347.724 379.153 348.133 379.153 348.67C379.153 349.213 379.555 349.622 380.129 349.622Z" fill="black"/>
<path d="M224.26 364.616C225.927 364.616 227.019 363.267 227.019 361.21C227.019 359.141 225.933 357.804 224.26 357.804C223.357 357.804 222.557 358.25 222.197 358.958H222.1V355.308H221.05V364.5H222.051V363.45H222.148C222.563 364.183 223.345 364.616 224.26 364.616ZM224.016 358.75C225.219 358.75 225.933 359.672 225.933 361.21C225.933 362.748 225.219 363.67 224.016 363.67C222.82 363.67 222.075 362.73 222.075 361.21C222.075 359.69 222.82 358.75 224.016 358.75ZM230.197 364.616C231.075 364.616 231.796 364.231 232.223 363.53H232.321V364.5H233.322V359.996C233.322 358.628 232.424 357.804 230.819 357.804C229.415 357.804 228.378 358.5 228.237 359.556H229.299C229.446 359.037 229.995 358.738 230.783 358.738C231.765 358.738 232.272 359.184 232.272 359.996V360.594L230.374 360.71C228.842 360.801 227.975 361.479 227.975 362.657C227.975 363.859 228.921 364.616 230.197 364.616ZM230.392 363.694C229.629 363.694 229.061 363.304 229.061 362.632C229.061 361.973 229.501 361.625 230.502 361.558L232.272 361.442V362.046C232.272 362.986 231.472 363.694 230.392 363.694ZM234.961 364.5H236.011V360.606C236.011 359.452 236.688 358.75 237.738 358.75C238.788 358.75 239.288 359.312 239.288 360.496V364.5H240.338V360.24C240.338 358.677 239.514 357.804 238.037 357.804C237.03 357.804 236.389 358.232 236.06 358.958H235.962V357.92H234.961V364.5ZM243.168 360.795H243.07V355.308H242.02V364.5H243.07V362.004L243.699 361.418L246.165 364.5H247.501L244.48 360.74L247.312 357.92H246.024L243.168 360.795ZM252.498 362.797C252.223 363.377 251.649 363.688 250.801 363.688C249.684 363.688 248.958 362.864 248.903 361.564V361.515H253.633V361.113C253.633 359.068 252.553 357.804 250.777 357.804C248.97 357.804 247.81 359.147 247.81 361.216C247.81 363.298 248.952 364.616 250.777 364.616C252.217 364.616 253.242 363.92 253.548 362.797H252.498ZM250.764 358.732C251.808 358.732 252.504 359.501 252.528 360.667H248.903C248.982 359.501 249.715 358.732 250.764 358.732ZM257.415 364.616C258.324 364.616 259.105 364.183 259.52 363.45H259.618V364.5H260.619V355.308H259.569V358.958H259.478C259.105 358.238 258.33 357.804 257.415 357.804C255.742 357.804 254.65 359.147 254.65 361.21C254.65 363.279 255.73 364.616 257.415 364.616ZM257.659 358.75C258.849 358.75 259.594 359.703 259.594 361.21C259.594 362.73 258.855 363.67 257.659 363.67C256.457 363.67 255.736 362.748 255.736 361.21C255.736 359.678 256.463 358.75 257.659 358.75ZM263.223 364.561C263.662 364.561 264.016 364.201 264.016 363.768C264.016 363.328 263.662 362.974 263.223 362.974C262.79 362.974 262.429 363.328 262.429 363.768C262.429 364.201 262.79 364.561 263.223 364.561ZM270.966 359.935C270.783 358.763 269.806 357.804 268.207 357.804C266.364 357.804 265.192 359.135 265.192 361.186C265.192 363.279 266.37 364.616 268.213 364.616C269.794 364.616 270.777 363.725 270.966 362.516H269.904C269.709 363.261 269.092 363.67 268.207 363.67C267.035 363.67 266.278 362.706 266.278 361.186C266.278 359.697 267.023 358.75 268.207 358.75C269.153 358.75 269.733 359.281 269.904 359.935H270.966ZM272.276 364.5H273.326V360.606C273.326 359.495 273.973 358.75 275.15 358.75C276.145 358.75 276.67 359.33 276.67 360.496V364.5H277.72V360.24C277.72 358.696 276.841 357.804 275.45 357.804C274.442 357.804 273.753 358.232 273.423 358.958H273.326V355.308H272.276V364.5ZM283.693 362.797C283.418 363.377 282.845 363.688 281.996 363.688C280.879 363.688 280.153 362.864 280.098 361.564V361.515H284.828V361.113C284.828 359.068 283.748 357.804 281.972 357.804C280.165 357.804 279.006 359.147 279.006 361.216C279.006 363.298 280.147 364.616 281.972 364.616C283.412 364.616 284.438 363.92 284.743 362.797H283.693ZM281.96 358.732C283.003 358.732 283.699 359.501 283.724 360.667H280.098C280.177 359.501 280.91 358.732 281.96 358.732ZM291.619 359.935C291.436 358.763 290.459 357.804 288.86 357.804C287.017 357.804 285.845 359.135 285.845 361.186C285.845 363.279 287.023 364.616 288.866 364.616C290.447 364.616 291.43 363.725 291.619 362.516H290.557C290.362 363.261 289.745 363.67 288.86 363.67C287.688 363.67 286.932 362.706 286.932 361.186C286.932 359.697 287.676 358.75 288.86 358.75C289.806 358.75 290.386 359.281 290.557 359.935H291.619ZM294.076 360.795H293.979V355.308H292.929V364.5H293.979V362.004L294.607 361.418L297.073 364.5H298.41L295.389 360.74L298.221 357.92H296.933L294.076 360.795ZM301.752 364.616C303.626 364.616 304.786 363.322 304.786 361.21C304.786 359.092 303.626 357.804 301.752 357.804C299.878 357.804 298.719 359.092 298.719 361.21C298.719 363.322 299.878 364.616 301.752 364.616ZM301.752 363.67C300.507 363.67 299.805 362.767 299.805 361.21C299.805 359.648 300.507 358.75 301.752 358.75C302.997 358.75 303.699 359.648 303.699 361.21C303.699 362.767 302.997 363.67 301.752 363.67ZM311.454 357.92H310.405V361.814C310.405 362.968 309.77 363.658 308.61 363.658C307.56 363.658 307.121 363.108 307.121 361.924V357.92H306.071V362.181C306.071 363.737 306.84 364.616 308.317 364.616C309.324 364.616 310.026 364.201 310.356 363.469H310.453V364.5H311.454V357.92ZM313.57 356.218V357.92H312.508V358.799H313.57V362.791C313.57 364.048 314.113 364.549 315.468 364.549C315.676 364.549 315.877 364.524 316.085 364.488V363.603C315.889 363.621 315.786 363.627 315.596 363.627C314.913 363.627 314.62 363.298 314.62 362.522V358.799H316.085V357.92H314.62V356.218H313.57ZM318.237 364.561C318.676 364.561 319.03 364.201 319.03 363.768C319.03 363.328 318.676 362.974 318.237 362.974C317.803 362.974 317.443 363.328 317.443 363.768C317.443 364.201 317.803 364.561 318.237 364.561ZM325.98 359.935C325.797 358.763 324.82 357.804 323.221 357.804C321.378 357.804 320.206 359.135 320.206 361.186C320.206 363.279 321.384 364.616 323.227 364.616C324.808 364.616 325.79 363.725 325.98 362.516H324.918C324.722 363.261 324.106 363.67 323.221 363.67C322.049 363.67 321.292 362.706 321.292 361.186C321.292 359.697 322.037 358.75 323.221 358.75C324.167 358.75 324.747 359.281 324.918 359.935H325.98ZM329.932 364.616C331.806 364.616 332.966 363.322 332.966 361.21C332.966 359.092 331.806 357.804 329.932 357.804C328.059 357.804 326.899 359.092 326.899 361.21C326.899 363.322 328.059 364.616 329.932 364.616ZM329.932 363.67C328.687 363.67 327.985 362.767 327.985 361.21C327.985 359.648 328.687 358.75 329.932 358.75C331.177 358.75 331.879 359.648 331.879 361.21C331.879 362.767 331.177 363.67 329.932 363.67ZM334.312 364.5H335.362V360.423C335.362 359.495 336.027 358.75 336.888 358.75C337.718 358.75 338.261 359.251 338.261 360.032V364.5H339.311V360.27C339.311 359.434 339.921 358.75 340.837 358.75C341.765 358.75 342.222 359.227 342.222 360.197V364.5H343.272V359.953C343.272 358.573 342.522 357.804 341.179 357.804C340.269 357.804 339.519 358.262 339.165 358.958H339.067C338.762 358.274 338.139 357.804 337.248 357.804C336.369 357.804 335.71 358.226 335.411 358.958H335.313V357.92H334.312V364.5ZM344.838 366.374L348.012 355.308H347.121L343.947 366.374H344.838ZM348.596 359.721C348.596 360.673 349.157 361.204 350.39 361.503L351.519 361.778C352.221 361.949 352.563 362.254 352.563 362.706C352.563 363.31 351.928 363.731 351.043 363.731C350.201 363.731 349.676 363.377 349.499 362.822H348.419C348.535 363.914 349.542 364.616 351.007 364.616C352.502 364.616 353.643 363.804 353.643 362.626C353.643 361.68 353.045 361.143 351.806 360.844L350.793 360.6C350.018 360.411 349.652 360.13 349.652 359.678C349.652 359.092 350.262 358.696 351.043 358.696C351.837 358.696 352.349 359.043 352.49 359.568H353.527C353.387 358.488 352.429 357.804 351.049 357.804C349.652 357.804 348.596 358.628 348.596 359.721ZM357.993 364.708C359.861 364.708 361.167 363.652 361.167 362.144C361.167 360.997 360.44 360.105 359.336 359.898V359.8C360.245 359.55 360.807 358.799 360.807 357.835C360.807 356.462 359.641 355.485 357.993 355.485C356.345 355.485 355.179 356.462 355.179 357.835C355.179 358.793 355.753 359.556 356.65 359.8V359.898C355.545 360.105 354.819 360.997 354.819 362.144C354.819 363.652 356.125 364.708 357.993 364.708ZM357.993 359.434C356.955 359.434 356.259 358.836 356.259 357.939C356.259 357.029 356.949 356.425 357.993 356.425C359.037 356.425 359.726 357.029 359.726 357.939C359.726 358.836 359.03 359.434 357.993 359.434ZM357.993 363.768C356.772 363.768 355.93 363.072 355.93 362.065C355.93 361.058 356.772 360.362 357.993 360.362C359.214 360.362 360.056 361.058 360.056 362.065C360.056 363.072 359.214 363.768 357.993 363.768ZM370.948 357.92H369.892L368.598 363.182H368.501L367.03 357.92H366.023L364.552 363.182H364.454L363.16 357.92H362.098L363.941 364.5H365.003L366.468 359.41H366.566L368.037 364.5H369.105L370.948 357.92ZM374.858 364.701C377.013 364.701 378.246 362.968 378.246 359.941C378.246 356.944 376.83 355.485 374.931 355.485C373.125 355.485 371.843 356.749 371.843 358.519C371.843 360.228 373.058 361.467 374.736 361.467C375.786 361.467 376.646 360.966 377.08 360.112H377.178C377.116 362.455 376.305 363.725 374.87 363.725C374.004 363.725 373.332 363.243 373.1 362.449H371.971C372.246 363.835 373.363 364.701 374.858 364.701ZM374.931 360.514C373.766 360.514 372.954 359.684 372.954 358.482C372.954 357.328 373.814 356.449 374.944 356.449C376.073 356.449 376.933 357.341 376.933 358.519C376.933 359.684 376.097 360.514 374.931 360.514ZM379.781 364.5H380.831V360.606C380.831 359.495 381.478 358.75 382.656 358.75C383.651 358.75 384.176 359.33 384.176 360.496V364.5H385.226V360.24C385.226 358.696 384.347 357.804 382.955 357.804C381.948 357.804 381.258 358.232 380.929 358.958H380.831V355.308H379.781V364.5ZM394.812 357.92H393.756L392.462 363.182H392.364L390.893 357.92H389.886L388.415 363.182H388.318L387.024 357.92H385.962L387.805 364.5H388.867L390.332 359.41H390.43L391.9 364.5H392.969L394.812 357.92ZM396.354 364.5H397.403V358.799H398.911V357.92H397.403V357.219C397.403 356.498 397.721 356.132 398.478 356.132C398.667 356.132 398.844 356.138 398.972 356.163V355.308C398.752 355.265 398.52 355.247 398.264 355.247C397.013 355.247 396.354 355.876 396.354 357.188V357.92H395.261V358.799H396.354V364.5ZM402.571 367.027C404.365 367.027 405.5 366.087 405.5 364.616V357.92H404.499V358.964H404.402C404.023 358.256 403.212 357.804 402.29 357.804C400.599 357.804 399.531 359.141 399.531 361.113C399.531 363.084 400.587 364.402 402.29 364.402C403.193 364.402 403.938 363.993 404.353 363.267H404.451V364.561C404.451 365.531 403.749 366.111 402.571 366.111C401.625 366.111 401.039 365.763 400.923 365.226H399.812C399.971 366.313 400.984 367.027 402.571 367.027ZM402.522 363.475C401.301 363.475 400.618 362.547 400.618 361.113C400.618 359.678 401.301 358.75 402.522 358.75C403.737 358.75 404.475 359.678 404.475 361.113C404.475 362.547 403.743 363.475 402.522 363.475ZM407.024 359.721C407.024 360.673 407.585 361.204 408.818 361.503L409.947 361.778C410.649 361.949 410.991 362.254 410.991 362.706C410.991 363.31 410.356 363.731 409.471 363.731C408.629 363.731 408.104 363.377 407.927 362.822H406.847C406.963 363.914 407.97 364.616 409.435 364.616C410.93 364.616 412.072 363.804 412.072 362.626C412.072 361.68 411.473 361.143 410.234 360.844L409.221 360.6C408.446 360.411 408.08 360.13 408.08 359.678C408.08 359.092 408.69 358.696 409.471 358.696C410.265 358.696 410.778 359.043 410.918 359.568H411.956C411.815 358.488 410.857 357.804 409.478 357.804C408.08 357.804 407.024 358.628 407.024 359.721ZM416.372 364.708C418.35 364.708 419.485 363.035 419.485 360.112C419.485 357.194 418.331 355.485 416.372 355.485C414.401 355.485 413.247 357.188 413.247 360.093C413.247 363.023 414.388 364.708 416.372 364.708ZM416.372 363.749C415.072 363.749 414.352 362.449 414.352 360.093C414.352 357.768 415.084 356.449 416.372 356.449C417.66 356.449 418.38 357.756 418.38 360.093C418.38 362.455 417.672 363.749 416.372 363.749Z" fill="#8F9095"/>
<circle cx="442" cy="233" r="12" fill="#FAFAFA"/>
<path d="M443 227L439 233H445L441 239" stroke="#24A768" stroke-width="2" stroke-linecap="round" stroke-linejoin="round"/>
</svg>
