<svg width="696" height="448" viewBox="0 0 696 448" fill="none" xmlns="http://www.w3.org/2000/svg">
<rect x="168" y="216" width="360" height="110" rx="13" fill="#252525" fill-opacity="0.6"/>
<path d="M189.785 309V298.431H188.467V303.001H182.666V298.431H181.348V309H182.666V304.188H188.467V309H189.785ZM192.739 299.581C193.222 299.581 193.617 299.186 193.617 298.702C193.617 298.219 193.222 297.823 192.739 297.823C192.255 297.823 191.86 298.219 191.86 298.702C191.86 299.186 192.255 299.581 192.739 299.581ZM192.109 309H193.368V301.104H192.109V309ZM206.555 309H207.94L204.043 298.431H202.739L198.843 309H200.227L201.289 305.975H205.493L206.555 309ZM203.333 300.138H203.45L205.105 304.854H201.677L203.333 300.138ZM209.062 303.265C209.062 304.408 209.736 305.045 211.215 305.404L212.57 305.733C213.413 305.938 213.823 306.305 213.823 306.847C213.823 307.572 213.061 308.077 211.999 308.077C210.988 308.077 210.358 307.652 210.146 306.986H208.85C208.989 308.297 210.197 309.139 211.955 309.139C213.749 309.139 215.119 308.165 215.119 306.751C215.119 305.616 214.401 304.972 212.915 304.613L211.699 304.32C210.769 304.093 210.329 303.756 210.329 303.214C210.329 302.511 211.061 302.035 211.999 302.035C212.951 302.035 213.566 302.452 213.735 303.082H214.98C214.811 301.786 213.662 300.965 212.006 300.965C210.329 300.965 209.062 301.954 209.062 303.265ZM217.311 299.061V301.104H216.036V302.159H217.311V306.949C217.311 308.458 217.963 309.059 219.589 309.059C219.838 309.059 220.079 309.029 220.328 308.985V307.923C220.094 307.945 219.969 307.953 219.742 307.953C218.922 307.953 218.571 307.557 218.571 306.627V302.159H220.328V301.104H218.571V299.061H217.311ZM221.993 309H223.252V304.107C223.252 302.994 224.124 302.188 225.325 302.188C225.574 302.188 226.028 302.232 226.131 302.262V301.002C225.97 300.98 225.706 300.965 225.501 300.965C224.454 300.965 223.545 301.507 223.311 302.276H223.194V301.104H221.993V309ZM228.125 299.581C228.608 299.581 229.004 299.186 229.004 298.702C229.004 298.219 228.608 297.823 228.125 297.823C227.641 297.823 227.246 298.219 227.246 298.702C227.246 299.186 227.641 299.581 228.125 299.581ZM227.495 309H228.755V301.104H227.495V309ZM233.839 309.139C234.931 309.139 235.868 308.619 236.366 307.74H236.483V309H237.684V297.97H236.425V302.35H236.315C235.868 301.485 234.938 300.965 233.839 300.965C231.832 300.965 230.521 302.577 230.521 305.052C230.521 307.535 231.818 309.139 233.839 309.139ZM234.132 302.101C235.56 302.101 236.454 303.243 236.454 305.052C236.454 306.876 235.568 308.004 234.132 308.004C232.689 308.004 231.825 306.898 231.825 305.052C231.825 303.214 232.697 302.101 234.132 302.101ZM240.689 311.688L241.839 307.521H240.44L239.744 311.688H240.689ZM258.029 301.104H256.762L255.209 307.418H255.092L253.327 301.104H252.118L250.353 307.418H250.236L248.683 301.104H247.409L249.621 309H250.895L252.653 302.892H252.77L254.535 309H255.817L258.029 301.104ZM264.41 306.957C264.08 307.652 263.392 308.026 262.374 308.026C261.034 308.026 260.162 307.037 260.096 305.477V305.418H265.772V304.935C265.772 302.481 264.476 300.965 262.345 300.965C260.177 300.965 258.785 302.577 258.785 305.06C258.785 307.557 260.155 309.139 262.345 309.139C264.073 309.139 265.304 308.304 265.67 306.957H264.41ZM262.33 302.079C263.582 302.079 264.417 303.001 264.447 304.4H260.096C260.191 303.001 261.07 302.079 262.33 302.079ZM268.294 302.379L269.619 298.431H268.191L267.378 302.379H268.294ZM277.7 301.104H276.352L274.191 307.608H274.074L271.913 301.104H270.566L273.488 309H274.777L277.7 301.104ZM284.081 306.957C283.751 307.652 283.063 308.026 282.045 308.026C280.704 308.026 279.833 307.037 279.767 305.477V305.418H285.443V304.935C285.443 302.481 284.147 300.965 282.015 300.965C279.847 300.965 278.456 302.577 278.456 305.06C278.456 307.557 279.825 309.139 282.015 309.139C283.744 309.139 284.974 308.304 285.34 306.957H284.081ZM282.001 302.079C283.253 302.079 284.088 303.001 284.117 304.4H279.767C279.862 303.001 280.741 302.079 282.001 302.079ZM291.833 299.581C292.316 299.581 292.712 299.186 292.712 298.702C292.712 298.219 292.316 297.823 291.833 297.823C291.35 297.823 290.954 298.219 290.954 298.702C290.954 299.186 291.35 299.581 291.833 299.581ZM291.203 309H292.463V301.104H291.203V309ZM294.442 303.265C294.442 304.408 295.116 305.045 296.596 305.404L297.951 305.733C298.793 305.938 299.203 306.305 299.203 306.847C299.203 307.572 298.441 308.077 297.379 308.077C296.368 308.077 295.739 307.652 295.526 306.986H294.23C294.369 308.297 295.577 309.139 297.335 309.139C299.13 309.139 300.499 308.165 300.499 306.751C300.499 305.616 299.782 304.972 298.295 304.613L297.079 304.32C296.149 304.093 295.709 303.756 295.709 303.214C295.709 302.511 296.442 302.035 297.379 302.035C298.331 302.035 298.947 302.452 299.115 303.082H300.36C300.192 301.786 299.042 300.965 297.387 300.965C295.709 300.965 294.442 301.954 294.442 303.265ZM301.907 303.265C301.907 304.408 302.581 305.045 304.061 305.404L305.416 305.733C306.258 305.938 306.668 306.305 306.668 306.847C306.668 307.572 305.906 308.077 304.844 308.077C303.834 308.077 303.204 307.652 302.991 306.986H301.695C301.834 308.297 303.043 309.139 304.8 309.139C306.595 309.139 307.964 308.165 307.964 306.751C307.964 305.616 307.247 304.972 305.76 304.613L304.544 304.32C303.614 304.093 303.174 303.756 303.174 303.214C303.174 302.511 303.907 302.035 304.844 302.035C305.796 302.035 306.412 302.452 306.58 303.082H307.825C307.657 301.786 306.507 300.965 304.852 300.965C303.174 300.965 301.907 301.954 301.907 303.265ZM316.089 301.104H314.829V305.777C314.829 307.162 314.067 307.989 312.676 307.989C311.416 307.989 310.888 307.33 310.888 305.909V301.104H309.629V306.217C309.629 308.084 310.552 309.139 312.324 309.139C313.533 309.139 314.375 308.641 314.77 307.762H314.887V309H316.089V301.104ZM323.451 306.957C323.122 307.652 322.433 308.026 321.415 308.026C320.075 308.026 319.203 307.037 319.137 305.477V305.418H324.814V304.935C324.814 302.481 323.517 300.965 321.386 300.965C319.218 300.965 317.826 302.577 317.826 305.06C317.826 307.557 319.196 309.139 321.386 309.139C323.114 309.139 324.345 308.304 324.711 306.957H323.451ZM321.371 302.079C322.624 302.079 323.459 303.001 323.488 304.4H319.137C319.232 303.001 320.111 302.079 321.371 302.079ZM329.473 309.139C330.565 309.139 331.502 308.619 332 307.74H332.117V309H333.319V297.97H332.059V302.35H331.949C331.502 301.485 330.572 300.965 329.473 300.965C327.467 300.965 326.156 302.577 326.156 305.052C326.156 307.535 327.452 309.139 329.473 309.139ZM329.766 302.101C331.195 302.101 332.088 303.243 332.088 305.052C332.088 306.876 331.202 308.004 329.766 308.004C328.324 308.004 327.459 306.898 327.459 305.052C327.459 303.214 328.331 302.101 329.766 302.101ZM341.716 309.139C342.77 309.139 343.635 308.678 344.147 307.835H344.264V309H345.466V303.595C345.466 301.954 344.389 300.965 342.463 300.965C340.778 300.965 339.533 301.8 339.365 303.067H340.639C340.815 302.445 341.474 302.086 342.419 302.086C343.598 302.086 344.206 302.621 344.206 303.595V304.312L341.928 304.452C340.09 304.562 339.05 305.375 339.05 306.788C339.05 308.231 340.185 309.139 341.716 309.139ZM341.95 308.033C341.034 308.033 340.353 307.564 340.353 306.759C340.353 305.968 340.881 305.55 342.082 305.47L344.206 305.331V306.056C344.206 307.184 343.246 308.033 341.95 308.033ZM351.548 309H352.808V304.107C352.808 302.994 353.679 302.188 354.881 302.188C355.13 302.188 355.584 302.232 355.686 302.262V301.002C355.525 300.98 355.261 300.965 355.056 300.965C354.009 300.965 353.101 301.507 352.866 302.276H352.749V301.104H351.548V309ZM362.031 306.957C361.701 307.652 361.013 308.026 359.995 308.026C358.654 308.026 357.783 307.037 357.717 305.477V305.418H363.393V304.935C363.393 302.481 362.097 300.965 359.965 300.965C357.797 300.965 356.406 302.577 356.406 305.06C356.406 307.557 357.775 309.139 359.965 309.139C361.694 309.139 362.924 308.304 363.291 306.957H362.031ZM359.951 302.079C361.203 302.079 362.038 303.001 362.067 304.4H357.717C357.812 303.001 358.691 302.079 359.951 302.079ZM365.658 309H366.918V302.159H368.727V301.104H366.918V300.262C366.918 299.398 367.299 298.958 368.207 298.958C368.434 298.958 368.646 298.966 368.8 298.995V297.97C368.536 297.918 368.258 297.896 367.95 297.896C366.449 297.896 365.658 298.651 365.658 300.226V301.104H364.347V302.159H365.658V309ZM376.712 301.104H375.452V305.777C375.452 307.162 374.69 307.989 373.299 307.989C372.039 307.989 371.512 307.33 371.512 305.909V301.104H370.252V306.217C370.252 308.084 371.175 309.139 372.947 309.139C374.156 309.139 374.998 308.641 375.394 307.762H375.511V309H376.712V301.104ZM378.845 309H380.105V304.327C380.105 302.943 380.918 302.101 382.177 302.101C383.437 302.101 384.038 302.774 384.038 304.195V309H385.298V303.888C385.298 302.013 384.309 300.965 382.536 300.965C381.328 300.965 380.559 301.478 380.163 302.35H380.046V301.104H378.845V309ZM390.287 309.139C391.378 309.139 392.316 308.619 392.814 307.74H392.931V309H394.132V297.97H392.872V302.35H392.763C392.316 301.485 391.386 300.965 390.287 300.965C388.28 300.965 386.969 302.577 386.969 305.052C386.969 307.535 388.266 309.139 390.287 309.139ZM390.58 302.101C392.008 302.101 392.902 303.243 392.902 305.052C392.902 306.876 392.016 308.004 390.58 308.004C389.137 308.004 388.273 306.898 388.273 305.052C388.273 303.214 389.144 302.101 390.58 302.101ZM400.859 309H402.119V302.159H403.928V301.104H402.119V300.262C402.119 299.398 402.5 298.958 403.408 298.958C403.635 298.958 403.848 298.966 404.001 298.995V297.97C403.738 297.918 403.459 297.896 403.152 297.896C401.65 297.896 400.859 298.651 400.859 300.226V301.104H399.548V302.159H400.859V309ZM408.434 309.139C410.683 309.139 412.074 307.586 412.074 305.052C412.074 302.511 410.683 300.965 408.434 300.965C406.186 300.965 404.794 302.511 404.794 305.052C404.794 307.586 406.186 309.139 408.434 309.139ZM408.434 308.004C406.94 308.004 406.098 306.92 406.098 305.052C406.098 303.177 406.94 302.101 408.434 302.101C409.928 302.101 410.771 303.177 410.771 305.052C410.771 306.92 409.928 308.004 408.434 308.004ZM413.812 309H415.072V304.107C415.072 302.994 415.943 302.188 417.144 302.188C417.393 302.188 417.848 302.232 417.95 302.262V301.002C417.789 300.98 417.525 300.965 417.32 300.965C416.273 300.965 415.365 301.507 415.13 302.276H415.013V301.104H413.812V309ZM426.581 305.279C426.581 304.913 426.516 304.547 426.42 304.188H429.533V303.192H426.098C425.864 302.54 425.644 301.888 425.644 301.207C425.644 300.042 426.581 299.347 428.149 299.347C429.006 299.347 429.914 299.53 430.28 299.742V298.57C429.797 298.343 428.976 298.182 428.083 298.182C425.717 298.182 424.296 299.325 424.296 301.236C424.296 301.903 424.523 302.547 424.758 303.192H423.029V304.188H425.102C425.212 304.562 425.285 304.942 425.285 305.331C425.285 306.502 424.326 307.594 423.029 307.887V309H430.807V307.872H425.051V307.77C425.871 307.345 426.581 306.488 426.581 305.279ZM432.692 301.412H433.966C433.966 300.16 434.808 299.332 436.075 299.332C437.32 299.332 438.075 300.167 438.075 301.288C438.075 302.218 437.679 302.767 436.332 304.225L432.757 308.092V309H439.598V307.813H434.589V307.696L436.991 305.213C438.895 303.243 439.422 302.364 439.422 301.148C439.422 299.435 438.009 298.182 436.163 298.182C434.142 298.182 432.692 299.53 432.692 301.412ZM444.961 309.242C447.547 309.242 449.026 307.162 449.026 303.529C449.026 299.933 447.327 298.182 445.049 298.182C442.881 298.182 441.343 299.698 441.343 301.822C441.343 303.873 442.801 305.36 444.815 305.36C446.075 305.36 447.107 304.759 447.627 303.734H447.745C447.671 306.546 446.697 308.07 444.976 308.07C443.936 308.07 443.13 307.491 442.852 306.539H441.497C441.827 308.202 443.167 309.242 444.961 309.242ZM445.049 304.217C443.65 304.217 442.676 303.221 442.676 301.778C442.676 300.394 443.709 299.339 445.064 299.339C446.419 299.339 447.452 300.409 447.452 301.822C447.452 303.221 446.448 304.217 445.049 304.217ZM451.372 309.073C451.899 309.073 452.324 308.641 452.324 308.121C452.324 307.594 451.899 307.169 451.372 307.169C450.852 307.169 450.42 307.594 450.42 308.121C450.42 308.641 450.852 309.073 451.372 309.073ZM457.328 309.242C459.913 309.242 461.393 307.162 461.393 303.529C461.393 299.933 459.694 298.182 457.416 298.182C455.248 298.182 453.71 299.698 453.71 301.822C453.71 303.873 455.167 305.36 457.181 305.36C458.441 305.36 459.474 304.759 459.994 303.734H460.111C460.038 306.546 459.064 308.07 457.343 308.07C456.303 308.07 455.497 307.491 455.219 306.539H453.864C454.193 308.202 455.534 309.242 457.328 309.242ZM457.416 304.217C456.017 304.217 455.043 303.221 455.043 301.778C455.043 300.394 456.076 299.339 457.431 299.339C458.785 299.339 459.818 300.409 459.818 301.822C459.818 303.221 458.815 304.217 457.416 304.217ZM466.653 309.242C469.239 309.242 470.718 307.162 470.718 303.529C470.718 299.933 469.019 298.182 466.741 298.182C464.573 298.182 463.035 299.698 463.035 301.822C463.035 303.873 464.493 305.36 466.507 305.36C467.767 305.36 468.799 304.759 469.319 303.734H469.437C469.363 306.546 468.389 308.07 466.668 308.07C465.628 308.07 464.822 307.491 464.544 306.539H463.189C463.519 308.202 464.859 309.242 466.653 309.242ZM466.741 304.217C465.342 304.217 464.368 303.221 464.368 301.778C464.368 300.394 465.401 299.339 466.756 299.339C468.111 299.339 469.144 300.409 469.144 301.822C469.144 303.221 468.14 304.217 466.741 304.217ZM473.064 309.073C473.591 309.073 474.016 308.641 474.016 308.121C474.016 307.594 473.591 307.169 473.064 307.169C472.544 307.169 472.112 307.594 472.112 308.121C472.112 308.641 472.544 309.073 473.064 309.073ZM477.277 309.073C477.804 309.073 478.229 308.641 478.229 308.121C478.229 307.594 477.804 307.169 477.277 307.169C476.757 307.169 476.325 307.594 476.325 308.121C476.325 308.641 476.757 309.073 477.277 309.073ZM481.49 309.073C482.017 309.073 482.442 308.641 482.442 308.121C482.442 307.594 482.017 307.169 481.49 307.169C480.97 307.169 480.538 307.594 480.538 308.121C480.538 308.641 480.97 309.073 481.49 309.073Z" fill="white"/>
<path d="M190.217 269V258.431H188.335V262.826H183.193V258.431H181.304V269H183.193V264.415H188.335V269H190.217ZM199.953 269H202.077L200.165 266.971C200.737 266.151 201.052 265.001 201.052 263.58V263.119H199.462V263.492C199.462 264.554 199.323 265.272 199.045 265.807L196.796 263.39C198.327 262.569 198.993 261.727 198.993 260.636C198.993 259.229 197.8 258.233 196.13 258.233C194.467 258.233 193.237 259.266 193.237 260.658C193.237 261.434 193.588 262.101 194.555 263.104C194.474 263.148 194.174 263.309 194.108 263.338C192.731 264.085 192.094 264.986 192.094 266.209C192.094 268.004 193.552 269.198 195.749 269.198C197.038 269.198 198.254 268.78 199.081 268.062L199.953 269ZM195.903 262.481C195.141 261.734 194.87 261.28 194.87 260.753C194.87 260.028 195.397 259.522 196.137 259.522C196.891 259.522 197.411 260.021 197.411 260.753C197.411 261.427 196.987 261.917 195.903 262.481ZM195.126 264.276C195.214 264.232 195.375 264.144 195.456 264.115L198.085 266.971C197.609 267.484 196.767 267.806 195.932 267.806C194.687 267.806 193.844 267.103 193.844 266.07C193.844 265.353 194.269 264.745 195.126 264.276ZM214.251 269V258.431H212.04L208.861 266.275H208.729L205.55 258.431H203.338V269H205.096V261.507H205.199L208.121 268.67H209.469L212.391 261.507H212.494V269H214.251ZM185.859 278.167C182.791 278.167 180.857 280.299 180.857 283.712C180.857 287.118 182.761 289.264 185.859 289.264C188.943 289.264 190.854 287.118 190.854 283.712C190.854 280.299 188.936 278.167 185.859 278.167ZM185.859 279.801C187.734 279.801 188.928 281.317 188.928 283.712C188.928 286.092 187.742 287.63 185.859 287.63C183.955 287.63 182.791 286.092 182.791 283.712C182.791 281.317 183.984 279.801 185.859 279.801ZM192.592 289H194.408V284.349C194.408 283.221 195.229 282.489 196.408 282.489C196.716 282.489 197.199 282.54 197.338 282.591V280.936C197.17 280.892 196.847 280.863 196.584 280.863C195.551 280.863 194.687 281.449 194.467 282.24H194.343V280.995H192.592V289ZM201.288 289.132C202.401 289.132 203.324 288.612 203.778 287.733H203.902V289H205.66V277.896H203.844V282.269H203.719C203.294 281.39 202.386 280.863 201.288 280.863C199.266 280.863 197.992 282.459 197.992 284.994C197.992 287.535 199.259 289.132 201.288 289.132ZM201.852 282.379C203.097 282.379 203.866 283.382 203.866 285.001C203.866 286.627 203.104 287.623 201.852 287.623C200.606 287.623 199.852 286.642 199.852 285.001C199.852 283.368 200.614 282.379 201.852 282.379ZM212.935 286.81C212.671 287.411 212.049 287.748 211.148 287.748C209.954 287.748 209.185 286.898 209.141 285.543V285.448H214.737V284.869C214.737 282.357 213.367 280.841 211.082 280.841C208.76 280.841 207.317 282.459 207.317 285.03C207.317 287.594 208.738 289.161 211.096 289.161C212.986 289.161 214.326 288.253 214.656 286.81H212.935ZM211.074 282.254C212.166 282.254 212.884 283.023 212.92 284.239H209.148C209.229 283.038 209.99 282.254 211.074 282.254ZM216.32 289H218.137V284.349C218.137 283.221 218.957 282.489 220.136 282.489C220.444 282.489 220.927 282.54 221.066 282.591V280.936C220.898 280.892 220.576 280.863 220.312 280.863C219.279 280.863 218.415 281.449 218.195 282.24H218.071V280.995H216.32V289ZM229.815 289H231.228L231.8 286.158H233.631L233.894 284.767H232.078L232.532 282.54H234.312L234.576 281.163H232.81L233.367 278.431H231.954L231.39 281.163H229.317L229.859 278.431H228.46L227.896 281.163H226.16L225.889 282.54H227.618L227.178 284.767H225.486L225.223 286.158H226.893L226.321 289H227.727L228.306 286.158H230.386L229.815 289ZM228.497 284.862L228.98 282.452H231.206L230.708 284.862H228.497ZM241.823 284.283H243.148C244.452 284.283 245.243 284.935 245.243 285.997C245.243 287.022 244.386 287.711 243.17 287.711C241.947 287.711 241.12 287.081 241.039 286.1H239.23C239.318 288.011 240.893 289.264 243.192 289.264C245.477 289.264 247.177 287.945 247.177 286.129C247.177 284.686 246.276 283.756 244.84 283.536V283.412C245.961 283.111 246.759 282.269 246.767 280.995C246.774 279.479 245.507 278.167 243.258 278.167C240.966 278.167 239.53 279.464 239.435 281.317H241.207C241.288 280.262 242.006 279.676 243.156 279.676C244.276 279.676 244.943 280.365 244.943 281.236C244.943 282.196 244.196 282.87 243.112 282.87H241.823V284.283ZM248.863 281.559H250.635C250.635 280.445 251.368 279.684 252.518 279.684C253.624 279.684 254.283 280.423 254.283 281.383C254.283 282.188 253.961 282.694 252.628 284.042L248.965 287.726V289H256.304V287.433H251.529V287.308L253.799 285.074C255.616 283.294 256.151 282.438 256.151 281.207C256.151 279.449 254.722 278.167 252.62 278.167C250.416 278.167 248.863 279.559 248.863 281.559ZM262.114 289.264C264.553 289.264 266.223 288.004 266.223 286.166C266.223 284.803 265.315 283.734 263.938 283.478V283.353C265.073 283.067 265.791 282.167 265.791 281.024C265.791 279.361 264.267 278.167 262.121 278.167C259.975 278.167 258.445 279.361 258.445 281.024C258.445 282.159 259.177 283.075 260.305 283.353V283.478C258.921 283.763 258.02 284.833 258.02 286.173C258.02 288.004 259.69 289.264 262.114 289.264ZM262.121 282.796C261.045 282.796 260.305 282.152 260.305 281.2C260.305 280.248 261.037 279.588 262.121 279.588C263.198 279.588 263.931 280.248 263.931 281.2C263.931 282.145 263.191 282.796 262.121 282.796ZM262.121 287.821C260.847 287.821 259.968 287.081 259.968 286.019C259.968 284.95 260.847 284.21 262.121 284.21C263.389 284.21 264.267 284.95 264.267 286.019C264.267 287.081 263.396 287.821 262.121 287.821ZM272.04 289.256C274.34 289.256 275.966 287.718 275.966 285.55C275.966 283.521 274.494 282.042 272.487 282.042C271.242 282.042 270.246 282.613 269.748 283.617H269.623C269.638 281.09 270.553 279.713 272.121 279.713C273.058 279.713 273.747 280.196 273.93 281.024H275.819C275.556 279.317 274.113 278.167 272.084 278.167C269.462 278.167 267.814 280.277 267.814 283.836C267.814 287.455 269.594 289.256 272.04 289.256ZM272.026 287.718C270.832 287.718 269.938 286.788 269.938 285.565C269.938 284.356 270.802 283.485 272.033 283.485C273.263 283.485 274.113 284.356 274.113 285.602C274.113 286.803 273.212 287.718 272.026 287.718ZM280.311 289H282.201V278.431H280.318L277.557 280.372V282.152L280.186 280.292H280.311V289ZM288.904 289.264C291.343 289.264 293.013 288.004 293.013 286.166C293.013 284.803 292.105 283.734 290.728 283.478V283.353C291.863 283.067 292.581 282.167 292.581 281.024C292.581 279.361 291.057 278.167 288.911 278.167C286.765 278.167 285.234 279.361 285.234 281.024C285.234 282.159 285.967 283.075 287.095 283.353V283.478C285.711 283.763 284.81 284.833 284.81 286.173C284.81 288.004 286.48 289.264 288.904 289.264ZM288.911 282.796C287.835 282.796 287.095 282.152 287.095 281.2C287.095 280.248 287.827 279.588 288.911 279.588C289.988 279.588 290.72 280.248 290.72 281.2C290.72 282.145 289.981 282.796 288.911 282.796ZM288.911 287.821C287.637 287.821 286.758 287.081 286.758 286.019C286.758 284.95 287.637 284.21 288.911 284.21C290.178 284.21 291.057 284.95 291.057 286.019C291.057 287.081 290.186 287.821 288.911 287.821ZM297.38 289H299.269V278.431H297.387L294.626 280.372V282.152L297.255 280.292H297.38V289ZM305.87 289.264C308.177 289.264 309.723 287.748 309.723 285.536C309.723 283.412 308.258 282.057 306.449 282.057C305.372 282.057 304.596 282.423 304.127 283.075H304.003L304.296 279.984H309.159V278.431H302.823L302.245 284.576H303.959C304.317 283.88 305.013 283.463 305.914 283.463C307.079 283.463 307.899 284.305 307.899 285.565C307.899 286.861 307.079 287.726 305.863 287.726C304.786 287.726 303.973 287.074 303.856 286.085H302.091C302.171 287.938 303.688 289.264 305.87 289.264ZM315.445 289.264C317.884 289.264 319.554 288.004 319.554 286.166C319.554 284.803 318.645 283.734 317.268 283.478V283.353C318.404 283.067 319.121 282.167 319.121 281.024C319.121 279.361 317.598 278.167 315.452 278.167C313.306 278.167 311.775 279.361 311.775 281.024C311.775 282.159 312.508 283.075 313.636 283.353V283.478C312.251 283.763 311.35 284.833 311.35 286.173C311.35 288.004 313.02 289.264 315.445 289.264ZM315.452 282.796C314.375 282.796 313.636 282.152 313.636 281.2C313.636 280.248 314.368 279.588 315.452 279.588C316.529 279.588 317.261 280.248 317.261 281.2C317.261 282.145 316.521 282.796 315.452 282.796ZM315.452 287.821C314.178 287.821 313.299 287.081 313.299 286.019C313.299 284.95 314.178 284.21 315.452 284.21C316.719 284.21 317.598 284.95 317.598 286.019C317.598 287.081 316.726 287.821 315.452 287.821ZM325.21 289.264C327.736 289.264 329.238 287.22 329.238 283.719C329.238 280.211 327.714 278.167 325.21 278.167C322.697 278.167 321.174 280.211 321.174 283.705C321.174 287.213 322.675 289.264 325.21 289.264ZM325.21 287.733C323.869 287.733 323.086 286.341 323.086 283.705C323.086 281.09 323.884 279.706 325.21 279.706C326.535 279.706 327.326 281.083 327.326 283.705C327.326 286.349 326.55 287.733 325.21 287.733ZM334.945 289.264C337.472 289.264 338.973 287.22 338.973 283.719C338.973 280.211 337.45 278.167 334.945 278.167C332.433 278.167 330.909 280.211 330.909 283.705C330.909 287.213 332.411 289.264 334.945 289.264ZM334.945 287.733C333.605 287.733 332.821 286.341 332.821 283.705C332.821 281.09 333.619 279.706 334.945 279.706C336.271 279.706 337.062 281.083 337.062 283.705C337.062 286.349 336.285 287.733 334.945 287.733ZM345.129 291.263L348.923 277.896H347.29L343.489 291.263H345.129ZM355.687 289V278.431H353.797V289H355.687ZM357.864 289H359.68V284.334C359.68 283.133 360.361 282.379 361.445 282.379C362.551 282.379 363.064 283.001 363.064 284.247V289H364.88V283.822C364.88 281.917 363.906 280.841 362.119 280.841C360.925 280.841 360.12 281.383 359.739 282.276H359.614V280.995H357.864V289ZM366.611 283.28C366.611 284.481 367.336 285.184 368.874 285.536L370.295 285.865C371.056 286.041 371.401 286.334 371.401 286.788C371.401 287.396 370.763 287.813 369.848 287.813C368.94 287.813 368.376 287.447 368.2 286.854H366.406C366.545 288.297 367.804 289.161 369.804 289.161C371.803 289.161 373.217 288.143 373.217 286.612C373.217 285.433 372.507 284.781 370.976 284.43L369.562 284.115C368.757 283.924 368.376 283.639 368.376 283.185C368.376 282.591 368.998 282.188 369.826 282.188C370.676 282.188 371.21 282.555 371.342 283.119H373.049C372.917 281.676 371.723 280.841 369.819 280.841C367.929 280.841 366.611 281.844 366.611 283.28ZM375.335 279.032V281.046H374.068V282.459H375.335V286.876C375.335 288.421 376.068 289.037 377.906 289.037C378.258 289.037 378.595 289.007 378.858 288.956V287.564C378.639 287.586 378.5 287.601 378.243 287.601C377.481 287.601 377.145 287.242 377.145 286.444V282.459H378.858V281.046H377.145V279.032H375.335ZM382.639 289.132C383.687 289.132 384.566 288.678 385.012 287.901H385.137V289H386.887V283.529C386.887 281.837 385.73 280.841 383.672 280.841C381.768 280.841 380.442 281.734 380.296 283.133H382.01C382.178 282.584 382.749 282.284 383.584 282.284C384.566 282.284 385.093 282.73 385.093 283.529V284.217L383.028 284.342C381.079 284.452 379.988 285.294 379.988 286.729C379.988 288.194 381.094 289.132 382.639 289.132ZM383.174 287.733C382.368 287.733 381.79 287.33 381.79 286.642C381.79 285.975 382.266 285.602 383.284 285.536L385.093 285.411V286.063C385.093 287.015 384.273 287.733 383.174 287.733ZM388.837 289H390.654V284.334C390.654 283.133 391.335 282.379 392.419 282.379C393.525 282.379 394.038 283.001 394.038 284.247V289H395.854V283.822C395.854 281.917 394.88 280.841 393.093 280.841C391.899 280.841 391.093 281.383 390.712 282.276H390.588V280.995H388.837V289ZM398.346 279.032V281.046H397.079V282.459H398.346V286.876C398.346 288.421 399.078 289.037 400.917 289.037C401.268 289.037 401.605 289.007 401.869 288.956V287.564C401.649 287.586 401.51 287.601 401.254 287.601C400.492 287.601 400.155 287.242 400.155 286.444V282.459H401.869V281.046H400.155V279.032H398.346ZM409.284 285.023H411.379L413.452 289H415.613L413.305 284.737C414.565 284.283 415.298 283.119 415.298 281.72C415.298 279.698 413.906 278.431 411.687 278.431H407.395V289H409.284V285.023ZM409.284 279.962H411.423C412.624 279.962 413.357 280.643 413.357 281.756C413.357 282.892 412.668 283.543 411.467 283.543H409.284V279.962ZM422.133 286.81C421.869 287.411 421.247 287.748 420.346 287.748C419.152 287.748 418.383 286.898 418.339 285.543V285.448H423.935V284.869C423.935 282.357 422.565 280.841 420.28 280.841C417.958 280.841 416.515 282.459 416.515 285.03C416.515 287.594 417.936 289.161 420.294 289.161C422.184 289.161 423.524 288.253 423.854 286.81H422.133ZM420.272 282.254C421.364 282.254 422.081 283.023 422.118 284.239H418.346C418.427 283.038 419.188 282.254 420.272 282.254ZM426.104 289H427.913V282.459H429.634V281.046H427.891V280.306C427.891 279.544 428.228 279.164 429.085 279.164C429.341 279.164 429.561 279.186 429.708 279.208V277.896C429.415 277.845 429.085 277.823 428.697 277.823C426.917 277.823 426.104 278.607 426.104 280.204V281.046H424.793V282.459H426.104V289ZM438.125 280.995H436.309V285.66C436.309 286.869 435.664 287.601 434.485 287.601C433.401 287.601 432.895 287 432.895 285.755V280.995H431.079V286.195C431.079 288.07 432.104 289.161 433.855 289.161C435.078 289.161 435.862 288.641 436.25 287.726H436.374V289H438.125V280.995ZM440.111 289H441.928V284.334C441.928 283.133 442.609 282.379 443.693 282.379C444.799 282.379 445.312 283.001 445.312 284.247V289H447.128V283.822C447.128 281.917 446.154 280.841 444.367 280.841C443.173 280.841 442.367 281.383 441.986 282.276H441.862V280.995H440.111V289ZM451.942 289.132C453.055 289.132 453.978 288.612 454.432 287.733H454.557V289H456.314V277.896H454.498V282.269H454.373C453.949 281.39 453.04 280.863 451.942 280.863C449.92 280.863 448.646 282.459 448.646 284.994C448.646 287.535 449.913 289.132 451.942 289.132ZM452.506 282.379C453.751 282.379 454.52 283.382 454.52 285.001C454.52 286.627 453.758 287.623 452.506 287.623C451.261 287.623 450.506 286.642 450.506 285.001C450.506 283.368 451.268 282.379 452.506 282.379Z" fill="white"/>
<path d="M488.102 241H489.194V236.95C489.194 235.75 489.899 235.021 490.991 235.021C492.082 235.021 492.603 235.604 492.603 236.836V241H493.695V236.569C493.695 234.944 492.838 234.037 491.302 234.037C490.254 234.037 489.588 234.481 489.245 235.236H489.143V234.157H488.102V241ZM498.426 241.121C500.375 241.121 501.581 239.775 501.581 237.579C501.581 235.376 500.375 234.037 498.426 234.037C496.477 234.037 495.271 235.376 495.271 237.579C495.271 239.775 496.477 241.121 498.426 241.121ZM498.426 240.137C497.131 240.137 496.401 239.197 496.401 237.579C496.401 235.954 497.131 235.021 498.426 235.021C499.721 235.021 500.451 235.954 500.451 237.579C500.451 239.197 499.721 240.137 498.426 240.137ZM511.568 234.157H510.47L509.125 239.629H509.023L507.493 234.157H506.446L504.916 239.629H504.814L503.469 234.157H502.364L504.281 241H505.386L506.909 235.706H507.011L508.541 241H509.651L511.568 234.157Z" fill="white" style="mix-blend-mode:overlay"/>
<path d="M488.102 241H489.194V236.95C489.194 235.75 489.899 235.021 490.991 235.021C492.082 235.021 492.603 235.604 492.603 236.836V241H493.695V236.569C493.695 234.944 492.838 234.037 491.302 234.037C490.254 234.037 489.588 234.481 489.245 235.236H489.143V234.157H488.102V241ZM498.426 241.121C500.375 241.121 501.581 239.775 501.581 237.579C501.581 235.376 500.375 234.037 498.426 234.037C496.477 234.037 495.271 235.376 495.271 237.579C495.271 239.775 496.477 241.121 498.426 241.121ZM498.426 240.137C497.131 240.137 496.401 239.197 496.401 237.579C496.401 235.954 497.131 235.021 498.426 235.021C499.721 235.021 500.451 235.954 500.451 237.579C500.451 239.197 499.721 240.137 498.426 240.137ZM511.568 234.157H510.47L509.125 239.629H509.023L507.493 234.157H506.446L504.916 239.629H504.814L503.469 234.157H502.364L504.281 241H505.386L506.909 235.706H507.011L508.541 241H509.651L511.568 234.157Z" fill="white" fill-opacity="0.36"/>
<path d="M212.855 237.458V236.341H209.142V237.344H211.719V237.566C211.719 239.115 210.608 240.162 208.97 240.162C207.129 240.162 205.987 238.728 205.987 236.417C205.987 234.138 207.148 232.678 208.964 232.678C210.322 232.678 211.243 233.332 211.636 234.57H212.798C212.468 232.754 210.995 231.625 208.964 231.625C206.457 231.625 204.812 233.522 204.812 236.417C204.812 239.35 206.431 241.216 208.964 241.216C211.306 241.216 212.855 239.718 212.855 237.458ZM223.828 241V231.84H222.502L219.366 239.483H219.264L216.129 231.84H214.802V241H215.868V234.005H215.944L218.833 241H219.797L222.686 234.005H222.762V241H223.828ZM232.04 241H233.24L229.863 231.84H228.733L225.356 241H226.556L227.476 238.378H231.12L232.04 241ZM229.247 233.319H229.349L230.783 237.407H227.813L229.247 233.319ZM235.911 241V231.84H234.768V241H235.911ZM243.729 239.972H239.311V231.84H238.168V241H243.729V239.972Z" fill="white" style="mix-blend-mode:overlay"/>
<path d="M212.855 237.458V236.341H209.142V237.344H211.719V237.566C211.719 239.115 210.608 240.162 208.97 240.162C207.129 240.162 205.987 238.728 205.987 236.417C205.987 234.138 207.148 232.678 208.964 232.678C210.322 232.678 211.243 233.332 211.636 234.57H212.798C212.468 232.754 210.995 231.625 208.964 231.625C206.457 231.625 204.812 233.522 204.812 236.417C204.812 239.35 206.431 241.216 208.964 241.216C211.306 241.216 212.855 239.718 212.855 237.458ZM223.828 241V231.84H222.502L219.366 239.483H219.264L216.129 231.84H214.802V241H215.868V234.005H215.944L218.833 241H219.797L222.686 234.005H222.762V241H223.828ZM232.04 241H233.24L229.863 231.84H228.733L225.356 241H226.556L227.476 238.378H231.12L232.04 241ZM229.247 233.319H229.349L230.783 237.407H227.813L229.247 233.319ZM235.911 241V231.84H234.768V241H235.911ZM243.729 239.972H239.311V231.84H238.168V241H243.729V239.972Z" fill="white" fill-opacity="0.36"/>
<rect x="178" y="226" width="20" height="20" rx="4.33333" fill="white"/>
<path d="M181.091 242H183.635V235.82L180 233.093V240.909C180 241.513 180.489 242 181.091 242Z" fill="#4285F4"/>
<path d="M192.36 242H194.905C195.509 242 195.996 241.511 195.996 240.909V233.093L192.36 235.82" fill="#34A853"/>
<path d="M192.36 231.094V235.82L195.996 233.093V231.639C195.996 230.29 194.456 229.521 193.378 230.33" fill="#FBBC04"/>
<path d="M183.635 235.82V231.094L187.998 234.366L192.361 231.094V235.82L187.998 239.092" fill="#EA4335"/>
<path d="M180 231.639V233.093L183.635 235.82V231.094L182.618 230.33C181.538 229.521 180 230.29 180 231.639" fill="#C5221F"/>
<rect x="168" y="120" width="360" height="88" rx="13" fill="#252525" fill-opacity="0.6"/>
<path d="M182.666 188.817H185.266L187.529 193H189.075L186.628 188.612C187.954 188.195 188.752 187.052 188.752 185.58C188.752 183.676 187.419 182.431 185.383 182.431H181.348V193H182.666V188.817ZM182.666 183.603H185.208C186.57 183.603 187.39 184.357 187.39 185.624C187.39 186.92 186.621 187.646 185.266 187.646H182.666V183.603ZM195.756 190.956C195.427 191.652 194.738 192.025 193.72 192.025C192.38 192.025 191.508 191.037 191.442 189.477V189.418H197.118V188.935C197.118 186.481 195.822 184.965 193.691 184.965C191.523 184.965 190.131 186.576 190.131 189.059C190.131 191.557 191.501 193.139 193.691 193.139C195.419 193.139 196.65 192.304 197.016 190.956H195.756ZM193.676 186.078C194.928 186.078 195.763 187.001 195.793 188.4H191.442C191.537 187.001 192.416 186.078 193.676 186.078ZM199.383 193H200.643V186.159H202.452V185.104H200.643V184.262C200.643 183.397 201.024 182.958 201.932 182.958C202.159 182.958 202.372 182.965 202.525 182.995V181.969C202.262 181.918 201.983 181.896 201.676 181.896C200.174 181.896 199.383 182.65 199.383 184.225V185.104H198.072V186.159H199.383V193ZM210.437 185.104H209.177V189.777C209.177 191.161 208.416 191.989 207.024 191.989C205.764 191.989 205.237 191.33 205.237 189.909V185.104H203.977V190.216C203.977 192.084 204.9 193.139 206.673 193.139C207.881 193.139 208.723 192.641 209.119 191.762H209.236V193H210.437V185.104ZM212.57 193H213.83V188.327C213.83 186.942 214.643 186.1 215.903 186.1C217.163 186.1 217.763 186.774 217.763 188.195V193H219.023V187.887C219.023 186.012 218.034 184.965 216.262 184.965C215.053 184.965 214.284 185.478 213.889 186.349H213.771V185.104H212.57V193ZM224.012 193.139C225.104 193.139 226.041 192.619 226.539 191.74H226.656V193H227.858V181.969H226.598V186.349H226.488C226.041 185.485 225.111 184.965 224.012 184.965C222.006 184.965 220.695 186.576 220.695 189.052C220.695 191.535 221.991 193.139 224.012 193.139ZM224.305 186.1C225.734 186.1 226.627 187.243 226.627 189.052C226.627 190.875 225.741 192.003 224.305 192.003C222.862 192.003 221.998 190.897 221.998 189.052C221.998 187.213 222.87 186.1 224.305 186.1ZM240.503 185.104H239.155L236.994 191.608H236.877L234.716 185.104H233.369L236.291 193H237.58L240.503 185.104ZM242.606 183.581C243.09 183.581 243.485 183.185 243.485 182.702C243.485 182.218 243.09 181.823 242.606 181.823C242.123 181.823 241.727 182.218 241.727 182.702C241.727 183.185 242.123 183.581 242.606 183.581ZM241.976 193H243.236V185.104H241.976V193ZM247.596 193.139C248.651 193.139 249.515 192.677 250.027 191.835H250.145V193H251.346V187.594C251.346 185.954 250.269 184.965 248.343 184.965C246.658 184.965 245.413 185.8 245.245 187.067H246.519C246.695 186.444 247.354 186.085 248.299 186.085C249.478 186.085 250.086 186.62 250.086 187.594V188.312L247.808 188.451C245.97 188.561 244.93 189.374 244.93 190.788C244.93 192.23 246.065 193.139 247.596 193.139ZM247.83 192.033C246.915 192.033 246.234 191.564 246.234 190.758C246.234 189.967 246.761 189.55 247.962 189.469L250.086 189.33V190.055C250.086 191.183 249.127 192.033 247.83 192.033ZM257.589 182.431V193H258.908V189.228H261.567C263.551 189.228 264.965 187.829 264.965 185.851C264.965 183.837 263.581 182.431 261.581 182.431H257.589ZM258.908 183.603H261.237C262.768 183.603 263.61 184.401 263.61 185.851C263.61 187.25 262.738 188.056 261.237 188.056H258.908V183.603ZM268.629 193.139C269.683 193.139 270.548 192.677 271.06 191.835H271.178V193H272.379V187.594C272.379 185.954 271.302 184.965 269.376 184.965C267.691 184.965 266.446 185.8 266.278 187.067H267.552C267.728 186.444 268.387 186.085 269.332 186.085C270.511 186.085 271.119 186.62 271.119 187.594V188.312L268.841 188.451C267.003 188.561 265.963 189.374 265.963 190.788C265.963 192.23 267.098 193.139 268.629 193.139ZM268.863 192.033C267.948 192.033 267.266 191.564 267.266 190.758C267.266 189.967 267.794 189.55 268.995 189.469L271.119 189.33V190.055C271.119 191.183 270.16 192.033 268.863 192.033ZM274.849 195.856C276.248 195.856 276.878 195.314 277.551 193.483L280.635 185.104H279.295L277.134 191.601H277.017L274.849 185.104H273.486L276.409 193.007L276.262 193.476C275.933 194.428 275.537 194.772 274.812 194.772C274.636 194.772 274.439 194.765 274.285 194.735V195.812C274.461 195.841 274.68 195.856 274.849 195.856ZM289.999 193.139C291.998 193.139 293.309 191.52 293.309 189.052C293.309 186.569 292.005 184.965 289.999 184.965C288.915 184.965 287.955 185.5 287.523 186.349H287.406V181.969H286.146V193H287.347V191.74H287.464C287.963 192.619 288.9 193.139 289.999 193.139ZM289.706 186.1C291.149 186.1 292.005 187.206 292.005 189.052C292.005 190.897 291.149 192.003 289.706 192.003C288.27 192.003 287.377 190.875 287.377 189.052C287.377 187.228 288.27 186.1 289.706 186.1ZM295.428 195.856C296.827 195.856 297.456 195.314 298.13 193.483L301.214 185.104H299.873L297.713 191.601H297.596L295.428 185.104H294.065L296.988 193.007L296.841 193.476C296.512 194.428 296.116 194.772 295.391 194.772C295.215 194.772 295.017 194.765 294.864 194.735V195.812C295.039 195.841 295.259 195.856 295.428 195.856ZM310.936 193C313.185 193 314.518 191.894 314.518 190.033C314.518 188.634 313.602 187.646 312.159 187.462V187.345C313.178 187.162 313.983 186.166 313.983 185.067C313.983 183.449 312.797 182.431 310.856 182.431H306.813V193H310.936ZM308.131 183.595H310.577C311.888 183.595 312.65 184.218 312.65 185.294C312.65 186.415 311.837 186.986 310.241 186.986H308.131V183.595ZM308.131 191.835V188.122H310.614C312.299 188.122 313.163 188.744 313.163 189.967C313.163 191.19 312.328 191.835 310.739 191.835H308.131ZM318.467 193.139C319.522 193.139 320.386 192.677 320.899 191.835H321.016V193H322.217V187.594C322.217 185.954 321.141 184.965 319.214 184.965C317.53 184.965 316.285 185.8 316.116 187.067H317.391C317.566 186.444 318.226 186.085 319.17 186.085C320.35 186.085 320.958 186.62 320.958 187.594V188.312L318.68 188.451C316.841 188.561 315.801 189.374 315.801 190.788C315.801 192.23 316.937 193.139 318.467 193.139ZM318.702 192.033C317.786 192.033 317.105 191.564 317.105 190.758C317.105 189.967 317.632 189.55 318.834 189.469L320.958 189.33V190.055C320.958 191.183 319.998 192.033 318.702 192.033ZM324.306 193H325.566V188.327C325.566 186.942 326.379 186.1 327.639 186.1C328.899 186.1 329.499 186.774 329.499 188.195V193H330.759V187.887C330.759 186.012 329.77 184.965 327.998 184.965C326.789 184.965 326.02 185.478 325.625 186.349H325.508V185.104H324.306V193ZM334.276 188.554H334.159V181.969H332.899V193H334.159V190.004L334.914 189.301L337.873 193H339.477L335.851 188.488L339.25 185.104H337.704L334.276 188.554Z" fill="white"/>
<path d="M180.981 167.14V168.195H183.01C183.091 168.517 183.149 168.847 183.149 169.176C183.149 170.348 182.256 171.381 181.003 171.652V172.963H188.884V171.601H183.318V171.505C184.109 171.073 184.731 170.231 184.731 169.11C184.731 168.795 184.688 168.495 184.614 168.195H187.683V167.14H184.285C184.087 166.554 183.889 165.961 183.889 165.36C183.889 164.247 184.768 163.573 186.292 163.573C187.126 163.573 187.991 163.749 188.372 163.961V162.599C187.91 162.372 187.046 162.211 186.13 162.211C183.699 162.211 182.249 163.383 182.249 165.28C182.249 165.917 182.454 166.532 182.666 167.14H180.981ZM190.776 165.492H192.328C192.328 164.32 193.112 163.529 194.306 163.529C195.478 163.529 196.174 164.313 196.174 165.338C196.174 166.195 195.822 166.723 194.482 168.122L190.864 171.886V173H197.983V171.601H193.105V171.476L195.434 169.132C197.287 167.272 197.822 166.4 197.822 165.177C197.822 163.441 196.393 162.174 194.408 162.174C192.277 162.174 190.776 163.551 190.776 165.492ZM203.448 173.249C206.092 173.249 207.638 171.154 207.638 167.565C207.638 164.02 205.938 162.174 203.514 162.174C201.273 162.174 199.684 163.705 199.684 165.851C199.684 167.887 201.148 169.374 203.163 169.374C204.415 169.374 205.426 168.788 205.931 167.777H206.056C206.012 170.399 205.082 171.864 203.463 171.864C202.496 171.864 201.742 171.337 201.493 170.465H199.837C200.152 172.165 201.573 173.249 203.448 173.249ZM203.521 168.048C202.218 168.048 201.317 167.133 201.317 165.8C201.317 164.525 202.269 163.544 203.536 163.544C204.796 163.544 205.748 164.54 205.748 165.844C205.748 167.125 204.818 168.048 203.521 168.048ZM210.034 173.109C210.657 173.109 211.111 172.648 211.111 172.055C211.111 171.461 210.657 171 210.034 171C209.419 171 208.958 171.461 208.958 172.055C208.958 172.648 209.419 173.109 210.034 173.109ZM216.254 173.249C218.898 173.249 220.444 171.154 220.444 167.565C220.444 164.02 218.745 162.174 216.32 162.174C214.079 162.174 212.49 163.705 212.49 165.851C212.49 167.887 213.955 169.374 215.969 169.374C217.221 169.374 218.232 168.788 218.737 167.777H218.862C218.818 170.399 217.888 171.864 216.269 171.864C215.302 171.864 214.548 171.337 214.299 170.465H212.644C212.958 172.165 214.379 173.249 216.254 173.249ZM216.328 168.048C215.024 168.048 214.123 167.133 214.123 165.8C214.123 164.525 215.075 163.544 216.342 163.544C217.602 163.544 218.554 164.54 218.554 165.844C218.554 167.125 217.624 168.048 216.328 168.048ZM225.829 173.249C228.473 173.249 230.018 171.154 230.018 167.565C230.018 164.02 228.319 162.174 225.895 162.174C223.654 162.174 222.064 163.705 222.064 165.851C222.064 167.887 223.529 169.374 225.543 169.374C226.796 169.374 227.806 168.788 228.312 167.777H228.436C228.392 170.399 227.462 171.864 225.843 171.864C224.877 171.864 224.122 171.337 223.873 170.465H222.218C222.533 172.165 223.954 173.249 225.829 173.249ZM225.902 168.048C224.598 168.048 223.697 167.133 223.697 165.8C223.697 164.525 224.65 163.544 225.917 163.544C227.176 163.544 228.129 164.54 228.129 165.844C228.129 167.125 227.198 168.048 225.902 168.048ZM237.536 168.935H239.851L242.004 173H243.901L241.528 168.678C242.817 168.246 243.579 167.089 243.579 165.661C243.579 163.69 242.209 162.431 240.078 162.431H235.896V173H237.536V168.935ZM237.536 163.808H239.851C241.118 163.808 241.894 164.518 241.894 165.697C241.894 166.906 241.162 167.587 239.895 167.587H237.536V163.808ZM250.487 170.868C250.194 171.513 249.542 171.864 248.59 171.864C247.33 171.864 246.518 170.956 246.466 169.513V169.44H252.099V168.898C252.099 166.408 250.758 164.892 248.539 164.892C246.29 164.892 244.862 166.51 244.862 169.037C244.862 171.579 246.261 173.153 248.546 173.153C250.37 173.153 251.659 172.274 252.003 170.868H250.487ZM248.532 166.173C249.696 166.173 250.458 167.016 250.495 168.305H246.466C246.554 167.023 247.367 166.173 248.532 166.173ZM254.312 173H255.887V166.327H257.645V165.067H255.865V164.284C255.865 163.478 256.224 163.075 257.103 163.075C257.352 163.075 257.564 163.09 257.711 163.112V161.925C257.44 161.881 257.132 161.852 256.773 161.852C255.118 161.852 254.312 162.628 254.312 164.21V165.067H253.001V166.327H254.312V173ZM265.915 165.045H264.341V169.711C264.341 170.993 263.645 171.769 262.371 171.769C261.213 171.769 260.693 171.139 260.693 169.821V165.045H259.119V170.209C259.119 172.077 260.1 173.153 261.865 173.153C263.074 173.153 263.887 172.641 264.275 171.74H264.399V173H265.915V165.045ZM267.961 173H269.535V168.334C269.535 167.052 270.275 166.261 271.44 166.261C272.604 166.261 273.161 166.906 273.161 168.224V173H274.735V167.851C274.735 165.954 273.754 164.892 271.974 164.892C270.773 164.892 269.982 165.426 269.594 166.305H269.477V165.045H267.961V173ZM279.63 173.131C280.728 173.131 281.659 172.611 282.135 171.74H282.259V173H283.768V161.925H282.193V166.305H282.076C281.644 165.434 280.721 164.906 279.63 164.906C277.616 164.906 276.319 166.51 276.319 169.015C276.319 171.535 277.601 173.131 279.63 173.131ZM280.077 166.254C281.395 166.254 282.223 167.323 282.223 169.022C282.223 170.736 281.402 171.784 280.077 171.784C278.744 171.784 277.945 170.751 277.945 169.022C277.945 167.301 278.751 166.254 280.077 166.254ZM290.319 173H291.894V166.327H293.652V165.067H291.872V164.284C291.872 163.478 292.231 163.075 293.11 163.075C293.359 163.075 293.571 163.09 293.718 163.112V161.925C293.447 161.881 293.139 161.852 292.78 161.852C291.125 161.852 290.319 162.628 290.319 164.21V165.067H289.008V166.327H290.319V173ZM295.199 173H296.774V168.246C296.774 167.125 297.616 166.356 298.81 166.356C299.088 166.356 299.557 166.408 299.689 166.444V164.965C299.52 164.928 299.22 164.906 298.985 164.906C297.945 164.906 297.059 165.47 296.832 166.254H296.715V165.045H295.199V173ZM304.129 173.153C306.458 173.153 307.886 171.593 307.886 169.022C307.886 166.452 306.451 164.892 304.129 164.892C301.8 164.892 300.364 166.459 300.364 169.022C300.364 171.593 301.792 173.153 304.129 173.153ZM304.129 171.813C302.759 171.813 301.99 170.795 301.99 169.022C301.99 167.25 302.759 166.225 304.129 166.225C305.491 166.225 306.267 167.25 306.267 169.022C306.267 170.788 305.491 171.813 304.129 171.813ZM309.543 173H311.118V168.114C311.118 167.074 311.843 166.261 312.802 166.261C313.74 166.261 314.34 166.825 314.34 167.733V173H315.886V167.968C315.886 167.008 316.552 166.261 317.57 166.261C318.603 166.261 319.116 166.796 319.116 167.895V173H320.691V167.514C320.691 165.858 319.753 164.892 318.142 164.892C317.036 164.892 316.12 165.456 315.717 166.312H315.593C315.241 165.456 314.487 164.892 313.396 164.892C312.334 164.892 311.528 165.419 311.176 166.312H311.059V165.045H309.543V173ZM335.408 173V162.431H333.775V166.898H328.348V162.431H326.707V173H328.348V168.319H333.775V173H335.408ZM345.224 173H347.143L345.261 171C345.84 170.143 346.14 168.979 346.14 167.455V167.111H344.712V167.404C344.712 168.583 344.558 169.359 344.258 169.953L341.833 167.345C343.415 166.51 344.075 165.69 344.075 164.606C344.075 163.207 342.903 162.211 341.284 162.211C339.673 162.211 338.471 163.229 338.471 164.613C338.471 165.382 338.823 166.056 339.797 167.067C339.702 167.118 339.438 167.257 339.365 167.294C337.973 168.034 337.314 168.957 337.314 170.202C337.314 171.981 338.779 173.197 340.932 173.197C342.221 173.197 343.445 172.758 344.309 172.011L345.224 173ZM341.02 166.51C340.229 165.727 339.944 165.25 339.944 164.694C339.944 163.932 340.508 163.39 341.291 163.39C342.09 163.39 342.639 163.917 342.639 164.687C342.639 165.397 342.2 165.91 341.02 166.51ZM340.273 168.158C340.368 168.107 340.544 168.019 340.617 167.99L343.408 171.029C342.888 171.579 341.98 171.923 341.086 171.923C339.768 171.923 338.882 171.183 338.882 170.077C338.882 169.315 339.343 168.649 340.273 168.158ZM359.127 173V162.431H357.209L353.839 170.7H353.715L350.353 162.431H348.434V173H349.958V165.258H350.06L353.158 172.809H354.403L357.502 165.258H357.604V173H359.127Z" fill="white"/>
<path d="M488.102 145H489.194V140.95C489.194 139.75 489.898 139.02 490.99 139.02C492.082 139.02 492.602 139.604 492.602 140.835V145H493.694V140.569C493.694 138.944 492.837 138.036 491.301 138.036C490.254 138.036 489.587 138.48 489.244 139.236H489.143V138.157H488.102V145ZM498.426 145.12C500.374 145.12 501.58 143.774 501.58 141.578C501.58 139.375 500.374 138.036 498.426 138.036C496.477 138.036 495.271 139.375 495.271 141.578C495.271 143.774 496.477 145.12 498.426 145.12ZM498.426 144.136C497.131 144.136 496.401 143.197 496.401 141.578C496.401 139.953 497.131 139.02 498.426 139.02C499.721 139.02 500.451 139.953 500.451 141.578C500.451 143.197 499.721 144.136 498.426 144.136ZM511.568 138.157H510.47L509.124 143.628H509.022L507.493 138.157H506.445L504.916 143.628H504.814L503.468 138.157H502.364L504.281 145H505.385L506.909 139.706H507.01L508.54 145H509.651L511.568 138.157Z" fill="white" style="mix-blend-mode:overlay"/>
<path d="M488.102 145H489.194V140.95C489.194 139.75 489.898 139.02 490.99 139.02C492.082 139.02 492.602 139.604 492.602 140.835V145H493.694V140.569C493.694 138.944 492.837 138.036 491.301 138.036C490.254 138.036 489.587 138.48 489.244 139.236H489.143V138.157H488.102V145ZM498.426 145.12C500.374 145.12 501.58 143.774 501.58 141.578C501.58 139.375 500.374 138.036 498.426 138.036C496.477 138.036 495.271 139.375 495.271 141.578C495.271 143.774 496.477 145.12 498.426 145.12ZM498.426 144.136C497.131 144.136 496.401 143.197 496.401 141.578C496.401 139.953 497.131 139.02 498.426 139.02C499.721 139.02 500.451 139.953 500.451 141.578C500.451 143.197 499.721 144.136 498.426 144.136ZM511.568 138.157H510.47L509.124 143.628H509.022L507.493 138.157H506.445L504.916 143.628H504.814L503.468 138.157H502.364L504.281 145H505.385L506.909 139.706H507.01L508.54 145H509.651L511.568 138.157Z" fill="white" fill-opacity="0.36"/>
<path d="M214.194 145V135.84H212.868L209.732 143.483H209.63L206.495 135.84H205.168V145H206.234V138.005H206.311L209.199 145H210.164L213.052 138.005H213.128V145H214.194ZM220.299 135.625C217.709 135.625 216.097 137.472 216.097 140.417C216.097 143.35 217.671 145.216 220.299 145.216C222.914 145.216 224.501 143.343 224.501 140.417C224.501 137.478 222.901 135.625 220.299 135.625ZM220.299 136.678C222.172 136.678 223.327 138.125 223.327 140.417C223.327 142.689 222.178 144.162 220.299 144.162C218.395 144.162 217.271 142.689 217.271 140.417C217.271 138.125 218.433 136.678 220.299 136.678ZM227.533 145V137.897H227.635L232.605 145H233.716V135.84H232.586V142.969H232.485L227.514 135.84H226.404V145H227.533ZM235.72 145H242.493V143.972H237.224V143.87L242.385 136.653V135.84H235.898V136.869H240.906V136.97L235.72 144.188V145ZM247.969 135.625C245.379 135.625 243.767 137.472 243.767 140.417C243.767 143.35 245.341 145.216 247.969 145.216C250.584 145.216 252.171 143.343 252.171 140.417C252.171 137.478 250.572 135.625 247.969 135.625ZM247.969 136.678C249.842 136.678 250.997 138.125 250.997 140.417C250.997 142.689 249.848 144.162 247.969 144.162C246.065 144.162 244.941 142.689 244.941 140.417C244.941 138.125 246.103 136.678 247.969 136.678Z" fill="white" style="mix-blend-mode:overlay"/>
<path d="M214.194 145V135.84H212.868L209.732 143.483H209.63L206.495 135.84H205.168V145H206.234V138.005H206.311L209.199 145H210.164L213.052 138.005H213.128V145H214.194ZM220.299 135.625C217.709 135.625 216.097 137.472 216.097 140.417C216.097 143.35 217.671 145.216 220.299 145.216C222.914 145.216 224.501 143.343 224.501 140.417C224.501 137.478 222.901 135.625 220.299 135.625ZM220.299 136.678C222.172 136.678 223.327 138.125 223.327 140.417C223.327 142.689 222.178 144.162 220.299 144.162C218.395 144.162 217.271 142.689 217.271 140.417C217.271 138.125 218.433 136.678 220.299 136.678ZM227.533 145V137.897H227.635L232.605 145H233.716V135.84H232.586V142.969H232.485L227.514 135.84H226.404V145H227.533ZM235.72 145H242.493V143.972H237.224V143.87L242.385 136.653V135.84H235.898V136.869H240.906V136.97L235.72 144.188V145ZM247.969 135.625C245.379 135.625 243.767 137.472 243.767 140.417C243.767 143.35 245.341 145.216 247.969 145.216C250.584 145.216 252.171 143.343 252.171 140.417C252.171 137.478 250.572 135.625 247.969 135.625ZM247.969 136.678C249.842 136.678 250.997 138.125 250.997 140.417C250.997 142.689 249.848 144.162 247.969 144.162C246.065 144.162 244.941 142.689 244.941 140.417C244.941 138.125 246.103 136.678 247.969 136.678Z" fill="white" fill-opacity="0.36"/>
<rect x="178" y="130" width="20" height="20" rx="4.33333" fill="#19243C"/>
<path d="M195.992 143.509C195.992 143.706 195.914 143.895 195.775 144.034L192.457 147.351C192.373 147.437 192.244 147.463 192.133 147.417C192.021 147.371 191.949 147.262 191.949 147.142V139.708L195.944 135.734H195.99L195.992 143.509Z" fill="#FA395B"/>
<path d="M193.346 133.087C193.29 133.031 193.215 133 193.136 133C193.058 133 192.982 133.031 192.927 133.087L187.994 138.021H187.929V143.589L187.998 143.735L191.957 139.776L195.998 135.734L193.346 133.087Z" fill="#EFD198"/>
<path d="M179.998 143.509C179.996 143.705 180.072 143.894 180.209 144.034L183.527 147.351C183.611 147.437 183.74 147.463 183.851 147.417C183.963 147.371 184.036 147.262 184.035 147.142V139.708L180.038 135.734H179.998V143.509Z" fill="#007A8E"/>
<path d="M183.061 133.087C183.005 133.031 182.93 133 182.851 133C182.773 133 182.697 133.031 182.642 133.087L179.998 135.73L184.039 139.772L187.999 143.731V138.017L183.061 133.087Z" fill="#91BFA8"/>
</svg>
