<svg width="104" height="32" viewBox="0 0 104 32" fill="none" xmlns="http://www.w3.org/2000/svg">
<path fill-rule="evenodd" clip-rule="evenodd" d="M0 4.74434C0 2.12411 2.12411 0 4.74434 0H17.8825C20.5027 0 22.6268 2.12411 22.6268 4.74434V22.8397C22.6268 25.46 20.5027 27.5841 17.8825 27.5841H4.74433C2.1241 27.5841 0 25.46 0 22.8397V4.74434ZM4.74434 2.18969C3.33345 2.18969 2.18969 3.33345 2.18969 4.74434V22.8397C2.18969 24.2506 3.33344 25.3943 4.74433 25.3943H17.8825C19.2934 25.3943 20.4372 24.2506 20.4372 22.8397V4.74434C20.4372 3.33345 19.2934 2.18969 17.8825 2.18969H4.74434Z" fill="white"/>
<path fill-rule="evenodd" clip-rule="evenodd" d="M12.4089 20.5941V1.27734H10.2192V31.9998H12.4089V25.8576C12.4731 22.6939 14.756 21.0296 17.9237 19.7505C20.638 18.6544 22.6274 16.1213 22.6274 13.0737H20.4378C20.4378 15.1114 19.1047 16.9121 17.1038 17.7202C15.4333 18.3947 13.7124 19.2837 12.4089 20.5941Z" fill="white"/>
<path fill-rule="evenodd" clip-rule="evenodd" d="M4.71366 13.1176C1.98838 12.0344 0 9.49779 0 6.45068H2.18969C2.18969 8.48899 3.52201 10.2877 5.52246 11.0828C7.20683 11.7523 8.92784 12.6228 10.2286 13.9076C11.565 15.2275 12.4314 16.9612 12.4082 19.235L10.2187 19.2127C10.2352 17.583 9.64198 16.4058 8.68985 15.4654C7.70191 14.4897 6.30533 13.7503 4.71366 13.1176Z" fill="white"/>
<path d="M37.2837 14.3844H35.1091V18.3873C35.1091 18.721 35.1924 18.9647 35.3592 19.1187C35.526 19.2726 35.7698 19.3625 36.0905 19.3881C36.4113 19.4009 36.809 19.3945 37.2837 19.3689V21.6205C35.5774 21.813 34.3714 21.6527 33.6657 21.1394C32.9728 20.6263 32.6265 19.7088 32.6265 18.3873V14.3844V11.998V10.0543L35.1091 9.30371V11.998H37.2837V14.3844Z" fill="white"/>
<path d="M41.2817 13.6522C41.5126 13.0363 41.8911 12.5745 42.4171 12.2666C42.956 11.9586 43.5526 11.8047 44.207 11.8047V14.5759C43.45 14.4862 42.77 14.6401 42.167 15.0379C41.5768 15.4355 41.2817 16.0963 41.2817 17.0201V21.6196H38.7991V11.9971H41.2817V13.6522Z" fill="white"/>
<path d="M47.0156 17.8283C47.3492 19.0343 48.2538 19.6373 49.7292 19.6373C50.6786 19.6373 51.3971 19.3166 51.8846 18.675L53.8861 19.8297C52.9367 21.2026 51.5382 21.8889 49.6907 21.8889C48.0998 21.8889 46.8232 21.4078 45.8609 20.4456C44.8987 19.4833 44.4175 18.2709 44.4175 16.8083C44.4175 15.3585 44.8923 14.1525 45.8416 13.1902C46.7911 12.2151 48.0099 11.7275 49.4982 11.7275C50.9096 11.7275 52.0707 12.2151 52.9816 13.1902C53.9054 14.1653 54.3672 15.3713 54.3672 16.8083C54.3672 17.129 54.3352 17.469 54.271 17.8283H47.0156ZM46.9771 15.9037H51.8846C51.7435 15.2494 51.4484 14.7619 50.9993 14.4411C50.5631 14.1203 50.0628 13.96 49.4982 13.96C48.831 13.96 48.2794 14.1331 47.8432 14.4796C47.4069 14.8132 47.1183 15.2879 46.9771 15.9037Z" fill="white"/>
<path d="M57.7372 17.8283C58.0708 19.0343 58.9753 19.6373 60.4508 19.6373C61.4002 19.6373 62.1187 19.3166 62.6063 18.675L64.6077 19.8297C63.6583 21.2026 62.2598 21.8889 60.4123 21.8889C58.8214 21.8889 57.5448 21.4078 56.5826 20.4456C55.6203 19.4833 55.1392 18.2709 55.1392 16.8083C55.1392 15.3585 55.6138 14.1525 56.5632 13.1902C57.5127 12.2151 58.7315 11.7275 60.2198 11.7275C61.6312 11.7275 62.7923 12.2151 63.7032 13.1902C64.627 14.1653 65.0888 15.3713 65.0888 16.8083C65.0888 17.129 65.0568 17.469 64.9927 17.8283H57.7372ZM57.6987 15.9037H62.6063C62.4652 15.2494 62.1701 14.7619 61.721 14.4411C61.2848 14.1203 60.7844 13.96 60.2198 13.96C59.5527 13.96 59.001 14.1331 58.5648 14.4796C58.1285 14.8132 57.8399 15.2879 57.6987 15.9037Z" fill="white"/>
<path d="M70.9416 21.8889C69.4918 21.8889 68.2794 21.4014 67.3042 20.4263C66.3419 19.4513 65.8608 18.2452 65.8608 16.8083C65.8608 15.3713 66.3419 14.1653 67.3042 13.1902C68.2794 12.2151 69.4918 11.7275 70.9416 11.7275C71.8782 11.7275 72.7314 11.9521 73.5012 12.4012C74.2709 12.8502 74.8547 13.4532 75.2525 14.2102L73.1162 15.4611C72.9238 15.0634 72.6287 14.7491 72.2309 14.5181C71.8461 14.2872 71.4099 14.1717 70.9224 14.1717C70.1781 14.1717 69.5623 14.4218 69.0748 14.9223C68.5873 15.4098 68.3435 16.0384 68.3435 16.8083C68.3435 17.5652 68.5873 18.1939 69.0748 18.6942C69.5623 19.1818 70.1781 19.4256 70.9224 19.4256C71.4227 19.4256 71.8653 19.3166 72.2503 19.0984C72.6479 18.8675 72.943 18.5532 73.1355 18.1554L75.2909 19.3871C74.8675 20.144 74.2709 20.7535 73.5012 21.2154C72.7314 21.6645 71.8782 21.8889 70.9416 21.8889Z" fill="white"/>
<path d="M83.3821 11.997H85.8646V21.6195H83.3821V20.4841C82.638 21.4207 81.5923 21.8889 80.2452 21.8889C78.9622 21.8889 77.8588 21.4014 76.9351 20.4263C76.0241 19.4385 75.5686 18.2324 75.5686 16.8083C75.5686 15.3841 76.0241 14.1845 76.9351 13.2094C77.8588 12.2215 78.9622 11.7275 80.2452 11.7275C81.5923 11.7275 82.638 12.1958 83.3821 13.1325V11.997ZM78.8018 18.7713C79.3022 19.2716 79.9373 19.5218 80.7071 19.5218C81.4768 19.5218 82.112 19.2716 82.6123 18.7713C83.1256 18.258 83.3821 17.6037 83.3821 16.8083C83.3821 16.0128 83.1256 15.3649 82.6123 14.8645C82.112 14.3513 81.4768 14.0947 80.7071 14.0947C79.9373 14.0947 79.3022 14.3513 78.8018 14.8645C78.3015 15.3649 78.0512 16.0128 78.0512 16.8083C78.0512 17.6037 78.3015 18.258 78.8018 18.7713Z" fill="white"/>
<path d="M90.2154 13.6522C90.4462 13.0363 90.8249 12.5745 91.3506 12.2666C91.8892 11.9586 92.4858 11.8047 93.1406 11.8047V14.5759C92.3833 14.4862 91.7037 14.6401 91.1001 15.0379C90.5103 15.4355 90.2154 16.0963 90.2154 17.0201V21.6196H87.7321V11.9971H90.2154V13.6522Z" fill="white"/>
<path d="M101.144 8.14844H103.627V21.62H101.144V20.4846C100.412 21.4211 99.373 21.8894 98.0266 21.8894C96.7306 21.8894 95.6202 21.4019 94.697 20.4268C93.7857 19.4389 93.3301 18.2328 93.3301 16.8087C93.3301 15.3846 93.7857 14.185 94.697 13.2099C95.6202 12.2219 96.7306 11.728 98.0266 11.728C99.373 11.728 100.412 12.1963 101.144 13.1329V8.14844ZM96.5639 18.7717C97.0768 19.2721 97.718 19.5223 98.4882 19.5223C99.2575 19.5223 99.8927 19.2721 100.394 18.7717C100.894 18.2585 101.144 17.6042 101.144 16.8087C101.144 16.0132 100.894 15.3653 100.394 14.8649C99.8927 14.3518 99.2575 14.0951 98.4882 14.0951C97.718 14.0951 97.0768 14.3518 96.5639 14.8649C96.063 15.3653 95.8125 16.0132 95.8125 16.8087C95.8125 17.6042 96.063 18.2585 96.5639 18.7717Z" fill="white"/>
<path fill-rule="evenodd" clip-rule="evenodd" d="M14.1681 12.7651C15.3602 12.9077 16.6034 12.5216 17.5181 11.6068C18.4329 10.692 18.819 9.44883 18.6765 8.25684C17.4845 8.11434 16.2413 8.50039 15.3265 9.41515C14.4117 10.3299 14.0256 11.5731 14.1681 12.7651Z" fill="#33BC84"/>
<path fill-rule="evenodd" clip-rule="evenodd" d="M8.61718 9.1055C7.42513 9.248 6.18189 8.86187 5.26713 7.9471C4.35239 7.03238 3.96627 5.7892 4.10876 4.59719C5.30082 4.45464 6.54405 4.84076 7.45882 5.75553C8.37355 6.67027 8.75968 7.91345 8.61718 9.1055Z" fill="#33BC84"/>
<path fill-rule="evenodd" clip-rule="evenodd" d="M8.61718 22.1523C7.42513 22.2949 6.18189 21.9088 5.26713 20.994C4.35239 20.0792 3.96627 18.836 4.10876 17.644C5.30082 17.5015 6.54405 17.8876 7.45882 18.8024C8.37355 19.7171 8.75968 20.9603 8.61718 22.1523Z" fill="#33BC84"/>
</svg>
