<svg width="176" height="112" viewBox="0 0 176 112" fill="none" xmlns="http://www.w3.org/2000/svg">
<rect width="176" height="112" fill="#FAFAFA"/>
<path d="M95.0884 54.9769L92.445 48.1723L88.997 55.6847C87.832 58.0487 84.021 58.7357 81.354 59.1144L81.8372 58.1088L89.5534 43.3086H95.5691L99.879 52.2838L101.768 56.5415L105.66 65.0831L102.977 65.0778L100.885 65.0648C100.004 65.0778 99.145 65.0125 98.7793 64.0696L98.0375 62.2463L96.7941 59.1588L95.0884 54.9769Z" fill="#006F4E"/>
<path d="M96.8249 59.1903C92.7265 61.3035 88.5602 63.3932 83.7905 64.4903C79.3474 65.5116 74.4575 65.6448 71.0461 63.6648C67.9743 61.8886 66.9712 58.4067 67.0287 55.8494C67.0679 54.1751 67.8828 51.832 69.4841 49.8808C72.4645 46.2447 78.0857 43.0972 82.5629 42.9535C84.1588 42.9012 85.1723 43.4315 85.7783 47.3732C84.1118 47.3679 82.6673 47.5821 80.9172 48.209C79.8071 48.6113 77.6939 49.5334 75.2803 51.2338C72.1249 53.4567 70.3252 55.6796 70.1371 57.7876C69.9725 59.6396 71.6939 60.7367 74.5489 60.9744C81.309 61.5516 89.1218 58.3257 95.1192 55.0057L99.9072 52.3126L109.697 46.9944L109.666 51.9809L101.798 56.5704L96.8249 59.1903Z" fill="#009B9D"/>
<path d="M67 67.5312H106.722V71.0001H67V67.5312Z" fill="#006F4E"/>
<path d="M108.055 41.862L102.405 44.879C102.405 44.879 100.461 45.9447 99.2178 46.2111L100.095 48.246C100.357 49.0975 101.315 49.3822 102.062 49.0009L109.651 44.8581V41L108.055 41.862Z" fill="#ED1C24"/>
<path d="M81.165 44.6357C82.667 44.714 85.1981 43.6561 85.778 47.4933C85.0754 47.2765 83.7066 47.462 82.9256 47.6239" fill="#009B9D"/>
</svg>
