<svg width="592" height="384" viewBox="0 0 592 384" fill="none" xmlns="http://www.w3.org/2000/svg">
<circle r="1" transform="matrix(1 0 0 -1 225 164)" fill="#888888"/>
<circle r="1" transform="matrix(1 0 0 -1 233 164)" fill="#888888"/>
<circle r="1" transform="matrix(1 0 0 -1 241 164)" fill="#888888"/>
<circle r="1" transform="matrix(1 0 0 -1 249 164)" fill="#888888"/>
<circle r="1" transform="matrix(1 0 0 -1 257 164)" fill="#888888"/>
<circle r="1" transform="matrix(1 0 0 -1 217 164)" fill="#888888"/>
<circle r="1" transform="matrix(1 0 0 -1 209 164)" fill="#888888"/>
<circle r="1" transform="matrix(1 0 0 -1 201 164)" fill="#888888"/>
<circle r="1" transform="matrix(1 0 0 -1 193 164)" fill="#888888"/>
<circle r="1" transform="matrix(1 0 0 -1 185 164)" fill="#888888"/>
<circle r="1" transform="matrix(1 0 0 -1 177 164)" fill="#888888"/>
<circle r="1" transform="matrix(1 0 0 -1 169 164)" fill="#888888"/>
<circle r="1" transform="matrix(1 0 0 -1 161 164)" fill="#888888"/>
<circle r="1" transform="matrix(1 0 0 -1 407 164)" fill="#888888"/>
<circle r="1" transform="matrix(1 0 0 -1 415 164)" fill="#888888"/>
<circle r="1" transform="matrix(1 0 0 -1 423 164)" fill="#888888"/>
<circle r="1" transform="matrix(1 0 0 -1 431 164)" fill="#888888"/>
<circle r="1" transform="matrix(1 0 0 -1 399 164)" fill="#888888"/>
<circle r="1" transform="matrix(1 0 0 -1 391 164)" fill="#888888"/>
<circle r="1" transform="matrix(1 0 0 -1 383 164)" fill="#888888"/>
<circle r="1" transform="matrix(1 0 0 -1 375 164)" fill="#888888"/>
<circle r="1" transform="matrix(1 0 0 -1 367 164)" fill="#888888"/>
<circle r="1" transform="matrix(1 0 0 -1 359 164)" fill="#888888"/>
<circle r="1" transform="matrix(1 0 0 -1 351 164)" fill="#888888"/>
<circle r="1" transform="matrix(1 0 0 -1 343 164)" fill="#888888"/>
<circle r="1" transform="matrix(1 0 0 -1 335 164)" fill="#888888"/>
<path d="M440.238 221.53C440.103 221.29 439.908 221.155 439.578 221.155H439.038C438.618 221.155 438.288 221.485 438.288 221.905V231.25C438.288 231.67 438.588 232 439.008 232C439.428 232 439.728 231.67 439.728 231.265V224.2C439.728 223.945 439.698 223.51 439.668 223.3L439.698 223.285C439.803 223.54 439.923 223.825 440.028 224.035L444.138 231.625C444.273 231.88 444.528 232 444.783 232H445.383C445.803 232 446.133 231.67 446.133 231.25V221.905C446.133 221.485 445.818 221.155 445.398 221.155C444.978 221.155 444.663 221.485 444.663 221.905V228.97C444.663 229.225 444.693 229.66 444.723 229.87L444.693 229.885C444.588 229.63 444.468 229.345 444.363 229.135L440.238 221.53ZM454.177 231.01V231.295C454.177 231.685 454.492 232 454.882 232C455.272 232 455.587 231.685 455.587 231.295V224.65C455.587 224.26 455.272 223.945 454.882 223.945C454.492 223.945 454.177 224.26 454.177 224.65V224.875C453.667 224.185 452.887 223.87 452.107 223.87C450.202 223.87 448.747 225.52 448.747 227.98C448.747 230.455 450.217 232.075 452.122 232.075C452.992 232.075 453.727 231.685 454.177 231.01ZM452.167 230.875C450.997 230.875 450.142 229.795 450.142 227.98C450.142 226.18 450.997 225.07 452.167 225.07C453.307 225.07 454.192 226.18 454.192 227.98C454.192 229.795 453.307 230.875 452.167 230.875ZM463.687 230.785C463.687 230.44 463.492 230.17 463.147 230.17C462.967 230.17 462.787 230.275 462.592 230.44C462.352 230.65 461.977 230.8 461.707 230.8C461.077 230.8 460.807 230.395 460.807 229.36V225.22H462.577C462.922 225.22 463.207 224.935 463.207 224.575C463.207 224.23 462.922 223.945 462.562 223.945H460.807V221.695C460.807 221.305 460.492 220.99 460.102 220.99C459.712 220.99 459.397 221.305 459.397 221.695V223.945H458.227C457.882 223.945 457.597 224.23 457.597 224.59C457.597 224.935 457.882 225.22 458.242 225.22H459.397V229.45C459.397 231.13 460.147 232.075 461.707 232.075C462.367 232.075 463.072 231.775 463.462 231.31C463.597 231.16 463.687 230.98 463.687 230.785ZM474.766 224.65C474.766 224.26 474.436 223.945 474.046 223.945C473.671 223.945 473.461 224.185 473.371 224.515L472.081 229.615C471.991 229.96 471.946 230.275 471.931 230.545H471.901C471.871 230.275 471.781 229.915 471.676 229.615L470.431 225.805C470.341 225.55 470.131 225.415 469.891 225.415C469.651 225.415 469.426 225.565 469.351 225.805L468.106 229.6C468.016 229.885 467.911 230.26 467.896 230.545H467.866C467.851 230.26 467.791 229.945 467.701 229.615L466.336 224.47C466.261 224.17 466.036 223.945 465.676 223.945C465.286 223.945 464.956 224.26 464.956 224.65C464.956 224.725 464.971 224.83 464.986 224.875L466.921 231.52C467.011 231.805 467.296 232 467.581 232H468.076C468.316 232 468.541 231.85 468.616 231.61L469.666 228.355C469.786 227.965 469.861 227.635 469.876 227.38H469.906C469.921 227.62 469.981 227.905 470.116 228.325L471.166 231.61C471.241 231.85 471.466 232 471.706 232H472.201C472.501 232 472.801 231.805 472.876 231.52L474.736 224.875C474.751 224.83 474.766 224.74 474.766 224.65ZM483.105 227.755C483.105 225.235 481.71 223.87 479.94 223.87C478.155 223.87 476.535 225.34 476.535 227.98C476.535 230.515 478.005 232.075 479.94 232.075C481.23 232.075 482.1 231.505 482.595 230.755C482.67 230.635 482.76 230.47 482.76 230.29C482.76 229.93 482.535 229.66 482.175 229.66C481.935 229.66 481.755 229.78 481.605 229.99C481.185 230.575 480.69 230.875 479.91 230.875C478.785 230.875 478.035 229.885 477.93 228.49H482.43C482.805 228.49 483.105 228.265 483.105 227.755ZM481.725 227.29H477.96C478.065 225.925 478.86 225.07 479.94 225.07C481.005 225.07 481.68 225.925 481.725 227.29ZM491.374 229.66C491.374 228.385 490.669 227.68 489.124 227.365L487.864 227.11C487.189 226.975 486.544 226.795 486.544 226.09C486.544 225.625 486.904 225.085 488.029 225.085C488.839 225.085 489.319 225.31 489.904 225.7C490.039 225.79 490.234 225.865 490.384 225.865C490.729 225.865 490.984 225.64 490.984 225.31C490.984 225.085 490.879 224.875 490.639 224.68C490.024 224.17 489.109 223.87 488.119 223.87C486.739 223.87 485.899 224.425 485.464 225.16C485.284 225.46 485.194 225.805 485.194 226.15C485.194 227.41 486.169 228.07 487.444 228.31L488.704 228.55C489.484 228.7 490.039 228.955 490.039 229.705C490.039 230.425 489.409 230.86 488.314 230.86C487.234 230.86 486.679 230.455 486.154 229.93C486.034 229.81 485.854 229.675 485.644 229.675C485.269 229.675 484.969 229.945 484.969 230.32C484.969 230.545 485.074 230.725 485.194 230.875C485.629 231.37 486.589 232.075 488.299 232.075C490.234 232.075 491.374 231.1 491.374 229.66ZM498.858 230.785C498.858 230.44 498.663 230.17 498.318 230.17C498.138 230.17 497.958 230.275 497.763 230.44C497.523 230.65 497.148 230.8 496.878 230.8C496.248 230.8 495.978 230.395 495.978 229.36V225.22H497.748C498.093 225.22 498.378 224.935 498.378 224.575C498.378 224.23 498.093 223.945 497.733 223.945H495.978V221.695C495.978 221.305 495.663 220.99 495.273 220.99C494.883 220.99 494.568 221.305 494.568 221.695V223.945H493.398C493.053 223.945 492.768 224.23 492.768 224.59C492.768 224.935 493.053 225.22 493.413 225.22H494.568V229.45C494.568 231.13 495.318 232.075 496.878 232.075C497.538 232.075 498.243 231.775 498.633 231.31C498.768 231.16 498.858 230.98 498.858 230.785Z" fill="#353535"/>
<path d="M443.995 248.425C443.995 247.555 443.68 246.82 443.185 246.28C442.51 245.56 441.49 245.155 440.41 245.155H437.47C437.065 245.155 436.735 245.5 436.735 245.905V255.25C436.735 255.67 437.065 256 437.485 256C437.905 256 438.235 255.67 438.235 255.25V251.665H440.41C441.655 251.665 442.6 251.245 443.2 250.585C443.725 250 443.995 249.265 443.995 248.425ZM442.555 248.395C442.555 248.89 442.45 249.37 442.12 249.73C441.805 250.075 441.265 250.315 440.365 250.315H438.235V246.505H440.335C441.175 246.505 441.745 246.805 442.12 247.225C442.405 247.57 442.555 247.975 442.555 248.395ZM452.124 251.755C452.124 249.235 450.729 247.87 448.959 247.87C447.174 247.87 445.554 249.34 445.554 251.98C445.554 254.515 447.024 256.075 448.959 256.075C450.249 256.075 451.119 255.505 451.614 254.755C451.689 254.635 451.779 254.47 451.779 254.29C451.779 253.93 451.554 253.66 451.194 253.66C450.954 253.66 450.774 253.78 450.624 253.99C450.204 254.575 449.709 254.875 448.929 254.875C447.804 254.875 447.054 253.885 446.949 252.49H451.449C451.824 252.49 452.124 252.265 452.124 251.755ZM450.744 251.29H446.979C447.084 249.925 447.879 249.07 448.959 249.07C450.024 249.07 450.699 249.925 450.744 251.29ZM460.408 249.25C460.408 249.07 460.348 248.905 460.213 248.755C459.703 248.185 458.998 247.87 458.143 247.87C457.228 247.87 456.478 248.23 455.998 248.86V248.65C455.998 248.26 455.683 247.945 455.293 247.945C454.903 247.945 454.588 248.26 454.588 248.65V255.295C454.588 255.685 454.903 256 455.293 256C455.683 256 455.998 255.685 455.998 255.295V251.755C455.998 250.81 456.103 250.27 456.403 249.865C456.718 249.445 457.168 249.13 457.903 249.13C458.488 249.13 458.803 249.265 459.268 249.64C459.433 249.775 459.583 249.88 459.808 249.88C460.183 249.88 460.408 249.565 460.408 249.25ZM468.01 253.66C468.01 252.385 467.305 251.68 465.76 251.365L464.5 251.11C463.825 250.975 463.18 250.795 463.18 250.09C463.18 249.625 463.54 249.085 464.665 249.085C465.475 249.085 465.955 249.31 466.54 249.7C466.675 249.79 466.87 249.865 467.02 249.865C467.365 249.865 467.62 249.64 467.62 249.31C467.62 249.085 467.515 248.875 467.275 248.68C466.66 248.17 465.745 247.87 464.755 247.87C463.375 247.87 462.535 248.425 462.1 249.16C461.92 249.46 461.83 249.805 461.83 250.15C461.83 251.41 462.805 252.07 464.08 252.31L465.34 252.55C466.12 252.7 466.675 252.955 466.675 253.705C466.675 254.425 466.045 254.86 464.95 254.86C463.87 254.86 463.315 254.455 462.79 253.93C462.67 253.81 462.49 253.675 462.28 253.675C461.905 253.675 461.605 253.945 461.605 254.32C461.605 254.545 461.71 254.725 461.83 254.875C462.265 255.37 463.225 256.075 464.935 256.075C466.87 256.075 468.01 255.1 468.01 253.66ZM473.364 247.87C471.444 247.87 469.944 249.49 469.944 251.98C469.944 254.47 471.429 256.075 473.364 256.075C475.299 256.075 476.784 254.47 476.784 251.98C476.784 249.49 475.284 247.87 473.364 247.87ZM473.364 254.875C472.194 254.875 471.339 253.795 471.339 251.98C471.339 250.18 472.194 249.07 473.364 249.07C474.534 249.07 475.389 250.18 475.389 251.98C475.389 253.795 474.534 254.875 473.364 254.875ZM480.739 248.65C480.739 248.26 480.424 247.945 480.034 247.945C479.644 247.945 479.329 248.26 479.329 248.65V255.295C479.329 255.685 479.644 256 480.034 256C480.424 256 480.739 255.685 480.739 255.295V251.2C480.739 250.825 480.814 250.39 481.024 250.06C481.384 249.46 482.104 249.145 482.749 249.145C483.469 249.145 483.949 249.49 484.129 250C484.219 250.255 484.249 250.705 484.249 251.065V255.295C484.249 255.685 484.564 256 484.954 256C485.344 256 485.659 255.685 485.659 255.295V250.99C485.659 250.285 485.599 249.595 485.269 249.04C484.774 248.2 483.859 247.87 483.019 247.87C482.044 247.87 481.219 248.275 480.739 248.83V248.65ZM493.567 255.01V255.295C493.567 255.685 493.882 256 494.272 256C494.662 256 494.977 255.685 494.977 255.295V248.65C494.977 248.26 494.662 247.945 494.272 247.945C493.882 247.945 493.567 248.26 493.567 248.65V248.875C493.057 248.185 492.277 247.87 491.497 247.87C489.592 247.87 488.137 249.52 488.137 251.98C488.137 254.455 489.607 256.075 491.512 256.075C492.382 256.075 493.117 255.685 493.567 255.01ZM491.557 254.875C490.387 254.875 489.532 253.795 489.532 251.98C489.532 250.18 490.387 249.07 491.557 249.07C492.697 249.07 493.582 250.18 493.582 251.98C493.582 253.795 492.697 254.875 491.557 254.875ZM499.402 245.86C499.402 245.47 499.087 245.155 498.697 245.155C498.307 245.155 497.992 245.47 497.992 245.86V255.295C497.992 255.685 498.307 256 498.697 256C499.087 256 499.402 255.685 499.402 255.295V245.86Z" fill="#888888"/>
<path d="M109.332 229C109.302 226.915 107.787 226.27 106.242 225.82L104.952 225.445C103.917 225.145 103.332 224.77 103.332 223.9C103.332 222.745 104.577 222.31 105.507 222.31C106.332 222.31 107.037 222.61 107.637 223.105C107.832 223.27 108.057 223.375 108.282 223.375C108.657 223.375 108.912 223.135 108.912 222.745C108.912 222.565 108.837 222.4 108.687 222.235C108.087 221.59 107.067 221.005 105.522 221.005C103.287 221.005 101.892 222.295 101.892 223.915C101.892 225.58 102.807 226.27 104.547 226.78L105.927 227.185C107.112 227.53 107.862 228.01 107.862 229.06C107.862 230.215 106.917 230.83 105.657 230.83C104.667 230.83 103.782 230.515 103.077 229.63C102.897 229.405 102.687 229.27 102.417 229.27C102.027 229.27 101.727 229.57 101.727 229.945C101.727 230.125 101.787 230.305 101.937 230.515C102.762 231.595 104.157 232.165 105.627 232.165C107.847 232.165 109.332 230.875 109.332 229ZM117.821 227.755C117.821 225.235 116.426 223.87 114.656 223.87C112.871 223.87 111.251 225.34 111.251 227.98C111.251 230.515 112.721 232.075 114.656 232.075C115.946 232.075 116.816 231.505 117.311 230.755C117.386 230.635 117.476 230.47 117.476 230.29C117.476 229.93 117.251 229.66 116.891 229.66C116.651 229.66 116.471 229.78 116.321 229.99C115.901 230.575 115.406 230.875 114.626 230.875C113.501 230.875 112.751 229.885 112.646 228.49H117.146C117.521 228.49 117.821 228.265 117.821 227.755ZM116.441 227.29H112.676C112.781 225.925 113.576 225.07 114.656 225.07C115.721 225.07 116.396 225.925 116.441 227.29ZM121.71 221.86C121.71 221.47 121.395 221.155 121.005 221.155C120.615 221.155 120.3 221.47 120.3 221.86V231.295C120.3 231.685 120.615 232 121.005 232C121.395 232 121.71 231.685 121.71 231.295V221.86ZM130.844 227.755C130.844 225.235 129.449 223.87 127.679 223.87C125.894 223.87 124.274 225.34 124.274 227.98C124.274 230.515 125.744 232.075 127.679 232.075C128.969 232.075 129.839 231.505 130.334 230.755C130.409 230.635 130.499 230.47 130.499 230.29C130.499 229.93 130.274 229.66 129.914 229.66C129.674 229.66 129.494 229.78 129.344 229.99C128.924 230.575 128.429 230.875 127.649 230.875C126.524 230.875 125.774 229.885 125.669 228.49H130.169C130.544 228.49 130.844 228.265 130.844 227.755ZM129.464 227.29H125.699C125.804 225.925 126.599 225.07 127.679 225.07C128.744 225.07 129.419 225.925 129.464 227.29ZM136.248 225.115C137.013 225.115 137.508 225.505 137.868 226.105C138.048 226.405 138.228 226.585 138.528 226.585C138.888 226.585 139.143 226.315 139.143 226C139.143 225.775 139.068 225.61 139.008 225.49C138.483 224.5 137.538 223.87 136.263 223.87C134.343 223.87 132.858 225.49 132.858 227.98C132.858 230.47 134.343 232.075 136.278 232.075C137.583 232.075 138.618 231.325 139.023 230.5C139.083 230.365 139.158 230.17 139.158 230.02C139.158 229.66 138.888 229.36 138.528 229.36C138.303 229.36 138.063 229.465 137.898 229.81C137.598 230.455 137.028 230.83 136.278 230.83C135.108 230.83 134.253 229.795 134.253 227.98C134.253 226.645 134.823 225.115 136.248 225.115ZM146.699 230.785C146.699 230.44 146.504 230.17 146.159 230.17C145.979 230.17 145.799 230.275 145.604 230.44C145.364 230.65 144.989 230.8 144.719 230.8C144.089 230.8 143.819 230.395 143.819 229.36V225.22H145.589C145.934 225.22 146.219 224.935 146.219 224.575C146.219 224.23 145.934 223.945 145.574 223.945H143.819V221.695C143.819 221.305 143.504 220.99 143.114 220.99C142.724 220.99 142.409 221.305 142.409 221.695V223.945H141.239C140.894 223.945 140.609 224.23 140.609 224.59C140.609 224.935 140.894 225.22 141.254 225.22H142.409V229.45C142.409 231.13 143.159 232.075 144.719 232.075C145.379 232.075 146.084 231.775 146.474 231.31C146.609 231.16 146.699 230.98 146.699 230.785ZM81.4134 248.425C81.4134 247.555 81.0984 246.82 80.6034 246.28C79.9284 245.56 78.9084 245.155 77.8284 245.155H74.8884C74.4834 245.155 74.1534 245.5 74.1534 245.905V255.25C74.1534 255.67 74.4834 256 74.9034 256C75.3234 256 75.6534 255.67 75.6534 255.25V251.665H77.8284C79.0734 251.665 80.0184 251.245 80.6184 250.585C81.1434 250 81.4134 249.265 81.4134 248.425ZM79.9734 248.395C79.9734 248.89 79.8684 249.37 79.5384 249.73C79.2234 250.075 78.6834 250.315 77.7834 250.315H75.6534V246.505H77.7534C78.5934 246.505 79.1634 246.805 79.5384 247.225C79.8234 247.57 79.9734 247.975 79.9734 248.395ZM88.4024 255.01V255.295C88.4024 255.685 88.7174 256 89.1074 256C89.4974 256 89.8124 255.685 89.8124 255.295V248.65C89.8124 248.26 89.4974 247.945 89.1074 247.945C88.7174 247.945 88.4024 248.26 88.4024 248.65V248.875C87.8924 248.185 87.1124 247.87 86.3324 247.87C84.4274 247.87 82.9724 249.52 82.9724 251.98C82.9724 254.455 84.4424 256.075 86.3474 256.075C87.2174 256.075 87.9524 255.685 88.4024 255.01ZM86.3924 254.875C85.2224 254.875 84.3674 253.795 84.3674 251.98C84.3674 250.18 85.2224 249.07 86.3924 249.07C87.5324 249.07 88.4174 250.18 88.4174 251.98C88.4174 253.795 87.5324 254.875 86.3924 254.875ZM94.537 256.975C94.342 257.5 94.102 257.785 93.667 257.785C93.367 257.785 93.112 257.65 92.902 257.47C92.767 257.365 92.617 257.305 92.452 257.305C92.092 257.305 91.822 257.59 91.822 257.935C91.822 258.16 91.942 258.34 92.077 258.475C92.497 258.865 93.022 259.06 93.682 259.06C94.552 259.06 95.272 258.565 95.617 257.695L99.127 248.965C99.172 248.86 99.202 248.755 99.202 248.65C99.202 248.26 98.887 247.945 98.497 247.945C98.242 247.945 97.972 248.065 97.867 248.335L95.902 253.42C95.827 253.615 95.677 254.08 95.632 254.245H95.602C95.557 254.08 95.407 253.615 95.332 253.42L93.382 248.365C93.307 248.17 93.082 247.945 92.737 247.945C92.347 247.945 92.032 248.26 92.032 248.65C92.032 248.785 92.077 248.905 92.107 248.98L94.792 255.61C94.837 255.715 94.897 255.76 94.987 255.79L94.537 256.975ZM109.637 247.87C108.797 247.87 108.092 248.26 107.567 248.89V245.86C107.567 245.47 107.252 245.155 106.862 245.155C106.472 245.155 106.157 245.47 106.157 245.86V255.295C106.157 255.685 106.472 256 106.862 256C107.252 256 107.567 255.685 107.567 255.295V255.115C108.032 255.655 108.707 256.075 109.727 256.075C111.602 256.075 112.997 254.41 112.997 251.98C112.997 249.505 111.527 247.87 109.637 247.87ZM109.577 254.875C108.437 254.875 107.552 253.795 107.552 251.98C107.552 250.18 108.437 249.07 109.577 249.07C110.747 249.07 111.602 250.18 111.602 251.98C111.602 253.795 110.747 254.875 109.577 254.875ZM117.125 256.975C116.93 257.5 116.69 257.785 116.255 257.785C115.955 257.785 115.7 257.65 115.49 257.47C115.355 257.365 115.205 257.305 115.04 257.305C114.68 257.305 114.41 257.59 114.41 257.935C114.41 258.16 114.53 258.34 114.665 258.475C115.085 258.865 115.61 259.06 116.27 259.06C117.14 259.06 117.86 258.565 118.205 257.695L121.715 248.965C121.76 248.86 121.79 248.755 121.79 248.65C121.79 248.26 121.475 247.945 121.085 247.945C120.83 247.945 120.56 248.065 120.455 248.335L118.49 253.42C118.415 253.615 118.265 254.08 118.22 254.245H118.19C118.145 254.08 117.995 253.615 117.92 253.42L115.97 248.365C115.895 248.17 115.67 247.945 115.325 247.945C114.935 247.945 114.62 248.26 114.62 248.65C114.62 248.785 114.665 248.905 114.695 248.98L117.38 255.61C117.425 255.715 117.485 255.76 117.575 255.79L117.125 256.975ZM136.71 252.745C136.71 251.47 135.99 250.51 135.03 250.105C135.66 249.655 136.2 248.995 136.2 248.005C136.2 247.135 135.87 246.43 135.33 245.935C134.775 245.41 133.995 245.155 132.825 245.155H129.63C129.21 245.155 128.88 245.485 128.88 245.905V255.25C128.88 255.655 129.21 256 129.615 256H132.975C135.375 256 136.71 254.575 136.71 252.745ZM134.715 248.035C134.715 248.905 134.28 249.55 132.975 249.55H130.38V246.505H132.78C134.085 246.505 134.715 247.09 134.715 248.035ZM135.165 252.76C135.165 253.885 134.37 254.65 133.005 254.65H130.38V250.87H133.065C134.49 250.87 135.165 251.59 135.165 252.76ZM144.228 255.01V255.295C144.228 255.685 144.543 256 144.933 256C145.323 256 145.638 255.685 145.638 255.295V248.65C145.638 248.26 145.323 247.945 144.933 247.945C144.543 247.945 144.228 248.26 144.228 248.65V248.875C143.718 248.185 142.938 247.87 142.158 247.87C140.253 247.87 138.798 249.52 138.798 251.98C138.798 254.455 140.268 256.075 142.173 256.075C143.043 256.075 143.778 255.685 144.228 255.01ZM142.218 254.875C141.048 254.875 140.193 253.795 140.193 251.98C140.193 250.18 141.048 249.07 142.218 249.07C143.358 249.07 144.243 250.18 144.243 251.98C144.243 253.795 143.358 254.875 142.218 254.875ZM150.047 248.65C150.047 248.26 149.732 247.945 149.342 247.945C148.952 247.945 148.637 248.26 148.637 248.65V255.295C148.637 255.685 148.952 256 149.342 256C149.732 256 150.047 255.685 150.047 255.295V251.2C150.047 250.825 150.122 250.39 150.332 250.06C150.692 249.46 151.412 249.145 152.057 249.145C152.777 249.145 153.257 249.49 153.437 250C153.527 250.255 153.557 250.705 153.557 251.065V255.295C153.557 255.685 153.872 256 154.262 256C154.652 256 154.967 255.685 154.967 255.295V250.99C154.967 250.285 154.907 249.595 154.577 249.04C154.082 248.2 153.167 247.87 152.327 247.87C151.352 247.87 150.527 248.275 150.047 248.83V248.65ZM163.715 249.22C163.88 249.07 164 248.86 164 248.635C164 248.245 163.67 247.945 163.31 247.945C163.115 247.945 162.935 248.035 162.8 248.17L159.32 251.65V245.86C159.32 245.47 159.005 245.155 158.615 245.155C158.225 245.155 157.91 245.47 157.91 245.86V255.295C157.91 255.685 158.225 256 158.615 256C159.005 256 159.32 255.685 159.32 255.295V253.435L160.37 252.43L162.98 255.76C163.145 255.97 163.355 256.03 163.52 256.03C163.895 256.03 164.21 255.715 164.21 255.34C164.21 255.145 164.12 254.98 164 254.83L161.315 251.53L163.715 249.22ZM174.155 249.205C174.155 248.47 173.555 247.87 172.805 247.87C172.07 247.87 171.47 248.47 171.47 249.205C171.47 249.955 172.07 250.555 172.805 250.555C173.555 250.555 174.155 249.955 174.155 249.205ZM174.155 254.74C174.155 253.99 173.555 253.39 172.805 253.39C172.07 253.39 171.47 253.99 171.47 254.74C171.47 255.475 172.07 256.075 172.805 256.075C173.555 256.075 174.155 255.475 174.155 254.74Z" fill="#353535"/>
<path d="M258.314 230C258.284 227.915 256.769 227.27 255.224 226.82L253.934 226.445C252.899 226.145 252.314 225.77 252.314 224.9C252.314 223.745 253.559 223.31 254.489 223.31C255.314 223.31 256.019 223.61 256.619 224.105C256.814 224.27 257.039 224.375 257.264 224.375C257.639 224.375 257.894 224.135 257.894 223.745C257.894 223.565 257.819 223.4 257.669 223.235C257.069 222.59 256.049 222.005 254.504 222.005C252.269 222.005 250.874 223.295 250.874 224.915C250.874 226.58 251.789 227.27 253.529 227.78L254.909 228.185C256.094 228.53 256.844 229.01 256.844 230.06C256.844 231.215 255.899 231.83 254.639 231.83C253.649 231.83 252.764 231.515 252.059 230.63C251.879 230.405 251.669 230.27 251.399 230.27C251.009 230.27 250.709 230.57 250.709 230.945C250.709 231.125 250.769 231.305 250.919 231.515C251.744 232.595 253.139 233.165 254.609 233.165C256.829 233.165 258.314 231.875 258.314 230ZM266.803 228.755C266.803 226.235 265.408 224.87 263.638 224.87C261.853 224.87 260.233 226.34 260.233 228.98C260.233 231.515 261.703 233.075 263.638 233.075C264.928 233.075 265.798 232.505 266.293 231.755C266.368 231.635 266.458 231.47 266.458 231.29C266.458 230.93 266.233 230.66 265.873 230.66C265.633 230.66 265.453 230.78 265.303 230.99C264.883 231.575 264.388 231.875 263.608 231.875C262.483 231.875 261.733 230.885 261.628 229.49H266.128C266.503 229.49 266.803 229.265 266.803 228.755ZM265.423 228.29H261.658C261.763 226.925 262.558 226.07 263.638 226.07C264.703 226.07 265.378 226.925 265.423 228.29ZM272.207 226.115C272.972 226.115 273.467 226.505 273.827 227.105C274.007 227.405 274.187 227.585 274.487 227.585C274.847 227.585 275.102 227.315 275.102 227C275.102 226.775 275.027 226.61 274.967 226.49C274.442 225.5 273.497 224.87 272.222 224.87C270.302 224.87 268.817 226.49 268.817 228.98C268.817 231.47 270.302 233.075 272.237 233.075C273.542 233.075 274.577 232.325 274.982 231.5C275.042 231.365 275.117 231.17 275.117 231.02C275.117 230.66 274.847 230.36 274.487 230.36C274.262 230.36 274.022 230.465 273.857 230.81C273.557 231.455 272.987 231.83 272.237 231.83C271.067 231.83 270.212 230.795 270.212 228.98C270.212 227.645 270.782 226.115 272.207 226.115ZM282.403 232.295C282.403 232.685 282.718 233 283.108 233C283.498 233 283.813 232.685 283.813 232.295V225.65C283.813 225.26 283.498 224.945 283.108 224.945C282.718 224.945 282.403 225.26 282.403 225.65V229.745C282.403 230.12 282.328 230.555 282.118 230.885C281.758 231.485 281.038 231.8 280.393 231.8C279.673 231.8 279.193 231.455 279.013 230.945C278.923 230.69 278.893 230.24 278.893 229.88V225.65C278.893 225.26 278.578 224.945 278.188 224.945C277.798 224.945 277.483 225.26 277.483 225.65V229.955C277.483 230.66 277.543 231.35 277.873 231.905C278.368 232.745 279.283 233.075 280.123 233.075C281.098 233.075 281.923 232.67 282.403 232.115V232.295ZM292.636 226.25C292.636 226.07 292.576 225.905 292.441 225.755C291.931 225.185 291.226 224.87 290.371 224.87C289.456 224.87 288.706 225.23 288.226 225.86V225.65C288.226 225.26 287.911 224.945 287.521 224.945C287.131 224.945 286.816 225.26 286.816 225.65V232.295C286.816 232.685 287.131 233 287.521 233C287.911 233 288.226 232.685 288.226 232.295V228.755C288.226 227.81 288.331 227.27 288.631 226.865C288.946 226.445 289.396 226.13 290.131 226.13C290.716 226.13 291.031 226.265 291.496 226.64C291.661 226.775 291.811 226.88 292.036 226.88C292.411 226.88 292.636 226.565 292.636 226.25ZM300.465 228.755C300.465 226.235 299.07 224.87 297.3 224.87C295.515 224.87 293.895 226.34 293.895 228.98C293.895 231.515 295.365 233.075 297.3 233.075C298.59 233.075 299.46 232.505 299.955 231.755C300.03 231.635 300.12 231.47 300.12 231.29C300.12 230.93 299.895 230.66 299.535 230.66C299.295 230.66 299.115 230.78 298.965 230.99C298.545 231.575 298.05 231.875 297.27 231.875C296.145 231.875 295.395 230.885 295.29 229.49H299.79C300.165 229.49 300.465 229.265 300.465 228.755ZM299.085 228.29H295.32C295.425 226.925 296.22 226.07 297.3 226.07C298.365 226.07 299.04 226.925 299.085 228.29ZM311.522 224.87C310.682 224.87 309.977 225.26 309.452 225.89V222.86C309.452 222.47 309.137 222.155 308.747 222.155C308.357 222.155 308.042 222.47 308.042 222.86V232.295C308.042 232.685 308.357 233 308.747 233C309.137 233 309.452 232.685 309.452 232.295V232.115C309.917 232.655 310.592 233.075 311.612 233.075C313.487 233.075 314.882 231.41 314.882 228.98C314.882 226.505 313.412 224.87 311.522 224.87ZM311.462 231.875C310.322 231.875 309.437 230.795 309.437 228.98C309.437 227.18 310.322 226.07 311.462 226.07C312.632 226.07 313.487 227.18 313.487 228.98C313.487 230.795 312.632 231.875 311.462 231.875ZM322.411 232.01V232.295C322.411 232.685 322.726 233 323.116 233C323.506 233 323.821 232.685 323.821 232.295V225.65C323.821 225.26 323.506 224.945 323.116 224.945C322.726 224.945 322.411 225.26 322.411 225.65V225.875C321.901 225.185 321.121 224.87 320.341 224.87C318.436 224.87 316.981 226.52 316.981 228.98C316.981 231.455 318.451 233.075 320.356 233.075C321.226 233.075 321.961 232.685 322.411 232.01ZM320.401 231.875C319.231 231.875 318.376 230.795 318.376 228.98C318.376 227.18 319.231 226.07 320.401 226.07C321.541 226.07 322.426 227.18 322.426 228.98C322.426 230.795 321.541 231.875 320.401 231.875ZM328.231 225.65C328.231 225.26 327.916 224.945 327.526 224.945C327.136 224.945 326.821 225.26 326.821 225.65V232.295C326.821 232.685 327.136 233 327.526 233C327.916 233 328.231 232.685 328.231 232.295V228.2C328.231 227.825 328.306 227.39 328.516 227.06C328.876 226.46 329.596 226.145 330.241 226.145C330.961 226.145 331.441 226.49 331.621 227C331.711 227.255 331.741 227.705 331.741 228.065V232.295C331.741 232.685 332.056 233 332.446 233C332.836 233 333.151 232.685 333.151 232.295V227.99C333.151 227.285 333.091 226.595 332.761 226.04C332.266 225.2 331.351 224.87 330.511 224.87C329.536 224.87 328.711 225.275 328.231 225.83V225.65ZM341.899 226.22C342.064 226.07 342.184 225.86 342.184 225.635C342.184 225.245 341.854 224.945 341.494 224.945C341.299 224.945 341.119 225.035 340.984 225.17L337.504 228.65V222.86C337.504 222.47 337.189 222.155 336.799 222.155C336.409 222.155 336.094 222.47 336.094 222.86V232.295C336.094 232.685 336.409 233 336.799 233C337.189 233 337.504 232.685 337.504 232.295V230.435L338.554 229.43L341.164 232.76C341.329 232.97 341.539 233.03 341.704 233.03C342.079 233.03 342.394 232.715 342.394 232.34C342.394 232.145 342.304 231.98 342.184 231.83L339.499 228.53L341.899 226.22ZM252.329 250.115C253.094 250.115 253.589 250.505 253.949 251.105C254.129 251.405 254.309 251.585 254.609 251.585C254.969 251.585 255.224 251.315 255.224 251C255.224 250.775 255.149 250.61 255.089 250.49C254.564 249.5 253.619 248.87 252.344 248.87C250.424 248.87 248.939 250.49 248.939 252.98C248.939 255.47 250.424 257.075 252.359 257.075C253.664 257.075 254.699 256.325 255.104 255.5C255.164 255.365 255.239 255.17 255.239 255.02C255.239 254.66 254.969 254.36 254.609 254.36C254.384 254.36 254.144 254.465 253.979 254.81C253.679 255.455 253.109 255.83 252.359 255.83C251.189 255.83 250.334 254.795 250.334 252.98C250.334 251.645 250.904 250.115 252.329 250.115ZM260.65 248.87C258.73 248.87 257.23 250.49 257.23 252.98C257.23 255.47 258.715 257.075 260.65 257.075C262.585 257.075 264.07 255.47 264.07 252.98C264.07 250.49 262.57 248.87 260.65 248.87ZM260.65 255.875C259.48 255.875 258.625 254.795 258.625 252.98C258.625 251.18 259.48 250.07 260.65 250.07C261.82 250.07 262.675 251.18 262.675 252.98C262.675 254.795 261.82 255.875 260.65 255.875ZM268.026 249.65C268.026 249.26 267.711 248.945 267.321 248.945C266.931 248.945 266.616 249.26 266.616 249.65V256.295C266.616 256.685 266.931 257 267.321 257C267.711 257 268.026 256.685 268.026 256.295V252.2C268.026 251.825 268.101 251.39 268.311 251.06C268.671 250.46 269.391 250.145 270.036 250.145C270.756 250.145 271.236 250.49 271.416 251C271.506 251.255 271.536 251.705 271.536 252.065V256.295C271.536 256.685 271.851 257 272.241 257C272.631 257 272.946 256.685 272.946 256.295V251.99C272.946 251.285 272.886 250.595 272.556 250.04C272.061 249.2 271.146 248.87 270.306 248.87C269.331 248.87 268.506 249.275 268.026 249.83V249.65ZM277.284 249.65C277.284 249.26 276.969 248.945 276.579 248.945C276.189 248.945 275.874 249.26 275.874 249.65V256.295C275.874 256.685 276.189 257 276.579 257C276.969 257 277.284 256.685 277.284 256.295V252.2C277.284 251.825 277.359 251.39 277.569 251.06C277.929 250.46 278.649 250.145 279.294 250.145C280.014 250.145 280.494 250.49 280.674 251C280.764 251.255 280.794 251.705 280.794 252.065V256.295C280.794 256.685 281.109 257 281.499 257C281.889 257 282.204 256.685 282.204 256.295V251.99C282.204 251.285 282.144 250.595 281.814 250.04C281.319 249.2 280.404 248.87 279.564 248.87C278.589 248.87 277.764 249.275 277.284 249.83V249.65ZM291.251 252.755C291.251 250.235 289.856 248.87 288.086 248.87C286.301 248.87 284.681 250.34 284.681 252.98C284.681 255.515 286.151 257.075 288.086 257.075C289.376 257.075 290.246 256.505 290.741 255.755C290.816 255.635 290.906 255.47 290.906 255.29C290.906 254.93 290.681 254.66 290.321 254.66C290.081 254.66 289.901 254.78 289.751 254.99C289.331 255.575 288.836 255.875 288.056 255.875C286.931 255.875 286.181 254.885 286.076 253.49H290.576C290.951 253.49 291.251 253.265 291.251 252.755ZM289.871 252.29H286.106C286.211 250.925 287.006 250.07 288.086 250.07C289.151 250.07 289.826 250.925 289.871 252.29ZM296.655 250.115C297.42 250.115 297.915 250.505 298.275 251.105C298.455 251.405 298.635 251.585 298.935 251.585C299.295 251.585 299.55 251.315 299.55 251C299.55 250.775 299.475 250.61 299.415 250.49C298.89 249.5 297.945 248.87 296.67 248.87C294.75 248.87 293.265 250.49 293.265 252.98C293.265 255.47 294.75 257.075 296.685 257.075C297.99 257.075 299.025 256.325 299.43 255.5C299.49 255.365 299.565 255.17 299.565 255.02C299.565 254.66 299.295 254.36 298.935 254.36C298.71 254.36 298.47 254.465 298.305 254.81C298.005 255.455 297.435 255.83 296.685 255.83C295.515 255.83 294.66 254.795 294.66 252.98C294.66 251.645 295.23 250.115 296.655 250.115ZM307.106 255.785C307.106 255.44 306.911 255.17 306.566 255.17C306.386 255.17 306.206 255.275 306.011 255.44C305.771 255.65 305.396 255.8 305.126 255.8C304.496 255.8 304.226 255.395 304.226 254.36V250.22H305.996C306.341 250.22 306.626 249.935 306.626 249.575C306.626 249.23 306.341 248.945 305.981 248.945H304.226V246.695C304.226 246.305 303.911 245.99 303.521 245.99C303.131 245.99 302.816 246.305 302.816 246.695V248.945H301.646C301.301 248.945 301.016 249.23 301.016 249.59C301.016 249.935 301.301 250.22 301.661 250.22H302.816V254.45C302.816 256.13 303.566 257.075 305.126 257.075C305.786 257.075 306.491 256.775 306.881 256.31C307.016 256.16 307.106 255.98 307.106 255.785ZM310.521 249.65C310.521 249.26 310.206 248.945 309.816 248.945C309.426 248.945 309.111 249.26 309.111 249.65V256.295C309.111 256.685 309.426 257 309.816 257C310.206 257 310.521 256.685 310.521 256.295V249.65ZM310.896 246.44C310.896 245.855 310.401 245.36 309.816 245.36C309.231 245.36 308.736 245.855 308.736 246.44C308.736 247.025 309.231 247.52 309.816 247.52C310.401 247.52 310.896 247.025 310.896 246.44ZM316.49 248.87C314.57 248.87 313.07 250.49 313.07 252.98C313.07 255.47 314.555 257.075 316.49 257.075C318.425 257.075 319.91 255.47 319.91 252.98C319.91 250.49 318.41 248.87 316.49 248.87ZM316.49 255.875C315.32 255.875 314.465 254.795 314.465 252.98C314.465 251.18 315.32 250.07 316.49 250.07C317.66 250.07 318.515 251.18 318.515 252.98C318.515 254.795 317.66 255.875 316.49 255.875ZM323.866 249.65C323.866 249.26 323.551 248.945 323.161 248.945C322.771 248.945 322.456 249.26 322.456 249.65V256.295C322.456 256.685 322.771 257 323.161 257C323.551 257 323.866 256.685 323.866 256.295V252.2C323.866 251.825 323.941 251.39 324.151 251.06C324.511 250.46 325.231 250.145 325.876 250.145C326.596 250.145 327.076 250.49 327.256 251C327.346 251.255 327.376 251.705 327.376 252.065V256.295C327.376 256.685 327.691 257 328.081 257C328.471 257 328.786 256.685 328.786 256.295V251.99C328.786 251.285 328.726 250.595 328.396 250.04C327.901 249.2 326.986 248.87 326.146 248.87C325.171 248.87 324.346 249.275 323.866 249.83V249.65ZM334.038 255.74C334.038 254.99 333.438 254.39 332.688 254.39C331.953 254.39 331.353 254.99 331.353 255.74C331.353 256.475 331.953 257.075 332.688 257.075C333.438 257.075 334.038 256.475 334.038 255.74ZM339.004 255.74C339.004 254.99 338.404 254.39 337.654 254.39C336.919 254.39 336.319 254.99 336.319 255.74C336.319 256.475 336.919 257.075 337.654 257.075C338.404 257.075 339.004 256.475 339.004 255.74ZM343.97 255.74C343.97 254.99 343.37 254.39 342.62 254.39C341.885 254.39 341.285 254.99 341.285 255.74C341.285 256.475 341.885 257.075 342.62 257.075C343.37 257.075 343.97 256.475 343.97 255.74Z" fill="#353535"/>
<path fill-rule="evenodd" clip-rule="evenodd" d="M124 192C139.464 192 152 179.464 152 164C152 148.536 139.464 136 124 136C108.536 136 96 148.536 96 164C96 179.464 108.536 192 124 192Z" fill="#FAFAFA"/>
<path fill-rule="evenodd" clip-rule="evenodd" d="M124 161C126.209 161 128 159.209 128 157C128 154.791 126.209 153 124 153C121.791 153 120 154.791 120 157C120 159.209 121.791 161 124 161ZM124 175C126.209 175 128 173.209 128 171C128 168.791 126.209 167 124 167C121.791 167 120 168.791 120 171C120 173.209 121.791 175 124 175Z" fill="#353535"/>
<path fill-rule="evenodd" clip-rule="evenodd" d="M296 192C311.464 192 324 179.464 324 164C324 148.536 311.464 136 296 136C280.536 136 268 148.536 268 164C268 179.464 280.536 192 296 192Z" fill="#1D1D1D"/>
<path fill-rule="evenodd" clip-rule="evenodd" d="M468 192C483.464 192 496 179.464 496 164C496 148.536 483.464 136 468 136C452.536 136 440 148.536 440 164C440 179.464 452.536 192 468 192Z" fill="#FAFAFA"/>
<path d="M301.838 161.486H289.73C288.774 161.486 288 162.261 288 163.216V169.27C288 170.226 288.774 171 289.73 171H301.838C302.793 171 303.568 170.226 303.568 169.27V163.216C303.568 162.261 302.793 161.486 301.838 161.486Z" fill="#F3F3F3" stroke="#F3F3F3" stroke-width="1.5" stroke-linecap="round" stroke-linejoin="round"/>
<path d="M291.459 161.486V159.324C291.459 158.177 291.915 157.078 292.726 156.267C293.537 155.456 294.637 155 295.784 155C296.931 155 298.031 155.456 298.842 156.267C299.653 157.078 300.108 158.177 300.108 159.324V161.486" stroke="#F3F3F3" stroke-width="1.5" stroke-linecap="round" stroke-linejoin="round"/>
<path fill-rule="evenodd" clip-rule="evenodd" d="M474.961 158.285L471.332 152H464.074L460.449 158.281H467.706L471.334 164.568L474.961 158.285ZM462.26 167.711L465.887 161.429H458.629L455.003 167.711L455 167.714L458.629 174H465.887H465.89L462.26 167.711ZM476.779 174H476.778H469.52L465.892 167.711H473.15L476.777 161.429L480.406 167.714L476.779 174Z" fill="#E60303"/>
</svg>
