<svg width="696" height="448" viewBox="0 0 696 448" fill="none" xmlns="http://www.w3.org/2000/svg">
<rect width="696" height="448" fill="#F3F3F3"/>
<g filter="url(#filter0_b_947_3390)">
<rect x="170" y="162" width="355" height="58" rx="16" fill="#6F6F6F" fill-opacity="0.8"/>
</g>
<rect x="180" y="172" width="38" height="38" rx="10" fill="white"/>
<path d="M198.964 198.011C202.753 194.763 208.077 191.605 211 190.468C210.549 190.179 209.845 189.764 209.051 189.313C205.28 190.558 200.877 193.319 196.943 196.441C197.61 196.946 198.314 197.469 198.964 198.011V198.011Z" fill="#E31837"/>
<path d="M197.233 189.187C196.673 188.916 196.06 188.663 195.59 188.447C194.165 189.15 192.306 190.215 189.96 191.893C190.465 192.164 191.007 192.489 191.584 192.814C193.389 191.478 195.211 190.215 197.233 189.187V189.187Z" fill="#012169"/>
<path d="M200.606 187.635C199.921 187.256 197.539 186.372 195.897 185.993C195.409 186.173 194.724 186.444 194.254 186.642C194.85 186.805 197.069 187.4 198.964 188.357C199.452 188.122 200.137 187.833 200.606 187.635V187.635Z" fill="#E31837"/>
<path d="M192.54 187.4C190.429 188.374 188.209 189.71 187 190.486C187.433 190.684 187.866 190.847 188.462 191.135C191.132 189.331 193.226 188.23 194.056 187.869C193.46 187.653 192.901 187.508 192.54 187.4V187.4Z" fill="#012169"/>
<path d="M202.194 187.075C202.681 186.913 203.241 186.768 203.728 186.624C202.32 186.029 200.552 185.397 198.964 185C198.711 185.072 197.953 185.271 197.43 185.433C197.971 185.596 199.758 186.011 202.194 187.075ZM193.298 193.86C193.875 194.203 194.489 194.672 195.084 195.069C199.036 192.002 202.934 189.638 207.211 188.302C206.615 187.996 206.092 187.725 205.424 187.4C202.862 188.05 198.477 189.8 193.298 193.86Z" fill="#E31837"/>
<path d="M491.564 181.734V186H490.475V178.909H491.527V180.017H491.619C491.786 179.657 492.038 179.368 492.377 179.149C492.715 178.928 493.152 178.817 493.688 178.817C494.168 178.817 494.588 178.915 494.948 179.112C495.308 179.306 495.588 179.602 495.788 179.999C495.988 180.393 496.088 180.891 496.088 181.494V186H494.999V181.568C494.999 181.011 494.854 180.577 494.565 180.266C494.275 179.952 493.878 179.795 493.374 179.795C493.026 179.795 492.715 179.871 492.441 180.022C492.17 180.172 491.956 180.393 491.799 180.682C491.643 180.971 491.564 181.322 491.564 181.734ZM500.88 186.148C500.24 186.148 499.678 185.995 499.195 185.691C498.715 185.386 498.339 184.96 498.068 184.412C497.801 183.864 497.667 183.224 497.667 182.491C497.667 181.753 497.801 181.108 498.068 180.557C498.339 180.006 498.715 179.578 499.195 179.274C499.678 178.969 500.24 178.817 500.88 178.817C501.52 178.817 502.08 178.969 502.56 179.274C503.043 179.578 503.419 180.006 503.687 180.557C503.957 181.108 504.093 181.753 504.093 182.491C504.093 183.224 503.957 183.864 503.687 184.412C503.419 184.96 503.043 185.386 502.56 185.691C502.08 185.995 501.52 186.148 500.88 186.148ZM500.88 185.169C501.366 185.169 501.766 185.044 502.08 184.795C502.394 184.546 502.626 184.218 502.777 183.812C502.928 183.406 503.003 182.965 503.003 182.491C503.003 182.018 502.928 181.576 502.777 181.167C502.626 180.757 502.394 180.426 502.08 180.174C501.766 179.922 501.366 179.795 500.88 179.795C500.393 179.795 499.993 179.922 499.679 180.174C499.366 180.426 499.133 180.757 498.982 181.167C498.832 181.576 498.756 182.018 498.756 182.491C498.756 182.965 498.832 183.406 498.982 183.812C499.133 184.218 499.366 184.546 499.679 184.795C499.993 185.044 500.393 185.169 500.88 185.169ZM507.041 186L504.881 178.909H506.026L507.558 184.338H507.632L509.146 178.909H510.31L511.805 184.32H511.879L513.412 178.909H514.557L512.396 186H511.325L509.774 180.553H509.663L508.112 186H507.041Z" fill="#EBEBF5" fill-opacity="0.6"/>
<path d="M231.767 207.182V195.364H232.524V207.182H231.767ZM234.315 198.909C234.26 198.441 234.035 198.078 233.641 197.82C233.247 197.561 232.764 197.432 232.192 197.432C231.773 197.432 231.407 197.5 231.093 197.635C230.782 197.77 230.539 197.957 230.364 198.194C230.191 198.431 230.105 198.7 230.105 199.001C230.105 199.254 230.165 199.471 230.285 199.652C230.408 199.831 230.565 199.98 230.756 200.1C230.947 200.217 231.147 200.314 231.356 200.391C231.565 200.465 231.758 200.525 231.933 200.571L232.893 200.83C233.14 200.894 233.414 200.983 233.715 201.097C234.02 201.211 234.311 201.367 234.588 201.564C234.868 201.757 235.099 202.007 235.28 202.311C235.462 202.616 235.553 202.99 235.553 203.433C235.553 203.944 235.419 204.406 235.151 204.818C234.886 205.231 234.498 205.558 233.988 205.801C233.48 206.045 232.863 206.166 232.136 206.166C231.459 206.166 230.873 206.057 230.377 205.838C229.885 205.62 229.497 205.315 229.214 204.924C228.934 204.533 228.776 204.08 228.739 203.562H229.92C229.951 203.92 230.071 204.215 230.281 204.449C230.493 204.68 230.761 204.852 231.084 204.966C231.41 205.077 231.761 205.132 232.136 205.132C232.573 205.132 232.966 205.061 233.314 204.92C233.661 204.775 233.937 204.575 234.14 204.32C234.343 204.061 234.445 203.759 234.445 203.415C234.445 203.101 234.357 202.845 234.181 202.648C234.006 202.451 233.775 202.291 233.489 202.168C233.203 202.045 232.893 201.937 232.561 201.845L231.398 201.513C230.659 201.3 230.074 200.997 229.643 200.603C229.213 200.209 228.997 199.694 228.997 199.057C228.997 198.527 229.14 198.066 229.426 197.672C229.716 197.275 230.104 196.967 230.59 196.749C231.079 196.527 231.625 196.416 232.229 196.416C232.838 196.416 233.38 196.525 233.854 196.744C234.328 196.959 234.703 197.255 234.98 197.63C235.26 198.006 235.408 198.432 235.423 198.909H234.315ZM240.199 196.416C240.586 196.419 240.974 196.493 241.362 196.638C241.75 196.782 242.104 197.022 242.424 197.358C242.744 197.69 243.001 198.144 243.195 198.72C243.389 199.295 243.486 200.017 243.486 200.885C243.486 201.725 243.406 202.471 243.246 203.124C243.089 203.773 242.861 204.321 242.562 204.767C242.267 205.214 241.907 205.552 241.482 205.783C241.06 206.014 240.583 206.129 240.051 206.129C239.522 206.129 239.049 206.025 238.634 205.815C238.221 205.603 237.883 205.309 237.618 204.934C237.356 204.555 237.189 204.116 237.115 203.618H238.241C238.343 204.052 238.544 204.41 238.846 204.694C239.151 204.974 239.552 205.114 240.051 205.114C240.78 205.114 241.356 204.795 241.778 204.158C242.202 203.521 242.415 202.621 242.415 201.457H242.341C242.168 201.716 241.964 201.939 241.727 202.127C241.49 202.315 241.227 202.459 240.937 202.561C240.648 202.662 240.34 202.713 240.014 202.713C239.472 202.713 238.975 202.579 238.523 202.311C238.074 202.041 237.713 201.67 237.443 201.199C237.175 200.725 237.041 200.183 237.041 199.574C237.041 198.995 237.17 198.466 237.429 197.986C237.69 197.503 238.057 197.118 238.528 196.832C239.001 196.545 239.559 196.407 240.199 196.416ZM240.199 197.432C239.811 197.432 239.462 197.529 239.151 197.723C238.843 197.913 238.598 198.172 238.417 198.498C238.238 198.821 238.149 199.18 238.149 199.574C238.149 199.968 238.235 200.326 238.407 200.65C238.583 200.97 238.821 201.225 239.123 201.416C239.428 201.604 239.774 201.697 240.162 201.697C240.454 201.697 240.726 201.641 240.979 201.527C241.231 201.41 241.451 201.251 241.639 201.051C241.83 200.848 241.979 200.619 242.087 200.363C242.195 200.105 242.248 199.835 242.248 199.555C242.248 199.186 242.159 198.84 241.981 198.517C241.805 198.194 241.562 197.932 241.251 197.732C240.943 197.532 240.593 197.432 240.199 197.432ZM248.305 206.129C247.609 206.129 247.017 205.94 246.528 205.561C246.038 205.18 245.664 204.627 245.406 203.904C245.147 203.178 245.018 202.301 245.018 201.273C245.018 200.251 245.147 199.378 245.406 198.655C245.667 197.929 246.043 197.375 246.532 196.993C247.025 196.609 247.615 196.416 248.305 196.416C248.994 196.416 249.584 196.609 250.073 196.993C250.565 197.375 250.941 197.929 251.199 198.655C251.461 199.378 251.592 200.251 251.592 201.273C251.592 202.301 251.463 203.178 251.204 203.904C250.945 204.627 250.572 205.18 250.082 205.561C249.593 205.94 249 206.129 248.305 206.129ZM248.305 205.114C248.994 205.114 249.53 204.781 249.911 204.116C250.293 203.452 250.484 202.504 250.484 201.273C250.484 200.454 250.396 199.757 250.221 199.181C250.048 198.606 249.799 198.167 249.473 197.866C249.15 197.564 248.76 197.413 248.305 197.413C247.622 197.413 247.088 197.75 246.703 198.424C246.318 199.095 246.126 200.045 246.126 201.273C246.126 202.091 246.212 202.787 246.384 203.359C246.557 203.932 246.804 204.367 247.128 204.666C247.454 204.964 247.846 205.114 248.305 205.114ZM253.748 206.074C253.521 206.074 253.325 205.992 253.162 205.829C252.999 205.666 252.917 205.471 252.917 205.243C252.917 205.015 252.999 204.82 253.162 204.657C253.325 204.493 253.521 204.412 253.748 204.412C253.976 204.412 254.172 204.493 254.335 204.657C254.498 204.82 254.579 205.015 254.579 205.243C254.579 205.394 254.541 205.532 254.464 205.658C254.39 205.785 254.29 205.886 254.164 205.963C254.041 206.037 253.902 206.074 253.748 206.074ZM259.19 206.129C258.494 206.129 257.902 205.94 257.412 205.561C256.923 205.18 256.549 204.627 256.291 203.904C256.032 203.178 255.903 202.301 255.903 201.273C255.903 200.251 256.032 199.378 256.291 198.655C256.552 197.929 256.928 197.375 257.417 196.993C257.909 196.609 258.5 196.416 259.19 196.416C259.879 196.416 260.469 196.609 260.958 196.993C261.45 197.375 261.826 197.929 262.084 198.655C262.346 199.378 262.477 200.251 262.477 201.273C262.477 202.301 262.347 203.178 262.089 203.904C261.83 204.627 261.456 205.18 260.967 205.561C260.478 205.94 259.885 206.129 259.19 206.129ZM259.19 205.114C259.879 205.114 260.415 204.781 260.796 204.116C261.178 203.452 261.369 202.504 261.369 201.273C261.369 200.454 261.281 199.757 261.106 199.181C260.933 198.606 260.684 198.167 260.358 197.866C260.035 197.564 259.645 197.413 259.19 197.413C258.507 197.413 257.973 197.75 257.588 198.424C257.203 199.095 257.011 200.045 257.011 201.273C257.011 202.091 257.097 202.787 257.269 203.359C257.442 203.932 257.689 204.367 258.013 204.666C258.339 204.964 258.731 205.114 259.19 205.114ZM267.235 206.129C266.539 206.129 265.947 205.94 265.457 205.561C264.968 205.18 264.594 204.627 264.336 203.904C264.077 203.178 263.948 202.301 263.948 201.273C263.948 200.251 264.077 199.378 264.336 198.655C264.597 197.929 264.973 197.375 265.462 196.993C265.954 196.609 266.545 196.416 267.235 196.416C267.924 196.416 268.514 196.609 269.003 196.993C269.495 197.375 269.871 197.929 270.129 198.655C270.391 199.378 270.522 200.251 270.522 201.273C270.522 202.301 270.392 203.178 270.134 203.904C269.875 204.627 269.501 205.18 269.012 205.561C268.523 205.94 267.93 206.129 267.235 206.129ZM267.235 205.114C267.924 205.114 268.46 204.781 268.841 204.116C269.223 203.452 269.414 202.504 269.414 201.273C269.414 200.454 269.326 199.757 269.151 199.181C268.978 198.606 268.729 198.167 268.403 197.866C268.08 197.564 267.69 197.413 267.235 197.413C266.552 197.413 266.018 197.75 265.633 198.424C265.248 199.095 265.056 200.045 265.056 201.273C265.056 202.091 265.142 202.787 265.314 203.359C265.487 203.932 265.734 204.367 266.058 204.666C266.384 204.964 266.776 205.114 267.235 205.114ZM275.791 206V198.909H276.843V199.98H276.917C277.046 199.629 277.28 199.345 277.619 199.126C277.957 198.908 278.339 198.798 278.764 198.798C278.844 198.798 278.944 198.8 279.064 198.803C279.184 198.806 279.275 198.811 279.336 198.817V199.925C279.299 199.915 279.215 199.902 279.082 199.883C278.953 199.862 278.816 199.851 278.671 199.851C278.327 199.851 278.019 199.923 277.748 200.068C277.48 200.209 277.268 200.406 277.111 200.659C276.957 200.908 276.88 201.193 276.88 201.513V206H275.791ZM283.305 206.148C282.622 206.148 282.032 205.997 281.537 205.695C281.044 205.391 280.664 204.966 280.396 204.421C280.132 203.873 279.999 203.236 279.999 202.51C279.999 201.784 280.132 201.143 280.396 200.589C280.664 200.032 281.037 199.598 281.514 199.288C281.994 198.974 282.554 198.817 283.194 198.817C283.563 198.817 283.928 198.878 284.288 199.001C284.648 199.125 284.976 199.325 285.271 199.602C285.567 199.875 285.802 200.239 285.978 200.691C286.153 201.143 286.241 201.701 286.241 202.362V202.824H280.775V201.882H285.133C285.133 201.482 285.053 201.125 284.893 200.811C284.736 200.497 284.511 200.249 284.219 200.068C283.93 199.886 283.588 199.795 283.194 199.795C282.76 199.795 282.385 199.903 282.068 200.119C281.754 200.331 281.512 200.608 281.343 200.95C281.174 201.291 281.089 201.657 281.089 202.048V202.676C281.089 203.212 281.181 203.666 281.366 204.038C281.554 204.407 281.814 204.689 282.146 204.883C282.478 205.074 282.865 205.169 283.305 205.169C283.591 205.169 283.85 205.129 284.08 205.049C284.314 204.966 284.516 204.843 284.685 204.68C284.854 204.513 284.985 204.307 285.078 204.061L286.13 204.357C286.019 204.714 285.833 205.027 285.571 205.298C285.31 205.566 284.987 205.775 284.602 205.926C284.217 206.074 283.785 206.148 283.305 206.148ZM290.699 206.148C290.034 206.148 289.462 205.991 288.982 205.677C288.501 205.363 288.132 204.931 287.874 204.38C287.615 203.829 287.486 203.199 287.486 202.491C287.486 201.771 287.618 201.136 287.883 200.585C288.151 200.031 288.523 199.598 289 199.288C289.48 198.974 290.04 198.817 290.68 198.817C291.179 198.817 291.628 198.909 292.028 199.094C292.428 199.278 292.756 199.537 293.012 199.869C293.267 200.202 293.426 200.589 293.487 201.033H292.398C292.315 200.71 292.13 200.423 291.844 200.174C291.561 199.922 291.179 199.795 290.699 199.795C290.274 199.795 289.902 199.906 289.582 200.128C289.265 200.346 289.017 200.656 288.838 201.056C288.663 201.453 288.575 201.919 288.575 202.455C288.575 203.002 288.661 203.479 288.834 203.886C289.009 204.292 289.255 204.607 289.572 204.832C289.893 205.057 290.268 205.169 290.699 205.169C290.982 205.169 291.239 205.12 291.47 205.021C291.701 204.923 291.896 204.781 292.056 204.597C292.216 204.412 292.33 204.19 292.398 203.932H293.487C293.426 204.35 293.273 204.727 293.03 205.063C292.79 205.395 292.472 205.66 292.075 205.857C291.681 206.051 291.222 206.148 290.699 206.148ZM297.973 206.148C297.29 206.148 296.7 205.997 296.205 205.695C295.712 205.391 295.332 204.966 295.065 204.421C294.8 203.873 294.668 203.236 294.668 202.51C294.668 201.784 294.8 201.143 295.065 200.589C295.332 200.032 295.705 199.598 296.182 199.288C296.662 198.974 297.222 198.817 297.862 198.817C298.231 198.817 298.596 198.878 298.956 199.001C299.316 199.125 299.644 199.325 299.94 199.602C300.235 199.875 300.47 200.239 300.646 200.691C300.821 201.143 300.909 201.701 300.909 202.362V202.824H295.443V201.882H299.801C299.801 201.482 299.721 201.125 299.561 200.811C299.404 200.497 299.179 200.249 298.887 200.068C298.598 199.886 298.256 199.795 297.862 199.795C297.428 199.795 297.053 199.903 296.736 200.119C296.422 200.331 296.18 200.608 296.011 200.95C295.842 201.291 295.757 201.657 295.757 202.048V202.676C295.757 203.212 295.849 203.666 296.034 204.038C296.222 204.407 296.482 204.689 296.814 204.883C297.147 205.074 297.533 205.169 297.973 205.169C298.259 205.169 298.518 205.129 298.748 205.049C298.982 204.966 299.184 204.843 299.353 204.68C299.522 204.513 299.653 204.307 299.746 204.061L300.798 204.357C300.687 204.714 300.501 205.027 300.24 205.298C299.978 205.566 299.655 205.775 299.27 205.926C298.885 206.074 298.453 206.148 297.973 206.148ZM302.486 206V198.909H303.576V206H302.486ZM303.04 197.727C302.828 197.727 302.645 197.655 302.491 197.51C302.34 197.366 302.265 197.192 302.265 196.989C302.265 196.786 302.34 196.612 302.491 196.467C302.645 196.322 302.828 196.25 303.04 196.25C303.253 196.25 303.434 196.322 303.585 196.467C303.739 196.612 303.816 196.786 303.816 196.989C303.816 197.192 303.739 197.366 303.585 197.51C303.434 197.655 303.253 197.727 303.04 197.727ZM311.29 198.909L308.667 206H307.559L304.937 198.909H306.119L308.076 204.56H308.15L310.108 198.909H311.29ZM315.367 206.148C314.683 206.148 314.094 205.997 313.599 205.695C313.106 205.391 312.726 204.966 312.458 204.421C312.194 203.873 312.061 203.236 312.061 202.51C312.061 201.784 312.194 201.143 312.458 200.589C312.726 200.032 313.098 199.598 313.575 199.288C314.056 198.974 314.616 198.817 315.256 198.817C315.625 198.817 315.99 198.878 316.35 199.001C316.71 199.125 317.038 199.325 317.333 199.602C317.629 199.875 317.864 200.239 318.04 200.691C318.215 201.143 318.303 201.701 318.303 202.362V202.824H312.837V201.882H317.195C317.195 201.482 317.115 201.125 316.955 200.811C316.798 200.497 316.573 200.249 316.281 200.068C315.991 199.886 315.65 199.795 315.256 199.795C314.822 199.795 314.446 199.903 314.129 200.119C313.816 200.331 313.574 200.608 313.405 200.95C313.235 201.291 313.151 201.657 313.151 202.048V202.676C313.151 203.212 313.243 203.666 313.428 204.038C313.616 204.407 313.876 204.689 314.208 204.883C314.54 205.074 314.927 205.169 315.367 205.169C315.653 205.169 315.911 205.129 316.142 205.049C316.376 204.966 316.578 204.843 316.747 204.68C316.916 204.513 317.047 204.307 317.139 204.061L318.192 204.357C318.081 204.714 317.895 205.027 317.633 205.298C317.372 205.566 317.049 205.775 316.664 205.926C316.279 206.074 315.847 206.148 315.367 206.148ZM322.558 206.148C321.967 206.148 321.445 205.998 320.993 205.7C320.54 205.398 320.186 204.974 319.931 204.426C319.675 203.875 319.548 203.224 319.548 202.473C319.548 201.728 319.675 201.082 319.931 200.534C320.186 199.986 320.542 199.563 320.997 199.265C321.453 198.966 321.979 198.817 322.576 198.817C323.038 198.817 323.402 198.894 323.67 199.048C323.941 199.198 324.147 199.371 324.289 199.565C324.433 199.755 324.546 199.912 324.626 200.036H324.718V196.545H325.808V206H324.755V204.911H324.626C324.546 205.04 324.432 205.203 324.284 205.4C324.136 205.594 323.926 205.768 323.652 205.922C323.378 206.072 323.013 206.148 322.558 206.148ZM322.705 205.169C323.142 205.169 323.512 205.055 323.813 204.827C324.115 204.597 324.344 204.278 324.501 203.872C324.658 203.462 324.737 202.99 324.737 202.455C324.737 201.925 324.66 201.462 324.506 201.065C324.352 200.665 324.124 200.354 323.823 200.132C323.521 199.908 323.149 199.795 322.705 199.795C322.244 199.795 321.859 199.914 321.551 200.151C321.247 200.385 321.017 200.703 320.863 201.107C320.713 201.507 320.637 201.956 320.637 202.455C320.637 202.959 320.714 203.418 320.868 203.83C321.025 204.24 321.256 204.566 321.56 204.809C321.868 205.049 322.25 205.169 322.705 205.169ZM334.608 198.909V199.832H330.786V198.909H334.608ZM331.931 206V197.93C331.931 197.524 332.026 197.186 332.217 196.915C332.408 196.644 332.655 196.441 332.96 196.305C333.265 196.17 333.586 196.102 333.925 196.102C334.193 196.102 334.411 196.124 334.581 196.167C334.75 196.21 334.876 196.25 334.959 196.287L334.645 197.229C334.59 197.21 334.513 197.187 334.414 197.159C334.319 197.132 334.193 197.118 334.036 197.118C333.676 197.118 333.416 197.209 333.256 197.39C333.099 197.572 333.02 197.838 333.02 198.189V206H331.931ZM336.055 206V198.909H337.108V199.98H337.182C337.311 199.629 337.545 199.345 337.883 199.126C338.222 198.908 338.603 198.798 339.028 198.798C339.108 198.798 339.208 198.8 339.328 198.803C339.448 198.806 339.539 198.811 339.601 198.817V199.925C339.564 199.915 339.479 199.902 339.347 199.883C339.217 199.862 339.08 199.851 338.936 199.851C338.591 199.851 338.283 199.923 338.013 200.068C337.745 200.209 337.532 200.406 337.375 200.659C337.222 200.908 337.145 201.193 337.145 201.513V206H336.055ZM343.477 206.148C342.837 206.148 342.275 205.995 341.792 205.691C341.312 205.386 340.936 204.96 340.665 204.412C340.398 203.864 340.264 203.224 340.264 202.491C340.264 201.753 340.398 201.108 340.665 200.557C340.936 200.006 341.312 199.578 341.792 199.274C342.275 198.969 342.837 198.817 343.477 198.817C344.117 198.817 344.677 198.969 345.157 199.274C345.64 199.578 346.016 200.006 346.284 200.557C346.555 201.108 346.69 201.753 346.69 202.491C346.69 203.224 346.555 203.864 346.284 204.412C346.016 204.96 345.64 205.386 345.157 205.691C344.677 205.995 344.117 206.148 343.477 206.148ZM343.477 205.169C343.963 205.169 344.363 205.044 344.677 204.795C344.991 204.546 345.223 204.218 345.374 203.812C345.525 203.406 345.6 202.965 345.6 202.491C345.6 202.018 345.525 201.576 345.374 201.167C345.223 200.757 344.991 200.426 344.677 200.174C344.363 199.922 343.963 199.795 343.477 199.795C342.991 199.795 342.591 199.922 342.277 200.174C341.963 200.426 341.73 200.757 341.58 201.167C341.429 201.576 341.353 202.018 341.353 202.491C341.353 202.965 341.429 203.406 341.58 203.812C341.73 204.218 341.963 204.546 342.277 204.795C342.591 205.044 342.991 205.169 343.477 205.169ZM348.273 206V198.909H349.326V200.017H349.418C349.566 199.638 349.804 199.345 350.134 199.135C350.463 198.923 350.858 198.817 351.32 198.817C351.788 198.817 352.177 198.923 352.488 199.135C352.802 199.345 353.046 199.638 353.222 200.017H353.296C353.477 199.651 353.75 199.36 354.113 199.145C354.476 198.926 354.912 198.817 355.419 198.817C356.053 198.817 356.572 199.015 356.975 199.412C357.378 199.806 357.58 200.42 357.58 201.254V206H356.49V201.254C356.49 200.731 356.347 200.357 356.061 200.132C355.775 199.908 355.438 199.795 355.05 199.795C354.551 199.795 354.165 199.946 353.891 200.248C353.617 200.546 353.48 200.925 353.48 201.384V206H352.372V201.143C352.372 200.74 352.242 200.416 351.98 200.169C351.718 199.92 351.381 199.795 350.969 199.795C350.686 199.795 350.421 199.871 350.175 200.022C349.932 200.172 349.735 200.382 349.584 200.65C349.436 200.914 349.363 201.22 349.363 201.568V206H348.273ZM370.713 196.545V206H369.605L364.453 198.577H364.361V206H363.216V196.545H364.324L369.494 203.987H369.587V196.545H370.713ZM375.749 206.148C375.066 206.148 374.477 205.997 373.981 205.695C373.489 205.391 373.109 204.966 372.841 204.421C372.576 203.873 372.444 203.236 372.444 202.51C372.444 201.784 372.576 201.143 372.841 200.589C373.109 200.032 373.481 199.598 373.958 199.288C374.438 198.974 374.998 198.817 375.638 198.817C376.008 198.817 376.372 198.878 376.733 199.001C377.093 199.125 377.42 199.325 377.716 199.602C378.011 199.875 378.247 200.239 378.422 200.691C378.598 201.143 378.685 201.701 378.685 202.362V202.824H373.219V201.882H377.577C377.577 201.482 377.497 201.125 377.337 200.811C377.18 200.497 376.956 200.249 376.663 200.068C376.374 199.886 376.032 199.795 375.638 199.795C375.204 199.795 374.829 199.903 374.512 200.119C374.198 200.331 373.957 200.608 373.787 200.95C373.618 201.291 373.533 201.657 373.533 202.048V202.676C373.533 203.212 373.626 203.666 373.81 204.038C373.998 204.407 374.258 204.689 374.591 204.883C374.923 205.074 375.309 205.169 375.749 205.169C376.035 205.169 376.294 205.129 376.525 205.049C376.759 204.966 376.96 204.843 377.13 204.68C377.299 204.513 377.43 204.307 377.522 204.061L378.575 204.357C378.464 204.714 378.278 205.027 378.016 205.298C377.754 205.566 377.431 205.775 377.046 205.926C376.662 206.074 376.229 206.148 375.749 206.148ZM384.731 203.101V198.909H385.821V206H384.731V204.8H384.658C384.491 205.16 384.233 205.466 383.882 205.718C383.531 205.968 383.088 206.092 382.552 206.092C382.109 206.092 381.715 205.995 381.371 205.801C381.026 205.605 380.755 205.309 380.558 204.915C380.361 204.518 380.263 204.018 380.263 203.415V198.909H381.352V203.341C381.352 203.858 381.497 204.27 381.786 204.578C382.078 204.886 382.451 205.04 382.903 205.04C383.174 205.04 383.45 204.971 383.73 204.832C384.013 204.694 384.25 204.481 384.441 204.195C384.634 203.909 384.731 203.544 384.731 203.101ZM390.709 206.148C390.026 206.148 389.437 205.997 388.941 205.695C388.449 205.391 388.069 204.966 387.801 204.421C387.536 203.873 387.404 203.236 387.404 202.51C387.404 201.784 387.536 201.143 387.801 200.589C388.069 200.032 388.441 199.598 388.918 199.288C389.398 198.974 389.958 198.817 390.599 198.817C390.968 198.817 391.333 198.878 391.693 199.001C392.053 199.125 392.381 199.325 392.676 199.602C392.971 199.875 393.207 200.239 393.382 200.691C393.558 201.143 393.645 201.701 393.645 202.362V202.824H388.18V201.882H392.537C392.537 201.482 392.457 201.125 392.297 200.811C392.14 200.497 391.916 200.249 391.623 200.068C391.334 199.886 390.992 199.795 390.599 199.795C390.165 199.795 389.789 199.903 389.472 200.119C389.158 200.331 388.917 200.608 388.747 200.95C388.578 201.291 388.493 201.657 388.493 202.048V202.676C388.493 203.212 388.586 203.666 388.77 204.038C388.958 204.407 389.218 204.689 389.551 204.883C389.883 205.074 390.269 205.169 390.709 205.169C390.996 205.169 391.254 205.129 391.485 205.049C391.719 204.966 391.92 204.843 392.09 204.68C392.259 204.513 392.39 204.307 392.482 204.061L393.535 204.357C393.424 204.714 393.238 205.027 392.976 205.298C392.714 205.566 392.391 205.775 392.007 205.926C391.622 206.074 391.189 206.148 390.709 206.148ZM406.555 199.5H405.41C405.342 199.171 405.224 198.881 405.054 198.632C404.888 198.383 404.685 198.174 404.445 198.004C404.208 197.832 403.945 197.703 403.656 197.616C403.366 197.53 403.065 197.487 402.751 197.487C402.178 197.487 401.66 197.632 401.195 197.921C400.733 198.21 400.366 198.637 400.092 199.2C399.821 199.763 399.685 200.454 399.685 201.273C399.685 202.091 399.821 202.782 400.092 203.346C400.366 203.909 400.733 204.335 401.195 204.624C401.66 204.914 402.178 205.058 402.751 205.058C403.065 205.058 403.366 205.015 403.656 204.929C403.945 204.843 404.208 204.715 404.445 204.546C404.685 204.373 404.888 204.163 405.054 203.913C405.224 203.661 405.342 203.372 405.41 203.045H406.555C406.469 203.529 406.312 203.961 406.084 204.343C405.856 204.724 405.573 205.049 405.234 205.317C404.896 205.581 404.516 205.783 404.094 205.922C403.676 206.06 403.228 206.129 402.751 206.129C401.944 206.129 401.227 205.932 400.599 205.538C399.972 205.144 399.478 204.584 399.118 203.858C398.757 203.132 398.577 202.27 398.577 201.273C398.577 200.276 398.757 199.414 399.118 198.688C399.478 197.961 399.972 197.401 400.599 197.007C401.227 196.613 401.944 196.416 402.751 196.416C403.228 196.416 403.676 196.485 404.094 196.624C404.516 196.762 404.896 196.966 405.234 197.233C405.573 197.498 405.856 197.821 406.084 198.203C406.312 198.581 406.469 199.014 406.555 199.5ZM409.266 196.545V206H408.177V196.545H409.266ZM414.063 206.148C413.422 206.148 412.861 205.995 412.378 205.691C411.898 205.386 411.522 204.96 411.251 204.412C410.983 203.864 410.85 203.224 410.85 202.491C410.85 201.753 410.983 201.108 411.251 200.557C411.522 200.006 411.898 199.578 412.378 199.274C412.861 198.969 413.422 198.817 414.063 198.817C414.703 198.817 415.263 198.969 415.743 199.274C416.226 199.578 416.602 200.006 416.869 200.557C417.14 201.108 417.276 201.753 417.276 202.491C417.276 203.224 417.14 203.864 416.869 204.412C416.602 204.96 416.226 205.386 415.743 205.691C415.263 205.995 414.703 206.148 414.063 206.148ZM414.063 205.169C414.549 205.169 414.949 205.044 415.263 204.795C415.577 204.546 415.809 204.218 415.96 203.812C416.111 203.406 416.186 202.965 416.186 202.491C416.186 202.018 416.111 201.576 415.96 201.167C415.809 200.757 415.577 200.426 415.263 200.174C414.949 199.922 414.549 199.795 414.063 199.795C413.576 199.795 413.176 199.922 412.862 200.174C412.548 200.426 412.316 200.757 412.165 201.167C412.014 201.576 411.939 202.018 411.939 202.491C411.939 202.965 412.014 203.406 412.165 203.812C412.316 204.218 412.548 204.546 412.862 204.795C413.176 205.044 413.576 205.169 414.063 205.169ZM421.943 198.909V199.832H418.268V198.909H421.943ZM419.339 197.21H420.428V203.969C420.428 204.277 420.473 204.507 420.562 204.661C420.655 204.812 420.772 204.914 420.913 204.966C421.058 205.015 421.21 205.04 421.37 205.04C421.49 205.04 421.589 205.034 421.666 205.021C421.743 205.006 421.804 204.994 421.85 204.984L422.072 205.963C421.998 205.991 421.895 206.018 421.763 206.046C421.63 206.077 421.462 206.092 421.259 206.092C420.952 206.092 420.65 206.026 420.355 205.894C420.062 205.761 419.819 205.56 419.625 205.289C419.434 205.018 419.339 204.677 419.339 204.264V197.21ZM424.743 201.734V206H423.654V196.545H424.743V200.017H424.836C425.002 199.651 425.251 199.36 425.583 199.145C425.919 198.926 426.365 198.817 426.922 198.817C427.405 198.817 427.829 198.914 428.192 199.108C428.555 199.298 428.837 199.592 429.037 199.989C429.24 200.383 429.341 200.885 429.341 201.494V206H428.252V201.568C428.252 201.005 428.106 200.569 427.813 200.262C427.524 199.951 427.122 199.795 426.608 199.795C426.251 199.795 425.931 199.871 425.648 200.022C425.368 200.172 425.146 200.393 424.983 200.682C424.823 200.971 424.743 201.322 424.743 201.734ZM431.254 206V198.909H432.344V206H431.254ZM431.808 197.727C431.596 197.727 431.413 197.655 431.259 197.51C431.108 197.366 431.033 197.192 431.033 196.989C431.033 196.786 431.108 196.612 431.259 196.467C431.413 196.322 431.596 196.25 431.808 196.25C432.021 196.25 432.202 196.322 432.353 196.467C432.507 196.612 432.584 196.786 432.584 196.989C432.584 197.192 432.507 197.366 432.353 197.51C432.202 197.655 432.021 197.727 431.808 197.727ZM435.349 201.734V206H434.259V198.909H435.312V200.017H435.404C435.571 199.657 435.823 199.368 436.161 199.149C436.5 198.928 436.937 198.817 437.472 198.817C437.953 198.817 438.373 198.915 438.733 199.112C439.093 199.306 439.373 199.602 439.573 199.999C439.773 200.393 439.873 200.891 439.873 201.494V206H438.784V201.568C438.784 201.011 438.639 200.577 438.35 200.266C438.06 199.952 437.663 199.795 437.159 199.795C436.811 199.795 436.5 199.871 436.226 200.022C435.955 200.172 435.741 200.393 435.584 200.682C435.427 200.971 435.349 201.322 435.349 201.734ZM444.646 208.807C444.12 208.807 443.667 208.739 443.289 208.604C442.91 208.471 442.595 208.296 442.343 208.077C442.093 207.862 441.895 207.631 441.747 207.385L442.615 206.776C442.713 206.905 442.838 207.053 442.989 207.219C443.14 207.388 443.346 207.534 443.607 207.657C443.872 207.783 444.218 207.847 444.646 207.847C445.219 207.847 445.691 207.708 446.063 207.431C446.436 207.154 446.622 206.72 446.622 206.129V204.689H446.53C446.45 204.818 446.336 204.978 446.188 205.169C446.043 205.357 445.834 205.525 445.56 205.672C445.289 205.817 444.923 205.889 444.461 205.889C443.889 205.889 443.375 205.754 442.92 205.483C442.467 205.212 442.109 204.818 441.844 204.301C441.582 203.784 441.452 203.156 441.452 202.418C441.452 201.691 441.579 201.059 441.835 200.52C442.09 199.979 442.446 199.56 442.901 199.265C443.357 198.966 443.883 198.817 444.48 198.817C444.942 198.817 445.308 198.894 445.579 199.048C445.853 199.198 446.062 199.371 446.207 199.565C446.354 199.755 446.468 199.912 446.548 200.036H446.659V198.909H447.711V206.203C447.711 206.812 447.573 207.308 447.296 207.69C447.022 208.074 446.653 208.356 446.188 208.534C445.726 208.716 445.212 208.807 444.646 208.807ZM444.609 204.911C445.046 204.911 445.416 204.81 445.717 204.61C446.019 204.41 446.248 204.123 446.405 203.747C446.562 203.372 446.64 202.922 446.64 202.399C446.64 201.888 446.564 201.437 446.41 201.047C446.256 200.656 446.028 200.349 445.726 200.128C445.425 199.906 445.052 199.795 444.609 199.795C444.148 199.795 443.763 199.912 443.455 200.146C443.15 200.38 442.921 200.694 442.767 201.088C442.616 201.482 442.541 201.919 442.541 202.399C442.541 202.892 442.618 203.327 442.772 203.706C442.929 204.081 443.16 204.377 443.464 204.592C443.772 204.804 444.154 204.911 444.609 204.911Z" fill="white"/>
<g filter="url(#filter1_b_947_3390)">
<rect x="170" y="228" width="355" height="58" rx="16" fill="#6F6F6F" fill-opacity="0.8"/>
</g>
<rect x="180" y="238" width="38" height="38" rx="10" fill="white"/>
<rect x="187" y="245" width="24" height="24" rx="5.2" fill="white"/>
<path d="M190.709 264.2H193.762V256.784L189.4 253.512V262.891C189.4 263.616 189.987 264.2 190.709 264.2Z" fill="#4285F4"/>
<path d="M204.232 264.2H207.286C208.01 264.2 208.595 263.613 208.595 262.891V253.512L204.232 256.784" fill="#34A853"/>
<path d="M204.232 251.113V256.784L208.595 253.512V251.767C208.595 250.148 206.747 249.226 205.454 250.196" fill="#FBBC04"/>
<path d="M193.763 256.784V251.113L198.998 255.039L204.233 251.113V256.784L198.998 260.71" fill="#EA4335"/>
<path d="M189.4 251.767V253.512L193.762 256.784V251.113L192.541 250.196C191.245 249.226 189.4 250.148 189.4 251.767" fill="#C5221F"/>
<path d="M491.564 247.734V252H490.475V244.909H491.527V246.017H491.619C491.786 245.657 492.038 245.368 492.377 245.149C492.715 244.928 493.152 244.817 493.688 244.817C494.168 244.817 494.588 244.915 494.948 245.112C495.308 245.306 495.588 245.602 495.788 245.999C495.988 246.393 496.088 246.891 496.088 247.494V252H494.999V247.568C494.999 247.011 494.854 246.577 494.565 246.266C494.275 245.952 493.878 245.795 493.374 245.795C493.026 245.795 492.715 245.871 492.441 246.022C492.17 246.172 491.956 246.393 491.799 246.682C491.643 246.971 491.564 247.322 491.564 247.734ZM500.88 252.148C500.24 252.148 499.678 251.995 499.195 251.691C498.715 251.386 498.339 250.96 498.068 250.412C497.801 249.864 497.667 249.224 497.667 248.491C497.667 247.753 497.801 247.108 498.068 246.557C498.339 246.006 498.715 245.578 499.195 245.274C499.678 244.969 500.24 244.817 500.88 244.817C501.52 244.817 502.08 244.969 502.56 245.274C503.043 245.578 503.419 246.006 503.687 246.557C503.957 247.108 504.093 247.753 504.093 248.491C504.093 249.224 503.957 249.864 503.687 250.412C503.419 250.96 503.043 251.386 502.56 251.691C502.08 251.995 501.52 252.148 500.88 252.148ZM500.88 251.169C501.366 251.169 501.766 251.044 502.08 250.795C502.394 250.546 502.626 250.218 502.777 249.812C502.928 249.406 503.003 248.965 503.003 248.491C503.003 248.018 502.928 247.576 502.777 247.167C502.626 246.757 502.394 246.426 502.08 246.174C501.766 245.922 501.366 245.795 500.88 245.795C500.393 245.795 499.993 245.922 499.679 246.174C499.366 246.426 499.133 246.757 498.982 247.167C498.832 247.576 498.756 248.018 498.756 248.491C498.756 248.965 498.832 249.406 498.982 249.812C499.133 250.218 499.366 250.546 499.679 250.795C499.993 251.044 500.393 251.169 500.88 251.169ZM507.041 252L504.881 244.909H506.026L507.558 250.338H507.632L509.146 244.909H510.31L511.805 250.32H511.879L513.412 244.909H514.557L512.396 252H511.325L509.774 246.553H509.663L508.112 252H507.041Z" fill="#EBEBF5" fill-opacity="0.6"/>
<path d="M237.122 267.273C237.122 268.27 236.942 269.132 236.582 269.858C236.222 270.584 235.728 271.144 235.1 271.538C234.472 271.932 233.755 272.129 232.949 272.129C232.143 272.129 231.425 271.932 230.798 271.538C230.17 271.144 229.676 270.584 229.316 269.858C228.956 269.132 228.776 268.27 228.776 267.273C228.776 266.276 228.956 265.414 229.316 264.688C229.676 263.961 230.17 263.401 230.798 263.007C231.425 262.613 232.143 262.416 232.949 262.416C233.755 262.416 234.472 262.613 235.1 263.007C235.728 263.401 236.222 263.961 236.582 264.688C236.942 265.414 237.122 266.276 237.122 267.273ZM236.014 267.273C236.014 266.454 235.877 265.763 235.603 265.2C235.333 264.637 234.965 264.21 234.5 263.921C234.038 263.632 233.521 263.487 232.949 263.487C232.376 263.487 231.858 263.632 231.393 263.921C230.931 264.21 230.564 264.637 230.29 265.2C230.019 265.763 229.884 266.454 229.884 267.273C229.884 268.091 230.019 268.782 230.29 269.346C230.564 269.909 230.931 270.335 231.393 270.624C231.858 270.914 232.376 271.058 232.949 271.058C233.521 271.058 234.038 270.914 234.5 270.624C234.965 270.335 235.333 269.909 235.603 269.346C235.877 268.782 236.014 268.091 236.014 267.273ZM238.82 272V264.909H239.872V265.98H239.946C240.075 265.629 240.309 265.345 240.648 265.126C240.986 264.908 241.368 264.798 241.793 264.798C241.873 264.798 241.973 264.8 242.093 264.803C242.213 264.806 242.303 264.811 242.365 264.817V265.925C242.328 265.915 242.243 265.902 242.111 265.883C241.982 265.862 241.845 265.851 241.7 265.851C241.355 265.851 241.048 265.923 240.777 266.068C240.509 266.209 240.297 266.406 240.14 266.659C239.986 266.908 239.909 267.193 239.909 267.513V272H238.82ZM246.038 272.148C245.447 272.148 244.926 271.998 244.473 271.7C244.021 271.398 243.667 270.974 243.411 270.426C243.156 269.875 243.028 269.224 243.028 268.473C243.028 267.728 243.156 267.082 243.411 266.534C243.667 265.986 244.022 265.563 244.478 265.265C244.933 264.966 245.46 264.817 246.057 264.817C246.518 264.817 246.883 264.894 247.151 265.048C247.422 265.198 247.628 265.371 247.769 265.565C247.914 265.755 248.026 265.912 248.106 266.036H248.199V262.545H249.288V272H248.236V270.911H248.106C248.026 271.04 247.912 271.203 247.765 271.4C247.617 271.594 247.406 271.768 247.132 271.922C246.858 272.072 246.494 272.148 246.038 272.148ZM246.186 271.169C246.623 271.169 246.992 271.055 247.294 270.827C247.595 270.597 247.825 270.278 247.982 269.872C248.139 269.462 248.217 268.99 248.217 268.455C248.217 267.925 248.14 267.462 247.986 267.065C247.832 266.665 247.605 266.354 247.303 266.132C247.001 265.908 246.629 265.795 246.186 265.795C245.724 265.795 245.34 265.914 245.032 266.151C244.727 266.385 244.498 266.703 244.344 267.107C244.193 267.507 244.118 267.956 244.118 268.455C244.118 268.959 244.195 269.418 244.349 269.83C244.505 270.24 244.736 270.566 245.041 270.809C245.349 271.049 245.73 271.169 246.186 271.169ZM254.328 272.148C253.645 272.148 253.055 271.997 252.56 271.695C252.067 271.391 251.687 270.966 251.419 270.421C251.155 269.873 251.022 269.236 251.022 268.51C251.022 267.784 251.155 267.143 251.419 266.589C251.687 266.032 252.06 265.598 252.537 265.288C253.017 264.974 253.577 264.817 254.217 264.817C254.586 264.817 254.951 264.878 255.311 265.001C255.671 265.125 255.999 265.325 256.294 265.602C256.59 265.875 256.825 266.239 257.001 266.691C257.176 267.143 257.264 267.701 257.264 268.362V268.824H251.798V267.882H256.156C256.156 267.482 256.076 267.125 255.916 266.811C255.759 266.497 255.534 266.249 255.242 266.068C254.953 265.886 254.611 265.795 254.217 265.795C253.783 265.795 253.408 265.903 253.091 266.119C252.777 266.331 252.535 266.608 252.366 266.95C252.197 267.291 252.112 267.657 252.112 268.048V268.676C252.112 269.212 252.204 269.666 252.389 270.038C252.577 270.407 252.837 270.689 253.169 270.883C253.501 271.074 253.888 271.169 254.328 271.169C254.614 271.169 254.873 271.129 255.103 271.049C255.337 270.966 255.539 270.843 255.708 270.68C255.877 270.513 256.008 270.307 256.101 270.061L257.153 270.357C257.042 270.714 256.856 271.027 256.595 271.298C256.333 271.566 256.01 271.775 255.625 271.926C255.24 272.074 254.808 272.148 254.328 272.148ZM258.841 272V264.909H259.894V265.98H259.968C260.097 265.629 260.331 265.345 260.669 265.126C261.008 264.908 261.39 264.798 261.814 264.798C261.894 264.798 261.994 264.8 262.114 264.803C262.234 264.806 262.325 264.811 262.387 264.817V265.925C262.35 265.915 262.265 265.902 262.133 265.883C262.004 265.862 261.867 265.851 261.722 265.851C261.377 265.851 261.069 265.923 260.799 266.068C260.531 266.209 260.318 266.406 260.162 266.659C260.008 266.908 259.931 267.193 259.931 267.513V272H258.841ZM270.701 272L272.253 262.545H273.176L271.625 272H270.701ZM266.399 269.378L266.547 268.455H273.601L273.453 269.378H266.399ZM267.378 272L268.929 262.545H269.852L268.301 272H267.378ZM266.953 266.091L267.101 265.168H274.154L274.007 266.091H266.953ZM278.853 272V271.169L281.974 267.753C282.34 267.353 282.642 267.005 282.879 266.71C283.116 266.411 283.291 266.131 283.405 265.869C283.522 265.605 283.581 265.328 283.581 265.038C283.581 264.706 283.501 264.418 283.341 264.175C283.184 263.932 282.968 263.744 282.694 263.612C282.42 263.48 282.113 263.413 281.771 263.413C281.408 263.413 281.091 263.489 280.82 263.64C280.552 263.787 280.344 263.995 280.197 264.263C280.052 264.531 279.98 264.844 279.98 265.205H278.89C278.89 264.651 279.018 264.164 279.273 263.746C279.529 263.327 279.877 263.001 280.317 262.767C280.76 262.533 281.257 262.416 281.808 262.416C282.362 262.416 282.853 262.533 283.281 262.767C283.708 263.001 284.044 263.316 284.287 263.713C284.53 264.11 284.652 264.552 284.652 265.038C284.652 265.386 284.589 265.726 284.462 266.059C284.339 266.388 284.124 266.756 283.816 267.162C283.511 267.565 283.088 268.058 282.547 268.639L280.423 270.911V270.984H284.818V272H278.853ZM289.839 272.129C289.23 272.129 288.686 272.025 288.209 271.815C287.735 271.606 287.358 271.315 287.078 270.943C286.801 270.567 286.651 270.132 286.626 269.636H287.789C287.814 269.941 287.919 270.204 288.103 270.426C288.288 270.644 288.529 270.814 288.828 270.934C289.127 271.054 289.457 271.114 289.821 271.114C290.227 271.114 290.587 271.043 290.901 270.901C291.215 270.76 291.461 270.563 291.639 270.31C291.818 270.058 291.907 269.766 291.907 269.433C291.907 269.085 291.821 268.779 291.649 268.515C291.476 268.247 291.224 268.038 290.892 267.887C290.559 267.736 290.153 267.661 289.673 267.661H288.916V266.645H289.673C290.048 266.645 290.378 266.577 290.661 266.442C290.947 266.306 291.17 266.116 291.33 265.869C291.493 265.623 291.575 265.334 291.575 265.001C291.575 264.681 291.504 264.403 291.362 264.166C291.221 263.929 291.021 263.744 290.762 263.612C290.507 263.48 290.205 263.413 289.858 263.413C289.531 263.413 289.224 263.473 288.934 263.593C288.648 263.71 288.414 263.881 288.233 264.106C288.051 264.327 287.952 264.595 287.937 264.909H286.829C286.848 264.414 286.997 263.98 287.277 263.607C287.557 263.232 287.923 262.939 288.376 262.73C288.831 262.521 289.331 262.416 289.876 262.416C290.461 262.416 290.962 262.535 291.381 262.772C291.8 263.006 292.121 263.315 292.346 263.7C292.57 264.084 292.683 264.5 292.683 264.946C292.683 265.478 292.543 265.932 292.263 266.308C291.986 266.683 291.609 266.943 291.132 267.088V267.162C291.729 267.26 292.195 267.514 292.53 267.924C292.866 268.33 293.034 268.833 293.034 269.433C293.034 269.947 292.894 270.409 292.614 270.818C292.337 271.224 291.958 271.545 291.478 271.778C290.998 272.012 290.451 272.129 289.839 272.129ZM297.981 272.129C297.593 272.123 297.205 272.049 296.818 271.908C296.43 271.766 296.076 271.528 295.756 271.192C295.436 270.854 295.179 270.397 294.985 269.821C294.791 269.242 294.694 268.516 294.694 267.642C294.694 266.805 294.773 266.063 294.929 265.417C295.086 264.768 295.314 264.221 295.613 263.778C295.911 263.332 296.271 262.993 296.693 262.762C297.118 262.532 297.596 262.416 298.129 262.416C298.658 262.416 299.129 262.522 299.541 262.735C299.957 262.944 300.295 263.236 300.557 263.612C300.819 263.987 300.988 264.42 301.065 264.909H299.938C299.834 264.484 299.631 264.132 299.329 263.852C299.027 263.572 298.627 263.432 298.129 263.432C297.396 263.432 296.819 263.75 296.398 264.387C295.979 265.025 295.768 265.919 295.765 267.07H295.839C296.011 266.808 296.216 266.585 296.453 266.4C296.693 266.212 296.958 266.068 297.247 265.966C297.536 265.865 297.842 265.814 298.166 265.814C298.707 265.814 299.203 265.949 299.652 266.22C300.101 266.488 300.462 266.859 300.732 267.333C301.003 267.804 301.139 268.344 301.139 268.953C301.139 269.538 301.008 270.073 300.746 270.56C300.485 271.043 300.117 271.428 299.643 271.714C299.172 271.997 298.618 272.135 297.981 272.129ZM297.981 271.114C298.369 271.114 298.717 271.017 299.024 270.823C299.335 270.629 299.58 270.369 299.758 270.043C299.94 269.716 300.031 269.353 300.031 268.953C300.031 268.562 299.943 268.207 299.768 267.887C299.595 267.564 299.357 267.307 299.052 267.116C298.75 266.925 298.406 266.83 298.018 266.83C297.726 266.83 297.453 266.888 297.201 267.005C296.948 267.119 296.727 267.276 296.536 267.476C296.348 267.676 296.201 267.905 296.093 268.164C295.985 268.419 295.931 268.688 295.931 268.972C295.931 269.347 296.019 269.698 296.194 270.024C296.373 270.35 296.616 270.614 296.924 270.814C297.235 271.014 297.587 271.114 297.981 271.114ZM305.829 272.129C305.287 272.129 304.799 272.022 304.365 271.806C303.931 271.591 303.583 271.295 303.322 270.92C303.06 270.544 302.917 270.116 302.893 269.636H304.001C304.044 270.064 304.237 270.418 304.582 270.698C304.93 270.975 305.345 271.114 305.829 271.114C306.216 271.114 306.561 271.023 306.863 270.841C307.167 270.66 307.406 270.41 307.578 270.093C307.754 269.773 307.841 269.412 307.841 269.009C307.841 268.596 307.751 268.228 307.569 267.905C307.391 267.579 307.144 267.322 306.83 267.134C306.516 266.946 306.158 266.851 305.755 266.848C305.465 266.845 305.168 266.89 304.864 266.982C304.559 267.071 304.308 267.187 304.111 267.328L303.04 267.199L303.613 262.545H308.525V263.561H304.573L304.241 266.349H304.296C304.49 266.196 304.733 266.068 305.025 265.966C305.318 265.865 305.622 265.814 305.939 265.814C306.518 265.814 307.034 265.952 307.486 266.229C307.941 266.503 308.298 266.879 308.557 267.356C308.819 267.833 308.949 268.378 308.949 268.99C308.949 269.593 308.814 270.132 308.543 270.606C308.275 271.077 307.906 271.449 307.435 271.723C306.964 271.994 306.429 272.129 305.829 272.129ZM310.482 270.061V269.119L314.637 262.545H315.32V264.004H314.858L311.719 268.972V269.045H317.314V270.061H310.482ZM314.932 272V269.775V269.336V262.545H316.021V272H314.932ZM318.964 272V271.169L322.085 267.753C322.451 267.353 322.753 267.005 322.99 266.71C323.227 266.411 323.402 266.131 323.516 265.869C323.633 265.605 323.691 265.328 323.691 265.038C323.691 264.706 323.611 264.418 323.451 264.175C323.294 263.932 323.079 263.744 322.805 263.612C322.531 263.48 322.223 263.413 321.882 263.413C321.519 263.413 321.202 263.489 320.931 263.64C320.663 263.787 320.455 263.995 320.307 264.263C320.163 264.531 320.091 264.844 320.091 265.205H319.001C319.001 264.651 319.129 264.164 319.384 263.746C319.64 263.327 319.987 263.001 320.428 262.767C320.871 262.533 321.368 262.416 321.919 262.416C322.473 262.416 322.963 262.533 323.391 262.767C323.819 263.001 324.155 263.316 324.398 263.713C324.641 264.11 324.762 264.552 324.762 265.038C324.762 265.386 324.699 265.726 324.573 266.059C324.45 266.388 324.235 266.756 323.927 267.162C323.622 267.565 323.199 268.058 322.657 268.639L320.534 270.911V270.984H324.929V272H318.964ZM329.784 272.129C329.15 272.129 328.589 272.017 328.103 271.792C327.62 271.565 327.243 271.252 326.972 270.855C326.701 270.455 326.567 270 326.571 269.489C326.567 269.089 326.646 268.719 326.806 268.381C326.966 268.039 327.185 267.754 327.461 267.527C327.742 267.296 328.054 267.15 328.399 267.088V267.033C327.946 266.916 327.586 266.662 327.318 266.271C327.051 265.877 326.918 265.429 326.921 264.928C326.918 264.447 327.04 264.018 327.286 263.64C327.532 263.261 327.871 262.962 328.302 262.744C328.736 262.525 329.23 262.416 329.784 262.416C330.331 262.416 330.821 262.525 331.252 262.744C331.682 262.962 332.021 263.261 332.267 263.64C332.517 264.018 332.643 264.447 332.646 264.928C332.643 265.429 332.506 265.877 332.235 266.271C331.967 266.662 331.612 266.916 331.169 267.033V267.088C331.51 267.15 331.818 267.296 332.092 267.527C332.366 267.754 332.584 268.039 332.747 268.381C332.91 268.719 332.994 269.089 332.997 269.489C332.994 270 332.855 270.455 332.581 270.855C332.31 271.252 331.933 271.565 331.45 271.792C330.97 272.017 330.415 272.129 329.784 272.129ZM329.784 271.114C330.211 271.114 330.581 271.044 330.892 270.906C331.202 270.767 331.442 270.572 331.612 270.32C331.781 270.067 331.867 269.772 331.87 269.433C331.867 269.076 331.775 268.761 331.593 268.487C331.412 268.213 331.164 267.998 330.85 267.841C330.539 267.684 330.184 267.605 329.784 267.605C329.38 267.605 329.02 267.684 328.703 267.841C328.389 267.998 328.142 268.213 327.96 268.487C327.782 268.761 327.694 269.076 327.697 269.433C327.694 269.772 327.775 270.067 327.942 270.32C328.111 270.572 328.352 270.767 328.666 270.906C328.98 271.044 329.353 271.114 329.784 271.114ZM329.784 266.626C330.122 266.626 330.422 266.559 330.684 266.423C330.948 266.288 331.156 266.099 331.307 265.855C331.458 265.612 331.535 265.328 331.538 265.001C331.535 264.681 331.459 264.403 331.312 264.166C331.164 263.926 330.959 263.741 330.698 263.612C330.436 263.48 330.131 263.413 329.784 263.413C329.43 263.413 329.12 263.48 328.856 263.612C328.591 263.741 328.386 263.926 328.242 264.166C328.097 264.403 328.026 264.681 328.029 265.001C328.026 265.328 328.099 265.612 328.246 265.855C328.397 266.099 328.605 266.288 328.87 266.423C329.134 266.559 329.439 266.626 329.784 266.626ZM334.981 272L339.21 263.635V263.561H334.335V262.545H340.392V263.616L336.182 272H334.981ZM345.011 272.129C344.402 272.129 343.859 272.025 343.382 271.815C342.908 271.606 342.531 271.315 342.251 270.943C341.974 270.567 341.823 270.132 341.798 269.636H342.962C342.986 269.941 343.091 270.204 343.276 270.426C343.46 270.644 343.702 270.814 344 270.934C344.299 271.054 344.63 271.114 344.993 271.114C345.399 271.114 345.759 271.043 346.073 270.901C346.387 270.76 346.633 270.563 346.812 270.31C346.99 270.058 347.08 269.766 347.08 269.433C347.08 269.085 346.993 268.779 346.821 268.515C346.649 268.247 346.396 268.038 346.064 267.887C345.732 267.736 345.325 267.661 344.845 267.661H344.088V266.645H344.845C345.221 266.645 345.55 266.577 345.833 266.442C346.119 266.306 346.343 266.116 346.503 265.869C346.666 265.623 346.747 265.334 346.747 265.001C346.747 264.681 346.676 264.403 346.535 264.166C346.393 263.929 346.193 263.744 345.935 263.612C345.679 263.48 345.378 263.413 345.03 263.413C344.704 263.413 344.396 263.473 344.107 263.593C343.82 263.71 343.587 263.881 343.405 264.106C343.223 264.327 343.125 264.595 343.109 264.909H342.002C342.02 264.414 342.169 263.98 342.449 263.607C342.729 263.232 343.096 262.939 343.548 262.73C344.004 262.521 344.504 262.416 345.048 262.416C345.633 262.416 346.135 262.535 346.553 262.772C346.972 263.006 347.294 263.315 347.518 263.7C347.743 264.084 347.855 264.5 347.855 264.946C347.855 265.478 347.715 265.932 347.435 266.308C347.158 266.683 346.781 266.943 346.304 267.088V267.162C346.901 267.26 347.367 267.514 347.703 267.924C348.038 268.33 348.206 268.833 348.206 269.433C348.206 269.947 348.066 270.409 347.786 270.818C347.509 271.224 347.13 271.545 346.65 271.778C346.17 272.012 345.624 272.129 345.011 272.129ZM359.844 269.304C359.472 269.304 359.132 269.213 358.824 269.032C358.516 268.847 358.27 268.601 358.085 268.293C357.904 267.985 357.813 267.645 357.813 267.273C357.813 266.897 357.904 266.557 358.085 266.252C358.27 265.945 358.516 265.7 358.824 265.518C359.132 265.334 359.472 265.241 359.844 265.241C360.22 265.241 360.56 265.334 360.864 265.518C361.172 265.7 361.417 265.945 361.599 266.252C361.783 266.557 361.876 266.897 361.876 267.273C361.876 267.645 361.783 267.985 361.599 268.293C361.417 268.601 361.172 268.847 360.864 269.032C360.56 269.213 360.22 269.304 359.844 269.304ZM371.718 272V262.545H374.913C375.651 262.545 376.257 262.672 376.731 262.924C377.205 263.173 377.556 263.516 377.784 263.953C378.012 264.391 378.126 264.888 378.126 265.445C378.126 266.002 378.012 266.496 377.784 266.926C377.556 267.357 377.207 267.696 376.736 267.942C376.265 268.185 375.663 268.307 374.931 268.307H372.346V267.273H374.894C375.399 267.273 375.805 267.199 376.113 267.051C376.424 266.903 376.648 266.694 376.787 266.423C376.928 266.149 376.999 265.823 376.999 265.445C376.999 265.066 376.928 264.735 376.787 264.452C376.645 264.169 376.419 263.95 376.108 263.797C375.797 263.64 375.386 263.561 374.876 263.561H372.863V272H371.718ZM376.168 267.753L378.495 272H377.165L374.876 267.753H376.168ZM382.702 272.148C382.019 272.148 381.43 271.997 380.934 271.695C380.442 271.391 380.062 270.966 379.794 270.421C379.529 269.873 379.397 269.236 379.397 268.51C379.397 267.784 379.529 267.143 379.794 266.589C380.062 266.032 380.434 265.598 380.911 265.288C381.391 264.974 381.951 264.817 382.592 264.817C382.961 264.817 383.326 264.878 383.686 265.001C384.046 265.125 384.374 265.325 384.669 265.602C384.965 265.875 385.2 266.239 385.375 266.691C385.551 267.143 385.639 267.701 385.639 268.362V268.824H380.173V267.882H384.531C384.531 267.482 384.451 267.125 384.291 266.811C384.134 266.497 383.909 266.249 383.617 266.068C383.327 265.886 382.986 265.795 382.592 265.795C382.158 265.795 381.782 265.903 381.465 266.119C381.151 266.331 380.91 266.608 380.74 266.95C380.571 267.291 380.487 267.657 380.487 268.048V268.676C380.487 269.212 380.579 269.666 380.764 270.038C380.951 270.407 381.211 270.689 381.544 270.883C381.876 271.074 382.262 271.169 382.702 271.169C382.989 271.169 383.247 271.129 383.478 271.049C383.712 270.966 383.913 270.843 384.083 270.68C384.252 270.513 384.383 270.307 384.475 270.061L385.528 270.357C385.417 270.714 385.231 271.027 384.969 271.298C384.708 271.566 384.384 271.775 384 271.926C383.615 272.074 383.183 272.148 382.702 272.148ZM390.374 264.909V265.832H386.551V264.909H390.374ZM387.696 272V263.93C387.696 263.524 387.791 263.186 387.982 262.915C388.173 262.644 388.421 262.441 388.725 262.305C389.03 262.17 389.352 262.102 389.69 262.102C389.958 262.102 390.177 262.124 390.346 262.167C390.515 262.21 390.641 262.25 390.724 262.287L390.41 263.229C390.355 263.21 390.278 263.187 390.18 263.159C390.084 263.132 389.958 263.118 389.801 263.118C389.441 263.118 389.181 263.209 389.021 263.39C388.864 263.572 388.785 263.838 388.785 264.189V272H387.696ZM396.289 269.101V264.909H397.379V272H396.289V270.8H396.215C396.049 271.16 395.791 271.466 395.44 271.718C395.089 271.968 394.646 272.092 394.11 272.092C393.667 272.092 393.273 271.995 392.928 271.801C392.584 271.605 392.313 271.309 392.116 270.915C391.919 270.518 391.82 270.018 391.82 269.415V264.909H392.91V269.341C392.91 269.858 393.055 270.27 393.344 270.578C393.636 270.886 394.009 271.04 394.461 271.04C394.732 271.04 395.007 270.971 395.287 270.832C395.571 270.694 395.807 270.481 395.998 270.195C396.192 269.909 396.289 269.544 396.289 269.101ZM400.384 267.734V272H399.294V264.909H400.347V266.017H400.439C400.605 265.657 400.858 265.368 401.196 265.149C401.535 264.928 401.972 264.817 402.507 264.817C402.987 264.817 403.407 264.915 403.767 265.112C404.128 265.306 404.408 265.602 404.608 265.999C404.808 266.393 404.908 266.891 404.908 267.494V272H403.818V267.568C403.818 267.011 403.674 266.577 403.384 266.266C403.095 265.952 402.698 265.795 402.193 265.795C401.845 265.795 401.535 265.871 401.261 266.022C400.99 266.172 400.776 266.393 400.619 266.682C400.462 266.971 400.384 267.322 400.384 267.734ZM409.496 272.148C408.905 272.148 408.384 271.998 407.931 271.7C407.479 271.398 407.125 270.974 406.869 270.426C406.614 269.875 406.486 269.224 406.486 268.473C406.486 267.728 406.614 267.082 406.869 266.534C407.125 265.986 407.48 265.563 407.936 265.265C408.391 264.966 408.918 264.817 409.515 264.817C409.976 264.817 410.341 264.894 410.609 265.048C410.88 265.198 411.086 265.371 411.227 265.565C411.372 265.755 411.484 265.912 411.564 266.036H411.657V262.545H412.746V272H411.694V270.911H411.564C411.484 271.04 411.37 271.203 411.223 271.4C411.075 271.594 410.864 271.768 410.59 271.922C410.316 272.072 409.952 272.148 409.496 272.148ZM409.644 271.169C410.081 271.169 410.45 271.055 410.752 270.827C411.053 270.597 411.283 270.278 411.44 269.872C411.597 269.462 411.675 268.99 411.675 268.455C411.675 267.925 411.598 267.462 411.444 267.065C411.29 266.665 411.063 266.354 410.761 266.132C410.459 265.908 410.087 265.795 409.644 265.795C409.182 265.795 408.798 265.914 408.49 266.151C408.185 266.385 407.956 266.703 407.802 267.107C407.651 267.507 407.576 267.956 407.576 268.455C407.576 268.959 407.653 269.418 407.807 269.83C407.963 270.24 408.194 270.566 408.499 270.809C408.807 271.049 409.188 271.169 409.644 271.169ZM418.537 272V262.545H421.731C422.473 262.545 423.079 262.679 423.55 262.947C424.024 263.212 424.375 263.57 424.603 264.023C424.831 264.475 424.944 264.98 424.944 265.537C424.944 266.094 424.831 266.6 424.603 267.056C424.378 267.511 424.03 267.874 423.56 268.145C423.089 268.413 422.485 268.547 421.75 268.547H419.46V267.531H421.713C422.221 267.531 422.629 267.444 422.936 267.268C423.244 267.093 423.467 266.856 423.606 266.557C423.747 266.256 423.818 265.915 423.818 265.537C423.818 265.158 423.747 264.82 423.606 264.521C423.467 264.223 423.243 263.989 422.932 263.82C422.621 263.647 422.208 263.561 421.694 263.561H419.682V272H418.537ZM426.561 272V264.909H427.614V265.98H427.687C427.817 265.629 428.051 265.345 428.389 265.126C428.728 264.908 429.109 264.798 429.534 264.798C429.614 264.798 429.714 264.8 429.834 264.803C429.954 264.806 430.045 264.811 430.106 264.817V265.925C430.07 265.915 429.985 265.902 429.853 265.883C429.723 265.862 429.586 265.851 429.442 265.851C429.097 265.851 428.789 265.923 428.518 266.068C428.251 266.209 428.038 266.406 427.881 266.659C427.727 266.908 427.651 267.193 427.651 267.513V272H426.561ZM433.983 272.148C433.343 272.148 432.781 271.995 432.298 271.691C431.818 271.386 431.442 270.96 431.171 270.412C430.904 269.864 430.77 269.224 430.77 268.491C430.77 267.753 430.904 267.108 431.171 266.557C431.442 266.006 431.818 265.578 432.298 265.274C432.781 264.969 433.343 264.817 433.983 264.817C434.623 264.817 435.183 264.969 435.663 265.274C436.146 265.578 436.522 266.006 436.79 266.557C437.06 267.108 437.196 267.753 437.196 268.491C437.196 269.224 437.06 269.864 436.79 270.412C436.522 270.96 436.146 271.386 435.663 271.691C435.183 271.995 434.623 272.148 433.983 272.148ZM433.983 271.169C434.469 271.169 434.869 271.044 435.183 270.795C435.497 270.546 435.729 270.218 435.88 269.812C436.031 269.406 436.106 268.965 436.106 268.491C436.106 268.018 436.031 267.576 435.88 267.167C435.729 266.757 435.497 266.426 435.183 266.174C434.869 265.922 434.469 265.795 433.983 265.795C433.497 265.795 433.096 265.922 432.783 266.174C432.469 266.426 432.236 266.757 432.085 267.167C431.935 267.576 431.859 268.018 431.859 268.491C431.859 268.965 431.935 269.406 432.085 269.812C432.236 270.218 432.469 270.546 432.783 270.795C433.096 271.044 433.497 271.169 433.983 271.169ZM441.66 272.148C440.995 272.148 440.422 271.991 439.942 271.677C439.462 271.363 439.093 270.931 438.834 270.38C438.576 269.829 438.447 269.199 438.447 268.491C438.447 267.771 438.579 267.136 438.844 266.585C439.111 266.031 439.484 265.598 439.961 265.288C440.441 264.974 441.001 264.817 441.641 264.817C442.14 264.817 442.589 264.909 442.989 265.094C443.389 265.278 443.717 265.537 443.972 265.869C444.228 266.202 444.386 266.589 444.448 267.033H443.359C443.275 266.71 443.091 266.423 442.805 266.174C442.521 265.922 442.14 265.795 441.66 265.795C441.235 265.795 440.863 265.906 440.542 266.128C440.225 266.346 439.978 266.656 439.799 267.056C439.624 267.453 439.536 267.919 439.536 268.455C439.536 269.002 439.622 269.479 439.795 269.886C439.97 270.292 440.216 270.607 440.533 270.832C440.853 271.057 441.229 271.169 441.66 271.169C441.943 271.169 442.2 271.12 442.431 271.021C442.661 270.923 442.857 270.781 443.017 270.597C443.177 270.412 443.291 270.19 443.359 269.932H444.448C444.386 270.35 444.234 270.727 443.991 271.063C443.751 271.395 443.432 271.66 443.035 271.857C442.641 272.051 442.183 272.148 441.66 272.148ZM448.934 272.148C448.25 272.148 447.661 271.997 447.166 271.695C446.673 271.391 446.293 270.966 446.025 270.421C445.761 269.873 445.628 269.236 445.628 268.51C445.628 267.784 445.761 267.143 446.025 266.589C446.293 266.032 446.665 265.598 447.142 265.288C447.623 264.974 448.183 264.817 448.823 264.817C449.192 264.817 449.557 264.878 449.917 265.001C450.277 265.125 450.605 265.325 450.9 265.602C451.196 265.875 451.431 266.239 451.607 266.691C451.782 267.143 451.87 267.701 451.87 268.362V268.824H446.404V267.882H450.762C450.762 267.482 450.682 267.125 450.522 266.811C450.365 266.497 450.14 266.249 449.848 266.068C449.558 265.886 449.217 265.795 448.823 265.795C448.389 265.795 448.013 265.903 447.696 266.119C447.383 266.331 447.141 266.608 446.972 266.95C446.802 267.291 446.718 267.657 446.718 268.048V268.676C446.718 269.212 446.81 269.666 446.995 270.038C447.183 270.407 447.443 270.689 447.775 270.883C448.107 271.074 448.494 271.169 448.934 271.169C449.22 271.169 449.478 271.129 449.709 271.049C449.943 270.966 450.145 270.843 450.314 270.68C450.483 270.513 450.614 270.307 450.706 270.061L451.759 270.357C451.648 270.714 451.462 271.027 451.2 271.298C450.939 271.566 450.616 271.775 450.231 271.926C449.846 272.074 449.414 272.148 448.934 272.148ZM458.47 266.497L457.491 266.774C457.43 266.611 457.339 266.453 457.219 266.299C457.102 266.142 456.942 266.012 456.739 265.911C456.536 265.809 456.275 265.759 455.958 265.759C455.524 265.759 455.163 265.859 454.874 266.059C454.587 266.256 454.444 266.506 454.444 266.811C454.444 267.082 454.543 267.296 454.74 267.453C454.937 267.61 455.244 267.741 455.663 267.845L456.716 268.104C457.35 268.258 457.822 268.493 458.133 268.81C458.444 269.124 458.599 269.529 458.599 270.024C458.599 270.43 458.482 270.794 458.248 271.114C458.017 271.434 457.694 271.686 457.279 271.871C456.863 272.055 456.38 272.148 455.829 272.148C455.106 272.148 454.507 271.991 454.033 271.677C453.559 271.363 453.259 270.904 453.133 270.301L454.167 270.043C454.266 270.424 454.452 270.71 454.726 270.901C455.003 271.092 455.364 271.188 455.811 271.188C456.319 271.188 456.722 271.08 457.02 270.864C457.322 270.646 457.473 270.384 457.473 270.08C457.473 269.833 457.386 269.627 457.214 269.461C457.042 269.292 456.777 269.165 456.42 269.082L455.238 268.805C454.589 268.652 454.112 268.413 453.807 268.09C453.506 267.764 453.355 267.356 453.355 266.866C453.355 266.466 453.467 266.112 453.692 265.805C453.919 265.497 454.229 265.255 454.62 265.08C455.014 264.904 455.46 264.817 455.958 264.817C456.66 264.817 457.211 264.971 457.611 265.278C458.014 265.586 458.301 265.992 458.47 266.497ZM465.182 266.497L464.203 266.774C464.142 266.611 464.051 266.453 463.931 266.299C463.814 266.142 463.654 266.012 463.451 265.911C463.247 265.809 462.987 265.759 462.67 265.759C462.236 265.759 461.875 265.859 461.586 266.059C461.299 266.256 461.156 266.506 461.156 266.811C461.156 267.082 461.255 267.296 461.452 267.453C461.649 267.61 461.956 267.741 462.375 267.845L463.428 268.104C464.062 268.258 464.534 268.493 464.845 268.81C465.156 269.124 465.311 269.529 465.311 270.024C465.311 270.43 465.194 270.794 464.96 271.114C464.729 271.434 464.406 271.686 463.991 271.871C463.575 272.055 463.092 272.148 462.541 272.148C461.818 272.148 461.219 271.991 460.745 271.677C460.271 271.363 459.971 270.904 459.845 270.301L460.879 270.043C460.978 270.424 461.164 270.71 461.438 270.901C461.715 271.092 462.076 271.188 462.523 271.188C463.031 271.188 463.434 271.08 463.732 270.864C464.034 270.646 464.185 270.384 464.185 270.08C464.185 269.833 464.098 269.627 463.926 269.461C463.754 269.292 463.489 269.165 463.132 269.082L461.95 268.805C461.301 268.652 460.824 268.413 460.519 268.09C460.218 267.764 460.067 267.356 460.067 266.866C460.067 266.466 460.179 266.112 460.404 265.805C460.631 265.497 460.941 265.255 461.332 265.08C461.726 264.904 462.172 264.817 462.67 264.817C463.372 264.817 463.923 264.971 464.323 265.278C464.726 265.586 465.013 265.992 465.182 266.497ZM469.844 272.148C469.161 272.148 468.571 271.997 468.076 271.695C467.584 271.391 467.203 270.966 466.936 270.421C466.671 269.873 466.539 269.236 466.539 268.51C466.539 267.784 466.671 267.143 466.936 266.589C467.203 266.032 467.576 265.598 468.053 265.288C468.533 264.974 469.093 264.817 469.733 264.817C470.103 264.817 470.467 264.878 470.827 265.001C471.187 265.125 471.515 265.325 471.811 265.602C472.106 265.875 472.342 266.239 472.517 266.691C472.692 267.143 472.78 267.701 472.78 268.362V268.824H467.314V267.882H471.672C471.672 267.482 471.592 267.125 471.432 266.811C471.275 266.497 471.051 266.249 470.758 266.068C470.469 265.886 470.127 265.795 469.733 265.795C469.299 265.795 468.924 265.903 468.607 266.119C468.293 266.331 468.051 266.608 467.882 266.95C467.713 267.291 467.628 267.657 467.628 268.048V268.676C467.628 269.212 467.72 269.666 467.905 270.038C468.093 270.407 468.353 270.689 468.685 270.883C469.018 271.074 469.404 271.169 469.844 271.169C470.13 271.169 470.389 271.129 470.62 271.049C470.854 270.966 471.055 270.843 471.224 270.68C471.394 270.513 471.524 270.307 471.617 270.061L472.669 270.357C472.559 270.714 472.372 271.027 472.111 271.298C471.849 271.566 471.526 271.775 471.141 271.926C470.757 272.074 470.324 272.148 469.844 272.148ZM477.035 272.148C476.444 272.148 475.922 271.998 475.47 271.7C475.018 271.398 474.664 270.974 474.408 270.426C474.153 269.875 474.025 269.224 474.025 268.473C474.025 267.728 474.153 267.082 474.408 266.534C474.664 265.986 475.019 265.563 475.475 265.265C475.93 264.966 476.456 264.817 477.053 264.817C477.515 264.817 477.88 264.894 478.148 265.048C478.418 265.198 478.625 265.371 478.766 265.565C478.911 265.755 479.023 265.912 479.103 266.036H479.196V262.545H480.285V272H479.232V270.911H479.103C479.023 271.04 478.909 271.203 478.762 271.4C478.614 271.594 478.403 271.768 478.129 271.922C477.855 272.072 477.491 272.148 477.035 272.148ZM477.183 271.169C477.62 271.169 477.989 271.055 478.291 270.827C478.592 270.597 478.822 270.278 478.979 269.872C479.136 269.462 479.214 268.99 479.214 268.455C479.214 267.925 479.137 267.462 478.983 267.065C478.829 266.665 478.602 266.354 478.3 266.132C477.998 265.908 477.626 265.795 477.183 265.795C476.721 265.795 476.336 265.914 476.029 266.151C475.724 266.385 475.495 266.703 475.341 267.107C475.19 267.507 475.115 267.956 475.115 268.455C475.115 268.959 475.192 269.418 475.345 269.83C475.502 270.24 475.733 270.566 476.038 270.809C476.346 271.049 476.727 271.169 477.183 271.169Z" fill="white"/>
<path d="M235.608 245.5C235.506 245.189 235.373 244.911 235.206 244.664C235.043 244.415 234.848 244.203 234.62 244.027C234.395 243.852 234.14 243.718 233.854 243.626C233.567 243.533 233.254 243.487 232.912 243.487C232.352 243.487 231.842 243.632 231.384 243.921C230.925 244.21 230.561 244.637 230.29 245.2C230.019 245.763 229.884 246.454 229.884 247.273C229.884 248.091 230.02 248.782 230.294 249.346C230.568 249.909 230.939 250.335 231.407 250.624C231.875 250.914 232.401 251.058 232.986 251.058C233.527 251.058 234.004 250.943 234.417 250.712C234.832 250.478 235.156 250.149 235.386 249.724C235.62 249.296 235.737 248.793 235.737 248.214L236.088 248.288H233.244V247.273H236.845V248.288C236.845 249.067 236.679 249.744 236.347 250.32C236.017 250.895 235.562 251.341 234.98 251.658C234.402 251.972 233.737 252.129 232.986 252.129C232.149 252.129 231.413 251.932 230.779 251.538C230.148 251.144 229.656 250.584 229.302 249.858C228.951 249.132 228.776 248.27 228.776 247.273C228.776 246.525 228.876 245.852 229.076 245.255C229.279 244.655 229.565 244.144 229.934 243.723C230.304 243.301 230.741 242.978 231.245 242.753C231.75 242.529 232.306 242.416 232.912 242.416C233.411 242.416 233.875 242.492 234.306 242.642C234.74 242.79 235.126 243.001 235.465 243.275C235.806 243.546 236.091 243.87 236.319 244.249C236.547 244.624 236.704 245.041 236.79 245.5H235.608ZM238.728 242.545H240.094L243.308 250.393H243.418L246.631 242.545H247.998V252H246.927V244.817H246.835L243.88 252H242.846L239.891 244.817H239.799V252H238.728V242.545ZM250.603 252H249.403L252.875 242.545H254.056L257.528 252H256.328L253.502 244.041H253.429L250.603 252ZM251.046 248.307H255.884V249.322H251.046V248.307ZM260.067 242.545V252H258.923V242.545H260.067ZM262.285 252V242.545H263.43V250.984H267.825V252H262.285Z" fill="white" style="mix-blend-mode:overlay"/>
<path d="M235.608 245.5C235.506 245.189 235.373 244.911 235.206 244.664C235.043 244.415 234.848 244.203 234.62 244.027C234.395 243.852 234.14 243.718 233.854 243.626C233.567 243.533 233.254 243.487 232.912 243.487C232.352 243.487 231.842 243.632 231.384 243.921C230.925 244.21 230.561 244.637 230.29 245.2C230.019 245.763 229.884 246.454 229.884 247.273C229.884 248.091 230.02 248.782 230.294 249.346C230.568 249.909 230.939 250.335 231.407 250.624C231.875 250.914 232.401 251.058 232.986 251.058C233.527 251.058 234.004 250.943 234.417 250.712C234.832 250.478 235.156 250.149 235.386 249.724C235.62 249.296 235.737 248.793 235.737 248.214L236.088 248.288H233.244V247.273H236.845V248.288C236.845 249.067 236.679 249.744 236.347 250.32C236.017 250.895 235.562 251.341 234.98 251.658C234.402 251.972 233.737 252.129 232.986 252.129C232.149 252.129 231.413 251.932 230.779 251.538C230.148 251.144 229.656 250.584 229.302 249.858C228.951 249.132 228.776 248.27 228.776 247.273C228.776 246.525 228.876 245.852 229.076 245.255C229.279 244.655 229.565 244.144 229.934 243.723C230.304 243.301 230.741 242.978 231.245 242.753C231.75 242.529 232.306 242.416 232.912 242.416C233.411 242.416 233.875 242.492 234.306 242.642C234.74 242.79 235.126 243.001 235.465 243.275C235.806 243.546 236.091 243.87 236.319 244.249C236.547 244.624 236.704 245.041 236.79 245.5H235.608ZM238.728 242.545H240.094L243.308 250.393H243.418L246.631 242.545H247.998V252H246.927V244.817H246.835L243.88 252H242.846L239.891 244.817H239.799V252H238.728V242.545ZM250.603 252H249.403L252.875 242.545H254.056L257.528 252H256.328L253.502 244.041H253.429L250.603 252ZM251.046 248.307H255.884V249.322H251.046V248.307ZM260.067 242.545V252H258.923V242.545H260.067ZM262.285 252V242.545H263.43V250.984H267.825V252H262.285Z" fill="white" fill-opacity="0.36"/>
<path d="M229.145 186V176.545H232.45C233.109 176.545 233.652 176.659 234.08 176.887C234.508 177.112 234.826 177.415 235.036 177.797C235.245 178.175 235.349 178.595 235.349 179.057C235.349 179.463 235.277 179.799 235.132 180.063C234.991 180.328 234.803 180.537 234.569 180.691C234.338 180.845 234.088 180.959 233.817 181.033V181.125C234.106 181.143 234.397 181.245 234.689 181.43C234.982 181.614 235.226 181.879 235.423 182.224C235.62 182.568 235.719 182.99 235.719 183.489C235.719 183.963 235.611 184.389 235.396 184.767C235.18 185.146 234.84 185.446 234.375 185.668C233.911 185.889 233.306 186 232.561 186H229.145ZM230.29 184.984H232.561C233.309 184.984 233.84 184.84 234.154 184.55C234.471 184.258 234.629 183.904 234.629 183.489C234.629 183.169 234.548 182.873 234.385 182.602C234.221 182.328 233.989 182.11 233.688 181.947C233.386 181.781 233.029 181.697 232.616 181.697H230.29V184.984ZM230.29 180.7H232.413C232.758 180.7 233.069 180.633 233.346 180.497C233.626 180.362 233.848 180.171 234.011 179.925C234.177 179.679 234.26 179.389 234.26 179.057C234.26 178.641 234.115 178.289 233.826 178C233.537 177.707 233.078 177.561 232.45 177.561H230.29V180.7ZM237.91 186H236.709L240.181 176.545H241.363L244.834 186H243.634L240.809 178.041H240.735L237.91 186ZM238.353 182.307H243.191V183.322H238.353V182.307ZM253.726 176.545V186H252.618L247.466 178.577H247.374V186H246.229V176.545H247.337L252.508 183.987H252.6V176.545H253.726ZM255.939 186V176.545H257.084V181.236H257.195L261.442 176.545H262.938L258.968 180.811L262.938 186H261.553L258.266 181.605L257.084 182.935V186H255.939ZM275.897 181.273C275.897 182.27 275.717 183.132 275.357 183.858C274.997 184.584 274.503 185.144 273.875 185.538C273.247 185.932 272.53 186.129 271.724 186.129C270.918 186.129 270.2 185.932 269.573 185.538C268.945 185.144 268.451 184.584 268.091 183.858C267.731 183.132 267.551 182.27 267.551 181.273C267.551 180.276 267.731 179.414 268.091 178.688C268.451 177.961 268.945 177.401 269.573 177.007C270.2 176.613 270.918 176.416 271.724 176.416C272.53 176.416 273.247 176.613 273.875 177.007C274.503 177.401 274.997 177.961 275.357 178.688C275.717 179.414 275.897 180.276 275.897 181.273ZM274.789 181.273C274.789 180.454 274.652 179.763 274.378 179.2C274.108 178.637 273.74 178.21 273.275 177.921C272.813 177.632 272.296 177.487 271.724 177.487C271.151 177.487 270.633 177.632 270.168 177.921C269.707 178.21 269.339 178.637 269.065 179.2C268.794 179.763 268.659 180.454 268.659 181.273C268.659 182.091 268.794 182.782 269.065 183.346C269.339 183.909 269.707 184.335 270.168 184.624C270.633 184.914 271.151 185.058 271.724 185.058C272.296 185.058 272.813 184.914 273.275 184.624C273.74 184.335 274.108 183.909 274.378 183.346C274.652 182.782 274.789 182.091 274.789 181.273ZM277.744 186V176.545H283.413V177.561H278.889V180.756H282.989V181.771H278.889V186H277.744ZM289.262 186H288.062L291.533 176.545H292.715L296.187 186H294.987L292.161 178.041H292.087L289.262 186ZM289.705 182.307H294.543V183.322H289.705V182.307ZM297.582 176.545H298.948L302.161 184.393H302.272L305.485 176.545H306.851V186H305.78V178.817H305.688L302.734 186H301.699L298.745 178.817H298.653V186H297.582V176.545ZM309.069 186V176.545H314.775V177.561H310.214V180.756H314.48V181.771H310.214V184.984H314.849V186H309.069ZM316.761 186V176.545H319.955C320.694 176.545 321.3 176.672 321.774 176.924C322.248 177.173 322.599 177.516 322.827 177.953C323.054 178.391 323.168 178.888 323.168 179.445C323.168 180.002 323.054 180.496 322.827 180.926C322.599 181.357 322.25 181.696 321.779 181.942C321.308 182.185 320.706 182.307 319.974 182.307H317.388V181.273H319.937C320.441 181.273 320.848 181.199 321.155 181.051C321.466 180.903 321.691 180.694 321.829 180.423C321.971 180.149 322.042 179.823 322.042 179.445C322.042 179.066 321.971 178.735 321.829 178.452C321.688 178.169 321.462 177.95 321.151 177.797C320.84 177.64 320.429 177.561 319.918 177.561H317.905V186H316.761ZM321.211 181.753L323.538 186H322.208L319.918 181.753H321.211ZM326.143 176.545V186H324.998V176.545H326.143ZM335.968 179.5H334.823C334.756 179.171 334.637 178.881 334.468 178.632C334.302 178.383 334.099 178.174 333.859 178.004C333.622 177.832 333.358 177.703 333.069 177.616C332.78 177.53 332.478 177.487 332.164 177.487C331.592 177.487 331.073 177.632 330.609 177.921C330.147 178.21 329.779 178.637 329.505 179.2C329.234 179.763 329.099 180.454 329.099 181.273C329.099 182.091 329.234 182.782 329.505 183.346C329.779 183.909 330.147 184.335 330.609 184.624C331.073 184.914 331.592 185.058 332.164 185.058C332.478 185.058 332.78 185.015 333.069 184.929C333.358 184.843 333.622 184.715 333.859 184.546C334.099 184.373 334.302 184.163 334.468 183.913C334.637 183.661 334.756 183.372 334.823 183.045H335.968C335.882 183.529 335.725 183.961 335.497 184.343C335.27 184.724 334.987 185.049 334.648 185.317C334.309 185.581 333.929 185.783 333.508 185.922C333.089 186.06 332.641 186.129 332.164 186.129C331.358 186.129 330.641 185.932 330.013 185.538C329.385 185.144 328.891 184.584 328.531 183.858C328.171 183.132 327.991 182.27 327.991 181.273C327.991 180.276 328.171 179.414 328.531 178.688C328.891 177.961 329.385 177.401 330.013 177.007C330.641 176.613 331.358 176.416 332.164 176.416C332.641 176.416 333.089 176.485 333.508 176.624C333.929 176.762 334.309 176.966 334.648 177.233C334.987 177.498 335.27 177.821 335.497 178.203C335.725 178.581 335.882 179.014 335.968 179.5ZM338.128 186H336.928L340.399 176.545H341.581L345.053 186H343.853L341.027 178.041H340.953L338.128 186ZM338.571 182.307H343.409V183.322H338.571V182.307Z" fill="white" style="mix-blend-mode:overlay"/>
<path d="M229.145 186V176.545H232.45C233.109 176.545 233.652 176.659 234.08 176.887C234.508 177.112 234.826 177.415 235.036 177.797C235.245 178.175 235.349 178.595 235.349 179.057C235.349 179.463 235.277 179.799 235.132 180.063C234.991 180.328 234.803 180.537 234.569 180.691C234.338 180.845 234.088 180.959 233.817 181.033V181.125C234.106 181.143 234.397 181.245 234.689 181.43C234.982 181.614 235.226 181.879 235.423 182.224C235.62 182.568 235.719 182.99 235.719 183.489C235.719 183.963 235.611 184.389 235.396 184.767C235.18 185.146 234.84 185.446 234.375 185.668C233.911 185.889 233.306 186 232.561 186H229.145ZM230.29 184.984H232.561C233.309 184.984 233.84 184.84 234.154 184.55C234.471 184.258 234.629 183.904 234.629 183.489C234.629 183.169 234.548 182.873 234.385 182.602C234.221 182.328 233.989 182.11 233.688 181.947C233.386 181.781 233.029 181.697 232.616 181.697H230.29V184.984ZM230.29 180.7H232.413C232.758 180.7 233.069 180.633 233.346 180.497C233.626 180.362 233.848 180.171 234.011 179.925C234.177 179.679 234.26 179.389 234.26 179.057C234.26 178.641 234.115 178.289 233.826 178C233.537 177.707 233.078 177.561 232.45 177.561H230.29V180.7ZM237.91 186H236.709L240.181 176.545H241.363L244.834 186H243.634L240.809 178.041H240.735L237.91 186ZM238.353 182.307H243.191V183.322H238.353V182.307ZM253.726 176.545V186H252.618L247.466 178.577H247.374V186H246.229V176.545H247.337L252.508 183.987H252.6V176.545H253.726ZM255.939 186V176.545H257.084V181.236H257.195L261.442 176.545H262.938L258.968 180.811L262.938 186H261.553L258.266 181.605L257.084 182.935V186H255.939ZM275.897 181.273C275.897 182.27 275.717 183.132 275.357 183.858C274.997 184.584 274.503 185.144 273.875 185.538C273.247 185.932 272.53 186.129 271.724 186.129C270.918 186.129 270.2 185.932 269.573 185.538C268.945 185.144 268.451 184.584 268.091 183.858C267.731 183.132 267.551 182.27 267.551 181.273C267.551 180.276 267.731 179.414 268.091 178.688C268.451 177.961 268.945 177.401 269.573 177.007C270.2 176.613 270.918 176.416 271.724 176.416C272.53 176.416 273.247 176.613 273.875 177.007C274.503 177.401 274.997 177.961 275.357 178.688C275.717 179.414 275.897 180.276 275.897 181.273ZM274.789 181.273C274.789 180.454 274.652 179.763 274.378 179.2C274.108 178.637 273.74 178.21 273.275 177.921C272.813 177.632 272.296 177.487 271.724 177.487C271.151 177.487 270.633 177.632 270.168 177.921C269.707 178.21 269.339 178.637 269.065 179.2C268.794 179.763 268.659 180.454 268.659 181.273C268.659 182.091 268.794 182.782 269.065 183.346C269.339 183.909 269.707 184.335 270.168 184.624C270.633 184.914 271.151 185.058 271.724 185.058C272.296 185.058 272.813 184.914 273.275 184.624C273.74 184.335 274.108 183.909 274.378 183.346C274.652 182.782 274.789 182.091 274.789 181.273ZM277.744 186V176.545H283.413V177.561H278.889V180.756H282.989V181.771H278.889V186H277.744ZM289.262 186H288.062L291.533 176.545H292.715L296.187 186H294.987L292.161 178.041H292.087L289.262 186ZM289.705 182.307H294.543V183.322H289.705V182.307ZM297.582 176.545H298.948L302.161 184.393H302.272L305.485 176.545H306.851V186H305.78V178.817H305.688L302.734 186H301.699L298.745 178.817H298.653V186H297.582V176.545ZM309.069 186V176.545H314.775V177.561H310.214V180.756H314.48V181.771H310.214V184.984H314.849V186H309.069ZM316.761 186V176.545H319.955C320.694 176.545 321.3 176.672 321.774 176.924C322.248 177.173 322.599 177.516 322.827 177.953C323.054 178.391 323.168 178.888 323.168 179.445C323.168 180.002 323.054 180.496 322.827 180.926C322.599 181.357 322.25 181.696 321.779 181.942C321.308 182.185 320.706 182.307 319.974 182.307H317.388V181.273H319.937C320.441 181.273 320.848 181.199 321.155 181.051C321.466 180.903 321.691 180.694 321.829 180.423C321.971 180.149 322.042 179.823 322.042 179.445C322.042 179.066 321.971 178.735 321.829 178.452C321.688 178.169 321.462 177.95 321.151 177.797C320.84 177.64 320.429 177.561 319.918 177.561H317.905V186H316.761ZM321.211 181.753L323.538 186H322.208L319.918 181.753H321.211ZM326.143 176.545V186H324.998V176.545H326.143ZM335.968 179.5H334.823C334.756 179.171 334.637 178.881 334.468 178.632C334.302 178.383 334.099 178.174 333.859 178.004C333.622 177.832 333.358 177.703 333.069 177.616C332.78 177.53 332.478 177.487 332.164 177.487C331.592 177.487 331.073 177.632 330.609 177.921C330.147 178.21 329.779 178.637 329.505 179.2C329.234 179.763 329.099 180.454 329.099 181.273C329.099 182.091 329.234 182.782 329.505 183.346C329.779 183.909 330.147 184.335 330.609 184.624C331.073 184.914 331.592 185.058 332.164 185.058C332.478 185.058 332.78 185.015 333.069 184.929C333.358 184.843 333.622 184.715 333.859 184.546C334.099 184.373 334.302 184.163 334.468 183.913C334.637 183.661 334.756 183.372 334.823 183.045H335.968C335.882 183.529 335.725 183.961 335.497 184.343C335.27 184.724 334.987 185.049 334.648 185.317C334.309 185.581 333.929 185.783 333.508 185.922C333.089 186.06 332.641 186.129 332.164 186.129C331.358 186.129 330.641 185.932 330.013 185.538C329.385 185.144 328.891 184.584 328.531 183.858C328.171 183.132 327.991 182.27 327.991 181.273C327.991 180.276 328.171 179.414 328.531 178.688C328.891 177.961 329.385 177.401 330.013 177.007C330.641 176.613 331.358 176.416 332.164 176.416C332.641 176.416 333.089 176.485 333.508 176.624C333.929 176.762 334.309 176.966 334.648 177.233C334.987 177.498 335.27 177.821 335.497 178.203C335.725 178.581 335.882 179.014 335.968 179.5ZM338.128 186H336.928L340.399 176.545H341.581L345.053 186H343.853L341.027 178.041H340.953L338.128 186ZM338.571 182.307H343.409V183.322H338.571V182.307Z" fill="white" fill-opacity="0.36"/>
<defs>
<filter id="filter0_b_947_3390" x="90" y="82" width="515" height="218" filterUnits="userSpaceOnUse" color-interpolation-filters="sRGB">
<feFlood flood-opacity="0" result="BackgroundImageFix"/>
<feGaussianBlur in="BackgroundImageFix" stdDeviation="40"/>
<feComposite in2="SourceAlpha" operator="in" result="effect1_backgroundBlur_947_3390"/>
<feBlend mode="normal" in="SourceGraphic" in2="effect1_backgroundBlur_947_3390" result="shape"/>
</filter>
<filter id="filter1_b_947_3390" x="90" y="148" width="515" height="218" filterUnits="userSpaceOnUse" color-interpolation-filters="sRGB">
<feFlood flood-opacity="0" result="BackgroundImageFix"/>
<feGaussianBlur in="BackgroundImageFix" stdDeviation="40"/>
<feComposite in2="SourceAlpha" operator="in" result="effect1_backgroundBlur_947_3390"/>
<feBlend mode="normal" in="SourceGraphic" in2="effect1_backgroundBlur_947_3390" result="shape"/>
</filter>
</defs>
</svg>
