<svg width="696" height="448" viewBox="0 0 696 448" fill="none" xmlns="http://www.w3.org/2000/svg">
<rect width="696" height="448" fill="#F3F3F3"/>
<rect x="176" y="132" width="344" height="184" rx="4" fill="white"/>
<path d="M280 229L288.932 198.685L294.674 218.067L302.967 212.6L311.899 216.079L323.383 177.315L329.763 190.733L338.694 157.933L346.35 172.842L359.11 170.358L376.973 194.212L391.009 163.897L405.682 177.315L419.718 151.97L446.513 202.661L458.635 170.358L468.843 177.315L483.516 147L495 170.358" stroke="#C5221F" stroke-width="2" stroke-linecap="round" stroke-linejoin="round"/>
<rect x="185" y="138" width="196" height="101" fill="url(#paint0_linear_942_431)"/>
<rect x="176" y="244" width="344" height="1" fill="#E7E7E7"/>
<path d="M196.517 154.981V153.545H204.06V154.981H201.138V163H199.439V154.981H196.517ZM205.515 163V153.545H207.227V157.548H211.608V153.545H213.326V163H211.608V158.984H207.227V163H205.515ZM216.901 153.545V163H215.188V153.545H216.901ZM223.894 156.145C223.851 155.741 223.669 155.427 223.349 155.203C223.032 154.978 222.62 154.866 222.112 154.866C221.755 154.866 221.449 154.92 221.193 155.027C220.938 155.135 220.742 155.281 220.607 155.466C220.472 155.651 220.402 155.861 220.399 156.098C220.399 156.295 220.444 156.466 220.533 156.611C220.625 156.755 220.75 156.879 220.907 156.98C221.064 157.079 221.238 157.162 221.429 157.229C221.62 157.297 221.812 157.354 222.006 157.4L222.892 157.622C223.249 157.705 223.592 157.817 223.922 157.959C224.254 158.1 224.551 158.279 224.813 158.494C225.077 158.71 225.287 158.97 225.44 159.275C225.594 159.579 225.671 159.936 225.671 160.346C225.671 160.9 225.53 161.387 225.247 161.809C224.963 162.228 224.554 162.555 224.019 162.792C223.486 163.026 222.841 163.143 222.084 163.143C221.349 163.143 220.71 163.029 220.168 162.801C219.63 162.574 219.208 162.241 218.903 161.804C218.602 161.367 218.439 160.835 218.414 160.207H220.099C220.124 160.536 220.225 160.81 220.404 161.029C220.582 161.247 220.815 161.41 221.101 161.518C221.39 161.626 221.713 161.68 222.07 161.68C222.443 161.68 222.769 161.624 223.049 161.513C223.332 161.4 223.554 161.243 223.714 161.043C223.874 160.839 223.955 160.603 223.959 160.332C223.955 160.085 223.883 159.882 223.742 159.722C223.6 159.559 223.401 159.424 223.146 159.316C222.894 159.205 222.598 159.107 222.26 159.021L221.184 158.744C220.405 158.544 219.79 158.24 219.337 157.834C218.888 157.425 218.663 156.882 218.663 156.205C218.663 155.647 218.814 155.16 219.116 154.741C219.421 154.323 219.834 153.998 220.358 153.767C220.881 153.533 221.473 153.416 222.135 153.416C222.806 153.416 223.394 153.533 223.899 153.767C224.406 153.998 224.805 154.319 225.094 154.732C225.383 155.141 225.533 155.612 225.542 156.145H223.894ZM232.412 163L229.744 153.545H231.586L233.29 160.493H233.377L235.196 153.545H236.872L238.695 160.498H238.779L240.482 153.545H242.324L239.656 163H237.966L236.073 156.366H235.999L234.102 163H232.412ZM243.512 163V153.545H249.661V154.981H245.224V157.548H249.342V158.984H245.224V161.564H249.698V163H243.512ZM251.408 163V153.545H257.557V154.981H253.121V157.548H257.239V158.984H253.121V161.564H257.594V163H251.408ZM259.305 163V153.545H261.017V157.89H261.133L264.821 153.545H266.913L263.256 157.788L266.945 163H264.886L262.065 158.947L261.017 160.184V163H259.305Z" fill="#353535"/>
<path d="M199.887 182.182V170.364H200.644V182.182H199.887ZM202.071 174.145C202.028 173.741 201.846 173.427 201.526 173.203C201.209 172.978 200.797 172.866 200.289 172.866C199.932 172.866 199.625 172.92 199.37 173.027C199.115 173.135 198.919 173.281 198.784 173.466C198.648 173.651 198.579 173.861 198.576 174.098C198.576 174.295 198.621 174.466 198.71 174.611C198.802 174.755 198.927 174.879 199.084 174.98C199.241 175.079 199.415 175.162 199.605 175.229C199.796 175.297 199.989 175.354 200.183 175.4L201.069 175.622C201.426 175.705 201.769 175.817 202.098 175.959C202.431 176.1 202.728 176.279 202.989 176.494C203.254 176.71 203.463 176.97 203.617 177.275C203.771 177.579 203.848 177.936 203.848 178.346C203.848 178.9 203.706 179.387 203.423 179.809C203.14 180.228 202.731 180.555 202.195 180.792C201.663 181.026 201.018 181.143 200.261 181.143C199.525 181.143 198.887 181.029 198.345 180.801C197.807 180.574 197.385 180.241 197.08 179.804C196.779 179.367 196.616 178.835 196.591 178.207H198.276C198.301 178.536 198.402 178.81 198.581 179.029C198.759 179.247 198.991 179.41 199.278 179.518C199.567 179.626 199.89 179.68 200.247 179.68C200.62 179.68 200.946 179.624 201.226 179.513C201.509 179.4 201.731 179.243 201.891 179.043C202.051 178.839 202.132 178.603 202.135 178.332C202.132 178.085 202.06 177.882 201.918 177.722C201.777 177.559 201.578 177.424 201.323 177.316C201.07 177.205 200.775 177.107 200.436 177.021L199.361 176.744C198.582 176.544 197.967 176.24 197.514 175.834C197.065 175.425 196.84 174.882 196.84 174.205C196.84 173.647 196.991 173.16 197.293 172.741C197.597 172.323 198.011 171.998 198.534 171.767C199.058 171.533 199.65 171.416 200.312 171.416C200.983 171.416 201.571 171.533 202.075 171.767C202.583 171.998 202.982 172.319 203.271 172.732C203.56 173.141 203.71 173.612 203.719 174.145H202.071ZM208.945 181.129C208.493 181.126 208.051 181.048 207.62 180.894C207.189 180.737 206.801 180.483 206.457 180.132C206.112 179.778 205.838 179.309 205.635 178.724C205.432 178.136 205.332 177.408 205.335 176.54C205.335 175.731 205.421 175.009 205.593 174.375C205.766 173.741 206.013 173.206 206.337 172.769C206.66 172.329 207.049 171.993 207.505 171.762C207.963 171.532 208.476 171.416 209.042 171.416C209.636 171.416 210.162 171.533 210.621 171.767C211.082 172.001 211.455 172.321 211.738 172.727C212.021 173.13 212.196 173.586 212.264 174.094H210.579C210.493 173.731 210.316 173.441 210.048 173.226C209.784 173.007 209.448 172.898 209.042 172.898C208.386 172.898 207.882 173.183 207.528 173.752C207.177 174.321 207 175.103 206.997 176.097H207.061C207.212 175.826 207.408 175.594 207.648 175.4C207.888 175.206 208.159 175.057 208.46 174.952C208.765 174.845 209.087 174.791 209.425 174.791C209.979 174.791 210.476 174.923 210.916 175.188C211.359 175.453 211.71 175.817 211.969 176.282C212.227 176.744 212.355 177.273 212.352 177.87C212.355 178.492 212.213 179.05 211.927 179.546C211.641 180.038 211.242 180.426 210.732 180.709C210.221 180.992 209.625 181.132 208.945 181.129ZM208.936 179.744C209.271 179.744 209.571 179.663 209.836 179.5C210.101 179.337 210.31 179.116 210.464 178.839C210.618 178.562 210.693 178.252 210.69 177.907C210.693 177.568 210.619 177.262 210.468 176.988C210.321 176.714 210.116 176.497 209.854 176.337C209.593 176.177 209.294 176.097 208.959 176.097C208.709 176.097 208.477 176.145 208.262 176.24C208.046 176.336 207.859 176.468 207.698 176.637C207.538 176.804 207.412 176.998 207.32 177.219C207.231 177.438 207.185 177.672 207.181 177.921C207.185 178.25 207.261 178.553 207.412 178.83C207.563 179.107 207.771 179.329 208.035 179.495C208.3 179.661 208.6 179.744 208.936 179.744ZM217.395 171.416C217.847 171.419 218.287 171.499 218.715 171.656C219.146 171.81 219.534 172.062 219.878 172.413C220.223 172.761 220.497 173.227 220.7 173.812C220.903 174.397 221.005 175.12 221.005 175.982C221.008 176.794 220.922 177.521 220.746 178.161C220.574 178.798 220.326 179.337 220.003 179.777C219.68 180.217 219.29 180.552 218.835 180.783C218.379 181.014 217.867 181.129 217.298 181.129C216.701 181.129 216.171 181.012 215.71 180.778C215.251 180.545 214.88 180.224 214.597 179.818C214.314 179.412 214.14 178.947 214.075 178.424H215.76C215.847 178.799 216.022 179.098 216.287 179.32C216.554 179.538 216.891 179.647 217.298 179.647C217.953 179.647 218.458 179.363 218.812 178.793C219.166 178.224 219.343 177.433 219.343 176.42H219.278C219.127 176.691 218.932 176.925 218.692 177.122C218.452 177.316 218.179 177.465 217.875 177.57C217.573 177.675 217.253 177.727 216.914 177.727C216.36 177.727 215.862 177.595 215.419 177.33C214.979 177.065 214.629 176.702 214.371 176.24C214.115 175.779 213.986 175.251 213.983 174.657C213.983 174.041 214.125 173.489 214.408 173C214.694 172.507 215.093 172.119 215.603 171.836C216.114 171.55 216.711 171.41 217.395 171.416ZM217.399 172.801C217.067 172.801 216.767 172.883 216.499 173.046C216.234 173.206 216.025 173.424 215.871 173.701C215.72 173.975 215.645 174.281 215.645 174.62C215.648 174.955 215.723 175.26 215.871 175.534C216.022 175.808 216.227 176.025 216.485 176.185C216.747 176.345 217.045 176.425 217.381 176.425C217.63 176.425 217.862 176.377 218.078 176.282C218.293 176.187 218.481 176.054 218.641 175.885C218.804 175.713 218.93 175.517 219.02 175.299C219.112 175.08 219.157 174.849 219.153 174.606C219.153 174.283 219.077 173.984 218.923 173.711C218.772 173.437 218.564 173.217 218.299 173.05C218.038 172.884 217.738 172.801 217.399 172.801ZM226.237 181.18C225.476 181.18 224.824 180.988 224.279 180.603C223.738 180.215 223.321 179.657 223.028 178.927C222.739 178.195 222.594 177.313 222.594 176.282C222.597 175.251 222.743 174.374 223.033 173.651C223.325 172.924 223.742 172.37 224.284 171.989C224.829 171.607 225.48 171.416 226.237 171.416C226.994 171.416 227.645 171.607 228.189 171.989C228.734 172.37 229.151 172.924 229.44 173.651C229.733 174.377 229.879 175.254 229.879 176.282C229.879 177.316 229.733 178.199 229.44 178.932C229.151 179.661 228.734 180.218 228.189 180.603C227.648 180.988 226.997 181.18 226.237 181.18ZM226.237 179.735C226.828 179.735 227.294 179.444 227.635 178.863C227.98 178.278 228.152 177.418 228.152 176.282C228.152 175.531 228.074 174.9 227.917 174.389C227.76 173.878 227.538 173.494 227.252 173.235C226.966 172.973 226.627 172.843 226.237 172.843C225.649 172.843 225.184 173.135 224.842 173.72C224.501 174.301 224.328 175.156 224.325 176.282C224.322 177.036 224.398 177.67 224.552 178.184C224.709 178.698 224.93 179.086 225.216 179.347C225.503 179.606 225.843 179.735 226.237 179.735ZM233.155 178.775L233.15 176.757H233.418L235.966 173.909H237.919L234.784 177.399H234.438L233.155 178.775ZM231.631 181V171.545H233.302V181H231.631ZM236.082 181L233.773 177.773L234.9 176.596L238.081 181H236.082Z" fill="#979797"/>
<path d="M196.517 266.981V265.545H204.06V266.981H201.138V275H199.439V266.981H196.517ZM213.744 270.273C213.744 271.291 213.553 272.164 213.171 272.89C212.793 273.614 212.276 274.167 211.62 274.552C210.968 274.937 210.228 275.129 209.4 275.129C208.572 275.129 207.83 274.937 207.175 274.552C206.522 274.164 206.005 273.609 205.623 272.886C205.245 272.159 205.056 271.288 205.056 270.273C205.056 269.254 205.245 268.383 205.623 267.66C206.005 266.933 206.522 266.378 207.175 265.993C207.83 265.609 208.572 265.416 209.4 265.416C210.228 265.416 210.968 265.609 211.62 265.993C212.276 266.378 212.793 266.933 213.171 267.66C213.553 268.383 213.744 269.254 213.744 270.273ZM212.022 270.273C212.022 269.556 211.909 268.951 211.685 268.458C211.463 267.963 211.155 267.589 210.762 267.337C210.368 267.081 209.914 266.953 209.4 266.953C208.886 266.953 208.432 267.081 208.038 267.337C207.644 267.589 207.335 267.963 207.11 268.458C206.888 268.951 206.778 269.556 206.778 270.273C206.778 270.99 206.888 271.596 207.11 272.092C207.335 272.584 207.644 272.958 208.038 273.213C208.432 273.466 208.886 273.592 209.4 273.592C209.914 273.592 210.368 273.466 210.762 273.213C211.155 272.958 211.463 272.584 211.685 272.092C211.909 271.596 212.022 270.99 212.022 270.273ZM214.729 266.981V265.545H222.272V266.981H219.35V275H217.651V266.981H214.729ZM223.998 275H222.17L225.498 265.545H227.612L230.945 275H229.117L226.592 267.484H226.518L223.998 275ZM224.058 271.293H229.043V272.669H224.058V271.293ZM232.391 275V265.545H234.103V273.564H238.268V275H232.391ZM242.963 266.981V265.545H250.506V266.981H247.584V275H245.885V266.981H242.963ZM252.161 275V265.545H255.706C256.432 265.545 257.042 265.672 257.534 265.924C258.03 266.176 258.404 266.53 258.656 266.986C258.911 267.438 259.039 267.966 259.039 268.569C259.039 269.176 258.91 269.702 258.651 270.148C258.396 270.591 258.019 270.934 257.52 271.178C257.022 271.418 256.409 271.538 255.683 271.538H253.158V270.116H255.452C255.877 270.116 256.225 270.057 256.496 269.94C256.766 269.82 256.966 269.646 257.096 269.419C257.228 269.188 257.294 268.905 257.294 268.569C257.294 268.234 257.228 267.948 257.096 267.711C256.963 267.471 256.762 267.289 256.491 267.166C256.22 267.04 255.871 266.977 255.443 266.977H253.873V275H252.161ZM257.045 270.716L259.385 275H257.474L255.175 270.716H257.045ZM262.03 275H260.202L263.53 265.545H265.645L268.978 275H267.15L264.624 267.484H264.55L262.03 275ZM262.09 271.293H267.076V272.669H262.09V271.293ZM278.192 265.545V275H276.669L272.214 268.56H272.136V275H270.423V265.545H271.956L276.406 271.99H276.489V265.545H278.192ZM285.397 268.145C285.354 267.741 285.172 267.427 284.852 267.203C284.535 266.978 284.123 266.866 283.615 266.866C283.258 266.866 282.952 266.92 282.696 267.027C282.441 267.135 282.245 267.281 282.11 267.466C281.974 267.651 281.905 267.861 281.902 268.098C281.902 268.295 281.947 268.466 282.036 268.611C282.128 268.755 282.253 268.879 282.41 268.98C282.567 269.079 282.741 269.162 282.932 269.229C283.122 269.297 283.315 269.354 283.509 269.4L284.395 269.622C284.752 269.705 285.095 269.817 285.425 269.959C285.757 270.1 286.054 270.279 286.316 270.494C286.58 270.71 286.789 270.97 286.943 271.275C287.097 271.579 287.174 271.936 287.174 272.346C287.174 272.9 287.033 273.387 286.749 273.809C286.466 274.228 286.057 274.555 285.521 274.792C284.989 275.026 284.344 275.143 283.587 275.143C282.852 275.143 282.213 275.029 281.671 274.801C281.133 274.574 280.711 274.241 280.406 273.804C280.105 273.367 279.942 272.835 279.917 272.207H281.602C281.627 272.536 281.728 272.81 281.907 273.029C282.085 273.247 282.318 273.41 282.604 273.518C282.893 273.626 283.216 273.68 283.573 273.68C283.946 273.68 284.272 273.624 284.552 273.513C284.835 273.4 285.057 273.243 285.217 273.043C285.377 272.839 285.458 272.603 285.461 272.332C285.458 272.085 285.386 271.882 285.244 271.722C285.103 271.559 284.904 271.424 284.649 271.316C284.397 271.205 284.101 271.107 283.763 271.021L282.687 270.744C281.908 270.544 281.293 270.24 280.84 269.834C280.391 269.425 280.166 268.882 280.166 268.205C280.166 267.647 280.317 267.16 280.619 266.741C280.923 266.323 281.337 265.998 281.861 265.767C282.384 265.533 282.976 265.416 283.638 265.416C284.309 265.416 284.897 265.533 285.401 265.767C285.909 265.998 286.308 266.319 286.597 266.732C286.886 267.141 287.036 267.612 287.045 268.145H285.397ZM289.963 275H288.135L291.463 265.545H293.578L296.911 275H295.083L292.557 267.484H292.483L289.963 275ZM290.023 271.293H295.009V272.669H290.023V271.293ZM306.004 268.735H304.278C304.229 268.452 304.138 268.201 304.005 267.983C303.873 267.761 303.708 267.574 303.511 267.42C303.314 267.266 303.09 267.15 302.837 267.074C302.588 266.993 302.319 266.953 302.03 266.953C301.516 266.953 301.06 267.083 300.663 267.341C300.266 267.597 299.955 267.972 299.731 268.468C299.506 268.96 299.394 269.562 299.394 270.273C299.394 270.996 299.506 271.605 299.731 272.101C299.958 272.593 300.269 272.966 300.663 273.218C301.06 273.467 301.514 273.592 302.025 273.592C302.308 273.592 302.573 273.555 302.819 273.481C303.068 273.404 303.291 273.292 303.488 273.144C303.688 272.996 303.856 272.815 303.992 272.599C304.13 272.384 304.225 272.138 304.278 271.861L306.004 271.87C305.94 272.319 305.8 272.741 305.584 273.135C305.372 273.529 305.093 273.877 304.749 274.178C304.404 274.477 304.001 274.711 303.539 274.88C303.077 275.046 302.565 275.129 302.002 275.129C301.171 275.129 300.429 274.937 299.777 274.552C299.124 274.167 298.61 273.612 298.235 272.886C297.859 272.159 297.672 271.288 297.672 270.273C297.672 269.254 297.861 268.383 298.239 267.66C298.618 266.933 299.133 266.378 299.786 265.993C300.438 265.609 301.177 265.416 302.002 265.416C302.528 265.416 303.017 265.49 303.47 265.638C303.922 265.786 304.325 266.002 304.679 266.289C305.033 266.572 305.324 266.92 305.552 267.332C305.783 267.741 305.934 268.209 306.004 268.735ZM307.357 266.981V265.545H314.901V266.981H311.978V275H310.28V266.981H307.357ZM318.268 265.545V275H316.555V265.545H318.268ZM328.77 270.273C328.77 271.291 328.58 272.164 328.198 272.89C327.819 273.614 327.302 274.167 326.647 274.552C325.994 274.937 325.254 275.129 324.426 275.129C323.598 275.129 322.857 274.937 322.201 274.552C321.549 274.164 321.032 273.609 320.65 272.886C320.271 272.159 320.082 271.288 320.082 270.273C320.082 269.254 320.271 268.383 320.65 267.66C321.032 266.933 321.549 266.378 322.201 265.993C322.857 265.609 323.598 265.416 324.426 265.416C325.254 265.416 325.994 265.609 326.647 265.993C327.302 266.378 327.819 266.933 328.198 267.66C328.58 268.383 328.77 269.254 328.77 270.273ZM327.048 270.273C327.048 269.556 326.936 268.951 326.711 268.458C326.49 267.963 326.182 267.589 325.788 267.337C325.394 267.081 324.94 266.953 324.426 266.953C323.912 266.953 323.458 267.081 323.064 267.337C322.67 267.589 322.361 267.963 322.136 268.458C321.915 268.951 321.804 269.556 321.804 270.273C321.804 270.99 321.915 271.596 322.136 272.092C322.361 272.584 322.67 272.958 323.064 273.213C323.458 273.466 323.912 273.592 324.426 273.592C324.94 273.592 325.394 273.466 325.788 273.213C326.182 272.958 326.49 272.584 326.711 272.092C326.936 271.596 327.048 270.99 327.048 270.273ZM338.359 265.545V275H336.836L332.381 268.56H332.302V275H330.59V265.545H332.122L336.573 271.99H336.656V265.545H338.359ZM345.563 268.145C345.52 267.741 345.339 267.427 345.019 267.203C344.702 266.978 344.289 266.866 343.781 266.866C343.424 266.866 343.118 266.92 342.863 267.027C342.607 267.135 342.412 267.281 342.277 267.466C342.141 267.651 342.072 267.861 342.069 268.098C342.069 268.295 342.113 268.466 342.203 268.611C342.295 268.755 342.42 268.879 342.577 268.98C342.734 269.079 342.907 269.162 343.098 269.229C343.289 269.297 343.481 269.354 343.675 269.4L344.562 269.622C344.919 269.705 345.262 269.817 345.591 269.959C345.924 270.1 346.221 270.279 346.482 270.494C346.747 270.71 346.956 270.97 347.11 271.275C347.264 271.579 347.341 271.936 347.341 272.346C347.341 272.9 347.199 273.387 346.916 273.809C346.633 274.228 346.224 274.555 345.688 274.792C345.156 275.026 344.511 275.143 343.754 275.143C343.018 275.143 342.38 275.029 341.838 274.801C341.299 274.574 340.878 274.241 340.573 273.804C340.271 273.367 340.108 272.835 340.084 272.207H341.769C341.793 272.536 341.895 272.81 342.073 273.029C342.252 273.247 342.484 273.41 342.77 273.518C343.06 273.626 343.383 273.68 343.74 273.68C344.112 273.68 344.439 273.624 344.719 273.513C345.002 273.4 345.223 273.243 345.383 273.043C345.543 272.839 345.625 272.603 345.628 272.332C345.625 272.085 345.553 271.882 345.411 271.722C345.27 271.559 345.071 271.424 344.816 271.316C344.563 271.205 344.268 271.107 343.929 271.021L342.854 270.744C342.075 270.544 341.459 270.24 341.007 269.834C340.558 269.425 340.333 268.882 340.333 268.205C340.333 267.647 340.484 267.16 340.785 266.741C341.09 266.323 341.504 265.998 342.027 265.767C342.55 265.533 343.143 265.416 343.805 265.416C344.475 265.416 345.063 265.533 345.568 265.767C346.076 265.998 346.474 266.319 346.764 266.732C347.053 267.141 347.202 267.612 347.212 268.145H345.563Z" fill="#353535"/>
<path d="M200.686 283.545V293H198.973V285.212H198.918L196.706 286.625V285.055L199.056 283.545H200.686ZM203.286 293V291.763L206.569 288.545C206.883 288.228 207.144 287.946 207.353 287.7C207.563 287.454 207.72 287.216 207.824 286.985C207.929 286.754 207.981 286.508 207.981 286.246C207.981 285.948 207.914 285.692 207.778 285.48C207.643 285.264 207.457 285.098 207.22 284.981C206.983 284.864 206.713 284.806 206.412 284.806C206.101 284.806 205.828 284.87 205.595 285C205.361 285.126 205.179 285.306 205.05 285.54C204.924 285.774 204.861 286.052 204.861 286.375H203.231C203.231 285.775 203.368 285.254 203.642 284.81C203.916 284.367 204.293 284.024 204.773 283.781C205.256 283.538 205.81 283.416 206.435 283.416C207.069 283.416 207.626 283.535 208.106 283.772C208.586 284.009 208.958 284.333 209.223 284.746C209.491 285.158 209.625 285.629 209.625 286.158C209.625 286.512 209.557 286.86 209.422 287.202C209.286 287.543 209.048 287.922 208.706 288.337C208.367 288.753 207.892 289.256 207.28 289.847L205.65 291.504V291.569H209.768V293H203.286ZM214.843 283.416C215.295 283.419 215.735 283.499 216.163 283.656C216.594 283.81 216.982 284.062 217.326 284.413C217.671 284.761 217.945 285.227 218.148 285.812C218.351 286.397 218.453 287.12 218.453 287.982C218.456 288.794 218.37 289.521 218.194 290.161C218.022 290.798 217.774 291.337 217.451 291.777C217.128 292.217 216.739 292.552 216.283 292.783C215.828 293.014 215.315 293.129 214.746 293.129C214.149 293.129 213.619 293.012 213.158 292.778C212.699 292.545 212.328 292.224 212.045 291.818C211.762 291.412 211.588 290.947 211.524 290.424H213.209C213.295 290.799 213.47 291.098 213.735 291.32C214.003 291.538 214.34 291.647 214.746 291.647C215.401 291.647 215.906 291.363 216.26 290.793C216.614 290.224 216.791 289.433 216.791 288.42H216.726C216.576 288.691 216.38 288.925 216.14 289.122C215.9 289.316 215.628 289.465 215.323 289.57C215.021 289.675 214.701 289.727 214.363 289.727C213.809 289.727 213.31 289.595 212.867 289.33C212.427 289.065 212.078 288.702 211.819 288.24C211.564 287.779 211.434 287.251 211.431 286.657C211.431 286.041 211.573 285.489 211.856 285C212.142 284.507 212.541 284.119 213.052 283.836C213.563 283.55 214.16 283.41 214.843 283.416ZM214.847 284.801C214.515 284.801 214.215 284.883 213.947 285.046C213.683 285.206 213.473 285.424 213.319 285.701C213.169 285.975 213.093 286.281 213.093 286.62C213.096 286.955 213.172 287.26 213.319 287.534C213.47 287.808 213.675 288.025 213.933 288.185C214.195 288.345 214.494 288.425 214.829 288.425C215.078 288.425 215.311 288.377 215.526 288.282C215.742 288.187 215.929 288.054 216.089 287.885C216.252 287.713 216.379 287.517 216.468 287.299C216.56 287.08 216.605 286.849 216.602 286.606C216.602 286.283 216.525 285.984 216.371 285.711C216.22 285.437 216.012 285.217 215.748 285.05C215.486 284.884 215.186 284.801 214.847 284.801ZM221.803 291.707L221.742 292.215C221.699 292.603 221.622 292.997 221.512 293.397C221.404 293.8 221.29 294.171 221.17 294.51C221.05 294.848 220.953 295.114 220.879 295.308H219.753C219.796 295.121 219.854 294.865 219.928 294.542C220.005 294.219 220.079 293.856 220.15 293.452C220.221 293.049 220.268 292.64 220.293 292.224L220.325 291.707H221.803ZM226.999 283.416C227.451 283.419 227.891 283.499 228.319 283.656C228.75 283.81 229.138 284.062 229.482 284.413C229.827 284.761 230.101 285.227 230.304 285.812C230.507 286.397 230.609 287.12 230.609 287.982C230.612 288.794 230.526 289.521 230.35 290.161C230.178 290.798 229.93 291.337 229.607 291.777C229.284 292.217 228.895 292.552 228.439 292.783C227.984 293.014 227.471 293.129 226.902 293.129C226.305 293.129 225.775 293.012 225.314 292.778C224.855 292.545 224.484 292.224 224.201 291.818C223.918 291.412 223.744 290.947 223.679 290.424H225.364C225.451 290.799 225.626 291.098 225.891 291.32C226.158 291.538 226.495 291.647 226.902 291.647C227.557 291.647 228.062 291.363 228.416 290.793C228.77 290.224 228.947 289.433 228.947 288.42H228.882C228.731 288.691 228.536 288.925 228.296 289.122C228.056 289.316 227.783 289.465 227.479 289.57C227.177 289.675 226.857 289.727 226.519 289.727C225.965 289.727 225.466 289.595 225.023 289.33C224.583 289.065 224.233 288.702 223.975 288.24C223.719 287.779 223.59 287.251 223.587 286.657C223.587 286.041 223.729 285.489 224.012 285C224.298 284.507 224.697 284.119 225.207 283.836C225.718 283.55 226.315 283.41 226.999 283.416ZM227.003 284.801C226.671 284.801 226.371 284.883 226.103 285.046C225.838 285.206 225.629 285.424 225.475 285.701C225.324 285.975 225.249 286.281 225.249 286.62C225.252 286.955 225.328 287.26 225.475 287.534C225.626 287.808 225.831 288.025 226.089 288.185C226.351 288.345 226.649 288.425 226.985 288.425C227.234 288.425 227.466 288.377 227.682 288.282C227.897 288.187 228.085 288.054 228.245 287.885C228.408 287.713 228.534 287.517 228.624 287.299C228.716 287.08 228.761 286.849 228.758 286.606C228.758 286.283 228.681 285.984 228.527 285.711C228.376 285.437 228.168 285.217 227.904 285.05C227.642 284.884 227.342 284.801 227.003 284.801ZM235.841 293.18C235.081 293.18 234.428 292.988 233.883 292.603C233.342 292.215 232.925 291.657 232.632 290.927C232.343 290.195 232.198 289.313 232.198 288.282C232.201 287.251 232.348 286.374 232.637 285.651C232.929 284.924 233.346 284.37 233.888 283.989C234.433 283.607 235.084 283.416 235.841 283.416C236.598 283.416 237.249 283.607 237.794 283.989C238.338 284.37 238.755 284.924 239.045 285.651C239.337 286.377 239.483 287.254 239.483 288.282C239.483 289.316 239.337 290.199 239.045 290.932C238.755 291.661 238.338 292.218 237.794 292.603C237.252 292.988 236.601 293.18 235.841 293.18ZM235.841 291.735C236.432 291.735 236.898 291.444 237.24 290.863C237.584 290.278 237.757 289.418 237.757 288.282C237.757 287.531 237.678 286.9 237.521 286.389C237.364 285.878 237.143 285.494 236.856 285.235C236.57 284.973 236.232 284.843 235.841 284.843C235.253 284.843 234.788 285.135 234.447 285.72C234.105 286.301 233.933 287.156 233.93 288.282C233.926 289.036 234.002 289.67 234.156 290.184C234.313 290.698 234.534 291.086 234.82 291.347C235.107 291.606 235.447 291.735 235.841 291.735ZM244.578 293.129C243.891 293.129 243.282 293.014 242.75 292.783C242.22 292.552 241.805 292.237 241.503 291.837C241.205 291.433 241.057 290.976 241.06 290.466C241.057 290.069 241.143 289.704 241.319 289.371C241.494 289.039 241.731 288.762 242.029 288.54C242.331 288.316 242.667 288.173 243.036 288.111V288.047C242.55 287.939 242.156 287.691 241.854 287.303C241.555 286.912 241.408 286.462 241.411 285.951C241.408 285.464 241.543 285.03 241.817 284.649C242.091 284.267 242.466 283.967 242.944 283.749C243.421 283.527 243.965 283.416 244.578 283.416C245.184 283.416 245.724 283.527 246.198 283.749C246.675 283.967 247.051 284.267 247.325 284.649C247.602 285.03 247.74 285.464 247.74 285.951C247.74 286.462 247.588 286.912 247.283 287.303C246.981 287.691 246.592 287.939 246.115 288.047V288.111C246.484 288.173 246.817 288.316 247.112 288.54C247.411 288.762 247.648 289.039 247.823 289.371C248.002 289.704 248.091 290.069 248.091 290.466C248.091 290.976 247.94 291.433 247.638 291.837C247.337 292.237 246.921 292.552 246.392 292.783C245.866 293.014 245.261 293.129 244.578 293.129ZM244.578 291.809C244.932 291.809 245.239 291.749 245.501 291.629C245.763 291.506 245.966 291.333 246.11 291.112C246.255 290.89 246.329 290.635 246.332 290.346C246.329 290.044 246.25 289.778 246.097 289.547C245.946 289.313 245.738 289.13 245.473 288.998C245.212 288.865 244.913 288.799 244.578 288.799C244.239 288.799 243.938 288.865 243.673 288.998C243.408 289.13 243.199 289.313 243.045 289.547C242.894 289.778 242.82 290.044 242.823 290.346C242.82 290.635 242.891 290.89 243.036 291.112C243.18 291.33 243.384 291.501 243.645 291.624C243.91 291.747 244.221 291.809 244.578 291.809ZM244.578 287.502C244.867 287.502 245.122 287.443 245.344 287.326C245.569 287.209 245.746 287.046 245.875 286.837C246.004 286.628 246.07 286.386 246.073 286.112C246.07 285.841 246.006 285.604 245.88 285.401C245.753 285.195 245.578 285.037 245.353 284.926C245.129 284.812 244.87 284.755 244.578 284.755C244.279 284.755 244.016 284.812 243.788 284.926C243.564 285.037 243.388 285.195 243.262 285.401C243.139 285.604 243.079 285.841 243.082 286.112C243.079 286.386 243.14 286.628 243.267 286.837C243.396 287.043 243.573 287.206 243.798 287.326C244.025 287.443 244.285 287.502 244.578 287.502Z" fill="#989898"/>
<path d="M213 218H219V224" stroke="#505050" stroke-width="2" stroke-linecap="round" stroke-linejoin="round"/>
<path d="M219 218L211 226L207 222L199 230" stroke="#505050" stroke-width="2" stroke-linecap="round" stroke-linejoin="round"/>
<defs>
<linearGradient id="paint0_linear_942_431" x1="185" y1="189" x2="381" y2="189" gradientUnits="userSpaceOnUse">
<stop offset="0.425487" stop-color="white"/>
<stop offset="1" stop-color="#FFFEFE" stop-opacity="0"/>
</linearGradient>
</defs>
</svg>
