<svg width="176" height="112" viewBox="0 0 176 112" fill="none" xmlns="http://www.w3.org/2000/svg">
<rect width="176" height="112" fill="#FAFAFA"/>
<path d="M66.063 49.8638L75.2238 63.3906H76.9038V45.7634H74.8664V59.1677L65.9966 46.0953L65.7719 45.7634H64.8119L64.7966 45.743V45.7634H64.0255V63.3906H66.063V49.8638ZM90.3234 56.3387C93.423 54.4596 94.6383 52.846 94.6383 50.5736C94.6383 47.4536 92.5294 45.4366 89.2766 45.4366C88.0717 45.4366 86.893 45.7878 85.8846 46.4471C84.8761 47.1064 84.0816 48.0453 83.5983 49.1489L83.2919 49.8332L85.1353 50.6809L85.4468 50.0221C85.7626 49.2686 86.2931 48.6247 86.9723 48.1707C87.6516 47.7167 88.4494 47.4726 89.2664 47.4689C91.3089 47.4689 92.56 48.6332 92.56 50.5889C92.56 51.8451 92.0136 52.9583 89.3072 54.623C84.4766 57.5847 83.4094 58.9072 83.2817 62.0783V63.406H94.5821V61.3634H85.3906C85.5745 59.7396 86.2894 58.7949 90.3234 56.3387V56.3387ZM106.128 51.9268C104.601 51.978 103.131 52.5146 101.93 53.4587C102.247 49.6596 103.922 47.4332 106.526 47.4332C107.099 47.421 107.668 47.5236 108.2 47.7349C108.733 47.9463 109.217 48.2621 109.626 48.6638L110.208 49.1745L111.53 47.617L110.948 47.1064C109.739 46.0044 108.156 45.4037 106.521 45.4264C102.4 45.4264 99.8417 49.0366 99.8417 54.8477C99.8417 61.3787 103.079 63.7072 106.107 63.7072C109.957 63.7174 112 60.6638 112 57.646C112 53.423 108.839 51.9268 106.128 51.9268V51.9268ZM109.957 57.646C109.957 59.663 108.64 61.7004 106.123 61.7004C104.412 61.7004 102.308 60.2451 101.935 56.16C102.676 55.2715 104.274 53.9387 106.143 53.9387C109.569 53.9438 109.957 56.5328 109.957 57.646V57.646ZM64 65.6885H76.9294V67.2051H64V65.6885ZM64.046 42H76.9294V43.5166H64.046V42Z" fill="#1D1D1D"/>
</svg>
