<svg width="176" height="112" viewBox="0 0 176 112" fill="none" xmlns="http://www.w3.org/2000/svg">
<rect width="176" height="112" fill="#FAFAFA"/>
<path d="M64.1899 52.3111C63.0648 53.486 62.4368 55.0499 62.4368 56.6766C62.4368 58.3033 63.0648 59.8672 64.1899 61.0421C64.7395 61.6141 65.4004 62.0677 66.1317 62.375C66.8631 62.6823 67.6496 62.8368 68.4429 62.8291C70.8369 62.8291 72.7609 61.4451 73.7029 59.3221L76.8409 60.1341C76.1849 61.8293 75.0321 63.2868 73.5335 64.3155C72.035 65.3442 70.2605 65.8962 68.4429 65.8991C67.2218 65.923 66.0092 65.6923 64.8823 65.2216C63.7555 64.7508 62.739 64.0505 61.8979 63.1651C61.0441 62.3126 60.3699 61.2977 59.9151 60.1802C59.4603 59.0627 59.2341 57.8655 59.2499 56.6591C59.2525 54.2241 60.2193 51.8892 61.9389 50.1651C63.659 48.4401 65.9918 47.4659 68.4279 47.4551C70.2479 47.4421 72.0279 47.9951 73.5199 49.0391C75.0191 50.0661 76.1718 51.5235 76.8259 53.2191L73.6879 54.0311C73.1311 52.6897 72.0871 51.6087 70.7659 51.0056C69.4447 50.4025 67.9441 50.3219 66.5659 50.7801C65.6531 51.0825 64.8307 51.6088 64.1739 52.3111H64.1899ZM110.608 55.2511C110.804 56.1277 110.816 57.0356 110.643 57.9171H95.7999C96.2029 60.9161 98.6319 62.8711 101.636 62.8711C102.658 62.8829 103.67 62.6612 104.593 62.223C105.517 61.7847 106.328 61.1414 106.966 60.3421L109.966 61.1191C109.216 62.6 108.026 63.8126 106.56 64.5901C105.062 65.4513 103.364 65.9054 101.636 65.9071C100.423 65.9266 99.2199 65.6972 98.0997 65.2332C96.9795 64.7691 95.9663 64.0802 95.1229 63.2091C94.2607 62.3547 93.5803 61.3348 93.1223 60.2108C92.6643 59.0867 92.4383 57.8817 92.4579 56.6681C92.4602 54.2327 93.427 51.8974 95.1469 50.1731C96.867 48.4481 99.1998 47.4739 101.636 47.4631C103.82 47.4317 105.932 48.2412 107.536 49.7241C109.203 51.1235 110.297 53.0878 110.608 55.2421V55.2511ZM107.337 55.2861C107.123 53.9478 106.441 52.7288 105.413 51.8461C104.331 50.9472 102.967 50.4582 101.56 50.4647C100.154 50.4713 98.7944 50.9731 97.7209 51.8821C96.6754 52.735 95.9896 53.9503 95.7999 55.2861H107.337ZM134.594 47.7701L130.88 63.1101L127.374 47.7701H122.617L119.087 63.0741L115.38 47.7701H111.97L116.677 65.6381H121.534L125.04 50.1281L128.517 65.6381H133.341L138.03 47.7701H134.594ZM46.7159 42.0071L54.9319 65.6371H58.6209L50.4049 42.0071H46.7159ZM83.2799 50.7601V47.7601H79.9059V65.6281H83.2799V56.7531C83.2799 55.0661 83.8419 53.4581 84.7299 52.5731C85.9069 51.3791 87.3779 50.8881 89.7929 50.8881H91.6789V47.7521C87.2249 47.5991 85.6359 48.0631 83.2799 50.7501V50.7601ZM41.9329 58.0351C41.1553 58.035 40.3952 58.2653 39.7484 58.6969C39.1016 59.1285 38.5972 59.7421 38.2989 60.4601C38.0758 60.9972 37.9748 61.5771 38.0032 62.158C38.0316 62.7389 38.1886 63.3063 38.4629 63.8191C38.7372 64.3319 39.122 64.7775 39.5894 65.1235C40.0568 65.4695 40.5953 65.7075 41.1659 65.8201C41.736 65.9331 42.3242 65.9184 42.888 65.777C43.4518 65.6356 43.9773 65.371 44.4267 65.0023C44.8761 64.6336 45.2383 64.17 45.4871 63.6446C45.7359 63.1193 45.8653 62.5454 45.8659 61.9641C45.8659 61.4477 45.7641 60.9364 45.5664 60.4594C45.3687 59.9824 45.079 59.5491 44.7137 59.1841C44.3485 58.8191 43.9149 58.5297 43.4377 58.3324C42.9606 58.135 42.4492 58.0337 41.9329 58.0341V58.0351ZM44.9329 50.0451C44.5146 50.045 44.1015 50.1376 43.7233 50.3162C43.345 50.4949 43.0111 50.7551 42.7455 51.0782C42.4798 51.4013 42.2891 51.7793 42.187 52.1849C42.0849 52.5905 42.0739 53.0137 42.1549 53.4241C42.2364 53.8346 42.4081 54.222 42.6575 54.5581C42.9069 54.8943 43.2279 55.1709 43.5971 55.3679C43.9664 55.565 44.3749 55.6777 44.7929 55.6977C45.211 55.7178 45.6284 55.6449 46.0149 55.4841C46.5315 55.2696 46.973 54.9068 47.2836 54.4416C47.5942 53.9763 47.7599 53.4295 47.7599 52.8701C47.7593 52.1207 47.4612 51.4021 46.9311 50.8724C46.401 50.3426 45.6823 50.0451 44.9329 50.0451V50.0451Z" fill="#194F3D"/>
</svg>
