<svg width="176" height="112" viewBox="0 0 176 112" fill="none" xmlns="http://www.w3.org/2000/svg">
<path fill-rule="evenodd" clip-rule="evenodd" d="M89.5587 43.4681C89.5334 44.8981 90.6334 46.0306 92.0563 46.0405C93.4779 46.0503 94.6216 44.9249 94.616 43.5175C94.6104 42.151 93.4807 41.0171 92.1057 41.0002C90.7293 40.9833 89.5827 42.0946 89.5587 43.4681ZM59.3587 63.4643L59.359 63.4642L59.3592 63.464C59.4448 63.4061 59.536 63.3444 59.6368 63.2771C59.6368 63.3585 59.6384 63.422 59.6398 63.4747C59.6418 63.5505 59.6432 63.604 59.6382 63.6564C59.5197 64.6098 59.5606 64.6591 60.5224 64.6619C60.773 64.6629 61.0237 64.6601 61.2744 64.6572C61.7758 64.6516 62.2772 64.646 62.7774 64.6704C63.4021 64.7 63.7166 64.48 63.8294 63.8369C64.677 58.9815 65.5443 54.1302 66.4187 49.2804C66.5357 48.626 66.3425 48.2918 65.6656 48.1282C63.2259 47.5401 60.7565 47.2567 58.2575 47.4471C55.5005 47.6572 53.2258 48.7797 51.8409 51.2914C51.4488 52.0036 51.1019 52.7778 50.9285 53.5661C50.8609 53.8741 50.7905 54.182 50.7202 54.49L50.7201 54.49C50.2737 56.4442 49.8258 58.4048 50.0682 60.4453C50.401 63.2446 52.3711 64.9595 55.1832 64.9313C56.5695 64.9172 57.8048 64.4744 58.9542 63.734C59.0846 63.6497 59.2133 63.5627 59.3586 63.4644L59.3587 63.4643ZM60.4784 51.4416L60.4784 51.4416H60.4784H60.4784C60.6951 51.4591 60.9183 51.477 61.1514 51.4931L60.9721 52.5361C60.8005 53.535 60.6358 54.4934 60.4688 55.4502C60.3903 55.8983 60.3094 56.3459 60.2285 56.7933L60.2284 56.7935L60.2284 56.7936L60.2284 56.7938L60.2284 56.7939C60.0796 57.6165 59.9309 58.4388 59.7975 59.2635C59.7228 59.7204 59.5536 60.0688 59.0981 60.2126C58.8783 60.2822 58.6594 60.3577 58.4405 60.4333L58.4405 60.4334L58.4404 60.4334L58.4403 60.4334L58.4403 60.4334C57.8824 60.6261 57.3242 60.8189 56.75 60.9121C55.454 61.1208 54.5542 60.2239 54.7587 58.9575C55.0295 57.2906 55.3186 55.6237 55.7064 53.9807C56.1802 51.9754 57.111 51.3168 59.1827 51.3619C59.6054 51.3714 60.0275 51.4054 60.4781 51.4416L60.4782 51.4416L60.4784 51.4416L60.4784 51.4416ZM101.16 64.9228C101.387 64.9463 101.613 64.9699 101.838 64.9999C106.205 64.8984 109.101 62.7985 110.235 58.7173C110.647 57.2323 110.922 55.6923 111.093 54.1593C111.435 51.0765 110.041 48.7651 107.429 47.8174C106.182 47.3647 104.896 47.3322 103.606 47.4394C100.205 47.7215 97.6909 49.3348 96.6064 52.6334C95.9887 54.5105 95.5727 56.4989 95.3964 58.4662C95.1087 61.676 96.7968 63.9817 99.6864 64.6996C100.167 64.8196 100.663 64.8712 101.16 64.9228ZM101.508 60.7734C100.59 60.5167 100.217 59.8596 100.104 58.5156C100.21 58.0144 100.305 57.5102 100.401 57.0059L100.401 57.0058L100.401 57.0058L100.401 57.0057L100.401 57.0056L100.401 57.0056C100.615 55.8768 100.829 54.7481 101.157 53.6544C101.644 52.0312 102.816 51.3769 104.446 51.5193C105.464 51.6081 106.148 52.1948 106.181 53.213C106.244 55.2692 105.923 57.2901 105.105 59.1812C104.491 60.5999 102.999 61.1908 101.508 60.7734ZM71.2533 47.6242C71.4117 47.6242 71.5702 47.6262 71.7286 47.6282C72.0876 47.6327 72.4464 47.6372 72.8045 47.6186C73.4067 47.5862 73.6493 47.8541 73.6733 48.4436C73.7484 50.2865 73.8331 52.1287 73.9179 53.9707C73.9541 54.7576 73.9904 55.5444 74.0258 56.3311C74.041 56.6692 74.0544 57.0075 74.0677 57.3457C74.0988 58.1347 74.1299 58.9238 74.1852 59.7115C74.1978 59.8992 74.2827 60.0822 74.3675 60.2651C74.4064 60.3489 74.4452 60.4326 74.4771 60.5168C74.5464 60.451 74.6258 60.3893 74.7052 60.3275C74.8763 60.1944 75.0475 60.0611 75.1188 59.8878C76.0743 57.5449 77.0098 55.1942 77.9451 52.8439L77.9452 52.8438L77.9452 52.8436L77.9453 52.8433L77.9454 52.8431C78.1985 52.2072 78.4516 51.5712 78.705 50.9355C78.7964 50.7061 78.888 50.4767 78.9796 50.2473L78.9798 50.2469C79.2277 49.6264 79.4757 49.0058 79.7176 48.383C79.9207 47.8626 80.2676 47.6073 80.8458 47.6186C81.4787 47.6302 82.112 47.6278 82.7455 47.6254H82.7456C83.264 47.6234 83.7824 47.6214 84.3009 47.6271C85.0413 47.6355 85.1908 47.8668 84.8805 48.5423C82.8413 53.0044 80.7993 57.4636 78.7473 61.92C77.4668 64.7024 75.0172 65.3553 72.2588 64.7278C71.0558 64.4542 70.3916 63.5446 70.2421 62.3557C70.0308 60.6813 69.8623 59.002 69.6939 57.3228L69.6938 57.3215C69.6419 56.8047 69.5901 56.2879 69.537 55.7713C69.3813 54.2604 69.2306 52.7489 69.0798 51.2372L69.0798 51.2369C69.0161 50.5982 68.9523 49.9595 68.8883 49.3208L68.8777 49.2153L68.8777 49.2152V49.2151V49.2151C68.8555 48.9933 68.8331 48.7706 68.8234 48.548C68.791 47.7949 68.9362 47.6454 69.702 47.6242H69.7725H71.2533ZM122.399 47.5372L122.399 47.5371C122.109 47.4924 121.855 47.4531 121.649 47.4208C119.352 47.4476 117.839 47.5858 116.42 48.2487C114.668 49.0666 113.818 50.4895 113.705 52.3751C113.598 54.1562 114.345 55.5016 115.863 56.4394C116.682 56.9455 117.493 57.4661 118.304 57.9867L118.304 57.9868L118.304 57.9869C118.501 58.1133 118.698 58.2396 118.895 58.3658C119.895 59.0075 120.181 59.463 119.972 60.1286C119.675 61.0777 118.847 61.0495 118.109 61.0157C116.516 60.9438 114.922 60.8225 113.337 60.649C112.766 60.5856 112.451 60.7463 112.219 61.2357C112.05 61.5901 111.868 61.9375 111.685 62.285C111.573 62.4988 111.46 62.7125 111.351 62.928C110.94 63.7431 111.043 64.0266 111.959 64.1817L112.023 64.1925C113.621 64.4626 115.224 64.7335 116.836 64.8699C118.68 65.025 120.503 64.7994 122.178 63.925C124.279 62.8293 125.383 60.4262 124.833 58.229C124.529 57.0106 123.722 56.1813 122.715 55.5227C121.904 54.9919 121.084 54.4745 120.264 53.9571L120.264 53.9567C119.892 53.7223 119.521 53.4879 119.15 53.2522C118.714 52.9758 118.374 52.5598 118.638 52.0888C118.792 51.8136 119.156 51.6408 119.489 51.4823L119.49 51.4821C119.548 51.4546 119.604 51.4276 119.659 51.4006C119.802 51.3304 119.995 51.3485 120.177 51.3656C120.188 51.3667 120.2 51.3677 120.211 51.3688C120.237 51.3711 120.262 51.3734 120.287 51.3752C120.615 51.3995 120.943 51.423 121.272 51.4466C122.488 51.534 123.706 51.6214 124.919 51.7447C125.543 51.8081 125.854 51.6036 125.946 50.9958C125.964 50.877 125.981 50.7578 125.998 50.6385L125.998 50.6384L125.998 50.6383C126.072 50.1294 126.146 49.6191 126.276 49.1244C126.454 48.4489 126.176 48.1358 125.56 48.0357C124.405 47.8475 123.249 47.6686 122.399 47.5372ZM88.4137 51.2353C88.2318 51.2353 88.0563 51.2364 87.8852 51.2375H87.8852C87.5139 51.2399 87.1635 51.2421 86.8131 51.2325C86.1545 51.2155 86.0191 51.0012 86.3139 50.3948C86.3623 50.2953 86.4106 50.1956 86.4588 50.0959C86.7685 49.4558 87.0793 48.8133 87.466 48.2216C87.6508 47.9381 88.0767 47.6589 88.4025 47.6462C89.4758 47.6048 90.5504 47.6088 91.625 47.6127C92.1233 47.6146 92.6216 47.6164 93.1198 47.6138C93.8207 47.6095 93.8574 48.0284 93.7615 48.5572C93.1819 51.7881 92.6037 55.019 92.0283 58.2499C91.7277 59.9331 91.4309 61.6176 91.1343 63.301L91.0848 63.582C90.9043 64.6073 90.8521 64.6552 89.8212 64.6566C88.8594 64.6595 87.8962 64.6623 86.9344 64.6552C86.17 64.6496 86.0572 64.5128 86.1996 63.7033C86.5201 61.8768 86.8469 60.0509 87.1737 58.2253L87.1739 58.2245C87.3345 57.3271 87.4952 56.4297 87.655 55.5323C87.8012 54.7077 87.9468 53.8817 88.0957 53.0372C88.1997 52.4475 88.3053 51.8488 88.4137 51.2353Z" fill="#1C4076"/>
</svg>
