<svg width="176" height="112" viewBox="0 0 176 112" fill="none" xmlns="http://www.w3.org/2000/svg">
<rect width="176" height="112" fill="#FAFAFA"/>
<path d="M82.6525 46.0273H84.6161V42.0197C83.7777 41.9847 82.7223 42.007 81.848 42.007C77.0475 42.007 75.4946 44.6555 75.4946 47.4955V49.1702H72.8503V52.8528H75.4946V67.1358H81.0191V52.8528H84.4139V49.1702H81.1652V47.8099C81.1652 46.5693 81.8861 46.0273 82.6525 46.0273Z" fill="#1D1D1D"/>
<path fill-rule="evenodd" clip-rule="evenodd" d="M98.9867 67.1357L98.8787 65.2399C97.7249 67.1961 95.9074 67.5951 93.6019 67.5951C88.1482 67.5951 85.4902 62.8539 85.4902 57.8533C85.4902 52.9936 88.1832 48.4852 93.4971 48.4852C95.629 48.4852 97.5629 49.0293 98.7168 50.8108L98.7517 42.0059H104V67.1357H98.9867ZM94.761 52.4484C93.0398 52.4484 90.729 53.3334 90.729 57.9931C90.729 61.3487 92.1379 63.7389 94.761 63.7389C97.7704 63.7389 98.8544 61.2047 98.8544 57.9603C98.8544 54.6671 97.5905 52.4484 94.761 52.4484Z" fill="#1D1D1D"/>
</svg>
