<svg width="176" height="112" viewBox="0 0 176 112" fill="none" xmlns="http://www.w3.org/2000/svg">
<rect width="176" height="112" fill="#FAFAFA"/>
<path d="M95.3397 57.3563C95.0013 59.5239 93.8763 60.6672 92.5318 60.6672C91.6813 60.6672 91.1874 60.0727 91.3337 59.1398L91.8093 56.1948C91.9922 55.1064 92.6416 54.2467 93.8123 54.2467C95.1019 54.2467 95.6872 55.1247 95.3397 57.3563ZM90.7392 61.6824C90.9221 61.6824 91.3612 62.4415 92.7788 62.4415C95.797 62.4415 97.5256 60.2648 97.992 57.4478C98.5956 53.9723 96.9036 52.3992 94.7726 52.3992C93.7757 52.3992 93.0257 52.4907 92.477 52.7834L93.291 48H90.785L88.2972 62.2769H90.1905C90.1905 62.2769 90.4648 61.6824 90.7575 61.6824H90.7392ZM117.409 55.5912C117.793 53.4327 116.988 52.3718 114.647 52.3718C112.9 52.3718 112.214 53.14 111.565 53.7986L111.629 52.5913L109.306 52.6096L109.123 54.3931L107.778 62.2769H110.321L111.135 57.1551C111.427 55.39 112.644 54.0455 113.787 54.0455C115.058 54.0455 115.04 54.7772 114.848 55.8838L113.741 62.2769H116.266L117.409 55.5912ZM128 52.3901H125.037L121.634 56.0027L121.589 55.9936L122.951 48H120.482L117.994 62.2678H120.5L120.756 60.841L121.269 57.713C122.595 57.713 123.336 57.8594 123.921 60.4934L124.323 62.2678H126.884C126.884 62.2678 126.244 59.5697 125.832 58.5179C125.393 57.4112 124.918 56.6795 123.903 56.4783L128 52.3901ZM55.1705 55.893C57.0088 55.4906 57.96 54.0089 58.2161 53.0486C58.8654 50.3963 57.6856 48.3201 54.3107 48.3567H50.4328L48 62.2769H50.5243L51.5212 56.6887C53.8534 56.6247 54.137 57.1917 54.576 59.9081L54.9784 62.2769H57.5941C57.2832 60.841 57.082 59.4874 56.835 58.399C56.5606 57.2557 56.1399 56.3594 55.0424 55.9296L55.1705 55.893ZM55.6826 52.5821C55.4631 53.8169 54.5028 54.6857 53.323 54.6857H51.8322L52.6004 50.2956L53.954 50.2865C55.5729 50.2865 55.8838 51.3474 55.6826 52.5821ZM67.106 55.207C67.4718 53.0943 66.3377 52.3718 64.0695 52.3718C61.2343 52.3718 59.9995 53.7162 59.9995 53.7162L60.8684 55.1888C60.8684 55.1888 61.783 54.1187 63.6122 54.1187C64.6366 54.1187 64.6549 54.64 64.5542 55.1888L64.353 56.4417C60.7038 56.3503 58.8289 57.1277 58.4081 59.5331C58.0606 61.4995 59.5331 62.4415 61.1885 62.4415C62.0391 62.4415 62.7342 62.3135 63.5665 61.5818C63.7311 62.0574 64.0238 62.3043 64.3439 62.3592C64.8744 62.469 65.7798 62.3409 66.0542 62.1489C66.0359 61.8562 66.0542 61.1154 66.3652 59.3685L67.106 55.207ZM64.1061 57.7771C63.7037 60.6489 63.3195 60.9324 61.9385 60.9324C60.9965 60.9324 60.6398 60.2831 60.8044 59.4325C61.0147 58.2801 61.8928 57.7771 64.1061 57.7771ZM107.184 55.207C107.55 53.0943 106.415 52.3718 104.147 52.3718C101.312 52.3718 100.077 53.7162 100.077 53.7162L100.946 55.1888C100.946 55.1888 101.861 54.1187 103.69 54.1187C104.714 54.1187 104.733 54.64 104.632 55.1888L104.431 56.4417C100.782 56.3503 98.9066 57.1277 98.4859 59.5331C98.1383 61.4995 99.6108 62.4415 101.266 62.4415C102.117 62.4415 102.812 62.3135 103.644 61.5818C103.809 62.0574 104.102 62.3043 104.422 62.3592C104.952 62.469 105.858 62.3409 106.132 62.1489C106.114 61.8562 106.132 61.1154 106.443 59.3685L107.184 55.207ZM104.184 57.7771C103.781 60.6489 103.397 60.9324 102.016 60.9324C101.074 60.9324 100.718 60.2831 100.882 59.4325C101.092 58.2801 101.971 57.7771 104.184 57.7771ZM72.1729 62.4415C75.191 62.4415 76.9196 60.2648 77.3861 57.4478C77.9897 53.9723 76.2977 52.3992 74.1667 52.3992C73.1698 52.3992 72.4472 52.4907 71.8802 52.7834L72.6942 48H70.179L67.6913 62.2769H69.5845C69.5845 62.2769 69.8589 61.6824 70.1333 61.6824C70.3162 61.6824 70.7552 62.4415 72.1729 62.4415ZM73.2246 54.2467C74.5142 54.2467 75.063 55.1156 74.7612 57.3563C74.4502 59.6428 73.2978 60.6672 71.9351 60.6672C71.0845 60.6672 70.5906 60.0727 70.7552 59.1398L71.2308 56.1948C71.4137 55.1064 72.0631 54.2467 73.2155 54.2467H73.2246ZM78.447 58.2252C78.8311 54.5943 80.4774 52.3443 84.3645 52.3443C87.2546 52.3443 88.2149 54.5485 87.8217 56.9265C87.1997 60.7221 85.7272 62.5055 82.0139 62.5055C79.6268 62.4964 78.2001 60.5392 78.447 58.2252ZM85.1968 57.0911C85.3797 56.0851 85.5809 54.137 83.8523 54.137C82.6908 54.137 81.6024 54.9235 81.1176 57.6856C80.8158 59.3685 81.1451 60.7221 82.4895 60.7221C83.4682 60.7312 84.6754 59.9172 85.1968 57.0911Z" fill="#2A3795"/>
</svg>
